<svg xmlns="http://www.w3.org/2000/svg" version="1" width="360" height="240"><path fill="#75aadb" d="M0 0h360v120H0z"/><path fill="#00335b" d="M0 120h360v120H0z"/><path d="M0 90h360v60H0zM150 0h60v240h-60z"/><g fill="#108042" stroke="#000"><path d="M137.803 205.635c.654 1.615-1.668.683-4.61.755-5.09.124-9.484.383-15.007 8.113 5.072 1.59 11.082 3.568 17 2.613 6.675-1.076 5.753-10.163 10.086-8.56l-1.962-3.32zm45.946 470.12s.173-1.72-1.963-2.34c-2.135-.617-7.933-.735-8.603-6.566-.47-4.068-.657-12.36.745-15.697 3.66 1.668 7.592 4.245 9.613 8.856 1.17 2.674.877 9.982 2.927 7.804.448-.723 1.926 1.822 1.926 1.822l-1.413 3.61zM-27.453 213.73c.52-4.32-7.992-1.367-8.567-9.627-.605-8.708 2.466-11.135 4.787-16.81 3.074 2.922 5.056 6.058 6.213 11.607.615 2.937-1.618 9.575 2.266 7.073.363-.396.775 2.923.775 2.923zm26.906-54.516c.968-2.407-6.988-2.806-6.988-9.833.363-6.16 4.56-8.604 8.06-15.71 3.24 3.414 4.703 8.172 4.47 11.887-.336 5.382-1.844 6.29-1.255 7.877.242.66.673.708.99.538.318-.17-.657 3.086-.657 3.086zm37.698-46.284c.766-.74.835-1.583.31-2.718-.542-1.177-4.217-3.982-4.063-7.347.15-3.34 2.802-6.99 5.555-10.18 2.558-2.96 5.203-3.874 6.292-4.25 1.09 5.46 1.985 6.22 1.337 9.876-1.326 7.514-5.986 10.16-3.527 10.728.974-.39.196 1.266.196 1.266l-2.58 1.7zm44.67-34.935c.46-.594.415-1.653-.072-2.088-.488-.438-2.437-3.09-2.02-5.154.875-4.352 5.49-7.07 7.104-8.24 1.606-1.168 2.603-2.204 3.604-3.316 2.645 1.995 2.018 8.342-.585 11.17-1.216 1.217-2.488 2.145-2.926 3.166-.438 1.02-.477 2.083.06 2.083.535 0-1.61 1.56-1.61 1.56zm49.75-27.948c1.48-.014 5.992.248 9.877 3.806-1.99 2.308-6.115 4.86-8.535 4.95-3.06.118-5.484-.7-6.92-1.41-3.063-1.513-5.78-.205-6.92.175-.914.304.276-1.773.276-1.773 3.59-.075 4.503-5.683 12.217-5.748zm19.023-6.29c-1.39 3.76 4.133.23 9.516 1.773 2.847.814 4.828 3.793 5.823 6.99-4.137 1.793-9.398 2.31-13.087.917-4.578-1.73-4.522-7.318-8.603-5.88l1.582-2.233zm-53.003 32.698c-1.893 2.054 1.17 1.9 2.344 1.524 2.175-.697 5.396-.487 6.832-.206 7.49 1.455 5.444 5.212 7.79 7.318-4.22 2.08-11.74 3.62-16.672.072-1.726-1.36-2.58-2.943-3.57-3.57-.753-.478-1.502-.58-2.823.156-1 .56-.842-1.072-.65-1.27.197-.19 3.248-2.78 3.248-2.78zm-45.643 35.687c0 .242-.585 1.288.34 1.36.926.072 6.305-3.97 11.54-3.116 5.232.85 8.175 3.944 8.175 3.944s-2.94 5.197-9.388 5.965c-6.3.75-8.63-.256-10.91-2.633-.918-.955-3.017-.85-3.527-.148-.51.706-1.194-1.897-1.168-1.995.022-.098 4.94-3.378 4.94-3.378zm-39.427 45.48c.04.24-.367 1.368.56 1.29.924-.08 5.574-4.94 10.875-4.95 5.3-.01 8.708 2.563 8.708 2.563s-2.054 5.604-8.29 7.41c-6.095 1.765-8.554 1.15-11.193-.825-1.063-.794-3.116-.35-3.505.43-.39.777-1.485-1.68-1.478-1.777.01-.1 4.323-4.136 4.323-4.136zm-25.784 49.074c.07.233-.196 1.4.71 1.21.91-.19 4.93-5.58 10.192-6.24 5.262-.656 8.957 1.486 8.957 1.486s-1.354 5.81-7.325 8.365c-5.834 2.496-8.352 2.185-11.21.547-1.15-.66-3.136.032-3.427.853-.29.82-1.68-1.484-1.684-1.582-.004-.102 3.786-4.634 3.786-4.634zM68.9 516.516c.135.203.223 1.397 1.034.95.81-.45 3.08-6.78 7.917-8.948 4.836-2.165 9-1.2 9-1.2s.407 5.954-4.553 10.14c-4.85 4.09-7.345 4.53-10.562 3.8-1.292-.294-2.99.948-3.028 1.818-.04.87-2.04-.93-2.074-1.024-.032-.094 2.263-5.536 2.263-5.536zm-3.75 58.44c.16.185.42 1.352 1.158.796.74-.56 2.087-7.148 6.566-9.977 4.48-2.828 8.738-2.462 8.738-2.462s1.25 5.837-3.067 10.683c-4.218 4.738-6.628 5.526-9.914 5.258-1.32-.108-2.822 1.364-2.737 2.23.084.867-2.153-.628-2.198-.72-.046-.087 1.455-5.8 1.455-5.8zm8.622 56.22c.196.145.693 1.234 1.3.534.606-.7.534-7.426 4.32-11.134 3.788-3.708 8.022-4.245 8.022-4.245s2.45 5.442-.748 11.09c-3.126 5.516-5.317 6.795-8.587 7.223-1.315.174-2.473 1.926-2.208 2.754.265.83-2.236-.164-2.298-.242-.067-.08.198-5.978.198-5.978zm21.038 54.812c.226.092.98 1.02 1.393.193.41-.83-1.338-7.323 1.402-11.856 2.74-4.535 6.71-6.108 6.71-6.108s3.73 4.66 2.044 10.925c-1.648 6.122-3.454 7.905-6.51 9.134-1.23.494-1.917 2.482-1.45 3.218.465.736-2.207.4-2.285.34-.08-.06-1.297-5.84-1.297-5.84zm33.844 48.87c.242.037 1.19.77 1.4-.133.21-.903-3-6.818-1.383-11.86 1.615-5.046 5.11-7.495 5.11-7.495s4.71 3.672 4.52 10.156c-.187 6.338-1.527 8.49-4.218 10.393-1.084.764-1.29 2.853-.67 3.465.623.608-2.052.9-2.144.86-.09-.04-2.616-5.38-2.616-5.38zm44.313 39.776c.242-.033 1.354.412 1.308-.513-.048-.925-4.757-5.732-4.593-11.023.163-5.294 2.854-8.61 2.854-8.61s5.54 2.237 7.14 8.522c1.563 6.143.866 8.58-1.197 11.147-.83 1.033-.45 3.1.314 3.515.765.415-1.727 1.43-1.828 1.416-.1-.013-3.997-4.454-3.997-4.454zm52.653 30.46c.225-.088 1.412.076 1.148-.81-.27-.887-5.99-4.43-7.093-9.61-1.104-5.18.717-9.042.717-9.042s5.912.85 8.966 6.575c2.986 5.595 2.89 8.126 1.5 11.112-.558 1.2.302 3.12 1.146 3.338.843.22-1.34 1.798-1.437 1.81-.098.014-4.944-3.373-4.944-3.373zm-30.345-73.236s-.23-1.713-2.448-1.82c-2.22-.11-7.888 1.117-9.892-4.4-1.4-3.848-3.506-11.87-2.91-15.444 3.946.775 8.367 2.37 11.402 6.39 1.76 2.332 3.165 9.51 4.653 6.916.268-.804 2.3 1.328 2.3 1.328l-.537 3.84zM-76.775 348.41s-.625-1.612-2.806-1.203c-2.185.41-7.41 2.92-10.645-1.982-2.256-3.42-6.17-10.732-6.425-14.345 4.02-.164 8.692.363 12.58 3.568 2.253 1.857 5.294 8.515 6.137 5.644.072-.847 2.544.758 2.544.758l.374 3.86zm8.008 57.735s-.906-1.472-2.98-.67c-2.072.8-6.755 4.218-10.826-.01-2.84-2.953-8.024-9.43-8.933-12.937 3.924-.89 8.613-1.223 13.017 1.22 2.555 1.416 6.757 7.41 7.065 4.434-.082-.843 2.64.28 2.64.28l1.068 3.726zm19.653 56.633s-1.138-1.302-3.048-.174c-1.913 1.132-5.968 5.272-10.683 1.773-3.29-2.443-9.47-7.982-10.94-11.288 3.72-1.524 8.29-2.626 13.04-.94 2.753.98 7.883 6.198 7.697 3.212-.22-.82 2.65-.158 2.65-.158l1.666 3.5zm31.074 51.19s-1.383-1.036-3.018.472c-1.632 1.504-4.73 6.403-10.075 3.97-3.73-1.7-10.935-5.82-13.067-8.748 3.32-2.27 7.56-4.303 12.553-3.65 2.898.38 9.01 4.41 8.202 1.53-.39-.754 2.557-.705 2.557-.705l2.364 3.07zm44.706 43.33s-1.68-.807-3.195.936c-1.513 1.743-4.03 7.063-10.253 5.49-4.343-1.098-12.87-4.044-15.69-6.598 3.214-2.76 7.465-5.43 13.002-5.563 3.21-.077 10.538 2.948 9.164.234-.55-.687 2.656-1.1 2.656-1.1l3.096 2.666zM214.128 221.046s-6.618-7.197-30.08-7.39c-23.463-.193-41.958-1.36-69.312-22.076-27.356-20.715-33.24-54.367-33.24-71.694 0-17.328 7.68-46.827 31.54-65.73 9.14-7.24 23.495-15.17 26.154-15.7 1.932-.386 1.883.634.745 1.282-4.123 2.344-6.468 3.162-13.606 7.903-6.322 4.2-13.045 9.648-18.117 15.083C97.41 74.295 81.638 98.22 86.016 134.005c4.382 35.787 28.132 54.07 40.983 62.045 12.85 7.976 31.15 15.464 56.557 14.977 25.408-.487 38.16 9.532 38.16 9.532zM224.497 205.635c-.654 1.615 1.668.683 4.61.755 5.09.124 9.484.383 15.007 8.113-5.072 1.59-11.082 3.568-17 2.613-6.675-1.076-5.753-10.163-10.085-8.56l1.96-3.32zm330.654 470.12s-.173-1.72 1.963-2.34c2.135-.617 7.933-.735 8.603-6.566.47-4.068.657-12.36-.745-15.697-3.66 1.668-7.592 4.245-9.613 8.856-1.17 2.674-.877 9.982-2.927 7.804-.448-.723-1.926 1.822-1.926 1.822l1.413 3.61zm101.833-240.25c-.52-4.32 7.992-1.367 8.567-9.627.605-8.708-2.466-11.135-4.787-16.81-3.074 2.922-5.056 6.058-6.213 11.607-.615 2.937 1.618 9.575-2.266 7.073-.363-.396-.775 2.923-.775 2.923zm-26.906-54.516c-.968-2.407 6.988-2.806 6.988-9.833-.363-6.16-4.56-8.604-8.06-15.71-3.24 3.414-4.703 8.172-4.47 11.887.336 5.382 1.844 6.29 1.255 7.877-.242.66-.673.708-.99.538-.318-.17.657 3.086.657 3.086zm-37.698-46.284c-.766-.74-.835-1.583-.31-2.718.542-1.177 4.217-3.982 4.063-7.347-.15-3.34-2.802-6.99-5.555-10.18-2.558-2.96-5.203-3.874-6.292-4.25-1.09 5.46-1.985 6.22-1.337 9.876 1.326 7.514 5.986 10.16 3.527 10.728-.974-.39-.196 1.266-.196 1.266l2.58 1.7zm-44.67-34.935c-.46-.594-.415-1.653.072-2.088.488-.438 2.437-3.09 2.02-5.154-.875-4.352-5.49-7.07-7.104-8.24-1.606-1.168-2.603-2.204-3.604-3.316-2.645 1.995-2.018 8.342.585 11.17 1.216 1.217 2.488 2.145 2.926 3.166.438 1.02.477 2.083-.06 2.083-.535 0 1.61 1.56 1.61 1.56zm-49.75-27.948c-1.48-.014-5.992.248-9.877 3.806 1.99 2.308 6.115 4.86 8.535 4.95 3.06.118 5.484-.7 6.92-1.41 3.063-1.513 5.78-.205 6.92.175.914.304-.276-1.773-.276-1.773-3.59-.075-4.503-5.683-12.217-5.748zm-19.023-6.29c1.39 3.76-4.133.23-9.516 1.773-2.847.814-4.828 3.793-5.823 6.99 4.137 1.793 9.398 2.31 13.087.917 4.578-1.73 4.522-7.318 8.603-5.88l-1.582-2.233zm53.006 32.698c1.894 2.054-1.17 1.9-2.344 1.524-2.176-.697-5.397-.487-6.832-.206-7.492 1.455-5.445 5.212-7.79 7.318 4.22 2.08 11.74 3.62 16.67.072 1.728-1.36 2.58-2.943 3.572-3.57.752-.478 1.5-.58 2.822.156 1 .56.844-1.072.65-1.27-.196-.19-3.246-2.78-3.246-2.78zm45.647 35.687c0 .242.585 1.288-.34 1.36-.926.072-6.305-3.97-11.54-3.116-5.232.85-8.175 3.944-8.175 3.944s2.94 5.197 9.388 5.965c6.3.75 8.63-.256 10.91-2.633.917-.955 3.017-.85 3.527-.148.51.706 1.193-1.897 1.167-1.995-.023-.098-4.94-3.378-4.94-3.378zm39.42 45.48c-.04.24.367 1.368-.56 1.29-.924-.08-5.574-4.94-10.875-4.95-5.3-.01-8.708 2.563-8.708 2.563s2.054 5.604 8.29 7.41c6.095 1.765 8.554 1.15 11.193-.825 1.063-.794 3.116-.35 3.505.43.39.777 1.485-1.68 1.478-1.777-.006-.1-4.323-4.136-4.323-4.136zm25.787 49.074c-.068.233.197 1.4-.71 1.21-.908-.19-4.93-5.58-10.192-6.24-5.26-.656-8.956 1.486-8.956 1.486s1.352 5.81 7.323 8.365c5.834 2.496 8.352 2.185 11.21.547 1.15-.66 3.136.032 3.427.853.29.82 1.68-1.484 1.684-1.582.003-.102-3.787-4.634-3.787-4.634zm14.893 53.756c-.134.203-.222 1.397-1.033.95-.81-.45-3.08-6.78-7.917-8.948-4.836-2.165-9-1.2-9-1.2s-.408 5.954 4.553 10.14c4.85 4.09 7.344 4.53 10.562 3.8 1.292-.294 2.99.948 3.028 1.818.04.87 2.04-.93 2.073-1.024.033-.094-2.263-5.536-2.263-5.536zm3.743 58.44c-.16.185-.418 1.352-1.157.796-.74-.56-2.087-7.148-6.566-9.977-4.48-2.828-8.738-2.462-8.738-2.462s-1.25 5.837 3.067 10.683c4.218 4.738 6.628 5.526 9.914 5.258 1.32-.108 2.822 1.364 2.737 2.23-.084.867 2.153-.628 2.198-.72.046-.087-1.455-5.8-1.455-5.8zm-8.62 56.22c-.197.145-.694 1.234-1.302.534-.604-.7-.532-7.426-4.32-11.134-3.786-3.708-8.02-4.245-8.02-4.245s-2.45 5.442.748 11.09c3.127 5.516 5.317 6.795 8.587 7.223 1.315.174 2.473 1.926 2.208 2.754-.265.83 2.236-.164 2.298-.242.067-.08-.198-5.978-.198-5.978zm-21.04 54.812c-.225.092-.98 1.02-1.392.193-.41-.83 1.338-7.323-1.402-11.856-2.74-4.535-6.71-6.108-6.71-6.108s-3.73 4.66-2.044 10.925c1.648 6.122 3.454 7.905 6.51 9.134 1.23.494 1.917 2.482 1.45 3.218-.465.736 2.207.4 2.285.34.08-.06 1.297-5.84 1.297-5.84zm-33.843 48.87c-.242.037-1.19.77-1.4-.133-.21-.903 3-6.818 1.383-11.86-1.615-5.046-5.11-7.495-5.11-7.495s-4.71 3.672-4.52 10.156c.187 6.338 1.527 8.49 4.218 10.393 1.084.764 1.29 2.853.67 3.465-.623.608 2.052.9 2.144.86.09-.04 2.616-5.38 2.616-5.38zm-44.313 39.776c-.242-.033-1.354.412-1.308-.513.048-.925 4.757-5.732 4.593-11.023-.163-5.294-2.854-8.61-2.854-8.61s-5.54 2.237-7.14 8.522c-1.563 6.143-.866 8.58 1.197 11.147.83 1.033.45 3.1-.314 3.515-.765.415 1.727 1.43 1.828 1.416.1-.013 3.997-4.454 3.997-4.454zm-52.653 30.46c-.225-.088-1.412.076-1.148-.81.27-.887 5.99-4.43 7.093-9.61 1.104-5.18-.717-9.042-.717-9.042s-5.912.85-8.966 6.575c-2.986 5.595-2.89 8.126-1.5 11.112.558 1.2-.302 3.12-1.146 3.338-.843.22 1.34 1.798 1.437 1.81.098.014 4.944-3.373 4.944-3.373zm30.345-73.236s.23-1.713 2.448-1.82c2.22-.11 7.888 1.117 9.892-4.4 1.4-3.848 3.506-11.87 2.91-15.444-3.946.775-8.367 2.37-11.402 6.39-1.76 2.332-3.165 9.51-4.653 6.916-.268-.804-2.3 1.328-2.3 1.328l.537 3.84zm141.535-165.16s.625-1.612 2.806-1.203c2.185.41 7.41 2.92 10.645-1.982 2.256-3.42 6.17-10.732 6.425-14.345-4.02-.164-8.692.363-12.58 3.568-2.253 1.857-5.294 8.515-6.137 5.644-.072-.847-2.544.758-2.544.758l-.374 3.86zm-8.008 57.735s.906-1.472 2.98-.67c2.072.8 6.755 4.218 10.826-.01 2.84-2.953 8.024-9.43 8.933-12.937-3.924-.89-8.613-1.223-13.017 1.22-2.555 1.416-6.757 7.41-7.065 4.434.082-.843-2.64.28-2.64.28l-1.068 3.726zm-19.653 56.633s1.138-1.302 3.048-.174c1.913 1.132 5.968 5.272 10.683 1.773 3.29-2.443 9.47-7.982 10.94-11.288-3.72-1.524-8.29-2.626-13.04-.94-2.753.98-7.883 6.198-7.697 3.212.22-.82-2.65-.158-2.65-.158l-1.666 3.5zm-31.074 51.19s1.383-1.036 3.018.472c1.632 1.504 4.73 6.403 10.075 3.97 3.73-1.7 10.935-5.82 13.067-8.748-3.32-2.27-7.56-4.303-12.553-3.65-2.898.38-9.01 4.41-8.202 1.53.39-.754-2.557-.705-2.557-.705l-2.364 3.07zm-44.706 43.33s1.68-.807 3.195.936c1.513 1.743 4.03 7.063 10.253 5.49 4.343-1.098 12.87-4.044 15.69-6.598-3.214-2.76-7.465-5.43-13.002-5.563-3.21-.077-10.538 2.948-9.164.234.55-.687-2.656-1.1-2.656-1.1l-3.096 2.666zM148.172 221.046s6.62-7.197 30.08-7.39c23.463-.193 41.958-1.36 69.312-22.076 27.353-20.715 33.24-54.367 33.24-71.694 0-17.328-7.68-46.827-31.54-65.73-9.14-7.24-23.495-15.17-26.153-15.7-1.932-.386-1.883.634-.745 1.282 4.124 2.344 6.468 3.162 13.607 7.903 6.32 4.2 13.044 9.648 18.115 15.083 10.805 11.572 26.576 35.496 22.197 71.282-4.382 35.787-28.132 54.07-40.983 62.045-12.85 7.976-31.15 15.464-56.557 14.977-25.407-.487-38.16 9.532-38.16 9.532z"/></g></svg>