<svg xmlns="http://www.w3.org/2000/svg" version="1" width="360" height="240"><path fill="#75aadb" d="M0 0h180v240H0z"/><path d="M180 0h180v240H180z"/><path fill="#fcd116" d="M0 0h40l320 200v40h-40L0 40z"/><path d="M170.748 19.94v83.28h-8.363v7.528H79.94v18.36h82.445v8.537h8.363v82.29h18.36v-82.29h7.702v-8.537h83.107v-18.36H196.81v-7.528h-7.702V19.94h-18.36zm191.547 343.787h12.852v12.852h-12.852v-12.853zm-32.45 25.514l-15.91 9.18 18.963 32.847c4.842-3.723 10.235-6.757 16.037-8.965l-19.09-33.06zm42.645-99.83l-19.232 33.32c5.765 2.275 11.112 5.387 15.904 9.165L388.4 298.59l-15.91-9.18zm-24.945 33.232l-9.18 15.91 32.318 18.66c2.396-5.718 5.614-11 9.497-15.72l-32.635-18.85zm17.805 39.168l-33.223 19.177c3.847 4.746 7.037 10.048 9.396 15.78l33.007-19.048-9.18-15.91zm170.172 81.344c-2.19 5.81-5.2 11.21-8.91 16.065l32.048 18.487 9.18-15.89-32.318-18.663zm-145.708 96.28l-31.616 18.26 9.18 15.89 31.46-18.16c-3.736-4.827-6.798-10.202-9.024-15.99zm-40.45 26.869c-4.737 3.86-10.038 7.06-15.762 9.437l18.227 31.57 15.908-9.18-18.374-31.827zm37.435 31.58l-18.104 31.354 15.91 9.18 18.07-31.3c-5.756-2.308-11.1-5.43-15.877-9.234z" fill="#ce1126"/><path d="M535.38 487.69c0 88.7-70.55 160.61-157.58 160.61-87.03 0-157.59-71.91-157.59-160.61 0-88.71 70.56-160.62 157.59-160.62s157.58 71.91 157.58 160.62z" transform="matrix(.458 0 0 .45 6.211 -98.326)" stroke-width="39.77" stroke="#ce1126" fill="none"/></svg>