<svg xmlns="http://www.w3.org/2000/svg" version="1" width="360" height="240"><path fill="#00335b" d="M0 0h180v240H0z"/><path d="M180 0h180v240H180z"/><path fill="#108042" d="M0 0h180v160H0z"/><g fill="#ce1126" stroke-width="8" stroke="#000"><path d="M99.23 103.42c.254-10.167 3.057-19.597 8.244-28.552 13.595-25.78 55.128-25.157 45.973 6.364-3.367 11.61-14.833 18.45-28.447 19.614.983-3.05 6.39-13.874 2.02-15.99-6.97.23-15.633 11.103-17.726 16.285-.29.74-.22 1.592-.546 2.33M81.94 104.093c-.256-10.168-3.058-19.598-8.245-28.552C60.1 49.76 18.567 50.384 27.72 81.905c3.368 11.61 14.834 18.45 28.448 19.614-.983-3.066-6.388-13.874-2.02-15.99 6.97.23 15.634 11.103 17.727 16.286.29.738.2 1.59.546 2.328"/><path d="M89.783 5.644c-14.323 13.924-23.95 30.012-19.8 48.888C72.274 64.946 77.807 74.59 81.72 84.61c2.458 6.298 3.077 12.874 2.785 19.483h12.158c-.582-6.658.692-13.12 2.785-19.483 3.712-10.086 9.39-19.664 11.74-30.078 4.385-19.483-5.916-34.177-19.73-48.822l-.856-.968-.82.902zM78.445 111.8c-2.548 6.43-12.904 18.172-18.4 21.518-1.438.87 6.825-.492 10.52-1.23 4.84-.95 11.138-5.61 10.992-3.952-.018 7.51 2.33 20.057 8.445 25.813l.564.557.6-.558c6.116-6.413 8.427-17.713 8.445-25.814-.144-1.657 6.153 3 10.994 3.952 3.695.738 11.958 2.1 10.52 1.23-5.497-3.346-15.852-15.088-18.4-21.517h-24.28zM61.7 103.765h57.86v8.446H61.7z"/></g></svg>