<svg xmlns="http://www.w3.org/2000/svg" version="1" width="360" height="240"><path fill="#fcd116" d="M0 0h360v80H0z"/><path fill="#ce1126" d="M0 80h360v80H0zM0 160h360v80H0z"/><path fill="#fff" d="M0 0h180v160H0z"/><g fill="#fcd116" stroke-width=".8" stroke="#000"><path d="M133.615 142.055l-43.468-22.352-46.703 20.146 5.44-48.027-30.938-33.645L66.09 49.06 88.353 5.005l20.44 49.056 52.85 3.618-37.057 36.674 9.03 47.703zM90.03 86.088c-13.823-71.878 15.616-72.555 37.438-59.144 22.058 13.53 29.352 38.41-37.44 59.144zM89.706 76.56c-71.29-2.618-58.32-35.47-42.38-49.057C63.12 14.033 94.588 6.77 89.706 76.56zM89.206 89.058c54.232-37.233 70.113-18.47 61.996 10.117-8.03 28.352-20.88 41.38-61.996-10.117zM86.06 85.382c52.525 44.35 19.41 65.555-.59 65.32-20.027-.206-48.76-21.03.59-65.32zM85.236 80.206C55.208 138.76 29.15 124.996 23.65 100.47c-5.47-24.44.942-46.027 61.586-20.264zM65.972 52.06L94.97 67.825l17.235-16.646-6.97 27.91 18.998 14.646L97.97 95.44l-12.03 23.117-5.88-26.764-27.293-.823 23.587-17.058L65.972 52.06zM110.793 81.94c0 11.5-9.353 20.853-20.852 20.853-11.528 0-20.88-9.353-20.88-20.852 0-11.528 9.352-20.88 20.88-20.88 11.5 0 20.853 9.352 20.853 20.88zM66.5 132.29c6.825 7.353 17.706.354 22.118.177 4.47-.147 11.234 7.118 17.91-1.147M131.32 117.204c6.5-4.353 4.236-16.646 5.736-20.793 1.5-4.234 9.882-9.97 5.764-18.733M135.056 53.06c-1.56-12.264-10.91-9.97-14.823-11.97-4-2.058-9.175-15.057-20.587-9.558M73.736 28.385c-12.087-2.41-15.616 9.53-18.763 12.617-3.206 3.118-10.794 4.412-10.176 15.03M34.62 76.412c-6.88 10.264 2.795 18.087 4.442 22.175 1.647 4.176-.06 11.676 9.94 15.205"/></g></svg>