<svg xmlns="http://www.w3.org/2000/svg" version="1" width="360" height="240"><path fill="#00335b" d="M0 0h360v240H0z"/><path fill="#75aadb" d="M0 0v240h360z"/><path d="M260.7 106.8c-2.586 0-4.995.752-7.026 2.046.85-1.735 1.326-3.684 1.326-5.746 0-7.235-5.865-13.1-13.1-13.1-7.235 0-13.1 5.865-13.1 13.1 0 2.49.695 4.818 1.9 6.8h-40.8V69.1c1.982 1.205 4.31 1.9 6.8 1.9 7.235 0 13.1-5.865 13.1-13.1 0-7.235-5.865-13.1-13.1-13.1-2.06 0-4.01.478-5.746 1.326 1.294-2.03 2.046-4.44 2.046-7.026 0-7.235-5.865-13.1-13.1-13.1-7.235 0-13.1 5.865-13.1 13.1 0 2.586.752 4.995 2.046 7.026-1.735-.848-3.684-1.326-5.746-1.326-7.235 0-13.1 5.865-13.1 13.1 0 7.235 5.865 13.1 13.1 13.1 2.49 0 4.818-.695 6.8-1.9v40.8h-40.8c1.205-1.982 1.9-4.31 1.9-6.8 0-7.235-5.865-13.1-13.1-13.1-7.235 0-13.1 5.865-13.1 13.1 0 2.062.478 4.01 1.326 5.746-2.03-1.294-4.44-2.046-7.026-2.046-7.235 0-13.1 5.865-13.1 13.1 0 7.235 5.865 13.1 13.1 13.1 2.586 0 4.995-.752 7.026-2.046-.848 1.735-1.326 3.684-1.326 5.746 0 7.235 5.865 13.1 13.1 13.1 7.235 0 13.1-5.865 13.1-13.1 0-2.49-.695-4.818-1.9-6.8h40.8v40.8c-1.982-1.205-4.31-1.9-6.8-1.9-7.235 0-13.1 5.865-13.1 13.1 0 7.235 5.865 13.1 13.1 13.1 2.062 0 4.01-.477 5.746-1.326-1.294 2.03-2.046 4.44-2.046 7.026 0 7.235 5.865 13.1 13.1 13.1 7.235 0 13.1-5.865 13.1-13.1 0-2.586-.752-4.995-2.046-7.026 1.735.85 3.685 1.326 5.746 1.326 7.235 0 13.1-5.865 13.1-13.1 0-7.235-5.865-13.1-13.1-13.1-2.49 0-4.818.695-6.8 1.9v-40.8h40.8c-1.205 1.982-1.9 4.31-1.9 6.8 0 7.235 5.865 13.1 13.1 13.1 7.235 0 13.1-5.865 13.1-13.1 0-2.062-.477-4.01-1.326-5.746 2.03 1.294 4.44 2.046 7.026 2.046 7.235 0 13.1-5.865 13.1-13.1 0-7.235-5.865-13.1-13.1-13.1z" fill="#75aadb" stroke="#000" stroke-width="2"/></svg>