<svg xmlns="http://www.w3.org/2000/svg" version="1" width="360" height="240"><path fill="#00335b" d="M0 0h360v240H0z"/><path fill="#108042" d="M360 0h-40L0 200v40h40L360 40z"/><g fill="#75aadb" stroke-width=".8" stroke="#000"><path d="M238.163 202.754l-57.967-29.807-62.28 26.866 7.254-64.047L83.91 90.9l64.204-12.16 29.69-58.75 27.258 65.418 70.478 4.824-49.417 48.907 12.04 63.614zM180.04 128.12c-18.434-95.855 20.825-96.757 49.926-78.873 29.415 18.04 39.142 51.22-49.927 78.872zM179.608 115.41c-95.07-3.49-77.773-47.298-56.516-65.418 21.06-17.962 63.026-27.65 56.516 65.42zM178.94 132.08c72.323-49.653 93.502-24.63 82.677 13.49-10.707 37.81-27.846 55.184-82.676-13.49zM174.745 127.177c70.046 59.144 25.885 87.422-.785 87.108-26.71-.275-65.027-28.042.785-87.108zM173.646 120.275c-40.043 78.087-74.792 59.732-82.126 27.022-7.295-32.592 1.255-61.38 82.126-27.022zM147.957 82.74l38.67 21.023 22.984-22.2-9.294 37.22 25.336 19.533-35.023 2.275-16.042 30.827-7.844-35.69-36.397-1.098 31.455-22.75-13.845-29.14zM207.73 122.59c0 15.334-12.473 27.806-27.808 27.806-15.375 0-27.847-12.472-27.847-27.807 0-15.376 12.472-27.848 27.847-27.848 15.335 0 27.807 12.472 27.807 27.847zM148.663 189.733c9.1 9.805 23.61.47 29.494.235 5.96-.196 14.982 9.492 23.885-1.53M235.104 169.613c8.668-5.804 5.648-22.198 7.648-27.728 2-5.648 13.178-13.296 7.687-24.983M240.085 84.074c-2.08-16.354-14.55-13.295-19.767-15.962-5.334-2.745-12.236-20.08-27.454-12.747M158.31 51.17c-16.118-3.217-20.824 12.706-25.02 16.824-4.276 4.158-14.395 5.883-13.57 20.042M106.15 115.215c-9.18 13.688 3.725 24.12 5.92 29.572 2.197 5.57-.077 15.57 13.257 20.277"/></g></svg>