<svg xmlns="http://www.w3.org/2000/svg" version="1" width="360" height="240"><path fill="#108042" d="M0 0h180v240H0z"/><path fill="#ce1126" d="M180 0h180v240H180z"/><path fill="#00335b" d="M0 0l180 120L0 240z"/><path d="M36.152 74.497c-1.235 4.82.122 8.785 2.48 12.52 1.817 2.887 3.013 5.967 2.957 9.275-.83.467-1.62.968-2.38 1.512L20.19 85.167l12.765 18.815c-.228.317-.45.645-.668.967-3.62-1.63-7.022-1.952-10.258-1.324-4.582.884-8.474-.078-12.533-2.497 2.535 4.275 6.316 6.12 10.625 7.094 3.336.762 6.35 2.09 8.65 4.476-.25.9-.454 1.812-.61 2.735l-22.39 4.537 22.334 4.276c.06.383.14.767.217 1.15-3.714 1.407-6.36 3.576-8.206 6.31-2.614 3.866-6.022 5.94-10.603 7.096 4.815 1.234 8.773-.14 12.51-2.49 2.885-1.825 5.966-3.02 9.274-2.964.467.828.967 1.618 1.512 2.38l-12.627 19.037 18.82-12.794c.312.228.635.462.957.678-1.634 3.62-1.95 7.04-1.323 10.276.884 4.582-.078 8.457-2.502 12.516 4.276-2.535 6.12-6.316 7.1-10.625.756-3.336 2.085-6.35 4.47-8.652.907.25 1.813.456 2.736.618l4.543 22.384 4.27-22.334c.384-.062.768-.14 1.15-.217 1.408 3.72 3.576 6.36 6.312 8.206 3.864 2.613 5.938 6.022 7.1 10.603 1.23-4.815-.145-8.773-2.496-12.51-1.825-2.89-3.01-5.96-2.948-9.28.823-.466 1.607-.967 2.363-1.506l19.037 12.626-12.777-18.827c.228-.312.45-.63.662-.95 3.625 1.64 7.033 1.95 10.28 1.322 4.576-.884 8.452.083 12.51 2.502-2.535-4.276-6.31-6.105-10.614-7.084-3.336-.756-6.344-2.107-8.645-4.492.25-.9.44-1.807.6-2.73l22.396-4.526-22.346-4.287c-.06-.383-.14-.767-.217-1.15 3.72-1.407 6.362-3.576 8.208-6.31 2.613-3.865 6.027-5.922 10.614-7.085-4.82-1.228-8.785.128-12.52 2.48-2.892 1.824-5.962 3.008-9.28 2.947-.462-.823-.968-1.607-1.508-2.363l12.638-19.02-18.837 12.76c-.31-.228-.628-.45-.945-.662 1.63-3.62 1.95-7.022 1.33-10.264-.89-4.576.07-8.468 2.49-12.527-4.276 2.537-6.105 6.312-7.078 10.615-.762 3.342-2.113 6.367-4.51 8.668-.895-.25-1.795-.46-2.718-.622l-4.526-22.395L50.69 93.1c-.383.062-.766.14-1.15.218-1.407-3.72-3.575-6.36-6.31-8.207-3.865-2.612-5.922-6.026-7.078-10.613z" fill="#108042" stroke-width="1.6680000000000001" stroke="#000"/></svg>