<svg xmlns="http://www.w3.org/2000/svg" version="1" width="360" height="240"><path fill="#75aadb" d="M0 0h360v80H0z"/><path fill="#ff8430" d="M0 80h360v80H0z"/><path fill="#75aadb" d="M0 160h360v80H0z"/><path fill="#ff8430" d="M0 0l180 120L0 240z"/><g fill="#ce1126" stroke-width=".8" stroke="#000"><path d="M84.082 161.377l-28.984-14.904-31.14 13.433 3.627-32.023-20.63-22.434 32.102-6.08 14.845-29.376 13.63 32.71 35.238 2.412-24.71 24.454 6.022 31.807zM55.02 124.06C45.803 76.13 65.433 75.68 79.983 84.623c14.708 9.02 19.57 25.61-24.963 39.435zM54.804 117.706c-47.535-1.746-38.887-23.65-28.258-32.71 10.53-8.98 31.513-13.825 28.258 32.71zM54.47 126.04c36.16-24.826 46.75-12.315 41.338 6.746-5.353 18.904-13.923 27.59-41.337-6.746zM52.372 123.59c35.024 29.57 12.943 43.71-.392 43.552-13.354-.137-32.513-14.02.392-43.553zM51.823 120.137C31.8 159.18 14.427 150.003 10.76 133.65c-3.648-16.297.627-30.69 41.063-13.513zM38.98 101.37l19.334 10.51 11.492-11.098-4.648 18.61 12.668 9.766-17.512 1.137-8.02 15.414-3.922-17.846-18.198-.55L45.9 115.942l-6.92-14.57zM68.864 121.294c0 7.668-6.236 13.904-13.903 13.904-7.686 0-13.922-6.236-13.922-13.904 0-7.687 6.236-13.923 13.923-13.923 7.668 0 13.904 6.237 13.904 13.924zM39.332 154.867c4.55 4.902 11.805.235 14.746.117 2.98-.098 7.49 4.746 11.943-.765M82.552 144.807c4.334-2.903 2.824-11.1 3.824-13.865 1-2.823 6.59-6.647 3.844-12.49M85.043 102.037c-1.04-8.177-7.276-6.648-9.884-7.98-2.668-1.374-6.12-10.04-13.728-6.374M44.156 85.584c-8.06-1.608-10.413 6.354-12.512 8.413-2.137 2.08-7.196 2.942-6.785 10.02M18.074 117.608c-4.588 6.843 1.863 12.06 2.96 14.786 1.1 2.784-.038 7.785 6.63 10.138"/></g></svg>