<svg xmlns="http://www.w3.org/2000/svg" version="1" width="360" height="240"><path d="M0 0h120v240H0z"/><path fill="#75aadb" d="M120 0h120v240H120z"/><path fill="#fcd116" d="M240 0h120v240H240z"/><path fill="#108042" d="M0 0h120v120H0z"/><path d="M39.287 9.996c-1.356 5.297.135 9.654 2.725 13.76 1.998 3.17 3.312 6.556 3.25 10.19-.91.514-1.777 1.064-2.614 1.663L21.745 21.72l14.03 20.677c-.252.348-.496.71-.734 1.063-3.977-1.79-7.716-2.144-11.272-1.454-5.035.972-9.312-.085-13.772-2.743 2.786 4.698 6.94 6.727 11.676 7.796 3.666.836 6.978 2.296 9.507 4.918-.276.99-.502 1.99-.673 3.006L5.902 59.97l24.544 4.698c.067.422.153.843.238 1.265-4.08 1.546-6.99 3.93-9.018 6.935-2.872 4.246-6.617 6.525-11.652 7.796 5.29 1.356 9.642-.153 13.748-2.737 3.17-2.004 6.556-3.318 10.19-3.257.514.91 1.064 1.778 1.663 2.615L21.74 98.205 42.42 84.148c.342.25.696.507 1.05.745-1.796 3.978-2.144 7.735-1.454 11.29.972 5.036-.085 9.295-2.75 13.755 4.7-2.786 6.728-6.94 7.803-11.676.832-3.665 2.292-6.977 4.914-9.506.996.275 1.992.5 3.006.678l4.992 24.6 4.692-24.545c.422-.067.843-.153 1.265-.238 1.545 4.086 3.928 6.988 6.934 9.017 4.246 2.872 6.525 6.617 7.802 11.652 1.35-5.293-.16-9.643-2.743-13.75-2.004-3.176-3.306-6.55-3.238-10.196.904-.514 1.765-1.064 2.596-1.656l20.922 13.876-14.04-20.69c.25-.34.494-.69.726-1.044 3.984 1.803 7.73 2.145 11.298 1.455 5.028-.972 9.287.09 13.747 2.75-2.786-4.7-6.935-6.71-11.664-7.785-3.667-.83-6.972-2.316-9.502-4.937.275-.99.483-1.986.66-3l24.61-4.974-24.555-4.71c-.067-.423-.153-.845-.238-1.266 4.087-1.546 6.99-3.93 9.018-6.935 2.872-4.247 6.623-6.508 11.664-7.785-5.297-1.35-9.654.14-13.76 2.725-3.177 2.004-6.55 3.305-10.197 3.238-.507-.904-1.063-1.766-1.656-2.597l13.888-20.9-20.7 14.022c-.343-.25-.69-.495-1.04-.727 1.79-3.978 2.145-7.717 1.46-11.28-.977-5.028.08-9.305 2.738-13.765-4.698 2.786-6.71 6.935-7.778 11.664-.837 3.672-2.322 6.996-4.955 9.525-.984-.276-1.974-.508-2.988-.685l-4.974-24.61-4.71 24.555c-.423.067-.844.153-1.266.238-1.546-4.087-3.93-6.99-6.935-9.018-4.246-2.872-6.507-6.623-7.778-11.664z" fill="#75aadb" stroke-width="1.833" stroke="#000"/></svg>