<svg xmlns="http://www.w3.org/2000/svg" version="1" width="360" height="240"><path fill="#75aadb" d="M0 0h360v80H0zM0 80h360v80H0z"/><path fill="#108042" d="M0 160h360v80H0z"/><circle cx="180" cy="120" r="90" fill="#75aadb"/><path d="M173.066 45.01v62.414h-6.268v5.642h-61.79v13.76h61.79v6.398h6.268v61.672h13.76v-61.672h5.772v-6.398h62.285v-13.76h-62.285v-5.642h-5.772V45.01h-13.76zm188.654 295.29h9.632v9.632h-9.632V340.3zm-23.067 70.162l-11.923 6.88 14.21 24.616c3.63-2.79 7.672-5.063 12.02-6.718l-14.307-24.778zm12.77-121.052l-14.413 24.97c4.32 1.707 8.33 4.04 11.92 6.87l14.417-24.96-11.923-6.88zm27.2 24.906l-6.88 11.923 24.222 13.986c1.796-4.287 4.207-8.246 7.117-11.782l-24.458-14.128zm-54.365 47.494l-24.9 14.372c2.884 3.557 5.275 7.53 7.043 11.827l24.738-14.277-6.88-11.923zm217.06 60.964c-1.64 4.355-3.897 8.4-6.676 12.04l24.018 13.856 6.88-11.91-24.22-13.986zM386.42 655.59l-23.695 13.683 6.88 11.91 23.578-13.61c-2.8-3.618-5.094-7.646-6.762-11.984zm-94.964 20.356c-3.55 2.893-7.523 5.29-11.813 7.073l13.66 23.66 11.924-6.88-13.77-23.853zm82.174 38.074l-13.568 23.5 11.923 6.88 13.544-23.458c-4.314-1.73-8.318-4.07-11.9-6.922z" fill="#fcd116"/><path d="M535.38 487.69c0 88.7-70.55 160.61-157.58 160.61-87.03 0-157.59-71.91-157.59-160.61 0-88.71 70.56-160.62 157.59-160.62s157.58 71.91 157.58 160.62z" transform="matrix(.343 0 0 .337 49.753 -43.625)" stroke-width="39.77" stroke="#fcd116" fill="none"/></svg>