<svg xmlns="http://www.w3.org/2000/svg" version="1" width="360" height="240"><path d="M0 0h360v120H0zM0 120h360v120H0z"/><path fill="#fff" d="M0 90h360v60H0zM150 0h60v240h-60z"/><path d="M213.81 26.214c3.334 0 6.274.588 8.82 1.764 2.546 1.176 4.95 2.793 7.203 4.85 2.252 2.06 4.704 5.1 7.35 9.115 2.646 4.016 5.245 6.91 7.79 8.673 2.547 1.764 5.34 3.575 8.38 5.44 3.04 1.863 5.34 3.968 6.91 6.32 1.57 2.352 2.692 4.604 3.38 6.762.688 2.158.688 5.686 0 10.584s-1.81 8.82-3.38 11.76c-1.57 2.94-4.07 5.733-7.498 8.38-3.428 2.645-6.81 4.75-10.143 6.32-3.334 1.57-6.274 2.746-8.82 3.528-2.546.782-8.185 1.617-16.905 2.5-8.72.88-13.23 1.47-13.524 1.763l-.44.44.293.736c.194.487 6.468.587 18.816.293 12.348-.294 20.874.247 25.578 1.617 4.704 1.37 8.28 2.987 10.73 4.85 2.453 1.865 4.364 3.87 5.734 6.028 1.37 2.158 2.452 4.216 3.234 6.174.782 1.958.882 5.78.294 11.466-.588 5.686-1.517 9.555-2.793 11.613-1.277 2.06-2.012 3.335-2.206 3.823l-.294.735-2.5 1.47c-1.663.982-3.674 3.04-6.026 6.174-2.352 3.134-4.31 6.368-5.88 9.702-1.57 3.334-2.893 5.733-3.97 7.203-1.075 1.47-2.104 2.546-3.086 3.234-.982.69-1.764 1.47-2.352 2.353-.588.882-2.452 2.105-5.586 3.675-3.134 1.57-6.762 2.058-10.878 1.47-4.116-.588-7.597-1.91-10.437-3.97-2.84-2.057-5.245-4.068-7.203-6.026-1.958-1.958-3.97-4.363-6.027-7.203-2.058-2.84-3.428-4.9-4.116-6.175-.69-1.276-1.518-4.263-2.5-8.967-.982-4.704-2.058-8.82-3.234-12.348l-1.764-5.292-.882 3.822c-.588 2.546-.588 8.132 0 16.758s1.864 15.482 3.822 20.58c1.958 5.098 3.775 8.673 5.44 10.73 1.663 2.06 3.627 4.117 5.88 6.175 2.25 2.058 3.186 4.163 2.792 6.32-.394 2.16-.635 3.282-.735 3.382l-.148.147-4.116-.882c-2.746-.588-5.44-2.01-8.085-4.263-2.645-2.252-4.85-4.657-6.614-7.203-1.764-2.546-3.428-5.88-4.998-9.996-1.57-4.116-2.646-8.132-3.234-12.054-.588-3.922-.635-11.025-.147-21.315l.735-15.436-1.91.44c-1.277.295-2.206 1.324-2.794 3.088-.588 1.764-1.664 7.544-3.234 17.346s-3.134 16.17-4.704 19.11c-1.57 2.94-2.987 5.045-4.263 6.32-1.276 1.277-2.893 2.6-4.85 3.97-1.96 1.37-4.117 2.452-6.47 3.234-2.35.782-6.073.882-11.17.294-5.1-.588-8.82-1.57-11.173-2.94-2.352-1.37-5.045-3.97-8.085-7.79-3.04-3.823-5.293-7.304-6.763-10.438l-2.205-4.704-.882-.735c-.588-.49-1.717-1.47-3.38-2.94-1.665-1.47-3.776-3.87-6.322-7.204-2.546-3.334-4.016-5.586-4.41-6.762-.394-1.176-.294-4.41.294-9.702s1.864-9.508 3.822-12.642c1.958-3.134 4.363-5.833 7.203-8.085 2.84-2.252 5.833-3.97 8.967-5.145 3.134-1.176 10.29-1.864 21.462-2.058 11.172-.194 17.2-.735 18.08-1.617l1.324-1.323-.735-.735c-.488-.488-6.615-1.223-18.375-2.205s-20.286-2.646-25.578-4.998c-5.292-2.352-8.967-4.557-11.025-6.615-2.058-2.06-3.48-3.776-4.263-5.146-.782-1.37-1.276-3.922-1.47-7.644-.194-3.722.44-7.397 1.91-11.025s4.658-7.497 9.556-11.613c4.898-4.116 7.544-6.22 7.938-6.32l.588-.148.882-1.617c.588-1.076 2.305-3.428 5.145-7.056 2.84-3.627 4.998-6.273 6.468-7.937 1.47-1.664 3.576-3.575 6.322-5.733 2.746-2.158 5.686-3.722 8.82-4.704 3.134-.982 5.88-1.37 8.232-1.176 2.352.194 5.098.982 8.232 2.352 3.134 1.37 5.927 3.187 8.38 5.44 2.45 2.25 4.262 4.656 5.438 7.202 1.176 2.546 2.058 5.586 2.646 9.114.588 3.528 1.423 10.19 2.5 19.992 1.075 9.802 1.81 14.7 2.204 14.7h.588l.44-1.47c.295-.982.836-7.156 1.618-18.522.782-11.366 1.47-17.74 2.058-19.11.588-1.37 2.01-3.675 4.263-6.91 2.253-3.233 4.952-6.026 8.086-8.378 3.134-2.352 6.074-4.116 8.82-5.292 2.746-1.176 5.78-1.764 9.114-1.764z" stroke-width="2.94" stroke="#000"/></svg>