<svg xmlns="http://www.w3.org/2000/svg" version="1" width="360" height="240"><path fill="#108042" d="M0 0h360v240H0z"/><path fill="#fff" d="M0 0v240h360z"/><circle cx="180" cy="120" r="90" fill="#fcd116"/><g fill="#fff" stroke="#000"><path d="M153.417 173.947c.412 1.018-1.05.43-2.904.476-3.206.078-5.974.24-9.454 5.11 3.194 1.002 6.98 2.248 10.71 1.647 4.204-.678 3.623-6.403 6.352-5.393l-1.236-2.09zm49.996 541.68s.11-1.084-1.236-1.473c-1.345-.39-4.998-.464-5.42-4.137-.297-2.562-.414-7.786.47-9.888 2.305 1.05 4.783 2.673 6.056 5.578.738 1.685.552 6.29 1.844 4.917.282-.455 1.213 1.148 1.213 1.148l-.89 2.274zM-49.905 180.694c.328-2.72-5.034-.86-5.397-6.064-.38-5.485 1.554-7.014 3.017-10.59 1.936 1.842 3.185 3.817 3.914 7.313.388 1.85-1.02 6.03 1.43 4.455.227-.25.487 1.84.487 1.84zm25.48-55.25c.61-1.515-4.403-1.766-4.403-6.193.228-3.88 2.874-5.42 5.078-9.896 2.04 2.15 2.962 5.15 2.816 7.49-.213 3.39-1.163 3.962-.792 4.96.152.415.424.446.624.34.2-.108-.414 1.944-.414 1.944zm36.64-47.816c.482-.466.525-.998.195-1.712-.342-.742-2.657-2.51-2.56-4.63.094-2.105 1.765-4.403 3.5-6.412 1.61-1.866 3.277-2.44 3.963-2.678.686 3.44 1.25 3.918.843 6.22-.838 4.735-3.773 6.402-2.224 6.76.614-.245.123.797.123.797l-1.626 1.07zm44.265-35.977c.29-.375.262-1.042-.045-1.316-.307-.275-1.535-1.946-1.273-3.246.552-2.742 3.46-4.453 4.476-5.19 1.013-.736 1.64-1.39 2.272-2.09 1.666 1.257 1.27 5.255-.37 7.037-.766.768-1.567 1.353-1.843 1.995-.277.643-.302 1.312.036 1.312.338 0-1.013.983-1.013.983zm48.7-28.39c.932-.008 3.775.157 6.222 2.398-1.253 1.454-3.852 3.06-5.377 3.12-1.928.073-3.454-.442-4.36-.89-1.93-.953-3.64-.13-4.358.11-.577.192.173-1.117.173-1.117 2.262-.047 2.837-3.58 7.696-3.62zm32.557-13.397c-.875 2.37 2.604.144 5.995 1.116 1.794.513 3.043 2.39 3.67 4.404-2.607 1.13-5.922 1.455-8.245.577-2.884-1.09-2.85-4.61-5.42-3.704l.997-1.407zm-54.208 32.9c-1.193 1.295.738 1.198 1.477.96 1.37-.437 3.398-.306 4.303-.128 4.72.916 3.43 3.283 4.906 4.61-2.658 1.31-7.396 2.28-10.502.045-1.088-.857-1.626-1.854-2.25-2.25-.474-.3-.945-.364-1.778.1-.63.352-.53-.676-.41-.8.124-.12 2.046-1.753 2.046-1.753zm-45.886 34.16c0 .154-.368.813.215.858.583.045 3.972-2.5 7.27-1.963 3.296.535 5.15 2.484 5.15 2.484s-1.852 3.273-5.914 3.757c-3.97.473-5.436-.16-6.872-1.66-.58-.6-1.902-.534-2.223-.09-.32.444-.75-1.196-.734-1.258.014-.063 3.112-2.13 3.112-2.13zm-41.227 45c.024.15-.23.862.352.813.583-.05 3.512-3.113 6.85-3.12 3.34-.005 5.487 1.616 5.487 1.616s-1.295 3.53-5.223 4.667c-3.84 1.112-5.39.725-7.05-.52-.67-.5-1.965-.22-2.21.27-.245.49-.935-1.056-.93-1.118.005-.065 2.722-2.607 2.722-2.607zm-27.13 48.736c.043.146-.123.88.447.762.573-.12 3.107-3.517 6.42-3.93 3.316-.415 5.644.935 5.644.935s-.852 3.66-4.614 5.27c-3.675 1.57-5.26 1.375-7.061.343-.726-.416-1.976.02-2.16.538-.183.517-1.058-.935-1.06-.997-.002-.064 2.385-2.92 2.385-2.92zm-16.15 52.717c.083.128.14.88.65.598.51-.282 1.94-4.27 4.987-5.636 3.047-1.363 5.67-.756 5.67-.756s.257 3.752-2.868 6.388c-3.056 2.578-4.628 2.854-6.655 2.394-.814-.185-1.883.598-1.908 1.146-.024.547-1.285-.586-1.306-.645-.02-.06 1.427-3.487 1.427-3.487zm-5.276 58.844c.1.116.264.85.73.5.465-.35 1.314-4.502 4.136-6.284s5.504-1.55 5.504-1.55.787 3.676-1.932 6.73c-2.657 2.983-4.175 3.48-6.246 3.31-.832-.067-1.778.86-1.724 1.406.054.545-1.355-.397-1.384-.454-.03-.056.916-3.655.916-3.655zm7.182 56.213c.123.09.437.776.82.335.38-.44.335-4.678 2.72-7.014 2.386-2.335 5.054-2.673 5.054-2.673s1.543 3.428-.472 6.986c-1.97 3.475-3.35 4.28-5.41 4.55-.827.11-1.557 1.213-1.39 1.735.167.523-1.41-.103-1.448-.153-.04-.05.126-3.765.126-3.765zm19.407 55.347c.142.058.618.643.877.122.26-.525-.842-4.616.884-7.47 1.726-2.858 4.227-3.85 4.227-3.85s2.352 2.936 1.29 6.883c-1.04 3.857-2.177 4.98-4.103 5.754-.774.31-1.207 1.563-.912 2.027.292.463-1.39.25-1.44.214-.052-.037-.818-3.68-.818-3.68zm32.462 49.966c.153.022.75.484.882-.085.132-.568-1.89-4.295-.872-7.47 1.018-3.18 3.22-4.723 3.22-4.723s2.967 2.313 2.847 6.398c-.117 3.993-.962 5.348-2.657 6.547-.682.482-.812 1.8-.42 2.184.39.383-1.294.566-1.352.54-.057-.023-1.648-3.387-1.648-3.387zm43.283 40.887c.153-.02.853.26.824-.324-.03-.583-2.997-3.61-2.894-6.944.103-3.335 1.798-5.424 1.798-5.424s3.49 1.41 4.497 5.368c.985 3.87.546 5.406-.754 7.023-.524.65-.285 1.952.197 2.213.482.262-1.088.9-1.15.892-.063-.008-2.52-2.805-2.52-2.805zm51.686 31.618c.142-.055.89.048.723-.51-.17-.56-3.774-2.792-4.468-6.055-.697-3.263.45-5.696.45-5.696s3.725.536 5.65 4.143c1.88 3.524 1.82 5.12.944 7-.352.756.19 1.965.72 2.103.533.138-.84 1.133-.903 1.14-.06.01-3.114-2.125-3.114-2.125zm2.357-37.248s-.146-1.08-1.542-1.148c-1.4-.068-4.97.705-6.232-2.77-.88-2.425-2.208-7.478-1.833-9.73 2.486.488 5.27 1.494 7.183 4.025 1.108 1.47 1.994 5.99 2.93 4.357.17-.507 1.45.837 1.45.837l-.338 2.42zm-167.694-205.212s-.394-1.016-1.768-.758c-1.376.257-4.668 1.84-6.705-1.25-1.42-2.154-3.887-6.76-4.048-9.036 2.532-.103 5.476.23 7.925 2.247 1.42 1.172 3.335 5.366 3.867 3.557.045-.534 1.602.478 1.602.478l.234 2.43zm6.51 57.688s-.57-.927-1.877-.422c-1.307.504-4.257 2.657-6.82-.007-1.79-1.86-5.057-5.94-5.63-8.15 2.473-.56 5.427-.77 8.202.77 1.61.89 4.256 4.667 4.45 2.793-.052-.532 1.662.177 1.662.177l.673 2.346zm18.427 57.135s-.717-.82-1.92-.108c-1.205.713-3.76 3.32-6.73 1.116-2.072-1.538-5.966-5.028-6.893-7.11 2.344-.96 5.224-1.655 8.215-.592 1.735.616 4.967 3.904 4.85 2.023-.138-.518 1.668-.1 1.668-.1l1.05 2.204zm29.37 52.172s-.87-.653-1.9.297c-1.03.947-2.98 4.033-6.348 2.5-2.35-1.07-6.89-3.667-8.232-5.51 2.09-1.43 4.763-2.712 7.91-2.3 1.824.24 5.674 2.777 5.165.965-.245-.476 1.61-.445 1.61-.445l1.49 1.934zm43.17 44.222s-1.06-.51-2.014.59c-.955 1.097-2.54 4.45-6.46 3.458-2.737-.692-8.11-2.548-9.885-4.157 2.025-1.74 4.703-3.42 8.19-3.504 2.023-.048 6.64 1.857 5.775.147-.346-.432 1.672-.692 1.672-.692l1.95 1.68zM201.5 183.656s-4.17-4.534-18.95-4.656c-14.78-.12-26.432-.857-43.664-13.907-17.234-13.05-20.94-34.25-20.94-45.165 0-10.916 4.837-29.5 19.87-41.408 5.757-4.56 14.8-9.557 16.475-9.89 1.218-.244 1.187.4.47.807-2.597 1.477-4.074 1.992-8.57 4.98-3.983 2.644-8.22 6.076-11.414 9.5-6.806 7.29-16.74 22.36-13.983 44.906 2.76 22.544 17.722 34.062 25.818 39.086 8.097 5.024 19.625 9.74 35.63 9.434 16.007-.307 24.04 6.005 24.04 6.005zM208.032 173.947c-.412 1.018 1.05.43 2.905.476 3.205.078 5.974.24 9.453 5.11-3.195 1.002-6.98 2.248-10.71 1.647-4.204-.678-3.623-6.403-6.353-5.393l1.236-2.09zm327.455 541.68s-.11-1.084 1.236-1.473c1.345-.39 4.998-.464 5.42-4.137.297-2.562.414-7.786-.47-9.888-2.305 1.05-4.783 2.673-6.056 5.578-.738 1.685-.552 6.29-1.844 4.917-.282-.455-1.213 1.148-1.213 1.148l.89 2.274zm124.285-273.286c-.328-2.72 5.034-.86 5.397-6.064.38-5.485-1.554-7.014-3.017-10.59-1.936 1.842-3.185 3.817-3.914 7.313-.388 1.85 1.02 6.03-1.43 4.455-.227-.25-.487 1.84-.487 1.84zm-25.48-55.25c-.61-1.515 4.403-1.766 4.403-6.193-.228-3.88-2.874-5.42-5.078-9.896-2.04 2.15-2.962 5.15-2.816 7.49.213 3.39 1.163 3.962.792 4.96-.152.415-.424.446-.624.34-.2-.108.414 1.944.414 1.944zm-36.64-47.816c-.482-.466-.525-.998-.195-1.712.342-.742 2.657-2.51 2.56-4.63-.094-2.105-1.765-4.403-3.5-6.412-1.61-1.866-3.277-2.44-3.963-2.678-.686 3.44-1.25 3.918-.843 6.22.838 4.735 3.773 6.402 2.224 6.76-.614-.245-.123.797-.123.797l1.626 1.07zm-44.265-35.977c-.29-.375-.262-1.042.045-1.316.307-.275 1.535-1.946 1.273-3.246-.552-2.742-3.46-4.453-4.476-5.19-1.013-.736-1.64-1.39-2.272-2.09-1.666 1.257-1.27 5.255.37 7.037.766.768 1.567 1.353 1.843 1.995.277.643.302 1.312-.036 1.312-.338 0 1.013.983 1.013.983zm-48.7-28.39c-.932-.008-3.775.157-6.222 2.398 1.253 1.454 3.852 3.06 5.377 3.12 1.928.073 3.454-.442 4.36-.89 1.93-.953 3.64-.13 4.358.11.577.192-.173-1.117-.173-1.117-2.262-.047-2.837-3.58-7.696-3.62zm-32.557-13.397c.875 2.37-2.604.144-5.995 1.116-1.794.513-3.043 2.39-3.67 4.404 2.607 1.13 5.922 1.455 8.245.577 2.884-1.09 2.85-4.61 5.42-3.704l-.997-1.407zm54.21 32.9c1.193 1.295-.738 1.198-1.477.96-1.37-.437-3.4-.306-4.304-.128-4.72.916-3.43 3.283-4.907 4.61 2.657 1.31 7.395 2.28 10.5.045 1.09-.857 1.627-1.854 2.25-2.25.475-.3.947-.364 1.78.1.63.352.53-.676.41-.8-.125-.12-2.047-1.753-2.047-1.753zm45.892 34.16c0 .154.368.813-.215.858-.583.045-3.97-2.5-7.27-1.963-3.295.535-5.15 2.484-5.15 2.484s1.853 3.273 5.915 3.757c3.97.473 5.436-.16 6.872-1.66.58-.6 1.902-.534 2.223-.09.32.444.752-1.196.735-1.258-.014-.063-3.112-2.13-3.112-2.13zm41.22 45c-.026.15.23.862-.354.813-.583-.05-3.512-3.113-6.85-3.12-3.34-.005-5.487 1.616-5.487 1.616s1.295 3.53 5.223 4.667c3.84 1.112 5.39.725 7.05-.52.67-.5 1.965-.22 2.21.27.245.49.935-1.056.93-1.118-.003-.065-2.722-2.607-2.722-2.607zm27.13 48.736c-.043.146.123.88-.447.762-.573-.12-3.107-3.517-6.42-3.93-3.316-.415-5.644.935-5.644.935s.854 3.66 4.616 5.27c3.675 1.57 5.26 1.375 7.062.343.725-.416 1.975.02 2.158.538.184.517 1.06-.935 1.06-.997.003-.064-2.384-2.92-2.384-2.92zm16.157 52.717c-.085.128-.14.88-.652.598-.51-.282-1.94-4.27-4.987-5.636-3.046-1.363-5.668-.756-5.668-.756s-.258 3.752 2.867 6.388c3.054 2.578 4.626 2.854 6.653 2.394.814-.185 1.883.598 1.908 1.146.025.547 1.286-.586 1.307-.645.02-.06-1.426-3.487-1.426-3.487zm5.266 58.844c-.1.116-.264.85-.73.5-.465-.35-1.314-4.502-4.136-6.284s-5.504-1.55-5.504-1.55-.787 3.676 1.932 6.73c2.657 2.983 4.175 3.48 6.246 3.31.832-.067 1.778.86 1.724 1.406-.054.545 1.355-.397 1.384-.454.03-.056-.916-3.655-.916-3.655zm-7.182 56.213c-.123.09-.436.776-.82.335-.38-.44-.335-4.678-2.72-7.014-2.386-2.335-5.054-2.673-5.054-2.673s-1.543 3.428.472 6.986c1.97 3.475 3.35 4.28 5.41 4.55.827.11 1.557 1.213 1.39 1.735-.167.523 1.41-.103 1.448-.153.04-.05-.126-3.765-.126-3.765zm-19.407 55.347c-.142.058-.618.643-.877.122-.26-.525.842-4.616-.884-7.47-1.726-2.858-4.227-3.85-4.227-3.85s-2.352 2.936-1.29 6.883c1.04 3.857 2.177 4.98 4.103 5.754.774.31 1.207 1.563.912 2.027-.292.463 1.39.25 1.44.214.052-.037.818-3.68.818-3.68zm-32.462 49.966c-.153.022-.75.484-.882-.085-.132-.568 1.89-4.295.872-7.47-1.018-3.18-3.22-4.723-3.22-4.723s-2.967 2.313-2.847 6.398c.117 3.993.962 5.348 2.657 6.547.682.482.812 1.8.42 2.184-.39.383 1.294.566 1.352.54.058-.023 1.648-3.387 1.648-3.387zm-43.283 40.887c-.153-.02-.853.26-.824-.324.03-.583 2.997-3.61 2.894-6.944-.103-3.335-1.798-5.424-1.798-5.424s-3.49 1.41-4.497 5.368c-.985 3.87-.546 5.406.754 7.023.524.65.285 1.952-.197 2.213-.482.262 1.088.9 1.15.892.063-.008 2.52-2.805 2.52-2.805zm-51.686 31.618c-.142-.055-.89.048-.723-.51.17-.56 3.774-2.792 4.468-6.055.697-3.263-.45-5.696-.45-5.696s-3.725.536-5.65 4.143c-1.88 3.524-1.82 5.12-.944 7 .352.756-.19 1.965-.72 2.103-.533.138.84 1.133.903 1.14.06.01 3.114-2.125 3.114-2.125zm-2.357-37.248s.146-1.08 1.542-1.148c1.4-.068 4.97.705 6.232-2.77.88-2.425 2.208-7.478 1.833-9.73-2.486.488-5.27 1.494-7.183 4.025-1.108 1.47-1.994 5.99-2.93 4.357-.17-.507-1.45.837-1.45.837l.338 2.42zm167.694-205.212s.394-1.016 1.768-.758c1.376.257 4.668 1.84 6.705-1.25 1.42-2.154 3.887-6.76 4.048-9.036-2.532-.103-5.476.23-7.925 2.247-1.42 1.172-3.335 5.366-3.867 3.557-.045-.534-1.602.478-1.602.478l-.234 2.43zm-6.51 57.688s.57-.927 1.877-.422c1.307.504 4.257 2.657 6.82-.007 1.79-1.86 5.057-5.94 5.63-8.15-2.473-.56-5.427-.77-8.202.77-1.61.89-4.256 4.667-4.45 2.793.052-.532-1.662.177-1.662.177l-.673 2.346zm-18.427 57.135s.717-.82 1.92-.108c1.205.713 3.76 3.32 6.73 1.116 2.072-1.538 5.966-5.028 6.893-7.11-2.344-.96-5.224-1.655-8.215-.592-1.735.616-4.967 3.904-4.85 2.023.138-.518-1.668-.1-1.668-.1l-1.05 2.204zM598 735.182s.87-.653 1.9.297c1.03.947 2.98 4.033 6.348 2.5 2.35-1.07 6.89-3.667 8.232-5.51-2.09-1.43-4.763-2.712-7.91-2.3-1.824.24-5.674 2.777-5.165.965.245-.476-1.61-.445-1.61-.445l-1.49 1.934zm-43.17 44.222s1.06-.51 2.014.59c.955 1.097 2.54 4.45 6.46 3.458 2.737-.692 8.11-2.548 9.885-4.157-2.025-1.74-4.703-3.42-8.19-3.504-2.023-.048-6.64 1.857-5.775.147.346-.432-1.672-.692-1.672-.692l-1.95 1.68zM159.95 183.656s4.17-4.534 18.95-4.656c14.78-.12 26.43-.857 43.663-13.907 17.232-13.05 20.94-34.25 20.94-45.165 0-10.916-4.837-29.5-19.868-41.408-5.758-4.56-14.802-9.557-16.476-9.89-1.22-.244-1.188.4-.47.807 2.597 1.477 4.074 1.992 8.57 4.98 3.983 2.644 8.218 6.076 11.413 9.5 6.806 7.29 16.742 22.36 13.983 44.906-2.76 22.544-17.722 34.062-25.818 39.086-8.095 5.024-19.623 9.74-35.63 9.434-16.006-.307-24.04 6.005-24.04 6.005z"/></g></svg>