<svg xmlns="http://www.w3.org/2000/svg" version="1" width="360" height="240"><path d="M0 0h360v240H0z"/><path fill="#ff8430" d="M360 0L0 240h360z"/><path d="M177.855 28.427c-2.114.057-3.27 1.613-2.573 3.737.886 2.71 5.757 1.785 5.757-1.092 0-1.478-.73-2.33-2.22-2.578-.34-.057-.662-.075-.965-.067zM545.7 359.13c5.81 0 11.16 7.954 7.914 11.76-1.235 1.446-.22 8.62 1.448 10.242.65.63 6.33 1.895 12.627 2.81 10.718 1.555 11.637 1.548 14.24-.258 4.424-3.063 6.023-1.103 6.023 7.386 0 8.03-1.53 10.275-5.368 7.865-1.732-1.086-4.39-1.12-12.302-.18-12.21 1.458-14.484 2.375-15.29 6.138-.762 3.564.2 57.717 1.36 76.478.883 14.24 2.344 22.366 4.574 25.468 1.553 2.16 10.858 5.38 15.353 5.312 8.29-.125 18.213-7.183 30.76-21.877 1.527-1.79 2.667-3.083 3.8-4.36-4.885-1.743-12.116-2.71-12.116-2.71l25.877-11.728s-1.625 34.81-2.434 36.85c-.917 1.252-2.422-8.9-4.933-15.61-.396.926-.662 1.66-1.152 2.725-12.384 26.99-23.307 37.888-40.024 39.905-8.827 1.064-19.462 3.65-22.303 5.434-1.044.653-3.005 3.42-4.36 6.133-1.356 2.716-3.02 4.933-3.696 4.933-.677 0-2.34-2.217-3.7-4.934-1.355-2.714-3.325-5.48-4.366-6.134-2.844-1.785-13.468-4.37-22.298-5.434-15.825-1.91-26.474-11.96-38.072-35.9-2.153 6.587-3.506 15.016-4.35 13.866-.81-2.042-2.422-36.85-2.422-36.85l25.867 11.74s-6.74.888-11.603 2.52c12.352 14.372 22.16 21.305 30.36 21.43 4.494.068 13.793-3.152 15.344-5.312 2.233-3.102 3.69-11.228 4.573-25.468 1.16-18.76 2.134-72.914 1.37-76.477-.804-3.762-3.08-4.68-15.29-6.136-7.913-.942-10.568-.907-12.302.18-3.838 2.408-5.377.163-5.377-7.866 0-8.49 1.607-10.45 6.033-7.386 2.602 1.806 3.513 1.813 14.23.257 6.3-.915 11.985-2.18 12.636-2.81 1.667-1.622 2.686-8.797 1.452-10.243-3.246-3.806 2.103-11.76 7.916-11.76z"/><path d="M176.035 206.595c-.897-1.782-2.598-3.985-3.78-4.89-2.768-2.13-12.965-4.796-22.915-5.995-16.672-2.01-26.857-12.135-39.14-38.895l-4.45-9.7 9.34 10.8c13.175 15.236 22.092 21.12 32.15 21.216 6.594.06 15.407-2.86 17.68-5.858 4.253-5.612 5.608-20.79 6.48-72.546.673-39.966.934-38.68-8.24-40.498-3.584-.707-10.727-1.364-15.878-1.456l-9.36-.172-.007-4.248c-.003-3.62.238-4.127 1.64-3.438 3.536 1.742 5.98 1.756 17.6.086 13.458-1.94 15.02-2.87 15.985-9.568.61-4.23.69-4.305 4.68-4.305 3.99 0 4.073.075 4.685 4.305.962 6.697 2.527 7.63 15.984 9.568 11.618 1.67 14.064 1.656 17.6-.086 1.402-.69 1.643-.182 1.64 3.438l-.006 4.248-9.364.172c-5.148.092-12.29.75-15.874 1.456-9.178 1.817-8.914.532-8.24 40.498.868 51.755 2.223 66.934 6.477 72.546 2.272 3 11.088 5.92 17.682 5.86 10.058-.098 18.972-6.342 32.15-21.578l11.91-14.405-3.305 9.338c-12.27 26.74-26.158 41.18-42.855 43.247-16.502 2.045-22.632 4.373-26.04 9.892l-2.597 4.206-1.633-3.238z" fill="#75aadb"/><path d="M104.67 142.524l1.46 27.82s3.24-11.634 5.175-16.07c2.3-.65 12.067-2.875 11.787-3.243-10.82-5.425-18.155-7.417-18.42-8.506zM255.39 137.908l-1.25 27.84s-3.325-11.597-5.294-16.013c-2.304-.62-12.087-2.727-11.81-3.102 10.78-5.55 18.1-7.633 18.355-8.725z" fill="#75aadb" fill-rule="evenodd"/></svg>