<svg xmlns="http://www.w3.org/2000/svg" xmlns:xlink="http://www.w3.org/1999/xlink" height="480" width="640" viewBox="0 0 640 480"><path fill="#d0103a" d="M0 0h640v480H0z"/><path fill="#fedf00" d="M0 0h435.2v480H0z"/><path fill="#0018a8" d="M0 0h204.8v480H0z"/><path d="M300.397 136.627c7.712 0 10.866 6.617 18.578 6.617 4.76 0 7.538-1.555 11.687-3.896 2.895-1.64 4.743-2.514 8.068-2.514 3.404 0 5.49 1.03 7.232 3.947.984 1.654 1.8 4.885 1.368 6.74-.82 3.515-1.325 5.043-2.727 8.29-.668 1.56-1.298 2.494-1.298 4.2 0 4.094 5.57 5.5 9.358 5.56.826.012 7.77.126 12.042-4.2-2.32-.1-4.913-1.897-4.913-4.215 0-2.624 1.844-4.4 4.343-5.157.475-.136 1.284.284 1.714.057.61-.316.32-1.003.864-1.433 1.244-.993 2.053-1.614 3.647-1.614 1.04 0 1.65.146 2.488.746.44.317.602.71 1.145.71 1.142 0 1.708-.725 2.85-.725.927 0 1.493.124 2.307.542.678.35.663 1.503 1.432 1.503.385 0 2.42-.828 3.48-.828 2.207 0 3.384.8 4.81 2.472.384.452.63 1.367 1.02 1.367.788 0 2.602.507 3.733 1.638.486.486.702.716 1.075 1.304.26.42.66 1.44 1.12 1.616.538.208.99.168 1.698.623 1.618 1.035 2.86 2.982 2.803 4.87-.02.632-.31 1.515-.48 2.12-1.882 6.58-6.362 8.67-10.885 14.322-1.923 2.41-3.44 4.33-3.44 7.418 0 .747.92 2.114 1.326 2.736-.247-1.45.416-3.233 1.95-3.316 2.1-.113 3.724 1.484 4.007 3.564.056.487-.125 1.327-.332 1.824 1.13-.746 2.62-1.25 3.978-1.41.736-.078 1.16-.1 1.907-.082 3.358.083 7.063 1.97 9.31 3.88 6.88 5.844 7.71 14.396 7.337 16.77-.835 5.278-.31 14.828-13.8 18.636 2.496 1.05 4.193 2.927 4.193 5.234 0 2.51-1.924 4.66-4.434 4.66-1.436 0-2.432-.352-3.438-1.358-2.805 2.804-3.347 5.665-3.347 9.634 0 2.375.455 3.777 1.45 5.926 1.05 2.273 1.81 3.607 3.71 5.247 1.006-1.516 2.07-2.625 3.89-2.625 1.764 0 3.257.566 3.98 2.172.215.486.023.882.27 1.357.318.61.85.745 1.178 1.356.51.94.01 1.742.452 2.715.282.633.904.724 1.175 1.357.43.972.543 1.64.543 2.714 0 3.01-2.737 5.158-5.745 5.158-.905 0-1.402-.362-2.307-.272 1.72 1.72 3.03 2.466 4.343 4.525 1.9 2.975 2.373 5.09 2.802 8.595.08.655.09 1.05.09 1.718 0 4.5-.7 7.193-2.713 11.218-1.925 3.857-3.564 5.995-7.06 8.505-5.45 3.924-9.42 5.055-16.012 6.333-4.23.814-6.65 1.176-10.95 1.447-5.495.35-8.627.362-14.112.724-7.193.485-12.18 1.503-17.28 6.603 2.408 1.764 4.07 3.494 4.07 6.47 0 3.052-1.888 5.234-4.794 6.196-.68.225-1.176.02-1.81.36-.757.396-.723 1.267-1.447 1.72-1.28.814-2.274.995-3.8.995-2.692 0-4.524-.634-6.424-2.534-2.205 1.833-2.95 3.485-5.43 4.887-.812.452-1.23 1.085-2.17 1.085-1.48 0-2.16-.937-3.346-1.81-1.89-1.38-2.896-2.294-4.434-4.07-2.25 1.347-3.63 2.444-6.243 2.444-1.607 0-2.624-.227-3.98-1.086-.714-.44-.827-1.097-1.54-1.538-.746-.464-1.37-.294-2.17-.633-3.02-1.3-4.977-3.54-4.977-6.83 0-2.885 1.82-4.717 4.433-5.927-5.01-5.01-9.94-5.88-17.008-6.332-5.462-.35-8.572-.36-14.023-.723-4.332-.294-6.74-.735-11.04-1.447-3.244-.532-5.167-.7-8.14-2.08-10.235-4.773-16.76-11.32-18.095-22.528-.113-.96-.09-1.516-.09-2.49 0-5.834 2.295-9.396 6.423-13.524-1.063-.25-1.775.102-2.805-.27-2.578-.94-4.433-2.727-4.433-5.475 0-1.016.046-1.695.543-2.577.35-.623 1.018-.747 1.176-1.448.204-.928-.07-1.584.36-2.443.285-.578.816-.69 1.088-1.268.894-1.854 2.014-3.347 4.07-3.347 1.766 0 2.897.927 3.8 2.443 1.72-.792 2.195-2.08 3.168-3.71 1.617-2.702 2.352-4.59 2.352-7.734 0-2.195-.215-3.485-.904-5.565-.498-1.493-.702-2.51-1.81-3.62-1.006 1.007-2.002 1.358-3.438 1.358-2.872 0-5.066-2.465-5.066-5.338 0-2.137 1.052-3.72 2.986-4.614-1.55-1.333-2.895-1.446-4.614-2.532-2.613-1.65-3.53-3.392-5.248-5.97-1.12-1.686-1.413-2.862-1.99-4.795-.69-2.33-1.086-3.72-1.086-6.152 0-.632.012-1.006.09-1.63.645-4.906 1.528-7.982 4.615-11.85 1.833-2.295 3.077-3.71 5.79-4.884 2.308-.995 3.687-1.72 6.198-1.72.76 0 1.2 0 1.946.092 1.154.147 1.89.25 2.895.814.386.214 1.087.86 1.087.406 0-.52-.273-.79-.273-1.31 0-2.082 1.493-3.982 3.574-3.982 1.505 0 2.116 1.324 2.85 2.625.476-.792.724-1.335.724-2.262 0-3.438-1.844-5.19-3.98-7.87-4.66-5.825-10.496-8.55-10.496-16.014 0-2.228 1.075-3.744 2.986-4.886.554-.328 1.3 0 1.842-.347.463-.293.41-.892.704-1.367.464-.736.874-1.052 1.52-1.617 1.062-.927 1.995-.65 3.17-1.464.59-.407.728-.936 1.18-1.48 1.312-1.582 2.49-2.346 4.56-2.346 1.04 0 1.623.006 2.585.388.328.126.94.62 1.02.525.208-.25.77-.845 1.437-1.16.87-.42 1.224-.58 2.196-.58 1.108 0 1.835.62 2.943.62.407 0 .5-.407.83-.62.983-.67 1.55-1.046 2.75-1.046 1.15 0 1.79.38 2.76 1.003.917.576 1.05 1.35 1.987 1.892.52.304.96.17 1.538.36 2.58.86 4.525 2.578 4.525 5.29 0 1.47-.35 2.52-1.447 3.484-.87.77-1.696.633-2.804.995 3.594 2.87 6.723 3.584 11.314 3.584 4.206 0 9.35-1.72 9.35-5.926 0-1.957-1.08-3.008-1.85-4.806-1.38-3.2-2.128-5.082-2.128-8.565 0-2.76.3-4.433 1.907-6.672 1.65-2.307 3.667-2.845 6.505-2.845z" fill="#c7b37f"/><g stroke="#703d29" fill="none"><path d="M272.378 159.014c.276 1.045 1.12 2.023 2.444 2.437.796.25 2.638.15 3.832-1.39.968-1.25.894-2.8.532-4.03-.234-.797-.877-1.566-1.726-2.22l-5.08 5.156-.002.05zm128.652 77.108c-1.194-2.886-4.28-1.593-4.47 0-.436 3.668 2.78 4.776 5.068 4.18 1.133-.296 1.963-1.01 2.493-1.94.6-1.05.78-2.42.39-3.728a4.9 4.9 0 0 0-.845-1.652 4.973 4.973 0 0 0-1.28-1.21c-.88-.56-1.84-.617-3.343-.617-5.572 0-10.45 6.585-12.086 13.425-.54 2.253-1.28 7.278-.253 12.042 1.095 5.075 3.29 8.59 5.863 11.254 1.393 1.443 3.293 2.728 5.753 4.12.76.428 2.764 1.318 4.157 1.716 1.43.41 2.752.35 3.942.09 3.3-.716 4.836-3.787 3.173-6.93-1.363-2.573-5.375-3.98-7.266-.696-.16.278-.41.885-.402 1.542.01.876.374 1.93 1 2.33 1.436.914 3.736.655 3.63-1.882m-22.753 5.8c1.118-1.317 3.684-3.29 6.62-3.65 2.978-.367 5.566.5 8.21 1.922 5.157 2.774 8.034 5.756 9.95 11.29.487 1.405.89 3.523.835 5.773-.09 3.59-1 7.51-1.98 9.406-.852 1.654-3.084 8.956-15.324 13.996-7.143 2.94-18.112 3.62-25.676 3.918-10.404.41-20.002.796-25.576 7.663m45.54-38.555c-.298-1.095-.022-2.144.846-3.334 1.16-1.59 3.632-2.14 5.872-.895.75.413 1.688.96 2.537 2.086.32.426.864 1.113 1.145 1.593.677 1.16.956 2.107 1.09 2.49 2.46 6.992-1.45 14.57-6.564 17.612-3.972 2.362-8.71 3.415-14.38 4.08-2.55.3-4.004.28-6.568.398-2.063.098-3.845.063-5.523.043-1.38-.017-2.69-.01-4.03-.04-2.186-.052-4.448-.103-7.216.1-2.915.21-5.105.285-7.566.695-1.608.268-3.492.527-5.467.97-.594.133-1.195.24-1.8.423l-1.203.37c-3.566 1.088-7.03 2.413-9.765 4.174-.845.544-1.8 1.088-2.48 1.733-.427.4-.944.804-1.36 1.214-1.915 1.883-3.87 3.92-4.33 6.68-.083.51-.083 1.043-.083 1.605 0 1.79 1.457 4.23 5.388 5.026m5.53-170.12c.823 1.49 1.276 2.394.797 3.93-.542 1.745-1.778 2.79-3.533 2.79-3.98 0-6.323-4.714-4.53-7.714 3.186-5.324 9.306-2.334 14.978.303-.275-1.366-.753-1.81-.703-3.5.124-4.203 3.24-6.11 4.483-9.99.742-2.31 1.037-4.32-.655-5.96-1.477-1.435-3.188-1.413-5.116-.657-3.853 1.51-8.48 5.848-16.623 5.968-8.143-.12-12.808-4.46-16.66-5.967-1.926-.756-3.638-.778-5.115.656-1.693 1.64-1.398 3.65-.657 5.96 1.244 3.88 4.36 5.787 4.483 9.988.05 1.692-.43 2.136-.7 3.5 5.67-2.636 12.03-5.894 14.975-.302 1.643 3.116-.546 7.713-4.527 7.713-1.755 0-2.987-1.12-3.533-2.788-.486-1.484 0-2.784.796-3.93m5.924-2.766c1.538 1.176 2.624 2.623 2.443 4.975-.197 2.555-.815 3.17-2.805 4.527m2.397-3.798c-.09 1.537-.723 2.532-2.26 3.165"/><path d="M276.736 153.274l.697.497.746.8.494.995.25.846.05 1.094-.05.746-.25.844-.497.597-.598.65-.847.446-1.095.25-.945.148-.995-.448-.895-.646-.547-.797-.398-.995v-.4l4.876-4.626z" fill="#c7b37f" stroke="none"/><path d="M275.206 157.165c-.306-1.652-2.237-1.99-2.985-1.015-1.15 1.502-.31 4.004 2.036 4.737.796.25 2.637.15 3.83-1.394.97-1.25.895-2.8.533-4.03-.235-.796-.874-1.49-1.727-2.14-2.72-2.07-7.115-1.592-8.558 1.89-1.862 4.494 2.19 7.863 5.92 10.4 4.7 3.195 10.052 3.776 14.083 3.733 9.156-.1 16.122-4.48 20.65-6.966 1.055-.58 2.14-.46 2.687.2.616.744.606 1.946-.25 2.735m-63.36 115.87l-2.04.745-2.09 1.593-.897 1.244-1.144 1.99-.498 1.493-.398 1.84-.2 1.394m19.01-10.102l-.15 1.792-.298 1.244-.896 2.14-1.393 1.84-1.49 1.195-1.094.547-1.543.348m66.8 38.62c-.37 1.655-1.92 3.55-5.3 4.234l-.654.136m90.428-57.273c2.137 1.993 3.638 4.42 4.792 7.75.487 1.404.89 3.523.834 5.773-.09 3.587-1 7.507-1.98 9.403-.852 1.657-3.083 8.96-15.324 13.998-7.143 2.94-18.112 3.62-25.676 3.918-10.254.404-19.726.785-25.332 7.37m45.956-41.568c.76-1.038 3.53-2.35 5.77-1.107.737.41 1.61.93 2.377 2.078m5.97-10.032c.5.192 1 .366 1.437.49 1.43.41 2.776.44 3.942.09 2.83-.848 4.647-3.492 3.174-6.93-.342-.796-.996-1.56-1.74-2.133m-168.136-65.54c-1.9 1.176-3.317 1.455-4.795 3.167-1.472 2.914-2.05 4.48-2.624 6.816m46.1-51.692c0 1.72-1.266 2.805-2.985 3.167m121.136 30.8c4.73-.097 18.47 3.608 18.567 19.76.1 15.952-9.842 18.558-13.825 19.62m-3.5-39.38c8.156-.355 16.57 5.648 16.942 20.63.29 11.705-8.01 17.014-11.995 18.076m-9.492 17.696l.127-1.6.533-2.544.754-1.978.848-1.633 1.1-1.32m7.782-3.397l-.125 1.566-.45 1.07-.697 1.02-.796.597-1.22.448-1.07.078-.796-.125m-14.31-52.813l.35-1.693.746-1.567.97-1.568 1.667-2.14 1.32-1.467 2.138-2.165 1.844-1.866 1.17-1.343 1.542-1.863 1.368-2.065.822-1.69.447-2.19.137-2.715-.25-.787m-12.278 128.174l1.617-.324 1.216-.647.672-.67.47-.77.325-1.245.025-.87M233.56 274.166l1.194.1 1.542-.125 1.543-.546m5-36.547l-.2 1.393-.322.622-.475.597-.647.497-.722.323-.945.15-.647.05m9.903-15.62l-.348 2.164-.425.946-.87 1.194-1.17.896-1.194.597-2.314.572m15.3-39.76l-.448 1.295-.55.947-.746 1.045-1.045.947-1.245.596-1.045.248-.646-.05m.38-6.198l.024.995m1.84 32.563a6.855 6.855 0 0 1-2.09 1.298m150.52 44.826c.085.093.37.14.47.2 1.42.845 4.21-.21 3.39-2.4m-8.788-28.38c1.006 1.316 2.904 1.658 4.405 1.266 1.136-.296 1.966-1.01 2.496-1.94.598-1.05.78-2.42.39-3.727a4.907 4.907 0 0 0-.848-1.65c-.426-.56-.955-1.16-1.364-1.426-.11-.07-.217-.167-.332-.245m6.424 34.015a3.94 3.94 0 0 0 .066-.72c0-1.158-.485-2.22-1.286-2.934-.274-.244-.54-.623-.87-.79m.476.47c-.046-1.863-1.57-3.196-3.462-3.53m-4.172 2.84c-.435-.355-.9-.656-1.307-1.08-2.45-2.564-4.292-6.353-4.316-10.675-.024-4.143 1.642-8.36 3.582-10m-56.5 84.648l1.79-1.643 1.245-.947 2.34-1.443 2.19-1.044 1.542-.398 3.087-.696 3.58-.548m-29.51 19.364c-1.292 1.99-4.377 4.976-7.612 6.17-3.234-1.194-6.32-4.18-7.613-6.17m2.215-4.14c-.406 1.502-1.143 2.96-2.22 4.13m2.54-6.218l-.45 2.19m-2.335 4.18l-.945.944-1.692.946-1.94.597m-5.644-177.83c.243-.756.49-1.325.455-2.57-.127-4.2-3.24-6.105-4.486-9.986-.74-2.31-1.036-4.32.656-5.96 1.478-1.432 3.19-1.41 5.117-.655 3.85 1.51 8.517 5.848 16.66 5.97-8.143-.122-12.81-4.46-16.66-5.97-1.928-.755-3.798-.976-5.275.457-1.692 1.643-1.238 3.85-.497 6.16 1.244 3.883 4.2 5.788 4.323 9.99.036 1.243-.292 1.81-.534 2.57m18.62-13.493c8.01-.424 14.878-5.807 17.093-6.246 1.975-.392 3.078-.215 4.526 1.102-1.45-1.317-3.1-1.276-4.973-.54-3.85 1.51-8.477 5.847-16.62 5.968m79.598 112.886c-3.334-2.388-6.19-6.948-6.22-12.335-.023-4.144 1.642-8.36 3.582-10.002m-69.95 97.576c-1.295 1.99-4.38 4.975-7.614 6.17-3.234-1.195-6.32-4.18-7.613-6.17m-5.253-172.816c.832-.462 1.605-.9 2.318-1.292 1.055-.58 2.323-.458 2.87.202.615.745.71 2.037-.145 2.826m-17.006 3.864c5.496-1.147 9.975-3.61 13.36-5.502m32.273 164.183c.454.31.746.955.746.955.125.3.288.584.333.85.255 1.522-.74 2.47-1.976 2.614-1.695.197-2.967-.81-3.51-2.03m-41.51-161.352c5.497-1.147 9.975-3.61 13.36-5.502m97.578 106.904c-1.045.402-1.616.348-2.916-.23-.534-.236-1.145-.603-1.86-1.01-2.548-1.446-5.574-3.727-8.41-9.05a18.812 18.812 0 0 1-1.71-4.476c-.27-1.11-.458-2.208-.5-3.335-.068-1.92.14-3.925.618-6.222.79-3.79 1.744-5.85 4.08-9.053 1.15-1.576 2.14-2.537 4.28-2.587M255.25 195.122c1.78 1.512 2.64 3.384 2.64 5.722 0 3.1-2.594 8.16-8.963 9.952-2.44.686-4.856.132-6.317-.756m13.684-4.42c1.145.795 1.593 1.69 1.593 3.244 0 1.065-.69 2.446-1.86 3.754-1.92 2.142-5.173 3.962-8.78 4.007-1.955.024-3.986-.384-6.03-1.75-2.184-1.46-3.333-3.434-3.83-5.375m18.805 2.794c1.297 1.192 1.695 2.684 1.695 4.563 0 2.745-1.115 4.864-3.68 7.108-.573.502-1.22.972-1.94 1.395m129.43-22.077v3.532m-.283-4.402v4.975m.282-15.746v6.518m-.282-7.958v8.907m-1.9 81.96c-1.236 2.452-2.223 3.74-4.18 5.67-1.975 1.946-3.343 2.84-5.822 4.08-2.414 1.21-3.934 1.595-6.568 2.19-2.632.594-4.17.724-6.867.846-2.47.112-3.874.008-6.342-.163-2.64-.183-4.107-.55-6.744-.783-2.176-.19-3.406-.365-5.593-.36-2.248.007-3.536.02-5.75.41-2.062.367-3.232.658-5.174 1.445-2.685 1.088-5.72 2.985-6.368 3.83-.647-.845-3.683-2.742-6.37-3.83-1.94-.787-3.11-1.078-5.174-1.443-2.213-.39-3.5-.405-5.75-.41-2.185-.007-3.416.17-5.594.36-2.638.233-4.103.6-6.744.784-2.47.17-3.87.275-6.342.163-2.696-.124-4.235-.25-6.867-.848-2.632-.596-4.152-.98-6.567-2.19-2.48-1.238-3.847-2.133-5.822-4.08-.212-.21-.414-.412-.606-.61m42.168 53.367l1.79-.224m30.274-2.355l1.808-.172 1.722-.69 1.205-.73 1.638-1.94.345-.73.258-1.68.087-.775m46.91-136.695c.777-2.64-.17-5.43-2.73-5.354m-131.95 46.564c-.65 2.194-2.045 3.693-3.598 4.668m3.64-46.716c-.64 1.85-1.81 3.17-3.663 4.007-1.847.832-3.985.053-5.13-.83m-5.234 6.52c1.53.803 3.084-.373 2.766-2.364-.15-.933-1.155-2.112-2.517-2.198m6.1 88.825c.33.31.4.714.846.796.67.125 1.194.374 1.866-.522.825-1.104.38-2.82-.48-3.902-.924-1.157-3.594-2.18-5.83-.936-.75.416-1.69.964-2.54 2.09-.32.426-.865 1.113-1.145 1.592-.678 1.16-.956 2.107-1.09 2.488-2.05 5.823.384 11.945 4.152 15.676m94.28 23.915c.41.426.647.796.647.796.126.3.23.584.274.85.258 1.522-.74 2.47-1.973 2.614-1.695.197-2.83-.802-3.37-2.02m53.645-175.31c3.346.41 6.262 3.603 6.262 7.036 0 4.43-1.492 6.078-3.824 9.246-2.495 3.39-10.648 9.6-10.648 16.666 0 4.28 1.194 7.015 4.28 8.408 1.988.9 4.314-.074 5.373-1.03 2.587-2.34 1.553-6.44-1.144-6.93-3.288-.598-3.905 4.573-.7 4.23m17.826 69.06c-.294-1.77-1.8-3.12-3.615-3.12-2.023 0-3.665 1.68-3.665 3.755 0 1.015.394 1.937 1.034 2.614m-16.754-69.57c-1.78 1.51-2.638 3.383-2.638 5.72 0 3.1 2.592 8.16 8.962 9.953 2.44.686 4.772.62 6.233-.267M240.39 200.192c-1.522.508-3.423 1.458-4.83 3.453-1.19 1.683-1.882 4.023-2.31 6.07-.19.896-.413 3.733.16 6.663.424 2.163 1.317 4.177 2.306 5.636a7.94 7.94 0 0 0 1.037 1.236c.33.33.802.624 1.135.88m64.012 92.043c4.85 2.15 8.404 3.76 11.418 8.518.945 1.496 1.194 3.636 1.194 4.88 0 2.686-1.095 5.722-3.334 7.612-2.078 1.756-4.13 2.29-6.667 2.04-1.922-.187-3.73-1.59-4.03-2.586M254.005 224.13c2.737 2.14 3.88 4.215 3.88 7.514 0 3.78-1.84 6.12-3.98 7.463m-2.39-2.685c4.08 5.076 6.245 8.088 6.37 14.132.115 5.672-1.693 9.553-5.077 13.634m76.94-94.863c.742-.487 1.286-1.267 1.6-2.23.48-1.49.49-2.757-.305-3.902.982 1.285 1.072 2.37.796 3.93-.176.994-.81 1.517-1.6 2.23m51.458 86.16v16.155h.043c0 .01-.01 1.53-.14 2.488a34.413 34.413 0 0 1-.273 1.73m.087-21.928v17.423h.043c0 .015-.005 1.53-.135 2.49-.136 1-.28 1.85-.467 2.64m.56-42.947v14.53m.28-13.385v11.817m0-26.844v8.86m-.28-9.9v10.92m.28-18.935v3.436m-.28-4.133v4.977m-1.845 65.193c-.105.224-.218.455-.338.694-1.235 2.455-2.222 3.744-4.18 5.673-1.974 1.947-3.343 2.838-5.82 4.08-2.415 1.21-3.936 1.595-6.57 2.19-2.63.594-4.17.724-6.866.846-2.472.11-3.874.006-6.342-.164-2.642-.183-4.107-.55-6.744-.783-2.18-.19-3.41-.367-5.596-.362-2.248.008-3.536.02-5.75.413-2.062.365-3.232.656-5.174 1.443-2.687 1.088-5.722 2.985-6.37 3.83-.646-.845-3.682-2.742-6.368-3.83-1.942-.787-3.112-1.078-5.175-1.443-2.214-.392-3.502-.406-5.75-.412-2.186-.005-3.417.17-5.595.363-2.638.232-4.103.6-6.745.783-2.468.17-3.87.274-6.342.163-2.695-.123-4.235-.25-6.866-.847-2.637-.597-4.156-.982-6.57-2.19-2.48-1.24-3.85-2.133-5.82-4.08-1.037-1.02-1.8-1.86-2.47-2.787m-2.01-3.19c.424 3.164-.906 6.273-2.257 7.703-.846.895-2.688 2.606-4.976 2.636-3.78.05-4.91-2.55-5.14-3.184m7.88-8.794c.7.693 1.324 1.54 1.85 2.538.946 1.79.655 4.787-.094 6.17a4.427 4.427 0 0 1-.304.478m-20.245 18.014c2.248 2.36 5.65 4.923 10.873 7.073 7.14 2.944 18.11 3.62 25.674 3.92 10.057.397 19.323.81 24.966 7.04m17.366-4.073c1.662 1.636 3.358 3.39 4.074 5.63m-7.345 11.452a8.22 8.22 0 0 1-.693.66c-2.078 1.752-4.13 2.287-6.668 2.04-1.924-.19-3.78-1.633-4.278-2.578m-5.353-2.906c.094.127.19.25.294.37 1.208 1.406 3.115 2.288 5.106 2.452m26.87-.076c-1.294 1.99-4.38 4.975-7.613 6.17-3.236-1.195-6.32-4.18-7.615-6.17l-.302-.465m15.58.452c.23.25.478.487.74.71 2.078 1.753 4.13 2.287 6.668 2.04 1.926-.19 3.454-1.476 4.07-2.59 0 0 .348-.373.445-.73m-.643.164l-.743 1.194-1.13.937-1.71.71-1.55.065m9.153-14.28c.915.703 1.814 1.767 2.302 2.903.314.73.46 1.533.505 2.366a5.854 5.854 0 0 1-1.423 4.14c-1.278 1.49-3.272 2.39-5.395 2.475a5.482 5.482 0 0 1-.47 0m.184-.282c-2.03.08-3.843-.788-5.18-2.16m63.675-67.87c-1.583-1.46-3.223-3.48-4.805-6.45a18.803 18.803 0 0 1-1.71-4.473c-.27-1.11-.458-2.207-.5-3.333-.068-1.92.14-3.925.618-6.222.79-3.792 2.203-6.726 4.08-9.056.64-.797 1.38-1.788 2.08-2.234m-1.376-75.817c2.538.2 4.89 2.93 4.858 5.61-.045 3.89-1.35 5.496-4.41 9.31-2.637 3.282-10.55 9.054-10.35 14.577.036.98.564 1.994 1.154 2.81m-3.163 3.462c.562.555 1.242 1.013 2.052 1.38 1.446.653 3.072.316 4.26-.284m-21.174-43.22c.85.58 1.716 1.465 2.185 2.6 1.863 4.49-2.19 7.86-5.92 10.4-2.676 1.817-5.564 2.79-8.3 3.28m7.762-7.62c-.905-.01-1.98-.268-3.15-1.498-.268-.283-.583-.658-.707-.994m-14.857 4.904c-.473-.237-.98-.582-1.32-.962-.887-.993-1.48-2.336-.795-4.386.632-1.897 3.677-7.216 3.827-10.898.228-5.625-1.936-8.945-5.32-10.24m5.035 8.982l-.132 2.115-.573 2.16-1.1 2.95-.84 1.894-.88 1.895-.44 1.322-.177.97.133.925m38.012 126.278c.175.423.597.836.597.836.647 1.08 3.162 2.98 5.45 3.01 3.78.05 4.68-2.597 4.777-3.185.477-2.885-.51-3.675-1.99-4.488 0 0-.872-.45-1.917-.277m-151.288-8.52c-1.335.34-2.59.35-3.685.02-2.83-.85-5.124-3.56-3.954-6.93m13.386-31.824c.284.285.375.71.418 1.07.437 3.667-2.777 4.736-5.066 4.14-1.134-.297-2.485-1.35-3.015-2.28a4.707 4.707 0 0 1-.612-2.303m22.057-23.667c.573.527.97 1.112 1.236 1.764m-1.133-8.516c.53.37.912.84 1.168 1.307m.117 3.392c-.31.762-.843 1.584-1.555 2.38-1.92 2.14-5.173 3.96-8.778 4.005-1.96.025-3.99-.384-6.03-1.75-2.188-1.46-3.61-3.538-4.084-5.578m18.014-14.297c1.108.942 1.958 2.142 2.367 3.39m.033 4.565c-.885 2.928-3.526 6.548-8.622 7.84-2.435.616-5.57-.155-6.64-1.066m-2.53-7.458c.267 2.637 2.032 4.613 5.377 4.677 4.704.09 7.564-6.765 3.384-11.58m-19.347 29.88c.687.862 1.496 1.64 2.323 2.327 1.677 1.396 3.655 2.625 5.934 3.298m5.28.493c4.203-.505 6.573-3.638 6.103-7.302-.358-2.793-2.92-4.94-4.662-5.064m5.42-31.172c1.823-.07 2.86 1.588 2.844 2.984m-3.274-28.016c1 2.614 2.947 4.657 5.032 5.824m144.178 30.964c1.72 2.354.594 6.996-4.082 7.084-1.827.035-3.475-.978-4.44-2.51m-8.412-35.32v15.8m-137.94 17.41c1.444 1.044 3.297-.72 2.58-2.592-.484-1.264-2.28-2.628-4.77-.937-2.746 1.87-1.99 7.766 3.286 7.865 4.703.09 7.563-6.767 3.383-11.58-4.02-4.63-11.345-3.546-16.12.254-2.034 1.616-5.873 5.852-7.067 11.624-.372 1.797-.612 3.272-.584 5.075.02 1.187.13 2.52.484 4.18.72 3.353 1.9 5.81 3.076 7.516.45.654.862 1.197 1.303 1.638.82.82 1.064 1.253 1.89 1.94 2.704 2.25 6.186 4.014 10.45 3.832 4.677-.2 7.365-3.483 6.867-7.364-.483-3.762-4.282-5.635-6.768-3.88-1.692 1.194-2.293 4.89.697 5.77 1.692.5 3.184-1.64 1.99-2.884m129.563-71.95c2.7-1.467 4.78-1.196 6.32.94 1.672 2.32 1.91 5.41 1.542 7.22-.547 2.686-1.324 3.802-3.46 5.75m2.112-12.716c3.086-2.04 6.427-1.174 8.26 1.543 1.345 1.99 1.688 3.655 1.593 6.12-.162 4.224-2.805 7.572-5.722 9.205m10.4-9.75c2.537.198 4.577 2.495 4.577 5.174 0 3.83-1.07 5.493-4.13 9.305-2.637 3.28-10.55 9.053-10.35 14.576.076 2.088 1.836 4.056 3.355 4.166m6.848 9.958c-1.443 1.044-3.284-.643-2.488-2.434.55-1.237 2.19-2.786 4.677-1.095 2.745 1.87 1.99 7.766-3.287 7.865-4.704.09-7.883-6.59-3.383-11.58 4.107-4.554 11.72-3.662 16.5.138 2.03 1.618 6.12 6.06 7 11.887 1.06 7.052.923 15.727-6.36 21.07-2.93 2.147-6.99 3.124-10.57 2.967-4.68-.205-7.366-3.483-6.868-7.365.482-3.762 4.105-5.355 6.767-3.88 2.762 1.53 2.28 5.417-.7 5.77-1.75.21-3.183-1.64-1.99-2.885m-1.79-22.89c.776-3.49 3.767-3.815 6.18-3.78 6.59.097 11.148 7.913 11.224 15.474.096 9.554-4.054 15.178-11.035 15.477-1.81.078-4.92-.782-4.974-2.985m2.662-25.746c6.95 1.544 9.39 7.805 9.39 13.78 0 4.875-.484 11.535-9.97 13.877m12.042 39.337a3.906 3.906 0 1 0-6.264 2.343m-7.676-8.263c1.31 1.942 2.892 4.1 6.235 5.913m-1.255 10.55c-3.276-2.15-9.496-4.968-15.12-2.195-2.085 1.03-3.482 2.302-4.27 4.378-1.422 3.737.166 7.856 1.783 9.567.846.896 2.688 2.607 4.976 2.637 3.78.05 4.68-2.596 4.774-3.184.448-2.737-1.145-3.832-1.99-4.13-.65-.23-2.76-.17-3.208 1.322-.15.497-.176 1.365.222 2.012m-46.124 42.142c1.045 2.14-.144 3.215-1.593 3.384-2.136.25-3.28-1.443-3.43-2.986-.242-2.5 1.866-4.767 4.38-4.727 2.26.037 4.104 1.497 4.968 3.505.314.73.46 1.533.504 2.367a5.852 5.852 0 0 1-1.42 4.143c-1.28 1.49-3.274 2.39-5.396 2.475-4.224.17-7.513-3.782-7.513-7.812 0-7.71 11.44-11.916 15.973-13 5.573-1.33 8.964-1.826 17.913-2.323 3.582-.2 6.206-.098 10.15-.507 3.53-.367 5.374-.54 9.006-1.385 4.533-1.055 8.758-2.936 12.54-6.37 2.91-2.643 4.577-4.527 5.925-8.16 1.165-3.133 1.7-9.34-1.247-13.93-2.605-4.06-6.22-6.166-10.35-6.763-3.732-.54-7.004 1.07-8.958 4.773-.945 1.79-.654 4.787.095 6.17.647 1.194 2.494 2.955 4.782 2.985 3.78.05 4.68-2.596 4.775-3.184.447-2.737-1.145-3.832-1.99-4.13-.65-.23-2.76-.17-3.208 1.322-.15.497-.177 1.365.22 2.012m-49.384 29.893c-4.85 2.15-8.403 3.76-11.417 8.518-.948 1.496-1.197 3.636-1.197 4.88 0 2.686 1.094 5.722 3.334 7.612 2.076 1.756 4.13 2.29 6.666 2.04 1.925-.187 3.732-1.59 4.03-2.586m46.474-112.508c-2.268.757-3.88 4.215-3.88 7.514 0 3.78 1.84 6.12 3.98 7.463m2.39-2.683c-4.08 5.076-6.245 8.088-6.37 14.132-.116 5.672 1.693 9.553 5.076 13.634M365.85 152.05c.105-.155.22-.327.35-.517 1.692-2.488 4.68-3.143 6.866-1.493 2.638 1.99 3.304 5.378 2.588 8.957-.448 2.24-1.967 4.104-4.048 5.453M265.1 150.835c-2.587-1.194-4.717-.964-6.32.94-1.84 2.19-1.91 5.41-1.54 7.22.546 2.687 1.323 3.803 3.46 5.752m-2.12-12.715c-3.086-2.04-6.427-1.174-8.26 1.543-1.344 1.99-1.688 3.655-1.593 6.12.162 4.224 2.806 7.572 5.722 9.205m-4.773-14.142c-3.346.408-6.016 3.244-6.016 6.678 0 4.428 1.09 6.22 3.58 9.603 2.494 3.39 10.65 9.6 10.65 16.666 0 4.28-1.195 7.015-4.28 8.408-1.99.9-4.315-.074-5.374-1.03-2.588-2.34-1.553-6.44 1.144-6.93 3.283-.598 3.9 4.573.696 4.23m-6.026-33.234c-2.537.198-5.033 2.38-5.033 5.06 0 3.83 1.526 5.607 4.586 9.418 2.638 3.284 10.088 8.942 9.89 14.465-.076 2.09-1.48 4.642-2.873 4.344m-12.54 43.685c1.194-2.886 4.28-1.593 4.47 0 .436 3.668-2.778 4.776-5.067 4.18-1.134-.296-1.963-1.01-2.493-1.94-.598-1.05-.78-2.42-.39-3.728a4.903 4.903 0 0 1 .848-1.652 4.97 4.97 0 0 1 1.28-1.21c.88-.56 1.838-.617 3.342-.617 5.573 0 10.45 6.585 12.087 13.425.54 2.253 1.28 7.278.254 12.042-1.092 5.075-3.286 8.59-5.86 11.254-1.393 1.443-3.293 2.728-5.753 4.12-.76.428-2.764 1.318-4.158 1.716-1.43.41-2.776.44-3.94.09-2.83-.848-4.65-3.493-3.176-6.93 1.147-2.676 5.374-3.98 7.265-.696.16.278.41.885.4 1.542-.01.876-.374 1.93-1 2.33-1.437.914-3.736.655-3.63-1.882m1.194 2.228c1.045.402 1.616.348 2.916-.23.534-.236 1.145-.603 1.86-1.01 2.548-1.446 5.573-3.727 8.41-9.05a18.803 18.803 0 0 0 1.71-4.476c.27-1.11.458-2.208.5-3.335.068-1.92-.14-3.925-.618-6.222-.79-3.79-1.744-5.85-4.08-9.053-1.15-1.576-2.14-2.537-4.28-2.587m-9.446 30.9a3.906 3.906 0 1 1 6.264 2.343m-4.747-6.227c.294-1.772 1.8-3.122 3.615-3.122 2.025 0 3.666 1.68 3.666 3.756a3.793 3.793 0 0 1-1.033 2.615m.883-3.447c3.334-2.388 6.19-6.948 6.22-12.335.022-4.144-1.643-8.36-3.583-10.002m2.656 20.5c-1.308 1.942-2.89 4.1-6.234 5.913m16.166 8.36c-.927-2.18-2.77-3.19-5.772-3.51-2.984-.32-5.567.5-8.21 1.922-5.158 2.775-8.034 5.757-9.952 11.29-.486 1.406-.89 3.524-.834 5.774.09 3.584 1 7.504 1.98 9.4.852 1.654 3.084 8.956 15.324 13.996 7.143 2.94 18.112 3.618 25.676 3.916 10.404.41 20.003.797 25.576 7.663m-58.706-48.263c3.277-2.15 9.496-4.967 15.12-2.194 2.085 1.03 3.482 2.302 4.27 4.378 1.422 3.737-.166 7.856-1.783 9.567-.846.896-2.688 2.607-4.976 2.637-3.78.05-4.68-2.596-4.773-3.184-.448-2.737 1.144-3.832 1.99-4.13.65-.23 2.76-.17 3.207 1.322.15.497.176 1.365-.222 2.012m.198-.552c.3-1.095.145-2.244-.845-3.334-.996-1.094-3.633-2.14-5.872-.895-.75.413-1.688.96-2.538 2.086-.32.426-.864 1.113-1.144 1.593-.675 1.16-.953 2.107-1.09 2.49-2.46 6.992 1.547 14.42 6.567 17.612 4.378 2.786 8.857 3.582 14.38 4.08 2.556.23 4.004.28 6.568.398 2.063.098 3.845.063 5.523.043 1.38-.017 2.69-.01 4.03-.04 2.186-.052 4.448-.103 7.216.1 2.912.21 5.102.285 7.563.695 1.608.268 3.492.527 5.467.97.593.133 1.194.24 1.798.423l1.205.37c3.566 1.088 7.03 2.413 9.764 4.174.845.544 1.818 1.07 2.48 1.733.51.51.944.804 1.36 1.214 1.915 1.883 3.87 3.92 4.33 6.68.083.51.083 1.043.083 1.605 0 1.79-1.456 4.23-5.387 5.026m-15.53-4.328c-1.044 2.14.144 3.215 1.593 3.384 2.14.25 3.28-1.443 3.43-2.986.242-2.5-1.866-4.767-4.38-4.727-2.26.037-4.104 1.497-4.968 3.505-.314.73-.46 1.533-.504 2.367a5.853 5.853 0 0 0 1.422 4.143c1.278 1.49 3.272 2.39 5.394 2.475 4.224.17 7.514-3.782 7.514-7.812 0-7.71-11.438-11.916-15.972-13-5.573-1.33-8.964-1.826-17.913-2.323-3.582-.2-6.206-.098-10.15-.507-3.53-.367-5.375-.54-9.008-1.385-4.532-1.055-8.757-2.936-12.538-6.37-2.914-2.643-4.58-4.527-5.928-8.16-1.165-3.133-1.7-9.34 1.247-13.93 2.605-4.06 6.22-6.166 10.35-6.763 3.732-.54 7.004 1.07 8.958 4.773.945 1.79.654 4.787-.095 6.17-.647 1.194-2.494 2.955-4.78 2.985-3.783.05-4.682-2.596-4.778-3.184-.448-2.737 1.144-3.832 1.99-4.13.65-.23 2.76-.17 3.208 1.322.15.497.176 1.365-.222 2.012m20.752-134.23c-.104-.155-.22-.327-.35-.517-1.69-2.488-4.68-3.143-6.866-1.493-2.637 1.99-3.303 5.378-2.588 8.957.448 2.24 1.967 4.104 4.048 5.453m99.242-4.853c-4.03 4.378-8.06 5.777-14.082 5.97-1.88.062-5.474-.596-7.564-2.084-1.342-.956-2.836-2.593-1.89-5.43.63-1.895 3.677-7.213 3.826-10.896.228-5.625-1.936-8.708-5.32-9.902-6.255-2.208-12.97 3.975-17.016 5.324-2.116.702-3.194.785-5.126.793-1.93-.008-3.048-.09-5.163-.796-4.044-1.35-10.76-7.533-17.015-5.325-3.383 1.194-5.547 4.277-5.32 9.902.15 3.682 3.196 9 3.827 10.897.947 2.837-.547 4.474-1.89 5.43-2.09 1.488-5.682 2.145-7.563 2.085-6.02-.194-10.05-1.593-14.083-5.97m24.963 154.818c.8.31.195-.19 5.246 2.05 4.85 2.15 8.29 4.032 11.304 8.79.946 1.494 1.194 3.633 1.194 4.877 0 .802-.097 1.635-.293 2.46m-17.122 3.448a7.98 7.98 0 0 0 3.25.825c4.226.17 7.515-3.78 7.515-7.81 0-2.796-1.52-5.15-3.652-7.04m-6.197 6.403c-1.02 2.274.433 3.504 1.88 3.672 2.14.25 3.345-1.443 3.495-2.985.162-1.678-.733-3.31-2.098-4.15m88.25-170.156c3.21 0 6.01 3.575 6.01 7.243 0 4.227-2.247 6.814-3.894 8.77-1.326 1.576-2.762 2.985-4.47 4.704m-1.456-24.104c1.093.507 2.052 1.363 2.782 2.445 1.344 1.99 1.686 3.656 1.593 6.12-.16 4.225-3.2 7.15-5.918 8.934m-4.773-17.5c.222.19.436.406.64.65 1.842 2.19 1.984 5.425 1.543 7.22-.662 2.695-1.553 3.857-3.742 5.47m-5.065-14.447c2.638 1.99 3.422 5.433 2.548 8.977-.624 2.534-2.217 4.05-4.202 5.26m11.126 41.08c.316.925.837 1.246 1.493 1.934 1.426 1.494 3.517 2.78 6.158 3.522 2.44.687 4.64.17 6.318-.875M233.788 264.24c1.24-.023 2.476.815 3.284 2.22.16.278.41.885.404 1.542-.01.874-.394 1.81-1.02 2.21-1.437.912-3.99.52-3.882-2.018m8.918-36.896c4.93.92 9.677 6.867 11.23 13.354.54 2.252 1.282 7.277.254 12.04-1.095 5.076-3.288 8.59-5.862 11.256a16.494 16.494 0 0 1-2.127 1.827l-1.05.712m-7.93-12.135c2.026 0 3.8 1.94 3.8 4.014a3.793 3.793 0 0 1-1.035 2.614m-4.133-4.274c2.11 0 4.117 2.033 4.117 4.19a3.9 3.9 0 0 1-1.482 3.062m16.706-28.468c1.937 2.6 3.216 4.84 3.81 7.725m-.066 8.487a17.27 17.27 0 0 1-1.45 4.045c-.814 1.62-2.234 3.423-3.553 4.642m1.565-40.054c1.868 1.46 2.994 2.97 3.52 4.78m.05-9.643c-.49 1.7-1.603 2.99-3.37 4.602m-9.155-17.18l2.157-.567 1.276-.964.823-1.16.71-1.816.283-1.475m-9.614-1.608c-.68.17-1.543.422-2.447.853-1.214.578-2.5 1.476-3.527 2.93-1.188 1.682-1.88 4.022-2.31 6.07-.187.895-.41 3.732.162 6.662.423 2.163 1.317 4.177 2.305 5.635.356.523.677.975 1.038 1.336 1.293 1.294 2.487 2.09 4.478 1.692m12.377-34.67c-.35 1.285-1.04 2.877-3.055 2.703m-4.31 6.015c-1.936-1.892-6.036-2.385-10.11.193-.526.335-1.05.76-1.57 1.19-.56.47-1.01 1.007-1.44 1.59-.47.637-1.05 1.717-1.397 2.434-.48.988-.68 1.637-.942 2.65-.746 2.852-.74 5.5-.655 6.257.113.968.205 1.858.364 2.676.54 2.798 1.367 4.76 2.223 6.18.9 1.493 3.14 4.922 7.717 5.374 1.8.176 4.873-.648 4.972-2.987m118.923-67.013c.306-1.653 2.297-1.972 3.045-.996 1.153 1.502.39 4.084-1.953 4.816-.796.25-2.637.15-3.83-1.393-.97-1.25-.895-2.8-.533-4.03.234-.797.873-1.49 1.726-2.14 2.72-2.07 7.116-1.592 8.558 1.89 1.862 4.494-2.19 7.863-5.92 10.4-4.7 3.195-10.052 3.776-14.083 3.732-9.156-.1-16.12-4.48-20.65-6.97-1.054-.58-2.14-.46-2.686.2-.616.746-.607 1.948.25 2.737m37.92-9.797c.97.045 1.23.423 1.527.81 1.152 1.504.31 4.086-2.033 4.818m17.84 51.542c-3.49 3.798-.28 10.315 2.326 11.79.902.7 1.288.33 2.01.75"/><path d="M383.123 205.434c-1.144.796-1.548 1.69-1.592 3.244-.034 1.3.19 2.745 1.41 4.015 1.905 1.978 5.626 3.7 9.23 3.746 1.958.022 3.99-.387 6.03-1.75 2.186-1.464 3.336-3.437 3.83-5.377m-20.86 61.79c0 .012-.004 1.53-.133 2.488-.38 2.793-.823 4.4-2.09 6.917-1.236 2.455-2.223 3.744-4.18 5.673-1.974 1.948-3.343 2.84-5.822 4.08-2.413 1.21-3.934 1.596-6.568 2.19-2.632.596-4.17.725-6.867.847-2.473.112-3.875.007-6.344-.163-2.64-.183-4.106-.55-6.744-.782-2.178-.19-3.41-.367-5.595-.36-2.248.005-3.536.02-5.75.41-2.063.366-3.233.657-5.175 1.444-2.686 1.088-5.722 2.985-6.37 3.83-.646-.845-3.68-2.742-6.368-3.83-1.942-.787-3.112-1.078-5.175-1.443-2.215-.39-3.5-.406-5.75-.41-2.188-.008-3.418.17-5.597.36-2.638.232-4.103.6-6.744.783-2.468.17-3.87.275-6.34.163-2.698-.124-4.237-.25-6.87-.848-2.632-.595-4.153-.98-6.567-2.19-2.48-1.24-3.847-2.133-5.822-4.08-1.956-1.928-2.943-3.217-4.18-5.672-1.265-2.516-1.71-4.122-2.09-6.915-.13-.96-.134-2.476-.134-2.488V169.33H381.13v101.774h.042z"/><g fill="#c7b37f" stroke="#c7b37f"><path d="M247.942 285.645a2.5 2.5 0 1 1 5 0 2.5 2.5 0 0 1-5 0zm-15.352-17.67c0-1.237.79-2.24 1.765-2.24.976 0 1.767 1.003 1.767 2.24 0 1.236-.79 2.24-1.767 2.24-.975 0-1.766-1.004-1.766-2.24z"/><path d="M241.312 223.59c0-1.015.764-1.84 1.706-1.84.94 0 1.705.825 1.705 1.84 0 1.016-.764 1.84-1.705 1.84-.942 0-1.706-.824-1.706-1.84zm30.63-65.632c-.107-1.018.504-1.918 1.367-2.008.86-.09 1.646.663 1.753 1.68.108 1.02-.504 1.92-1.366 2.01-.864.09-1.65-.663-1.758-1.682z" stroke="none"/></g><path d="M239.31 233.946c-.368.16-.57.292-.847.582-.264.277-.32.378-.523.83-.15.332-.188.716-.243 1.19m4.716 26.748c.347-.42.557-.648.89-1.08.278-.36.443-.557.687-.94.22-.345.318-.555.513-.916.273-.508.41-.804.67-1.318m-1.263 13.938c-.592.27-.942.39-1.517.696-.438.232-.675.38-1.095.642a17.4 17.4 0 0 0-1.244.836c-.49.36-.744.595-1.22.975m14.964-37.89c-.32-.33-.494-.524-.82-.847-.343-.337-.53-.536-.896-.846-.357-.3-.583-.437-.956-.716m3.064-10.89c-.477.212-.726.38-1.22.543-.567.187-.95.284-1.498.31m-14.032-17.358c.163.58.2.927.418 1.488.276.705.506 1.076.926 1.707.437.657.71 1.02 1.273 1.572.495.485.81.73 1.39 1.11.55.36.906.485 1.487.796m-.988-5.86c.485.26.735.456 1.244.667.46.19.733.27 1.22.383.656.15 1.04.188 1.715.204.73.017.946 0 1.866-.15m7.173-40.656c-.798-.466-1.286-.67-2.046-1.194-.773-.534-1.198-.86-1.87-1.518-.485-.473-.757-.75-1.16-1.294-.36-.486-.498-.804-.816-1.318m7.5-4.552c.25.67.32 1.078.64 1.717.435.868.77 1.323 1.424 2.04.905.994 1.672 1.275 2.742 2.09m1.452-5.917c.25.602.324.972.637 1.543.277.504.467.773.83 1.22.465.568.767.864 1.345 1.317.67.528 1.145.683 1.88 1.12" stroke="#c7b37f" stroke-width=".632" stroke-linecap="round"/><path d="M333.3 151.622c-.052-1.695-1.722-1.87-2.362-1.87-1.847 0-2.346 1.15-4.65 2.388-2.888 1.55-4.13 1.895-6.698 1.918-2.567-.023-3.843-.367-6.73-1.918-2.305-1.237-2.693-2.352-4.54-2.352a2.33 2.33 0 0 0-2.248 2.453s-.02.517.06.865c.03.13.19.09.24.204-.025-.77.132-1.17.51-1.686.488-.664 1.297-.84 1.626-.84 1.847 0 2.53 1.185 4.835 2.422 2.887 1.55 4.13 1.895 6.697 1.918 2.566-.023 3.844-.367 6.732-1.918 2.303-1.237 2.965-2.52 4.812-2.52.64 0 1.092.414 1.3 1.066.13.4.058.67.09.83.017.076.112.07.133.152.064-.297.214-.404.192-1.108z" fill="#703d29"/></g><path d="M264.397 294.03c.518-.56.91-.35 1.006-.607.07-.19-.082-.21-.293-.288-.282-.105-.58-.166-.863-.27-.292-.11-.557-.26-.85-.37-.12-.045-.4-.187-.478.025-.15.392 1.022.358.63 1.41-.068.178-.235.562-.817 1.2l-2.65 2.883c-.06.067-.158.21-.22.186-.06-.025-.05-.2-.052-.29l.04-4.09c.003-.777.07-1.35.195-1.688.175-.47.716-.076.83-.378.07-.19.016-.197-.306-.318-.16-.06-.47-.125-1.115-.365-.342-.127-.668-.3-1-.424-.15-.057-.43-.263-.53.006-.03.08.077.195.103.217.37.266.463.442.47.942l.074 7.446c.006.536.064.685.165.723.11.043.185-.006.405-.255l5.25-5.7zm3.09 1.15c.34-1.08.98-.43 1.104-.816.046-.137 0-.176-.306-.272-.584-.185-.967-.255-1.336-.372-.36-.113-.744-.285-1.144-.41-.092-.03-.338-.145-.4.05-.125.397 1.134.444.807 1.48l-1.723 5.466c-.34 1.082-.986.553-1.11.952-.02.057-.024.143.068.172.267.084.722.178 1.162.316.8.253 1.165.418 1.544.537.237.075.343.058.383-.067.115-.365-1.198-.203-.757-1.604l1.713-5.432zm3.7 1.095c.204-.687.523-.592.904-.48 1.044.31 1.37 1.327 1.038 2.45-.2.675-.452 1.298-2.018.834-.31-.095-.69-.208-.607-.494l.685-2.313zm-2.837 4.926c-.428 1.445-1.15.82-1.26 1.187-.067.23.16.258.273.292.515.15 1.044.26 1.6.423.433.13.698.258.873.31.237.07.34.025.37-.078.122-.412-1.037-.245-.674-1.47l.587-1.98c.116-.4.08-.5.624-.338.515.153.67.31.757.885l.33 2.065c.124.76.24 1.578 1.054 1.82.412.12 1.167.07 1.272-.284.027-.09-.014-.18-.107-.205-.103-.03-.226.007-.33-.023-.08-.024-.278-.082-.316-.292-.315-1.663-.7-3.582-.68-3.65.035-.116.365-.13.74-.305.382-.186.806-.52 1.023-1.254.156-.527.428-2.202-1.828-2.87-.69-.205-1.406-.367-2.096-.57-.65-.193-.718-.264-1.192-.404-.124-.037-.244-.01-.278.104-.122.41 1.127.32.747 1.603l-1.49 5.037zm8.424 2.468c-.33 1.382-1.378.54-1.487.994-.06.257.12.288.307.334.418.1.774.136 1.474.304.7.168 1.034.298 1.452.398.303.073.504.158.57-.12.08-.326-1.34-.31-.997-1.74l1.26-5.247c.134-.557.252-.59.68-.487l.89.214c1.212.242.568 1.45.986 1.55.27.066.263-.414.275-.558l.142-1.097c.016-.12.055-.28-.1-.32-.973-.232-1.685-.354-3.21-.72-1.526-.367-2.215-.58-3.187-.814-.155-.04-.194.123-.233.237l-.536 1.493c-.055.144-.18.385.04.44.47.11.52-1.486 1.703-1.2l.878.21c.43.1.52.184.386.742l-1.293 5.387zm12.698-3.237c.414-.64.836-.5.886-.77.037-.2-.117-.193-.34-.234-.295-.055-.6-.063-.896-.117-.306-.058-.593-.16-.9-.217-.126-.024-.426-.115-.468.108-.076.41 1.072.175.867 1.28-.03.187-.13.594-.59 1.32l-2.11 3.3c-.048.08-.12.235-.184.223-.063-.01-.085-.186-.102-.274l-.673-4.036c-.132-.765-.166-1.342-.1-1.694.09-.495.692-.2.75-.52.037-.2-.018-.197-.356-.26-.17-.03-.484-.04-1.16-.166-.36-.066-.71-.18-1.06-.244-.157-.03-.467-.184-.52.098-.015.082.11.178.14.196.41.198.534.354.63.845l1.364 7.32c.1.53.183.664.288.683.116.022.182-.04.355-.323l4.183-6.522zm.595 6.726c.006.292-.02.384.233.5.59.255 1.082.628 1.73.736 1.387.235 2.538-.65 2.796-2.193.25-1.497-.365-2.12-1.406-2.863-1.304-.933-1.862-1.184-1.73-1.973.132-.788.684-1.155 1.384-1.038 1.823.305 1.615 2.522 1.86 2.563.232.04.288-.098.31-.36l.147-1.6c.028-.274.09-.445-.07-.472-.14-.023-.435.12-.572.098-.318-.053-.686-.587-1.556-.732-1.24-.207-2.252.64-2.48 1.995-.206 1.235.343 1.8 1.18 2.4 1.566 1.12 2.21 1.386 2.04 2.387-.157.942-.89 1.4-1.715 1.263-1.176-.198-1.654-1.38-1.804-2.567-.015-.16-.02-.27-.19-.298-.264-.045-.215.315-.21.485l.06 1.668zm15.82-4.46c.346-.68.78-.586.8-.86.018-.2-.135-.178-.36-.196-.3-.026-.604 0-.904-.025-.31-.025-.607-.096-.918-.12-.128-.01-.436-.07-.454.155-.03.418 1.087.063 1 1.182-.016.19-.07.605-.454 1.378l-1.753 3.503c-.038.08-.094.244-.158.24-.064-.008-.105-.177-.13-.263l-1.09-3.943c-.212-.747-.307-1.317-.28-1.674.04-.5.67-.27.694-.593.015-.202-.04-.194-.38-.22-.174-.014-.488.01-1.174-.045-.364-.03-.724-.105-1.078-.133-.16-.013-.485-.134-.508.15-.008.085.127.167.16.182.427.153.567.296.713.775l2.123 7.134c.154.516.25.643.36.65.116.01.176-.057.318-.357l3.478-6.926zm1.697 5.784c-.01 1.218-1.04.994-1.045 1.472-.004.203.21.145.33.146.29 0 .58-.043.924-.04.376.007.74.055 1.268.06.14 0 .408.014.41-.153.004-.56-1.38.24-1.36-2.053l.037-4.06c0-.108.023-.19.087-.19.054 0 .118.06.193.156l5.116 6.255c.075.096.128.168.278.17.13 0 .13-.095.133-.358l.058-6.698c.01-1.254.922-.96.925-1.318 0-.038 0-.158-.204-.16-.097 0-.473.044-1.15.04-.742-.01-1.053-.06-1.225-.06-.14 0-.17.12-.17.2-.004.395 1.31.192 1.3 1.28l-.035 3.975c-.004.298-.026.44-.09.44-.065 0-.192-.144-.33-.313l-4.275-5.303c-.19-.23-.063-.31-.406-.314-.57-.006-.85.04-1.13.038-.203 0-.396-.05-.6-.053-.13 0-.184.094-.185.2-.008.575 1.203-.19 1.183 2.1l-.04 4.54zm10.406-5.376c.01-1.134.813-.697.816-1.103 0-.14-.052-.165-.375-.17-.61-.004-.996.04-1.383.038-.376 0-.795-.055-1.214-.058-.096 0-.364-.04-.366.163-.003.418 1.154.094 1.144 1.18l.01 5.732c-.01 1.134-.78.817-.783 1.235 0 .058.02.142.117.143.28.007.743-.04 1.205-.037.837.007 1.234.058 1.632.062.248 0 .345-.045.346-.176.003-.382-1.205.157-1.192-1.312l.05-5.696zm4.506 5.55c.013 1.42-1.207.857-1.203 1.323.003.263.185.25.38.247.428-.006.782-.054 1.503-.06.72-.007 1.075.038 1.504.034.312 0 .527.03.525-.255-.003-.335-1.375.023-1.388-1.445l-.047-5.397c-.005-.57.102-.63.542-.635l.913-.007c1.236-.058.904 1.27 1.334 1.266.276 0 .154-.467.13-.61l-.127-1.097c-.012-.12-.013-.287-.174-.285-1 .01-1.72.063-3.288.077-1.57.012-2.29-.03-3.29-.02-.16 0-.16.17-.17.29l-.157 1.576c-.02.155-.082.418.144.416.482-.007.146-1.566 1.36-1.577l.903-.01c.44-.005.55.056.554.63l.048 5.54zm6.26-2.26c-.194.015-.343.04-.35-.08-.015-.167.04-.303.08-.45l.66-2.172c.043-.135.085-.15.107-.152.053-.007.02 0 .093.088l1.048 2.086c.065.138.14.264.153.43.008.12-.142.12-.335.135l-1.457.112zm1.84.502c.277-.022.34.093.767.993.143.31.235.52.256.78.054.726-.717.655-.69 1 .013.167.15.132.343.117.31-.026.704-.105 1.175-.142.706-.055 1-.03 1.385-.06.29-.024.388-.008.372-.21-.03-.393-.573.117-.983-.7l-3.466-7.06c-.168-.345-.19-.367-.288-.36-.14.012-.175.24-.235.438l-2.337 7.43c-.215.688-.767.66-.745.933.014.154.18.117.33.105.313-.023.62-.096.94-.12.344-.028.67-.007 1.01-.03.227-.02.566.037.546-.213-.025-.32-1.167-.038-1.235-.896-.02-.285.096-.713.15-.957.187-.805.408-.87.59-.885l2.11-.166zm8.304-4.95c-.11-.817-.068-.835 1.222-1.004 2.056-.27 1.407 1.223 1.908 1.157.245-.035.14-.418.11-.57l-.197-1.167c-.015-.107-.104-.215-.243-.197-.938.123-1.667.267-2.423.367-1.63.214-2.404.268-2.84.326-.15.02-.222.125-.208.232.06.473 1.213-.064 1.354 1l.73 5.542c.19 1.444-.705.912-.633 1.456.01.073.08.124.22.106.586-.077 1.028-.184 1.358-.227.47-.064.87-.068 1.273-.12.267-.037.497-.02.466-.256-.043-.32-1.208.135-1.38-1.18l-.232-1.75c-.09-.688-.15-.824.34-.89l.787-.102c1.11-.146.976 1.148 1.317 1.103.256-.034.136-.45.105-.604l-.352-2.095c-.053-.32-.167-.28-.24-.27-.214.028-.103 1.122-1.02 1.242l-.67.09c-.46.06-.47-.024-.537-.533l-.218-1.657zm3.93 2.714c.44 2.383 2.16 3.703 4.285 3.31 3.37-.625 3.482-3.62 3.177-5.265-.46-2.49-2.316-3.712-4.372-3.306-2.52.49-3.568 2.686-3.09 5.26zm1.174-.91c-.315-1.703-.087-3.422 1.692-3.788 1.36-.276 2.9.847 3.38 3.442.363 1.95.063 3.632-1.748 4.004-1.885.386-3.006-1.945-3.324-3.66zm8.336-4.16c-.168-.696.156-.774.543-.867 1.055-.253 1.847.465 2.12 1.603.164.685.258 1.35-1.33 1.732-.314.075-.7.168-.77-.122l-.564-2.345zm.005 5.685c.35 1.463-.587 1.283-.498 1.654.056.23.267.142.382.114.52-.125 1.03-.297 1.595-.432.44-.106.732-.127.91-.17.24-.057.307-.147.282-.252-.1-.417-1.022.308-1.32-.935l-.482-2.008c-.098-.407-.18-.473.374-.606.52-.123.734-.064 1.097.39l1.32 1.622c.484.597.994 1.248 1.82 1.05.418-.1 1.046-.522.96-.882-.022-.092-.102-.147-.196-.124-.104.025-.19.12-.296.145-.083.02-.282.068-.42-.095-1.104-1.282-2.397-2.753-2.413-2.822-.027-.116.25-.294.49-.634.236-.353.436-.855.257-1.598-.128-.533-.73-2.12-3.018-1.57-.7.17-1.4.385-2.1.553-.66.158-.754.132-1.235.247-.125.03-.216.114-.188.23.1.42 1.136-.284 1.448 1.016l1.227 5.11zm8.62-1.928c.357 1.376-.962 1.125-.845 1.576.065.254.24.197.427.15.416-.11.747-.244 1.444-.424.7-.184 1.056-.226 1.47-.334.3-.078.52-.097.45-.375-.085-.322-1.33.358-1.698-1.064l-1.35-5.226c-.144-.554-.055-.64.37-.75l.886-.227c1.185-.356 1.184 1.013 1.6.906.27-.07.04-.494-.017-.627l-.39-1.034c-.04-.113-.082-.275-.24-.234-.966.25-1.65.477-3.17.87-1.52.392-2.23.526-3.195.776-.156.04-.115.203-.095.32l.227 1.57c.018.156.02.426.24.37.468-.12-.236-1.555.94-1.86l.874-.225c.43-.11.547-.08.69.475l1.388 5.364zm5.5-7.334c-.304-1.093.587-.894.48-1.286-.04-.138-.098-.146-.408-.06-.59.163-.95.313-1.323.416-.363.1-.78.166-1.183.278-.09.03-.36.066-.305.26.112.405 1.193-.242 1.483.805l1.532 5.523c.302 1.093-.527 1-.415 1.404.016.06.06.133.152.107.27-.075.702-.245 1.147-.368.808-.225 1.204-.286 1.587-.392.24-.066.32-.138.286-.264-.102-.368-1.115.482-1.508-.933l-1.522-5.486zm2.29 2.67c.77 2.297 2.657 3.366 4.705 2.68 3.25-1.087 2.945-4.07 2.414-5.655-.803-2.4-2.81-3.353-4.79-2.666-2.428.838-3.158 3.16-2.33 5.64zm1.038-1.066c-.55-1.642-.563-3.375 1.148-3.986 1.31-.46 2.99.438 3.83 2.94.63 1.88.566 3.59-1.175 4.21-1.813.644-3.247-1.51-3.8-3.16zm7.627-5.42c-.262-.665.048-.787.418-.933 1.01-.398 1.894.204 2.323 1.292.26.656.446 1.302-1.074 1.9-.3.12-.67.264-.78-.014l-.883-2.244zm.797 5.63c.552 1.4-.403 1.35-.263 1.707.088.223.285.107.395.063.5-.197.98-.438 1.52-.65.42-.166.71-.228.876-.295.23-.09.284-.19.245-.29-.157-.4-.967.447-1.435-.742l-.758-1.922c-.154-.39-.244-.443.286-.652.5-.197.72-.168 1.14.23l1.533 1.425c.563.525 1.158 1.1 1.948.788.4-.157.964-.662.828-1.006-.035-.09-.12-.13-.21-.096-.1.04-.175.146-.275.185-.08.03-.27.106-.43-.036-1.27-1.116-2.755-2.392-2.78-2.46-.045-.11.206-.324.395-.694.185-.38.313-.907.033-1.618-.2-.51-1.018-1.998-3.208-1.135-.67.264-1.332.576-2.002.84-.63.248-.728.235-1.188.416-.12.05-.198.143-.154.254.157.4 1.086-.44 1.576.804l1.924 4.89z" fill="#703d29"/><g fill="#fedf00" transform="matrix(.64 0 0 .64 0 16)"><path d="M412.66 249.25h82.18v82.023h-82.18z" fill="#d52b1e"/><path id="a" d="M451.2 313.83s-.048 2.93-.855 5.287c-.933 2.72-.94 2.72-1.796 4.043-1.155 1.78-2.56 3.082-3.81 3.887-1.96 1.258-3.95 1.888-5.95 1.71-5.49-.486-8.04-6.44-9.284-11.273-1.32-5.13-5.073-7.923-7.463-6.064-1.4 1.09-1.48 2.914-.31 4.665 1.243 1.866 4.098 2.8 4.098 2.8l-2.932 3.73s-6.303-.82-7.536-7.392c-.466-2.488.742-7.134 4.89-8.522 5.298-1.77 8.687 2.007 10.32 5.194 2.245 4.384 3.21 12.434 9.43 11.19 3.383-.677 4.975-5.598 4.975-7.852l2.466-2.643 3.654 1.166.1.078z" fill="#fff"/><use height="100%" width="100%" xlink:href="#a" transform="matrix(-1 0 0 1 907.52 0)"/><path d="M461.12 278.95l10.76-11.643s1.624-1.31 1.61-3.4l-2.22.344-.496-1.14-.11-1.146 2.98-.63c.05-.484.008-.85.093-1.384.08-.495.19-.76.31-1.245l-3.264.218c.166-.57.128-.875.31-1.406.155-.447.198-.618.504-1.103.606-.09 1.158-.228 1.907-.304.728-.074 1.143-.04 1.873-.086 1.78-3.32 9.19-6.373 14.454-.904 3.81 3.958 2.99 11.22-1.95 13.14-2.796 1.087-5.05.444-6.86-1.11l1.97-3.867c2.72 1.625 4.977-.396 4.82-2.495-.195-2.654-1.92-4.297-4.352-4.51-2.254-.197-3.872 1.093-4.898 3.11-.627 1.23-.337 2.134-.545 3.5-.226 1.482-.1 2.31-.537 3.81-.32 1.087-1.155 2.433-2.37 3.59l-11.03 11.936-42.94 46.445-3.228-2.986 43.21-46.737z"/><path d="M429.51 283.04s2.7 13.372 11.874 33.43c4.665-1.71 7.42-2.798 12.362-2.798 4.943 0 7.697.933 12.362 2.8 9.174-20.06 11.874-33.432 11.874-33.432l-24.236-31.177-24.236 31.177z" fill="#fff"/><path d="M456.12 262.41l16.82 21.637s-2.243 10.52-9.078 26.354c-2.646-.6-4.916-1.125-7.733-1.316l-.01-46.67zm-4.74 0l-16.82 21.637s2.243 10.52 9.078 26.354c2.646-.6 4.916-1.125 7.733-1.316l.01-46.67z"/></g><g fill="#d52b1e"><path d="M322.304 175.52H374.9v52.495h-52.596z" fill="#fedf00"/><path d="M329.67 175.52h7.842v52.495h-7.842zm15.028 0h7.842v52.495h-7.842zm15.027 0h7.842v52.495h-7.842z"/></g><g fill="#d52b1e" stroke="#d52b1e" stroke-width=".513"><path d="M264.3 273.542c.15.946.487 2.568 1.385 4.23.945 1.493.597 1.452 2.737 3.84 1.053 1.176 2.696 2.183 3.985 2.877 1.294.694 2.25 1.036 4.38 1.594 4.17 1.095 7.097 1.163 10.606 1.023 2.738-.11 4.828-.447 6.56-.68 2.468-.332 4.307-.53 7.115-.647 1.365-.056 2.655-.07 3.93 0 1.54.086 3.06.324 4.678.648 3.483.696 7.016 2.04 7.016 2.04l.01-54.82-52.605-.014V271.1s.108 1.83.204 2.44z" fill="#fedf00" stroke="none"/><path d="M270.406 283.155l2.466 1.435 3.378 1.215-.004-52.177h-5.84zm29.224 2.375l.006-51.904h-5.852v52.734s4.005-.514 5.844-.633zm11.672-51.898h-5.832v52.084c1.9.205 3.855.545 5.844 1.077l-.012-53.16zm-23.352 0v53.332c-.06.006-3.906.202-5.872-.002v-53.32z"/></g><g transform="matrix(.64 0 0 .64 0 16)"><path d="M585.48 402.39c-.233 1.477-.76 4.012-2.163 6.608-1.477 2.333-.932 2.27-4.275 6-1.646 1.838-4.214 3.412-6.228 4.496-2.02 1.09-3.516 1.623-6.84 2.495-6.52 1.71-11.092 1.815-16.575 1.596-4.28-.17-7.547-.698-10.25-1.062-3.86-.518-6.73-.827-11.12-1.01-2.133-.09-4.15-.11-6.14 0-2.408.132-4.784.505-7.31 1.01-5.44 1.09-11.034 3.188-11.034 3.188l.057-85.655 82.193-.024v58.543s-.168 2.86-.318 3.81z" fill="#fedf00"/><g id="b"><path d="M524.62 346.91s-.366.175-.594.28c-.298.33-.447.52-.78.814-.444.39-.77.503-1.25.843-.23.164-.42.216-.595.438-.25.32-.076.63-.25 1-.183.405-.366.597-.653.938-.366.434-.65.61-1.063 1-.418.395-.587.726-1.093 1-.134.072-.2.142-.344.187-.216.067-.35-.01-.563.062-.388.134-.51.563-.78.72.11.217.106.37.218.593.16.323.706 1.215.813 1.437.21.305.27.7.532.78.537.17.858.155 1.312.126.792.182 1.28.158 2.03.47.614.253.864.574 1.47.843.474.21.772.34 1.28.44.388.074.61.13 1 .094.25-.024.378-.12.626-.156.05-.01.08 0 .125 0l-.03.375c-.006 0 .004.03 0 .032v.062h.062l2.06.906a1.72 1.72 0 0 0-.187.375c-.098.32-.114.69-.063.844.63 1.888 1.16 3.068 1.47 3.188.615.236.806.865 1.156 1.5-.123.132-.227.2-.344.312-.614.59-1.152 1.008-1.656 1.812-.745 1.188-1.248 1.203-.312 2.78.55.926.814 1.1 1.53 2.407.363.658.563 1.17.782 1.968.207.752.278 1.19.313 1.97l.965.374.657-.656.625-1.187.03-.907c-.24-.202-.308-.473-.25-.78.07-.37.514-.29.72-.626.282-.46-.333-.734-.658-1.093-.606-.67-1.43-.832-1.626-1.843-.052-.272.078-.426.375-.72.855-.84 1.13-.97 1.97-1.81.24.14.61.193.967.125.28-.052.53.126 1.406.376.61.174.873.087 1.22.03l.374-.092c.05.21.11.415.125.687.053 1.062-.155 2.996.156 3.5.13.214.186.333.28.564.1.24.215.395.22.655.01.696.047 1.14 0 1.875-.044.69-.103 1.042-.22 1.75-.073.45-.164.714-.436 1.062-.283.364-.595.418-.97.688l-.092 1 1.125.47 1.28.31.688-.28c0-.254.04-.4.156-.625.13-.247.232-.44.47-.53.362-.144.76.128.905-.095.16-.242.06-.338.032-.75-.047-.662-.185-.99-.283-1.657-.164-1.11-.21-1.686-.156-2.75.03-.616.04-.956.156-1.562.172-.882.486-1.31.688-2.187.225-.977.265-1.606.375-2.468 3.17.452 5.806.397 9.343-.375.17-.037.75-.25.75-.25.8.69 1.706 1.264 2.718 1.625-.005.1-.014.845 0 .968.038.288-.04.482.126.72.106.15.197.24.375.28.263.06.455.023.657-.156.225-.2.183-.454.25-.75.03-.14.006-.564 0-.687.365.055.49.062.874.062.358 0 .53.014.876-.03.004.08.02.368.03.467.027.244-.076.434.03.656.112.23.25.36.5.408a.66.66 0 0 0 .532-.094c.295-.185.263-.498.312-.844.015-.11.01-.693 0-.782.212-.067.827-.292 1.03-.375a5.12 5.12 0 0 1-.093.81c-.07.377-.12.58-.25.94-.207.567-.44.855-.75 1.374-.377.634-.573.985-1.03 1.562-.213.266-.36.386-.564.657-.257.337-.343.566-.595.906-.323.437-.51.723-.937 1.06-.692.55-1.15.11-2.092.845l-.22 1.03 1.438.53 1.282.25.437-.25c-.01-.3.033-.513.22-.75.213-.27.44-.35.78-.406.362-.06.748.033 1.032-.22.35-.31.35-.913.624-1.47.86-1.722 1.62-2.56 3-3.904.614-.596 1.14-.757 1.658-1.437.247-.323.52-.47.53-.876.01-.284-.142-.416-.217-.688-.103-.377-.186-1-.186-1 1.52.744.97.646 1.25 1.406.224.615-.034 1.04.06 1.687.112.755.467 1.113.532 1.874.078.905-.143 1.42-.312 2.313-.15.786-.13 1.278-.47 2-.32.69-.57 1.078-1.155 1.563-.21.175-.37.25-.594.407l-.124 1.03 1.125.376 1.626.437.375-.343c.164-.655-.055-1.617.406-1.688.406-.063.693 0 .782-.313.035-.132.057-.326.092-.625.22-1.886.422-3.646.625-4.5.23-.968.215-1.178.407-1.907.175-.664-.086-.282.406-1.687.734-2.096-.208-2.374-1.063-3.655-.462-.693-.622-.944-.687-1.5-.097-.817.164-1.495.125-2.75-.04-1.32-.022-2.16 0-2.875.116-.053.223-.12.345-.188 1.17-.642 1.635-.836 2.374-2.47a3.43 3.43 0 0 0 .312-1.467c-.005-.332-.065-.652-.094-1.032-.03-.4-.19-.636-.313-.936-.13-.318-.325-.56-.563-.844-.772-.924-1.78-1.132-2.718-1.47-1.485-.53-2.506-.433-4.126-.56-1.673-.133-2.607-.16-4.282-.063-2.006.114-3.128.52-5.125.75-1.914.222-2.976.37-4.905.406-2.26.042-4.42-.46-5.78-.344-2.45.21-2.493.76-6.188 1.062a66.916 66.916 0 0 1-3.844.187l-2.158-.688c.857-.306 1.067-.488 1.47-1.03.27-.367.232-.68.562-1.064.266-.31.443-.62.78-.97a2.2 2.2 0 0 0-.937-.435c-.363-.076-.573-.042-.937 0-.494.056-.772.124-1.22.344-.358.176-.623.356-.843.592 0 0-1.285-.83-2.187-1.22-1.12-.484-1.6-.71-3-.906zm1.97 11.906h.06c-.01.01-.018.022-.03.03l-.03-.03z" fill="#d52b1e"/><g stroke="#fedf00" stroke-width=".987" stroke-linecap="round" fill="none"><path d="M568.77 359.52l-.763.244c-.867.402-1.578.418-2.6.496-2.644.202-4.272-1.057-6.998-.847-1.407.108-2.028 1.19-3.46 1.548a9.247 9.247 0 0 1-1.704.285l.512-1.034s-1.285.26-2.116.264a7.55 7.55 0 0 1-1.523-.13l1.02-.95s-.816-.133-1.296-.336a3.918 3.918 0 0 1-1.06-.63 20.484 20.484 0 0 0 1.69-.353c1.556-.385 2.04-1.147 3.89-1.325 1.15-.113 3.032-.048 7.643.715 3.035.502 4.38.267 5.535-.258.76-.345 1.01-1.01 1.103-1.788.092-.778-.404-1.406-.874-1.81-.122-.108-.443-.337-1.112-.365"/><path d="M524.8 350.61c-.53-.066-.884.01-1.34.29-.48.298-.54.7-.888 1.145.445.1.7.36 1.142.253.347-.084.527-.238.76-.507.317-.36.433-.674.43-1.154l-.104-.024z" fill="#fcd900"/><path d="M536.04 363.79s.264.48.407.8c.248.554.376.878.524 1.467.2.8.117 1.284.244 2.098.022.143.05.263.076.376l-.05 1.13m6.8-6.95s-.22.813-.354 1.334c-.352 1.353-.676 2.087-.944 3.46-.045.23-.078.442-.103.644m-10.86-3.977c.79.177.543 3.36 1.79 4.09m26.55 1.52l.384-.25a8.154 8.154 0 0 0 2.686-1.79m-10.81.28h.007c3.533-.883 5.885-2.648 7.58-2.87m-3.997-1.54c.3-.01.585-.033.83-.068 1.467-.21 1.703.687 2.725 1.258 1.857 1.04 2.098 2.307 4.3 3.356.116.055.223.107.32.155l.848.43"/><path d="M517.7 354.53c.268.067.432.08.707.054.332-.03.484-.238.817-.25.27-.01.462-.03.684.126.14.1.2.19.28.342.087.166.163.282.124.466-.06.284-.324.418-.614.42-.237 0-.434-.062-.544-.272a.467.467 0 0 1-.04-.39c-.283.108-.49.112-.776.017a1.04 1.04 0 0 1-.638-.513z" fill="#fcd900"/></g><path d="M525.13 364.17c-.797-.237-1.966-.826-1.966-.826.323-.25.587-.265.863-.555.39-.41.373-.79.593-1.32.215-.52.184-.956.67-1.345.29-.23.763-.27 1.12-.165.352.114.758.4.847.767.137.56-.16.886-.246 1.454-.083.57-.29.896-.192 1.46.066.377.227.52.354.91 0 0-1.263-.15-2.04-.38zm-.99.95a.628.628 0 1 1 .64.618.627.627 0 0 1-.64-.618zm-1.76-16.51s-.09-.06-.144-.104c-.383-.31-.42-.653-.6-1.11-.173-.434-.258-.69-.316-1.154-.05-.406 0-.64 0-1.048 0-.37.04-.578 0-.944-.04-.375-.03-.612-.21-.944-.097-.18-.394-.337-.314-.42.094-.096.257-.02.42 0 .4.05.63.166.943.42.374.306.523.57.67 1.05.165.547.25.897.406 1.467.083.295.13.47.284.734.16.275.32.383.525.63l-.01.022c-.3.324-.445.536-.778.83-.305.27-.56.404-.846.574l-.03-.01zm3.6 10.64l2.23 1.03c1.15-.634 2.474-1.923 3.497-3.918.88-1.718 1.02-2.65 1.364-4.313l-1.786-.584-.357.073c-.552 1.723-.693 2.704-1.618 4.192-.803 1.29-1.72 2.305-2.65 3.034l-.678.483zm4.94 18.12c.36-.493.513-.81.922-1.264.456-.505.8-.702 1.312-1.15.155.015.335-.012.48.07-.027.546-.055.95-.18 1.542-.1.48-.186.746-.346 1.21-.135.388-.16.64-.39.98-.154.225-.29.315-.476.517-.51-.742-1.33-1.297-1.322-1.906zm33.01 1.85c.573.21.92.27 1.47.538.61.3.894.576 1.466.944.027.154.104.32.063.483-.534.122-.93.207-1.53.25a8.39 8.39 0 0 1-1.26 0c-.41-.022-.66.025-1.05-.104-.26-.083-.384-.19-.63-.31.573-.697.88-1.638 1.47-1.798zm-9.76-2.04c.573.21.92.27 1.468.538.61.3.896.576 1.468.944.027.154.104.32.063.482-.534.123-.93.208-1.534.252-.49.036-.768.027-1.258 0-.41-.023-.66.024-1.05-.105-.26-.083-.383-.19-.63-.31.574-.697.88-1.638 1.47-1.798zm-17.34 2.13c.573.21.92.27 1.47.538.61.3.894.576 1.467.944.026.154.103.32.063.483-.532.122-.928.207-1.53.25-.49.037-.77.028-1.26 0-.41-.02-.658.025-1.048-.104-.26-.083-.384-.19-.63-.31.573-.697.88-1.638 1.468-1.798zm-8.98-29.8c-.613-.278-1.05-1.045-.66-1.594.155-.22.412-.174.565-.395.19-.27.142-.505.136-.836-.004-.377-.14-.573-.206-.944-.072-.406-.14-.637-.136-1.05.005-.627-.038-1.075.345-1.572.246-.317.662-.592.826-.612.146.136-.058.502-.034.822.036.462.13.717.288 1.153.203.565.48.81.704 1.365.208.516.4.808.42 1.363.015.457-.025.736-.21 1.154-.165.37-.3.58-.61.84-.27.225-.458.325-.796.42a1.15 1.15 0 0 1-.627-.11z" fill="#0065bd"/></g><use height="100%" width="100%" xlink:href="#b" y="36.591"/></g><path d="M264.102 175.52h52.595v52.495h-52.595zm58.202 0H374.9v52.495h-52.596zM264.3 273.542c.15.946.487 2.568 1.385 4.23.945 1.493.597 1.452 2.737 3.84 1.053 1.176 2.696 2.183 3.985 2.877 1.294.694 2.25 1.036 4.38 1.594 4.17 1.095 7.097 1.163 10.606 1.023 2.738-.11 4.828-.447 6.56-.68 2.468-.332 4.307-.53 7.115-.647 1.365-.056 2.655-.07 3.93 0 1.54.086 3.06.324 4.678.648 3.483.696 7.016 2.04 7.016 2.04l.01-54.82-52.605-.014V271.1s.108 1.83.204 2.44zm110.407-.012c-.15.945-.486 2.567-1.384 4.23-.945 1.492-.597 1.45-2.736 3.84-1.054 1.175-2.697 2.182-3.986 2.876-1.29.697-2.25 1.04-4.375 1.597-4.172 1.095-7.1 1.163-10.608 1.023-2.738-.11-4.828-.446-6.56-.68-2.468-.33-4.307-.53-7.115-.646-1.364-.057-2.654-.07-3.93 0-1.54.085-3.06.323-4.677.647-3.483.697-7.06 2.04-7.06 2.04l.035-54.82 52.604-.014v37.468s-.107 1.83-.203 2.44z" stroke-width=".51" stroke="#703d29" fill="none"/></svg>