<svg xmlns="http://www.w3.org/2000/svg" height="480" width="640" viewBox="0 0 640 480"><defs><clipPath id="a"><path fill-opacity=".67" d="M-85.333 0h682.67v512h-682.67z"/></clipPath></defs><g clip-path="url(#a)" fill-rule="evenodd"><path fill="#009" d="M-.042 0h640.344v480.256H-.042V0z"/><path fill="#FC0" d="M132.987 0l479.297 480.506V.25L132.987 0z"/><path fill="#FFF" d="M492.61 451.677l-26.137-19.097-26.863 19.005 10.156-31.182-26.433-19.255 32.75.066 10.182-31.134 10.06 31.173 32.757.093-26.21 19.376 9.738 30.955zm23.527 39.557l-32.758-.093-10.06-31.17-10.184 31.133-32.75-.066 26.433 19.255-10.157 31.183 26.863-19.005 26.138 19.097-9.737-30.954 26.21-19.376zm-140.857-99.92l26.21-19.377-32.76-.093-10.06-31.173-10.18 31.136-32.75-.066 26.433 19.254-10.157 31.182 26.864-19.005 26.137 19.1-9.737-30.956zm-70.01-67.097l26.21-19.377-32.757-.093-10.06-31.172-10.182 31.134-32.75-.07 26.435 19.257-10.156 31.182 26.862-19.006 26.138 19.097-9.737-30.954zm-63.688-63.694l26.21-19.377-32.758-.093-10.06-31.173-10.182 31.134-32.75-.066 26.433 19.255-10.156 31.182 26.86-19.007 26.138 19.098-9.738-30.953zM173.24 192.35l26.208-19.378-32.757-.093-10.06-31.173-10.18 31.134-32.75-.066 26.433 19.255-10.157 31.18 26.864-19.005 26.137 19.1-9.737-30.955zm-63.694-63.934l26.21-19.377-32.758-.094-10.06-31.172-6.238 35.078-32.75-.067 26.433 19.256-10.156 31.184 26.862-19.006 26.136 19.098-9.737-30.954zM45.57 64.404l26.21-19.377-32.758-.094-10.06-31.173L18.78 44.894l-32.75-.066L12.46 64.084l-6.21 35.144 26.863-19.006L59.252 99.32l-9.737-30.954zm-64-64L7.78-18.972l-32.758-.093-10.06-31.174-10.183 31.135-32.75-.066L-51.54.084l-10.155 31.182L-34.83 12.26l26.137 19.1L-18.43.406z"/></g></svg>