<svg xmlns="http://www.w3.org/2000/svg" height="480" width="640" viewBox="0 0 640 480"><g fill-rule="evenodd"><path fill="#ffe800" d="M0 0h640v480H0z"/><path fill="#00148e" d="M0 240h640v240H0z"/><path fill="#da0010" d="M0 360h640v120H0z"/></g><g fill-rule="evenodd"><path d="M269.55 290.834l-72.424 76.485-1.277-1.646 72.42-76.485 1.277 1.643zm50.452 12.5l-94.777 99.908-1.662-1.572 94.777-99.91 1.662 1.574z"/><path d="M478.35 60.236v88.583l17.717 88.58 17.717-88.583V60.235H478.35z" transform="matrix(-.07 -.07 -.1 .1 265.03 429.55)" stroke="#000" stroke-width="4.104" fill="#808080"/><path d="M478.35 60.236v88.583l17.717 88.58 17.717-88.583V60.235H478.35z" transform="matrix(-.07 -.07 -.1 .1 240.59 390.52)" stroke="#000" stroke-width="4.104" fill="#808080"/></g><path d="M301.18 272.84s-17.716 336.61 53.15 336.61 106.3-35.433 106.3-35.433l-.86-185.03-158.59-116.15z" fill-rule="evenodd" transform="matrix(.45 0 0 .64 72.37 -59.76)" stroke="#000" stroke-width="1pt" fill="#ffdf00"/><path d="M344.46 304.2c0 17.717-7.846 269.82 27.587 269.82s88.583-17.717 88.583-17.717l-.86-167.31-115.31-84.79z" fill-rule="evenodd" transform="matrix(.45 0 0 .64 72.37 -59.76)" stroke="#000" stroke-width="1pt" fill="#0000c4"/><path d="M367.52 321.16c0 17.717 4.525 217.42 39.958 217.42h53.15l-.86-149.59-92.248-67.833z" fill-rule="evenodd" transform="matrix(.45 0 0 .64 72.37 -59.76)" stroke="#000" stroke-width="1pt" fill="#e10000"/><path d="M206.202 116.02l72.422 76.485 1.277-1.642-72.42-76.485-1.276 1.642z" fill-rule="evenodd"/><path d="M301.18 272.84s-35.433 336.61 70.866 336.61c88.583 0 88.583-53.15 106.3-53.15l-17.72-124.02-159.45-159.44z" fill-rule="evenodd" stroke="#000" stroke-width="1pt" fill="#ffdf00" transform="matrix(.58 0 0 .62 9.63 -10.18)"/><g stroke="#000"><path d="M235.214 193.616c.453-.034 16.028-33.755 54.94-55.105" fill="none"/><path d="M228.764 161.813c5.44 2.538 8.875 5.445 12.007 8.835-6.224-1.3-9.42-1.81-14.86-4.35s-9.58-6.418-12.87-9.56c4.053 1.254 10.285 2.536 15.725 5.075z" fill-rule="evenodd" fill="#005b00"/><path d="M242.442 182.48c.406.692.05 1.633-.793 2.102s-1.86.29-2.268-.402-.052-1.633.793-2.102 1.86-.29 2.265.403z" fill-rule="evenodd" fill="#f00"/><path d="M259.49 140.266c-2.358 5.984-4.946 9.92-7.93 13.593 1.343-6.658 1.902-10.057 4.26-16.04s5.793-10.77 8.574-14.58c-1.22 4.38-2.548 11.04-4.905 17.025zm-7.937-.356c-.544 5.985-1.728 10.604-3.285 15.293-.413-5.812-.725-8.696-.18-14.68s2.213-11.793 3.578-16.447c.005 4.044.43 9.85-.113 15.835zm5.165 6.817c-3.083 3.627-5.666 5.202-8.383 6.23 2.744-5.032 4.077-7.7 7.16-11.327s6.38-5.315 9.027-6.627c-1.984 3.05-4.722 8.098-7.804 11.724zm-26.238 5.2c3.625 4.35 5.428 8.526 6.795 13.14-4.75-3.224-7.247-4.71-10.874-9.062s-5.655-9.793-7.25-14.18c2.94 2.543 7.703 5.75 11.33 10.103zm-7.29 33.416c4.533 3.627 6.924 7.348 8.835 11.554-5.77-2.387-8.787-3.442-13.32-7.068s-7.277-8.528-9.437-12.485c3.606 2.002 9.388 4.37 13.922 7.997zm21.212-2.05c-3.627 5.802-7.53 9.692-12.008 13.366 2.162-6.365 3.08-9.605 6.707-15.407s8.8-10.554 12.98-14.34c-1.91 4.21-4.05 10.576-7.677 16.378zm3.808-.14c-5.802 3.99-10.834 6.063-16.198 7.702 4.956-5.113 7.337-7.79 13.14-11.78s12.26-6.36 17.455-8.224c-3.653 3.19-8.594 8.314-14.397 12.303zm39.025-41.628c-2.538 2.9-4.805 4.618-7.25 6.116 2.088-3.46 3.08-5.252 5.62-8.153s5.462-4.935 7.815-6.547c-1.566 2.215-3.646 5.683-6.185 8.585zm-5.382-8.57c-1.45 3.082-2.994 5.39-4.757 7.702.887-3.08 1.268-4.62 2.718-7.703s3.492-5.97 5.143-8.28c-.774 2.118-1.653 5.198-3.104 8.28zm8.373 5.54c-2.54 1.45-4.44 1.9-6.344 2.04 2.538-2.24 3.805-3.443 6.344-4.894s4.916-1.85 6.82-2.15c-1.746 1.31-4.282 3.556-6.82 5.007zm-34.958 16.193c-4.534 2.72-8.25 4.3-12.12 5.664 4.137-3.282 6.16-4.983 10.692-7.703s9.257-4.586 13.05-6.06c-2.96 2.09-7.09 5.377-11.622 8.097zm13.248 4.058c-5.984 3.627-11.06 5.338-16.425 6.57 5.25-4.863 7.793-7.43 13.777-11.055s12.475-5.52 17.692-7c-3.82 2.984-9.06 7.86-15.043 11.487z" fill-rule="evenodd" fill="#005b00"/><path d="M227.85 217.37c.397-.227-3.25-31.99 21.014-65.02" fill="none"/><path d="M265.172 150.42c.406.692.05 1.633-.793 2.102s-1.86.29-2.268-.402-.052-1.633.793-2.102 1.86-.29 2.265.403zm10.78-6.36c.406.692.05 1.633-.793 2.102s-1.86.29-2.268-.403-.052-1.634.793-2.103 1.86-.29 2.265.403zm-30.148 21.212c.285.528-.245 1.337-1.183 1.806s-1.93.42-2.213-.107.245-1.336 1.184-1.805 1.93-.42 2.215.108zm3.12-1.36c.285.528-.245 1.337-1.183 1.806s-1.93.42-2.213-.107.245-1.336 1.184-1.805 1.93-.42 2.215.108zm-1.79 2.91c.285.528-.245 1.337-1.183 1.806s-1.93.42-2.213-.107.245-1.336 1.184-1.805 1.93-.42 2.215.108zm5.512.43c.407.813-.024 1.853-.963 2.322s-2.03.19-2.435-.623.024-1.85.963-2.32 2.03-.19 2.437.623zm2.29-2.38c.407.813-.024 1.853-.963 2.322s-2.03.19-2.435-.623.024-1.85.963-2.32 2.03-.19 2.437.623zm.58 1.15c.407.813-.024 1.853-.963 2.322s-2.03.19-2.435-.623.024-1.85.963-2.32 2.03-.19 2.437.623z" fill-rule="evenodd" fill="#f00"/></g><path d="M336.61 308.27c0 17.717-35.433 212.6 53.15 265.75 35.433 17.716 88.582-17.717 88.582 0l-17.71-141.74-124.02-124.01z" fill-rule="evenodd" transform="matrix(.58 0 0 .62 9.63 -10.18)" stroke="#000" stroke-width="1pt" fill="#0000c4"/><path d="M372.05 343.7c0 17.717-17.716 159.45 35.433 194.88 35.433 35.433 124.02 25.822 124.02 25.822l-70.87-132.12-88.58-88.58z" fill-rule="evenodd" stroke="#000" stroke-width="1pt" fill="#e10000" transform="matrix(.58 0 0 .62 9.63 -10.18)"/><path d="M183.85 158.08l94.775 99.91 1.662-1.573-94.776-99.91-1.66 1.574z" fill-rule="evenodd"/><path d="M460.63 184.25l17.716 35.433V237.4c-.865-1.305 0 17.716-17.716 17.716-17.717 0-17.717-35.433-17.717-35.433s-17.716 35.433-17.716 70.866 17.716 53.15 17.716 53.15-2.61-36.706 17.717-35.436c20.328 1.27 17.716 17.716 17.716 17.716v35.434h17.717v-141.73l17.717-35.433-27.136-53.15-26.014 53.15z" fill-rule="evenodd" transform="matrix(.14 -.14 .1 .1 86.35 192.15)" stroke="#000" stroke-width="1pt" fill="#cececc"/><path d="M557.82 95.67l-26.323 70.865 17.717 53.15-35.433-17.716 35.436 53.146v35.433h17.716v-35.43l35.434-53.15-35.433 17.716 17.718-53.15-26.83-70.866z" fill-rule="evenodd" transform="matrix(.1 -.16 .14 .1 113.99 183.83)" stroke="#000" stroke-width="1pt" fill="#cececc"/><path d="M422.53 136.96c0 2.068-1.958 3.746-4.37 3.746-2.413 0-4.372-1.678-4.372-3.746s1.96-3.747 4.37-3.747c2.414 0 4.372 1.68 4.372 3.747zm-6.244 7.91c0 35.8 20.917 187.81 22.582 191.56.14 4.44-4.718 6.382-7.077.832-6.55-17.342-20.74-159.91-21.33-193.22-.244-13.734 3.76-14.8 8.326-14.57 3.76.21 8.325 3.725 8.325 7.91 0 4.995-5.83 8.74-10.823 7.492z" fill-rule="evenodd" transform="matrix(.4 0 0 .3 43.75 69.8)" stroke="#000" stroke-width="1pt" fill="#e10000"/><path d="M422.53 136.96c0 2.068-1.958 3.746-4.37 3.746-2.413 0-4.372-1.678-4.372-3.746s1.96-3.747 4.37-3.747c2.414 0 4.372 1.68 4.372 3.747zm-6.244 7.91c31.488 61.414 48.722 166.77 50.387 170.52.14 4.44-4.718 6.382-7.077.832-2.48-3.315-12.667-100.18-49.138-172.18-.244-13.734 3.76-14.8 8.326-14.57 3.76.21 8.325 3.725 8.325 7.91 0 4.995-5.83 8.74-10.826 7.492z" fill-rule="evenodd" transform="matrix(.38 .1 -.15 .3 76.05 38.16)" stroke="#000" stroke-width="1pt" fill="#0000c4"/><path d="M186.655 151.54c0 1.034-.98 1.873-2.185 1.873-1.207 0-2.186-.84-2.186-1.873s.98-1.873 2.185-1.873 2.184.84 2.184 1.873zm-3.122 3.955c0 17.9 10.458 93.905 11.29 95.78.07 2.22-2.358 3.19-3.538.416-3.275-8.67-10.37-79.953-10.666-96.61-.124-6.865 1.88-7.4 4.16-7.283 1.88.105 4.164 1.863 4.164 3.955 0 2.5-2.915 4.37-5.412 3.747z" fill-rule="evenodd" stroke="#000" stroke-width=".5pt" fill="#e10000"/><path d="M422.53 136.96c0 2.068-1.958 3.746-4.37 3.746-2.413 0-4.372-1.678-4.372-3.746s1.96-3.747 4.37-3.747c2.414 0 4.372 1.68 4.372 3.747zm-6.244 7.91c31.488 61.414 48.722 166.77 50.387 170.52.14 4.44-4.718 6.382-7.077.832-2.48-3.315-12.667-100.18-49.138-172.18-.244-13.734 3.76-14.8 8.326-14.57 3.76.21 8.325 3.725 8.325 7.91 0 4.995-5.83 8.74-10.826 7.492z" fill-rule="evenodd" transform="matrix(.48 .15 -.2 .48 16.67 31.58)" stroke="#000" stroke-width="1pt" fill="#0000c4"/><g fill-rule="evenodd"><path d="M370.454 290.834l72.423 76.485 1.277-1.646-72.423-76.485-1.274 1.643zM320 303.334l94.778 99.908 1.662-1.572-94.777-99.91-1.662 1.574z"/><path d="M478.35 60.236v88.583l17.717 88.58 17.717-88.583V60.235H478.35z" transform="matrix(.07 -.07 .1 .1 374.97 429.55)" stroke="#000" stroke-width="4.104" fill="#808080"/><path d="M478.35 60.236v88.583l17.717 88.58 17.717-88.583V60.235H478.35z" transform="matrix(.07 -.07 .1 .1 399.41 390.52)" stroke="#000" stroke-width="4.104" fill="#808080"/></g><g fill-rule="evenodd"><path d="M301.18 272.84s-17.716 336.61 53.15 336.61 106.3-35.433 106.3-35.433l-.86-185.03-158.59-116.15z" transform="matrix(-.45 0 0 .64 567.65 -59.76)" stroke="#000" fill="#ffdf00"/><path d="M344.46 304.2c0 17.717-7.846 269.82 27.587 269.82s88.583-17.717 88.583-17.717l-.86-167.31-115.31-84.79z" transform="matrix(-.45 0 0 .64 567.65 -59.76)" stroke="#000" fill="#0000c4"/><path d="M367.52 321.16c0 17.717 4.525 217.42 39.958 217.42h53.15l-.86-149.59-92.248-67.833z" transform="matrix(-.45 0 0 .64 567.65 -59.76)" stroke="#000" fill="#e10000"/><path d="M433.814 116.02l-72.423 76.485-1.274-1.642 72.423-76.485 1.276 1.642z"/><path d="M376.663 175.083s20.298 26.008 30.086 46.147c9.784 20.14 21.202 50.906 21.202 50.906s-6.524-30.29-18.848-54.55c-16.13-30.45-32.442-40.76-32.44-42.503zm-.723-20.693s22.654 32.17 32.985 56.07c10.33 23.9 21.816 59.81 21.816 59.81s-5.57-34.548-18.665-63.432c-17.24-36.363-36.27-50.522-36.134-52.448zm19.527-31.807s16.04 47.665 20.91 77.16c4.87 29.497 7.816 70.14 7.816 70.14s3.104-34.116-3.443-70.318c-9.06-46.262-25.94-75.488-25.282-76.982zm-14.363-2.276s22.2 42.318 30.833 71.112c8.632 28.792 16.72 70.41 16.72 70.41s-1.156-37.81-12.324-72.856c-14.974-44.428-35.705-66.743-35.228-68.668zm26.634 13.537s11.055 45.58 13.82 72.79c2.763 27.207 3.533 63.954 3.533 63.954s3.854-29.745 0-63.25c-5.48-42.954-17.94-72.294-17.35-73.493zm-29.188 1.246s21.478 36.246 30.155 61.62c8.677 25.372 17.195 62.527 17.195 62.527s-2.062-34.435-13.23-65.244c-14.906-38.968-34.504-57.092-34.118-58.904zm-3.96 25.345s22.654 28.726 32.985 50.77c10.33 22.04 21.816 55.594 21.816 55.594s-5.57-32.873-18.665-59.446c-17.24-33.373-36.27-45.04-36.134-46.92zm2.888-13.27s20.842 33.8 29.904 58.29c9.062 24.49 18.69 60.895 18.69 60.895s-3.85-34.502-15.405-64.156c-15.29-37.405-33.416-53.15-33.19-55.03zm22.646-23.862s13.41 46.668 16.72 75.19c3.307 28.522 4.145 67.557 4.145 67.557s4.8-32.372.18-67.418c-6.59-44.835-21.77-73.948-21.046-75.33zM381.64 111.63s19.574 43.95 26.643 73.333c7.068 29.382 13.05 71.5 13.05 71.5s.543-37.766-8.7-73.582c-12.504-45.47-31.536-69.37-30.99-71.25zm31.125 25.573s8.427 43.768 9.628 69.708c1.2 25.94-.136 60.83-.136 60.83s5.55-28.023 3.625-59.99c-3.012-41.003-13.774-69.437-13.117-70.546zm-33.575-7.39s19.574 37.88 26.643 63.84c7.068 25.96 13.05 63.615 13.05 63.615s.543-34.39-8.7-65.97c-12.504-40.01-31.536-59.72-30.99-61.486z" stroke="#000" fill="#005b00"/><path d="M301.18 272.84s-35.433 336.61 70.866 336.61c88.583 0 88.583-53.15 106.3-53.15l-17.72-124.02-159.45-159.44z" transform="matrix(-.58 0 0 .62 630.39 -10.18)" stroke="#000" fill="#ffdf00"/><path d="M336.61 308.27c0 17.717-35.433 212.6 53.15 265.75 35.433 17.716 88.582-17.717 88.582 0l-17.71-141.74-124.02-124.01z" transform="matrix(-.58 0 0 .62 630.39 -10.18)" stroke="#000" fill="#0000c4"/><path d="M372.05 343.7c0 17.717-17.716 159.45 35.433 194.88 35.433 35.433 124.02 25.822 124.02 25.822l-70.87-132.12-88.58-88.58z" transform="matrix(-.58 0 0 .62 630.39 -10.18)" stroke="#000" fill="#e10000"/><path d="M456.172 158.08l-94.777 99.91-1.66-1.573 94.775-99.91 1.662 1.574z"/><path d="M460.63 184.25l17.716 35.433V237.4c-.865-1.305 0 17.716-17.716 17.716-17.717 0-17.717-35.433-17.717-35.433s-17.716 35.433-17.716 70.866 17.716 53.15 17.716 53.15-2.61-36.706 17.717-35.436c20.328 1.27 17.716 17.716 17.716 17.716v35.434h17.717v-141.73l17.717-35.433-27.136-53.15-26.014 53.15z" transform="matrix(-.14 -.14 -.1 .1 553.66 192.15)" stroke="#000" fill="#cececc"/><path d="M557.82 95.67l-26.323 70.865 17.717 53.15-35.433-17.716 35.436 53.146v35.433h17.716v-35.43l35.434-53.15-35.433 17.716 17.718-53.15-26.83-70.866z" transform="matrix(-.1 -.16 -.14 .1 526.03 183.83)" stroke="#000" fill="#cececc"/><path d="M422.53 136.96c0 2.068-1.958 3.746-4.37 3.746-2.413 0-4.372-1.678-4.372-3.746s1.96-3.747 4.37-3.747c2.414 0 4.372 1.68 4.372 3.747zm-6.244 7.91c0 35.8 20.917 187.81 22.582 191.56.14 4.44-4.718 6.382-7.077.832-6.55-17.342-20.74-159.91-21.33-193.22-.244-13.734 3.76-14.8 8.326-14.57 3.76.21 8.325 3.725 8.325 7.91 0 4.995-5.83 8.74-10.823 7.492z" transform="matrix(-.4 0 0 .3 596.29 69.8)" stroke="#000" fill="#e10000"/><path d="M422.53 136.96c0 2.068-1.958 3.746-4.37 3.746-2.413 0-4.372-1.678-4.372-3.746s1.96-3.747 4.37-3.747c2.414 0 4.372 1.68 4.372 3.747zm-6.244 7.91c31.488 61.414 48.722 166.77 50.387 170.52.14 4.44-4.718 6.382-7.077.832-2.48-3.315-12.667-100.18-49.138-172.18-.244-13.734 3.76-14.8 8.326-14.57 3.76.21 8.325 3.725 8.325 7.91 0 4.995-5.83 8.74-10.826 7.492z" transform="matrix(-.38 .1 .15 .3 563.96 38.16)" stroke="#000" fill="#0000c4"/><path d="M453.345 151.54c0 1.034.98 1.873 2.185 1.873 1.207 0 2.186-.84 2.186-1.873s-.98-1.873-2.185-1.873-2.184.84-2.184 1.873zm3.122 3.955c0 17.9-10.458 93.905-11.29 95.78-.07 2.22 2.358 3.19 3.538.416 3.275-8.67 10.37-79.953 10.666-96.61.124-6.865-1.88-7.4-4.16-7.283-1.88.105-4.164 1.863-4.164 3.955 0 2.5 2.915 4.37 5.412 3.747z" stroke="#000" fill="#e10000" stroke-width=".5pt"/><path d="M422.53 136.96c0 2.068-1.958 3.746-4.37 3.746-2.413 0-4.372-1.678-4.372-3.746s1.96-3.747 4.37-3.747c2.414 0 4.372 1.68 4.372 3.747zm-6.244 7.91c31.488 61.414 48.722 166.77 50.387 170.52.14 4.44-4.718 6.382-7.077.832-2.48-3.315-12.667-100.18-49.138-172.18-.244-13.734 3.76-14.8 8.326-14.57 3.76.21 8.325 3.725 8.325 7.91 0 4.995-5.83 8.74-10.826 7.492z" transform="matrix(-.48 .15 .2 .48 623.32 31.58)" stroke="#000" fill="#0000c4"/></g><g fill-rule="evenodd" stroke="#000" stroke-width="1pt"><path d="M287.073 422.6c10.276 6.603 21.512 5.125 30.827 0v-87.874h-20.55c10.275 32.953 10.275 65.906-10.277 87.873z" fill="#e10000"/><path d="M303.303 336.685c0 62.007-14.863 75.79-14.863 88.186 6.2 0 10.313-5.772 14.863-13.78 6.2-12.4 6.8-75.373 6.2-74.407h-6.2zm-12.4 0c-.284 36.24-15.678 69.748-12.774 77.168 3.313 6.632 12.77-15.158 25.173-2.756 6.2-12.402 6.8-75.376 6.2-74.41H290.9z" fill="#0000c4"/><path d="M292.343 331.347c0 40.748-14.244 43.456-14.244 54.32 6.2 0 14.21-5.938 14.242-5.422 6.2-8.15 6.8-49.533 6.2-48.898h-6.2zm-12.4 0c-.284 23.814-15.306 44.023-12.4 48.898 3.314 4.36 12.4-8.15 24.8 0 6.2-8.15 6.8-49.533 6.2-48.898h-18.6z" fill="#ffdf00"/><path d="M352.947 422.61c-10.276 6.603-21.512 5.115-30.827-.01v-87.867h20.55c-10.275 32.953-10.275 65.906 10.277 87.872z" fill="#e10000"/><path d="M336.707 336.695c0 62.007 14.863 75.79 14.863 88.186-6.2 0-10.313-5.772-14.863-13.78-6.2-12.4-6.8-75.374-6.2-74.41l6.2.003zm12.4 0c.284 36.24 15.678 69.748 12.774 77.168-3.313 6.632-12.772-15.158-25.173-2.756-6.2-12.402-6.8-75.376-6.2-74.41h18.602z" fill="#0000c4"/><path d="M347.687 331.357c0 40.748 14.244 43.456 14.244 54.32-6.2 0-14.21-5.938-14.242-5.422-6.2-8.15-6.8-49.533-6.2-48.898h6.2zm12.4-.01c.284 23.814 15.306 44.023 12.402 48.898-3.318 4.36-12.404-8.15-24.805 0-6.2-8.15-6.8-49.533-6.2-48.898h18.6z" fill="#ffdf00"/></g><g stroke="#000" fill-rule="evenodd"><path d="M241.627 341.51l-10.76 7.795 10.76 7.795 5.38-3.897 2.69 3.897 2.69 7.796 2.692-7.796 2.69-3.897h144.226v-7.796H257.77l-2.692-3.898c0-3.9.565-7.797 2.69-7.797h10.762c0-3.898-5.38-11.693-16.14-11.693-10.762 0-16.143 7.796-16.143 11.694h10.76c2.127 0 2.692 3.897 2.692 7.795l-2.695 3.896-5.38-3.898z" fill="#908f8a"/><path fill="#b74d00" d="M273.278 360.43h94.25v4.785h-94.25zm0-4.782h94.25v4.783h-94.25zM204.35 73.17h94.25v4.786h-94.25zm68.928 272.91h94.25v4.785h-94.25zm-137.856-611.9h94.25v4.784h-94.25zm137.856 602.334h94.25v4.784h-94.25zM204.35 2.306h94.25V7.09h-94.25z"/><path d="M277.697 331.444l34.45 33.485h4.922l-34.45-33.487h-4.924zm0 34.482l34.45-33.485h4.922l-34.45 33.487h-4.924zm.92-34.482v33.485h4.96v-33.487h-4.96zm43.42 0l34.45 33.485h4.92l-34.45-33.487h-4.92zm0 34.482l34.45-33.485h4.92l-34.45 33.487h-4.92zm35.42-34.482v33.485h4.96v-33.487h-4.96zm-34.49 0v33.485h4.96v-33.487h-4.96zm-9.86 0v33.485h4.96v-33.487h-4.96z" fill="#908f8a"/></g><path d="M389.826 235.867c0 54.57-32.225 98.86-71.932 98.86-39.704 0-71.93-44.29-71.93-98.86s32.223-98.86 71.93-98.86c39.705 0 71.932 44.29 71.932 98.86zM645.234 396.85c0 48.507-27.62 87.873-61.654 87.873-34.033 0-61.654-39.367-61.654-87.873 0-48.506 27.62-87.873 61.654-87.873 34.033 0 61.654 39.37 61.654 87.873zm-299.35-252.067c-8.604-5.005-18.063-7.773-27.99-7.773s-19.383 2.768-27.99 7.773l4 10.12c7.376-4.448 15.483-6.91 23.99-6.91s16.617 2.46 23.99 6.91l4-10.12zm.12 179.564c-8.604 5.005-18.063 7.773-27.99 7.773s-19.383-2.768-27.99-7.773l4-10.12c7.376 4.448 15.483 6.91 23.99 6.91s16.617-2.46 23.99-6.91l4 10.12z" stroke="#000" stroke-width="1pt" fill="#ffdf00" fill-rule="evenodd"/><path d="M379.554 235.867c0 48.532-27.603 87.873-61.654 87.873-34.05 0-61.654-39.343-61.654-87.873 0-48.532 27.603-87.873 61.654-87.873 34.05 0 61.654 39.343 61.654 87.873z" fill-rule="evenodd" fill="#a7cfff"/><path d="M637.8 396.85c1.133 26.658-4.634 39.635-11.89 67.356-1.912 2.98-10.966-6.537-16.447-11.236s-7.812 4.24-14.537-3.046c-6.725-7.284-11.05 2.058-15.983-4.095s-51.3-7.06-51.366-7.588c4.59-2.276 28.27.152 24.474-11.193-4.3-11.72-31.09-.35-34.69-15.365-2.44-14.907-53.565-15.543-57.22-19.225 1.446 5.666 39.73 8.05 38.816 22.57-.833 5.917-37.693 7.646-41.247 12.653-3.046 6.295 28.926-1.707 30.113 6.032-.077 3.185-4.704.068-21.357 4.99-8.326 2.46 15.454 10.33 6.41 14.637-9.045 4.308-28.26 6.188-27.433 7.998 2.94 8.908 44.693 19.536 40.535 21.065-14.754 6.56-22.552 10.872-29.627 14.652-19.24-25.653-31.145-61.087-31.145-100.2 31.716-11.405 24.968-13.735 83.645-13.735s77.98 2.33 128.95 13.735z" fill-rule="evenodd" stroke="#000" stroke-width="1pt" fill="#afff7b" transform="matrix(.58 0 0 .62 9.63 -10.18)"/><path d="M637.8 396.85c-8.07 0-16.454 3.4-25.07 3.4-8.617 0-17.465-3.4-26.466-3.4s-19.287 4.532-28.512 4.532c-9.224 0-17.388-4.53-26.676-4.53-9.287 0-18.566 3.397-27.755 3.397s-18.286-3.4-27.216-3.4-17.69 3.4-26.2 3.4-16.77-3.4-24.7-3.4c0-19.56 2.976-38.2 8.358-55.15 27.076 2 11.043-15.718 27.076-15.718 8.655 0 17.434 1.86 25.238 9.788 2.447 0 14.48-11.372 27.912-9.787 13.432 1.586 8.492 27.272 26.37 28.637 9.063 6.797 14.393 11.134 26.78 13.872 17.716 1.606 68.35-2.5 68.704-.194a188.21 188.21 0 0 1 2.16 28.552z" fill-rule="evenodd" stroke="#000" stroke-width="1pt" fill="#fff" transform="matrix(.58 0 0 .62 9.63 -10.18)"/><path d="M549.85 473.94c0-5.664 13.512-9.462 13.512-18.524s-11.914-9.35-12.38-17.86c-.2-3.46 10.32-7.046 14.915-7.335s8.493 7.42 8.493 9.12-4.662-4.19-8.578-4.376-12.313.63-12.313 2.33c0 3.4 14.85 7.598 13.715 18.925-1.132 11.326-12.71 14.656-12.71 18.054s5.056 12.86 5.056 12.86-9.712-7.53-9.712-13.192z" fill-rule="evenodd" transform="matrix(.2 0 0 .48 217.23 59.5)" stroke="#000" stroke-width="1pt"/><path d="M549.85 473.94c0-5.664 13.512-9.462 13.512-18.524s-11.95-9.348-12.38-17.86c-.946-3.962 11.814-6.544 16.41-6.833s9.985 7.92 9.985 9.62-5.41-5.195-9.325-5.38-14.553.63-14.553 2.33c0 3.398 14.85 7.597 13.715 18.924-1.132 11.327-12.71 14.657-12.71 18.055s5.056 12.86 5.056 12.86-9.712-7.53-9.712-13.192z" fill-rule="evenodd" transform="matrix(-.2 0 0 .48 445.83 59.12)" stroke="#000" stroke-width="1pt"/><path d="M332.965 264.846c0 1.333-.65 2.413-1.454 2.413-.8 0-1.452-1.08-1.452-2.416s.65-2.413 1.455-2.413c.804 0 1.455 1.08 1.455 2.414zm16.95 8.964h.466v19.617h-.462zm4.183-1.487h.464v19.616h-.464zm-1.5 8.907l.003-.493 3.98.684-.004.497z" fill-rule="evenodd"/><path d="M497.26 478.07s26.052 11.328 31.716 18.124c5.664 6.797 3.398 6.796 3.398 6.796l57.77 2.266c0-3.398 10.193-3.4 12.46-11.328 2.264-7.93 2.264-10.194 2.264-10.194l-18.123 5.664 1.132-10.194H572.02l-2.266 10.194-33.982-1.133 2.266-27.186-6.796 1.13-1.133 26.053c-1.136 0-31.72-7.93-32.85-10.195z" fill-rule="evenodd" transform="matrix(.58 0 0 .62 6.99 -9.48)" stroke="#000" stroke-width="1pt" fill="#b74d00"/><path d="M440.53 316.28s37.645-11.214 92.11-10.413 92.11 12.815 91.31 12.815-10.414-18.422-10.414-18.422-38.446-10.412-81.697-11.213c-43.255-.8-80.9 8.01-80.1 8.81l-11.21 18.423z" fill-rule="evenodd" stroke="#fede00" stroke-width="1pt" fill="#fede00" transform="matrix(.58 0 0 .62 9.63 -10.18)"/><path fill-rule="evenodd" fill="#38a9f9" d="M306.072 169.855l13.562-.262.137 7.9-13.56.264zm-31.297 4.3l-4.783 7.784 16.165-1.994-1.297-7.783-10.085 1.99zm13.778-2.995l13.518-1.187.62 7.876-13.514 1.185zm48.837-.806l-13.538-.91-.475 7.888 13.537.91zm29.182 4.953l4.918 9.69-14.642-3.614 1.63-7.714 8.094 1.635zm-11.736-2.817l-13.453-1.83-.957 7.837 13.453 1.832z"/><path fill-rule="evenodd" stroke="#000" stroke-width="1pt" fill="#ffdf00" d="M532.64 323.49l-2.58-13.47-7.54 11.46 2.77-13.43-11.34 7.7 7.7-11.35-13.43 2.78 11.45-7.54-13.47-2.58 13.47-2.58-11.45-7.53 13.43 2.77-7.7-11.35 11.34 7.7-2.77-13.43 7.54 11.46 2.58-13.47 2.57 13.47 7.54-11.46-2.77 13.43 11.35-7.7-7.71 11.35 13.44-2.77-11.46 7.53 13.47 2.58-13.47 2.58 11.46 7.54-13.44-2.78 7.71 11.35-11.35-7.7 2.77 13.43-7.54-11.46z" transform="matrix(.58 0 0 .62 9.63 -10.18)"/><path d="M547.05 293.86c0 9.29-6.634 16.82-14.818 16.82s-14.818-7.53-14.818-16.82 6.634-16.82 14.818-16.82 14.818 7.53 14.818 16.82z" fill-rule="evenodd" transform="matrix(.57 0 0 .5 18.27 21.75)" stroke="#000" stroke-width="1pt" fill="#ffdf00"/><path d="M320.676 170.552c0 .545-1.257.988-2.807.988s-2.81-.443-2.81-.988 1.257-.988 2.807-.988 2.806.442 2.806.988zm6.08-.002c0 .547-.944.99-2.106.99s-2.105-.443-2.105-.99c0-.544.942-.987 2.105-.987s2.105.443 2.105.988z" fill-rule="evenodd"/><path d="M529.43 297.86l.8.8c-1.9-1.9-.995-1.125 1.603 3.204 2.393-.495 3.09-1.39 4.806-2.403" transform="matrix(.56 -.18 .17 .6 -26.71 90.63)" stroke="#000" stroke-width="1pt" fill="none"/><path d="M527.83 304.27l.8.8c-1.9-1.9-1.123-.994 3.205 1.603 4.027.544 8.092-1.196 10.412-4.005" transform="matrix(.58 0 0 .62 8.7 -10.18)" stroke="#000" stroke-width="1pt" fill="none"/><path d="M281.395 194.854s.93 7.945-5.11 17.877c-6.04 9.935-5.11 6.46-5.11 6.46s2.787 5.46 2.323 5.46-4.646-4.965-4.646-4.965l-5.11 5.462s4.646-8.442 4.18-8.442-1.393-2.98-1.393-2.98l3.713-1.49s5.575-10.428 5.575-9.93-16.725 11.42-16.725 11.42l22.3-18.87zm3.718 2.982c-.465 0 2.322 7.946 4.645 11.918 2.323 3.973 2.323 8.94 2.323 8.94l7.9 3.972-10.22-15.394 6.504 2.482-11.15-11.918zm0 20.857s5.574 5.96 6.04 7.945.463 6.456.463 6.456l-2.322-4.966-3.252 4.47s2.323-6.953 1.858-7.45-3.717 2.484-3.717 2.484 1.394-3.973 1.394-4.47 0-2.98-.464-4.47zm-27.875 13.9c1.858-1.49 5.574-2.482 5.574-2.482s-2.323 3.975-2.787 3.975-1.858 0-2.787-1.49zm64.107-21.848s12.078 7.45 12.078 7.946-7.897-3.474-7.897-3.474l-4.18-4.47zm-21.83-15.395c.93.497 17.652 14.4 17.187 14.4s-7.432-3.972-7.432-3.475v3.476l-3.717-7.943-.93 2.98-5.11-9.435zm4.175 22.345l4.646 9.435 4.645-.993s-8.823-8.442-9.29-8.442zm14.407-5.958c0 1.49.465 8.938.465 8.938s2.787 2.483 2.787 1.987-2.79-10.43-3.255-10.925z" fill-rule="evenodd" fill="#b7e1ff"/><path d="M182.612 89.522s20.98-11.61 44.87-20.254c23.886-8.644 50.68-14.325 54.222-14.325 7.077 0 19.21 17.783 21.233 17.783 2.022 0 10.11-4.94 20.223-4.94s16.178 7.904 18.2 7.904h18.2c2.023 0-6.066-19.76 0-18.77 3.034.493 28.817 4.445 52.833 12.225 24.014 7.78 58.103 21.515 58.103 21.515s-55.714 7.44-70.488 5.24c-2.022.988-.1 13.07-2.933 7.754-4.656-1.063-21.744-3.727-24.778-3.727s-8.69 3.427-16.78 5.402c-8.088 1.974-18.2 4.94-18.2 4.94l13.146 20.745-16.178 7.903s-10.11-23.71-14.156-23.71-6.07 16.794-11.125 15.806c-5.056-.988-7.078-15.808-11.123-19.76-4.044-3.95-25.368-5.39-33.458-7.366-8.09-1.975-21.144-3.5-28.222-5.476-7.078-1.976-14.155 4.94-17.19 4.94-3.032 0 4.046-5.928 1.012-6.916s-5.055 2.964-7.078 2.964c-2.022 0-23.256-3.952-25.278-4.94-2.023-.988 5.055-4.94 3.033-4.94h-8.09z" fill-rule="evenodd" fill="#984000"/><path d="M462.91-64.94c0 21.15-20.5 38.298-45.79 38.298S371.327-43.79 371.327-64.94s20.5-38.298 45.79-38.298S462.91-86.09 462.91-64.94z" fill-rule="evenodd" transform="matrix(.22 0 0 .26 231.63 96.52)" stroke="#772600" stroke-width="3.706" fill="#808080"/><path d="M284.74-59.945c6.66-6.66 14.987-16.65 36.633-16.65 4.996-1.666 4.996-11.657 16.65-11.657 11.657 0 8.327 9.99 16.653 13.32 8.325 3.33 76.596-3.33 76.596-3.33s6.66 4.996 6.66 11.657c0 6.66-4.995 11.656-6.66 11.656s-68.27-4.993-73.266-3.33c-4.995 1.668-8.326 3.33-19.982 3.33-11.655 0-14.986-11.653-23.31-11.653-8.327 0-16.653-1.665-29.974 6.66z" fill-rule="evenodd" transform="matrix(.27 0 0 .32 205.39 100.65)" stroke="#772600" stroke-width="5.25" fill="#984000"/><path d="M487.88-76.597h26.642c9.572.114 12.873 3.005 21.647 3.33h23.31c8.474-.314 12.95-2.295 21.646-3.33 14.504-.175 9.555-1.306 6.66-9.99-2.625-6.565-2.95-9.61-6.66-13.322-1.396-7.942-4.655-10.77-4.996-19.98-1.526-7.025-4.34-11.75-1.664-19.98 3.84 5.646 5.387 7.97 14.986 8.325 10.045 0 13.937-.206 19.982 3.33 4.663 4.89 10.886 3.33 19.982 3.33 7.677 1.406 8.96 5.313 14.986 8.326 7.103 3.936 11.694 4.996 21.646 4.996 7.967 1.422 14.88 2.578 19.98 4.995 4.25 5.08 10.952 6.34 19.983 6.66 5.05 0 8.95-.523 13.32-1.664 7.68.37 15.476 0 24.98 0 6.163 7.21 7.587 9.862 18.317 9.99 7.338 5.155 13.527 6.037 19.982 8.327h24.975c8.928.687 11.79 4.35 19.98 6.66 8.115 3.768 15.722 6.35 21.648 8.326 5.89 1.28 13.574 1.664 21.646 1.664 6.182 3.175 13.61 3.46 18.316 6.66 6.89 1.477 16.302 3.215 21.647 4.996 8.816 1.167 12.187 3.94 19.98 4.994 6.704 1.915-2.223 3.56-6.66 4.995-9.826-.366-10.536-3.948-19.98-4.997-5.024-2.94-12.64-2.548-19.982-4.996h-1.665c6.6 3.903 12.948 6.422 9.99 13.32-8.49 0-15.366-1.097-23.31-1.665-8.385-1.616-12.227-3.33-21.647-3.33 9.394-2.264 11.854.27 18.315 3.33 2.396 8.06-2.725 4.996-11.656 4.996-7.61-2.73-12.174-5.984-21.648-6.66h-19.98c9.89.365 11.975 4.1 18.314 8.325.518 2.59-.132 2.472-4.995 3.33-5.16-4.478-11.89-6.013-19.983-8.326-7.88-.28-16.217-.966-23.31-3.33-4.868-.305-4.117-6.178 6.66 3.33 6.532 3.842 8.832 6.945 8.325 9.99-8.575-2.144-12.824-5.58-18.316-8.325-7.736-2.855-14.128-3.33-23.312-3.33-8.61-2.266.894-3.574 6.66 4.995 12.38 8.77-1.632 5.007-6.66 3.33-7.507-2.144-15.284-5.184-21.646-6.66-5.046-1.44-9.44-2.855-14.986-3.33 8.63.785 11.57 3.823 14.986 9.99 8.755 6.032-.384 3.1-8.326 1.666-5.07-4.402-11.487-6.658-14.986-11.656-8.35-4.176-8.563-8.982-3.33 1.665 1.363 3.407 1.11 10.795 1.665 11.656-6.136-6.624-4.825-8.324-11.656-8.324-4.634-3.244-11.496-5.765-14.986-9.99-6.435-.604-6.84-2.9-13.32-4.996 5.34 6.273 12.39 12.478 16.65 18.315 7.598 4.242 9.7 8.06 14.987 11.656 2.14 3.64 7.904 6.657 1.665 1.666-7.145-7.043-12.46-8.67-23.313-13.32-6.15-4.96-8.37-7.045-14.986-11.657-9-2.906-5.506-4.544 0 4.994 6.32 5.77 11.17 12.23 16.654 16.65 3.767 4.908 10.136 10.12 14.986 13.322 1.5 2.25 5.99 2.664 0 3.33-5.09-4.598-12.4-7.53-18.318-11.656-8.302-2.34-12.19-6.65-18.316-11.654-3.9-5.85-10.383-10.38-14.987-14.986-9.63-3.77 1.9 3.636 4.993 8.325 2.153 6.068 4.788 11.035 6.66 16.65 2.78 5.56-8.47-1.327-11.655-3.33-7.32-4.157-12.675-6.937-21.648-8.325-5.98-1.3-13.602-2.468-19.982-3.33-7.614-2.05 4.042 4.8 8.326 11.656 8.418 7.908-8.332 1.425-13.32 0-8.224-1.645-16.288-1.666-24.978-1.666-10.67.628-3.05 1.947 0 6.66 3.287 2.53 5.637 7.855 4.995 9.992-7.03-.95-13.024-3.023-21.645-3.33-6.96 2.32-15.344 1.665-23.31 1.665-.382 4.19 1.443.654 4.994 4.995 5.763 2.34 9.585 5.177 8.326 8.326H497.87c-5.29 1.447 1.14.704 5 6.663-2.16 5.405-4.95 3.334-11.655 3.334-4.545-1.818-13.598-2.636-18.317-4.996-4.69 0-4.336-1.22-8.325-1.665 14.035 9.93 7.073 7.45 14.986 14.987 1.364.455 4.52 1.664 1.662 1.664M371.32 73.264c-.997 0-3.2-5.374-6.66-9.99-2.327-6.05-5.392-2.59-8.326-11.656.348-9.402.684-11.094 0-19.982-6.863-4.783-9.714-6.27-14.986-14.986-8.46-7.078 1.236-19.063 2.845-27.85-7.375-1.638-11 11.477-22.34 16.194-8.156 5.492-.912-11.354-4.892-21.188-2.772-13.872-10.823 6.956-13.91 12.862-5.465 3.718-7.126 8.542-14.984 1.665 0-5.144 4.937-19.49 2.845-22.28-7.814 3.815-18.087 15.49-26.157 17.284-8.13-1.767 1.77-14.828 1.77-24.518-2.938-.98-14.696 25.753-19.52 26-4.824.25-2.713-25.993-4.972-25.428-3.54 4.96-10.65 15.43-15.575 18.948-9.454-1.22 1.398-17.434 2.845-23.426 1.627-7.168-8.906 13.75-14.503 15.102-4.1 3.554-12.237 6.072-14.986 6.66 3.24-6.13 19.078-18.712 17.937-22.278-9.21.34-23.31 12.556-31.256 13.952-5.19 0-12.386 1.758-13.32 1.665.45-7.926 19.42-14.65 22.446-19.465-9.306 1.494-27.186 9.706-32.436 16.135-6.147 1.336-13.945 3.02-19.984 0 .897-7.475 14.856-21.998 17.936-26.758-8.396 3.697-12.642 6.59-21.647 8.325-1.652 1.652-6.524 5.23-4.995 1.665 2.656-6.945 6.676-10.11 9.99-14.986-7.45 1.366-10.28 5.636-18.315 9.99-5.094.224-19.646 14.857-24.596 15.105-11.45 8.382-16.01 9.807-28.31 13.32C65.674-15.3 62-13.722 58.275-9.995c3.796-6.688 9.597-13.093 14.986-16.65 3.678-5.568 7.12-10.196 14.987-13.32 1.896-2.32 7.187-2.907 1.664-3.33-4.746 4.235-12.696 8.964-16.65 11.654-5.102 3.205-11.01 6.48-13.322 4.993 2.62-7.197 7.438-8.902 11.657-14.986 8.81-5.604.04-1.914-6.66 0-4.34 3.868-12.123 6.727-18.317 9.992-7.112 1.855-11.702 6.13-19.98 8.325 0 2.375 2.365-4.25 3.33-6.66 6.83-7.41 8.657-9.476 16.65-11.657 1.913-2.867 4.42-1.665-1.664-1.665-4.515 4.024-10.81 6.212-16.65 9.99-5.893 1.282-13.576 1.666-21.65 1.666-10.354 1.243-9.46 2.025 0-3.33 5.358-5.04 9.77-3.775 9.99-9.99-6.256 4.53-13.87 7.86-21.648 11.657-6.434.19-8.133 1.665-14.985 1.665 3.298-3.414 5.277-7.632 9.99-9.99 6.896-7.662-4.377-1.477-6.66 0H-41.63c-4.465 5.58-.23.05 3.33-3.33 4.306-2.24 8.756-5.154 8.326-6.66-4.972 4.315-10.726 6.298-14.986 9.99-4.64 1.39-9.99 2.085-9.99 3.33 3.626-5.345 9.524-8.575 13.32-13.32 5.612-1.22 10.396-2.935 11.656-4.995h-23.312 16.65c8.4 0 15.63-.75 23.313-1.665 13.263-2.21-1.16-3.33-8.326-3.33-1.39-2.548 4.11-3.987 9.99-4.995 5.026-2.38 11.235-4.493 16.65-6.66 5.26-1.434 12.71-5.81 13.324-6.66-5.015.263-4.975 1.4-9.99 1.664 7.446-.574 12.8-1.666 21.646-1.666 8.027-2.58 14.905-5.41 21.646-8.326 2.936-3.588 4.24-3.33-3.33-3.33C55-93.74 64.524-94.776 69.933-96.578c7.872-1.687 14.9-4.253 19.982-6.66 4.876-3.316 7.69-7.176 13.32-9.99 6.528 4.437 6.602 4.994 18.318 4.994 9.41-.112 15.17-2.373 19.98-6.66 7.208-1.966 8.483-5.43 16.652-6.66 7.444 1.328 15.03 1.664 23.312 1.664 8.096-2.12 15.677-6.01 21.647-9.99 5.093-2.502 11.14-6.12 16.65-8.326 6.07 3.133 10.844 5.65 18.318 6.66 7.728-1.148 11.747-4.868 18.317-6.66 3.575-4.33 8.775-6.632 14.984-8.325 9.67-4.75 8.913 1.57 13.32 6.66 4.896 5.13 11.374 2.68 18.318 4.993 3.83 5.893 6.647 9.914 11.657 13.32 3.89 4.71 8.507 6.035 16.65 6.66 2.967 3.958.6 6.812 6.66 8.327 2.388 2.53 6.518 3.607 9.99 4.996" transform="matrix(.27 0 0 .32 205.39 104.9)" stroke="#772600" stroke-width="3.5" fill="none"/><path d="M468.74 30.803v.833c0-2.327-.103-1.09 1.665 3.33.595 3.64-.81 3.22-2.498 5.828-.286 3.723-.832 6.4-.832 10.823-.537 3.612-2.57 7.04-4.163 9.99-1.604 3.133-8.555 4.87-8.326 9.16-3.99 1.14-4.084-1.445-4.162-5.83-2.386-2.726-3.212-6.466-4.996-9.99-1.108-3.476-3.47-6.032-4.995-9.99-2.46-3.787-4.546-4.876-6.66-9.16-.827-2.065-.683-4.617-2.498-5.827-2.72-3.438-4.49-3.99-9.16-4.163-3.59.845-4.97 2.416-8.324 3.33-2.57.857-7.57.58-10.82 1.666-.81 1.314 1.6 1.94 2.497 4.995-2.135 1.764-2.926 4.883-4.163 7.493-1.965 2.49-3.283 3.708-4.163 7.496 1.363 2.316.2 5.387-1.665 7.493-.574 3.863-2.434 5.873-3.33 9.16-2.686 1.824-3.652 3.536-5.828 6.66-1.914 2.677-3.636 2.496-8.326 2.496-3.666-1-4.18-2.988-7.492-4.163-.352-1.056-.608-1.312-1.665-1.664" transform="matrix(.27 0 0 .32 205.39 104.9)" stroke="#782600" stroke-width="3.125" fill="none"/><path d="M307.65 125.534s-.455 4.955-3.643 8.258-9.794 7.157-9.794 7.157 8.882-4.224 9.793-3.306c.91.917-5.694 8.258-5.694 8.258s8.655-7.708 9.794-7.708 3.644 7.524 4.555 7.34c.914-.183-2.05-9.542-1.59-11.01.454-1.468 0-9.36 0-9.36l-3.417.368zm20.496-.672s-.456 5.297-3.644 8.828-9.794 7.65-9.794 7.65 8.882-4.512 9.793-3.53c.915.98-5.69 8.827-5.69 8.827s8.654-8.24 9.793-8.24 3.645 8.043 4.556 7.847c.91-.196-2.05-10.2-1.595-11.77.455-1.57 0-10.004 0-10.004l-3.416.392zm-28.693-48.045c0 .987-.967 1.788-2.16 1.788s-2.158-.8-2.158-1.788.966-1.787 2.16-1.787 2.158.8 2.158 1.787z" fill-rule="evenodd" fill="#812e00"/></svg>