<svg xmlns="http://www.w3.org/2000/svg" height="480" width="640" viewBox="0 0 640 480"><path d="M0 0v480h640V.08H402.442V0H0z" fill="#68bfe5"/><path d="M420.887 193.236v136.357c0 44.6 80.58 71.08 80.58 71.08s80.583-26.483 80.583-71.08V193.236z" fill="#fff"/><path d="M490.3 241.146v61.396h-69.413v22.34H490.3v71.54l11.17 4.25 11.17-4.25v-71.54h69.41v-22.34h-69.41v-61.396zm-69.413-47.91H582.05v52.657H420.887z" fill="#d21034"/><g fill="#fff" stroke="#000" stroke-width=".805" transform="translate(-96.907 97.536) scale(.665)"><ellipse ry="10.962" rx="13.623" cy="192.212" cx="798.23"/><ellipse ry="6.123" rx="12.114" cy="186.525" cx="798.23"/><ellipse ry="6.123" rx="12.114" cy="198.769" cx="798.23"/><ellipse ry="6.123" rx="12.114" cy="192.213" cx="798.23"/></g><path d="M578.06 235.448l-1.32-3.64s-3.612-1.474-3.887-3.393c-.643-5.115-2.47-7.032-5.206-7.764-2.742-.73-4.566.46-4.566.46-.823 1.188-4.935 1.188-7.22 1.278-2.28.093-2.32-.992-2.32-.992-1.774.013-2.52-1.29-2.52-1.29-1.16-2.32-2.025-3.187-2.6-3.48 2.965.043 5.197-1.324 8.54-4.834 3.654-3.836 6.26-2.352 6.26-2.352-1.772 3.583.59 3.266.59 3.266 4.84-2.464.64-8.677-.822-8.402-1.46.272-1.878-.71-1.878-.71.044 1.114-1.623 1.558-1.623 1.558 1.25-7.097-2.985-8.98-2.985-8.98-.64.64-1.007 1.92-1.007 1.92-1.186 4.292-5.114 3.653-9.5 1.55-4.384-2.1-16.077 2.195-19.73 3.656-3.656 1.462-10.323 3.746-16.352.365-6.027-3.38-7.492-2.74-9.866-2.1-2.376.638-6.574 1.646-8.126.822-1.553-.822-3.324-.873-3.324-.873.423-.237-.238-1.23-.238-1.23-1.826-2.464.238-3.975.238-3.975s-3.4.957-2.048 6.76l.622.87s.454 1.826 1.462 2.375l-.037.4s.86-.4 1.13.787c.278 1.186 1.556.09 2.105-.913 0 0-.916 5.298 5.663 6.576 0 0-.735-.82-.46-1.37.273-.547-.82-1.008-.728-1.827.09-.82-1.642-1.186-.275-1.828 1.368-.64 2.012-1.92 4.933-.183 2.922 1.736 5.208 1.373 5.208 1.373s-1.78-3.66-.8-3.656c.984 0 5.4 5.47 7.578 5.2 2.175-.268 6.378-2.735 8.48-1.82 0 0 .18-1.098 8.217-2.468 8.04-1.37 17.955-5.377 21.674-1.867 0 0 .434 2.78 1.985 3.513 0 0-.278 5.753-10.23 2.554l-3.61-.95s-.554-1.747-19.483 3.12c0 0-1.112.39-1.843.94-.734.545-1.74-.276-5.485 1.093-3.742 1.373-17.72 5.94-26.304 4.295l-.01.023c-1.89-.565-3.664-.273-3.735-.57-.093-.367 1.006.09 1.006.09-.64-.73-.913-.79-.913-.79-7.217-.792-5.94-4.052-5.94-4.052l.367 1.007c1.188-1.552-.46-5.206-.46-5.206l-.07.013a3.776 3.776 0 0 0-.067-.333l.597-.412c3.472-2.924 7.492-3.472 7.492-3.472-2.377-2.92-7.403-1.368-7.403-1.368.093-3.562-1.368-7.674-1.368-7.674-4.935.548-7.764 4.658-7.764 4.658-.182-3.653-4.842-5.752-4.842-5.752 1.734 2.1.64 7.123.64 7.123l.183.092c-.287-.01-.457 0-.457 0l-.103 1.076-.172-.072s-1.734.638-3.743 5.206c0 0-.203 1.08-.98 2.053-.007-.127.007-.24-.01-.373 0 0-2.243 2.94-7.43 0 0 0-7.046-4.18-9.522-4.026-2.477.155-4.105 1.317-3.947 2.013 0 0-5.654-.465-7.588 2.785 0 0-4.258 1.55-.62 5.033 0 0 .49 1.515 1.548 2.327 0 0-.15-3.18.62-2.246 0 0 .2.314.58.534.102.446.444 1.685 1.2 2.316l.545-.173c.085-.793.257-1.795.433-2.217l.18.024c-.024.023-.047.036-.07.057l1.006 1.55 1.16-.62c.543-.08 1.24.466 1.24.466l1.315-1.085c-.008-.01-.016-.013-.024-.026 1.297.217 1.65-2.296 1.65-2.296 1.166.306 2.255-.037 3.18-.598.567 2.084 5.18 4.318 5.18 4.318l.2-.016c-.39.25-.622.437-.622.437 2.1 1.463 6.03 1.097 6.03 1.097-1.644.64-1.414 3.68-1.414 3.68-.96.395-1.054 1.343-1.054 1.343 3.197 1.276 5.38.22 5.38.22.177 1.04-.082 1.15-.082 1.15-1.278 2.74-1.826 5.39-1.826 5.39.028.01.06.017.088.027-.04.072-.088.14-.118.215 0 0-5.574 1.934-8.05 4.644 0 0-.234-.775-.93-.775-.698 0-2.866-1.78-3.873-2.09-1.006-.31-2.478.31-2.866-.153-.35-.423-.193-3.594-.863-4.106l.014.004-.698-1.935c-.464 1.004-2.4.772-2.4.772-.075.046-.373.263-.794.577-.386.02-.83-.113-.83-.113-.2.04-.396.598-.54 1.14l-.235.177v-.543c-.385.31-1.16-.154-1.47-.154-.152 0-.34.442-.492.898-.788.146-1.83.185-1.83.185-.31.154-.08 2.554-.08 2.554-2.244 1.24-1.16 3.096-1.16 3.096 1.238 6.04 11.534 3.33 12.31 4.105.77.774 2.553.926 3.483.926.926 0 2.086 2.247 3.404 2.48 1.317.232 0-1.78 6.105-3.24 6.102-1.46 8.136-3.96 8.136-3.96 1.912-.37 2.444-2.69 2.587-3.63.018.432.07.91.14 1.455.274 2.102-1.178 2.867-1.178 2.867l5.29-1.588c2.098-.55 1.825-2.377 1.825-2.377 2.01 5.755 5.664 6.12 5.664 6.12.73-2.193.64-2.833.64-2.833l1.645-.09c.067-1.238-1.027-2.144-1.66-2.565l2.573 1.56 1.004-.183c0 .914 1.37 1.734 1.37 1.734l.185-1.184c1.187 1.553 3.38 1.004 3.38 1.004a7.34 7.34 0 0 0-.195-.853c4.68 2.89 12.158-.79 12.158-.79 2.01.455 2.283-.733 2.283-.733 2.284.273 2.813-1.287 2.813-1.287 5.374-.465 9.156-4.286 9.156-4.286 2.646-.182 2.732-2.074 2.732-2.074s2.654.523 5.213-2.675c5.936-8.492 14.814-4.07 14.814-4.07l-5.132.325c-13.425-.09-7.86 9.04-7.86 9.04l.83-.086c1.278.272 5.66 3.744 4.044 6.33-.025.045-.06.086-.09.13-2.737 3.745-7.807.17-9.25-2.99-1.465-3.197-4.39-2.465-4.39-2.465s-7.58 1.28-4.474 7.307l.114.004c.057 1.47.98 3.148 3.684 4.814 1.52 2.148 6.512 2.373 10.18 1.578 1.706-.373 10.71-4.244 10.71-4.244.662-1.962 2.9-1.51 4.91-4.34 2.008-2.833-2.833-3.84-3.93-5.39-1.097-1.555.276-1.28.276-1.28 4.383 2.375 4.748-5.207 4.748-5.207.458 4.384 4.293 5.572 4.293 5.572 2.377-2.373.643-7.216.643-7.216 5.664 10.14 9.094 8.525 9.094 8.525-3.05-1.89-1.514-4.416-1.514-4.416 2.737 10.78 13.977 1.37 13.977 1.37-.548 1.552.002 2.465 1.006 3.47 1.004 1.005 2.192 1.463 1.646 3.29-.55 1.826-5.753 1.462-5.753 1.462s-5.118-.274-4.66 4.02c.27 1.002 3.65 1.368 4.93 1.095 0 0-.527.116 1.364.37.633.08 1.398.093 2.177.07 2.18-.07 4.5-.44 4.5-.44 2.92-.637 2.466-1.645 2.466-1.645 4.473-.825 4.932-3.84 4.932-3.84z" fill="#ffd100" stroke="#000" stroke-width=".798"/><path d="M429.633 216.743c.003-.005.24-.565.69-.632.35-.05.77.208 1.217.75l.244-.183c-.01-.02-1.206-1.76-.73-2.99.213-.547.74-.923 1.568-1.11l-.067-.3c-.933.214-1.533.652-1.786 1.3a2.09 2.09 0 0 0-.136.757c0 .6.21 1.21.428 1.677-.27-.17-.533-.24-.786-.2-.46.07-.682.4-.804.614zm140.98 23.925c-3.05.484-7.53.752-7.887-.17-.062-.166-.073-.825 2.426-2.45l-.292-.45c-2.084 1.36-2.924 2.34-2.633 3.09.64 1.662 7.18.713 8.486.505zm-58.373 1.762c-.696-1.065-.384-2.523.93-4.338l-.434-.312c-1.458 2.007-1.776 3.673-.945 4.943zm-4.123-4.595c.067 1.84 1.367 3.55 3.856 5.074l.28-.458c-2.33-1.425-3.54-2.985-3.602-4.636-.09-2.535 2.588-4.49 2.614-4.51l-.312-.435c-.12.086-2.937 2.14-2.833 4.964zm52.053.685c-.838 1.236-.558 2.733-.547 2.796l.525-.103c-.005-.015-.248-1.347.467-2.396.43-.63 1.12-1.04 2.06-1.218l-.097-.527c-1.087.205-1.895.69-2.41 1.446zm-119.257-23.376l-.165-.042-.023.17c-.004.017-.237 1.638-.973 2.08-.206.122-.428.136-.684.042l-1.248-.76c-.25-.22-.463-.38-.823-.275a1.8 1.8 0 0 1-.343-1.325c.09-.732.6-1.437 1.522-2.095l-.175-.25c-1 .716-1.552 1.492-1.65 2.315-.11.952.44 1.6.464 1.627l.074.086.1-.047c.28-.12.36-.05.63.19l1.348.82c.342.127.66.104.945-.067.76-.456 1.03-1.782 1.09-2.15 3.243.696 5.853-3.245 5.966-3.415l-.26-.167c-.022.04-2.685 4.08-5.792 3.265zm-7.773-.604c-.16.655-.05 1.3.325 1.915.358.583.71.893 1.078.942.45.062.807-.27 1.123-.562.23-.215.448-.415.628-.402l.278.193.24-.19-.497-.307c-.313-.026-.577.22-.857.48-.28.257-.568.53-.874.485-.266-.036-.553-.307-.858-.8-.33-.543-.43-1.11-.29-1.684.35-1.446 2.08-2.51 2.098-2.52l-.157-.26c-.077.045-1.856 1.137-2.236 2.708zm-4.46 20.65c.154-.56.584-1.036 1.275-1.42-.136.013.678.675 1.376.6l.455-.244c.185.16 1.394 1.26 1.394 2.653 0 .292-.055.593-.186.9l.283.117c.884-2.094-1.34-3.952-1.36-3.972l-.082-.063-.137.088-.397.217c-.57.06-1.314-.545-1.32-.55-.94.41-1.42.95-1.596 1.595zm10.325-5.346c-.668.056-2.528.41-3.135 1.377-.22.35-.252.737-.092 1.154l.244.65c.58 1.557 1.18 3.167 1.836 3.53l.15-.265c-.558-.31-1.165-1.938-1.7-3.373l-.243-.65c-.125-.328-.104-.617.063-.883.498-.79 2.17-1.173 2.902-1.234.426-.035.565 1.537.65 2.477l.304-.028c-.122-1.387-.25-2.818-.98-2.757zm-5.1 1.53c-.39.35-.312.875-.307.9.003.142.177 4.032 2.024 4.836l.12-.28c-1.67-.728-1.84-4.55-1.84-4.588 0-.023-.056-.41.21-.643.28-.25.837-.27 1.61-.057l.08-.294c-.89-.247-1.53-.206-1.897.122zm-1.462.318c-.817.57-.784 2.192-.783 2.26l.305-.005c0-.017-.03-1.53.652-2.004.255-.176.59-.183.998-.02l.114-.28c-.51-.21-.945-.19-1.288.05z"/><g transform="translate(-96.907 97.536) scale(.665)"><path d="M862.33 169.49c.022.038 1.31 2.945 1.31 5.305 0 .42-.198.717-.29 1.08-.053-.134-.5-1.365-.5-1.365l-.39.987c-.018.055-.526 1.384.38 2.883 1.2 1.977 4.188 3.243 8.885 3.758h-.002c0 .004.06.055.066.065-.197.026-.343.08-.387.122l-.19.16.026.4c.12.488.677.512 1.783.554.187.01.49.053.705.064.274.077.556.153.556.153l-.094-.108c1.07.073 2.274.337 3.58.825-.288.076-.994.252-.994.252l1.162.458c.088.035 8.648 3.474 12.19 6.303-1.005.87-5.3 4.08-12.735 2.246l-1.246-.306.844.965c.053.058 4.897 5.614 5.9 8.983-1.686.017-8.184-.042-10.454-1.97l-.59.534c.03.05 3.116 4.576 3.805 8.105-.883.116-3 .203-4.25-1.433l-.578-.75-.313 2.036c-.606-.456-1.368-1.137-1.368-1.867v-.48l-1.833.334-3.766-2.283a7.975 7.975 0 0 0-.605-.364l-.036-.022-.027-.016-.39.706s.45.267.578.348c.806.525 2.186 1.67 2.325 3.188-.595.035-2.448.136-2.448.136l.046.426v.067c0 .252-.08 1.304-.847 3.68-1.157-.277-5.37-1.745-7.857-8.875l-.775.192c.004.02.013.114.013.265 0 .65-.23 2.28-2.464 2.86-.013.004-4.15 1.248-6.452 1.937.43-.617.824-1.46.824-2.686 0-.26-.017-.54-.05-.837-.14-1.036-.225-1.9-.225-2.62 0-1.5.37-2.394 1.406-3.03l-.36-.716c-.1.04-9.62 3.82-14.34 2.25.215-.92 1.015-4.16 2.627-7.615l-.208.198c.31-.132.624-.615.363-2.166l-.086-.528-.484.232c-.03.015-3.052 1.363-7.417-.236.09-.358.32-1 1.235-1.38l.27-.108-.027-.293c0-.01-.01-.213-.01-.53 0-1.18.184-3.94 1.88-4.603l-.18-.777c-.055.007-5.16.415-8.257-1.307.812-.56 2.52-1.592 4.505-1.878l.32-.045.02-.318c.005-.017.01-.11.01-.26 0-.404-.154-1.22-.51-2.04 1.18.327 2.59.624 3.09.248l.17-.128-.144-3.1-.803.04.123 2.562c-.504.026-1.788-.23-3.035-.627l-1.233-.392.795 1.025c.645.83.727 1.858.737 2.33-2.79.52-4.977 2.252-5.07 2.33l-.41.338.434.303c2.4 1.67 6.153 1.816 8.08 1.774-1.136 1.28-1.328 3.42-1.328 4.492 0 .22.007.278.01.386-1.362.736-1.567 2.118-1.576 2.182l-.03.3.283.116c4.125 1.644 6.94.85 7.897.497.007.128.035.302.035.393 0 .378-.07.494-.07.494-2.026 4.248-2.875 8.286-2.885 8.324l-.066.334.313.124c3.828 1.53 10.705-.56 13.75-1.634-.4.69-.632 1.464-.632 2.43 0 .808.098 1.717.233 2.73.035.257.05.494.05.724 0 2.28-1.54 3.142-1.615 3.18l.306.74 7.953-2.388c1.84-.478 2.53-1.565 2.824-2.49 3.14 7.445 8.066 8.116 8.285 8.14l.32.028.1-.302c.766-2.287.943-3.45.978-4.01a439.55 439.55 0 0 0 2.463-.13l.02-.362c.004-.063.004-.123.004-.182 0-.658-.205-1.24-.49-1.764.498.3 1.377.834 1.377.834l1.318-.24c.344 1.33 1.923 2.374 2.127 2.5l.51.306s.19-1.212.267-1.74c1.965 1.758 4.753 1.235 4.885 1.202l.352-.09-.052-.357c-.4-2.687-2.204-5.885-3.265-7.595 3.49 1.587 9.85 1.47 10.163 1.46l.475-.015-.093-.465c-.564-2.825-4.094-7.272-5.57-9.04 8.2 1.54 12.606-2.714 12.795-2.907l.288-.306-.317-.28c-2.757-2.4-9.112-5.19-11.665-6.256l.894-.226-.883-.493c-2.135-1.2-4.398-1.35-5.928-1.415l-.007-.012c-.97-1.11-1.466-1.29-1.59-1.316-5.547-.612-7.58-2.166-8.318-3.366-.062-.1-.03-.166-.077-.262.12-.16.244-.318.244-.318.534-.697.725-1.63.725-2.617 0-2.547-1.294-5.457-1.367-5.625l-.74.334zm-25.53-1.63c-.017.08-.608 3.12-3.196 4.543-1.947 1.07-4.52.982-7.64-.266l-.35-.14.037.376c.01.078.215 1.864 1.9 3.172 1.4 1.092 3.407 1.475 5.92 1.2-.84.998-3.543 4.452-3.543 7.802 0 .177.01.354.028.528.344.247 4.58 1.395 6.544-1.116.07 1.075.38 4.52 1.723 5.87.737.73.91 1.802.91 2.66 0 .77-.146 1.365-.146 1.377l-.152.613.51-.37c.164-.12 4.058-2.972 5.303-6.708-.004.01.623-.937 1.825-1.325-.025.163-.046.33-.046.563 0 1.444.633 4.064 4.836 5.67l.345.133-.03-.367a7.135 7.135 0 0 1-.03-.726c0-1.055.147-2.993 1.15-3.997.663-.66.86-1.404.86-2.05 0-.506-.11-.917-.225-1.22.85.216 2.855.863 3.672 2.39 1.186 2.224 5.338.455 5.516.38l-.142-.436c-.017.004-1.746.39-2.837-.358-.48-.33-.767-.84-.87-1.51l-.19-2.31c-.042-1.05-.187-1.714-.713-2.273.55-.05 1.652-.03 2.118 1 .734 1.617 3.25 1.774 3.356 1.783l.86.046-.72-.468c-.025-.014-2.2-1.456-1.823-3.336l.313-1.376c.594-2.48 1.584-6.632.778-9.18l-.438.14c.2.635.282 1.39.282 2.195 0 2.26-.64 4.946-1.072 6.74l-.316 1.395a2.608 2.608 0 0 0-.052.538c0 1.217.79 2.146 1.405 2.705-.74-.16-1.766-.512-2.15-1.37-.606-1.326-2.23-1.387-3.005-1.23l-.542.11.462.306c.73.487.75 1.054.802 2.293l.195 2.358c.113.804.47 1.42 1.06 1.824.513.35 1.115.4 1.664.44-1.233.32-2.924.52-3.53-.62-1.146-2.133-4.293-2.703-4.425-2.728l-.48-.082.24.42c.025.047.357.653.357 1.423 0 .547-.167 1.172-.733 1.736-1.116 1.125-1.287 3.166-1.287 4.295 0 .22.01.252.015.387-3.595-1.512-4.23-3.75-4.23-5.017 0-.54.103-.898.117-.945l.104-.354-.365.062c-1.747.288-2.473 1.71-2.504 1.77-1 2.99-3.71 5.36-4.69 6.148a6.88 6.88 0 0 0 .065-.895c0-.935-.2-2.126-1.05-2.976-1.43-1.43-1.623-5.973-1.623-6.02l-.03-.82-.4.713c-1.582 2.833-6.2 1.472-6.245 1.46-.195-3.58 3.866-8.16 3.908-8.206l.426-.47-.626.09c-2.652.385-4.712.03-6.123-1.06a4.63 4.63 0 0 1-1.644-2.5c3.076 1.148 5.656 1.21 7.642.115 2.774-1.534 3.383-4.675 3.407-4.807 2.913-6.606 5.458-7.65 5.486-7.656l-.16-.43c-.115.04-2.74 1.073-5.768 7.95zm6.65-9.79l-.194.007-2.364 3.24.702.07c12.83 1.248 19.613 8.988 19.68 9.068l.295.344 2.324-2.53-.17-.26c-6.506-10.243-20.136-9.946-20.275-9.94zm.22.804c1.585.004 13.27.365 19.19 9.33-.29.314-.936 1.02-1.28 1.398-1.388-1.438-7.963-7.582-19.238-8.906a631.23 631.23 0 0 1 1.328-1.822zm-2.07 5.966c-1.096 1.495-2.114 3.707-2.114 4.742 0 .198.038.354.122.453.007.01.046.013.06.03-1.337 1.196-2.132 3.195-2.132 5.455 0 1.243.22 2.538.68 3.773l.258.695c1.26 3.424 2.344 6.384 7.788 4.64 5.244-1.674 5.45-2.01 6.77-4.188l.345-.564c.72-1.17 1.506-1.404 2.343-1.652 1-.3 2.034-.608 2.942-2.4l.883-1.324c.953-1.313 2.142-2.94 2.285-5.023l-.46-.03c-.132 1.95-1.28 3.517-2.197 4.78l-.922 1.387c-.82 1.616-1.713 1.884-2.662 2.167-.883.265-1.79.536-2.604 1.855l-.348.566c-1.27 2.097-1.43 2.367-6.512 3.995-5.027 1.606-5.946-.9-7.218-4.364l-.257-.7c-1.434-3.82-.314-7.67 1.55-9.05l.64-.475-.888.1c-.01-.038-.02-.07-.02-.13 0-.625.682-2.612 2.038-4.465 1.158-1.58 3.89-3.143 3.92-3.158l-.23-.4c-.115.07-2.845 1.63-4.058 3.288zm-2.44 13.81c.9.624 2.166.58 3.692 0 .007.544.13 1.7 1.078 2.538 1.116.988 2.965 1.178 5.5.574l-.108-.446c-2.375.567-4.09.407-5.087-.47-1.072-.944-.922-2.45-.918-2.462l.042-.394-.367.155c-1.537.662-2.74.702-3.575.125-1.496-1.04-1.384-3.755-1.38-3.786l-.46-.022c-.002.124-.128 3.002 1.58 4.188zm2.91-3.66c-.656.156-.827.706-.827 1.13 0 .102.01.197.024.28.115 1.18 1.398 1.968 2.563 2.305 1.133.328 2.528.35 3.077-.356.22-.284.38-.79-.1-1.61-1.75-2.98-4.58-1.813-4.737-1.75zm1.888 3.27c-1.02-.29-2.142-.952-2.232-1.932-.022-.094-.132-.752.448-.89l.046-.015c.104-.047 2.61-1.136 4.19 1.55.28.48.327.845.132 1.093-.338.44-1.454.526-2.584.195zm-1.934-3.253c.004-.004.046-.018.046-.018l-.046.016zm1.626 5.973c-.295 2.514-.115 2.574.066 2.63l.16.05.18-.212 1.456-1.92-1.828-.866-.034.318zm.42.376l.738.348c-.198.253-.566.744-.845 1.11.007-.378.053-.912.108-1.458zm-4.21-2.396l-.097 2.376 1.995-2.413-1.887-.21-.01.247zm.45.266l.55.06-.584.706c.02-.37.027-.575.033-.766zm-1.78-1.026c.017.03 1.484 2.9 1.745 3.947.167.665 1.015 1.422 2.027 1.797 1.008.38 1.953.318 2.66-.174l1.324-1.1c.44-.426.588-.545.945-.484l.08-.453c-.6-.1-.895.18-1.34.603l-1.27 1.058c-.78.546-1.74.313-2.24.12-.945-.35-1.63-1.028-1.74-1.48-.276-1.094-1.72-3.92-1.78-4.04l-.41.206zm1.91-8.6c-1.62.748-2.305 2.713-2.333 2.796l.435.15c.007-.018.654-1.87 2.092-2.53.702-.32 1.488-.31 2.344.026l.17-.425c-.973-.393-1.884-.396-2.708-.017zm10.89 5.16c.128.096 3.188 2.414 1.43 5.243l.39.243c1.984-3.188-1.514-5.83-1.545-5.858l-.275.372zm-9.2.45s-.476 1.73 1.957 2.34c0 0-2.288-.02-2.433-.61-.154-.59.013-1.9.476-1.73zm7.44 2.07c0 .15-.122.274-.27.274a.275.275 0 0 1-.272-.274c0-.148.124-.27.27-.27.15 0 .272.122.272.27zm.27 1.08c0 .15-.122.275-.27.275a.272.272 0 0 1-.27-.275.27.27 0 0 1 .27-.27c.148 0 .27.125.27.27z"/><circle r=".27" cy="177.825" cx="848.01"/><path d="M848.75 179.45a.27.27 0 1 1-.54 0c0-.15.124-.275.27-.275.148 0 .27.123.27.275zm-7.1-7.32a.273.273 0 0 1-.546 0c0-.146.125-.27.27-.27.155 0 .276.124.276.27z"/><circle r=".27" cy="173.22" cx="841.65"/><circle r=".27" cy="172.68" cx="840.09"/><path d="M840.83 174.3a.276.276 0 0 1-.275.27.273.273 0 0 1 0-.545.278.278 0 0 1 .275.275zm4.74-9.55s3.518 2.165.132 6.228c0 0 1.666-1.237 1.836-3.362.178-2.123-1.207-3.816-1.968-2.866zm13.5 5.84c-1.133.582-2.764-.496-3.58-1.514-.814-1.02-2.5-1.28-3.55.58-1.048 1.864-2.56 2.562-2.56 2.562s1.477-.872 2.998-2.503c1.512-1.627 2.385-.32 3.87.466 1.484.788 1.717.96 2.763.554l.06-.143zm-.29.27c-.463.348-1.312.64-2.212-.09-.9-.727-1.658-1.715-2.792-1.134-1.138.584-3.293 2.212-3.293 2.212s3.495-2.417 4.165-1.892c.668.526 2.243 1.805 3.202 1.43.96-.383.93-.526.93-.526zm-2.68 1.48c-1.105-.844-2.212.99-3.143.76-.93-.237-1.69-1.78-1.69-1.78s.877 1.632 2.097 1.253c1.224-.377 2.07-1.135 2.824-.555.757.585-.088.322-.088.322zm-1.73.23c-2.183.226-2.4-1.813-2.4-1.834 0 0 .69 1.78 2.62 1.457l-.22.377zm-.07-1.39c.143.552.112.803-.473.803-.588 0-.987-.196-.987-.766 0-.57 1.374-.392 1.46-.037zm-7.84-3.03c0 .38-.313.685-.7.685-.386 0-.462-.26-.462-.636s.076-.73.462-.73c.387 0 .7.305.7.68zm-2.41-2.44s3.74.04 1.888 4.72c0 0 1.425-2.33.53-4.006-.896-1.674-2.304-1.252-2.304-1.252s-.343.317-.114.538zm-.11 1.87c-.01.938.616 1.907 1.856 2.876l.286-.36c-1.123-.876-1.69-1.72-1.682-2.506.007-.786.612-1.253.62-1.26l-.276-.37c-.032.026-.79.604-.804 1.62zm.83.79c.16.54.577.946 1.244 1.212l.17-.425c-.527-.21-.855-.518-.972-.913-.237-.796.403-1.724.41-1.732l-.372-.267c-.036.048-.78 1.12-.48 2.125zm5.13 2.6s.696 1.512-.32 3.143c-1.02 1.63-.992 1.544-.992 1.544s1.224-2.24.76-3.175c-.463-.93.552-1.512.552-1.512zm14.55 15.79c3.842.724 12.51 7.52 12.6 7.59l.498-.636c-.365-.282-8.915-6.985-12.948-7.744l-.15.79zm3.41 9.59c.257 3.41 3.967 5.528 4.127 5.614l.392-.7c-.04-.018-3.49-1.996-3.72-4.975l-.8.06zm-9.21.71c0 3.824 3.584 8.45 3.738 8.647l.632-.497c-.034-.043-3.567-4.602-3.567-8.15h-.803zm-12.15.43c.632 1.262.566 1.902.403 2.215-.19.353-.58.407-.594.41l.092.8c.295-.034.887-.24 1.2-.815.383-.7.253-1.7-.383-2.964l-.72.354z"/></g><path d="M429.57 216.3s.155 1.702 1.47 2.712c0 0-.154-1.86.234-2.633 0 0-.696-.776-1.704-.08zm2.627 1.084s.31 1.546 1.24 2.244l.544-.154s.234-1.937.543-2.17c.31-.23-1.315.698-2.325.08zm2.327-.08l1.006 1.55 1.16-.62-.232-1.857s-.695-.157-1.934.927zm4.72.313l-1.316 1.084s-.696-.54-1.24-.463l.234-1.703s.93-.697 2.322 1.084zm-9.368 16.023s-.23-2.4.08-2.555c0 0 .926.31 1.314-.08 0 0 .543 1.938.387 2.712-.154.773-1.083.466-1.78-.077zm5.964-2.48s-.077-2.013.31-2.247c0 0 1.934.233 2.4-.772l.696 1.937s-2.168-.233-3.406 1.084zm-2.088.386s.387-2.09.775-2.167c0 0 1.006.307 1.316-.08l-.077 2.555s.077-1.085-2.014-.31zm-2.247.312s.464-1.858.775-1.858 1.085.464 1.47.155v1.394s-1.705-.39-1.935 1.932l-.31-1.625z" fill="#fff" stroke="#000" stroke-width=".36"/><g fill="#00a651" stroke="#000" stroke-width=".78"><path d="M461.683 270.4s5.262 4.887 3.886 9.147c0 0 3.38-7.268-.25-9.4-3.638-2.13-3.76-.496-3.638.253z"/><path d="M455.04 275.154s-1.375 1.884.126 3.26c0 0-1.627 2.378-.372 4.386 0 0-1.005 2.13-.753 4.386 0 0-.877 3.507 1 5.14 0 0 2.01 1.002 2.887.124 0 0 1.753-2.63.624-5.39 0 0 1.254-2.255-.123-5.137 0 0 .376-1.63-.752-3.507 0 0 .752-1.255.124-2.256 0 0-2.506-2.634-2.758-1.006z" fill="#964b36"/><path d="M456.544 269.017s-6.265-12.027-10.65-12.53c-4.388-.503-4.637-4.76-4.637-4.76s.5 2.003 4.01 2.003 10.276 4.886 11.027 8.645c.75 3.76 1.505 3.26 1.505 3.26l-1.257 3.382zm0-.877s2.256-15.163 12.157-15.415c9.9-.252 6.644.752 9.02-.878 0 0-6.636 3.51-10.773 4.01-4.134.502-7.52 8.52-7.393 10.026.124 1.503-2.255 4.386-3.383 3.385-1.127-1.003.375-1.13.375-1.13zm2.254 5.644s2.254-6.015 6.14-4.008c0 0-3.01-5.767-8.397-.754 0 0 2.384 3.258 2.26 4.762zm-7.52-6.024s3.26 13.41-1.754 17.544c0 0 .124-6.888-2.883-11.024-3.003-4.138 3.01-8.646 4.64-6.52zm.38 2.388s5.89 5.64 6.267 7.52c.376 1.88 1.753-5.64-1.003-7.768-2.757-2.133-5.764-2.508-5.764-2.508l.5 2.756z"/><path d="M440.793 284.927s.534 2.368 1.987 2.825c0 0 .075 1.76 1.375 2.293 0 0-.69 1.453.46 2.368 0 0-.232 2.903.838 3.516 0 0 2.6-.155 3.514-.92 0 0 .536-1.907-.913-3.82 0 0 .226-1.834-1.226-2.826 0 0 .46-2.448-1.375-3.363 0 0-.304-1.987-1.452-2.98 0 0-2.212 3.133-3.206 2.906z" fill="#964b36"/><path d="M443.692 282.022s-7.716-2.827-11.995 1.223c0 0 6.57.918 7.41 2.216.84 1.3 4.89-2.136 4.585-3.44zm-2.367 4.814s-.61-.534-1.374-1.07c-.762-.534-7.255-2.292-8.175 3.973 0 0-2.37-6.19 1.07-7.03 3.44-.843 6.19 1.145 8.48 4.125m-5.078-12.806s2.378 5.136 3.257 5.39c.877.25 1.502-.626 1.502-.626s-3.13-4.637-4.76-4.765zm-1.756-7.893s-2.005-6.64-4.384-4.886c-2.38 1.755-1.755 6.515-1.755 6.515s-4.76-4.884-2.005-8.77c2.76-3.885 8.146.376 8.146 7.142z"/><path d="M439.882 279.795s0 1.253.878 1.627c.878.377 2.506 1 2.506.252 0-.75-1.252-3.634-1.756-3.257-.502.377-1.376.372-1.628 1.378z" fill="#964b36"/><path d="M438.38 272.03s-.25-5.764 3.506-7.897c0 0 .754.13 1.13-.998 0 0-3.01 7.265-2.132 10.9l-.124.5M439.13 265.008s6.767-14.036 15.04-9.15c0 0-8.647 1.756-11.778 7.896l-3.135 4.632-.125-3.378zm-3.636 5.14s-2.005-9.398-3.258-10.65c-1.254-1.253-3.384-2.63-5.89-.502 0 0 4.386-3.886 9.022-.626 4.635 3.26 3.633 8.396 3.633 8.396l-.5 6.517-3.13-2.883M442.76 281.297s-8.27-15.66-13.656-4.508c0 0-1.006 2.88.122 4.004 0 0-3.008-2.253-1.63-7.767 1.378-5.51 10.525-3.007 13.16 1.505 2.63 4.51 3.383 6.768 3.007 7.016-.378.25-1.002-.253-1.002-.253zm23.31 4.515s6.02-12.407 9.525-6.77c0 0 1 2.757-.504 3.888 0 0-2.376-2.883-4.505.626-2.13 3.507-1.254 3.26-1.254 3.26s-2.255.625-3.26-1.005zm9.017-2.886s3.257 1.752 2.133 5.26c0 0 4.383-8.393-1.63-9.146 0 0 1.13 2.633-.503 3.886zm.38-8.516s7.895 2.253 8.145 5.64c0 0 1.38-6.52-3.133-8.524 0 0-5.39.88-5.015 2.883zm3.51-10.406c3.384-6.64 7.644 2.13 7.644 2.13s1.504-6.89-2.754-8.145c-4.263-1.255-7.018 14.66-7.018 14.66l-5.014 1.126s1.38-13.907 8.897-15.162l.877.127"/><path d="M472.96 268.013s-4.76-9.773-8.02-10.774c-3.26-1.005 1.757-2.51 3.76-.63s5.762 4.26 5.387 9.273l-1.128 2.13zm-4.888 13.41s1.378-6.64 5.137-8.645c3.757-2.006 7.266-1.252 7.266-1.252s-4.512 1-5.262 3.26c-.753 2.253-2.006 2.377-2.006 2.377l-5.138 4.26z"/><path d="M466.07 285.812s-2.13 4.01-1.63 4.635c0 0-2.253 3.258-1.377 4.887 0 0 2.257 1.754 3.26 1 0 0 2.628-3.63 1.877-5.637 0 0 1.754-2.38 1.13-3.882 0 0-2.63.125-3.26-1.003z" fill="#964b36"/><path d="M455.048 278.65c.14.073 1.406.687 2.258.403l.608-.52-.478-.238c-.312.62-1.69.11-2.15-.12l-.238.476zm-.206 3.89l-.104.525c.108.02 2.65.513 3.863-.564l-.354-.396c-1.013.9-3.378.445-3.403.438zm-.645 4.428l-.314.433c.03.025 2.985 2.13 4.876-.17l-.416-.34c-1.57 1.908-4.043.156-4.148.08zm-11.476.64l.113.285c.106-.044 2.61-1.05 2.77-2.88l-.305-.028c-.143 1.644-2.552 2.612-2.576 2.622zm1.418 2.286l.022.305c.096-.01 2.408-.18 2.81-1.798l-.297-.077c-.348 1.4-2.513 1.565-2.536 1.568zm.48 2.366l-.018.308c.11.005 2.7.14 3.578-1.295l-.26-.162c-.785 1.283-3.276 1.154-3.3 1.15zm19.633-1.62c.047.047 1.163 1.15 2.467 1.1.638-.022 1.204-.316 1.682-.865l-.405-.35c-.377.433-.814.664-1.295.682-1.07.04-2.065-.935-2.075-.947l-.375.38z" fill="#000" stroke="none"/></g><path d="M542.065 299.8a1.104 1.104 0 0 0-.405.268l.405-.268zm9.215-2.307c-.09-.23-.148-.132-.266-.234-.168-.14-.265-.584-.414-.75-.088-.1-.19-.003-.284-.028-.215-.474-.47-.973-.696-1.43a.397.397 0 0 0 .063-.213 7.61 7.61 0 0 0-.114-.4c-.066-.1-.168-.043-.23-.2-.07-.157-.017-.466-.04-.65-.02-.156-.08-.24-.07-.46.01-.19.11-.41.1-.575-.007-.103-.13-.337-.166-.425-.15-.357-.273-.695-.29-1.137-.02-.4.06-.644.09-.99.038-.417-.182-.62-.182-1.003.002-.293.126-.624.162-.887.048-.36.052-.883.022-1.252-.027-.352-.127-.565-.072-.962.014-.098.06-.176.072-.312-.003-.098-.003-.192-.003-.287v-.57c0-.186.02-.394.003-.575-.016-.15-.104-.305-.104-.423 0-.202.13-.3.102-.575-.018-.198-.047-.245-.092-.418-.088-.33-.028-.66-.082-1.01-.024-.17-.078-.223-.094-.415-.022-.226.048-.305.07-.465.023-.16.047-.37.025-.538-.023-.204-.12-.348-.093-.57l-.074 2.515c-.062-2.194-.15-4.225-.15-4.225l-3.336-1.567s-.283 6.126-.21 6.98c.066.854.353 6.698.21 7.41-.144.712-.495 4.274-.495 4.274s-1.63 1.14-2.27 2.42c-.64 1.282-.496 1.71-.71 1.71l1.584-.247-1.18.79a.72.72 0 0 1 .735.113c.027.022.203.173.226.173.062 0 .148-.16.224-.188.245-.084.452.377.685.342.125-.02.296-.15.398-.284.085-.114.117-.312.206-.388.08-.07.28.01.363.01.233 0 .47.008.702 0 .31-.008.562-.445.85-.692.265-.224.46-.303.746-.287.313.024.595.316.91.334.24.012.41.04.603-.21.134-.176.23-.437.356-.62l.787-.122c.156.065.316.137.45.132.2-.01.41-.034.61-.003.075.01.225.19.287.145.042-.034.114-.274.157-.346-.017-.096-.046-.337-.08-.417zm-6.748 2.194c.2 0 .385-.046.554.102l.08.152a.173.173 0 0 0 .166.024c.113.076.136.12.26.148.116.025.243-.005.36-.003.145.006.216.056.352.11.238.1.395.007.6-.14.24-.177.327-.043.556.177.17.164.136.15.29.037.024-.053.05-.104.077-.148.077-.032.155-.053.233-.067.128-.06.255-.054.375-.1.127-.05.22-.19.354-.165.113.023.246.118.356.153a.747.747 0 0 1 .24.12c.16-.327.512-.425.736-.583.234-.162.45.034.707.036.136 0 .19-.08.29-.11.107-.04.23.018.336-.025.11-.042.13-.148.253-.162.226-.028.48.34.705.41.127.043.715.175.628-.258-.083-.41-.452-.126-.53-.415-.043-.165.043-.398-.008-.583-.044-.17-.23-.364-.34-.4-.14-.044-.22.1-.337-.012-.1-.09-.136-.428-.22-.562-.115.083-.186.16-.336.13-.172-.042-.155-.1-.282-.262-.278-.347-.438.21-.694.12-.194-.06-.375-.55-.527-.75-.08-.107-.31-.45-.428-.375-.198.13-.018.504-.122.67-.073.116-.336-.002-.43.016-.15.034-.18.073-.288.253-.22.364-.347.652-.688.61-.162-.018-.284-.182-.442-.122-.17.066-.263.246-.45.267a.977.977 0 0 1-.42-.035c-.13-.058-.274-.3-.392-.367a.153.153 0 0 0-.16-.03 8.658 8.658 0 0 0-.194-.112c-.206-.06-.19-.052-.273.22-.048.168-.067.342-.13.502-.06.134-.19.3-.267.39-.144.154-.213.113-.4.17-.15.048-.35.28-.43-.02-.12-.453.333-1.13-.17-1.012-.133.03-.21.055-.292.25-.09.224-.018.37-.058.615-.053.31-.643.83-.526 1.11.078.198.342-.105.414-.057.12.084.085.28.17.413.18.273.708-.423.738-.046m-2.142-2.71c0-.04-.008-.076-.01-.117-.142-.025-.3-.175-.43-.178-.123-.007-.36.292-.445.434-.258.427-.187 1.01-.62 1-.108-.002-.357-.074-.45-.01-.164.117-.06.46-.06.692 0 .22.1 0-.018.285-.035.078-.14.104-.17.208-.087.373.223.255.36.25.35-.002.7-.002 1.047 0 .21.005.337-.07.533-.145.13-.045.405-.043.514-.158a2.21 2.21 0 0 0 .186-.407c.028-.144-.027-.317.008-.437.055-.21.243-.13.277-.414.09-.697-.652-.176-.535-.86" fill="#964b36" stroke="#000" stroke-width=".279"/><path d="M550.808 277.9c0 .9-.617 1.627-1.382 1.627-.756 0-1.378-.726-1.378-1.627 0-.9.622-1.63 1.378-1.63.764 0 1.382.73 1.382 1.63zm-4.508-2.008c0 .9-.617 1.627-1.38 1.627s-1.38-.73-1.38-1.63c0-.9.62-1.63 1.38-1.63s1.38.73 1.38 1.63zm2.38.625c0 .9-.617 1.627-1.378 1.627-.762 0-1.378-.726-1.378-1.627 0-.902.616-1.63 1.378-1.63.76 0 1.378.73 1.378 1.63zm-2.307 1.49c0 .9-.62 1.63-1.38 1.63-.76 0-1.378-.73-1.378-1.63 0-.9.617-1.628 1.378-1.628.76 0 1.38.725 1.38 1.625zm2.14 1.243c0 .9-.62 1.63-1.38 1.63-.76 0-1.38-.73-1.38-1.63 0-.9.62-1.628 1.38-1.628.76 0 1.38.728 1.38 1.627z" stroke="#000" stroke-width=".519"/><path d="M549.18 261.478s13.906-19.42 28.82.754c0 0 .124 2.006-1.254 4.135l-.377-1.628-.878.25-.25-1.005-1.633-.124.504-2.13-1.757 1.378.252-1.505-2.006 2.008.252-4.262-2.132 3.634.25-2.504-.75 1.125-.453-1.46-.673 1.46-1.005-.75v1.002l-1.752-1.503-.625 2.004-.877-2.13-.25 1.503-.88-1.754-.123 1.88-2.884-1.254.628 1.755-1.376-1 .25 1-1.876-.374.123 1.126-2.006-.377.377 1-2.76-.373 1 1.13-.277.457s15.066-4.968 16.07 13.827l-2.76 1.378.754-1.5-.753-.504-2.254-1.752.626-2.383-.75.252-.128-1.377-.375.25-.88-1.38-.25.503-.625-1.63-.626 1.13-.378-2.757-1 1.757-.128-1.004-.377.626-1.254-1.504-.373 1.002-.504-.75-.375.875-1.38-1.255v1.006l-.875-.754-.38.502-2.125-1.128-.13 1-1.125-1-.377 1s13.662 7.772 9.4 20.428l-.755 1.628-.247-4.258-1.25 2.254.87-4.887-.87.878-.13-1.877-1.124 1.878-.382-2.13-.497.628-.755-3.26-.626 1.38-1-3.634-.752 1.504-.502-3.13-.5 1.88-1.506-2.76-.248 1.126-.876-2.253-.504.753s-2.506-.127-3.257-.753c-.752-.624-2.883 3.76-2.883 3.76l.252-2.632-.877 1.752v-1.752l-1.63 5.26-.377-3.757-.877 3.258-.378-1-.25 1.38-.5-.504-.438 1.48-.818-.6v2.003l-.75-1.002-.627 3.008-.376-1.25v1.376l-.626-.75-.63 3.01-.875-1.254-.122 2.128.374 1.63-1-.5.377 2.627s-3.884-7.264.754-14.283c4.633-7.012 10.9-8.894 10.9-8.894l-.63-.624-.124-.63-3.76 1.88.128-1.13-1.003.877-.25-1.252-.628 1.128-.122-.502-.88 1.38-.502-2.005-.625 2.383-.59-1.666-1.29 3.544v-2.63l-1.002 2.757-.374-3.008-.75 3.507v-3.132l-1.13 3.132-.752-3.006-.502 2.88-.75-2.253-.755 3.382-1.125-3.008-.627 4.51-.75-1.755-.126 3.26-.875-2.005.874 4.258-1.128-1.628.377 2.63-1.628-2.882.124 3.387-.88-1.13-.377 1.253s-.372-13.032 8.52-15.54c8.9-2.505 14.665.754 14.665.754l-3.383-2.757.375-.88h-1.252l.5-1-2.63.125.75-1-2.005.25v-.627l-1.253 1 .502-1.125-1.755 1.125-.106-1.666-.896 1.42-.498-1.506-4.013 4.008 1.127-4.134-.75.88-.125-.88-1.13 1.756-.25-1.254-.502 1.503-.377-1.754-.874 1.753-.88-1.627-.374 2.13-.63-1.13-.75 1.63-1-1.005-.128 1.002-2.005-.877.502 1.504-1.505-1.253-.377 2.005-.874-1.002-.627 2.508-.626-2.38-.626 1.88s7.837-20.137 27.66-7c0 0 2.16 2.11 2.663 3.615.502 1.504.127.253.127.253l-.378-13.91.75 6.015.502-2.13-.124 3.132 2.002-4.387s-2.378 7.27-1.503 9.9c0 0 .88-8.394 3.887-9.398l-2.757 6.01.876-.127-.627 1.255h.75l-.91 1.988-.47 1.02.5 1 .758-.758z" fill="#00a651" stroke="#000" stroke-width=".519"/><path d="M547.118 269.65l.395.355c.053-.055 1.292-1.376 3.373.38l.345-.41c-2.486-2.102-4.1-.345-4.11-.326zm-.605-6.823l-.082.482.97-.414c-.156.276-.665 1.162-.665 1.162l1.44-.48-1.786 2.34.424.327 2.843-3.724-1.766.59.76-1.333-1.53.656c.1-.618.317-1.91.317-1.91l-.53-.09-.393 2.39zm-2.653.153s.35.777.615 1.356c-.114-.047-.98-.394-.98-.394l2.89 5.115s.35-.446.37-.474c-.29.747-.58 1.5-.58 1.5l.5.195 1.244-3.206-.46-.26-1.005 1.284c-.27-.48-1.27-2.25-1.745-3.088.06.022.803.32.803.32l-.8-1.763 1.084.677v-1.906h-.534v.943l-1.77-1.107.367.806zm-1.822 6.423l.213.49c.785-.335 1.43-.39 1.92-.157.574.275.747.866.75.87l.514-.138c-.007-.034-.234-.83-1.026-1.21-.633-.306-1.43-.257-2.37.145zm2.245 5.418l-.44-2.8.53-.083.44 2.802zm3.85-.46l-.715-2.14.508-.17.714 2.14zm1.41 1.583l-.535-2.138.52-.13.536 2.138z"/><path d="M442.568 340.237s-2.35-1.067-3.42-.286c-1.068.788-.922 1.925-1.85 1.854 0 0 3.56.783 4.343-.144.785-.923.93-1.21.93-1.21m.43.77s-1.545 2.068-1.01 3.28c.533 1.21 1.677 1.314 1.407 2.203 0 0 1.53-3.307.795-4.272-.734-.96-.98-1.16-.98-1.16m-2.816-5.772s-2.467.765-2.743 2.057c-.282 1.294.585 2.052-.153 2.614 0 0 3.18-1.783 3.15-2.997-.03-1.212-.11-1.518-.11-1.518m1.307.694s1.17-2.306.433-3.404c-.735-1.106-1.883-1.01-1.77-1.93 0 0-.94 3.52-.048 4.345.89.82 1.17.977 1.17.977m-2.206-.826s.056-2.576-1.085-3.25c-1.14-.674-2.134-.094-2.432-.975 0 0 .682 3.583 1.844 3.94 1.16.35 1.48.37 1.48.37m4.41 4.21s2.703-.928 2.92 1.994c.212 2.92-.145 1.923-.145 1.923s-1.424-3.134-2.99-3.633l.214-.285z" stroke-width=".519" fill="#00a651" stroke="#000"/><path d="M442.954 341.268c0 .062.283 2.27.283 2.27l.38-.05-.286-2.208c.01.003.927-4.854.927-4.854l-.377-.07-.926 4.91zm-2.46-.718l-.126.36c1.293.455 3.1-.967 3.174-1.027l-.24-.297c-.016.01-1.713 1.352-2.808.964zm3.39-2.85l-6.052-3.06.24-.478 6.053 3.06zm-4.388-.687l-.377-.378 1.21-1.21.376.378zm2.12-.588l-1.283-2.78.485-.223 1.28 2.78zm1.79 3.4l.034.534c1.646-.113 2.048.953 2.05.965l.526-.11c-.062-.304-.72-1.518-2.61-1.39z"/><path d="M471.17 341.055c2.018-1.13 2.423-5.09 2.423-5.09-.483 1.456-4.196 2.908-4.196 2.908 2.744-1.7 6.052-9.364 6.052-9.364-.89 2.743-8.07 5.002-12.675 7.585-4.603 2.58-2.18 10.01-2.18 10.01-1.29-.888-3.794-4.84-4.276-8.316-.49-3.47-1.86-4.84-5.008-5.246-3.15-.404-5.006 3.146-5.006 3.146l-4.68 2.426 4.76.16s3.394 1.132 3.394 3.796c0 2.665-2.986 13.32 1.935 19.295 3.426 4.152 16.067 6.538 16.067 6.538m-5.892-19.62s.968-4.763 4.116-4.6c3.148.16 4.036-3.55 5.893-4.118 1.854-.564 11.46-3.146 12.51-7.75 0 0-.887 7.59-9.684 11.384 0 0 7.1-2.34 7.91-3.874 0 0-3.15 6.78-10.82 7.83 0 0 7.186-.564 8.236-2.5 0 0-3.23 4.277-8.556 4.844 0 0 4.923 2.016 6.216.32 0 0-2.665 3.148-5.976 3.39l.89.242s-3.148 3.715-6.62 1.21c-3.47-2.503-3.553.65-3.553.65m6.603.154s4.055 6.783 4.46 10.415c0 0 7.75 8.56 10.656 9.04 0 0-1.373.565-3.877-1.53 0 0 2.1 2.18 2.504 2.26.4.083-1.698-.16-2.02-.73 0 0 .89 1.296 1.45 1.457l-.563-.16s-1.05-.163-1.535-.567c-.485-.403-.162 1.046-.162 1.046s-1.21-.323-1.612-.726c-.404-.402.162.89.162.89l-1.05-.243-.725.483s-.08.485-.57.08c-.48-.4-1.37 0-1.37 0s-.647.568-.97.163c-.32-.403-1.543 1.553-1.543 1.553l-5.083-12.27" fill="#fff" stroke="#000" stroke-width=".665"/><path d="M473.88 378.724l-6.424-12.228.674-.354 6.425 12.228zm5.613-.824l-10.99-12.306.57-.51 10.99 12.306zm2.507-1.085l-12.542-11.688.52-.56 12.543 11.69z"/><g transform="translate(-96.907 97.536) scale(.665)"><path d="M823.44 360.84s-1.23-2.204-2.303-1.376c-1.07.825-1.685.976-1.87.92 0 0 1.076.058 1.687-.523.613-.584 1.656-.214 2.486.98zm-6.66-1.01s.676 1.398.685 1.422c-.068.004-.763 2.257-.763 2.257l.553.17.75-2.455c-.013-.213-.703-1.642-.703-1.642l-.522.246zm6.38.67s-.918 1.075-2.176.766l-1.252-.306s1.066.06 1.776.093c.7.03 1.618-.337 1.652-.553zm-.3.22s-1.132-1.195-1.9-.858c0 0 1.35-.43 2.116.73l-.216.128zm-.19-.22s-1.286.887-2.7-.09l-.085-.066.183-.06c0 .002 1.778.736 2.602.216z"/><circle r=".383" cy="360.284" cx="821.573"/></g><path d="M450.015 359.625s-.662 1.22-.316 1.953c.35.734 1.92 1.114 2.13 2.092.21.98.734.978 1.467.842.735-.14.874-.175.874-.175s-3.074-1.645-3.88-4.296l-.276-.414z"/><path d="M549.398 334.792s5.597-7.38 10.56-5.44c4.963 1.94 8.188 2.872 8.188 2.872s.094 4.97-2.545 4.97c-2.63 0-5.155-4.964-7.555-3.49-2.404 1.474-4.378 3.49-4.533 4.188-.154.696-6.356.852-4.11-3.1zm-21.242 35.583s-1.548 1.626-.85 2.016c.7.388 2.092-.08 2.092-.62 0-.546-.928-1.55-1.242-1.394zm-1.236 1.55s-2.867-1.633-5.116 2.244c-2.252 3.874-4.11 10.155-5.428 11.01-1.317.85 12.793-6.204 12.948-9.15 0 0 .93-3.8-.543-3.724-1.47.082-1.55.237-1.86-.383zm.385.465s-2.945.693-3.565 4.878c-.62 4.19-4.73 6.36-4.96 6.513m49.374-51.553s-4.48 1.558-3.706 4.66" fill="#964b36" stroke="#000" stroke-width=".48"/><path d="M533.74 341.3s.155-10.62 8.833-10.156c1.644.152.86 2.092.86 2.092s1.877-1.315 2.735.774c0 0 2.737-1.24 3.048 1.476 0 0 2.972-.386 2.58 2.015 0 0 2.032-.462 1.956 1.243 0 0 2.344-.93 2.108 1.473 0 0 2.58-1.706 2.192 1.394 0 0 2.658-1.86 3.592 1.24.938 3.1-2.656 9.69-6.174 11.396" fill="#fff200" stroke="#000" stroke-width=".319"/><path d="M557.855 341.946c.012.083 1.17 8.31-3.495 11.32l.164.26c4.834-3.12 3.645-11.54 3.635-11.625l-.306.047zm-5.618 9.01l.216.22c2.954-2.877 3.59-10.624 3.612-10.95l-.302-.027c-.007.08-.65 7.96-3.526 10.753zm-2.76-1.843l.306.025c.38-4.784 4.12-10.256 4.16-10.312l-.253-.17c-.04.053-3.824 5.593-4.212 10.457zm-2.167-1.396l.305.03c.533-5.77 4.344-10.103 4.38-10.144l-.225-.205c-.04.043-3.917 4.447-4.46 10.32zm-3.024-1.928l.304.01c.303-6.815 4.774-10.16 4.818-10.19l-.18-.25c-.044.034-4.633 3.46-4.942 10.43zm-2.793-1.698l.307-.01c-.223-6.2 4.545-9.914 4.594-9.952l-.185-.24c-.05.04-4.944 3.842-4.718 10.203zm-5.033-2.267l.302.038c.83-6.713 6.806-8.46 6.866-8.477l-.083-.294c-.06.016-6.232 1.814-7.085 8.733z"/><path d="M528.62 354.173s-1.47-9.85 4.42-12.947c0 0 1.09-.233 1.707 1.163 0 0 3.103-1.32 3.18 1.313 0 0 1.55-1.24 1.938.465 0 0 3.334-.697 2.714 1.783 0 0 2.79-.774 2.555 1.627 0 0 2.792-1.008 2.325 1.085 0 0 2.945-.695 2.25 1.707 0 0 3.645-.387 2.56 2.17 0 0 2.713-.697 2.09 1.396 0 0 3.568.62 1.938 2.87-1.627 2.244-5.737 5.656-9.764 7.13m-21.09.156s-2.405-8.214 2.173-10.31c0 0 .848-.235 1.003.62 0 0 1.01-1.32 1.787-.154 0 0 2.323-1.086 2.87.62 0 0 1.547-1.32 2.324.616 0 0 1.475-.617 1.475.93 0 0 2.015-.85 2.015 1.01 0 0 1.934-.775 1.55 1.317 0 0 2.945.467 2.092 1.86 0 0 2.64.698 1.628 1.786 0 0 2.867-.31 1.317 1.627 0 0 2.17-.695.932 1.71-1.244 2.4-5.118 5.036-7.83 5.346" fill="#00a651" stroke="#000" stroke-width=".319"/><path d="M528.31 370.6s-5.117-4.96-2.71-6.432c0 0 1.08.308 1.47 1.394 0 0 1.24-1.782 1.94.077 0 0 1.86-.62 1.86.622l1.47 1.086s1.71-.158 1.4.93c0 0 1.86-.236 1.78.773 0 0 1.63.077 1.477 1.16 0 0 2.787.466 1.548 1.865 0 0-4.884 1.005-8.294-.39 0 0-1.785-.62-1.94-1.086z" fill="#00a651" stroke="#000" stroke-width=".319"/><path d="M545.855 362.404l.11.284c3.03-1.168 8.295-8.354 8.52-8.66l-.248-.182c-.055.077-5.434 7.422-8.382 8.557zm-1.722-1.31l.148.266c2.64-1.472 7.89-8.428 8.113-8.724l-.243-.184c-.054.074-5.436 7.203-8.018 8.64zm-1.496-.612l.197.234c2.785-2.312 6.842-9.95 7.015-10.273l-.27-.144c-.04.076-4.204 7.91-6.944 10.182zm-1.37-1.762l.303.043c.53-3.86 5.953-9.938 6.006-9.998l-.227-.204c-.226.254-5.543 6.21-6.084 10.16zm-10.857-4.694l.305-.027c-.455-5.455 4.11-11.46 4.156-11.52l-.24-.186c-.05.06-4.683 6.158-4.22 11.73zm2.872.48l.303-.054c-.755-4.372 4.408-10.59 4.462-10.65l-.234-.2c-.217.26-5.308 6.387-4.53 10.903zm4.415 1.608l.305-.01c-.15-4.99 4.64-9.993 4.688-10.044l-.22-.213c-.048.05-4.93 5.147-4.773 10.267zm-10.532 9.042l.287-.107c-1.74-4.613 1.28-10.52 1.31-10.576l-.275-.142c-.03.06-3.11 6.083-1.322 10.823zm2.008.3l.29-.095c-1.515-4.695 1.055-10.99 1.083-11.053l-.285-.117c-.022.06-2.634 6.462-1.086 11.265zm8.31 4.694l.106.288c4.944-1.78 8.18-6.29 8.21-6.333l-.25-.18c-.03.046-3.207 4.48-8.067 6.224zm-1.016-1.078l.124.28c3.948-1.78 7.626-6.745 7.66-6.797l-.244-.178c-.038.05-3.667 4.948-7.538 6.695zm-.957-.372l.178.248c3.086-2.236 7.05-7.966 7.092-8.025l-.25-.17c-.04.058-3.975 5.742-7.02 7.946zm-4.947-2.88l.303-.043c-.682-4.93 2.508-10.776 2.543-10.834l-.27-.148c-.035.06-3.274 5.996-2.578 11.026zm2.147 1.337l.206.227c3.183-2.874 4.268-10.62 4.312-10.947l-.304-.042c-.01.08-1.112 7.965-4.214 10.763zm2.18.918l.18.247c4.493-3.25 5.71-9.49 5.72-9.55l-.297-.058c-.012.06-1.208 6.18-5.602 9.36zm.52-13.45c0 .29.014.58.04.876-.004-.023-3.406 11.027-3.406 11.027l.29.09 3.417-11.086c-.525-5.36 4.188-11.207 4.235-11.265l-.236-.19c-.048.052-4.34 5.38-4.34 10.55zm3.563 2.7c-.044.154-1.082 7.723-5.164 10.516l.17.254c4.2-2.87 5.22-10.335 5.26-10.65 1.81-2.156 5.987-9.716 6.03-9.792l-.27-.146c-.04.075-4.2 7.612-6.03 9.82zm-12.053 8.27c.03.16.712 3.92 1.493 5.247l.263-.154c-.755-1.28-1.446-5.107-1.453-5.146l-.304.053zm1.934.047c.033 1.872.042 4.944-.062 5.217l.284.11c.157-.394.097-4.51.085-5.33h-.305zm.173 5.365l.278.124c1.31-2.85 1.714-4.82 1.72-4.836l-.3-.06c-.006.016-.4 1.956-1.698 4.774zm.293.086l.154.264c2.432-1.413 2.996-3.87 3.016-3.974l-.298-.067c-.007.025-.56 2.435-2.873 3.777zm.452.213l.03.303c2.383-.24 4.006-3.135 4.075-3.257l-.27-.148c-.014.03-1.613 2.878-3.835 3.1zm.238.154l.02.304c3.825-.236 5.547-2.522 5.616-2.62l-.247-.18c-.018.02-1.715 2.27-5.39 2.495zm.274.08l-.063.297c.208.047 5.08 1.08 6.75-1.46l-.254-.167c-1.552 2.365-6.384 1.338-6.43 1.33z"/><path d="M420.887 193.236v136.357c0 44.6 80.58 71.08 80.58 71.08s80.583-26.483 80.583-71.08V193.236z" stroke="#000" stroke-width="2.792" fill="none"/><path d="M0 0v240.34h358.036V0H0z" fill="#002868"/><path style="line-height:normal;text-indent:0;text-align:start;text-decoration-line:none;text-decoration-style:solid;text-decoration-color:#000;text-transform:none;block-progression:tb;isolation:auto;mix-blend-mode:normal" d="M0 0v26.872l138.99 93.296L0 213.468v26.87h40.03l138.99-93.296 138.99 93.297h40.026v-26.874l-138.988-93.3L358.036 26.87V0H318.01L179.02 93.3 40.03 0H0z" color="#000" font-weight="400" font-family="sans-serif" overflow="visible" fill="#fff"/><path d="M0 0v17.914L152.332 120.17 0 222.424v17.914h26.685l152.332-102.256L331.35 240.338h26.685v-17.916l-152.33-102.254 152.33-102.254V0H331.35L179.017 102.253 26.685 0H0z" style="line-height:normal;text-indent:0;text-align:start;text-decoration-line:none;text-decoration-style:solid;text-decoration-color:#000;text-transform:none;block-progression:tb;isolation:auto;mix-blend-mode:normal" color="#000" font-weight="400" font-family="sans-serif" overflow="visible" fill="#ce1126"/><path style="line-height:normal;text-indent:0;text-align:start;text-decoration-line:none;text-decoration-style:solid;text-decoration-color:#000;text-transform:none;block-progression:tb;isolation:auto;mix-blend-mode:normal" d="M149.182 0v80.113H0v80.113h149.182v80.113h59.673v-80.115h149.18V80.113h-149.18V0h-59.673z" color="#000" font-weight="400" font-family="sans-serif" overflow="visible" fill="#fff"/><path style="line-height:normal;text-indent:0;text-align:start;text-decoration-line:none;text-decoration-style:solid;text-decoration-color:#000;text-transform:none;block-progression:tb;isolation:auto;mix-blend-mode:normal" d="M161.116 0v96.135H0v48.07h161.116v96.134h35.804v-96.137h161.116v-48.07H196.92V0h-35.804z" color="#000" font-weight="400" font-family="sans-serif" overflow="visible" fill="#ce1126"/></svg>