<svg xmlns="http://www.w3.org/2000/svg" height="480" width="640" viewBox="0 0 640 480"><defs><clipPath id="a"><path fill-opacity=".67" d="M-85.31 0h682.67v512H-85.31z"/></clipPath></defs><g clip-path="url(#a)" fill-rule="evenodd"><path fill="#fff" d="M-100.078 0H740.37v480.256h-840.448z"/><path fill="#da0000" d="M-100.078 322.522H740.37v157.734h-840.448z"/><path d="M59.693 329.2h46.028v3.166H59.695zm-74.46 37.595h3.17v3.077h-3.17zm39.74.948v3.167h-9.2v-3.167zm7.544-15.745h3.168v18.91h-3.168zm96.595-7.062v3.168H111.68v-3.168zM19.91 360.338h3.166v10.57H19.91zM126.517 329.2h3.168v18.91h-3.168zm-84.823 21.758h3.168v18.91h-3.168zM-.85 358.485v3.167h-16.8v-3.167zm34.087.497v3.168h-16.8v-3.168zm63.405-21.444h3.167v10.572h-3.17zm0 0h3.167v10.572h-3.17zm0 0h3.167v10.572h-3.17zM-97.98 382.16h3.167v10.572H-19.1zm24.584 0H8.65v10.572H5.485zm-11.6 0h3.166v10.572h-3.167zM89.02 344.936v3.168h-14.2v-3.168zm-78.436 14.59v3.166H1.58v-3.167zM-15.91 329.2h46.028v3.166H-15.91zm-79.456 37.595h3.168v3.077h-3.168zm39.74.948v3.167h-9.2v-3.167zm7.543-15.745h3.168v18.91h-3.168zm101.593-7.062v3.168H36.075v-3.168zm-114.2 15.402h3.167v10.57h-3.168zM50.915 329.2h3.168v18.91h-3.168zm-89.82 21.758h3.168v18.91h-3.168zm-42.544 7.527v3.167h-16.8v-3.167zm34.087.497v3.168h-16.8v-3.168zm68.403-21.444h3.167v10.572H21.04zm0 0h3.167v10.572H21.04zm0 0h3.167v10.572H21.04zm-120.74 22.31h3.167v10.572H-99.7zm24.584 0h3.167v10.572h-3.166zm-11.6 0h3.166v10.572h-3.167zM13.42 344.936v3.168H-.784v-3.168zm-83.436 14.59v3.166h-9.003v-3.167zM134.663 329.2h46.027v3.166h-46.027zM65.16 366.795h3.165v3.077H65.16zm39.736.948v3.167h-9.2v-3.167zm7.545-15.745h3.17v18.91h-3.17zm91.64-7.062v3.168h-17.43v-3.168zM28.056 383.138H103v10.57h-3.167zM201.488 329.2h3.167v18.91h-3.167zM49.67 372.716h3.168v18.91H49.67zm-42.544 7.527v3.167h-16.8v-3.167zm34.084.497v3.168h-16.8v-3.168zm130.4-43.202h3.168v10.572h-3.168zm0 0h3.168v10.572h-3.168zm0 0h3.168v10.572h-3.168zm-110.785 22.31h3.167v10.572h-3.167zm24.583 0h3.168v10.572h-3.168zm-11.6 0h3.167v10.572h-3.167zm90.182-14.912v3.168h-14.2v-3.168zm-73.482 14.59v3.166h-9.003v-3.167zM664.056 329.2h46.027v3.166h-46.027zm-34.512 37.595h3.168v3.077h-3.168zm39.74.948v3.167h-9.2v-3.167zm7.543-15.745h3.168v18.91h-3.168zm56.647-7.062v3.168h-17.432v-3.168zm-69.255 15.402h3.166v10.57h-3.168zm66.66-31.138h3.168v18.91h-3.167zm-44.875 21.758h3.168v18.91h-3.168zm-42.544 7.527v3.167h-16.8v-3.167zm34.087.497v3.168h-16.8v-3.168zm23.457-21.444h3.168v10.572h-3.168zm0 0h3.168v10.572h-3.168zm0 0h3.168v10.572h-3.168zm-75.794 22.31h3.167v10.572h-3.167zm24.584 0h3.167v10.572h-3.166zm-11.6 0h3.166v10.572h-3.167zm55.19-14.912v3.168h-14.2v-3.168zm-38.49 14.59v3.166h-9.003v-3.167zM210.12 329.2h46.028v3.166H210.12zm-64.516 37.595h3.168v3.077h-3.168zm39.74.948v3.167h-9.2v-3.167zm7.543-15.745h3.168v18.91h-3.168zm86.653-7.062v3.168h-17.434v-3.168zm-99.26 15.402h3.167v10.57h-3.168zm96.665-31.138h3.168v18.91h-3.168zm-74.88 21.758h3.168v18.91h-3.168zm-42.544 7.527v3.167h-16.8v-3.167zm34.087.497v3.168h-16.8v-3.168zm53.463-21.444h3.166v10.572h-3.167zm0 0h3.166v10.572h-3.167zm0 0h3.166v10.572h-3.167zm-105.8 22.31h3.167v10.572h-3.167zm24.584 0h3.167v10.572h-3.166zm-11.6 0h3.166v10.572h-3.167zm85.194-14.912v3.168h-14.2v-3.168zm-68.494 14.59v3.166h-9.003v-3.167zM285.854 329.2h46.028v3.166h-46.028zm-59.51 37.595h3.168v3.077h-3.168zm39.74.948v3.167h-9.2v-3.167zm7.543-15.745h3.168v18.91h-3.168zm81.646-7.062v3.168H337.84v-3.168zm-94.254 15.402h3.166v10.57h-3.168zm91.66-31.138h3.167v18.91h-3.168zm-69.875 21.758h3.168v18.91h-3.168zm-42.544 7.527v3.167h-16.8v-3.167zm34.087.497v3.168h-16.8v-3.168zm48.456-21.444h3.167v10.572h-3.167zm0 0h3.167v10.572h-3.167zm0 0h3.167v10.572h-3.167zM158.08 382.16h3.167v10.572h-3.167zm24.584 0h3.167v10.572h-3.166zm-11.6 0h3.166v10.572h-3.167zm144.12-37.224v3.168H300.98v-3.168zm-63.49 14.59v3.166h-9.003v-3.167z" fill="#fff"/><path fill="#239f40" d="M-100.078 0H740.37v157.734h-840.448z"/><path d="M362.03 329.2h46.027v3.166H362.03zm-54.476 37.595h3.168v3.077h-3.168zm39.74.948v3.167h-9.2v-3.167zm7.543-15.745h3.168v18.91h-3.168zm76.61-7.062v3.168h-17.432v-3.168zm-89.22 15.402h3.17v10.57h-3.17zm86.627-31.138h3.168v18.91h-3.168zm-64.84 21.758h3.17v18.91h-3.17zm-42.543 7.527v3.167h-16.8v-3.167zm34.087.497v3.168h-16.8v-3.168zm43.42-21.444h3.168v10.572h-3.167zm0 0h3.168v10.572h-3.167zm0 0h3.168v10.572h-3.167zm-95.757 22.31h3.167v10.572h-3.167zm24.584 0h3.167v10.572h-3.166zm-11.6 0h3.166v10.572h-3.167zm75.154-14.912v3.168h-14.202v-3.168zm-58.454 14.59v3.166H323.9v-3.167zM437.754 329.2h46.027v3.166h-46.025zm-49.47 37.595h3.168v3.077h-3.168zm39.74.948v3.167h-9.2v-3.167zm7.543-15.745h3.168v18.91h-3.168zm71.605-7.062v3.168H489.74v-3.168zm-84.213 15.402h3.166v10.57h-3.168zm81.62-31.138h3.166v18.91h-3.167zm-59.835 21.758h3.168v18.91h-3.168zm-42.544 7.527v3.167h-16.8v-3.167zm34.087.497v3.168h-16.8v-3.168zm38.416-21.444h3.167v10.572h-3.167zm0 0h3.167v10.572h-3.167zm0 0h3.167v10.572h-3.167zm-90.753 22.31h3.167v10.572h-3.167zm24.584 0h3.167v10.572h-3.166zm-11.6 0h3.166v10.572h-3.167zm70.148-14.912v3.168h-14.2v-3.168zm-53.448 14.59v3.166h-9.003v-3.167zM513.488 329.2h46.028v3.166h-46.028zm-44.464 37.595h3.168v3.077h-3.168zm39.74.948v3.167h-9.2v-3.167zm7.543-15.745h3.168v18.91h-3.168zm66.6-7.062v3.168h-17.433v-3.168zM503.7 360.338h3.166v10.57H503.7zm76.613-31.138h3.168v18.91h-3.166zm-54.828 21.758h3.168v18.91h-3.168zm-42.544 7.527v3.167h-16.8v-3.167zm34.087.497v3.168h-16.8v-3.168zm33.41-21.444h3.167v10.572h-3.167zm0 0h3.167v10.572h-3.167zm0 0h3.167v10.572h-3.167zm-85.747 22.31h3.167v10.572h-3.167zm24.584 0h3.167v10.572h-3.166zm-11.6 0h3.166v10.572h-3.167zm65.142-14.912v3.168h-14.2v-3.168zm-48.442 14.59v3.166h-9.003v-3.167zM589.663 329.2h46.028v3.166h-46.026zm-39.43 37.595h3.17v3.077h-3.17zm39.74.948v3.167h-9.2v-3.167zm7.544-15.745h3.168v18.91h-3.168zm61.565-7.062v3.168H641.65v-3.168zm-74.173 15.402h3.166v10.57h-3.168zm71.578-31.138h3.168v18.91h-3.168zm-49.793 21.758h3.168v18.91h-3.168zm-42.544 7.527v3.167h-16.8v-3.167zm34.087.497v3.168h-16.8v-3.168zm28.375-21.444h3.167v10.572h-3.17zm0 0h3.167v10.572h-3.17zm0 0h3.167v10.572h-3.17zm-80.712 22.31h3.167v10.572H545.9zm24.584 0h3.167v10.572h-3.166zm-11.6 0h3.166v10.572h-3.167zm60.106-14.912v3.168h-14.2v-3.168zm-43.406 14.59v3.166h-9.003v-3.167zM-92.413 329.2h46.028v3.166h-46.028zm-84.513 37.595h3.168v3.077h-3.168zm39.74.948v3.167h-9.2v-3.167zm7.543-15.745h3.168v18.91h-3.168zm106.648-7.062v3.168h-17.432v-3.168zm-119.256 15.402h3.166v10.57h-3.168zM-25.59 329.2h3.167v18.91h-3.17zm-94.877 21.758h3.168v18.91h-3.168zm-42.544 7.527v3.167h-16.8v-3.167zm34.087.497v3.168h-16.8v-3.168zm73.46-21.444h3.166v10.572h-3.167zm0 0h3.166v10.572h-3.167zm0 0h3.166v10.572h-3.167zm-125.797 22.31h3.167v10.572h-3.167zm24.584 0h3.167v10.572h-3.166zm-11.6 0h3.166v10.572h-3.167zm105.19-14.912v3.168h-14.2v-3.168zm-88.49 14.59v3.166h-9.003v-3.167zM59.693 134.55h46.028v3.166H59.695zm-74.46 24.73h3.17v3.076h-3.17zm39.74.947v3.167h-9.2v-3.167zm7.544-15.745h3.168v18.91h-3.168zm96.595 5.804v3.168H111.68v-3.168zM19.91 152.822h3.166v10.57H19.91zm106.608-18.272h3.168v18.91h-3.168zm-84.823 8.892h3.168v18.91h-3.168zM-.85 150.97v3.165h-16.8v-3.167zm34.087.495v3.168h-16.8v-3.168zm63.405-8.577h3.167v10.572h-3.17zm0 0h3.167v10.572h-3.17zm0 0h3.167v10.572h-3.17zM-19.1 152.333h3.167v10.57H-19.1zm24.584 0H8.65v10.57H5.485zm-11.6 0h3.166v10.57h-3.167zm95.136-2.047v3.168h-14.2v-3.168zm-78.436 1.723v3.165H1.58v-3.167zM-15.91 134.55h46.028v3.166H-15.91zm-79.456 24.73h3.168v3.076h-3.168zm39.74.947v3.167h-9.2v-3.167zm7.543-15.745h3.168v18.91h-3.168zm101.593 5.804v3.168H36.075v-3.168zm-114.2 2.536h3.167v10.57h-3.168zM50.915 134.55h3.168v18.91h-3.168zm-89.82 8.892h3.168v18.91h-3.168zm-42.544 7.527v3.165h-16.8v-3.167zm34.087.495v3.168h-16.8v-3.168zm68.403-8.577h3.167v10.572H21.04zm0 0h3.167v10.572H21.04zm0 0h3.167v10.572H21.04zm-120.74 9.445h3.167v10.57H-99.7zm24.584 0h3.167v10.57h-3.166zm-11.6 0h3.166v10.57h-3.167zm100.136-2.047v3.168H-.784v-3.168zm-83.436 1.723v3.165h-9.003v-3.167zM134.663 134.55h46.027v3.166h-46.027zM65.16 159.28h3.165v3.076H65.16zm39.736.947v3.167h-9.2v-3.167zm7.545-15.745h3.17v18.91h-3.17zm91.64 5.804v3.168h-17.43v-3.168zm-104.247 2.536H103v10.57h-3.167zm101.655-18.272h3.167v18.91h-3.167zm-79.868 8.892h3.168v18.91h-3.168zm-42.544 7.527v3.165h-16.8v-3.167zm34.084.495v3.168h-16.8v-3.168zm58.45-8.577h3.168v10.572h-3.168zm0 0h3.168v10.572h-3.168zm0 0h3.168v10.572h-3.168zm-110.785 9.445h3.167v10.57h-3.167zm24.583 0h3.168v10.57h-3.168zm-11.6 0h3.167v10.57h-3.167zm90.182-2.047v3.168h-14.2v-3.168zm-73.482 1.723v3.165h-9.003v-3.167zM664.056 134.55h46.027v3.166h-46.027zm-34.512 24.73h3.168v3.076h-3.168zm39.74.947v3.167h-9.2v-3.167zm7.543-15.745h3.168v18.91h-3.168zm56.647 5.804v3.168h-17.432v-3.168zm-69.255 2.536h3.166v10.57h-3.168zm66.66-18.272h3.168v18.91h-3.167zm-44.875 8.892h3.168v18.91h-3.168zm-42.544 7.527v3.165h-16.8v-3.167zm34.087.495v3.168h-16.8v-3.168zm23.457-8.577h3.168v10.572h-3.168zm0 0h3.168v10.572h-3.168zm0 0h3.168v10.572h-3.168zm-75.794 9.445h3.167v10.57h-3.167zm24.584 0h3.167v10.57h-3.166zm-11.6 0h3.166v10.57h-3.167zm55.19-2.047v3.168h-14.2v-3.168zm-38.49 1.723v3.165h-9.003v-3.167zM210.12 134.55h46.028v3.166H210.12zm-64.516 24.73h3.168v3.076h-3.168zm39.74.947v3.167h-9.2v-3.167zm7.543-15.745h3.168v18.91h-3.168zm86.653 5.804v3.168h-17.434v-3.168zm-99.26 2.536h3.167v10.57h-3.168zm96.665-18.272h3.168v18.91h-3.168zm-74.88 8.892h3.168v18.91h-3.168zm-42.544 7.527v3.165h-16.8v-3.167zm34.087.495v3.168h-16.8v-3.168zm53.463-8.577h3.166v10.572h-3.167zm0 0h3.166v10.572h-3.167zm0 0h3.166v10.572h-3.167zm-105.8 9.445h3.167v10.57h-3.167zm24.584 0h3.167v10.57h-3.166zm-11.6 0h3.166v10.57h-3.167zm85.194-2.047v3.168h-14.2v-3.168zm-68.494 1.723v3.165h-9.003v-3.167zM285.854 134.55h46.028v3.166h-46.028zm-59.51 24.73h3.168v3.076h-3.168zm39.74.947v3.167h-9.2v-3.167zm7.543-15.745h3.168v18.91h-3.168zm81.646 5.804v3.168H337.84v-3.168zm-94.254 2.536h3.166v10.57h-3.168zm91.66-18.272h3.167v18.91h-3.168zm-69.875 8.892h3.168v18.91h-3.168zm-42.544 7.527v3.165h-16.8v-3.167zm34.087.495v3.168h-16.8v-3.168zm48.456-8.577h3.167v10.572h-3.167zm0 0h3.167v10.572h-3.167zm0 0h3.167v10.572h-3.167zm-100.793 9.445h3.167v10.57h-3.167zm24.584 0h3.167v10.57h-3.166zm-11.6 0h3.166v10.57h-3.167zm80.19-2.047v3.168H300.98v-3.168zm-63.49 1.723v3.165h-9.003v-3.167zM362.03 134.55h46.027v3.166H362.03zm-54.476 24.73h3.168v3.076h-3.168zm39.74.947v3.167h-9.2v-3.167zm7.543-15.745h3.168v18.91h-3.168zm76.61 5.804v3.168h-17.432v-3.168zm-89.22 2.536h3.17v10.57h-3.17zm86.627-18.272h3.168v18.91h-3.168zm-64.84 8.892h3.17v18.91h-3.17zm-42.543 7.527v3.165h-16.8v-3.167zm34.087.495v3.168h-16.8v-3.168zm43.42-8.577h3.168v10.572h-3.167zm0 0h3.168v10.572h-3.167zm0 0h3.168v10.572h-3.167zm-95.757 9.445h3.167v10.57h-3.167zm24.584 0h3.167v10.57h-3.166zm-11.6 0h3.166v10.57h-3.167zm75.154-2.047v3.168h-14.202v-3.168zm-58.454 1.723v3.165H323.9v-3.167zM437.754 134.55h46.027v3.166h-46.025zm-49.47 24.73h3.168v3.076h-3.168zm39.74.947v3.167h-9.2v-3.167zm7.543-15.745h3.168v18.91h-3.168zm71.605 5.804v3.168H489.74v-3.168zm-84.213 2.536h3.166v10.57h-3.168zm81.62-18.272h3.166v18.91h-3.167zm-59.835 8.892h3.168v18.91h-3.168zM402.2 150.97v3.165h-16.8v-3.167zm34.087.495v3.168h-16.8v-3.168zm38.416-8.577h3.167v10.572h-3.167zm0 0h3.167v10.572h-3.167zm0 0h3.167v10.572h-3.167zm-90.753 9.445h3.167v10.57h-3.167zm24.584 0h3.167v10.57h-3.166zm-11.6 0h3.166v10.57h-3.167zm70.148-2.047v3.168h-14.2v-3.168zm-53.448 1.723v3.165h-9.003v-3.167zM513.488 134.55h46.028v3.166h-46.028zm-44.464 24.73h3.168v3.076h-3.168zm39.74.947v3.167h-9.2v-3.167zm7.543-15.745h3.168v18.91h-3.168zm66.6 5.804v3.168h-17.433v-3.168zm-79.208 2.536h3.166v10.57H503.7zm76.613-18.272h3.168v18.91h-3.166zm-54.828 8.892h3.168v18.91h-3.168zm-42.544 7.527v3.165h-16.8v-3.167zm34.087.495v3.168h-16.8v-3.168zm33.41-8.577h3.167v10.572h-3.167zm0 0h3.167v10.572h-3.167zm0 0h3.167v10.572h-3.167zm-85.747 9.445h3.167v10.57h-3.167zm24.584 0h3.167v10.57h-3.166zm-11.6 0h3.166v10.57h-3.167zm65.142-2.047v3.168h-14.2v-3.168zm-48.442 1.723v3.165h-9.003v-3.167zM589.663 134.55h46.028v3.166h-46.026zm-39.43 24.73h3.17v3.076h-3.17zm39.74.947v3.167h-9.2v-3.167zm7.544-15.745h3.168v18.91h-3.168zm61.565 5.804v3.168H641.65v-3.168zm-74.173 2.536h3.166v10.57h-3.168zm71.578-18.272h3.168v18.91h-3.168zm-49.793 8.892h3.168v18.91h-3.168zm-42.544 7.527v3.165h-16.8v-3.167zm34.087.495v3.168h-16.8v-3.168zm28.375-8.577h3.167v10.572h-3.17zm0 0h3.167v10.572h-3.17zm0 0h3.167v10.572h-3.17zm-80.712 9.445h3.167v10.57H545.9zm24.584 0h3.167v10.57h-3.166zm-11.6 0h3.166v10.57h-3.167zm60.106-2.047v3.168h-14.2v-3.168zm-43.406 1.723v3.165h-9.003v-3.167zM-92.413 134.55h46.028v3.166h-46.028zm-84.513 24.73h3.168v3.076h-3.168zm39.74.947v3.167h-9.2v-3.167zm7.543-15.745h3.168v18.91h-3.168zm106.648 5.804v3.168h-17.432v-3.168zm-119.256 2.536h3.166v10.57h-3.168zM-25.59 134.55h3.167v18.91h-3.17zm-94.877 8.892h3.168v18.91h-3.168zm-42.544 7.527v3.165h-16.8v-3.167zm34.087.495v3.168h-16.8v-3.168zm73.46-8.577h3.166v10.572h-3.167zm0 0h3.166v10.572h-3.167zm0 0h3.166v10.572h-3.167zm-125.797 9.445h3.167v10.57h-3.167zm24.584 0h3.167v10.57h-3.166zm-11.6 0h3.166v10.57h-3.167zm105.19-2.047v3.168h-14.2v-3.168zm-88.49 1.723v3.165h-9.003v-3.167z" fill="#fff"/><path d="M15.417 318.458h5.673v9.853h-5.673zm66.332 21.05h5.67v9.853h-5.67zm-256.164 0h5.673v9.853h-5.674zm58.834 0h5.674v9.853h-5.673zm80.932 0h5.673v9.853h-5.673zm42.558 0h5.673v9.853H7.91zm40.81 0h5.672v9.853H48.72zm78.018 0h5.673v9.853h-5.67zm195.456 0h5.673v9.853h-5.673zm-139.552 0h5.673v9.853h-5.673zm27.497 0h5.67v9.853h-5.672zm40.41 0h5.674v9.853h-5.673zm40.448 0h5.672v9.853H291zm305.615 0h5.672v9.853h-5.673zm-207.59 0h5.674v9.853h-5.674zm23.282 0h5.674v9.853h-5.674zm41.257 0h5.674v9.853h-5.674zm38.932 0h5.674v9.853h-5.674zm41.12 0h5.672v9.853h-5.673zm40.498 0h5.673v9.853h-5.673zm114.762 0h5.673v9.853h-5.674zm-28.954 0h5.673v9.853h-5.673zm-761.16 0h5.673v9.853h-5.673z" fill="#d90000"/><path d="M15.417 152.525h5.673v9.854h-5.673zm66.332 10.082h5.67v9.854h-5.67zm-256.164 0h5.673v9.854h-5.674zm58.834 0h5.674v9.854h-5.673zm80.932 0h5.673v9.854h-5.673zm42.558 0h5.673v9.854H7.91zm40.81 0h5.672v9.854H48.72zm78.018 0h5.673v9.854h-5.67zm195.456 0h5.673v9.854h-5.673zm-139.552 0h5.673v9.854h-5.673zm27.497 0h5.67v9.854h-5.672zm40.41 0h5.674v9.854h-5.673zm40.448 0h5.672v9.854H291zm305.615 0h5.672v9.854h-5.673zm-207.59 0h5.674v9.854h-5.674zm23.282 0h5.674v9.854h-5.674zm41.257 0h5.674v9.854h-5.674zm38.932 0h5.674v9.854h-5.674zm41.12 0h5.672v9.854h-5.673zm40.498 0h5.673v9.854h-5.673zm114.762 0h5.673v9.854h-5.674zm-28.954 0h5.673v9.854h-5.673zm-761.16 0h5.673v9.854h-5.673z" fill="#239e3f"/><path d="M342.432 185.245c7.93 9.717 32.372 63.457-14.754 98.66-22.156 16.673-8.437 17.516-7.782 20.318 35.612-18.916 47.243-44.545 46.973-67.504-.274-22.96-12.445-43.245-24.44-51.473zm4.715-2.498c17.587 9.005 55.86 54.29 14.665 105.378 25.597-5.68 58.138-81.06-14.665-105.378zm-116.332 12.08c-17.587 9.004-55.86 54.29-14.666 105.378-25.598-5.68-58.14-81.06 14.664-105.38zm66.97-9.582c-7.93 9.717-32.374 63.457 14.753 98.66 22.154 16.673 8.436 17.516 7.78 20.318-35.61-18.916-47.242-44.545-46.972-67.504.27-22.96 12.442-43.245 24.437-51.473zm67.533 114.08c-13.94.22-31.51-1.92-44.542-8.69 2.146 4.173 3.93 6.8 6.075 10.974 12.43 1.144 29.58 2.563 38.47-2.285zm-150.205 19.786c13.94.223 31.51-1.92 44.543-8.69-2.147 4.174-3.93 6.8-6.076 10.975-12.43 1.146-29.58 2.565-38.468-2.283zM234.793 189c2.823 7.506 10.233 8.597 18.163 4.178 5.78 3.468 14.718 3.686 17.8-3.815 2.344 18.56-17.17 14.17-17.897 10.536-7.267 7.023-20.793 2.967-18.068-10.898zm85.692 122.014l7.33-8.377 1.046-112.727-8.723-7.677-8.723 7.33 1.743 113.423 7.33 8.028z" fill="#da0000"/></g></svg>