<svg xmlns="http://www.w3.org/2000/svg" xmlns:xlink="http://www.w3.org/1999/xlink" height="480" width="640" viewBox="0,0 30,18"><defs><clipPath id="a"><path fill-opacity=".67" d="M-5.254-6h40v30h-40z"/></clipPath></defs><g clip-path="url(#a)"><path fill="#fff" d="M-3.75-2.25h37.5v22.5h-37.5z"/><path d="M-3.75-2.25v1.445L12.577 9-3.75 18.805v1.445h2.46L15 10.445l16.288 9.805h2.46v-1.445L17.423 9 33.75-.805V-2.25h-2.46L15 7.555-1.29-2.25h-2.46z" fill-rule="evenodd" fill="#df112d"/><g transform="matrix(.153 0 0 .153 -3.297 -2.279)"><path d="M132.66 22.233c3.156 12.778 1.425 28.56-12.83 37.316-14.254-8.758-15.985-24.54-12.828-37.318 3.36-3.055 18.632-4.938 25.658 0z" stroke="#000" stroke-width=".125" fill="#e8112d"/><path d="M119.81 19.667c5.226 0 10.093 1.383 12.962 3.176.563-4.405 2.56-8.81 4.918-12.142-2.46-.05-3.56 1.258-3.586 2.615-.615-1.742-3.023-1.64-3.766-.69 2.69 1.817.615 5.045-1.818 4.38-1.143-.314-1.747-1.11-1.96-2.268a1.322 1.322 0 1 0-.565-.088c-.77 1.255-2.148 1.63-3.136 1.355-1.283-.36-1.82-1.512-1.82-2.536 0-2.665 2.56-3.075 3.33-2.614-.05-1.793-2.87-3.227-3.74-1.742.972-1.742.92-4.2-.82-5.84-1.74 1.64-1.794 4.098-.82 5.84-.87-1.485-3.69-.05-3.74 1.742.77-.46 3.33-.05 3.33 2.613 0 1.023-.538 2.176-1.82 2.535-.987.276-2.366-.1-3.136-1.356a1.31 1.31 0 0 0 .552-.4 1.322 1.322 0 1 0-1.115.487c-.213 1.157-.82 1.954-1.96 2.267-2.433.666-4.51-2.562-1.82-4.38-.74-.948-3.15-1.05-3.764.69-.026-1.356-1.127-2.663-3.586-2.612 2.357 3.33 4.355 7.737 4.92 12.143 2.868-1.793 7.735-3.176 12.96-3.176z" stroke="#000" stroke-width=".125" fill="#f9dd16"/><g id="b" stroke="#000"><path d="M130.65 32.2c-.315.075-.315.48-.48.48.82-.022 1.217-.247 1.465-.66-.18.165-.023.48-.083.556.6-.21.887-.722.677-1.067.133.193.524.3.644.313-.42-.33-.12-1.082-.797-1.473.226-.014.662.24.782.542-.106-.676-.21-1.112-.768-1.488.06.068.376.128.51 0-.36-.225-.465-.6-.434-.84.04-.338-.182-.407-.603-.3-.38.093-1.247.15-1.758.15-1.053 0-1.97 0-2.842-.603 1.308.543 2.976-.6 2.976-1.546 0-1.052-1.292-1.91-3.907-1.338-2.615.572-5.8.33-5.8-.54 0-.872 2.283-.993 3.456-.812 1.17.18 2.012.3 4.207-.48-.54.21-2.285.27-3.667-.12-1.383-.392-4.78-.392-4.81 1.44-.03 1.835 3.617 1.668 6.764 1.204 1.833-.27 2.795-.09 2.795.51 0 .572-1.684.812-2.977.662-1.292-.15-2.615-.12-4.148.33-1.28.376-2.164 0-3.577.24-.684.117-2.344 0-3.163-1.352-.504.36-2.022 1.116-2.277 1.852-.36.676-.12 1.35.36 2.01.606.833-.3.707-.946.737-.886.04-2.072-.094-2.69-.797-.55-.622-1.28-1.12-1.862-.66-.3.238-.012.55.225.463.235-.087.513.087.764.197-.4-.172-.84-.038-1.014.115-.237.213.05.62.338.475.225-.112.687-.187.987.088-.324-.063-.662-.05-.824.125s-.037.428.313.412c.56-.025.705.37 1.27.288-.348.045-.544.226-.634.36.526-.24 1.107.41 1.79.256-.267.11-.696.37-.692.57.405-.466 3.126.36 3.186-.66.076.21.06.524-.15.795.35-.21 1.474-.286 1.82-1.097.03.24-.016.555-.226.63.36.118.836-.15 1.322-.87.193-.288.24-.478.206-.693.482.018.83-.103 1.207-.42.39-.33.81.27 1.47-.15.663-.422 1.234-.06 1.594-.27.36-.212.857.073 1.248-.167s.997.118 1.644-.393c1.018.372 2.206 1.063 5.12.528 1.67-.307 2.194.256 2.194 1.022 0 .526-.307.572-.54.586-.93.058-1.328-.346-1.695-.217-.246.088-.396.488-.04.625-.294.15-.256.432-.106.535s.535.01.8-.113c-.34.153-.69.428-.49.716.12.174.427.322.713-.05.287-.375.812-.688 1.146-.638zm-18.51-7.936c-.842-.346-1.126-.355-.932.33.083.294.285.707.488.895.008-.287.113-1.077.444-1.227zm2.63 0c.842-.346 1.126-.355.932.33-.083.294-.286.707-.49.895-.006-.287-.11-1.077-.442-1.227zm-1.31-.462c1.593 0 1.792.748 1.784 1.68-.007 1.007-.548.66-.856 1.953-.12.506-.523.534-.928.534-.406 0-.808-.03-.93-.536-.306-1.292-.848-.946-.855-1.953-.008-.93.19-1.68 1.785-1.68zm-4.1 3.693c-.406-.24-.668-.074-.833-.03.526.136.547.81 1.75 1.127-.27-.075-.42.075-.677-.06.496.39 1.052.843 2.225.857.654.005.202.344-.226.15.442.457 1.32.08 1.877.915.105-.646-1.037-1.668-.51-2.405-1.623-.068-1.756-.967-2.69-1.682-.762-.582-.83-1.173-1.166-2.28-.152-.5-.74-.814-1.064-.695-.284.104-.388.35-.144.535.244.184.556.21.623.676-.317-.38-.792-.517-1.02-.28-.14.145-.083.482.216.513.488.05.138.525.69.99-.49-.552-.914-.602-1.177-.302-.157.18 0 .5.338.465.49-.05 1.057 1.19 1.79 1.505zm13.07 4.644c-.256.043-.18.464-.526.494.827 0 1.247-.195 1.638-.51-.18.104-.255.375-.27.525.436-.377 1.473-.407 2.014-.3s.63-.15.826-.497c.196-.346-.075-.542-.345-.812-.27-.27-.33-.645-.27-1.277-1.444-1.923-4.03-.992-4.06-.15.933 1.082 1.053.962 1.835 1.112.78.15 1.26.15.736.586-.18.15-.932.08-1.518.107-1.31.057-1.91-.906-2.298-.406-.32.41.01.594.66.57-.45.005-1.047-.02-.945.4.172.706.847-.13 1.11.16-.225-.054-.575.084-.588.296-.014.213.5.488 1.06.04a1.64 1.64 0 0 1 .94-.338z" fill="#f9dd16"/><path d="M123.55 29.206c-.47-.172-.9-.277-1.45-.163m-5.62-.06c-.386.83-.152 1.24-.095 1.624m-4.015-5.555c.265.133.414-.242.803.156-.107-.116-.24.308-.538.026m1.895-.182c-.265.133-.414-.242-.803.156.107-.116.24.308.538.026m-.535-.027c-.09.075-.1-.06-.03.295.127.65.278.956-.25.956-.537 0-.374-.305-.247-.956.07-.355.06-.22-.03-.295" fill="none"/><path d="M113.46 27.706c.428 0 .676-.007.61-.61-.03-.24.292-.336.18-.728.12.48-.79.435-.79.217 0 .218-.91.264-.79-.217-.112.392.208.488.18.73-.066.6.182.608.61.608z" fill="#ff0016"/><path d="M113.07 26.49l-1.028-.288m1.028.34l-1.148-.01m1.158.07l-.98.262m1.74-.375l1.028-.29m-1.028.34l1.148-.01m-1.158.07l.98.263"/><path d="M108.13 23.414c-.3-.372-1.048-.058-1.063.404.253-.3.666.132.89.04.157-.062.294-.293.173-.444zm-.38.88c-.3-.37-1.047-.057-1.062.405.252-.3.665.13.89.04.157-.063.294-.294.172-.446zm-.2 1.185c-.34-.338-1.047.06-1.01.52.218-.327.676.055.89-.06.148-.08.258-.325.12-.46zm.36 3.667c-.376-.295-1.033.18-.944.634.18-.35.678-.02.877-.16.138-.097.22-.353.067-.473zm-.02.803c-.448-.164-.928.49-.703.894.062-.387.638-.23.785-.423.102-.132.1-.4-.082-.47zm.57.6c-.448-.164-.928.49-.704.894.063-.387.64-.23.786-.423.102-.132.1-.4-.082-.47zm11.74 1.164c-.448-.165-.928.49-.703.893.063-.387.638-.23.785-.423.102-.134.1-.403-.082-.47zm.61.544c-.464-.113-.866.592-.597.968.018-.392.608-.3.732-.51.086-.145.054-.412-.135-.458zm-.43-1.316c-.414-.24-.998.325-.845.76.128-.37.668-.117.846-.283.125-.117.17-.38 0-.48zm8.35.94c-.464-.112-.866.593-.597.97.02-.393.61-.302.732-.51.086-.146.054-.413-.135-.46zm.02-.736c-.42-.225-.985.36-.818.79.115-.375.664-.14.836-.313.12-.12.154-.385-.018-.477zm.32 1.396c-.468-.093-.84.63-.554.993.002-.392.595-.327.71-.542.08-.15.035-.413-.156-.45zm-15.58-5.197c.294 0 .413.086.413.617 0 1.125-.013 1.61-.375 1.61-.363 0-.338-.46-.338-1.287 0-.43 0-.646-.087-.61 0-.282.125-.33.387-.33z" fill="#0051ba"/></g><use xlink:href="#b" transform="matrix(.9 0 0 .9 11.6 13.7)" height="18" width="30"/><use xlink:href="#b" transform="matrix(.67 0 0 .75 39.2 27.5)" height="18" width="30"/></g></g></svg>