<svg xmlns="http://www.w3.org/2000/svg" xmlns:xlink="http://www.w3.org/1999/xlink" width="640" height="480" viewBox="0 0 640 480"><path d="M0-.05h640v480.1H0z" fill="#cc0001"/><path d="M0 445.757h640v34.293H0z" fill="#fff" id="a"/><use xlink:href="#a" transform="translate(0 -68.586)" width="100%" height="100%"/><use xlink:href="#a" transform="translate(0 -137.17)" width="100%" height="100%"/><use xlink:href="#a" transform="translate(0 -205.757)" width="100%" height="100%"/><use xlink:href="#a" transform="translate(0 -274.343)" width="100%" height="100%"/><use xlink:href="#a" transform="translate(0 -342.93)" width="100%" height="100%"/><use xlink:href="#a" transform="translate(0 -411.514)" width="100%" height="100%"/><path d="M0-.05h372.655v274.343H0z" fill="#010066"/><path d="M149.71 48.53c-49.063 0-88.886 39.69-88.886 88.59 0 48.9 39.823 88.592 88.886 88.592 17.726 0 34.242-5.187 48.113-14.11a78.856 78.856 0 0 1-25.772 4.312c-43.504 0-78.813-35.192-78.813-78.554 0-43.36 35.31-78.553 78.815-78.553 9.616 0 18.826 1.717 27.347 4.863-14.188-9.555-31.29-15.14-49.688-15.14zm147.405 134.71l-37.44-19.535 11.07 39.98L245.7 170.24l-7.812 40.707-7.684-40.73-25.148 33.37 11.197-39.947-37.503 19.422 27.86-31.253-42.43 1.63 39.004-16.37-38.952-16.488 42.424 1.757L178.896 91l37.44 19.535-11.07-39.98L230.31 104l7.81-40.705 7.685 40.73 25.148-33.37-11.196 39.947L297.26 91.18l-27.86 31.254 42.43-1.63-39.004 16.37 38.953 16.486-42.427-1.757z" fill="#fc0"/></svg>