<svg xmlns="http://www.w3.org/2000/svg" height="480" width="640" viewBox="0 0 640 480"><path fill="#0038a8" d="M0 319.7h640V480H0z"/><path fill="#fff" d="M0 160h640v160H0z"/><path fill="#d52b1e" d="M0 0h640v160H0z"/><g stroke="#000" transform="translate(-116.364) scale(1.455)" fill="none"><circle cx="300" cy="165" r="42.2"/><circle cx="300" cy="165" r="34.67"/><circle cx="300" cy="165" r="26.56"/></g><path d="M287.317 263.68l-7.116 4.227-2.174-3.665c-.403-.68-.654-1.234-.75-1.662a1.93 1.93 0 0 1 .132-1.254c.185-.408.503-.746.957-1.015.394-.23.785-.35 1.17-.35a2.3 2.3 0 0 1 1.11.28c.225.12.472.32.74.604-.068-.314-.094-.557-.078-.73.01-.114.065-.305.165-.573.1-.267.187-.457.26-.57l1.43-2.29 1.477 2.487-1.478 2.466c-.194.316-.298.558-.313.724-.017.224.035.436.154.637l.115.194 2.89-1.715zm-5.544.306l-.55-.927c-.06-.104-.208-.28-.444-.528a.676.676 0 0 0-.438-.225.765.765 0 0 0-.495.106c-.23.137-.364.314-.4.533-.037.218.064.528.302.93l.573.965zm-6.703-5.498l-2.163-6.504 1.677-.557 1.354 4.07 1.248-.414-1.256-3.777 1.602-.533 1.256 3.777 1.548-.515-1.393-4.19 1.78-.59 2.2 6.62zm-2.836-9.673l-.484-4.223c-.105-.92.035-1.634.42-2.143.385-.51.98-.81 1.79-.9.83-.098 1.507.08 2.03.523.526.445.847 1.18.964 2.205l.16 1.39 3.05-.35.293 2.553zm3.213-2.953l-.07-.623c-.057-.49-.182-.827-.374-1.006a.828.828 0 0 0-.688-.222.92.92 0 0 0-.627.333c-.16.193-.212.526-.158 1l.083.725zm-3.475-12.582l.273-2.536 4.906.53a4.16 4.16 0 0 1 1.357.375c.416.195.768.473 1.057.832.29.358.48.722.572 1.092.13.514.158 1.117.083 1.81-.044.4-.12.833-.226 1.3-.107.468-.26.852-.462 1.152-.2.3-.47.565-.803.796-.337.23-.67.377-1.01.44-.54.1-1.013.13-1.417.085l-4.905-.53.274-2.537 5.023.543c.45.048.814-.038 1.093-.26.28-.222.443-.553.49-.995.048-.438-.04-.794-.26-1.07-.223-.276-.563-.438-1.02-.487zm1.105-6.065l1.58-4.52c.263-.753.652-1.266 1.166-1.54a1.92 1.92 0 0 1 1.597-.12c.462.162.808.445 1.038.848.153.27.23.61.228 1.025.33-.515.707-.847 1.128-.996.42-.15.88-.138 1.378.036.405.14.737.363.994.664.258.3.423.648.497 1.04.047.245.025.58-.064 1.007-.12.566-.21.94-.275 1.116l-1.457 4.168zm3.916-1.364l.367-1.05c.132-.374.16-.66.08-.85-.078-.194-.24-.333-.485-.42-.227-.08-.43-.07-.61.035-.18.103-.333.337-.46.703l-.373 1.066zm3.07 1.076l.43-1.23c.146-.417.174-.736.087-.958a.79.79 0 0 0-.505-.464.73.73 0 0 0-.646.06c-.2.12-.376.39-.52.813l-.43 1.226zm-3.073-9.66l1.32-2.19 5.343 3.225 2.062-3.417 1.745 1.053-3.384 5.608zm5.004-7.577l1.64-1.97 6.36 5.3-1.642 1.97zm11.126-4.277l2.142-.947c.296.574.458 1.127.488 1.658.03.53-.07 1.034-.293 1.51-.224.475-.617.954-1.18 1.437-.682.588-1.325.967-1.928 1.14-.606.174-1.28.146-2.02-.084-.745-.23-1.45-.735-2.12-1.514-.894-1.037-1.304-2.073-1.23-3.106.07-1.032.613-1.983 1.623-2.85.79-.68 1.55-1.055 2.277-1.124.73-.07 1.487.132 2.276.605l-1.386 1.853c-.223-.14-.406-.225-.548-.257a1.472 1.472 0 0 0-.692 0 1.51 1.51 0 0 0-.63.334c-.44.378-.624.844-.554 1.4.048.414.314.903.797 1.465.6.695 1.115 1.082 1.548 1.16.436.076.844-.05 1.227-.38.37-.32.562-.663.573-1.035.01-.37-.113-.792-.368-1.262zm8.815-3.172l-2.57 1.37.29 1.396-2.308 1.23-1.15-8.767 2.462-1.313 6.636 5.84-2.36 1.26zm-1.315-1.325l-2.207-2.196.598 3.053zm7.817-8.477l3.744-.647c.74-.126 1.355-.13 1.844-.007.49.12.914.344 1.276.667.36.322.65.72.87 1.194.22.474.377.99.473 1.546.15.872.168 1.565.053 2.08a3.413 3.413 0 0 1-.618 1.35 2.735 2.735 0 0 1-1.023.844 5.933 5.933 0 0 1-1.464.482l-3.742.647zm2.84 1.412l.77 4.454.617-.107c.526-.09.89-.214 1.093-.37.203-.154.342-.388.418-.7.075-.314.057-.797-.056-1.45-.15-.864-.395-1.43-.73-1.7-.34-.272-.834-.35-1.487-.238zm7.793-2.838l6.848.292-.076 1.766-4.287-.183-.056 1.314 3.974.17-.072 1.69-3.977-.17-.07 1.63 4.412.19-.08 1.87-6.973-.3zm9.964.785l2.484.608-1.483 6.06 3.877.95-.485 1.978-6.36-1.557zm13.28 4.407l3.66 2.164c.796.47 1.28 1.013 1.454 1.627.173.614.053 1.27-.36 1.97-.426.72-.975 1.154-1.647 1.303-.67.15-1.45-.038-2.34-.563l-1.202-.713-1.563 2.644-2.21-1.307zm.416 4.345l.54.316c.423.25.765.353 1.024.308a.828.828 0 0 0 .592-.414.92.92 0 0 0 .113-.7c-.06-.244-.295-.487-.706-.73l-.627-.37zm7.177 9.646l-2.134-1.984-1.224.728-1.917-1.78 7.915-3.94 2.04 1.9-3.36 8.18-1.957-1.825zm.826-1.676l1.356-2.8-2.695 1.56zm.992 5.502l6.824-4.682 2.41 3.514c.446.652.732 1.19.86 1.61.122.42.105.84-.05 1.26-.16.418-.457.777-.89 1.075-.38.26-.76.4-1.147.43a2.296 2.296 0 0 1-1.125-.21c-.233-.106-.493-.29-.78-.555.09.31.13.55.126.722-.002.114-.044.31-.126.582a3.253 3.253 0 0 1-.22.585l-1.28 2.377-1.635-2.383 1.313-2.56c.172-.327.26-.574.264-.742a1.08 1.08 0 0 0-.196-.625l-.128-.186-2.77 1.9zm5.513-.667l.61.89c.066.096.225.26.476.494.124.12.274.183.45.193a.762.762 0 0 0 .486-.14c.22-.15.34-.336.363-.557.023-.22-.098-.523-.362-.908l-.633-.927zm2.56 12.39l-1.08-2.705-1.418.135-.97-2.428 8.842-.18 1.033 2.592-6.534 5.954-.99-2.486zm1.463-1.16l2.428-1.952-3.1.258zm2.16 9.045l1.703-.255.585 3.91-3.49.52c-.622-.67-1.068-1.28-1.338-1.83-.27-.546-.466-1.214-.585-2.004-.145-.97-.098-1.785.142-2.45.24-.66.662-1.21 1.267-1.642.604-.435 1.33-.716 2.18-.843.893-.134 1.698-.066 2.414.204a3.62 3.62 0 0 1 1.746 1.393c.347.516.59 1.243.73 2.18.137.905.156 1.594.06 2.067a2.665 2.665 0 0 1-.596 1.23c-.3.35-.703.635-1.21.863l-.8-2.373c.294-.147.505-.353.633-.618s.166-.584.11-.956c-.082-.554-.34-.968-.775-1.24-.435-.27-1.07-.345-1.903-.22-.885.133-1.493.394-1.823.784-.33.39-.45.883-.36 1.478.04.283.122.547.242.79.122.246.305.52.552.82l.77-.114zm5.41 12.014l-.225 2.542-4.915-.438a4.16 4.16 0 0 1-1.363-.35 2.994 2.994 0 0 1-1.072-.816c-.295-.353-.493-.714-.592-1.082-.14-.51-.18-1.113-.117-1.807.036-.4.103-.836.202-1.306.097-.47.244-.855.44-1.16a2.99 2.99 0 0 1 .79-.81c.33-.237.662-.39.997-.458.54-.114 1.01-.15 1.416-.115l4.917.438-.227 2.542-5.033-.45c-.45-.04-.812.055-1.087.28-.275.228-.432.563-.47 1.005-.04.44.054.795.28 1.066.228.272.57.428 1.027.47zm-9.15 8.756l.91-2.767-1.17-.807.816-2.483 6.89 5.54-.87 2.65-8.835.37.837-2.543zm1.87.05l3.11.06-2.54-1.792zm2.96 6.73l-1.46 2.435-3.255-.003 1.538 2.87-1.45 2.42-2.473-5.232-2.975-1.782 1.318-2.198 2.973 1.782z"/><g fill="#009b3a" stroke="#000" stroke-width=".145"><path d="M328.117 211.346s23.35 10.06 19.272 30.847c-4.08 20.787-17.08 20.647-22.176 22.945-5.098 2.297-8.614 5.585-10.625 5.125-2.01-.46-4.67-2.012-4.67-2.012s-.213 3.417 3.88 4.04c4.095.62 9.477-5.39 12.06-6.057 2.587-.668 18.457-2.39 22.32-23.54 4.506-22.58-19.918-30.68-20.06-31.344zm11.783 4.422a3.205.76 75.104 0 1-1.54.118 3.205.76 75.104 1 1 1.54-.118zm-.8.218a3.303.737 63.335 1 1-1.393.51 3.303.737 63.335 0 1 1.392-.51zm-2.343 1.542a3.128.778 17.053 0 1-.146 1.58 3.128.778 17.053 0 1 .15-1.58zm.35-.858a3.29.74 34.225 1 1-.672 1.332 3.29.74 34.225 1 1 .672-1.332zm.99-.408a3.344.727 46.194 1 1-1.018 1.042 3.344.727 46.194 0 1 1.014-1.042zm1.628 2.938c.013.015-.9.51-1.108.582-.207.074-.488-.275-1.083.03-.595.306-1.004.863-1.134 1.19-.13.327.17.464.888.114.72-.35.91-.904 1.256-1.12.347-.218.93-.537 1.26-.655.143-.31.61-.98.85-1.37.24-.382 1.185-1.02 1.53-1.76.3-.61.186-1.13-.215-.913-.405.217-.924.833-1.166 1.275-.242.44-.035 1.005-.303 1.42-.21.3-.722 1.21-.777 1.212zm7.23 2.386a1.08 4.807-1.585 1 1-2.17-.52 1.08 4.807-1.585 1 1 2.17.52zm-1.208-.043a5.008 1.036 77.49 1 1-2.097.105 5.008 1.036 77.49 1 1 2.097-.105zm-3.74 1.163a4.665 1.112 34.91 1 1-.724 2.198 4.665 1.112 34.91 1 1 .725-2.198zm.758-1.062a4.99 1.04 50.904 0 1-1.37 1.607 4.99 1.04 50.904 1 1 1.37-1.604zm1.512-.144a5.096 1.018 61.837 1 1-1.752 1.036 5.096 1.018 61.837 1 1 1.752-1.037zm1.28 4.93c.015.026-1.415.324-1.726.337-.31.013-.58-.613-1.51-.442-.922.17-1.673.786-1.96 1.197-.29.41.08.74 1.19.56 1.11-.178 1.558-.887 2.11-1.042.553-.156 1.464-.353 1.96-.374.304-.384 1.17-1.137 1.63-1.58.463-.445 1.98-.933 2.703-1.84.618-.74.635-1.538.007-1.406-.63.132-1.553.78-2.034 1.306-.482.524-.38 1.423-.89 1.895-.392.338-1.403 1.415-1.48 1.39zm5.193 4.843a1.074 4.828 8.74 1 1-2.026-.93 1.074 4.828 8.74 1 1 2.026.93zm-1.15-.29a1.03 5.04-2.05 1 1-2.067-.3 1.03 5.04-2.05 1 1 2.068.3zm-3.868.437a4.688 1.106 46.026 1 1-1.106 2.03 4.688 1.106 46.026 1 1 1.106-2.03zm.93-.903a5.026 1.032 61.79 1 1-1.63 1.324 5.026 1.032 61.79 1 1 1.63-1.32zm1.485.146a5.136 1.01 72.543 1 1-1.9.687 5.136 1.01 72.543 1 1 1.9-.687zm.378 5.105c.008.028-1.442.048-1.75 0-.305-.046-.46-.717-1.394-.725-.933-.01-1.78.454-2.133.804-.356.35-.056.746 1.064.783 1.12.037 1.683-.577 2.25-.625.568-.047 1.495-.067 1.985.008.365-.322 1.348-.9 1.88-1.25.53-.35 2.102-.54 2.97-1.295.738-.615.898-1.4.26-1.39-.638.01-1.657.475-2.222.9-.565.426-.628 1.333-1.21 1.7-.445.257-1.627 1.127-1.697 1.09m2.515 6.298a1.074 4.83 31.31 0 1-1.47-1.7 1.074 4.83 31.31 0 1 1.472 1.7m-.946-.742a1.022 5.072 20.618 0 1-1.757-1.132 1.022 5.072 20.618 0 1 1.754 1.132m-3.665-1.192a4.764 1.088 69.934 0 1-1.79 1.426 4.764 1.088 69.934 0 1 1.79-1.426m1.193-.452a1.015 5.107-4.863 0 1-1.99.554 1.015 5.107-4.863 1 1 1.99-.553m1.294.757a.996 5.205 5.55 1 1-1.987-.148.996 5.205 5.55 1 1 1.987.145m-1.643 4.89c-.003.03-1.324-.55-1.584-.72-.26-.173-.138-.858-.98-1.253-.845-.395-1.79-.314-2.247-.137-.458.177-.34.67.66 1.166.998.5 1.747.164 2.28.354.532.19 1.378.556 1.793.828.455-.146 1.57-.275 2.185-.38.62-.105 2.117.37 3.197.027.907-.266 1.356-.927.775-1.18-.58-.256-1.684-.248-2.36-.087-.677.16-1.086.977-1.757 1.078-.5.054-1.91.37-1.958.308m.857 7.695a1.257 5.5 48.457 1 1-1.063-2.41 1.257 5.5 48.457 1 1 1.06 2.41m-.798-1.153a1.194 5.792 37.466 1 1-1.56-1.885 1.194 5.792 37.466 1 1 1.56 1.885m-3.636-2.647a1.248 5.54-3.478 1 1-2.44.927 1.248 5.54-3.478 1 1 2.44-.927m1.454-.073a1.173 5.896 11.633 0 1-2.372-.11 1.173 5.896 11.633 1 1 2.372.11m1.178 1.294a1.157 5.978 22.12 1 1-2.14-.882 1.157 5.978 22.12 1 1 2.14.882m-3.418 4.816c-.013.03-1.276-1.09-1.506-1.37-.23-.282.13-.995-.67-1.736-.798-.74-1.864-.994-2.426-.964-.562.03-.594.616.342 1.526.936.91 1.87.81 2.395 1.212.524.403 1.335 1.112 1.702 1.563.55.004 1.818.266 2.53.37.714.11 2.206 1.175 3.507 1.187 1.085.037 1.797-.53 1.24-1.022-.556-.49-1.772-.88-2.57-.948-.798-.067-1.516.684-2.288.553-.57-.123-2.223-.28-2.256-.37m-2.298 7.344a1.407 6.065 79.752 1 1 .29-2.905 1.407 6.065 79.752 1 1-.29 2.902m-.116-1.554a1.343 6.355 68.504 0 1-.478-2.696 1.343 6.355 68.504 0 1 .478 2.696m-2.08-4.625a1.403 6.085 26.238 0 1-2.86-.53 1.403 6.085 26.238 1 1 2.86.53m1.454.785a1.323 6.45 41.823 0 1-2.23-1.475 1.323 6.45 41.823 0 1 2.23 1.475m.422 1.92a1.305 6.538 52.67 1 1-1.583-2.076 1.305 6.538 52.67 0 1 1.58 2.076m-5.933 2.59c-.03.022-.637-1.774-.705-2.174-.067-.4.668-.87.302-2.038-.366-1.166-1.257-2.023-1.816-2.32-.56-.296-.91.242-.503 1.65.406 1.406 1.364 1.85 1.65 2.537.284.686.68 1.83.788 2.47.53.32 1.61 1.303 2.24 1.817.63.514 1.49 2.39 2.738 3.154 1.03.662 2.028.534 1.76-.255-.27-.79-1.23-1.866-1.964-2.39-.734-.527-1.837-.227-2.51-.8-.483-.444-1.993-1.552-1.976-1.655m-3.595 6.27a1.763 6.137 89.068 0 1 .01-3.525 1.763 6.137 89.068 0 1-.01 3.526m-.815-5.512a1.704 6.35 37.587 0 1-2.616-2.188 1.704 6.35 37.587 1 1 2.616 2.188m.858 2.806a1.742 6.213 66.472 0 1-1.246-3.255 1.742 6.213 66.472 0 1 1.246 3.256m1.672-53.41a3.812.775 41.126 0 1-1.446.79 3.812.775 41.126 1 1 1.447-.79m-1.874 1.586a3.86.765 8.163 0 1 .293 1.585 3.86.765 8.163 1 1-.294-1.584m.754-1.004a4.038.732 26.817 1 1-.765 1.252 4.038.732 26.817 0 1 .766-1.252m-27.664 49.556s5.144 1.103 9.615 2.728c4.47 1.625 11.265 7.203 13.09 7.52 2.05.092 4.89-.607 5.967-3.565-3.154.845-5.045 2.12-8.056.468-1.063-.403-4.547-3.575-8.366-5.272-3.82-1.698-11.52-3.634-11.52-3.634l-.727 1.76m5.484-46.504c-.02-.044 5.92-3.123 5.92-3.123l-6.53 1.67-.756 1.148 1.366.307m5.614 1.436c-2.292-.417-5.817-1.187-8.062-1.367 1.552-1.72 3.69-4.627 5.007-6.41-.87 1.7-2.24 3.944-2.778 5.572 1.58.853 4.064 1.52 5.83 2.202m-6.675-1.074c-.025-.04 5.26-4.074 5.26-4.074l-6.11 2.734-.543 1.263 1.393.077m5.615 1.018c-2.308-.44-5.86-1.248-8.116-1.442 1.524-1.77 3.614-4.764 4.902-6.603-.84 1.755-2.168 4.068-2.678 5.75 1.602.886 4.107 1.585 5.892 2.295m-6.487-.684c-.015-.045 6.195-2.594 6.195-2.594l-6.67 1.098-.863 1.075 1.338.42m5.79.743c-2.336-.194-5.944-.63-8.198-.58 1.3-1.966 3.014-5.238 4.072-7.247-.628 1.872-1.67 4.37-1.976 6.132 1.69.727 4.248 1.165 6.098 1.692m-6.427-.71c-.034-.035 4.197-5.115 4.197-5.115l-5.318 3.974-.247 1.356 1.368-.22m6.4 1.05c-2.502-.047-6.38-.267-8.772-.055 1.183-2.237 2.677-5.93 3.6-8.196-.477 2.09-1.332 4.885-1.48 6.832 1.867.675 4.633.97 6.652 1.417m-7.245.16c-.03-.044 5.098-4.89 5.098-4.89l-6.167 3.413-.42 1.46 1.493.018m6.122 0c-2.688.01-6.827-.135-9.45.16 1.74-2.495 4.116-6.6 5.58-9.12-.946 2.315-2.45 5.418-3.012 7.567 1.875.696 4.796.954 6.882 1.394m-7.84.364c-.026-.048 6.51-5.514 6.51-5.514l-7.36 3.913-.757 1.62 1.607-.02m6.865-.203c-2.662.385-6.784.818-9.34 1.47 1.366-2.673 3.133-7.005 4.223-9.666-.606 2.39-1.65 5.623-1.9 7.795 1.957.415 4.888.26 7.017.4m-7.738 1.295c-.038-.04 5.016-6.948 5.016-6.948l-6.26 5.66-.335 1.734 1.58-.443m6.267-.467c-2.68.25-6.82.475-9.41.997 1.514-2.6 3.522-6.836 4.76-9.437-.74 2.354-1.964 5.53-2.336 7.687 1.932.515 4.868.507 6.987.753m-7.17 1.193c-.026-.05 6.386-5.526 6.386-5.526L301.41 218l-.732 1.632 1.592-.01m6.386-.916c-2.672.564-6.818 1.278-9.37 2.098 1.248-2.73 2.817-7.122 3.786-9.82-.493 2.396-1.387 5.656-1.532 7.815 2 .272 4.956-.085 7.116-.096m-7.448 1.21c-.043-.03 4.08-7.575 4.08-7.575l-5.522 6.55-.09 1.73 1.532-.71m7.448-.767c-2.867.745-7.335 1.723-10.04 2.75 1.04-3.103 2.228-8.077 2.963-11.134-.25 2.695-.837 6.376-.73 8.794 2.23.22 5.432-.307 7.804-.414m-8.246 2.52c-.043-.045 5.14-7.592 5.14-7.592l-6.572 6.135-.277 1.915 1.706-.46M307.52 220c-2.817.892-7.217 2.1-9.86 3.26.888-3.123 1.838-8.103 2.427-11.162-.122 2.68-.532 6.348-.315 8.73 2.23.1 5.394-.594 7.75-.827m-8.147 2.78c-.05-.036 3.907-8.38 3.907-8.38l-5.554 7.216.025 1.927 1.622-.764m7.07-1.63c-2.887.658-7.378 1.5-10.115 2.44 1.168-3.038 2.566-7.924 3.43-10.926-.365 2.66-1.106 6.284-1.107 8.678 2.213.28 5.425-.152 7.792-.192m-8 2.43c-.035-.053 6.382-6.56 6.382-6.56l-7.524 4.857-.613 1.842 1.755-.14m6.72-1.296c-2.86.384-7.298.798-10.028 1.484 1.327-2.978 2.993-7.812 4.022-10.782-.524 2.672-1.47 6.287-1.618 8.723 2.143.5 5.307.38 7.62.572m-7.982.642c-.048-.04 4.342-8.205 4.342-8.205l-5.89 6.902-.093 1.955 1.64-.656m8.334-1.61c-3.11 1.273-7.968 3.048-10.882 4.618.955-3.692 1.963-9.54 2.588-13.136-.112 3.115-.533 7.4-.273 10.14 2.47-.077 5.963-1.15 8.567-1.622m-8.93 4.102c-.05-.044 5.197-9.416 5.197-9.416l-6.86 7.967-.19 2.225 1.855-.776m7.735-2.94c-3.046 1.434-7.816 3.46-10.655 5.173.79-3.692 1.535-9.512 1.998-13.088.027 3.074-.202 7.318.18 10.005 2.46-.218 5.9-1.475 8.478-2.09m-8.8 4.365c-.056-.033 3.794-10.133 3.794-10.133l-5.677 9.05.144 2.194 1.74-1.11m7.463-3.52c-3.04 1.456-7.8 3.52-10.63 5.254.766-3.695 1.475-9.517 1.916-13.095.043 3.072-.16 7.315.24 9.997 2.46-.238 5.895-1.523 8.47-2.157m-8.317 4.727c-.047-.05 5.868-8.935 5.868-8.935l-7.396 7.31-.36 2.216 1.89-.594m8.042-5.19c-2.71 2.164-7 5.344-9.443 7.722-.004-3.73-.504-9.48-.805-13.016.68 2.928 1.355 7.04 2.304 9.504 2.39-.85 5.525-2.95 7.944-4.21m-7.752 5.614c-.065-.01.68-10.707.68-10.707l-2.828 10.41.79 1.96 1.358-1.666m6.98-4.624c-2.717 2.15-7.017 5.31-9.47 7.675.01-3.732-.464-9.487-.75-13.025.667 2.932 1.324 7.05 2.263 9.52 2.39-.84 5.534-2.923 7.958-4.17m-7.665 6.444c-.06-.025 2.735-10.462 2.735-10.462l-4.732 9.62.373 2.15 1.624-1.308m7.36-6.196c-2.57 2.53-6.66 6.286-8.93 9.006-.403-3.828-1.534-9.67-2.223-13.265 1.015 2.923 2.152 7.065 3.396 9.486 2.377-1.147 5.392-3.66 7.757-5.23m-7.345 7.537c-.068-.01.51-11.127.51-11.127l-2.732 10.81.85 2.04 1.372-1.723m6.53-5.688c-2.75 2.273-7.104 5.618-9.574 8.11-.083-3.876-.725-9.846-1.114-13.517.766 3.036 1.553 7.302 2.587 9.854 2.447-.906 5.636-3.116 8.106-4.447m-7.35 6.953c-.06-.036 3.874-10.466 3.874-10.466l-5.81 9.273.153 2.297 1.783-1.104m7.302-6.908c-2.433 2.573-6.308 6.393-8.46 9.157-.383-3.88-1.46-9.802-2.115-13.444.965 2.965 2.045 7.16 3.226 9.612 2.252-1.17 5.108-3.728 7.35-5.326m-7.158 7.446c-.068 0-.458-11.065-.458-11.065l-1.79 11.024 1.026 1.915 1.223-1.87m5.964-6.622c-2.355 2.597-6.112 6.453-8.18 9.24-.497-3.883-1.746-9.802-2.508-13.442 1.05 2.96 2.253 7.152 3.505 9.595 2.214-1.19 4.99-3.77 7.182-5.39m-6.59 7.722c-.062-.02 1.236-11.24 1.236-11.24l-3.296 10.63.657 2.185 1.403-1.575m6.08-7.288c-2.152 2.813-5.61 7.014-7.46 9.986-.792-3.812-2.487-9.578-3.524-13.124 1.273 2.84 2.79 6.894 4.226 9.202 2.12-1.4 4.695-4.24 6.758-6.064m-6.124 8.336c-.064-.004-.713-11.255-.713-11.255l-1.417 11.165 1.02 1.967 1.11-1.878m5.906-7.696c-2.02 2.945-5.28 7.357-6.99 10.446-.99-3.796-2.984-9.513-4.205-13.03 1.423 2.794 3.153 6.795 4.71 9.044 2.06-1.52 4.504-4.515 6.485-6.46m-5.207 8.742c-.063-.02 1.145-11.304 1.145-11.304l-3.222 10.626.68 2.224 1.397-1.546m4.8-7.694c-1.742 3.208-4.583 8.048-6.003 11.357-1.323-3.64-3.82-9.046-5.35-12.37 1.665 2.58 3.744 6.314 5.494 8.334 1.908-1.797 4.066-5.116 5.86-7.324m-5.194 8.627c-.063.018-3.16-10.72-3.16-10.72l1.068 11.3 1.424 1.593.668-2.173m5.12-7.374c-1.815 3.2-4.772 8.024-6.257 11.323-1.33-3.627-3.854-9.017-5.4-12.333 1.69 2.572 3.798 6.298 5.58 8.312 1.974-1.792 4.217-5.1 6.077-7.302m-4.975 9.397c-.066 0-1.16-11.273-1.16-11.273l-1.044 11.273 1.128 1.932 1.08-1.933m5.16-8.408c-1.865 3.156-4.9 7.91-6.437 11.175-1.272-3.658-3.707-9.107-5.2-12.46 1.65 2.612 3.695 6.388 5.445 8.443 2.003-1.745 4.3-5 6.193-7.158m-5.265 9.308c-.066.008-2.09-11.07-2.09-11.07l-.103 11.338 1.283 1.785.91-2.052m4.465-7.708c-2.012 3.022-5.267 7.56-6.957 10.714-1.095-3.74-3.266-9.35-4.595-12.803 1.52 2.723 3.383 6.635 5.03 8.808 2.083-1.6 4.53-4.693 6.523-6.716m-5.44 8.943c-.064-.018.937-11.315.937-11.315l-3.083 10.73.744 2.186 1.403-1.6m5.557-8.67c-1.72 3.273-4.536 8.22-5.924 11.58-1.436-3.568-4.115-8.847-5.756-12.095 1.764 2.5 3.98 6.132 5.82 8.07 1.92-1.875 4.066-5.276 5.86-7.555m-5.934 9.615c-.065.02-3.473-10.546-3.473-10.546l1.337 11.214 1.496 1.53.64-2.195m5.47-8.773c-1.203 3.592-3.23 9.067-4.09 12.67-1.95-3.19-5.38-7.79-7.486-10.624 2.112 2.07 4.84 5.156 6.94 6.657 1.61-2.262 3.21-6.072 4.635-8.703m-2.386 9.628c-.064.024-3.76-10.4-3.76-10.4l1.644 11.154 1.537 1.465.58-2.22m2.356-8.523c-1.176 3.605-3.164 9.1-4 12.714-1.972-3.17-5.436-7.732-7.56-10.543 2.127 2.047 4.875 5.105 6.99 6.583 1.592-2.28 3.165-6.106 4.57-8.75m-2.328 10.295c-.06.033-4.837-9.726-4.837-9.726l2.817 10.8 1.68 1.212.34-2.29m1.965-9.392c-.752 3.74-2.092 9.475-2.505 13.176-2.323-2.86-6.284-6.89-8.715-9.37 2.346 1.724 5.424 4.36 7.69 5.524 1.32-2.487 2.44-6.506 3.53-9.33m-1.645 10.923c-.066.013-2.608-10.906-2.608-10.906l.43 11.322 1.366 1.69.812-2.11m1.66-9.757c-.4 3.825-1.195 9.713-1.26 13.453-2.57-2.534-6.875-6.01-9.518-8.154 2.488 1.4 5.788 3.61 8.144 4.463 1.08-2.653 1.818-6.804 2.636-9.762m-1.53 10.56c-.05.05-6.895-7.874-6.895-7.874l5.2 9.533 1.9.65-.2-2.312m1.67-9.22c-.414 3.824-1.233 9.707-1.313 13.446-2.56-2.55-6.85-6.05-9.486-8.207 2.486 1.41 5.777 3.64 8.13 4.505 1.088-2.646 1.84-6.793 2.67-9.746m-.903 11.04c-.06.036-5.296-9.49-5.296-9.49l3.33 10.653 1.738 1.137.23-2.3m1.207-9.468c-.252 3.846-.823 9.775-.746 13.517-2.665-2.394-7.094-5.63-9.814-7.63 2.537 1.263 5.914 3.29 8.3 4.013.974-2.71 1.553-6.9 2.257-9.903m-.537 11.216c-.053.047-6.543-8.297-6.543-8.297l4.772 9.844 1.868.77-.097-2.32m.61-9.438c-.227 3.85-.762 9.784-.663 13.525-2.676-2.365-7.124-5.566-9.856-7.54 2.545 1.24 5.934 3.24 8.323 3.94.958-2.72 1.512-6.913 2.197-9.922m-.014 10.85c-.062.03-4.588-10.004-4.588-10.004l2.54 10.95 1.65 1.316.398-2.263m.19-9.702c.13 3.862.15 9.84.597 13.552-2.874-1.997-7.585-4.584-10.478-6.18 2.64.893 6.188 2.426 8.623 2.802.697-2.84.856-7.09 1.257-10.177m.61 9.31c-.04.065-8.38-5.736-8.38-5.736l7.105 7.828 1.974.102-.695-2.193m-.35-8.9c.332 3.843.666 9.8 1.307 13.483-2.983-1.882-7.836-4.283-10.816-5.764 2.69.79 6.323 2.184 8.78 2.467.55-2.853.488-7.096.728-10.188m1.25 11.04c-.05.05-6.982-8.026-6.982-8.026l5.29 9.638 1.91.696-.217-2.307m-.64-9.57c.494 3.827 1.078 9.772 1.873 13.42-3.052-1.706-7.988-3.816-11.02-5.12 2.713.63 6.392 1.806 8.853 1.94.43-2.89.188-7.132.297-10.24m2.033 10.922c-.038.063-8.315-5.876-8.315-5.876l7.014 7.94 1.972.137-.673-2.205m-1.774-9.292c.746 3.784 1.72 9.676 2.752 13.25-3.145-1.417-8.188-3.06-11.286-4.078 2.737.373 6.47 1.2 8.923 1.104.232-2.93-.29-7.154-.39-10.275m2.692 10.46c-.052.047-6.878-8.155-6.878-8.155l5.16 9.73 1.902.734-.187-2.31m-2.238-9.412c1.092 3.68 2.608 9.434 3.963 12.866-3.24-.994-8.38-1.962-11.54-2.563 2.74.01 6.508.337 8.925-.09-.045-2.96-.957-7.106-1.348-10.21m2.603 9.424c-.014.075-9.608-2.06-9.608-2.06l9.138 4.544 1.846-.695-1.375-1.79m-1.977-8.276c1.077 3.685 2.57 9.447 3.912 12.886-3.238-1.013-8.375-2.01-11.53-2.628 2.74.02 6.507.37 8.925-.04-.033-2.96-.93-7.112-1.307-10.218m3.55 9.295c-.03.068-9.195-4.44-9.195-4.44l8.246 6.684 1.976-.185-1.028-2.056m-4.03-8.657c1.827 3.358 4.497 8.652 6.528 11.71-3.368-.258-8.583-.07-11.79.04 2.675-.6 6.42-1.11 8.69-2.06-.656-2.884-2.404-6.74-3.427-9.69m5.483 9.658c-.017.074-9.553-2.638-9.553-2.638l8.966 5.077 1.882-.576-1.298-1.863m-4.492-8.232c1.846 3.344 4.546 8.62 6.596 11.662-3.368-.23-8.578.003-11.78.14 2.668-.623 6.407-1.165 8.67-2.134-.675-2.88-2.445-6.722-3.486-9.665m5.702 9.015c-.034.065-8.903-5.325-8.903-5.325l7.78 7.444 2 .02-.874-2.14m-4.962-8.174c2.137 3.122 5.302 8.073 7.61 10.865-3.33.21-8.424 1.124-11.557 1.678 2.562-.974 6.18-2.006 8.308-3.275-.94-2.807-3.053-6.44-4.36-9.264m5.613 8.956c-.003.08-9.61-.226-9.61-.226l9.508 2.81 1.69-1.05-1.588-1.534m5.572-46.56c0-.03 6.913-1.153 6.913-1.153l-6.88.16-1.2.617 1.166.376m3.796 1.47c-2.006-.607-5.038-1.62-7.097-2.07 2.185-.87 5.424-2.41 7.42-3.358-1.537.96-3.766 2.192-4.954 3.155 1.148.78 3.23 1.575 4.628 2.272m-4.1-1.235c-.008-.03 6.69-1.84 6.69-1.84l-6.93.885-1.046.717 1.286.237m4.422 1.73c-2.344-.22-5.94-.67-8.252-.694 1.743-1.543 4.186-4.124 5.69-5.71-1.034 1.49-2.625 3.467-3.31 4.876 1.57.63 4.093 1.053 5.872 1.528m-6.91-1.25c.006-.032 6.952-.786 6.952-.786l-6.773-.217-1.267.557 1.09.445m5.148 1.512c-2.132-.408-5.37-1.118-7.526-1.37 2.048-1.006 5.033-2.736 6.87-3.798-1.37 1.036-3.395 2.39-4.42 3.4 1.298.643 3.542 1.223 5.076 1.768m-5.746-1.586c-.018-.026 6.12-2.633 6.12-2.633l-6.703 1.77-.803.815 1.386.048m5.542 2.356c-1.774-.732-4.49-1.973-6.246-2.49 1.36-1.263 3.274-3.48 4.453-4.838-.82 1.358-2.077 3.114-2.63 4.46 1.18 1.003 3.082 1.987 4.42 2.87m-5.19-1.907c-.014-.04 4.76-2.063 4.76-2.063l-5.185.71-.637.924 1.06.43m-3.984 44.582c.004.075-9.867.073-9.867.073l9.99 2.443 1.64-1.074-1.763-1.443m1.774.64c-.01.07-10.02-2.332-10.02-2.332l9.622 4.718 1.886-.607-1.488-1.78m1.644.668c0 .076-9.95-.5-9.95-.5l9.95 2.997 1.705-.967-1.705-1.53m-6.312-7.025c2.587 2.852 6.465 7.397 9.18 9.913-3.34.505-8.374 1.855-11.47 2.68 2.46-1.182 5.983-2.516 7.964-3.947-1.334-2.658-3.967-6.01-5.675-8.65m7.68 7.537c-.02.07-9.945-3.254-9.945-3.254l9.344 5.556 1.955-.416-1.358-1.89m-6.762-6.877c2.82 2.573 7.076 6.703 9.985 8.918-3.202.922-7.962 2.91-10.89 4.125 2.272-1.5 5.563-3.285 7.342-4.98-1.58-2.525-4.496-5.6-6.437-8.063m7.58 7.49c.014.078-9.438 1.857-9.438 1.857l9.944.677 1.407-1.383-1.91-1.147m-1.967-.598c.01.076-9.842.755-9.842.755l10.155 1.745 1.555-1.184-1.868-1.316"/><path d="M310.808 261.935c-.007.073-10.177-1.63-10.177-1.63l9.96 4.037 1.84-.735-1.62-1.672zm1.688.553c.005.075-9.968.187-9.968.187l10.155 2.302 1.63-1.08-1.817-1.41zm-6.836-6.574c2.797 2.664 7.008 6.927 9.908 9.246-3.298.734-8.22 2.428-11.248 3.463 2.367-1.347 5.783-2.92 7.653-4.484-1.532-2.557-4.41-5.718-6.314-8.228zm8.246 6.98c-.013.07-10.17-2.556-10.17-2.556l9.745 4.893 1.926-.543-1.498-1.79zm-7.272-6.4c3.008 2.37 7.565 6.194 10.635 8.2-3.13 1.14-7.73 3.45-10.564 4.863 2.156-1.65 5.307-3.657 6.955-5.468-1.764-2.41-4.906-5.277-7.03-7.597zm8.13 6.954c.02.076-9.28 2.5-9.28 2.5l9.977-.01 1.3-1.478-1.993-1.01z"/></g><path d="M327.58 249.484l-7.58-5.238-7.58 5.238 2.842-8.38-6.633-5.24h8.524l2.843-8.382 2.84 8.382h8.53l-6.634 5.24 2.843 8.38z" fill="#fedf00" stroke="#000" stroke-width=".435"/></svg>