<svg xmlns="http://www.w3.org/2000/svg" height="480" width="640" viewBox="0 0 640 480"><defs><clipPath id="a"><path fill-opacity=".67" d="M0 0h682.67v512H0z"/></clipPath></defs><g clip-path="url(#a)"><path d="M0 0h720v240H319.997L0 0z" fill-rule="evenodd" fill="#ed2939"/><path d="M0 480h720V240H319.997L0 480z" fill-rule="evenodd" fill="#002395"/><path d="M0 0l319.997 240L0 480V0z" fill-rule="evenodd" fill="#fff"/><path fill="#ff0" d="M161.548 181.095l.098-3.715s-1.995-3.178.32-6.594c0 0-4.92-2.602-3.774-6.678 0 0-4.45-1.137-4.122-6.03 0 0-4.802-.332-5.3-4.42 0 0-4.802.79-6.915-3.193 0 0-4.684.916-6.006-2.368 0 0-4.555 1.578-7.258-2.283 0 0-4.807 1.944-6.823-1.7-1.99 3.63-6.798 1.7-6.798 1.7-2.67 3.847-7.256 2.25-7.256 2.25-1.275 3.297-5.947 2.362-5.947 2.362-2.107 3.984-6.904 3.192-6.904 3.192-.47 4.075-5.265 4.408-5.265 4.408.38 4.905-4.063 6.02-4.063 6.02 1.172 4.073-3.742 6.67-3.742 6.67 2.375 3.433.4 6.586.4 6.586l-.112 3.426 79.476.368"/><path d="M161.512 181.156l.096-3.717s-1.994-3.18.323-6.597c0 0-4.92-2.604-3.775-6.68 0 0-4.45-1.14-4.123-6.034 0 0-4.803-.335-5.3-4.424 0 0-4.805.79-6.917-3.193 0 0-4.685.914-6.008-2.37 0 0-4.555 1.577-7.258-2.285 0 0-4.81 1.943-6.827-1.7-1.99 3.632-6.8 1.7-6.8 1.7-2.67 3.848-7.255 2.25-7.255 2.25-1.277 3.3-5.95 2.363-5.95 2.363-2.106 3.988-6.902 3.194-6.902 3.194-.473 4.08-5.268 4.41-5.268 4.41.378 4.908-4.063 6.02-4.063 6.02 1.17 4.078-3.745 6.677-3.745 6.677 2.376 3.435.4 6.59.4 6.59l-.112 3.43 79.497.365h-.014z" stroke="#000" stroke-width="0.310675" fill="none"/><path fill="#f00" d="M159.7 176.453c-12.484-1.248-26.858-4.212-37.953 2.035-7.44-4.382-17.796-4.114-26.614-3.257-4.79.86-10.422.86-15.428 1.676l-.784.11c-9.08.604-17.316-2.078-25.207-5.604 2.506 14.22 5.287 28.793 6.654 43.68 2.977 22.05-10.435 40.56-4.933 62.34 3.285 10.45 14.78 16.528 25.3 17.732 10.186.6 20.726 2.27 30.154 4.316 1.792.373 3.918 1.205 5.156 1.74 2.597 1.085 4.5 2.682 6.17 4.39 5.69-5.928 14.032-7.576 22.262-8.446 14.832-1.733 33.118-.79 42.197-14.224v-.76c4.934-7.43 4.28-18.764 2.14-27.183-.144-2.937-.93-5.526-1.354-8.325-9.06-23.927-1.303-50.835 2.596-74.95-4.763 2.603-10.075 3.832-15.374 5.134-4.226.562-8.936.307-13.214.078l-1.772-.478"/><path fill="#80cfe1" d="M178.335 245.123c-.058 1.575.792 2.812 1.1 4.27 1.734 10.46 3.408 24.312-7.36 30.8-11.914 7.575-27.538 4.33-41.323 8.34-2.754.765-6.548 3.297-8.485 5.088-1.243-.815-2.493-2.07-4.096-2.81-11.342-6.03-26.09-4.01-38.892-7.267-6.43-2.034-13.136-7.043-14.766-13.624-4.186-17.267 5.844-31.985 4.66-49.114-.766-13.08-2.965-25.64-5.987-37.903 10.01 4.663 21.596 5.442 32.85 3.206 8.334-1.166 18.037-1.19 25.85 2.333 4.304-1.85 9.34-2.682 13.98-3.192 8.82.858 18.3 2.454 27.38 2.39 6.066-.316 11.574-2.07 16.847-4.404-3.128 20.27-9.133 41.502-1.76 61.888"/><path fill="#fff" d="M160.333 249.163l-.097-19.06h2.348l-29.14-18.82-.053-9.777h2.815l-14.57-10.43-14.498 10.425h2.807l.052 9.773-28.983 18.792 2.316.013.097 19.047 76.9.052"/><path d="M160.297 249.257l-.097-19.07h2.348L133.4 211.364l-.05-9.783h2.813l-14.574-10.437-14.502 10.432h2.805l.054 9.776-28.99 18.803 2.317.01.1 19.058 76.915.055.007-.015z" stroke="#000" stroke-width="1.3351499999999998" fill="none"/><path fill="#fff" d="M169.297 274.198l.006 5.965-93.876-.105-.04-5.94 93.917.08"/><path d="M169.262 274.305l.007 5.966-93.9-.102-.04-5.943 93.94.08h-.008z" stroke="#000" stroke-width="1.3351499999999998" fill="none"/><path fill="#fff" d="M81.662 273.844l-.08-20.185 3.802-.01-.21 20.42.23-20.256-5.476-.157v-4.33l83.9.093.04 4.29h-5.176l.097 20.44-.185-20.44h3.853l.085 20.21"/><path d="M81.607 273.95l-.078-20.195 3.8-.007-.21 20.43.23-20.266-5.478-.157v-4.332l83.92.09.04 4.294h-5.178l.097 20.45-.182-20.45h3.855l.086 20.22m-62.864-5.054l-.06-14.083H88.318l.065 14.07 11.263.013m-8.256-11.148l.032 8.18h5.157l-.027-8.18H91.39m63.34 11.19l-.066-14.068-11.23-.012.053 14.082h11.242M146.472 257.88l.06 8.153h5.15l-.046-8.154h-5.164m8.17-11.794l-.064-14.082h-11.245l.04 14.082h11.275-.007zm207.882 646.298l.032 8.167h5.15l-.006-8.166h-5.176m-46.838 11.072l-.078-14.056-11.25-.014.055 14.064h11.273v.007zm-4.412-11.122l.026 8.154 5.163.013-.04-8.166h-5.148m28.65 11.147l-.055-14.055-11.255-.013.047 14.068h11.26m-8.244-11.125l.025 8.154 5.157.025-.032-8.18h-5.15m23.962 11.158l-.078-14.083-11.25-.014.055 14.07 11.273.026m-8.257-11.146l.04 8.18h5.156l-.027-8.18h-5.17" stroke="#000" stroke-width="1.3351499999999998" fill="none"/><path fill="#fff" d="M138.494 241.673l.125 32.45-32.603-.053-.117-32.422 32.588.025"/><path d="M138.453 241.765l.125 32.465-32.608-.054-.12-32.437 32.595.025h.008zm184.47 666.99l32.83.027m-28.735 23.162l-.11-22.942m24.963 22.953l-.11-22.93m15.86-23.36l-18.36-13.41-20.634-.025-18.218 13.384 57.21.05m-37.41-24.542l.033 8.18 17.356.012-.032-8.18-17.355-.012m4.71 2.033l.025 4.076h7.97l-.027-4.075h-7.97m3.945-11.34l9.653 6.823-19.233-.025 9.58-6.8" stroke="#000" stroke-width="1.3351499999999998" fill="none"/><path fill="#fff" d="M160.656 189.4c2.74-.064 3.448 11.29 3.454 16.916 2.355.66 7.575 3.944 9.885 6.913l-26.484-.04c2.28-2.93 7.46-6.228 9.797-6.888 0-5.632.576-16.98 3.35-16.915"/><path d="M160.62 189.466c2.74-.065 3.448 11.295 3.455 16.923 2.354.66 7.578 3.944 9.887 6.915l-26.49-.038c2.277-2.932 7.46-6.23 9.797-6.89 0-5.634.575-16.99 3.35-16.924m-53.245 53.215h2.375l-.694 1.275s1.146 1.472.022 3.16l.62 1.172h-2.29l.624-1.113s-1.172-1.956.05-3.218l-.706-1.275m4.837 0h2.376l-.69 1.274s1.147 1.434.01 3.16l.613 1.172h-2.285l.615-1.113s-1.145-1.956.06-3.218l-.7-1.275m5.29 0h2.37l-.71 1.275s1.16 1.473.02 3.16l.624 1.2-2.272-.026.61-1.114s-1.16-1.942.044-3.22l-.695-1.274h.006zm224.684 657.684h2.388l-.7 1.29s1.145 1.445.007 3.14l.64 1.192h-2.304l.616-1.114s-1.146-1.97.078-3.22l-.72-1.29h-.007zm4.884-.002h2.37l-.7 1.29s1.152 1.446.012 3.134l.63 1.197h-2.287l.596-1.114s-1.15-1.957.092-3.22l-.712-1.29m5.267.01l2.37-.012-.7 1.29s1.17 1.446.03 3.14l.597 1.192h-2.29l.613-1.114s-1.143-1.956.08-3.22l-.7-1.275" stroke="#000" stroke-width="1.3351499999999998" fill="none"/><path fill="#ff0" d="M122.35 315.715c12.21.04 27.224-2.452 34.258-6.088l15.446-1.37.307 18.846c-13.083 7.214-43.295 8.764-49.943 8.71-6.653.054-37.238-1.522-50.383-8.762l.17-18.855 15.48 1.393c7.033 3.618 22.505 6.128 34.7 6.128h-.033"/><path d="M122.306 315.843c12.213.04 27.23-2.454 34.264-6.092l15.45-1.368.307 18.854c-13.087 7.217-43.306 8.77-49.955 8.716-6.654.054-37.25-1.524-50.396-8.768l.172-18.866 15.482 1.393c7.035 3.62 22.51 6.133 34.71 6.133h-.034" stroke="#000" stroke-width="0.310675" fill="none"/><path fill="#ff0" d="M32.266 235.334l13.61 4.33-4.117 22.03-12.883 2s-2.172-11.582 3.388-28.372"/><path d="M32.2 235.422l13.612 4.332-4.118 22.04-12.883 2.003s-2.17-11.59 3.39-28.388v.012z" stroke="#000" stroke-width="0.310675" fill="none"/><path fill="#7e7e7e" d="M41.756 261.455l-12.875 2.243 8.147-11.584 4.73 9.34"/><path d="M41.692 261.555L28.814 263.8l8.148-11.588 4.73 9.343" stroke="#000" stroke-width="0.310675" fill="none"/><path fill="#ff0" d="M24.13 251.204l13.118.948c.294 11.113 1.64 53.523 52.293 55.825l-1.575 15.43c-61.655.64-66.34-52.02-63.834-72.203"/><path d="M24.062 251.3l13.12.948c.295 11.12 1.643 53.55 52.306 55.853l-1.576 15.438c-61.67.64-66.356-52.044-63.85-72.238zm273.408 732.46l15.463-3.375" stroke="#000" stroke-width="0.310675" fill="none"/><path fill="#ff0" d="M211.362 235.495l-13.556 4.29 4.3 21.998 12.907 2.073s2.074-11.577-3.65-28.373"/><path d="M211.338 235.583l-13.56 4.293 4.3 22.007 12.912 2.075s2.075-11.583-3.652-28.387v.013z" stroke="#000" stroke-width="0.310675" fill="none"/><path fill="#7e7e7e" d="M202.098 261.55l12.908 2.317-8.256-11.59-4.652 9.274"/><path d="M202.07 261.652l12.912 2.317-8.258-11.596-4.652 9.277" stroke="#000" stroke-width="0.310675" fill="none"/><path fill="#ff0" d="M219.65 251.377l-13.137.896c-.19 11.1-1.16 53.528-51.81 55.778l1.72 15.418c61.642.713 65.883-51.92 63.226-72.098"/><path d="M219.626 251.472l-13.14.898c-.19 11.104-1.157 53.554-51.82 55.805l1.72 15.424c61.658.71 65.9-51.947 63.24-72.133v.004zm164.1 732.352l-15.502-3.386" stroke="#000" stroke-width="0.310675" fill="none"/><path fill="#009fc5" d="M121.76 346.666c-.37.237-.87.3-1.45.272l-2.61-.133.223-3.257 2.59.138c.51.035.913.134 1.165.287.523.272.753.775.704 1.472-.034.6-.244.99-.628 1.22m-4.382 5.13l.258-3.97 3.043.21c.984.075 1.716-.183 2.212-.686.516-.49.782-1.13.816-1.857.065-.845-.15-1.535-.654-2.045-.48-.49-1.165-.747-2.023-.83l-4.348-.272-.6 9.348 1.29.084m9.476-7.808l3.183.035c.46.042.824.098 1.09.223.487.23.718.69.718 1.36 0 .63-.18 1.048-.537 1.3-.342.23-.837.333-1.43.333l-3.057-.034.028-3.216m-.05 8.282l.03-3.99 2.986.04c.53 0 .92.043 1.192.175.44.2.656.628.677 1.213l.075 1.57c.02.376.028.607.05.76.04.112.06.23.117.315h1.605l-.028-.203c-.18-.098-.33-.286-.39-.572-.057-.182-.085-.454-.1-.796l-.027-1.248c-.02-.567-.12-.957-.335-1.174a1.673 1.673 0 0 0-.845-.6c.446-.236.78-.508 1.026-.844.23-.37.35-.837.35-1.408 0-1.075-.44-1.808-1.334-2.205-.482-.217-1.096-.33-1.822-.343l-4.487-.042-.035 9.376h1.29m9.962-1.98c-.572-.698-.88-1.57-.95-2.603-.062-1.298.19-2.288.782-2.96.6-.724 1.375-1.072 2.387-1.13 1.02-.054 1.856.274 2.477.915.637.63 1 1.5 1.062 2.59.035 1.045-.146 1.973-.628 2.79-.474.83-1.263 1.297-2.428 1.325-1.215.063-2.122-.223-2.7-.928m-1.536-5.904c-.6.93-.845 2.004-.782 3.3.09 1.404.523 2.56 1.34 3.435.907.872 2.108 1.31 3.587 1.227 1.584-.07 2.777-.67 3.587-1.772.656-.997.97-2.156.9-3.586-.09-1.278-.46-2.318-1.15-3.092-.874-1.04-2.15-1.5-3.88-1.43-1.634.104-2.835.704-3.61 1.918m44.074-13.49c.9-.153 1.682-.11 2.394.133 1.047.327 1.752 1.102 2.19 2.288l-1.29.18c-.28-.64-.677-1.08-1.214-1.324-.523-.23-1.18-.286-1.933-.173a3.01 3.01 0 0 0-2.08 1.276c-.488.752-.635 1.757-.418 3.04.18 1.06.572 1.96 1.214 2.56.59.615 1.463.83 2.6.67.85-.14 1.536-.48 2.018-1.067.5-.557.648-1.402.48-2.49l-3.008.46-.153-1.032 4.186-.64.816 4.96-.83.125-.517-1.144c-.35.518-.698.915-1.005 1.145-.516.405-1.214.663-2.086.79-1.13.173-2.163-.03-3.098-.63-1.026-.76-1.69-1.89-1.94-3.46-.273-1.54-.028-2.86.684-3.9.676-1.004 1.66-1.59 2.986-1.78m9.47-.707l3-1.09c.412-.152.768-.2 1.075-.165.55.04.956.37 1.186 1.024.217.56.217 1.047-.027 1.39-.26.355-.664.613-1.25.83l-2.82 1.01-1.165-3m3 7.752l-1.465-3.76 2.792-1.006c.524-.167.887-.258 1.16-.23.494.063.87.364 1.122.935l.635 1.43c.14.355.25.57.34.67.042.125.133.202.203.285l1.514-.556-.084-.204c-.223 0-.44-.124-.6-.37-.118-.173-.23-.424-.39-.717l-.496-1.174c-.223-.51-.454-.822-.72-1.01a2.395 2.395 0 0 0-.997-.273c.308-.356.53-.712.615-1.13.09-.426.05-.9-.153-1.43-.384-.998-1.09-1.542-2.08-1.612-.523-.04-1.123.07-1.814.314l-4.215 1.5 3.405 8.82 1.235-.455m10.967-4.674l-5.352-7.807 5.876-3.748.65.943-4.817 3.075 1.647 2.386 4.446-2.86.607.915-4.446 2.86 1.817 2.63 4.9-3.13.648.92-5.98 3.817m4.695-13.81l1.534-1.688c.712-.755 1.466-1.097 2.29-1 .823.07 1.66.503 2.553 1.285.245.188.46.432.684.704.393.51.623.956.77 1.402.125.56.098 1.068-.1 1.556-.116.245-.326.53-.64.873l-1.542 1.676-5.548-4.82m8.11 3.675c1.087-1.2 1.324-2.49.69-3.947a6.668 6.668 0 0 0-1.718-2.226c-.984-.874-2.01-1.32-3.09-1.403-1.2-.09-2.22.342-3.107 1.31l-2.617 2.805 7.216 6.293 2.617-2.82m5.6-7.286l-8.305-4.877.677-1.074 8.32 4.85-.685 1.114m3.25-5.676l-8.968-3.587 2.644-6.306 1.088.42-2.156 5.198 2.7 1.06 2.017-4.785 1.034.426-1.996 4.78 3.023 1.227 2.212-5.26 1.09.41-2.695 6.42m4.123-11.014l-9.435-2.086.314-1.458 8.715-2.945-7.655-1.69.28-1.143 9.434 2.03-.3 1.416-8.73 3.007 7.655 1.653-.272 1.214m-.752-11.977l.118-1.186c.545.015 1.005-.07 1.354-.257.684-.37 1.082-1.074 1.186-2.115.042-.488.02-.915-.09-1.32-.203-.78-.642-1.213-1.347-1.283-.523-.056-.9.07-1.173.356-.244.33-.502.803-.697 1.473l-.433 1.235c-.28.81-.537 1.367-.817 1.68-.446.588-1.074.79-1.877.734-.86-.09-1.557-.432-2.052-1.088-.51-.6-.72-1.458-.594-2.52.084-.968.405-1.785.977-2.44.53-.6 1.356-.887 2.41-.776l-.1 1.186c-.514 0-.926.09-1.226.3-.544.3-.844.935-.935 1.863-.078.767.027 1.283.32 1.674.293.33.663.538 1.095.573.46.04.824-.105 1.075-.46.18-.245.397-.775.69-1.633l.426-1.298c.21-.6.46-1.06.753-1.388.522-.544 1.206-.775 2.064-.71 1.047.11 1.794.543 2.177 1.34.378.8.525 1.687.434 2.69-.12 1.138-.488 2.03-1.172 2.63-.684.615-1.536.824-2.568.74m-195.588-.573l.217 1.173c-.524.104-.942.314-1.25.586-.55.515-.74 1.29-.55 2.344.083.446.244.885.446 1.235.42.71.962.996 1.653.884.51-.09.844-.285 1.005-.648.152-.358.264-.9.3-1.6l.062-1.32c.04-.814.132-1.455.314-1.812.286-.642.823-1.04 1.626-1.17.858-.156 1.612.04 2.26.53.657.452 1.09 1.24 1.25 2.286.202.957.112 1.815-.265 2.59-.363.753-1.06 1.213-2.13 1.408l-.21-1.185c.497-.182.867-.357 1.11-.6.42-.468.546-1.145.385-2.072-.125-.754-.384-1.242-.774-1.485-.384-.288-.768-.4-1.187-.33-.467.07-.774.33-.92.747-.09.28-.16.858-.224 1.744l-.063 1.368c-.035.642-.132 1.173-.35 1.536-.34.67-.92 1.08-1.764 1.213-1.07.18-1.893-.063-2.48-.747-.6-.67-.97-1.472-1.157-2.47-.21-1.185-.056-2.106.42-2.845.48-.76 1.24-1.2 2.274-1.346m-.597 12.352l9.227-2.776 2.15 6.495-1.124.354-1.76-5.338-2.804.845 1.624 4.932-1.075.34-1.613-4.945-3.126.934 1.787 5.455-1.102.315-2.185-6.614m4.094 11.267l8.486-4.5.907 1.584-5.834 6.168 8.52-1.458.88 1.57-8.465 4.472-.6-1.04 4.996-2.63c.182-.106.46-.26.866-.475.397-.18.844-.426 1.29-.656l-8.485 1.443-.62-1.102 5.79-6.146-.28.14c-.18.104-.494.258-.92.502a6.98 6.98 0 0 1-.934.5l-4.98 2.673-.615-1.06m15.81 12.506c-.427-.098-.846-.342-1.257-.768l-1.794-1.85 2.415-2.21 1.806 1.842c.35.342.572.676.69.963.17.55 0 1.053-.51 1.527-.46.426-.92.6-1.352.495m-6.818.857l2.96-2.714 2.1 2.128c.676.692 1.367 1.006 2.093.993a2.953 2.953 0 0 0 1.932-.846c.63-.558.93-1.214.93-1.918-.008-.684-.322-1.326-.9-1.926l-3.016-3.077-7.02 6.446.907.913m8.484 7.532l5.087-7.976 6.016 3.655-.628.95-4.94-2.958-1.53 2.414 4.54 2.76-.585.914-4.55-2.74-1.73 2.698 5.003 3.008-.6.94-6.086-3.662m15.052-1.535l3.056.97c.433.132.747.3.956.49.39.37.496.9.266 1.54-.19.558-.475.92-.92 1.075-.4.07-.9.07-1.488-.112l-2.882-.92 1.012-3.043m-2.638 7.835l1.27-3.802 2.847.928c.51.133.88.314 1.06.502.35.314.455.78.28 1.36l-.426 1.514c-.1.37-.148.614-.19.726 0 .12 0 .245.02.328l1.5.488.09-.216c-.16-.126-.25-.355-.242-.64.034-.177.083-.455.18-.777l.363-1.216c.148-.53.204-.927.07-1.213-.11-.3-.3-.572-.613-.83.473-.083.885-.23 1.234-.49.33-.284.608-.682.776-1.24.34-1.012.152-1.856-.6-2.5-.378-.332-.916-.62-1.62-.884l-4.27-1.318-2.988 8.894 1.25.384" transform="scale(.938)"/><path fill="#bc715f" d="M73.62 164.69c1.033-2.495 10.617-9.293 42.063-6.315 0 0 5.314 3.245 8.437 2.827 1.78-.23-1.048.11-3.37-1.82-2.37-1.93-2.875-5.89 2.54-5.784 5.386.137 25.554 1.275 25.934 3.087.352 1.833-10.665 2.6-14.762 2.495-4.118-.11-3.64 1.97.458 1.813 12.804-.46 26.78-4.968 41.54 5.47 1.76 1.27-4.45 1.473-9.256-.57 0 0-13.02.675-18.65-.248 0 0-4.326 3.52-9.962 3.174.733 1.824-2.082 8.637-19.8 3.512-2.927.897-13.59 2.683-12.425-.484-2.808 0-7.73.902-8.464-.695-.707-1.57 8.667-3.946 10.31-5.647 0 0-19.828.19-23.585-1.18 0 0-11.697 2.626-11.01.348"/><path fill="#008737" d="M79.974 192.448c.426-.575.596-1.61 1.5-1.584 1.963.524 3.298 4.116 5.713 1.786.858-.19 1.185.976 1.892 1.114.45 1.996 2.053-.407 3.25-.27 2.56-1.138 5.73-1.407 8.76-.844.09 1.957-1.44 4.117-3.365 5.23.04 1.97 1.827 3.233 1.794 5.215-.31.74-.054 1.904-1.174 2.146-1.42-.253-2.82-.403-3.998-1.195-.146-.144-.264-.426-.564-.334-.145.66.89 1.317 1.295 1.99-.713 1.217-1.897.105-2.89.118-.297.7-.016 1.584-.736 2.035-1.257-.04-1.512-1.407-2.284-2.087-.792.857.557 1.368.747 2.048-.484 2.58-.42 5.098-2.998 6.786l-1.73.858c-.47-1.297-.177-3.26-.49-4.615-1.02 1.663-1.82 3.116-3.32 4.522-1.754-.576-2.776-2.643-3.16-4.358-.735-1.996-.315-4.385 1.262-5.83-.537-1.05-2.377-.806-2.638-2.297-2.756-1.794-4.28 3.14-6.062.575-.576-2.395.112-5.373 1.846-7.16-.387-.98-1.67-.725-2.43-1.288-1.734-1.473-4.234-3.03-4.11-5.688 4.746-1.793 10.42-.48 13.87 3.127"/><path fill="#ff0" d="M82.436 192.18c-.11 2.17 1.467.587 2.64 1.903-.918-.36-1.586 1.583-2.482.47l-.563.538c.33.748.964.846.3 1.664-.98.372-1.175-.857-1.634-1.34-.08-.217.15-.623-.21-.768-.555.47-1.138.642-1.904.563-.208-.42-.614-.97-.202-1.29.753-1.015 1.918.366 2.488-.347.09-.628-.46-1.393.255-1.826.492.085 1.12-.182 1.324.433m5.864 1.783c.06.42-.215 1.008.335 1.304.713-.387 1.473-.094 1.885.615-.006.38.11.876-.386 1.06l-1.113-.21c.08-.216-.273-.353-.41-.562-.49-.15-.78.247-1.146.49.275.418.91.647.76 1.185-.656.654-.976-.563-1.696-.256-.49-.19.177-1.21-.595-1.52-.918 0-.31 1.505-1.482.917-.417-.472-.83-1.107-.377-1.636.49-.33 1.322-.243 1.74.183.713-.79.786-3.847 2.495-1.57m-7.32 3.15c.48.687-.105 1.622.504 2.388.956-1.785 1.878.387 3.018.217.347.425.117 1.015.182 1.5-1.407.37-3.102.817-4.346-.31l-.347.4c.74.687 1.44 1.466.85 2.617-1.054.23-2.684.256-3.214-.83-.275-.896.64-1.544-.327-2.265-.7.87-.67 2.035-2.13 1.242-.903-.497-1.17-1.523-.72-2.388.94-1.486 2.59.047 3.614-.68.143-1.276-.328-2.39.844-3.095 1.002-.18 1.466.574 2.075 1.202"/><path fill="#fff" d="M84.985 197.898c-.47 2.173-2.108-.11-2.873-.203 1.02-1.812 1.662.59 2.873.203m5.097 2.365c-1.14.32-.963-1.1-1.525-1.657l.44-.398c.41.497.725 1.395 1.085 2.055"/><path fill="#ff0" d="M88.544 199.822c.328.753-.74 1.356.17 1.904.288-.24.642-.575.793-.713.778.23 1.682.367 2.225 1.14.583 1.597-1.034 1.556-1.95 2.002l-.91-.04c.215-.444-.393-.635-.543-.94-.42-.106-.77.024-1.004.378.202 1.014 1.44 1.806.163 2.71-1.08-.073-2.757.346-2.658-1.146-.406-.844 1.1-2.147-.51-2.2-.53 1.14-1.114 2.24-2.496 1.16l.17-1.623c1.324.038 2.888.267 3.484-1.21.38-1.074-.66-2.063.27-2.913 1.348-.306 2.107.597 2.794 1.493"/><path d="M87.576 202.263c.34.806-.576.858-1.008 1.257-.582.046-.988-.184-1.34-.576-.264-.976.463-1.074 1.02-1.46.647-.268.916.484 1.328.78"/><path fill="#fff" d="M86.78 202.79c-.144.19-.346.13-.562.183l-.203-.975c.43.04.995.177.766.792"/></g></svg>