<svg xmlns="http://www.w3.org/2000/svg" height="480" width="640" viewBox="0 0 640 480"><defs><clipPath id="a"><path fill-opacity=".67" d="M42.666 0h682.67v512H42.666z"/></clipPath></defs><g fill-rule="evenodd" clip-path="url(#a)"><path fill="#28ae66" d="M-40 0h720.384v480.256H-40z"/><path d="M206.98 128.97c26.17 12.618 57.332-.06 68.605-17.482 11.56-16.258 12.98-43.558-7.005-68.605 31.02 25.724 37.876 54.885 22.444 78.898-20.584 27.44-66.248 26.647-84.043 7.19zm46.46-63.844l5.265.068-4.167 3.31 1.562 5.177-4.345-3.06-4.303 3.133 1.485-5.2-4.22-3.238 5.262-.157 1.686-5.133zm33.4 36.893l5.268.065-4.168 3.31 1.562 5.177-4.346-3.06-4.302 3.13 1.485-5.198-4.22-3.238 5.26-.157 1.69-5.136zm-.003-23.568l5.266.067-4.168 3.31 1.563 5.177-4.346-3.06-4.303 3.13 1.483-5.2-4.22-3.237 5.262-.156 1.69-5.135zm.113-27.435l5.266.068-4.168 3.31 1.563 5.177-4.344-3.06-4.302 3.13 1.485-5.198-4.22-3.24 5.26-.155 1.69-5.136zM258.06 80.21l5.268.067-4.168 3.308 1.563 5.178-4.346-3.06-4.303 3.13 1.485-5.198-4.22-3.24 5.26-.155 1.69-5.134z" fill="#fff"/><path fill="#ca3745" d="M4.594 0H158.96v480.24H4.593z"/><path d="M4.594 125.205v-3.43l6.382-8.576-1.286-1.717 3.86-5.146-1.287-1.714-2.573 3.43-1.287-1.716 9.004-12.006 1.286 1.717-1.285 1.715 2.65 3.465 6.354-8.61-6.46-8.345-2.545 3.198 1.286 1.718-1.285 1.715-9.004-12.007L9.69 77.18l2.573 3.432 1.285-1.716L9.69 73.75l1.286-1.714-6.382-8.576v-3.43l8.955 12.006-1.288 1.714 3.858 5.146-2.57 3.43 2.57 3.43 3.86-5.144 9.056 12.21-9.056 11.802-3.86-5.146-2.57 3.43 2.57 3.43-3.857 5.146 1.285 1.715-8.954 12.004zm0-42.877l1.286 3.43v5.145h3.86l2.572 1.715-2.573 1.716H5.88v5.145l-1.287 3.43V82.326zM4.594 207.532v-3.43l6.382-8.576-1.286-1.715 3.86-5.143-1.287-1.715-2.573 3.43-1.287-1.714 9.004-12.007 1.286 1.716-1.285 1.715 2.65 3.466 6.354-8.61-6.46-8.345-2.545 3.2 1.286 1.715-1.285 1.715-9.004-12.007 1.285-1.715 2.572 3.43 1.285-1.715-3.858-5.145 1.285-1.715-6.382-8.576v-3.43l8.955 12.006-1.287 1.715 3.86 5.145-2.57 3.43 2.57 3.43 3.86-5.144 9.055 12.21-9.056 11.8-3.86-5.146-2.57 3.43 2.57 3.43-3.858 5.146 1.285 1.716-8.954 12.006zm0-42.877l1.286 3.43v5.145h3.86l2.572 1.716-2.573 1.715H5.88v5.147l-1.287 3.43v-20.58zM4.595 289.86v-3.43l6.382-8.576-1.286-1.714 3.86-5.146-1.286-1.715-2.572 3.427-1.286-1.714 9.004-12.007 1.286 1.716-1.285 1.716 2.65 3.464 6.354-8.61-6.46-8.347-2.545 3.2 1.285 1.715-1.285 1.715-9.005-12.006 1.285-1.715 2.573 3.43 1.286-1.714-3.86-5.145 1.286-1.715-6.382-8.575v-3.43l8.954 12.006-1.287 1.717 3.86 5.146-2.573 3.43 2.572 3.43 3.86-5.146 9.054 12.21-9.056 11.803-3.858-5.147-2.573 3.43 2.572 3.43-3.86 5.147 1.286 1.714L4.59 289.86zm0-42.877l1.286 3.43v5.145h3.86l2.574 1.716-2.573 1.714H5.88v5.146l-1.286 3.43v-20.58zM4.595 367.04v-3.43l6.382-8.577-1.286-1.715 3.86-5.146-1.286-1.714-2.572 3.43-1.286-1.716 9.004-12.006 1.286 1.716-1.285 1.715 2.65 3.465 6.354-8.61-6.46-8.346-2.545 3.2 1.285 1.715-1.285 1.717-9.005-12.007 1.285-1.715 2.573 3.43 1.286-1.715-3.86-5.146 1.286-1.714-6.382-8.576v-3.43l8.954 12.006-1.287 1.714 3.86 5.146-2.573 3.43 2.572 3.43 3.86-5.145 9.054 12.21-9.056 11.803-3.858-5.146-2.573 3.43 2.572 3.43-3.86 5.146 1.286 1.715L4.59 367.04zm0-42.878l1.286 3.43v5.145h3.86l2.574 1.716-2.573 1.714H5.88v5.146l-1.286 3.43v-20.58zM158.955 125.205v-3.43l-6.38-8.576 1.286-1.717-3.857-5.146 1.285-1.714 2.574 3.43 1.287-1.716-9.006-12.006-1.285 1.717 1.284 1.715-2.65 3.465-6.354-8.61 6.46-8.345 2.544 3.198-1.285 1.718 1.284 1.715 9.005-12.007-1.287-1.715-2.572 3.433-1.285-1.716 3.86-5.146-1.288-1.713 6.38-8.576v-3.43l-8.952 12.007 1.285 1.714-3.858 5.147 2.572 3.43-2.573 3.43-3.86-5.144-9.054 12.21 9.054 11.802 3.86-5.146 2.572 3.43-2.573 3.43 3.857 5.145L150 113.2l8.954 12.005zm0-42.877l-1.285 3.43v5.145h-3.86l-2.57 1.715 2.57 1.716h3.86v5.145l1.286 3.43V82.326zM159.38 207.532v-3.43l-6.38-8.575 1.287-1.715-3.86-5.145 1.287-1.715 2.573 3.43 1.286-1.715-9.005-12.007-1.285 1.716 1.285 1.715-2.65 3.467-6.354-8.61 6.46-8.345 2.545 3.2-1.29 1.715 1.288 1.715 9.004-12.007-1.287-1.714-2.573 3.43-1.286-1.716 3.86-5.144-1.288-1.716 6.38-8.576v-3.43l-8.952 12.006 1.286 1.715-3.86 5.143 2.574 3.43-2.573 3.43-3.86-5.144-9.054 12.21 9.055 11.8 3.86-5.145 2.572 3.43-2.573 3.43 3.86 5.146-1.287 1.716 8.953 12.006zm.002-42.875l-1.286 3.43v5.144h-3.86l-2.572 1.718 2.573 1.715h3.86v5.145l1.285 3.43v-20.58zM158.955 289.86v-3.43l-6.38-8.576 1.286-1.714-3.857-5.146 1.285-1.715 2.574 3.427 1.287-1.714-9.006-12.007-1.285 1.716 1.284 1.716-2.65 3.464-6.354-8.61 6.46-8.347 2.544 3.2-1.285 1.715 1.284 1.715 9.005-12.006-1.287-1.715-2.572 3.43-1.285-1.714 3.86-5.145-1.288-1.715 6.38-8.575v-3.43l-8.952 12.006 1.285 1.717-3.858 5.146 2.572 3.43-2.573 3.43-3.86-5.146-9.054 12.21 9.054 11.803 3.86-5.147 2.572 3.43-2.573 3.43 3.857 5.147-1.286 1.714 8.954 12.007zm0-42.877l-1.285 3.43v5.145h-3.86l-2.57 1.716 2.57 1.714h3.86v5.146l1.286 3.43v-20.58zM158.955 367.04v-3.43l-6.38-8.577 1.286-1.715-3.857-5.146 1.285-1.714 2.574 3.43 1.287-1.716-9.006-12.006-1.285 1.716 1.284 1.715-2.65 3.465-6.354-8.61 6.46-8.346 2.544 3.2-1.285 1.715 1.284 1.717 9.005-12.007-1.287-1.715-2.572 3.43-1.285-1.715 3.86-5.146-1.288-1.714 6.38-8.576v-3.43l-8.952 12.006 1.285 1.714-3.858 5.146 2.572 3.43-2.573 3.43-3.86-5.145-9.054 12.21 9.054 11.803 3.86-5.146 2.572 3.43-2.573 3.43 3.857 5.146-1.286 1.715 8.954 12.006zm0-42.878l-1.285 3.43v5.145h-3.86l-2.57 1.716 2.57 1.714h3.86v5.146l1.286 3.43v-20.58zM4.597 32.586v-3.43l6.38-8.575-1.285-1.713 3.86-5.146-1.287-1.713-2.573 3.43-1.286-1.715L17.41 1.716l1.286 1.715-1.285 1.717 2.653 3.465L26.415 0h2.624L19.98 12.006l-3.86-5.145-2.572 3.43 2.574 3.43-3.86 5.148 1.287 1.715L4.6 32.59zM90.493 4.308h7.72L52.69 3.87h-3.86v5.145l-1.286 3.43V2.155zm68.46 28.278v-3.43l-6.382-8.575 1.29-1.713L150 13.72l1.286-1.714 2.573 3.43 1.285-1.715-9.004-12.005-1.285 1.715 1.286 1.715-2.65 3.465L137.135 0h-2.625l9.058 12.006 3.86-5.145 2.57 3.43-2.57 3.43 3.858 5.148L150 20.583l8.954 12.006zm53.15-30.432h-7.718l2.572 1.715h3.86v5.143l1.286 3.43V2.155zM68.923 473.402s5.537-9.723 19.493-12.67c13.956-2.947 16.393 6.482 24.367 6.482 7.975 0 20.603-6.482 20.603-6.482s-12.628 12.376-22.375 12.08c-9.744-.294-13.07-6.48-23.036-5.597-9.97.884-19.05 6.482-19.05 6.187zm26.942 0s-5.538-9.723-19.495-12.67c-13.955-2.947-16.392 6.482-24.367 6.482-7.975 0-20.602-6.482-20.602-6.482s12.63 12.376 22.376 12.08c9.747-.294 13.07-6.48 23.038-5.597 9.97.884 19.05 6.482 19.05 6.187zM50.23 457.316c-1.23-2.573-4.302-13.798-2.664-15.2 2.458-.935 9.01 10.523 8.397 20.813-4.3 2.337-18.84-.938-18.636-3.98 1.024-4.21 9.216-2.803 12.902-1.635zm-8.79-9.81c-.803-2.856-2.07-14.684-.25-15.607 2.55-.24 7.187 12.776 4.993 22.675-4.57 1.104-18.29-6.1-17.62-9.02 1.655-3.836 9.452-.21 12.878 1.95zM34.3 436.53c-.543-2.963-.75-14.908 1.14-15.536 2.553.167 6 13.824 2.94 23.307-4.636.375-17.617-8.95-16.692-11.742 1.983-3.55 9.404 1.288 12.613 3.972zm-5.63-11.69c-.192-3.038.992-14.882 2.932-15.112 2.503.692 4.32 14.897.195 23.633-4.623-.587-16.364-12.483-15.125-15.05 2.372-3.096 9.14 3.216 12 6.53zm-3.914-12.244c.136-3.045 2.584-14.54 4.527-14.394 2.403 1.164 2.672 15.57-2.35 23.424-4.513-1.468-14.85-15.49-13.35-17.792 2.682-2.608 8.7 4.933 11.173 8.762zm1.092-13.933c-.332 12.192-2.548 12.335-6.594 3.323-1.79-3.404-2.01-17.544-.397-18.07 2.332-.05 6.928 10.035 6.992 14.747zM113.864 458.6c1.23-2.573 4.3-13.8 2.662-15.2-2.458-.936-9.01 10.524-8.397 20.813 4.3 2.338 18.84-.936 18.635-3.977-1.024-4.21-9.216-2.805-12.902-1.637zm8.786-9.81c.805-2.856 2.073-14.685.253-15.607-2.55-.238-7.187 12.778-4.994 22.677 4.57 1.104 18.29-6.1 17.62-9.02-1.656-3.837-9.454-.21-12.88 1.95zm7.14-10.977c.545-2.962.752-14.907-1.138-15.535-2.553.166-6 13.824-2.94 23.306 4.636.373 17.618-8.952 16.692-11.744-1.983-3.548-9.403 1.288-12.613 3.973zm5.63-11.69c.195-3.04-.99-14.88-2.93-15.11-2.502.69-4.32 14.896-.195 23.63 4.624-.59 16.364-12.484 15.125-15.05-2.37-3.096-9.14 3.215-12 6.53zm3.916-12.243c-.135-3.044-2.583-14.54-4.528-14.394-2.4 1.163-2.67 15.57 2.353 23.424 4.514-1.468 14.85-15.49 13.35-17.792-2.68-2.61-8.7 4.932-11.173 8.76zm-1.092-13.933c.332 12.192 2.55 12.335 6.594 3.323 1.79-3.405 2.01-17.544.397-18.07-2.33-.05-6.927 10.034-6.99 14.747z" fill="#faae29"/><g transform="matrix(.938 0 0 1.187 136.603 -72.259)"><path d="M-3.543 290.55h-5.315v3.543h-5.315v3.543h-21.26l-3.543 3.544 1.77 1.77h8.86l1.77-1.77h-8.857l1.772-1.772h12.4l-5.315 5.315h-12.402l-3.544-1.772-3.544 1.773h-12.402l-5.315-5.316 12.4.002 1.77 1.77h-8.856l1.772 1.772h8.858l1.772-1.77-3.544-3.544h-19.488v-3.543h-5.315v-3.543h-5.316v-15.945h5.315v-3.543h5.314v-3.543h19.488l3.544-3.544-1.772-1.77h-8.858l-1.772 1.772 8.858-.002-1.77 1.772-12.403.002 5.314-5.318h12.402l3.543 1.772 3.543-1.772h12.402l5.315 5.315h-12.4l-1.773-1.772h8.858l-1.772-1.77h-8.858l-1.77 1.77 3.542 3.544h21.26v3.54h5.315v3.544h5.315v15.945z" transform="matrix(1.488 0 0 1.24 3.502 -39.474)" stroke="#000" stroke-width=".133" fill="#ca3745"/><path d="M375.59 499.67v24.803h10.63v7.02h10.63v7.086h35.432l14.174 10.63 14.173-10.63h38.974v-7.02l10.63-.07v-7.086h10.63V499.6h-10.63v-7.085l-10.63.068v-7.155H460.63l-14.174-10.63-14.174 10.63H396.85v7.154h-10.63v7.086h-10.63z" transform="matrix(.744 0 0 .62 -392.03 -6.521)" stroke="#faae29" stroke-width="1.422" fill="#28ae66"/><path d="M-75.6 296.644l-15.822 10.984v-10.984H-75.6zm31.63 0l15.822 10.985v-10.987H-43.97zm-31.63 28.564l-15.822-10.984v10.984H-75.6zm31.635 0l15.82-10.985v10.985h-15.82zm5.276-21.975l-5.27 4.394h10.546l-5.274-4.394zm-42.186 0l-5.273 4.394H-75.6l-5.274-4.394zm0 15.39l-5.273-4.395H-75.6l-5.274 4.394zm42.19 0l-5.273-4.395h10.548l-5.274 4.394z" fill="#ca3745"/><path d="M-59.787 329.602l-5.273-4.394h10.547l-5.274 4.394zm0-21.97l-5.273-4.394h10.547l-5.274 4.394zm0-15.383l-5.273 4.392h10.547l-5.274-4.394zm0 21.966l-5.273 4.394h10.547l-5.274-4.393z" fill="#faae29"/><path transform="matrix(.744 0 0 .62 -392.03 -6.521)" stroke="#000" stroke-width=".133" fill="#faae29" d="M467.72 506.69h14.173v3.543H467.72z"/><path transform="matrix(.744 0 0 .62 -392.03 -6.521)" stroke="#000" stroke-width=".133" fill="#c00" d="M414.57 510.24h7.087v3.543h-7.087zm56.69 0h7.087v3.543h-7.087z"/><path transform="matrix(.744 0 0 .62 -392.03 -6.521)" stroke="#000" stroke-width=".133" fill="#900" d="M439.37 488.98h14.173v3.543H439.37zm0 7.08h14.173v3.543H439.37zm-3.54-3.54h21.26v3.543h-21.26zm3.54 31.89h14.173v3.543H439.37zm0 7.09h14.173v3.543H439.37zm-3.54-3.55h21.26v3.543h-21.26z"/><path transform="matrix(.744 0 0 .62 -392.03 -6.521)" stroke="#000" stroke-width=".133" fill="#faae29" d="M467.72 513.78h14.173v3.543H467.72zm-56.7-7.09h14.173v3.543H411.02zm0 7.09h14.173v3.543H411.02zm-3.54-3.54h7.087v3.543h-7.087zm14.17 0h7.087v3.543h-7.087zm42.52 0h7.087v3.543h-7.087zm14.18 0h7.087v3.543h-7.087z"/><ellipse fill="#fff" transform="matrix(.744 0 0 .62 -374.14 -38.912)" cx="413.68" rx=".886" cy="581.99" ry=".886"/><ellipse fill="#fff" transform="matrix(.744 0 0 .62 -367.57 -38.912)" cx="413.68" rx=".886" cy="581.99" ry=".886"/><ellipse fill="#fff" transform="matrix(.744 0 0 .62 -361 -38.958)" cx="413.68" rx=".886" cy="581.99" ry=".886"/><ellipse fill="#fff" transform="matrix(.744 0 0 .62 -371.51 -41.102)" cx="413.68" rx=".886" cy="581.99" ry=".886"/><ellipse fill="#fff" transform="matrix(.744 0 0 .62 -363.68 -41.148)" cx="413.68" rx=".886" cy="581.99" ry=".886"/><ellipse fill="#fff" transform="matrix(.744 0 0 .62 -371.57 -36.768)" cx="413.68" rx=".886" cy="581.99" ry=".886"/><ellipse fill="#fff" transform="matrix(.744 0 0 .62 -363.68 -36.677)" cx="413.68" rx=".886" cy="581.99" ry=".886"/><ellipse fill="#fff" transform="matrix(.744 0 0 .62 -353.17 -49.999)" cx="413.68" rx=".886" cy="581.99" ry=".886"/><ellipse fill="#fff" transform="matrix(.744 0 0 .62 -346.59 -49.999)" cx="413.68" rx=".886" cy="581.99" ry=".886"/><ellipse fill="#fff" transform="matrix(.744 0 0 .62 -340.02 -50.045)" cx="413.68" rx=".886" cy="581.99" ry=".886"/><ellipse fill="#fff" transform="matrix(.744 0 0 .62 -350.54 -52.189)" cx="413.68" rx=".886" cy="581.99" ry=".886"/><ellipse fill="#fff" transform="matrix(.744 0 0 .62 -342.71 -52.235)" cx="413.68" rx=".886" cy="581.99" ry=".886"/><ellipse fill="#fff" transform="matrix(.744 0 0 .62 -350.59 -47.855)" cx="413.68" rx=".886" cy="581.99" ry=".886"/><ellipse fill="#fff" transform="matrix(.744 0 0 .62 -342.71 -47.764)" cx="413.68" rx=".886" cy="581.99" ry=".886"/><ellipse fill="#fff" transform="matrix(.744 0 0 .62 -374.2 -60.904)" cx="413.68" rx=".886" cy="581.99" ry=".886"/><ellipse fill="#fff" transform="matrix(.744 0 0 .62 -367.62 -60.904)" cx="413.68" rx=".886" cy="581.99" ry=".886"/><ellipse fill="#fff" transform="matrix(.744 0 0 .62 -361.05 -60.949)" cx="413.68" rx=".886" cy="581.99" ry=".886"/><ellipse fill="#fff" transform="matrix(.744 0 0 .62 -371.57 -63.094)" cx="413.68" rx=".886" cy="581.99" ry=".886"/><ellipse fill="#fff" transform="matrix(.744 0 0 .62 -363.74 -63.139)" cx="413.68" rx=".886" cy="581.99" ry=".886"/><ellipse fill="#fff" transform="matrix(.744 0 0 .62 -371.62 -58.759)" cx="413.68" rx=".886" cy="581.99" ry=".886"/><ellipse fill="#fff" transform="matrix(.744 0 0 .62 -363.74 -58.668)" cx="413.68" rx=".886" cy="581.99" ry=".886"/><ellipse fill="#fff" transform="matrix(.744 0 0 .62 -395.28 -49.817)" cx="413.68" rx=".886" cy="581.99" ry=".886"/><ellipse fill="#fff" transform="matrix(.744 0 0 .62 -388.71 -49.817)" cx="413.68" rx=".886" cy="581.99" ry=".886"/><ellipse fill="#fff" transform="matrix(.744 0 0 .62 -382.14 -49.862)" cx="413.68" rx=".886" cy="581.99" ry=".886"/><ellipse fill="#fff" transform="matrix(.744 0 0 .62 -392.65 -52.007)" cx="413.68" rx=".886" cy="581.99" ry=".886"/><ellipse fill="#fff" transform="matrix(.744 0 0 .62 -384.82 -52.052)" cx="413.68" rx=".886" cy="581.99" ry=".886"/><ellipse fill="#fff" transform="matrix(.744 0 0 .62 -392.71 -47.672)" cx="413.68" rx=".886" cy="581.99" ry=".886"/><ellipse fill="#fff" transform="matrix(.744 0 0 .62 -384.82 -47.581)" cx="413.68" rx=".886" cy="581.99" ry=".886"/></g><path d="M90.284 239.898l4.253-1.993 4.254 1.993h-8.505zm35.85 15.857l4.254-1.993 4.253 1.993h-8.505zm-13.604 0l4.254-1.993 4.253 1.993h-8.507zm24.678-45.84l4.254 1.993 4.254-1.993h-8.508zm-11.074-3.03l4.254 1.993 4.253-1.993h-8.505zm-13.604 0l4.254 1.993 4.253-1.993h-8.507z" fill="#fff"/><path d="M86.738 245.88l-4.962 3.987-4.964-3.986-4.962 3.988-4.962-3.986v1.993l3.307 1.995-1.653 1.993v1.994h1.653l1.655-1.993 1.654 1.994h1.654v-1.993l-1.654-1.992 3.308-1.994 3.31 1.993-1.655 1.993v1.994h1.654l1.656-1.993 1.654 1.994h1.653v-1.992l-1.654-1.992 3.307-1.994 3.308 1.993-1.654 1.994v1.993h1.655l1.654-1.993 1.654 1.994h1.654v-1.993l-1.655-1.992 3.308-1.994v-1.992l-4.96 3.987-4.963-3.987zm48.378-41.562l-4.962-3.986-4.964 3.986-4.962-3.986-4.962 3.986v-1.992l3.308-1.995-1.654-1.99v-1.994h1.654l1.654 1.994 1.654-1.995h1.654v1.994l-1.654 1.99 3.308 1.994 3.31-1.994-1.655-1.99v-1.995h1.654l1.652 1.994 1.654-1.996h1.654v1.994l-1.653 1.99 3.31 1.995 3.307-1.993-1.654-1.993v-1.995h1.654l1.655 1.994 1.652-1.995h1.654v1.995l-1.654 1.992 3.308 1.994v1.993l-4.96-3.986-4.964 3.986zm37.587 29.406l5.317-4.32-5.318-4.318 5.318-4.32-5.318-4.317h2.658l2.66 2.877 2.657-1.44h2.66v1.44l-2.66 1.44 2.66 1.44v1.44h-2.66l-2.657-1.44-2.66 2.88 2.66 2.878 2.657-1.44h2.66v1.44l-2.66 1.44 2.66 1.44v1.44h-2.66l-2.657-1.44-2.66 2.88 2.658 2.878 2.66-1.44h2.658v1.44l-2.66 1.44 2.66 1.44v1.44h-2.66l-2.658-1.44-2.658 2.88h-2.657l5.315-4.32-5.315-4.32zm-82.61 2.196l-5.317-4.32 5.318-4.318-5.318-4.32 5.318-4.317h-2.658l-2.66 2.88-2.657-1.44h-2.66v1.44l2.66 1.438-2.66 1.44v1.44h2.66l2.655-1.44 2.66 2.88-2.66 2.88-2.657-1.44h-2.66v1.44l2.66 1.438-2.66 1.44v1.44h2.66l2.656-1.44 2.66 2.88-2.658 2.88-2.66-1.44h-2.66v1.44l2.66 1.44-2.66 1.44v1.44h2.66l2.66-1.44 2.658 2.88h2.658l-5.316-4.32 5.316-4.32z" fill="#28ae66"/><path transform="matrix(1.201 0 0 1.126 158.34 -5.284)" stroke="#000" stroke-width=".267" fill="#28ae66" d="M-26.575 214.37h1.772v1.772h-1.772zm-1.77 1.77h1.77v1.772h-1.77zm-8.86 8.86h1.772v1.772h-1.772zm1.772-1.77h1.772v1.772h-1.774zm-58.465 0h1.772v1.772h-1.772zm-8.862-8.86h1.772v1.772h-1.772zm1.78 1.77h1.772v1.772h-1.772zm0-38.97h1.772v1.772h-1.772zm-1.78 1.77h1.772v1.772h-1.772zm10.634-10.63h1.772v1.772h-1.772zm-1.772 1.77h1.772v1.772h-1.772zm56.693-1.77h1.772v1.772h-1.772zm1.772 1.77h1.772v1.772h-1.774zm7.087 7.09h1.772v1.772h-1.772zm1.77 1.77h1.773v1.772h-1.772zM-92.125 225h1.77v1.772h-1.77z"/><path d="M75.287 216.973h-6.27v-3.92l4.18.003v-3.674h4.18v-3.373h4.18v4.214c-3.46 0-6.27 2.858-6.27 6.748z" fill="#fff"/><path d="M87.825 216.973h6.27v-3.92l-4.18.003v-3.674h-4.18v-3.373h-4.18v4.214c3.46 0 6.27 2.858 6.27 6.748z" fill="#faae29"/><path d="M87.825 216.973h6.27v3.918h-4.18v3.673h-4.18v3.374h-4.18v-4.217c3.46 0 6.27-2.858 6.27-6.747z" fill="#fff"/><path d="M75.287 216.973h-6.27v3.918h4.18v3.673h4.18v3.374h4.18v-4.217c-3.46 0-6.27-2.858-6.27-6.747z" fill="#faae29"/><path d="M87.824 216.975h-6.27v-6.747c3.462 0 6.27 3.023 6.27 6.747z" fill="#28ae66"/><path d="M87.824 216.97h-6.27v6.746c3.462 0 6.27-3.022 6.27-6.746z" fill="#ca3745"/><path d="M75.288 216.97h6.27v6.746c-3.462 0-6.27-3.022-6.27-6.746z" fill="#28ae66"/><path d="M75.288 216.975h6.27v-6.747c-3.462 0-6.27 3.023-6.27 6.747z" fill="#ca3745"/><path d="M88.156 241.888l-6.38-3.988-6.38 3.987-6.38-3.987-6.38 3.987v-1.993l4.253-1.994-2.13-1.993v-1.993h2.13l2.124 1.993 2.127-1.993h2.128v1.993L71.14 237.9l4.254 1.993 4.253-1.993-2.128-1.993v-1.993h2.126l2.126 1.993 2.126-1.993h2.128v1.993l-2.128 1.993 4.254 1.993 4.254-1.992-2.126-1.992v-1.993h2.126l2.126 1.993 2.127-1.993h2.126v1.993l-2.127 1.994 4.253 1.994v1.994l-6.38-3.987-6.38 3.988zm48.47-33.838l-6.38 3.987-6.38-3.987-6.38 3.987-6.38-3.987v1.993l4.254 1.995-2.128 1.992v1.994h2.128l2.126-1.994 2.127 1.994h2.127v-1.994l-2.127-1.992 4.253-1.994 4.254 1.994-2.127 1.992v1.994h2.127l2.127-1.994 2.126 1.994h2.128v-1.994l-2.126-1.992 4.254-1.994 4.254 1.993-2.126 1.993v1.994h2.127l2.127-1.994 2.127 1.994h2.127v-1.994l-2.126-1.993 4.254-1.994v-1.993l-6.38 3.987-6.38-3.987zm23.39 26.6l-3.19-4.983 3.19-4.984-3.19-4.984 3.19-4.984h-1.595l-1.594 3.322-1.595-1.663h-1.594v1.662l1.594 1.66-1.595 1.66v1.662h1.594l1.593-1.66 1.596 3.32-1.596 3.322-1.595-1.66h-1.596v1.66l1.594 1.662-1.595 1.66v1.662h1.594l1.594-1.662 1.597 3.322-1.594 3.323-1.596-1.663h-1.595v1.663l1.594 1.66-1.595 1.66v1.663h1.595l1.596-1.66 1.595 3.32h1.595l-3.19-4.982 3.19-4.983z" fill="#28ae66"/><path d="M-100.98 177.17l-7.087 7.086v26.575l7.087 7.09h31.89l7.086-7.088v-26.574l-7.087-7.086h-31.89zm-1.772-5.316l-17.717 17.716v15.945l17.72 17.717h35.432l17.717-17.717V189.57l-17.717-17.716h-35.432z" transform="matrix(1.201 0 0 1.126 183.863 -5.283)" stroke="#000" stroke-width=".427" fill="#28ae66"/><path d="M-93.898 147.05l3.543 5.315 3.544-5.315h-7.09z" transform="matrix(.961 0 0 .75 161.743 131.597)" stroke="#000" stroke-width=".267" fill="#faae29"/><path d="M-93.898 147.05l3.543 5.315 3.544-5.315h-7.09z" transform="matrix(.961 0 0 -.75 161.743 302.359)" stroke="#000" stroke-width=".267" fill="#faae29"/><path d="M-93.898 147.05l3.543 5.315 3.544-5.315h-7.09z" transform="matrix(.961 0 0 -.75 175.355 302.359)" stroke="#000" stroke-width=".267" fill="#faae29"/><path d="M-93.898 147.05l3.543 5.315 3.544-5.315h-7.09z" transform="matrix(.961 0 0 .75 175.355 131.597)" stroke="#000" stroke-width=".267" fill="#faae29"/><path d="M-93.898 147.05l3.543 5.315 3.544-5.315h-7.09z" transform="matrix(.961 0 0 -.75 154.938 302.359)" stroke="#000" stroke-width=".267" fill="#ca3745"/><path d="M-93.898 147.05l3.543 5.315 3.544-5.315h-7.09z" transform="matrix(.961 0 0 -.75 168.549 302.359)" stroke="#000" stroke-width=".267" fill="#ca3745"/><path d="M-93.898 147.05l3.543 5.315 3.544-5.315h-7.09z" transform="matrix(.961 0 0 -.75 182.161 302.359)" stroke="#000" stroke-width=".267" fill="#ca3745"/><path d="M-104.53 180.71l3.544-3.544h-3.544v3.544z" transform="matrix(1.801 0 0 -1.687 244.46 540.877)" stroke="#000" stroke-width=".267" fill="#ca3745"/><path d="M52.003 221.955l3.19-4.983-3.19-4.984 3.19-4.984-3.19-4.982h1.594l1.597 3.322 1.594-1.662h1.595v1.662l-1.595 1.66 1.595 1.662v1.66h-1.595l-1.594-1.66-1.596 3.322 1.595 3.322 1.595-1.66h1.595v1.66l-1.595 1.662 1.595 1.66v1.662h-1.595l-1.594-1.66-1.596 3.32 1.595 3.324 1.595-1.662h1.595v1.662l-1.595 1.66 1.595 1.66v1.663h-1.595l-1.595-1.66-1.596 3.323h-1.594l3.19-4.983-3.19-4.985z" fill="#28ae66"/><path d="M-76.18 154.13h7.086l1.77 1.772-1.77 1.77h-7.087v-3.542z" transform="matrix(1.201 0 0 1.013 205.13 55.511)" stroke="#000" stroke-width=".267" fill="#ca3745"/><path d="M-99.213 180.71l-3.543 3.544v26.575l3.543 3.54h-5.316l.003-33.66h5.315z" transform="matrix(1.201 0 0 1.126 175.355 -5.283)" stroke="#000" stroke-width=".4" fill="#ca3745"/><path d="M-93.898 147.05l3.543 5.315 3.544-5.315h-7.09z" transform="matrix(.961 0 0 .75 154.938 131.597)" stroke="#000" stroke-width=".267" fill="#ca3745"/><path d="M-93.898 147.05l3.543 5.315 3.544-5.315h-7.09z" transform="matrix(.961 0 0 .75 168.549 131.597)" stroke="#000" stroke-width=".267" fill="#ca3745"/><path d="M-93.898 147.05l3.543 5.315 3.544-5.315h-7.09z" transform="matrix(.961 0 0 .75 182.161 131.597)" stroke="#000" stroke-width=".267" fill="#ca3745"/><path d="M-99.212 180.71l-3.544 3.544v26.575l3.544 3.54h-5.315v-33.66h5.315z" transform="matrix(-1.201 0 0 1.126 -11.799 -5.283)" stroke="#000" stroke-width=".4" fill="#ca3745"/><path d="M-104.53 180.71l3.544-3.544h-3.544v3.544z" transform="matrix(-1.801 0 0 -1.687 -80.913 540.877)" stroke="#000" stroke-width=".267" fill="#ca3745"/><path d="M-104.53 180.71l3.544-3.544h-3.544v3.544z" transform="matrix(-1.801 0 0 1.687 -80.913 -106.925)" stroke="#000" stroke-width=".267" fill="#ca3745"/><path d="M-104.53 180.71l3.544-3.544h-3.544v3.544z" transform="matrix(1.801 0 0 1.687 244.46 -106.925)" stroke="#000" stroke-width=".267" fill="#ca3745"/><path d="M-100.98 177.17l-7.087 7.086v26.575l7.087 7.09h31.89l7.086-7.088v-26.574l-7.087-7.086h-31.89zm0-1.773l-8.86 8.858v26.575l8.86 8.858h31.89l8.857-8.858v-26.575l-8.86-8.858h-31.888z" transform="matrix(1.201 0 0 1.126 183.863 -5.283)" stroke="#000" stroke-width=".427" fill="#28ae66"/><path d="M-76.18 154.13h7.086l1.77 1.772-1.77 1.77h-7.087v-3.542z" transform="matrix(1.201 0 0 1.013 205.129 59.086)" stroke="#000" stroke-width=".267" fill="#faae29"/><path d="M-76.18 154.13h7.086l1.77 1.772-1.77 1.77h-7.087v-3.542z" transform="matrix(1.201 0 0 1.013 205.13 62.687)" stroke="#000" stroke-width=".267" fill="#ca3745"/><path d="M-76.18 154.13h7.086l1.77 1.772-1.77 1.77h-7.087v-3.542z" transform="matrix(1.201 0 0 1.013 205.13 66.262)" stroke="#000" stroke-width=".267" fill="#faae29"/><path d="M-76.18 154.13h7.086l1.77 1.772-1.77 1.77h-7.087v-3.542z" transform="matrix(1.201 0 0 1.013 205.13 51.91)" stroke="#000" stroke-width=".267" fill="#faae29"/><path d="M-76.18 154.13h7.086l1.77 1.772-1.77 1.77h-7.087v-3.542z" transform="matrix(-1.201 0 0 1.013 -41.578 55.511)" stroke="#000" stroke-width=".267" fill="#ca3745"/><path d="M-76.18 154.13h7.086l1.77 1.772-1.77 1.77h-7.087v-3.542z" transform="matrix(-1.201 0 0 1.013 -41.578 59.087)" stroke="#000" stroke-width=".267" fill="#faae29"/><path d="M-76.18 154.13h7.086l1.77 1.772-1.77 1.77h-7.087v-3.542z" transform="matrix(-1.201 0 0 1.013 -41.578 62.687)" stroke="#000" stroke-width=".267" fill="#ca3745"/><path d="M-76.18 154.13h7.086l1.77 1.772-1.77 1.77h-7.087v-3.542z" transform="matrix(-1.201 0 0 1.013 -41.578 66.263)" stroke="#000" stroke-width=".267" fill="#faae29"/><path d="M-76.18 154.13h7.086l1.77 1.772-1.77 1.77h-7.087v-3.542z" transform="matrix(-1.201 0 0 1.013 -41.578 51.912)" stroke="#000" stroke-width=".267" fill="#faae29"/><path d="M-100.98 178.94v37.205h8.858v8.858h56.693v-8.858h8.86V178.94h-8.86v-8.858h-56.69v8.858h-8.858zm1.77 1.772v33.66h8.86v8.86h53.15v-8.86h8.858v-33.66H-37.2v-8.86h-53.15v8.86h-8.86z" transform="matrix(1.201 0 0 1.126 158.34 -5.284)" stroke="#000" stroke-width=".267" fill="#970000"/><path d="M-28.347 69.094l-5.315-7.087v-5.315l-5.315-5.314h-10.63l-8.858-5.315H-86.81l-8.86 5.315h-10.63l-5.315 5.315v5.315l-5.315 7.086v14.173l5.315 7.087v5.315l5.315 5.313h10.63l8.86 5.315h28.345l8.858-5.317h10.63l5.315-5.313V90.35l5.315-7.086v-14.17z" transform="matrix(1.201 0 0 1.082 168.972 -34.403)" stroke="#000" stroke-width=".267" fill="#ca3745"/><path d="M30.75 48.025v5.75l6.38 7.667v5.75l6.38 5.75h12.762l10.634 5.752h14.888l-.002-30.67h-51.04z" fill="#faae29"/><path d="M63.827 61.437l-7.767 4.93h-4.64l1.547 1.642-3.093 3.285 1.545 1.642 4.64-1.642 1.545 1.642.715-4.39 8.566-5.196-3.058-1.914zm-8.503-3.833l-7.767 4.93h-4.64l1.547 1.64-3.093 3.288 1.547 1.643 4.64-1.643 1.547 1.643.715-4.39 8.565-5.197-3.06-1.914zm42.044-3.856l-7.768 4.93h-4.64l1.548 1.64-3.093 3.288 1.546 1.643 4.64-1.645 1.55 1.643.713-4.39 8.566-5.198-3.06-1.914z" fill="#ca3745"/><path d="M132.802 48.025v-5.75l-6.38-7.668v-5.75l-6.38-5.75h-12.76l-10.635-5.75H81.76v30.668h51.042z" fill="#faae29"/><path d="M81.78 78.693h-3.937l-4.568-3.834h-7.247l-3.94-1.92 1.97-1.916L68 72.942h3.937l3.938-5.75 5.908 1.916v3.834h-5.907l5.908 5.75z" fill="#ca3745"/><path d="M30.75 48.025v-5.75l6.38-7.668v-5.75l6.38-5.75h12.762l10.634-5.75h14.888l-.002 30.668h-51.04z" fill="#fff"/><path d="M81.78 17.352h-3.937l-4.568 3.834h-7.247l-3.94 1.916 1.97 1.917L68 23.1h3.937l3.938 5.75 5.908-1.916V23.1h-5.907l5.908-5.75zm-.003 0h3.938l4.57 3.834h7.245l3.938 1.916-1.97 1.917-3.937-1.92h-3.936l-3.94 5.75-5.906-1.915v-3.833h5.907l-5.907-5.75z" fill="#ca3745"/><path d="M132.802 48.025v5.75l-6.38 7.667v5.75l-6.38 5.75h-12.76l-10.635 5.752H81.76v-30.67h51.042z" fill="#fff"/><path d="M81.777 78.693h3.938l4.57-3.834h7.245l3.938-1.92-1.97-1.916-3.937 1.917h-3.936l-3.94-5.75-5.906 1.917v3.834h5.907l-5.907 5.75zm21.596-35.054l-7.767-4.93h-4.64l1.547-1.644-3.093-3.287 1.546-1.644 4.64 1.643 1.547-1.644.714 4.39 8.566 5.197-3.06 1.914zm42.652-6.493l7.77-4.93h4.64l-1.55-1.64 3.095-3.288-1.546-1.645-4.64 1.644-1.547-1.645-.715 4.39-8.565 5.197 3.058 1.915zm-82.198-2.54l-7.767-4.93h-4.64l1.547-1.64-3.093-3.288 1.545-1.645 4.64 1.643 1.545-1.644.715 4.39 8.566 5.196-3.058 1.916zm34.103 13.79l-7.768-4.93h-4.64l1.548-1.643-3.093-3.287 1.546-1.643 4.64 1.643 1.548-1.643.715 4.39 8.566 5.197-3.057 1.917z" fill="#ca3745"/><path d="M34.527 48.034h1.97l1.97 1.916 1.97-1.916 41.35-.002v26.84H79.82l1.97 1.916v1.917l-5.91-5.75v-1.917h1.97v1.917h1.97v-1.917L63.83 62.57H50.36v-8.307l-5.986-4.312h-3.94l-1.968 1.92 1.97 1.917h-1.97l-3.94-5.75z" fill="#fff"/><path d="M34.527 48.014h1.97l1.97-1.916 1.97 1.916 41.35.002V21.178H79.82l1.97-1.917v-1.915l-5.91 5.75v1.917h1.97v-1.916h1.97v1.917L63.83 33.48H50.36v8.308L44.374 46.1h-3.94l-1.968-1.916 1.97-1.917h-1.97l-3.94 5.75z" fill="#faae29"/><path d="M43.505 48.013h38.28v23.003l-17.01-9.586h-12.76v-7.666l-8.51-5.75z" fill="#28ae66"/><path d="M108.228 38.437l7.768-4.93h4.64l-1.547-1.64 3.09-3.288-1.545-1.645-4.64 1.643-1.547-1.644-.716 4.39-8.565 5.197 3.058 1.914zM212.08 51.19l7.768-4.93h4.64l-1.546-1.643 3.093-3.286-1.546-1.642-4.64 1.644-1.548-1.643-.713 4.39-8.567 5.197 3.058 1.914z" fill="#ca3745"/><path d="M129.026 48.014h-1.97l-1.97-1.916-1.97 1.916-41.35.002V21.178h1.967l-1.97-1.917v-1.915l5.908 5.75v1.917h-1.967v-1.916h-1.97v1.917l15.99 8.467h13.47v8.308l5.987 4.312h3.937l1.97-1.916-1.97-1.917h1.97l3.94 5.75z" fill="#fff"/><path d="M120.047 48.035h-38.28V25.032l17.013 9.585h12.76v7.667l8.507 5.75z" fill="#28ae66"/><path d="M99.724 61.437l7.77 4.93h4.64l-1.548 1.642 3.093 3.285-1.548 1.642-4.64-1.642-1.547 1.642-.715-4.39-8.563-5.196 3.057-1.914zm8.504-3.833l7.768 4.93h4.64l-1.547 1.64 3.09 3.288-1.545 1.643-4.64-1.643-1.547 1.643-.716-4.39-8.565-5.197 3.058-1.914zm54.055-3.856l7.768 4.93h4.64l-1.545 1.64 3.093 3.288-1.546 1.643-4.64-1.645-1.547 1.643-.713-4.39-8.566-5.198 3.058-1.914z" fill="#ca3745"/><path d="M129.026 48.034h-1.97l-1.97 1.916-1.97-1.916-41.35-.002v26.84h1.967l-1.97 1.916v1.917l5.908-5.75v-1.917h-1.967v1.917h-1.97v-1.917l15.99-8.467h13.47v-8.306l5.987-4.312h3.937l1.97 1.918-1.97 1.918h1.97l3.94-5.75z" fill="#faae29"/><path d="M120.047 48.013h-38.28v23.003L98.78 61.43h12.76v-7.666l8.507-5.75zm-76.542.022h38.28V25.032l-17.012 9.585h-12.76v7.667l-8.508 5.75zm42.473-.01l10.682-5.75h6.38l-2.127-1.918 4.254-3.835-2.127-1.916-6.38 1.916-2.127-1.916-.982 5.12-11.777 6.064 4.206 2.234zm39.923 3.163l-10.68 5.75h-6.38l2.128 1.918-4.254 3.833 2.126 1.916 6.38-1.918 2.127 1.917.982-5.122 11.776-6.064-4.206-2.23z" fill="#ca3745"/><path d="M77.575 48.024l-10.682-5.75h-6.38l2.127-1.917-4.254-3.835 2.126-1.916 6.38 1.916 2.128-1.916.982 5.12 11.78 6.064-4.207 2.234zm56.175 3.164l10.68 5.75h6.382l-2.128 1.918 4.254 3.833-2.126 1.916-6.38-1.918-2.128 1.917-.982-5.122-11.778-6.064 4.206-2.23z" fill="#28ae66"/><path d="M69.017 48.026l12.76-9.586 12.76 9.586-12.76 9.584-12.76-9.584z" fill="#fff"/><path d="M40.426 51.855l1.97 1.916-1.97 1.92h-1.97l-5.906-7.67h1.968l3.938 5.75h1.97l-1.97-1.915 1.97-1.918h3.938v1.918h-3.938zm0-7.667l1.97-1.916-1.97-1.917h-1.97l-5.907 7.667h1.967l3.938-5.75h1.97l-1.97 1.916 1.97 1.918h3.938v-1.918h-3.938zm128.02 10.587l-1.97 1.917 1.97 1.917h1.97l5.907-7.67h-1.97l-3.938 5.75h-1.97l1.97-1.916-1.97-1.917h-3.937v1.917h3.938zM123.13 44.188l-1.97-1.916 1.97-1.917h1.97l5.907 7.667h-1.97l-3.938-5.75h-1.97l1.97 1.916-1.97 1.918h-3.94v-1.918h3.94zm7.46-.913h3.938V58.61h-3.937zm-56.69.915h15.753v7.666H73.9z" fill="#ca3745"/><path d="M333.07 170.08l-10.63 5.315v8.858l10.63 5.315h10.63l10.63-5.315v-8.858l-10.63-5.315h-10.63z" transform="matrix(3.335 0 0 3.608 -1046.621 -274.115)" stroke="#000" stroke-width=".07" fill="#28ae66"/><path d="M41.765 371.702h2.143v-3.93h4.288v3.93h2.144v-9.172h-2.144v3.93h-4.288v-3.93h-2.143v9.172zm99.715 55.142h2.143v-3.93h4.29v3.93h2.142v-9.173h-2.143v3.934h-4.29v-3.93h-2.142v9.17zm-30.71-43.84h2.143v-3.93h4.29v3.93h2.142v-9.17h-2.143v3.93h-4.29v-3.93h-2.143v9.17zm29.177-3.03h2.143v-3.93h4.29v3.93h2.143v-9.172h-2.144v3.93h-4.29v-3.93h-2.144v9.172zm22.08 15.287h2.142v-3.93h4.29v3.93h2.14v-9.17h-2.142v3.93h-4.29v-3.93h-2.144v9.17zm1.32 16.3h2.144v-3.933h4.29v3.932h2.145v-9.174h-2.143v3.93h-4.29v-3.93h-2.142v9.173z" fill="#c00"/><path d="M81.778 408.395v-33.632h51.455v15.287L98.93 408.395H81.778zm48.05-40.276v33.63H78.373v-15.287l34.303-18.346h17.152z" fill="#faae29"/><path d="M81.778 341.125v33.633h51.455V359.47L98.93 341.124H81.778zm48.05 89.818v-33.63l-51.455-.002v15.29l34.303 18.345h17.152z" fill="#fff"/><path d="M-177.16 368.5h21.26l-21.26-10.63v10.63zm24.803-1.772v17.717h-33.662v-14.173h-7.084l-8.858-5.315v-12.402l5.314-5.315h-7.085v17.717h-1.772v-19.49h17.717l35.433 21.26z" transform="matrix(.968 0 0 .863 280.734 43.029)" stroke="#000" stroke-width=".133" fill="#faae29"/><path d="M64.596 364.053v21.4h5.144l12.01 6.115 12.005-6.116H98.9v-21.4h-5.144l-12.007-6.115-12.01 6.116h-5.145z" fill="#ca3745"/><path d="M-177.16 368.5h21.26l-21.26-10.63v10.63zm24.803-1.772v17.717h-33.662v-14.173h-7.084l-8.858-5.315v-12.402l5.314-5.315h-7.085v17.717h-1.772v-19.49h17.717l35.433 21.26z" transform="matrix(-.968 0 0 -.863 -117.178 706.492)" stroke="#000" stroke-width=".133" fill="#faae29"/><path d="M-177.16 368.5h21.26l-21.26-10.63v10.63zm24.803-1.772v17.717h-33.662v-14.173h-7.084l-8.858-5.315v-12.402l5.314-5.315h-7.085v17.717h-1.772v-19.49h17.717l35.433 21.26z" transform="matrix(-.968 0 0 .863 -117.178 43.029)" stroke="#000" stroke-width=".133" fill="#fff"/><path d="M-177.16 368.5h21.26l-21.26-10.63v10.63zm24.803-1.772v17.717h-33.662v-14.173h-7.084l-8.858-5.315v-12.402l5.314-5.315h-7.085v17.717h-1.772v-19.49h17.717l35.433 21.26z" transform="matrix(.968 0 0 -.863 280.735 706.492)" stroke="#000" stroke-width=".133" fill="#fff"/><path d="M40.622 386.998h2.143v-4.587h4.29V387h2.143v-10.7h-2.143v4.586h-4.29V376.3h-2.143V387zm65.9 40.867h2.145v-4.587h4.29v4.587h2.142v-10.702h-2.145v4.587h-4.29v-4.587h-2.143v10.702zm-19.21-38.74h2.142v4.586h4.29v-4.585h2.143v10.7h-2.143v-4.586h-4.29v4.586H87.31v-10.7zm19.21-17.916h2.145v4.584h4.29v-4.586h2.142v10.7h-2.145v-4.588h-4.29v4.587h-2.143v-10.7zm33.957 54.026h2.142v-4.587h4.29v4.586h2.143v-10.702h-2.144v4.587h-4.29v-4.586h-2.142v10.702zm22.735-25.415h2.143v-4.585h4.288v4.586h2.144v-10.7h-2.144v4.587h-4.29v-4.587h-2.142v10.702zm-69.425 2.465h2.144v-4.587h4.29v4.587h2.143v-10.702h-2.144v4.587h-4.29v-4.587H93.79v10.702zm0 0h2.144v-4.587h4.29v4.587h2.143v-10.702h-2.144v4.587h-4.29v-4.587H93.79v10.702zm69.426 11.294h2.143v-4.59h4.287v4.588h2.144v-10.703h-2.143v4.587h-4.29v-4.587h-2.142v10.702zm-19.222-30.056h2.144v-4.587h4.29v4.587h2.143v-10.702h-2.142v4.587h-4.29v-4.588h-2.143v10.702z" fill="#ca3745"/><path d="M83.495 374.76l6.86-5.574h3.43v2.786h-3.43v1.394H95.5v-5.573h-5.143v-4.18h-6.86v4.18h1.715v-2.79h3.43v2.79l-6.86 5.573-6.86-5.573v-2.786h3.43v2.786h1.715v-4.18h-6.86v4.18H68.06v5.575h5.145v-1.394h-3.43v-2.788h3.43l6.86 5.574-6.86 5.574h-3.43v-2.786h3.43v-1.395H68.06v5.575h5.143v4.18h6.86v-4.18H78.35v2.787h-3.43v-2.787l6.86-5.574 6.86 5.575v2.784h-3.43v-2.786h-1.716v4.18h6.86v-4.18l5.147-.002v-5.574h-5.144v1.394h3.43v2.788h-3.43l-6.86-5.575z" fill="#fff"/><g transform="matrix(.968 0 0 .899 152.102 17.029)"><path d="M-122.352 134.285l3.43-3.73h20.573l15.43-16.784h20.576l15.43 16.786h20.575l3.43 3.73-3.43 3.73h-20.573l-15.43 16.783H-82.92l-15.43-16.785h-20.574l-3.43-3.73z" fill="#ca3745"/><path d="M372.05 391.54l1.903-1.95h22.834l17.126-19.488h19.03l17.125 19.49h22.835l1.903 1.948-1.903 1.948h-22.835l-15.223 17.54H412.01l-15.223-17.54h-22.834l-1.903-1.948z" transform="matrix(.931 0 0 .909 -466.86 -221.29)" stroke="#000" stroke-width=".29" fill="#ca3745"/><path d="M-64.07 136.148l6.857 7.458-3.428 3.73-1.717-1.865h-1.714v1.867l1.713 1.865h3.43l3.428-3.73v-3.73l-6.856-7.457 6.857-7.46v-3.73l-3.43-3.73h-3.426l-1.715 1.865v1.865h1.714l1.714-1.865 3.427 3.73-6.857 7.46-6.86-7.46 6.86-7.46v-1.863h-1.715l-6.857 7.458-6.86-7.46h-1.714v1.865l6.86 7.46-6.86 7.46-6.858-7.46 3.43-3.73 1.714 1.865h1.714v-1.865l-1.714-1.864h-3.43l-3.43 3.73v3.73l6.86 7.46-6.86 7.46v3.728l3.43 3.73h3.43l1.714-1.865v-1.866h-1.714l-1.715 1.865-3.43-3.73 6.86-7.46 6.857 7.46-6.858 7.46v1.863h1.714l6.86-7.46 6.857 7.46h1.714v-1.864l-6.86-7.46 6.86-7.46zm-8.573-9.325l-6.86 7.46 6.86 7.46 6.858-7.46-6.858-7.46zm-10.274 27.967v14.918l1.715-1.865 1.715 1.865 1.714-1.865 1.714 1.865 1.717-1.865 1.714 1.865 1.716-1.865 1.715 1.865 1.715-1.865 1.715 1.865 1.712-1.865 1.715 1.865V154.79h-20.574zm20.564-41V98.872l-1.715 1.865-1.715-1.865-1.714 1.865-1.714-1.865-1.717 1.865-1.714-1.865-1.716 1.865-1.715-1.865-1.715 1.865-1.715-1.865-1.712 1.865-1.715-1.865v14.918h20.574zm29.148 16.79v-14.918l-1.715 1.865-1.713-1.865-1.715 1.865-1.715-1.865-1.714 1.865-1.715-1.865-1.714 1.865-1.714-1.865v14.918h13.715zm-65.15 0v-14.918l-1.715 1.865-1.713-1.865-1.715 1.865-1.715-1.865-1.714 1.865-1.715-1.865-1.714 1.865-1.714-1.865v14.918h13.715zm65.15 7.43v14.918l-1.715-1.865-1.713 1.865-1.715-1.865-1.715 1.865-1.714-1.865-1.715 1.865-1.714-1.865-1.714 1.865V138.01h13.715zm-65.15 0v14.918l-1.715-1.865-1.713 1.865-1.715-1.865-1.715 1.865-1.714-1.865-1.715 1.865-1.714-1.865-1.714 1.865V138.01h13.715z" fill="#faae29"/><path d="M-62.347 154.79v9.324l1.714-1.866 1.715 1.866 1.714-1.866 1.714 1.866 1.715-1.866 1.714 1.866 1.713-1.866 1.714 1.866 1.715-1.866v-24.242l-15.43 16.784zm-20.586 0v9.325l-1.715-1.866-1.715 1.864-1.714-1.866-1.714 1.865-1.717-1.866-1.714 1.865-1.716-1.866-1.714 1.865-1.714-1.865V138l15.43 16.785zm0-41v-9.324l-1.714 1.866-1.715-1.866-1.714 1.866-1.714-1.866-1.715 1.866-1.714-1.866-1.713 1.866-1.714-1.866-1.715 1.866v24.242l15.43-16.784zm20.586 0v-9.324l1.714 1.866 1.715-1.866 1.714 1.866 1.714-1.866 1.715 1.866 1.714-1.866 1.713 1.866 1.714-1.866 1.715 1.866v24.242l-15.43-16.784zm-49.73 35.416l-1.716-1.865-1.713 1.867-1.714-1.865-1.715 1.866-1.715-1.865-1.715 1.866-1.713-1.866-1.715 1.866v-29.838l1.714 1.866 1.716-1.866 1.715 1.866 1.715-1.866 1.715 1.866 1.713-1.866 1.714 1.866 1.715-1.866v11.19h-6.857l-3.43 3.73 3.43 3.73h6.857v11.188zm78.875 0l1.715-1.865 1.713 1.867 1.714-1.865 1.715 1.866 1.715-1.865 1.715 1.866 1.713-1.866 1.715 1.866v-29.838l-1.714 1.866-1.716-1.866-1.715 1.866-1.715-1.866-1.715 1.866-1.713-1.866-1.714 1.866-1.715-1.866v11.19h6.857l3.43 3.73-3.43 3.73h-6.857v11.188z" fill="#28ae66"/><path d="M-91.36 155.978s-1.428 1.474-1.428 2.21c-.028.687 1.524 2.227 2.143 2.21.81.017 2.143-1.473 2.143-2.21 0-.736-1.43-2.21-1.43-2.21v-2.948s3.104 5.068 3.104 2.857c0-1.586-3.103-4.33-3.103-4.33h-1.43s-3.104 3.213-3.104 4.33c0 2.21 3.103-2.857 3.103-2.857v2.948z" fill="#fff"/><path d="M-73.497 161.67s-1.715 2.062-1.715 3.094c-.034.962 1.83 3.118 2.572 3.095.97.02 2.572-2.065 2.572-3.097s-1.715-3.095-1.715-3.095v-4.128s3.037 6.75 3.037 3.656c0-2-3.037-5.72-3.037-5.72h-1.714s-3.506 4.656-3.037 5.72c0 3.095 3.037-3.656 3.037-3.656v4.127z" fill="#ca3745"/><ellipse fill="#28ae66" transform="matrix(.968 0 0 1.053 -482.4 -277.85)" cx="403.94" rx="3.543" cy="391.54" ry="1.772"/><ellipse fill="#28ae66" transform="matrix(.968 0 0 1.053 -463.54 -277.85)" cx="403.94" rx="3.543" cy="391.54" ry="1.772"/><ellipse fill="#28ae66" transform="matrix(.968 0 0 1.053 -444.69 -277.85)" cx="403.94" rx="3.543" cy="391.54" ry="1.772"/><path d="M-91.72 112.76s-1.428-1.474-1.428-2.21c-.028-.688 1.524-2.228 2.143-2.21.81-.018 2.143 1.472 2.143 2.21 0 .736-1.43 2.21-1.43 2.21v2.948s3.104-5.068 3.104-2.857c0 1.588-3.103 4.33-3.103 4.33h-1.43s-3.104-3.21-3.104-4.33c0-2.21 3.103 2.86 3.103 2.86v-2.95z" fill="#fff"/><path d="M-73.857 107.062s-1.715-2.063-1.715-3.095c-.034-.962 1.83-3.118 2.572-3.095.97-.023 2.572 2.063 2.572 3.095s-1.715 3.095-1.715 3.095v4.127s3.037-6.753 3.037-3.658c0 2-3.037 5.72-3.037 5.72h-1.714s-3.506-4.656-3.037-5.72c0-3.095 3.037 3.656 3.037 3.656v-4.128z" fill="#ca3745"/><path d="M-54.86 155.978s-1.428 1.474-1.428 2.21c-.028.687 1.524 2.227 2.143 2.21.81.017 2.143-1.473 2.143-2.21 0-.736-1.43-2.21-1.43-2.21v-2.948s3.104 5.068 3.104 2.857c0-1.586-3.103-4.33-3.103-4.33h-1.43s-3.104 3.213-3.104 4.33c0 2.21 3.103-2.857 3.103-2.857v2.948zm-.36-43.218s-1.428-1.474-1.428-2.21c-.028-.688 1.524-2.228 2.143-2.21.81-.018 2.143 1.472 2.143 2.21 0 .736-1.43 2.21-1.43 2.21v2.948s3.104-5.068 3.104-2.857c0 1.588-3.103 4.33-3.103 4.33h-1.43s-3.104-3.21-3.104-4.33c0-2.21 3.103 2.86 3.103 2.86v-2.95z" fill="#fff"/><path d="M-106.273 145.593s-1.9 1.383-1.9 2.074c-.037.644 2.026 2.09 2.85 2.074 1.076.017 2.85-1.38 2.85-2.072 0-.69-1.9-2.074-1.9-2.074v-2.765s3.364 4.522 3.364 2.45c0-1.343-3.363-3.834-3.363-3.834h-1.9s-3.882 3.12-3.363 3.832c0 2.074 3.364-2.45 3.364-2.45v2.766zm-.4-21.122s-1.9-1.38-1.9-2.072c-.037-.644 2.026-2.09 2.85-2.074 1.076-.015 2.85 1.383 2.85 2.074 0 .69-1.9 2.074-1.9 2.074v2.766s3.364-4.524 3.364-2.45c0 1.342-3.363 3.833-3.363 3.833h-1.9s-3.882-3.12-3.363-3.832c0-2.074 3.364 2.45 3.364 2.45v-2.766zm66.25 20.68s-1.9 1.385-1.9 2.076c-.037.644 2.026 2.09 2.85 2.074 1.076.014 2.85-1.384 2.85-2.075 0-.69-1.9-2.074-1.9-2.074v-2.763s3.364 4.523 3.364 2.45c0-1.342-3.363-3.833-3.363-3.833h-1.9s-3.882 3.12-3.363 3.832c0 2.074 3.364-2.45 3.364-2.45v2.766zm-.4-21.12s-1.9-1.38-1.9-2.072c-.037-.644 2.026-2.09 2.85-2.074 1.076-.015 2.85 1.383 2.85 2.074 0 .69-1.9 2.074-1.9 2.074v2.766s3.364-4.524 3.364-2.45c0 1.342-3.363 3.833-3.363 3.833h-1.9s-3.882-3.12-3.363-3.832c0-2.074 3.364 2.45 3.364 2.45v-2.766z" fill="#ca3745"/><path d="M-120.285 145.363c-.615-1.277-.453-1.86-.453-2.597-.028-.687 1.716-2.025 2.336-2.01.81-.015 2.143 1.475 2.143 2.21 0 .738.036 1.375-.296 2.645l-.893-2.152c-1.083 3.056-1.142 3.127-1.786-.074l-1.048 1.98zm.06-21.433c-.615 1.278-.453 1.862-.453 2.598-.028.687 1.716 2.025 2.336 2.01.81.015 2.143-1.475 2.143-2.21 0-.738.036-1.375-.296-2.645l-.893 2.154c-1.083-3.056-1.142-3.127-1.786.074l-1.048-1.98zm92.42 21.163c-.615-1.277-.453-1.86-.453-2.597-.028-.687 1.716-2.025 2.336-2.01.81-.015 2.143 1.475 2.143 2.21 0 .738.036 1.375-.296 2.645l-.893-2.152c-1.083 3.056-1.142 3.127-1.786-.074l-1.048 1.98zm.05-21.438c-.615 1.277-.453 1.86-.453 2.597-.028.687 1.716 2.025 2.336 2.01.81.015 2.143-1.475 2.143-2.21 0-.738.036-1.375-.296-2.645l-.893 2.154c-1.083-3.054-1.142-3.125-1.786.076l-1.048-1.98z" fill="#fff"/><path d="M-83.27 170.073v-5.315h-15.944v-10.63h-14.173v-3.543h-12.402v-31.89h12.404v-3.542h14.173v-10.63h15.944v-5.315h21.26v5.315h15.946v10.63h14.173v3.543h12.4v31.89h-12.4v3.542h-14.174v10.63H-62.01v5.315h-21.26zm196.658 8.86v-5.316H97.444v-10.63H83.27v-3.543h-12.4v-35.432h12.4v-3.544h14.174v-10.63h15.945v-5.315h24.8v5.315h15.946v10.63h14.173v3.544h12.4v35.432h-12.4v3.543h-14.173v10.63h-15.945v5.315h-24.804z" stroke="#000" stroke-width=".133" fill="#ca3745"/></g></g></svg>