<svg xmlns="http://www.w3.org/2000/svg" height="480" width="640" viewBox="0 0 640 480"><g fill-rule="evenodd"><path fill="#fff" d="M320 0h320v480H320z"/><path d="M282.43-735.13c0 .625 55.956 222.85 118.17 300.56 69.375 87.27 113.18 87.333 113.18 87.333l70.866-17.717s-41.496 2.093-123.8-104.21c-83.45-107.78-109.42-285.96-108.17-282.84l-70.24 16.875z" transform="matrix(-.24 0 0 .199 534.09 334.357)" stroke="#000" stroke-width="1.197" fill="#fff"/><path d="M285-727.64c-1.535-9.37 33.898 220.95 140.2 327.24 53.15 53.15 88.583 53.15 88.583 53.15l88.582-17.717s-51.712 3.75-134.02-102.55c-83.45-107.78-108.58-263.25-107.96-263.87l-75.38 3.75zm-2.57-7.49c0 .625 55.956 222.85 118.17 300.56 69.375 87.27 113.18 87.333 113.18 87.333l70.866-17.717s-41.496 2.093-123.8-104.21c-83.45-107.78-109.42-285.96-108.17-282.84l-70.24 16.875z" transform="matrix(.24 0 0 .199 381.891 336.17)" stroke="#000" stroke-width="1.197" fill="#fff"/><path d="M285-727.64c-1.535-9.37 33.898 220.95 140.2 327.24 53.15 53.15 88.583 53.15 88.583 53.15l88.582-17.717s-51.712 3.75-134.02-102.55c-83.45-107.78-108.58-263.25-107.96-263.87l-75.38 3.75z" transform="matrix(-.24 0 0 .199 534.09 334.357)" stroke="#000" stroke-width="1.197" fill="#fff"/><path d="M344.54-596.29l9.152 22.14s1.455-9.766 8.526-11.533l7.07-1.768s26.865 49.326 32.17 58.165c5.3 8.838-3.537 16.793-1.77 16.793 1.77 0 26.517-11.49 26.517-11.49s-10.606.882-15.026-6.19-34.82-59.933-34.82-59.933 6.186-2.652 11.49-5.303c5.303-2.652 10.606 7.955 10.606 7.955L385.2-613.97s0 8.84-4.42 10.607c-4.42 1.766-7.956 3.534-7.956 3.534s-3.535-6.186-7.955-13.257c-4.42-7.07 4.42-14.142 4.42-14.142l-22.983 11.49s7.955 4.42 10.607 8.84l5.303 8.84s-3.223 1.767-8.214 3.48c-3.59 1.876-7.696.055-9.464-1.713z" transform="matrix(.24 .004 -.005 .199 380.013 342.305)" stroke="#000" stroke-width="1.197" fill="#fff133"/><path d="M410.168 335.486c-.625-.098-.89-.607-.53-1.02s1.345-.725 1.97-.627l3.436.534c.625.097.89.606.53 1.018-.377.43-1.345.726-1.97.63l-3.436-.537zm-1.812 1.384c-.613-.11-.86-.632-.492-1.043s1.348-.71 1.96-.6l3.372.61c.613.11.86.632.492 1.043-.384.43-1.347.71-1.96.6l-3.372-.61zm-1.924 1.54c-.625-.097-.89-.606-.53-1.018s1.345-.726 1.97-.628l3.436.536c.625.097.89.606.53 1.018-.377.43-1.345.726-1.97.63l-3.436-.537zm24.045-20.198c-.634.04-1.045-.397-.823-.872s1.08-.99 1.713-1.03l3.487-.213c.634-.04 1.045.397.822.872-.232.495-1.08.99-1.712 1.027l-3.487.214zm-1.45 1.598c-.627.012-1.013-.446-.772-.917s1.11-.957 1.736-.97l3.45-.075c.628-.013 1.014.445.774.917-.252.492-1.11.956-1.737.97l-3.45.074zm-1.437 1.883c-.634.03-1.035-.414-.8-.885s1.1-.97 1.736-1l3.49-.158c.635-.03 1.035.414.802.885-.245.493-1.103.97-1.737 1l-3.49.158zm-1.585.672c-.627-.02-.977-.498-.7-.955s1.18-.896 1.806-.876l3.45.11c.626.02.976.496.7.954-.29.478-1.18.896-1.806.876l-3.448-.11zm9.588-10.753c-.626.096-1.09-.302-.93-.794s.95-1.08 1.575-1.176l3.44-.524c.625-.095 1.09.302.928.794-.17.515-.948 1.08-1.574 1.176l-3.44.524zm-1.107 1.826c-.62.08-1.072-.335-.903-.828s.956-1.066 1.576-1.145l3.41-.434c.62-.077 1.07.337.902.83-.176.516-.956 1.066-1.576 1.145l-3.41.434zm-1.14 2.022c-.626.096-1.09-.302-.93-.794s.95-1.08 1.575-1.176l3.44-.524c.627-.095 1.09.302.93.794-.17.515-.95 1.08-1.574 1.176l-3.44.524zm-1.44 1.632c-.623.07-1.065-.352-.885-.842s.983-1.05 1.604-1.12l3.418-.38c.623-.068 1.065.353.885.843-.188.513-.98 1.05-1.602 1.12l-3.418.38zm-14.243 12.765c-.632-.054-.945-.544-.627-.98s1.27-.814 1.903-.76l3.474.303c.632.055.946.545.627.98-.333.454-1.27.814-1.9.76l-3.478-.303zm-1.673 1.495c-.622-.07-.918-.572-.592-1.006s1.274-.8 1.895-.73l3.42.38c.62.07.916.572.59 1.007-.34.453-1.274.8-1.895.73l-3.42-.38zm-1.77 1.672c-.63-.054-.944-.544-.626-.98s1.27-.814 1.903-.76l3.476.303c.632.055.946.545.627.98-.334.454-1.27.814-1.902.76l-3.477-.303zm-2.127.922c-.613-.11-.86-.633-.492-1.044s1.35-.71 1.963-.6l3.37.61c.614.11.86.632.493 1.043-.384.43-1.347.71-1.96.6l-3.372-.61zm12.342-9.773c-.636-.005-1.003-.468-.734-.926s1.176-.912 1.81-.907l3.498.028c.635.005 1.002.468.733.926-.28.48-1.173.91-1.81.906l-3.494-.027zm-1.502 1.617c-.627-.02-.977-.5-.7-.956s1.18-.896 1.806-.876l3.445.11c.627.02.977.496.7.954-.288.478-1.178.896-1.805.876l-3.447-.11zm-1.83.9c-.63-.055-.944-.545-.626-.98s1.27-.815 1.903-.76l3.476.302c.632.055.946.545.627.98-.334.454-1.27.814-1.902.76l-3.475-.303zm-1.673 1.494c-.62-.07-.916-.572-.59-1.006s1.274-.8 1.895-.73l3.42.38c.62.07.916.572.59 1.007-.34.453-1.274.8-1.895.73l-3.42-.38zm27.214-38.616c-.59.195-1.14-.118-1.096-.627s.678-1.212 1.27-1.41l3.25-1.074c.59-.195 1.138.118 1.095.628-.045.532-.678 1.213-1.27 1.41l-3.25 1.075zm-.652.892c-.605.14-1.11-.228-1.012-.734s.8-1.152 1.406-1.29l3.327-.765c.605-.136 1.11.23 1.013.737-.103.53-.802 1.152-1.407 1.29l-3.33.765zm-.85 2.115c-.607.156-1.123-.193-1.032-.698s.79-1.165 1.4-1.32l3.34-.856c.608-.153 1.125.196 1.033.7-.095.528-.79 1.165-1.398 1.32l-3.342.856zm-.846 1.927c-.605.14-1.11-.23-1.012-.735s.8-1.152 1.406-1.29l3.327-.765c.605-.138 1.11.23 1.013.735-.103.53-.802 1.152-1.407 1.29l-3.327.765zm4.304-11.242c-.59.18-1.13-.152-1.08-.664s.69-1.2 1.28-1.38l3.242-.984c.59-.18 1.13.153 1.08.664-.052.535-.69 1.202-1.278 1.38l-3.243.985zm-.65 2.167c-.592.195-1.14-.118-1.097-.627s.678-1.214 1.27-1.41l3.25-1.076c.59-.195 1.138.118 1.095.628-.045.532-.678 1.213-1.27 1.41l-3.25 1.075zm-.654 1.973c-.59.18-1.13-.152-1.08-.664s.69-1.2 1.278-1.38l3.243-.984c.59-.18 1.13.153 1.08.664-.052.535-.69 1.202-1.278 1.38l-3.245.985zM440 303.976c-.62.114-1.102-.268-.963-.765s.9-1.106 1.52-1.22l3.415-.63c.62-.114 1.102.268.963.765-.146.52-.9 1.108-1.52 1.222l-3.415.63zm-1.027 1.864c-.616.097-1.085-.303-.94-.8s.91-1.096 1.525-1.194l3.387-.54c.616-.098 1.086.302.94.8-.154.52-.91 1.095-1.525 1.193l-3.387.54zm-1.048 2.05c-.62.114-1.102-.268-.963-.765s.9-1.108 1.52-1.222l3.415-.63c.62-.114 1.102.268.963.765-.146.52-.9 1.108-1.52 1.222l-3.415.63zm-1.193 1.7c-.62.08-1.072-.335-.903-.828s.954-1.066 1.574-1.145l3.41-.434c.62-.08 1.073.335.904.828-.177.518-.957 1.068-1.577 1.147l-3.41.434zm6.714-12.974c-.608.156-1.124-.193-1.033-.698s.79-1.165 1.4-1.32l3.34-.856c.608-.155 1.125.194 1.033.698-.095.528-.79 1.165-1.398 1.32l-3.342.856zm-.324 1.394c-.616.1-1.085-.3-.94-.8s.91-1.094 1.525-1.192l3.387-.54c.616-.098 1.086.302.94.8-.154.52-.91 1.095-1.525 1.193l-3.39.54zm-1.048 2.052c-.62.114-1.102-.268-.963-.765s.9-1.108 1.52-1.222l3.417-.63c.62-.114 1.102.268.963.765-.147.52-.9 1.108-1.52 1.222l-3.416.63zm-1.027 1.863c-.616.098-1.085-.302-.94-.8s.91-1.095 1.525-1.193l3.387-.54c.614-.098 1.084.302.937.8-.153.52-.908 1.095-1.524 1.193l-3.387.54zm11.787-30.54c-.546.27-1.147.034-1.202-.474s.437-1.287.983-1.56l3.003-1.496c.546-.272 1.147-.036 1.202.473.057.53-.437 1.29-.983 1.56l-3.003 1.498zm-.818 1.96c-.586.204-1.14-.1-1.11-.61s.65-1.224 1.238-1.43l3.227-1.123c.59-.205 1.144.1 1.11.61-.03.532-.65 1.223-1.235 1.428l-3.228 1.124zm-.62 1.985c-.586.188-1.133-.137-1.094-.65s.664-1.21 1.25-1.398l3.22-1.033c.586-.19 1.133.134 1.094.646-.04.535-.664 1.212-1.25 1.4l-3.22 1.033zm2.16-10.434c-.548.255-1.144 0-1.192-.512s.45-1.278 1-1.533l3.012-1.4c.547-.257 1.143 0 1.192.51.05.535-.452 1.28-1 1.534l-3.012 1.403zm-.224 2.226c-.546.272-1.147.035-1.202-.473s.437-1.29.983-1.563l3.003-1.497c.546-.27 1.147-.035 1.202.474.057.53-.437 1.29-.983 1.56l-3.003 1.498zm-.275 2.035c-.548.255-1.144 0-1.192-.512s.45-1.278 1-1.533l3.012-1.403c.547-.258 1.143 0 1.192.51.05.534-.454 1.28-1 1.533l-3.014 1.403zm-2.257 8.347c-.585.205-1.14-.1-1.108-.61s.65-1.223 1.237-1.428l3.225-1.124c.587-.205 1.142.1 1.11.61-.033.532-.65 1.223-1.237 1.428l-3.23 1.124zm-.86 1.51c-.59.18-1.13-.152-1.08-.664s.688-1.2 1.277-1.38l3.243-.984c.59-.18 1.13.153 1.08.664-.052.535-.69 1.202-1.278 1.38l-3.243.985zm-.65 2.168c-.592.195-1.14-.118-1.097-.627s.678-1.214 1.27-1.41l3.25-1.076c.59-.197 1.138.116 1.095.626-.045.532-.678 1.213-1.27 1.41l-3.25 1.075zM503.556 329.875c.63-.063.935-.557.608-.987s-1.285-.8-1.916-.736l-3.47.347c-.632.06-.936.555-.61.986.342.45 1.286.798 1.917.735l3.47-.346zm1.7 1.475c.62-.077.906-.584.572-1.014s-1.288-.783-1.908-.706l-3.41.423c-.62.076-.907.584-.572 1.014.35.45 1.288.783 1.908.706l3.41-.423zm1.798 1.65c.63-.064.935-.558.608-.988s-1.285-.8-1.916-.736l-3.47.347c-.632.063-.936.557-.61.988.342.45 1.286.8 1.917.737l3.47-.347zm-22.412-21.48c.63.073 1.074-.34.89-.826s-1-1.047-1.628-1.12l-3.46-.41c-.63-.073-1.075.34-.89.826.192.51.998 1.047 1.627 1.12l3.463.41zm1.325 1.675c.625.048 1.046-.388.842-.872s-1.033-1.016-1.657-1.064l-3.434-.265c-.625-.048-1.046.39-.843.873.213.504 1.03 1.014 1.656 1.062l3.433.263zm1.285 1.957c.63.063 1.065-.356.87-.84s-1.024-1.03-1.655-1.094l-3.47-.35c-.63-.064-1.064.355-.868.84.204.504 1.022 1.03 1.652 1.093l3.47.353zm1.523.758c.627.014 1.015-.444.775-.916s-1.106-.958-1.733-.973l-3.45-.08c-.627-.012-1.014.445-.775.917.25.493 1.106.96 1.734.973l3.45.08zm-8.718-11.26c.617.13 1.11-.242.99-.742s-.862-1.13-1.48-1.258l-3.39-.712c-.616-.13-1.11.242-.988.742.126.522.86 1.13 1.476 1.258l3.39.71zm.963 1.883c.613.113 1.096-.275.967-.776s-.87-1.116-1.484-1.23l-3.367-.62c-.612-.114-1.095.275-.966.776.135.524.87 1.116 1.483 1.23l3.368.62zm.977 2.077c.617.13 1.11-.24.99-.74s-.862-1.13-1.48-1.258l-3.39-.712c-.616-.13-1.11.242-.988.742.126.522.86 1.13 1.476 1.258l3.39.71zm1.313 1.716c.614.103 1.088-.294.947-.793s-.897-1.1-1.512-1.204l-3.38-.567c-.616-.103-1.09.293-.948.793.147.52.897 1.1 1.51 1.204l3.382.566zm13.208 13.52c.635-.02.985-.493.7-.944s-1.202-.883-1.837-.862l-3.49.11c-.635.02-.986.493-.702.944.297.472 1.203.883 1.838.862l3.493-.11zm1.556 1.582c.626-.035.96-.52.668-.972s-1.21-.867-1.834-.832l-3.442.19c-.626.035-.96.52-.668.972.305.472 1.21.868 1.835.833l3.44-.193zm1.63 1.767c.636-.02.986-.492.7-.943s-1.2-.883-1.836-.862l-3.492.11c-.635.02-.986.493-.702.944.297.472 1.203.883 1.838.862l3.493-.11zm2.053 1.032c.62-.077.906-.584.572-1.014s-1.29-.783-1.91-.706l-3.41.423c-.62.076-.907.584-.57 1.014.347.45 1.286.783 1.906.706l3.41-.423zm-11.547-10.43c.633.03 1.035-.41.802-.882s-1.1-.974-1.733-1.004l-3.49-.164c-.635-.03-1.036.412-.804.884.243.492 1.1.973 1.733 1.003l3.49.165zm1.362 1.697c.627.015 1.015-.443.775-.915s-1.106-.96-1.733-.975l-3.45-.08c-.627-.014-1.014.443-.775.915.25.494 1.104.96 1.732.974l3.45.08zm1.762 1c.635-.02.985-.49.7-.942s-1.202-.883-1.837-.862l-3.492.11c-.635.02-.986.493-.702.944.297.472 1.203.883 1.838.862l3.495-.11zm1.554 1.584c.626-.035.96-.52.668-.972s-1.21-.867-1.834-.832l-3.442.19c-.626.035-.96.52-.668.972.305.472 1.21.868 1.835.833l3.44-.193zm-24.13-40.032c.574.228 1.145-.055 1.142-.565s-.58-1.246-1.155-1.474l-3.16-1.25c-.574-.228-1.145.054-1.142.565.004.534.58 1.248 1.156 1.476l3.157 1.25zm.58.928c.592.172 1.126-.166 1.068-.677s-.71-1.193-1.302-1.365l-3.26-.945c-.59-.172-1.125.167-1.067.677.062.534.71 1.193 1.302 1.365l3.257.943zm.682 2.158c.595.19 1.138-.13 1.086-.64s-.698-1.205-1.292-1.394l-3.268-1.036c-.594-.19-1.137.13-1.085.64.056.53.7 1.205 1.294 1.394l3.268 1.036zm.694 1.968c.592.17 1.126-.167 1.068-.678s-.71-1.193-1.302-1.365l-3.26-.945c-.59-.172-1.125.167-1.067.677.062.532.71 1.19 1.302 1.363l3.26.945zm-3.41-11.455c.573.21 1.14-.09 1.13-.604s-.595-1.234-1.17-1.445l-3.156-1.16c-.574-.21-1.138.09-1.13.604.01.535.594 1.235 1.168 1.446l3.157 1.16zm.476 2.198c.575.228 1.146-.055 1.143-.565s-.58-1.248-1.155-1.476l-3.16-1.25c-.574-.228-1.145.054-1.142.565.004.533.58 1.247 1.156 1.475l3.16 1.25zm.5 2.005c.575.21 1.14-.09 1.13-.604s-.593-1.236-1.167-1.447l-3.157-1.16c-.574-.21-1.138.09-1.13.604.01.538.594 1.238 1.168 1.45l3.157 1.16zm5.976 16.944c.61.148 1.12-.207 1.02-.71s-.81-1.156-1.42-1.304l-3.358-.817c-.61-.146-1.12.21-1.02.713.104.526.81 1.155 1.42 1.303l3.358.817zm.88 1.91c.607.133 1.107-.24 1-.745s-.82-1.142-1.428-1.274l-3.338-.725c-.607-.13-1.107.242-1 .747.11.527.82 1.14 1.428 1.273l3.338.725zm.884 2.108c.61.15 1.12-.206 1.02-.71s-.81-1.155-1.42-1.303l-3.358-.817c-.61-.148-1.12.207-1.02.71.104.527.81 1.156 1.42 1.304l3.358.817zm1.06 1.76c.613.114 1.096-.274.967-.775s-.87-1.116-1.484-1.23l-3.367-.62c-.612-.114-1.095.275-.966.776.135.526.87 1.118 1.483 1.23l3.368.62zm-5.683-13.313c.594.19 1.137-.13 1.085-.64s-.698-1.205-1.292-1.394l-3.268-1.036c-.594-.19-1.137.13-1.085.64.054.53.698 1.205 1.292 1.394l3.266 1.038zm.213 1.406c.607.132 1.107-.24 1-.746s-.82-1.142-1.428-1.274l-3.338-.725c-.607-.13-1.107.242-1 .747.11.527.82 1.14 1.428 1.273l3.338.725zm.883 2.11c.61.147 1.12-.208 1.02-.71s-.81-1.157-1.42-1.305l-3.358-.817c-.61-.146-1.12.21-1.02.713.104.526.81 1.155 1.42 1.303l3.358.817zm.88 1.91c.607.132 1.107-.24 1-.746s-.82-1.142-1.428-1.274l-3.338-.725c-.607-.13-1.107.242-1 .747.11.527.82 1.14 1.428 1.273l3.338.725zm-9.366-31.12c.524.3 1.142.1 1.236-.405s-.335-1.31-.86-1.61l-2.88-1.658c-.523-.3-1.14-.098-1.235.407-.098.526.335 1.31.86 1.61l2.88 1.657zm.667 2.002c.57.236 1.146-.038 1.154-.548s-.554-1.257-1.123-1.493l-3.132-1.3c-.57-.236-1.146.038-1.154.548-.01.533.552 1.257 1.12 1.493l3.133 1.3zm.456 2.015c.57.22 1.14-.074 1.143-.587s-.567-1.245-1.137-1.465l-3.134-1.208c-.57-.22-1.14.073-1.142.586-.002.537.567 1.246 1.137 1.466l3.133 1.208zm-1.335-10.528c.527.285 1.142.062 1.23-.446s-.35-1.3-.877-1.585l-2.896-1.565c-.526-.285-1.14-.062-1.23.446-.09.53.35 1.3.878 1.586l2.895 1.567zm.05 2.23c.523.3 1.14.1 1.235-.405s-.335-1.31-.86-1.61l-2.88-1.658c-.523-.303-1.14-.1-1.235.405-.098.526.335 1.31.86 1.61l2.88 1.657zm.115 2.048c.526.286 1.14.063 1.23-.445s-.35-1.3-.878-1.585l-2.896-1.567c-.526-.285-1.14-.062-1.23.446-.09.53.35 1.3.878 1.583l2.895 1.567zm1.6 8.453c.57.236 1.146-.038 1.154-.548s-.554-1.257-1.123-1.493l-3.13-1.3c-.57-.236-1.146.038-1.154.548-.008.533.554 1.257 1.123 1.493l3.13 1.3zm.74 1.553c.575.21 1.14-.09 1.13-.604s-.593-1.236-1.167-1.447l-3.157-1.16c-.574-.21-1.138.09-1.13.604.01.534.594 1.234 1.168 1.445l3.157 1.16zm.477 2.198c.574.228 1.145-.055 1.142-.565s-.583-1.25-1.157-1.478l-3.16-1.25c-.574-.228-1.145.054-1.142.565.005.533.58 1.247 1.157 1.475l3.16 1.25z" stroke="#000" stroke-width="12.791" fill="#b00"/><path d="M344.54-596.29l9.152 22.14s1.455-9.766 8.526-11.533l7.07-1.768s26.865 49.326 32.17 58.165c5.3 8.838-3.537 16.793-1.77 16.793 1.77 0 26.517-11.49 26.517-11.49s-10.606.882-15.026-6.19-34.82-59.933-34.82-59.933 6.186-2.652 11.49-5.303c5.303-2.652 10.606 7.955 10.606 7.955L385.2-613.97s0 8.84-4.42 10.607c-4.42 1.766-7.956 3.534-7.956 3.534s-3.535-6.186-7.955-13.257c-4.42-7.07 4.42-14.142 4.42-14.142l-22.983 11.49s7.955 4.42 10.607 8.84l5.303 8.84s-3.223 1.767-8.214 3.48c-3.59 1.876-7.696.055-9.464-1.713z" transform="matrix(-.24 .004 .005 .199 535.969 340.492)" stroke="#000" stroke-width="1.197" fill="#fff133"/><g transform="matrix(.144 0 0 .121 423.643 295.291)"><path fill="#c0c0c0" d="M324.546-255.37l-50.11 50.11L449.82-29.874l50.11-50.11z"/><ellipse rx="35.433" ry="35.433" stroke="#000" transform="scale(-1 1) rotate(45 -177.879 -1104.595)" cy="-1428" cx="354.33" stroke-width="1.197" fill="#fff133"/><path d="M-402.046-956.91l37.583 37.582-25.055 25.054-37.583-37.582c-12.53-12.528 12.525-37.583 25.053-25.055z" stroke="#000" stroke-width="1.197" fill="#c0c0c0"/><path d="M-346.606-926.53l-50.11 50.11c-13.798 0-25.35-11.554-25.055-25.056 10.876-25.88 25.026-38.434 50.11-50.11 12.475.73 24.215 10.892 25.053 25.055z" stroke="#000" stroke-width="1.197" fill="#fff133"/><path d="M-351.926-931.85l37.583 37.582-50.11 50.11-37.583-37.583c5.027-20.03 30.082-45.086 50.11-50.11z" stroke="#000" stroke-width="1.197" fill="#c0c0c0"/><path d="M-309.026-888.95l-50.11 50.11c-13.798 0-25.35-11.554-25.055-25.056 10.876-25.88 25.026-38.434 50.11-50.11 12.475.73 24.215 10.892 25.053 25.055z" stroke="#000" stroke-width="1.197" fill="#fff133"/><path d="M-314.356-894.28L28.44-551.478l-50.11 50.11-342.796-342.804c5.027-20.03 30.082-45.085 50.11-50.11z" stroke="#000" stroke-width="1.197" fill="#c0c0c0"/><path d="M48.934-530.97l-50.11 50.11c-13.798 0-25.35-11.554-25.055-25.056 10.876-25.88 25.026-38.434 50.11-50.11 12.475.73 24.215 10.892 25.053 25.055z" stroke="#000" stroke-width="1.197" fill="#fff133"/><path d="M48.944-530.976L274.44-305.48l-50.11 50.11L-1.166-480.866c5.027-20.028 30.082-45.084 50.11-50.11zm137.8 112.746l-75.166 75.165c-13.797 0-25.35-11.553-25.055-25.055 0 0 0-25.055 25.055-50.11s50.11-25.055 50.11-25.055c11.64 1.567 21.415 12.527 25.055 25.055zm0 0l50.11 75.165-50.11 50.11-75.165-50.11c-2.83-2.443 0-25.055 25.053-50.11s48.98-24.457 50.11-25.056z" stroke="#000" stroke-width="1.197" fill="#c0c0c0"/><path d="M336.61-506.69c0-35.433 0-86.653 17.717-129.98 17.716 43.326 17.716 94.546 17.716 129.98H336.61z" transform="rotate(-135 434.752 18.668) scale(1 -.818)" stroke="#000" stroke-width="1.197" fill="#c0c0c0"/><path d="M318.9-506.69h17.716v-43.326c0-43.327-35.433-64.99-35.433-64.99l17.717 108.32z" transform="rotate(-45 399.396 -194.158) scale(1 .818)" stroke="#000" stroke-width="1.197" fill="#c0c0c0"/><path d="M318.9-506.69h17.716v-43.326c0-43.327-35.433-64.99-35.433-64.99l17.717 108.32z" transform="rotate(-135 434.752 18.668) scale(1 -.818)" stroke="#000" stroke-width="1.197" fill="#c0c0c0"/><path d="M-314.356-894.28l37.583 37.582C-251.718-831.643-164.03-718.9-164.03-718.9s117.296 92.25 142.356 117.31l37.583 37.583C-9.15-589.062-164.03-693.842-164.03-693.842S-71.784-551.48-34.2-513.896l-37.583-37.583c-25.055-25.053-117.305-142.36-117.3-142.364-.005.005-100.223-75.168-125.276-100.22l-50.11-50.11c25.056 25.054 175.383 125.28 175.383 125.28s-100.22-150.338-125.272-175.39z" stroke="#000" stroke-width="1.197" fill="#fff133"/><path d="M299.493-230.317c50.11 75.165 100.22 125.276 112.744 137.8 23.776 23.82 50.11 25.055 50.11 25.055s0-25.056-25.055-50.11c-12.527-12.528-62.638-62.64-137.8-112.745zm-62.64-112.75c87.695 87.695 187.916 137.806 250.552 200.442 50.11 50.11 15.414 88.464 1.443 100.606-13.97 12.143-51.966 50.284-101.664-.384-62.638-62.638-112.746-162.857-200.442-250.552 0-25.055 25.056-50.11 50.11-50.11z" stroke="#000" stroke-width="1.197" fill="#c0c0c0"/><path stroke="#000" stroke-width="2.264724" fill="#c0c0c0" d="M543.01-73.188l-28.645-32.59L415.1-9.58l28.644 32.59z"/><path d="M-330.51-843.274l-40.654 39.753 40.653 39.75-20.327 19.877-40.654-39.753-81.305 79.505 40.653 39.752-20.33 19.876-40.65-39.753-40.653 39.752 121.958 119.257 81.304-79.505-40.654-39.754-20.326 19.876-20.325-19.877 81.304-79.506 20.325 19.877-20.325 19.875 40.65 39.752 40.654-39.753-20.327-19.876 20.326-19.876 81.303 79.505-20.325 19.874-20.326-19.875-40.653 39.752 40.65 39.75 20.326-19.874 20.328 19.875-81.304 79.505-20.328-19.876 20.328-19.878-40.653-39.75-81.304 79.504 121.958 119.258 40.654-39.754-40.653-39.75 20.327-19.876 40.653 39.75 81.304-79.504-40.653-39.753 20.33-19.876 40.65 39.754 40.653-39.754-284.576-278.276zm121.946 437.272v39.752l-101.63 99.38v-79.503l20.325-19.877h40.655l40.652-39.752zm101.64-98.562l-80.75 78.96-.96 39.48 81.71-79.9v-38.54zm-81.31 118.442l-40.652-39.752v-39.753l40.652 39.753v39.752zm101.63-99.38l-40.65-39.753v-39.753l40.65 39.753v39.752zm-40.65-79.508v39.753l-20.328-19.877 20.327-19.875zm-101.632 99.382v39.752l-20.327-19.877 20.327-19.875zm183.343-99.382L-86.6-525.255v39.752l41.057-40.965v-38.54zm-244.322-39.748l-40.652-39.752v-39.753l40.652 39.753v39.752zm81.305 79.498l-40.653-39.752v-39.753l40.652 39.753v39.752zm20.33-99.378l-60.98-59.63v-39.75l81.305 79.503-20.326 19.877zm-60.983-99.378v39.752l-20.327-19.877 20.327-19.877zm-40.652 119.258l40.652-39.752v-39.753l-40.652 39.753v39.752zm-101.628-19.88l60.98-59.63v-39.75l-81.305 79.503 20.325 19.877zm60.983 19.874l-81.305 79.505h-40.652l-20.327 19.877v79.506l142.288-139.53v-39.357zm81.297 238.522L-371.17-485.5h-40.653l121.958 119.258h40.652zm-60.98 19.87L-432.15-465.63l20.33-19.87 121.958 119.258-20.33 19.87zm0 0v79.503L-432.15-386.125v-79.504l121.958 119.257zM-411.82-525.25l-121.958-119.257h-40.652l121.958 119.258h40.652zm-60.98 19.87l-121.957-119.258 20.33-19.87 121.958 119.26-20.33 19.868zm0 0v79.504l-121.957-119.258v-79.504L-472.8-505.38zm20.32-139.127l-20.327-19.877v-39.752l40.653 39.752-20.326 19.877zm101.628-99.378l-20.327-19.877v-39.752l40.655 39.752-20.326 19.877zM-249.216-485.5v-39.752l-20.327 19.875 20.327 19.877zm40.656-39.76l40.65-39.752-20.325-19.877-20.326 19.88v39.75zm-121.962-159.007l20.326-19.877-20.326-19.875v39.754z" stroke="#000" fill="#c0c0c0"/><path stroke="#000" stroke-width="2.264724" fill="#fff133" d="M574.38-47.266L542.86-83.02 433.624 22.52l31.52 35.756z"/><path d="M336.61 166.54c0 14.67 35.433 35.434 35.433-17.716H336.61v17.716zM242.1 24.803c-147.06 0-113.13 164.24-100.37 124.02 9.36-29.503 35.433-70.866 64.935-80.225 40.225-12.76 26.696 9.36 41.364 9.36 14.67 0 1.14-22.12 41.362-9.36 29.503 9.36 55.577 50.722 64.936 80.225 12.76 40.224 53.148-124.02-112.23-124.02zM389.76 166.54c0 78.237-63.496 141.73-141.73 141.73-78.236 0-141.73-63.496-141.73-141.73v-17.716c0-29.116 35.433 124.02 141.73 124.02s141.73-124.77 141.73-124.02v17.716z" transform="matrix(-1.899 0 0 1.887 1166.1 -102.64)" stroke="#000" stroke-width="1.197" fill="#c0c0c0"/><path d="M336.61 166.54c0 14.67 35.433 35.434 35.433-17.716H336.61v17.716z" transform="matrix(1.899 0 0 1.887 224 -100.51)" stroke="#000" stroke-width="1.197" fill="#c0c0c0"/><path d="M389.76 148.82c0 78.236-63.496 141.73-141.73 141.73-78.236 0-141.73-63.496-141.73-141.73 0-78.236 63.496-141.73 141.73-141.73 78.237 0 141.73 63.496 141.73 141.73zm-53.15 0c0 14.67 22.812 3.042 9.36 43.04-9.36 27.826-27.076 45.543-56.58 54.902-40.224 12.76-26.693-9.36-41.363-9.36-14.668 0-1.14 22.12-41.364 9.36-29.502-9.36-47.218-27.076-56.577-56.578-12.76-40.224 9.36-26.695 9.36-41.364 0-14.67-22.12-1.14-9.36-41.364 9.36-29.502 27.075-47.22 56.577-56.578 40.225-12.76 26.696 9.36 41.364 9.36 14.67 0 1.14-22.12 41.364-9.36 29.505 9.36 47.22 27.075 56.58 56.578 12.76 40.224-9.36 26.694-9.36 41.364z" transform="matrix(-1.899 0 0 1.887 1166.1 -102.64)" stroke="#000" stroke-width="1.197" fill="#c0c0c0"/><path d="M126.55 157.68c-20.248 0-1.93 67.6-9.104 51.705s-11.144-33.368-11.144-51.705 3.97-35.81 11.144-51.705c7.175-15.894-11.144 51.705 9.104 51.705z" transform="matrix(-1.662 0 0 1.761 1107.2 -99.519)" stroke="#000" stroke-width="1.197" fill="#c0c0c0"/><path d="M372.05 139.96c0 15.892-2.13 31.632-9.75 44.81-7.966 13.776 9.75-44.81-7.966-44.81 17.716 0 1.687-58.587 7.965-44.81 6.277 13.775 9.75 28.918 9.75 44.81z" transform="matrix(-1.899 0 0 2.032 1166.1 -106.24)" stroke="#000" stroke-width="1.197" fill="#c0c0c0"/><path d="M296.29 263.08c-14.836 6.28-31.144 9.75-48.258 9.75s-33.422-3.47-48.257-9.75c-14.835-6.278 48.257 9.75 48.257-7.966 0 17.717 63.093 1.688 48.258 7.966zM248.03 42.52c0-17.716-63.092-1.688-48.257-7.966s31.143-9.75 48.257-9.75 33.422 3.472 48.258 9.75c14.835 6.278-48.258-9.75-48.258 7.966z" transform="matrix(-1.899 0 0 1.887 1166.1 -102.64)" stroke="#000" stroke-width="1.197" fill="#c0c0c0"/><ellipse rx="18.433" ry="20.109" stroke="#000" transform="matrix(-1.293 -1.382 -1.391 1.284 1257.6 -120.02)" cy="160.86" cx="82.112" stroke-width="1.197" fill="#fff133"/><path d="M851.42-39.552c14.555 10.32 28.28 22.247 40.925 35.76s23.616 27.986 32.913 43.16l11.54-6.965c-9.765-15.933-21.284-31.13-34.563-45.323s-27.695-26.72-42.98-37.555l-7.834 10.923zM465.433 317.015c9.296 15.173 20.267 29.642 32.912 43.157s26.37 25.442 40.925 35.762l-7.837 10.922c-15.284-10.84-29.7-23.362-42.978-37.555s-24.802-29.39-34.563-45.323l11.54-6.962zm-206.36 9.686c9.297 15.174 24.817 29.094 37.462 42.61 12.642 13.51 28.568 23.296 43.12 33.62l2.93-25.42c-15.286-10.84-29.7-23.363-42.98-37.557s-24.802-29.39-34.563-45.323l-5.97 32.07zM834.675 407.48c15.272-9.232 29.837-20.126 43.44-32.682s25.607-26.188 35.993-40.642l10.997 7.787c-10.908 15.178-23.512 29.494-37.798 42.68s-29.582 24.63-45.62 34.32l-7.012-11.464z" stroke="#000" stroke-width="2.265921" fill="#fff133"/><ellipse rx="18.433" ry="20.109" stroke="#000" transform="matrix(-1.293 -1.382 -1.391 1.284 789.14 314.38)" cy="160.86" cx="82.112" stroke-width="1.197" fill="#fff133"/><path d="M842.353 417.397c15.273-9.23 27.59-17.887 41.19-30.443s31.23-30.66 41.62-45.112l3.12 30.136c-10.904 15.18-23.508 29.494-37.794 42.68s-29.585 24.626-45.623 34.32l-2.512-31.585z" stroke="#000" stroke-width="2.265921" fill="#fff133"/><path d="M173.94 271.77l-.838 14.842-3.24 4.493.977-15.087 3.1-4.248zm156.6-6.17l3.562 4.19 1.047 13.615-2.935-2.933-1.676-14.872z" transform="matrix(-1.899 0 0 1.887 1166.1 -102.64)" stroke="#000" stroke-width="1.197" fill="#fff133"/><ellipse rx="18.433" ry="20.109" stroke="#000" transform="matrix(-1.293 -1.382 -1.391 1.284 1237.6 329.88)" cy="160.86" cx="82.112" stroke-width="1.197" fill="#fff133"/></g><path d="M513.78-790.16l35.432-17.714 35.433 17.714s-73.366 35.433-73.366 159.45c-.003 88.58 125.26 106.3 125.26 212.6 0 45.65-34.185 88.582-69.618 88.582s-88.583-17.716-141.73-70.866c35.433 17.716 76.082 37.308 106.3 36.058 19.588-.405 55.025-17.716 55.025-53.15 0-70.865-122.77-106.92-122.77-213.22 0-124.02 50.025-159.45 50.026-159.45zm6.47 0l46.683-17.717 10 17.717s-70.65 35.433-70.65 159.45c0 88.58 125.89 106.3 125.89 212.6 0 45.65-26.713 87.362-65.24 88.582-73.403 2.363-90.458-23.966-141.73-70.866 43.15 32.308 105 46.752 129.02 34.183 29.354-15.366 35.024-36.06 35.024-53.776 0-70.866-120.89-104.42-120.89-210.72 0-124.02 51.9-159.45 51.9-159.45zm-6.91.47c7.004-2.437 35.875-18.186 71.308 17.247 17.717 17.72 17.716 53.15 17.716 70.866l53.15-53.15s-29.066-86.87-107.62-53.59c-11.127 4.9-28.14 14.537-34.55 18.627zm10.46-6.25c8.84-2.87 36.676-6.325 64.596 18.5 17.717 17.72 18.966 42.934 18.966 60.65l40.65-37.932c3.44-3.21-24.832-81.252-99.24-54.034-4.5 1.807-14.78 6.302-24.972 12.816z" transform="matrix(-.24 0 0 .199 534.09 334.357)" stroke="#000" stroke-width="1.197" fill="#fff"/><path d="M344.54-596.29l9.152 22.14s1.455-9.766 8.526-11.533l7.07-1.768s26.865 49.326 32.17 58.165c5.3 8.838-3.537 16.793-1.77 16.793 1.77 0 26.517-11.49 26.517-11.49s-10.606.882-15.026-6.19-34.82-59.933-34.82-59.933 6.186-2.652 11.49-5.303c5.303-2.652 10.606 7.955 10.606 7.955L385.2-613.97s0 8.84-4.42 10.607c-4.42 1.766-7.956 3.534-7.956 3.534s-3.535-6.186-7.955-13.257c-4.42-7.07 4.42-14.142 4.42-14.142l-22.983 11.49s7.955 4.42 10.607 8.84l5.303 8.84s-3.223 1.767-8.214 3.48c-3.59 1.876-7.696.055-9.464-1.713z" transform="matrix(-.195 -.021 -.067 .173 439.546 337.121)" stroke="#000" stroke-width="1.197" fill="#fff133"/><path d="M344.54-596.29l9.152 22.14s1.455-9.766 8.526-11.533l7.07-1.768s26.865 49.326 32.17 58.165c5.3 8.838-3.537 16.793-1.77 16.793 1.77 0 26.517-11.49 26.517-11.49s-10.606.882-15.026-6.19-34.82-59.933-34.82-59.933 6.186-2.652 11.49-5.303c5.303-2.652 10.606 7.955 10.606 7.955L385.2-613.97s0 8.84-4.42 10.607c-4.42 1.766-7.956 3.534-7.956 3.534s-3.535-6.186-7.955-13.257c-4.42-7.07 4.42-14.142 4.42-14.142l-22.983 11.49s7.955 4.42 10.607 8.84l5.303 8.84s-3.223 1.767-8.214 3.48c-3.59 1.876-7.696.055-9.464-1.713z" transform="matrix(.178 .024 .003 -.133 320.605 95.229)" stroke="#000" stroke-width="1.197" fill="#fff133"/><g transform="matrix(.144 0 0 .121 423.643 295.291)"><g transform="rotate(45 478.12 -504.573)"><ellipse rx="35.433" ry="35.433" stroke="#000" transform="translate(124.01 283.46)" cy="-1428" cx="354.33" stroke-width="1.197" fill="#c0c0c0"/><path d="M460.63-1126.77v53.15h35.432v-53.15c0-17.717-35.432-17.717-35.432 0z" stroke="#000" stroke-width="1.197" fill="#fff133"/><path d="M442.91-1066.09h70.866c9.757-9.756 9.757-26.095 0-35.433-25.99-10.607-44.874-9.48-70.866 0-8.307 9.338-9.422 24.826 0 35.433z" stroke="#000" stroke-width="1.197" fill="#c0c0c0"/><path d="M442.91-1073.62v53.15h70.866v-53.15c-17.717-10.607-53.15-10.607-70.866 0z" stroke="#000" stroke-width="1.197" fill="#fff133"/><path d="M442.91-1012.94h70.866c9.757-9.756 9.757-26.095 0-35.433-25.99-10.607-44.874-9.48-70.866 0-8.307 9.338-9.422 24.826 0 35.433z" stroke="#000" stroke-width="1.197" fill="#c0c0c0"/><path fill="#fff133" d="M442.91-116.93h70.866V131.1H442.91z"/><path d="M442.91-1020.476l.006 484.79h70.867l-.007-484.79c-17.717-10.607-53.15-10.607-70.866 0z" stroke="#000" stroke-width="1.197" fill="#fff133"/><path d="M442.92-506.698h70.866c9.757-9.756 9.757-26.095 0-35.433-25.99-10.61-44.874-9.48-70.866 0-8.307 9.336-9.422 24.824 0 35.43z" stroke="#000" stroke-width="1.197" fill="#c0c0c0"/><path d="M442.92-506.7v318.9h70.866v-318.9c-17.717-10.607-53.15-10.607-70.866 0zm-17.73 177.17h106.3c9.757-9.756 9.757-26.095 0-35.433 0 0-17.716-17.716-53.15-17.716s-53.15 17.718-53.15 17.718c-7.12 9.338-6.283 24 0 35.433zm0 0l17.717 88.583h70.866l17.716-88.583c.272-3.727-17.718-17.716-53.15-17.716s-51.93 17.34-53.15 17.716z" stroke="#000" stroke-width="1.197" fill="#fff133"/><path d="M336.61-506.69c0-35.433 0-86.653 17.717-129.98 17.716 43.326 17.716 94.546 17.716 129.98H336.61z" transform="matrix(1 0 0 .818 124.01 173.44)" stroke="#000" stroke-width="1.197" fill="#fff133"/><path d="M318.9-506.69h17.716v-43.326c0-43.327-35.433-64.99-35.433-64.99l17.717 108.32z" transform="matrix(-1 0 0 .818 832.67 173.44)" stroke="#000" stroke-width="1.197" fill="#fff133"/><path d="M318.9-506.69h17.716v-43.326c0-43.327-35.433-64.99-35.433-64.99l17.717 108.32z" transform="matrix(1 0 0 .818 124.01 173.44)" stroke="#000" stroke-width="1.197" fill="#fff133"/><path d="M478.34-116.93c17.716 88.582 17.716 159.45 17.716 177.16.03 33.655-17.716 53.15-17.716 53.15s-17.717-17.717-17.717-53.15c0-17.716 0-88.583 17.717-177.16zm-35.433-124.02c0 124.02-35.433 230.32-35.433 318.9 0 70.866 51.654 73.453 70.118 72.16 18.464-1.294 72.3-1.19 71.614-72.16 0-88.583-35.433-194.88-35.433-318.9-17.717-17.716-53.15-17.716-70.866 0z" stroke="#000" stroke-width="1.197" fill="#fff133"/><path d="M442.91-1020.476v53.15c0 35.433 17.716 177.16 17.716 177.16s-17.71 148.17-17.71 183.61v53.15c0-35.433 35.427-219.04 35.427-219.04s35.44 165.89 35.44 219.04v-53.15c0-35.433-17.717-183.61-17.724-183.61.005 0 17.715-124.02 17.715-159.45v-70.867c0 35.433-35.426 212.6-35.426 212.6s-35.44-177.17-35.44-212.6z" stroke="#000" stroke-width="1.197" fill="#c0c0c0"/></g><path stroke="#000" stroke-width="2.264724" fill="#fff133" d="M-39.36-73.188l28.645-32.59L88.55-9.58 59.907 23.01z"/><path d="M336.61 166.54c0 14.67 35.433 35.434 35.433-17.716H336.61v17.716zM242.1 24.803c-147.06 0-113.13 164.24-100.37 124.02 9.36-29.503 35.433-70.866 64.935-80.225 40.225-12.76 26.696 9.36 41.364 9.36 14.67 0 1.14-22.12 41.362-9.36 29.503 9.36 55.577 50.722 64.936 80.225 12.76 40.224 53.148-124.02-112.23-124.02zM389.76 166.54c0 78.237-63.496 141.73-141.73 141.73-78.236 0-141.73-63.496-141.73-141.73v-17.716c0-29.116 35.433 124.02 141.73 124.02s141.73-124.77 141.73-124.02v17.716z" transform="matrix(1.899 0 0 1.887 -662.45 -102.64)" stroke="#000" stroke-width="1.197" fill="#fff133"/><ellipse rx="18.433" ry="20.109" stroke="#000" transform="matrix(1.293 -1.382 1.391 1.284 -753.9 -120.02)" cy="160.86" cx="82.112" stroke-width="1.197" fill="#c0c0c0"/><path stroke="#000" stroke-width="2.264724" fill="#c0c0c0" d="M-70.73-47.266l31.52-35.755L70.026 22.52l-31.52 35.756z"/><path d="M336.61 166.54c0 14.67 35.433 35.434 35.433-17.716H336.61v17.716z" transform="matrix(-1.899 0 0 1.887 279.67 -100.51)" stroke="#000" stroke-width="1.197" fill="#fff133"/><path d="M389.76 148.82c0 78.236-63.496 141.73-141.73 141.73-78.236 0-141.73-63.496-141.73-141.73 0-78.236 63.496-141.73 141.73-141.73 78.237 0 141.73 63.496 141.73 141.73zm-53.15 0c0 14.67 22.812 3.042 9.36 43.04-9.36 27.826-27.076 45.543-56.58 54.902-40.224 12.76-26.693-9.36-41.363-9.36-14.668 0-1.14 22.12-41.364 9.36-29.502-9.36-47.218-27.076-56.577-56.578-12.76-40.224 9.36-26.695 9.36-41.364 0-14.67-22.12-1.14-9.36-41.364 9.36-29.502 27.075-47.22 56.577-56.578 40.225-12.76 26.696 9.36 41.364 9.36 14.67 0 1.14-22.12 41.364-9.36 29.505 9.36 47.22 27.075 56.58 56.578 12.76 40.224-9.36 26.694-9.36 41.364z" transform="matrix(1.899 0 0 1.887 -662.45 -102.64)" stroke="#000" stroke-width="1.197" fill="#fff133"/><path d="M126.55 157.68c-20.248 0-1.93 67.6-9.104 51.705s-11.144-33.368-11.144-51.705 3.97-35.81 11.144-51.705c7.175-15.894-11.144 51.705 9.104 51.705z" transform="matrix(1.662 0 0 1.761 -603.57 -99.519)" stroke="#000" stroke-width="1.197" fill="#fff133"/><path d="M372.05 139.96c0 15.892-2.13 31.632-9.75 44.81-7.966 13.776 9.75-44.81-7.966-44.81 17.716 0 1.687-58.587 7.965-44.81 6.277 13.775 9.75 28.918 9.75 44.81z" transform="matrix(1.899 0 0 2.032 -662.45 -106.24)" stroke="#000" stroke-width="1.197" fill="#fff133"/><path d="M296.29 263.08c-14.836 6.28-31.144 9.75-48.258 9.75s-33.422-3.47-48.257-9.75c-14.835-6.278 48.257 9.75 48.257-7.966 0 17.717 63.093 1.688 48.258 7.966zM248.03 42.52c0-17.716-63.092-1.688-48.257-7.966s31.143-9.75 48.257-9.75 33.422 3.472 48.258 9.75c14.835 6.278-48.258-9.75-48.258 7.966z" transform="matrix(1.899 0 0 1.887 -662.45 -102.64)" stroke="#000" stroke-width="1.197" fill="#fff133"/><path d="M-347.75-39.552c-14.555 10.32-28.28 22.247-40.925 35.76s-23.616 27.986-32.913 43.16l-11.54-6.965c9.765-15.933 21.284-31.13 34.563-45.323s27.695-26.72 42.98-37.555l7.834 10.923zM38.207 317.015c-9.296 15.173-20.267 29.642-32.912 43.157s-26.37 25.442-40.925 35.762l7.837 10.922c15.284-10.84 29.7-23.362 42.978-37.555s24.802-29.39 34.563-45.323l-11.54-6.962zm255.88 9.686c-9.297 15.174-24.817 29.094-37.462 42.61-12.642 13.51-28.568 23.296-43.12 33.62l-2.93-25.42c15.286-10.84 29.7-23.363 42.98-37.557s24.802-29.39 34.563-45.323l5.97 32.07zM-331.015 407.48c-15.272-9.232-29.837-20.126-43.44-32.682s-25.607-26.188-35.993-40.642l-10.997 7.787c10.908 15.178 23.512 29.494 37.798 42.68s29.582 24.63 45.62 34.32l7.012-11.464z" stroke="#000" stroke-width="2.265921" fill="#c0c0c0"/><ellipse rx="18.433" ry="20.109" stroke="#000" transform="matrix(1.293 -1.382 1.391 1.284 -285.47 314.38)" cy="160.86" cx="82.112" stroke-width="1.197" fill="#c0c0c0"/><path d="M-338.683 417.397c-15.273-9.23-27.59-17.887-41.19-30.443s-31.23-30.66-41.62-45.112l-3.12 30.136c10.904 15.18 23.508 29.494 37.794 42.68s29.585 24.626 45.623 34.32l2.512-31.585z" stroke="#000" stroke-width="2.265921" fill="#c0c0c0"/><path d="M173.94 271.77l-.838 14.842-3.24 4.493.977-15.087 3.1-4.248zm156.6-6.17l3.562 4.19 1.047 13.615-2.935-2.933-1.676-14.872z" transform="matrix(1.899 0 0 1.887 -662.45 -102.64)" stroke="#000" stroke-width="1.197" fill="#c0c0c0"/><ellipse rx="18.433" ry="20.109" stroke="#000" transform="matrix(1.293 -1.382 1.391 1.284 -733.89 329.88)" cy="160.86" cx="82.112" stroke-width="1.197" fill="#c0c0c0"/><path d="M834.18-843.274l40.654 39.753-40.653 39.75 20.327 19.877 40.654-39.753 81.305 79.505-40.653 39.752 20.33 19.876 40.65-39.753 40.653 39.752-121.958 119.257-81.304-79.505 40.654-39.754 20.326 19.876 20.325-19.877-81.304-79.506-20.325 19.877 20.325 19.875-40.65 39.752-40.654-39.753 20.327-19.876-20.326-19.876-81.303 79.505 20.325 19.874 20.326-19.875 40.653 39.752-40.65 39.75-20.326-19.874-20.328 19.875 81.304 79.505 20.328-19.876-20.328-19.878 40.653-39.75 81.304 79.504L752.88-366.252l-40.654-39.754 40.653-39.75-20.327-19.876-40.653 39.75-81.304-79.504 40.653-39.753-20.33-19.876-40.65 39.754-40.653-39.754L834.19-843.283zM712.234-406.002v39.752l101.63 99.38v-79.503L793.54-366.25h-40.654l-40.652-39.752zm-101.64-98.562l80.75 78.96.96 39.48-81.71-79.9v-38.54zm81.31 118.442l40.652-39.752v-39.753l-40.652 39.753v39.752zm-101.63-99.38l40.65-39.753v-39.753l-40.65 39.753v39.752zm40.65-79.508v39.753l20.328-19.877-20.327-19.875zm101.632 99.382v39.752l20.327-19.877-20.327-19.875zM549.213-565.01l41.058 39.754v39.752l-41.056-40.965v-38.54zm244.322-39.748l40.652-39.752v-39.753l-40.652 39.753v39.752zM712.23-525.26l40.653-39.752v-39.753l-40.652 39.753v39.752zm-20.33-99.378l60.98-59.63v-39.75l-81.305 79.503 20.326 19.877zm60.983-99.378v39.752l20.327-19.877-20.327-19.877zm40.652 119.258l-40.652-39.752v-39.753l40.652 39.753v39.752zm101.628-19.88l-60.98-59.63v-39.75l81.305 79.503-20.325 19.877zm-60.983 19.874l81.305 79.505h40.652l20.327 19.877v79.506l-142.288-139.53v-39.357zm-81.297 238.522L874.84-485.5h40.653L793.535-366.242h-40.652zm60.98 19.87L935.82-465.63l-20.33-19.87-121.958 119.258 20.33 19.87zm0 0v79.503L935.82-386.125v-79.504L813.862-346.374zM915.49-525.25l121.958-119.257h40.652L956.142-525.25H915.49zm60.98 19.87l121.957-119.258-20.33-19.87-121.958 119.26 20.33 19.868zm0 0v79.504l121.957-119.258v-79.504L976.47-505.38zm-20.32-139.127l20.327-19.877v-39.752l-40.653 39.752 20.326 19.877zm-101.628-99.378l20.327-19.877v-39.752l-40.655 39.752 20.326 19.877zM752.886-485.5v-39.752l20.327 19.875-20.327 19.877zm-40.656-39.76l-40.65-39.752 20.325-19.877 20.326 19.88v39.75zm121.962-159.007l-20.326-19.877 20.326-19.875v39.754z" stroke="#000" fill="#fff133"/></g><path d="M456.64 274.784c-.508-.32-1.135-.137-1.254.363s.27 1.32.78 1.64l2.796 1.753c.508.32 1.136.138 1.254-.363.124-.523-.27-1.32-.78-1.64l-2.796-1.753zm-.017-2.048c-.512-.303-1.137-.1-1.25.403s.287 1.31.8 1.612l2.818 1.664c.514.302 1.14.1 1.25-.403.12-.527-.285-1.31-.8-1.614l-2.816-1.665zm.06-2.234c-.507-.32-1.134-.137-1.253.363s.27 1.32.78 1.64l2.796 1.753c.508.32 1.136.138 1.254-.363.124-.523-.27-1.32-.78-1.64l-2.796-1.753zm-.017-2.05c-.512-.302-1.137-.1-1.25.404s.287 1.31.8 1.614l2.818 1.664c.512.302 1.137.1 1.25-.403.118-.525-.287-1.31-.8-1.612l-2.818-1.664zm-.116 14.896c-.508-.32-1.135-.137-1.254.363s.27 1.323.78 1.64l2.796 1.755c.508.32 1.136.138 1.254-.363.124-.522-.27-1.32-.78-1.638l-2.796-1.754zm-.016-2.048c-.512-.303-1.137-.1-1.25.403s.287 1.31.8 1.614l2.818 1.664c.512.304 1.137.103 1.25-.4.118-.528-.287-1.31-.8-1.615l-2.818-1.664zm.06-2.234c-.507-.32-1.134-.137-1.253.363s.273 1.32.78 1.64l2.798 1.75c.508.32 1.136.14 1.254-.362.125-.524-.27-1.32-.778-1.64l-2.797-1.754zm-.016-2.048c-.512-.303-1.137-.1-1.25.403s.287 1.313.8 1.616l2.818 1.664c.512.3 1.137.1 1.25-.404.118-.527-.287-1.31-.8-1.614l-2.818-1.664zm.238-19.363c-.508-.32-1.135-.137-1.254.363s.27 1.32.78 1.64l2.796 1.753c.508.32 1.136.14 1.254-.36.124-.524-.27-1.32-.78-1.64l-2.796-1.754zm-.016-2.047c-.512-.303-1.137-.1-1.25.403s.287 1.313.8 1.616l2.818 1.664c.512.3 1.137.1 1.25-.404.118-.527-.287-1.31-.8-1.614l-2.818-1.664zm.06-2.233c-.508-.32-1.135-.137-1.254.363s.27 1.32.78 1.64l2.796 1.753c.508.32 1.136.14 1.254-.36.124-.524-.27-1.32-.78-1.64l-2.796-1.754zm-.016-2.05c-.512-.302-1.137-.1-1.25.404s.287 1.31.8 1.612l2.818 1.664c.512.302 1.137.1 1.25-.403.118-.527-.287-1.31-.8-1.614l-2.818-1.665zm-.116 14.895c-.508-.32-1.135-.137-1.254.363s.27 1.32.78 1.64l2.796 1.753c.508.32 1.136.138 1.254-.363.124-.523-.27-1.32-.78-1.64l-2.796-1.753zm-.018-2.048c-.51-.303-1.136-.1-1.25.403s.288 1.31.8 1.614l2.82 1.662c.51.302 1.136.1 1.25-.403.117-.528-.288-1.31-.8-1.615l-2.82-1.664zm.062-2.234c-.508-.32-1.135-.137-1.254.363s.27 1.323.78 1.64l2.796 1.755c.508.32 1.136.138 1.254-.363.124-.522-.27-1.32-.78-1.638l-2.796-1.754zm-.016-2.048c-.512-.303-1.137-.1-1.25.403s.287 1.31.8 1.614l2.818 1.664c.512.304 1.137.103 1.25-.4.118-.528-.287-1.31-.8-1.615l-2.818-1.664zm-.47 49.15c-.51-.32-1.136-.137-1.255.363s.273 1.32.78 1.64l2.798 1.753c.508.32 1.136.138 1.254-.363.125-.523-.27-1.32-.778-1.64l-2.797-1.753zm-.016-2.048c-.513-.303-1.138-.1-1.25.403s.286 1.31.8 1.614l2.817 1.662c.512.302 1.137.1 1.25-.403.118-.528-.287-1.31-.8-1.615l-2.818-1.664zm.06-2.234c-.508-.32-1.135-.137-1.254.363s.27 1.323.78 1.64l2.796 1.755c.508.32 1.136.138 1.254-.363.124-.522-.27-1.32-.78-1.638l-2.796-1.754zm-.017-2.048c-.512-.303-1.137-.1-1.25.403s.287 1.31.8 1.614l2.818 1.664c.514.304 1.14.103 1.25-.4.12-.528-.285-1.31-.8-1.615l-2.816-1.664zm-.116 14.893c-.508-.32-1.135-.137-1.254.363s.27 1.32.78 1.64l2.796 1.753c.506.317 1.134.136 1.252-.365.124-.523-.27-1.32-.78-1.64l-2.796-1.753zm-.017-2.047c-.512-.303-1.137-.1-1.25.403s.287 1.31.8 1.612l2.818 1.664c.512.302 1.137.1 1.25-.403.118-.527-.287-1.31-.8-1.614l-2.818-1.665zm.06-2.234c-.507-.32-1.134-.137-1.253.363s.27 1.32.78 1.64l2.796 1.753c.508.32 1.136.138 1.254-.363.124-.523-.27-1.32-.78-1.64l-2.796-1.753zm-.016-2.048c-.512-.303-1.137-.1-1.25.403s.287 1.31.8 1.614l2.818 1.666c.512.302 1.137.1 1.25-.403.118-.527-.287-1.31-.8-1.614l-2.818-1.665zm.238-19.362c-.508-.32-1.135-.137-1.254.363s.27 1.32.78 1.64l2.796 1.753c.508.32 1.136.138 1.254-.363.124-.523-.27-1.32-.78-1.64l-2.796-1.753zm-.016-2.048c-.512-.303-1.137-.1-1.25.403s.287 1.31.8 1.614l2.818 1.666c.512.302 1.137.1 1.25-.403.118-.527-.287-1.31-.8-1.614l-2.818-1.665zm.06-2.234c-.507-.32-1.134-.137-1.253.363s.27 1.32.78 1.64l2.796 1.753c.506.32 1.134.138 1.252-.363.124-.523-.27-1.32-.78-1.64l-2.796-1.753zm-.016-2.048c-.512-.303-1.137-.1-1.25.403s.287 1.31.8 1.614l2.818 1.662c.512.302 1.137.1 1.25-.403.118-.528-.287-1.31-.8-1.615l-2.818-1.664zm-.116 14.893c-.508-.32-1.135-.137-1.254.363s.27 1.32.78 1.64l2.796 1.753c.508.32 1.136.14 1.254-.36.124-.524-.27-1.32-.78-1.64l-2.796-1.754zm-.017-2.047c-.512-.303-1.137-.1-1.25.403s.287 1.313.8 1.616l2.818 1.664c.512.3 1.137.1 1.25-.404.118-.527-.287-1.31-.8-1.614l-2.818-1.664zm.06-2.234c-.507-.32-1.134-.137-1.253.363s.27 1.32.78 1.64l2.796 1.753c.508.32 1.136.138 1.254-.363.124-.523-.27-1.32-.78-1.64l-2.796-1.753zm-.017-2.048c-.51-.303-1.136-.1-1.25.403s.288 1.31.8 1.612l2.82 1.664c.51.302 1.136.1 1.25-.403.117-.527-.288-1.31-.8-1.614l-2.82-1.665zm-.47 49.15c-.507-.32-1.134-.138-1.253.362s.27 1.32.78 1.64l2.796 1.753c.508.32 1.136.14 1.254-.36.124-.524-.27-1.32-.78-1.64l-2.796-1.754zm-.015-2.048c-.512-.303-1.137-.1-1.25.403s.287 1.313.8 1.616l2.818 1.664c.512.3 1.137.1 1.25-.404.118-.527-.287-1.31-.8-1.614l-2.818-1.664zm.06-2.234c-.507-.32-1.134-.137-1.253.363s.27 1.32.78 1.64l2.796 1.753c.508.32 1.136.138 1.254-.363.124-.523-.27-1.32-.78-1.64l-2.796-1.753zm-.015-2.05c-.513-.302-1.138-.1-1.25.404s.286 1.31.8 1.614l2.817 1.664c.512.302 1.137.1 1.25-.403.118-.527-.287-1.31-.8-1.614l-2.818-1.666zm-.134 12.848c-.512-.303-1.137-.1-1.25.403s.287 1.31.8 1.614l2.818 1.662c.512.302 1.137.1 1.25-.403.118-.528-.287-1.31-.8-1.615l-2.818-1.664zm.06-2.235c-.507-.32-1.134-.137-1.253.363s.27 1.32.78 1.64l2.796 1.753c.506.32 1.134.138 1.252-.363.124-.523-.27-1.32-.78-1.64l-2.796-1.753zm-.016-2.047c-.512-.303-1.137-.1-1.25.403s.287 1.31.8 1.614l2.818 1.664c.512.304 1.137.103 1.25-.4.118-.528-.287-1.31-.8-1.615l-2.818-1.664zm.238-19.362c-.508-.32-1.135-.137-1.254.363s.27 1.323.78 1.64l2.796 1.755c.508.32 1.136.138 1.254-.363.124-.522-.27-1.32-.78-1.638l-2.796-1.754zm-.016-2.048c-.512-.304-1.137-.102-1.25.402s.287 1.31.8 1.614l2.818 1.664c.512.302 1.137.1 1.25-.403.118-.527-.287-1.31-.8-1.614l-2.818-1.664zm.06-2.234c-.507-.32-1.134-.137-1.253.363s.27 1.32.777 1.64l2.797 1.75c.508.32 1.136.14 1.254-.362.123-.524-.272-1.32-.78-1.64l-2.797-1.754zm-.016-2.048c-.512-.303-1.137-.1-1.25.403s.287 1.313.8 1.616l2.818 1.664c.512.3 1.137.1 1.25-.404.118-.527-.287-1.31-.8-1.614l-2.818-1.664zm-.116 14.894c-.508-.32-1.135-.137-1.254.363s.27 1.32.78 1.64l2.796 1.753c.508.32 1.136.138 1.254-.363.124-.523-.27-1.32-.78-1.64l-2.796-1.753zm-.017-2.048c-.512-.303-1.137-.1-1.25.403s.287 1.31.8 1.614l2.818 1.666c.514.302 1.14.1 1.25-.403.12-.527-.285-1.31-.8-1.614l-2.816-1.665zm.06-2.234c-.507-.32-1.134-.137-1.253.363s.27 1.32.78 1.64l2.796 1.753c.508.32 1.136.138 1.254-.363.124-.523-.27-1.32-.78-1.64l-2.796-1.753zm-.016-2.048c-.512-.303-1.137-.1-1.25.403s.287 1.31.8 1.614l2.818 1.662c.512.302 1.137.1 1.25-.403.118-.528-.287-1.31-.8-1.615l-2.818-1.664zm-.337 36.413c-.51-.32-1.136-.137-1.255.363s.27 1.32.78 1.64l2.796 1.753c.51.32 1.138.14 1.256-.36.124-.524-.27-1.32-.78-1.64l-2.796-1.754zm-.018-2.05c-.512-.302-1.137-.1-1.25.404s.287 1.31.8 1.612l2.818 1.664c.512.302 1.137.1 1.25-.403.118-.527-.287-1.31-.8-1.614l-2.818-1.665zm.06-2.232c-.507-.32-1.134-.137-1.253.363s.27 1.32.777 1.64l2.797 1.753c.508.317 1.136.136 1.254-.365.123-.523-.272-1.32-.78-1.64l-2.797-1.753zm-.016-2.048c-.512-.303-1.137-.1-1.25.403s.287 1.31.8 1.614l2.818 1.664c.512.302 1.137.1 1.25-.403.118-.527-.287-1.31-.8-1.614l-2.818-1.666zm-.132 12.845c-.512-.302-1.137-.1-1.25.404s.287 1.31.8 1.614l2.818 1.664c.512.302 1.137.1 1.25-.403.118-.53-.287-1.313-.8-1.616l-2.818-1.664zm.06-2.234c-.507-.32-1.134-.137-1.253.363s.273 1.32.78 1.64l2.798 1.75c.508.32 1.136.14 1.254-.362.125-.524-.27-1.32-.778-1.64l-2.797-1.754zm-.016-2.046c-.512-.304-1.137-.102-1.25.402s.287 1.31.8 1.614l2.818 1.664c.512.302 1.137.1 1.25-.403.118-.527-.287-1.31-.8-1.614l-2.818-1.664zm.15-10.8c-.51-.32-1.136-.137-1.255.363s.27 1.32.78 1.64l2.796 1.753c.506.32 1.134.138 1.252-.363.124-.523-.27-1.32-.78-1.64l-2.796-1.753zm-.018-2.047c-.51-.303-1.136-.1-1.25.403s.288 1.31.8 1.614l2.82 1.664c.51.302 1.136.1 1.25-.403.117-.525-.288-1.31-.8-1.612l-2.82-1.664zm.062-2.233c-.508-.32-1.135-.138-1.254.362s.27 1.32.78 1.64l2.796 1.753c.508.32 1.136.138 1.254-.363.124-.523-.27-1.32-.78-1.64l-2.796-1.753zM459.517 275.022c-.513-.315-1.138-.127-1.25.375s.29 1.317.802 1.632l2.82 1.726c.51.314 1.135.127 1.247-.375.117-.523-.29-1.316-.802-1.63l-2.82-1.73zm-.04-2.052c-.517-.296-1.14-.09-1.246.417s.306 1.308.82 1.605l2.84 1.637c.518.296 1.14.09 1.247-.417.11-.528-.304-1.308-.82-1.606l-2.84-1.637zm.026-2.23c-.513-.315-1.138-.127-1.25.375s.29 1.317.802 1.632l2.82 1.728c.512.314 1.137.127 1.25-.375.116-.524-.29-1.317-.803-1.632l-2.82-1.728zm-.04-2.052c-.516-.297-1.14-.09-1.245.416s.304 1.308.82 1.605l2.84 1.635c.516.298 1.138.09 1.245-.415.11-.527-.304-1.307-.82-1.605l-2.84-1.637zm.08 14.898c-.512-.315-1.137-.127-1.25.375s.29 1.32.803 1.634l2.82 1.728c.512.315 1.137.128 1.25-.374.116-.524-.29-1.317-.803-1.632l-2.82-1.728zm-.04-2.05c-.516-.298-1.14-.09-1.245.415s.304 1.31.82 1.607l2.84 1.637c.516.298 1.138.09 1.245-.415.11-.53-.304-1.31-.82-1.607l-2.84-1.637zm.027-2.232c-.513-.315-1.138-.127-1.25.375s.29 1.315.802 1.63l2.82 1.73c.512.312 1.137.125 1.25-.377.116-.524-.29-1.317-.803-1.632l-2.82-1.727zm-.04-2.05c-.516-.298-1.14-.09-1.245.415s.304 1.306.82 1.603l2.84 1.637c.516.3 1.138.09 1.245-.414.11-.528-.304-1.308-.82-1.606l-2.84-1.637zm-.027-19.36c-.513-.315-1.138-.127-1.25.375s.29 1.315.802 1.63l2.82 1.73c.512.312 1.137.125 1.25-.377.116-.524-.29-1.317-.803-1.632l-2.82-1.727zm-.04-2.05c-.517-.298-1.14-.09-1.246.415s.304 1.306.82 1.603l2.84 1.637c.516.3 1.138.09 1.245-.414.11-.528-.304-1.308-.82-1.606l-2.84-1.637zm.027-2.232c-.513-.315-1.138-.127-1.25.375s.29 1.317.802 1.632l2.82 1.726c.512.314 1.137.127 1.25-.375.116-.523-.29-1.316-.803-1.63l-2.82-1.73zm-.04-2.052c-.517-.297-1.14-.09-1.246.416s.304 1.308.82 1.605l2.84 1.64c.516.297 1.138.09 1.245-.416.11-.528-.306-1.308-.82-1.606l-2.84-1.637zm.08 14.898c-.513-.315-1.138-.127-1.25.375s.29 1.317.802 1.632l2.82 1.728c.512.314 1.137.127 1.25-.375.116-.524-.29-1.317-.803-1.632l-2.82-1.728zm-.04-2.052c-.517-.297-1.14-.09-1.246.416s.304 1.308.82 1.605l2.84 1.637c.516.298 1.138.09 1.245-.415.11-.53-.306-1.31-.82-1.608l-2.84-1.637zm.026-2.23c-.513-.316-1.138-.128-1.25.374s.29 1.317.802 1.632l2.82 1.728c.512.314 1.137.127 1.25-.375.116-.524-.29-1.317-.803-1.632l-2.82-1.728zm-.04-2.05c-.516-.298-1.14-.09-1.245.415s.306 1.31.82 1.607l2.84 1.637c.518.298 1.14.09 1.247-.415.11-.53-.304-1.31-.82-1.607l-2.84-1.637zm.19 49.154c-.514-.315-1.14-.127-1.25.375s.29 1.317.8 1.632l2.82 1.728c.513.314 1.138.127 1.25-.375.117-.524-.29-1.317-.802-1.632l-2.82-1.728zm-.042-2.052c-.516-.297-1.14-.09-1.245.416s.302 1.308.82 1.605l2.837 1.635c.517.298 1.14.09 1.246-.415.11-.527-.304-1.307-.82-1.605l-2.84-1.637zm.026-2.23c-.512-.316-1.137-.128-1.25.374s.29 1.317.803 1.632l2.82 1.728c.512.314 1.137.127 1.25-.375.116-.524-.29-1.317-.803-1.632l-2.82-1.728zm-.04-2.052c-.515-.297-1.138-.09-1.244.416s.304 1.308.82 1.605l2.84 1.637c.516.298 1.138.09 1.245-.415.113-.53-.302-1.31-.82-1.608l-2.84-1.637zm.082 14.898c-.513-.315-1.138-.127-1.25.375s.29 1.315.802 1.63l2.82 1.73c.512.312 1.137.125 1.25-.377.116-.524-.29-1.317-.803-1.632l-2.817-1.727zm-.042-2.05c-.515-.298-1.138-.09-1.244.415s.304 1.306.82 1.603l2.84 1.637c.516.3 1.138.09 1.245-.414.113-.528-.302-1.308-.82-1.606l-2.84-1.637zm.028-2.234c-.513-.314-1.138-.126-1.25.376s.29 1.317.802 1.632l2.82 1.728c.512.314 1.137.127 1.25-.375.116-.522-.29-1.315-.803-1.63l-2.82-1.73zm-.04-2.05c-.516-.296-1.14-.09-1.245.417s.304 1.308.82 1.605l2.84 1.637c.516.296 1.138.09 1.245-.417.11-.528-.304-1.308-.82-1.606l-2.84-1.637zm-.028-19.36c-.513-.314-1.138-.126-1.25.376s.29 1.317.802 1.632l2.82 1.728c.512.314 1.137.127 1.25-.375.116-.522-.29-1.315-.803-1.63l-2.82-1.73zm-.04-2.05c-.516-.297-1.14-.09-1.245.416s.304 1.308.82 1.605l2.84 1.64c.516.297 1.138.09 1.245-.416.11-.528-.304-1.308-.82-1.606l-2.84-1.637zm.027-2.23c-.513-.316-1.138-.128-1.25.374s.29 1.317.802 1.632l2.82 1.728c.51.314 1.135.127 1.247-.375.117-.526-.29-1.32-.802-1.634l-2.82-1.728zm-.04-2.052c-.516-.297-1.14-.09-1.245.416s.304 1.308.82 1.605l2.84 1.635c.516.298 1.138.09 1.245-.415.11-.527-.304-1.307-.82-1.605l-2.84-1.637zm.08 14.897c-.512-.315-1.137-.127-1.25.375s.29 1.317.803 1.632l2.82 1.728c.512.314 1.137.127 1.25-.375.116-.524-.29-1.317-.803-1.632l-2.82-1.728zm-.04-2.05c-.515-.298-1.14-.09-1.244.415s.304 1.308.82 1.605l2.84 1.637c.516.298 1.138.09 1.245-.415.11-.528-.304-1.308-.82-1.606l-2.84-1.635zm.027-2.232c-.513-.315-1.138-.127-1.25.375s.29 1.317.802 1.632l2.82 1.728c.512.314 1.137.127 1.25-.375.116-.524-.29-1.317-.803-1.632l-2.82-1.726zm-.04-2.05c-.516-.298-1.14-.09-1.245.415s.302 1.308.82 1.605l2.837 1.637c.517.298 1.14.09 1.246-.415.11-.528-.304-1.308-.82-1.606l-2.84-1.64zm.188 49.153c-.513-.315-1.138-.127-1.25.375s.29 1.32.802 1.634l2.82 1.728c.512.315 1.137.128 1.25-.374.116-.524-.29-1.317-.803-1.632l-2.817-1.728zm-.04-2.05c-.516-.297-1.14-.09-1.245.416s.304 1.308.82 1.605l2.84 1.637c.516.298 1.138.09 1.245-.415.11-.53-.304-1.31-.82-1.608l-2.84-1.637zm.028-2.232c-.514-.315-1.14-.127-1.25.375s.288 1.315.8 1.63l2.82 1.73c.513.312 1.138.125 1.25-.377.117-.524-.29-1.317-.802-1.632l-2.82-1.727zm-.042-2.05c-.516-.298-1.14-.09-1.245.415s.304 1.306.82 1.603l2.84 1.637c.516.3 1.138.09 1.245-.414.11-.528-.304-1.308-.82-1.606l-2.84-1.637zm.042 12.846c-.517-.298-1.14-.09-1.246.415s.304 1.308.82 1.605l2.84 1.637c.516.298 1.138.09 1.245-.415.11-.528-.306-1.308-.82-1.606l-2.84-1.637zm.026-2.232c-.513-.315-1.138-.127-1.25.375s.29 1.317.802 1.632l2.82 1.728c.512.314 1.137.127 1.25-.375.116-.524-.29-1.317-.803-1.632l-2.82-1.728zm-.04-2.05c-.517-.297-1.14-.09-1.246.416s.304 1.308.82 1.605l2.84 1.635c.516.298 1.138.09 1.245-.415.11-.527-.304-1.307-.82-1.605l-2.84-1.637zm-.026-19.36c-.514-.315-1.14-.127-1.25.375s.288 1.317.8 1.632l2.82 1.728c.513.314 1.138.127 1.25-.375.117-.524-.29-1.317-.802-1.632l-2.82-1.728zm-.042-2.052c-.516-.297-1.14-.09-1.245.416s.304 1.308.82 1.605l2.84 1.637c.516.298 1.138.09 1.245-.415.11-.53-.304-1.31-.82-1.608l-2.84-1.637zm.027-2.23c-.513-.315-1.138-.127-1.25.375s.29 1.32.802 1.634l2.82 1.728c.512.315 1.137.128 1.25-.374.116-.524-.29-1.317-.803-1.632l-2.82-1.728zm-.04-2.052c-.516-.297-1.14-.09-1.245.416s.304 1.308.82 1.605l2.84 1.637c.516.298 1.138.09 1.245-.415.11-.528-.304-1.308-.82-1.606l-2.84-1.635zm.08 14.9c-.513-.316-1.138-.128-1.25.374s.29 1.317.802 1.632l2.82 1.728c.512.314 1.137.127 1.25-.375.116-.524-.29-1.317-.803-1.632l-2.82-1.726zm-.04-2.054c-.516-.296-1.14-.09-1.245.417s.304 1.308.82 1.605l2.84 1.637c.516.296 1.138.09 1.245-.417.11-.528-.304-1.308-.82-1.606l-2.84-1.637zm.027-2.23c-.513-.315-1.138-.127-1.25.375s.29 1.317.802 1.632l2.82 1.728c.512.314 1.137.127 1.25-.375.116-.524-.29-1.317-.803-1.632l-2.817-1.728zm-.04-2.05c-.516-.298-1.14-.09-1.245.415s.304 1.308.82 1.605l2.84 1.637c.516.298 1.138.09 1.245-.415.11-.528-.304-1.308-.82-1.606l-2.84-1.637zm.148 36.416c-.513-.315-1.138-.127-1.25.375s.29 1.32.802 1.634l2.82 1.728c.512.315 1.137.128 1.25-.374.116-.524-.29-1.317-.803-1.632l-2.82-1.728zm-.04-2.05c-.516-.298-1.14-.09-1.245.415s.304 1.31.82 1.607l2.84 1.637c.516.298 1.138.09 1.245-.415.11-.53-.304-1.31-.82-1.607l-2.84-1.637zm.027-2.232c-.513-.315-1.138-.127-1.25.375s.29 1.315.802 1.63l2.82 1.73c.51.312 1.135.125 1.247-.377.117-.524-.29-1.317-.802-1.632l-2.82-1.727zm-.04-2.05c-.517-.298-1.14-.09-1.246.415s.306 1.306.82 1.603l2.84 1.637c.518.3 1.14.09 1.247-.414.11-.528-.304-1.308-.82-1.606l-2.84-1.637zm.04 12.846c-.516-.298-1.14-.09-1.245.415s.304 1.308.82 1.605l2.84 1.637c.516.298 1.138.09 1.245-.415.11-.528-.304-1.308-.82-1.606l-2.84-1.637zm.027-2.232c-.513-.315-1.138-.127-1.25.375s.29 1.317.802 1.632l2.82 1.728c.512.314 1.137.127 1.25-.375.116-.524-.29-1.317-.803-1.632l-2.82-1.728zm-.04-2.05c-.517-.297-1.14-.09-1.246.416s.304 1.308.82 1.605l2.84 1.635c.516.298 1.138.09 1.245-.415.11-.527-.304-1.307-.82-1.605l-2.84-1.637zm0-10.796c-.514-.315-1.14-.127-1.25.375s.29 1.317.8 1.632l2.82 1.726c.513.314 1.138.127 1.25-.375.117-.523-.29-1.316-.802-1.63l-2.82-1.73zm-.04-2.052c-.517-.296-1.14-.09-1.246.417s.304 1.308.82 1.605l2.84 1.637c.516.296 1.138.09 1.245-.417.11-.528-.304-1.308-.82-1.606l-2.84-1.637zm.026-2.23c-.513-.315-1.138-.127-1.25.375s.29 1.317.802 1.632l2.82 1.728c.512.314 1.137.127 1.25-.375.116-.524-.29-1.317-.803-1.632l-2.82-1.728z" stroke="#000" stroke-width="17.958" fill="#b00"/><path d="M469.345 260.93c-.64-.16-1.187.186-1.095.69s.822 1.17 1.46 1.33l3.516.877c.64.16 1.187-.186 1.096-.69-.095-.53-.822-1.17-1.46-1.33l-3.517-.878zm.995.557c-.178-.513-.84-.69-1.326-.356s-.792 1.185-.614 1.698l.978 2.822c.178.512.84.69 1.326.355.507-.35.792-1.183.615-1.696l-.98-2.824zm-.263-.35c-.466-.38-1.156-.285-1.38.194s.02 1.34.487 1.723l2.565 2.1c.464.383 1.154.286 1.377-.192.233-.5-.02-1.34-.486-1.72l-2.564-2.1zm-1.603 1.723c.39-.432.146-.953-.487-1.04s-1.656.256-2.046.69l-2.14 2.38c-.39.434-.148.955.486 1.042.66.092 1.656-.257 2.045-.69l2.145-2.38zm2.588-.06c.368-.435.1-.953-.54-1.036s-1.643.27-2.01.706l-2.028 2.397c-.37.435-.1.954.538 1.037.667.087 1.644-.27 2.013-.706l2.027-2.397zm-13.26.143c.41-.42.19-.948-.44-1.055s-1.667.21-2.076.63l-2.25 2.317c-.41.422-.19.95.44 1.056.656.113 1.666-.207 2.075-.63l2.253-2.316zm2.58.014c.39-.424.145-.95-.49-1.052s-1.654.222-2.043.647l-2.14 2.334c-.39.425-.144.95.49 1.052.662.106 1.656-.222 2.044-.646l2.138-2.335zm2.813.083c.41-.42.19-.948-.44-1.055s-1.667.21-2.076.63l-2.253 2.317c-.41.422-.19.95.44 1.056.657.11 1.667-.21 2.076-.63l2.25-2.318zm2.473-.177c.368-.436.1-.954-.54-1.037s-1.643.27-2.01.706l-2.028 2.397c-.37.433-.1.952.538 1.035.667.087 1.644-.27 2.013-.706l2.03-2.398zm-11.33-.828c.41-.42.19-.948-.44-1.055s-1.668.21-2.077.63l-2.25 2.317c-.41.422-.19.95.44 1.056.658.11 1.668-.21 2.077-.63l2.25-2.318zm1.236.835c.45-.385.284-.93-.33-1.09s-1.676.064-2.125.45l-2.473 2.118c-.45.385-.285.93.328 1.09.642.168 1.677-.065 2.126-.45l2.473-2.118zm-3.087-.517c.594-.246.673-.798.158-1.104s-1.625-.366-2.218-.12l-3.267 1.357c-.594.246-.672.8-.157 1.104.538.32 1.624.365 2.218.12l3.268-1.358zM504.648 351.248c.516.31.497.865-.038 1.11s-1.586.18-2.102-.13l-2.838-1.708c-.516-.31-.496-.866.04-1.11.558-.256 1.585-.18 2.1.13l2.838 1.708zm2.337-.6c.498.318.456.878-.085 1.12s-1.58.162-2.078-.157l-2.742-1.75c-.5-.32-.456-.88.084-1.12.565-.25 1.58-.162 2.08.157l2.74 1.752zm2.53-.718c.516.31.497.864-.038 1.11s-1.586.178-2.102-.132l-2.838-1.707c-.516-.31-.496-.864.04-1.11.558-.254 1.585-.18 2.1.133l2.838 1.707zm2.337-.6c.498.317.456.877-.085 1.118s-1.58.163-2.078-.156l-2.744-1.752c-.5-.318-.456-.878.084-1.12.566-.25 1.58-.162 2.08.157l2.742 1.752zm10.25-7.76c.616-.1 1.088.297.945.795s-.903 1.098-1.518 1.2l-3.387.552c-.616.1-1.088-.297-.944-.796.15-.52.9-1.095 1.517-1.196l3.385-.554zm-1.747-3.722c.406-.41 1.066-.354 1.32.11s.102 1.338-.304 1.747l-2.233 2.25c-.407.41-1.067.355-1.32-.11-.267-.484-.103-1.337.303-1.746l2.235-2.253zm2.785 1.662c.62-.118 1.102.262.966.76s-.893 1.112-1.513 1.23l-3.41.642c-.62.117-1.104-.264-.968-.76.143-.52.893-1.113 1.513-1.23l3.41-.643zm-28.118 14.037c.482.347.406.9-.152 1.104s-1.598.067-2.08-.28l-2.65-1.906c-.483-.346-.406-.898.152-1.104.583-.215 1.598-.065 2.08.28l2.65 1.907zm2.388-.427c.463.353.364.907-.2 1.108s-1.59.05-2.054-.304l-2.553-1.943c-.464-.35-.365-.905.198-1.107.59-.21 1.593-.05 2.057.304l2.553 1.943zm2.58-1.005c.53.295.535.85.01 1.11s-1.577.228-2.106-.067l-2.91-1.62c-.53-.296-.534-.852-.01-1.112.55-.273 1.58-.227 2.108.068l2.91 1.62zm2.008-.092c.445.37.315.92-.26 1.1s-1.59-.01-2.036-.382l-2.444-2.036c-.444-.37-.314-.92.26-1.1.6-.188 1.592.01 2.037.38l2.443 2.04zm12.384-3.413c.516.31.497.865-.038 1.11s-1.586.18-2.102-.13l-2.838-1.708c-.516-.31-.496-.866.04-1.11.558-.256 1.585-.18 2.1.13l2.838 1.708zm2.336-.6c.498.318.456.878-.085 1.12s-1.58.162-2.078-.157l-2.742-1.752c-.5-.316-.456-.876.084-1.117.565-.25 1.58-.163 2.08.156l2.74 1.75zm-52.688 8.172c.388.42.18.948-.416 1.054s-1.58-.208-1.97-.63l-2.135-2.314c-.39-.42-.183-.948.414-1.055.623-.11 1.58.21 1.97.63l2.135 2.315zm2.444-.022c.37.424.137.95-.463 1.052s-1.57-.22-1.937-.646l-2.03-2.334c-.368-.425-.136-.95.465-1.053.627-.108 1.57.22 1.94.644l2.027 2.334zm2.67-.078c.387.42.18.948-.417 1.054s-1.58-.208-1.97-.63l-2.135-2.314c-.39-.42-.18-.948.416-1.055.623-.11 1.58.21 1.97.63l2.135 2.315zm2.446-.022c.37.426.137.952-.463 1.054s-1.57-.22-1.94-.646l-2.028-2.334c-.37-.425-.14-.95.462-1.053.627-.104 1.57.223 1.94.648l2.027 2.334zm-17.79.32c.39.42.18.947-.415 1.053s-1.58-.208-1.97-.63l-2.135-2.314c-.39-.423-.18-.95.416-1.057.623-.11 1.58.21 1.97.63l2.135 2.315zm2.447-.024c.37.425.137.95-.463 1.053s-1.57-.223-1.94-.648l-2.028-2.334c-.37-.426-.137-.952.464-1.054.627-.106 1.57.22 1.94.646l2.027 2.334zm2.668-.076c.388.42.18.947-.416 1.053s-1.583-.208-1.97-.63l-2.137-2.314c-.39-.423-.18-.95.416-1.057.622-.11 1.58.21 1.97.63l2.134 2.315zm2.445-.022c.37.425.138.95-.462 1.053s-1.57-.22-1.94-.644l-2.028-2.334c-.37-.424-.137-.95.464-1.052.627-.106 1.57.22 1.94.646l2.027 2.334zm23.332-1.008c.44.384.303.927-.276 1.087s-1.6-.063-2.04-.446l-2.424-2.104c-.44-.383-.303-.926.276-1.087.605-.168 1.6.062 2.04.445l2.424 2.107zm2.546-.362c.436.377.294.925-.283 1.097s-1.59-.035-2.028-.412l-2.4-2.074c-.435-.38-.293-.927.284-1.098.606-.18 1.593.035 2.03.412l2.4 2.073zm2.626-.393c.455.37.338.918-.235 1.093s-1.6-.02-2.057-.39l-2.502-2.044c-.454-.37-.337-.918.236-1.093.598-.182 1.6.02 2.055.394l2.503 2.042zm2.562-.413c.464.354.365.908-.198 1.11s-1.59.05-2.055-.305l-2.553-1.943c-.464-.353-.365-.907.198-1.11.59-.21 1.59-.048 2.055.305l2.553 1.94zm-18.17 1.902c.39.42.18.948-.415 1.054s-1.58-.208-1.967-.63l-2.136-2.314c-.39-.42-.18-.948.416-1.055.623-.113 1.58.207 1.97.63l2.135 2.313zm2.526-.26c.4.402.21.94-.383 1.074s-1.586-.137-1.986-.54l-2.202-2.223c-.4-.404-.21-.94.382-1.075.62-.14 1.584.137 1.985.54l2.2 2.223zm2.743-.32c.443.38.308.927-.27 1.09s-1.6-.056-2.042-.437l-2.436-2.097c-.443-.38-.308-.925.27-1.088.604-.17 1.6.055 2.042.436l2.434 2.097zm2.325-.05c.392.41.19.946-.405 1.07s-1.58-.16-1.972-.57l-2.158-2.25c-.392-.41-.19-.945.404-1.07.62-.13 1.58.16 1.97.57l2.158 2.25zm-59.106-.216c.292.473-.025.96-.635.976s-1.513-.442-1.805-.915l-1.606-2.6c-.293-.475.025-.96.634-.978.637-.016 1.51.443 1.803.915l1.606 2.6zm2.41.35c.272.473-.068.956-.68.966s-1.498-.453-1.77-.927l-1.497-2.6c-.272-.474.068-.957.68-.967.64-.01 1.498.453 1.77.926l1.497 2.602zm2.863.176c.348.445.092.957-.513 1.025s-1.557-.313-1.905-.758l-1.918-2.447c-.348-.445-.092-.958.512-1.025.632-.07 1.558.31 1.906.756l1.917 2.448zm2.44.14c.33.448.05.957-.56 1.02s-1.544-.323-1.872-.77l-1.807-2.46c-.328-.446-.048-.956.56-1.02.636-.063 1.545.324 1.874.77l1.806 2.46zm-15.407-1.657c.27.473-.07.956-.682.966s-1.497-.453-1.77-.927l-1.496-2.6c-.272-.474.068-.957.68-.967.64-.01 1.498.45 1.77.924l1.497 2.602zm2.64.32c.293.473-.024.96-.634.976s-1.51-.442-1.803-.915l-1.606-2.6c-.292-.473.026-.96.635-.976.637-.016 1.51.443 1.803.915l1.606 2.6zm2.412.35c.272.473-.068.956-.68.966s-1.498-.453-1.77-.927l-1.497-2.6c-.272-.474.068-.957.68-.967.64-.01 1.498.45 1.77.924l1.497 2.602zm23.238 1.548c.348.445.092.957-.513 1.025s-1.557-.31-1.905-.756l-1.916-2.447c-.348-.445-.092-.958.512-1.025.632-.07 1.558.31 1.906.755l1.916 2.448zm2.44.14c.33.448.05.957-.558 1.02s-1.546-.323-1.874-.77l-1.807-2.46c-.326-.446-.046-.956.56-1.02.638-.063 1.547.324 1.876.77l1.806 2.46zm2.907-.03c.388.42.18.95-.416 1.055s-1.58-.208-1.967-.63l-2.136-2.314c-.39-.42-.18-.948.416-1.055.623-.11 1.58.21 1.97.63l2.135 2.317zm2.445-.02c.37.425.137.95-.463 1.053s-1.57-.22-1.94-.646l-2.03-2.334c-.37-.425-.137-.95.464-1.053.627-.106 1.57.22 1.94.646l2.027 2.336zm-18.007-.557c.348.445.092.957-.513 1.025s-1.557-.31-1.905-.756l-1.916-2.447c-.346-.445-.09-.958.514-1.025.632-.07 1.558.31 1.906.755l1.915 2.448zm2.44.14c.33.447.05.956-.56 1.02s-1.544-.324-1.872-.77l-1.807-2.46c-.328-.447-.048-.957.56-1.02.636-.064 1.545.323 1.874.77l1.806 2.46zm2.668.092c.348.446.092.958-.513 1.026s-1.557-.31-1.905-.756l-1.916-2.447c-.35-.445-.094-.958.51-1.025.632-.07 1.56.31 1.906.755l1.916 2.448zm2.44.14c.33.448.05.957-.56 1.02s-1.544-.323-1.872-.77l-1.805-2.46c-.328-.446-.048-.956.56-1.018.636-.065 1.545.322 1.874.77l1.805 2.46zm-39.318-11.91c-.628.08-1.078-.327-.9-.815s.985-1.057 1.613-1.137l3.455-.44c.628-.08 1.078.328.9.816-.186.51-.984 1.057-1.613 1.137l-3.455.44zm.465 2.783c-.5.317-1.132.133-1.266-.367s.233-1.32.733-1.636l2.748-1.744c.5-.317 1.132-.134 1.266.367.14.523-.232 1.318-.73 1.636l-2.75 1.742zm1.35 2.403c-.336.452-1 .473-1.327.042s-.32-1.312.016-1.764l1.843-2.485c.336-.454 1-.475 1.327-.044.343.45.32 1.312-.015 1.764l-1.845 2.486zm1.584 1.532c-.133.513-.757.718-1.247.41s-.847-1.13-.713-1.642l.732-2.822c.134-.513.757-.718 1.247-.41.512.322.847 1.13.714 1.642l-.733 2.822zm.72-12.185c-.627-.033-.96-.518-.67-.97s1.204-.87 1.83-.837l3.44.184c.627.033.963.518.67.97-.3.472-1.204.87-1.83.837l-3.44-.184zm-1.624 1.773c-.637-.02-.99-.49-.706-.942s1.2-.885 1.836-.867l3.494.104c.635.02.988.49.705.943-.297.473-1.203.886-1.838.867l-3.494-.104zm-1.284 1.704c-.622.065-1.06-.36-.874-.85s.993-1.04 1.616-1.105l3.424-.35c.622-.064 1.06.36.874.85-.193.51-.993 1.042-1.616 1.105l-3.424.35zm4.17 10.405c.034.53-.494.867-1.057.672s-1.164-.92-1.2-1.452l-.195-2.92c-.035-.532.493-.87 1.056-.674.59.206 1.163.923 1.2 1.454l.194 2.922zm2.742.705c.155.508-.293.925-.896.833s-1.36-.69-1.516-1.2l-.854-2.796c-.155-.508.293-.925.896-.834.63.096 1.36.69 1.516 1.2l.854 2.796zm3.032.3c.292.472-.025.96-.635.975s-1.51-.442-1.803-.915l-1.606-2.6c-.292-.473.026-.96.635-.976.64-.016 1.513.443 1.805.915l1.606 2.6zm105.473-7.88c.616.13.844.65.456 1.044s-1.395.658-2.01.53l-3.393-.703c-.616-.126-.844-.647-.456-1.04.407-.41 1.394-.66 2.01-.53l3.39.702zm.65.444c.596.167.774.708.355 1.083s-1.43.583-2.026.417l-3.274-.914c-.596-.166-.773-.707-.355-1.082.437-.392 1.432-.584 2.027-.418l3.274.914zm3.92-2.82c.626.095.89.604.533 1.016s-1.343.73-1.968.632l-3.437-.53c-.623-.096-.89-.605-.53-1.017.375-.43 1.342-.73 1.967-.633l3.438.53zm-1.995 1.644c.59.176.754.72.326 1.088s-1.446.558-2.037.382l-3.248-.97c-.593-.177-.756-.72-.328-1.088.447-.384 1.446-.56 2.037-.382l3.247.97zm-11.538-9.663c-.58.22-.69.768-.224 1.096s1.513.438 2.092.22l3.185-1.21c.58-.22.69-.767.224-1.095-.488-.343-1.513-.437-2.092-.217l-3.185 1.208zm-2.152-.975c-.563.23-.653.785-.18 1.11s1.51.422 2.074.192l3.098-1.267c.564-.23.654-.786.18-1.112-.495-.34-1.51-.42-2.073-.19l-3.1 1.266zm-2.43-1.332c-.598.182-.76.72-.326 1.078s1.468.534 2.065.352l3.286-.997c.598-.18.76-.72.325-1.076-.455-.374-1.468-.534-2.065-.353l-3.286 1zm11.352 5.52c-.562.23-.652.785-.18 1.11s1.51.42 2.075.19l3.098-1.266c.564-.23.654-.786.18-1.112-.495-.34-1.51-.42-2.073-.19l-3.1 1.267zm-2.308-1.118c-.58.22-.69.768-.224 1.096s1.513.436 2.092.217l3.185-1.21c.58-.218.69-.766.224-1.094-.49-.345-1.515-.44-2.094-.22l-3.185 1.21zm-2.152-.977c-.564.23-.654.786-.18 1.112s1.51.42 2.073.19l3.098-1.266c.566-.23.656-.788.18-1.114-.493-.34-1.51-.42-2.07-.19l-3.1 1.266z" stroke="#000" stroke-width="12.791" fill="#b00"/><g transform="matrix(.081 0 0 .096 438.435 288.09)"><path d="M212.603-1994.912v53.15h-53.15v35.44h53.15v106.3h35.433v-106.3h53.15v-35.44h-53.15v-53.15h-35.433z" stroke="#000" stroke-width="1.197" fill="#fff133"/><ellipse rx="62.008" ry="57.32" stroke="#000" transform="matrix(.571 0 0 .618 93.645 -678.94)" cy="-1813.5" cx="239.17" stroke-width="1.197" fill="#fff133"/><path d="M602.36-1119.4c0 68.45-10.417 145.68-29.252 205.02-120.08-26.455-268.06-39.682-339.04-39.682-87.586 0-246.15 13.227-345.26 26.455-18.835-59.336-30.538-123.34-30.538-191.79 0-273.81 105.27-390.21 367.5-496.03 233.3 105.82 376.6 222.22 376.6 496.03z" transform="matrix(1.058 0 0 1.339 -5.764 363.72)" stroke="#000" stroke-width="1.197" fill="#fff"/><path d="M566.93-657.28c0-44.007-150.8-79.724-336.61-79.724s-336.61 35.717-336.61 79.724v26.575c0-44.007 150.8-70.866 336.61-70.866s336.61 44.574 336.61 88.58v-44.29z" transform="matrix(1.171 0 0 .745 -32.833 -634.89)" stroke="#000" stroke-width="1.197" fill="#fff133"/><path d="M236.99-1381.568l-62.318 39.577 41.545 26.382-20.772 13.193L153.9-1328.8l-62.32 39.577 62.32 39.577 41.545-26.384 20.772 13.192v39.578h41.545v-39.578l20.773-13.19 41.546 26.383 62.32-39.577-62.32-39.576-41.544 26.384-20.773-13.193 41.547-26.384-62.32-39.58zm-418.537 41.545l6.092 39.878 10.4 25.544-14.908 16.073-10.402-25.544-4.51 41.62 35.715 35.01-10.4-25.543 25.31 9.47 15.603 38.315 20.11-3.303-15.602-38.318 14.913-16.074 10.4 25.542 4.51-41.618-35.715-35.014 10.403 25.545-25.31-9.47-10.403-25.544-26.203-36.574zm836.83.618l-23.78 37.11-9.478 25.69-24.963 9.835 9.477-25.69-34.443 35.525 6.01 41.542 9.477-25.688 15.486 15.85-14.214 38.535 20.226 3.01 14.215-38.535 24.964-9.834-9.475 25.688 34.44-35.523-6.01-41.542-9.476 25.69-15.488-15.854 9.478-25.69 3.555-40.118zm-686.253 53.88c-3.317-13.027 9.772-27.737 26.176-29.42 16.406-1.687 36.127 9.654 39.444 22.68s-9.773 27.73-9.773 27.73l78.883 45.353-32.81 3.37-59.163-34.016-39.266 44.123-32.81 3.37 52.358-58.83s-19.72-11.336-23.037-24.36zm469.954-6.64c3.173-13.04 22.77-24.468 39.193-22.855 16.423 1.612 29.672 16.264 26.5 29.304s-22.77 24.462-22.77 24.462l53 58.6-32.845-3.226-39.75-43.95-58.788 34.277-32.846-3.224 78.384-45.702s-13.252-14.643-10.078-27.684zm192.68 128.275c0-32.77-176.812-59.365-394.674-59.365s-394.675 26.596-394.675 59.365v19.788c0-32.77 176.813-52.77 394.675-52.77s394.675 33.194 394.675 65.963v-32.98z" stroke="#000" stroke-width="1.197" fill="#fff133"/><path d="M566.93-657.28c0-44.007-150.8-79.724-336.61-79.724s-336.61 35.717-336.61 79.724v26.575c0-44.007 150.8-70.866 336.61-70.866s336.61 44.574 336.61 88.58v-44.29z" transform="matrix(1.073 0 0 .745 -9.254 -386.86)" stroke="#000" stroke-width="1.197" fill="#fff133"/><path d="M241.427-1133.538l-58.688 39.577 39.123 26.382-19.562 13.193-39.124-26.384-58.688 39.577 58.687 39.577L202.302-1028l19.562 13.192v39.578h39.125v-39.578l19.56-13.19 39.127 26.383 58.688-39.577-58.688-39.576-39.126 26.384-19.562-13.193 39.126-26.384-58.69-39.58zM8.365-636.353l5.712 39.88 9.78 25.547-14.05 16.07-9.78-25.55-4.27 41.618 33.61 35.025-9.78-25.547 23.83 9.48 14.668 38.32 18.94-3.296-14.67-38.322 14.05-16.068 9.778 25.547 4.27-41.614-33.61-35.026 9.782 25.547-23.83-9.48-9.78-25.546-24.65-36.582zm626.988-455.022l-22.395 37.11-8.925 25.69-23.51 9.835 8.926-25.69-32.437 35.525 5.66 41.542 8.925-25.688 14.583 15.85-13.386 38.535 19.047 3.01 13.39-38.535 23.51-9.834-8.926 25.688 32.435-35.523-5.66-41.542-8.926 25.69-14.585-15.854 8.924-25.69 3.348-40.118zm-646.27 53.88c-3.124-13.027 9.203-27.737 24.65-29.42 15.45-1.687 34.023 9.654 37.147 22.68s-9.204 27.73-9.204 27.73l74.288 45.353-30.9 3.37L29.35-1001.8l-36.98 44.123-30.9 3.37 49.307-58.83s-18.57-11.336-21.695-24.36zm442.575-6.64c2.988-13.04 21.444-24.468 36.91-22.855 15.467 1.612 27.944 16.264 24.956 29.304s-21.442 24.462-21.442 24.462l49.914 58.6-30.933-3.226-37.436-43.95-55.363 34.277-30.933-3.224 73.82-45.702s-12.48-14.643-9.49-27.684zM613.112-915.86c0-32.77-166.513-59.365-371.685-59.365s-371.684 26.596-371.684 59.365v19.788c0-32.77 166.513-52.77 371.684-52.77s371.685 33.194 371.685 65.963v-32.98z" stroke="#000" stroke-width="1.197" fill="#fff133"/><path d="M566.93-657.28c0-44.007-150.8-79.724-336.61-79.724s-336.61 35.717-336.61 79.724v26.575c0-44.007 150.8-70.866 336.61-70.866s336.61 44.574 336.61 88.58v-44.29z" transform="matrix(1.105 0 0 .745 -16.106 -865.2)" stroke="#000" stroke-width="1.197" fill="#fff133"/><path d="M242.555-1611.225l-57.397 37.332 38.264 24.887-19.132 12.444-38.264-24.887-57.396 37.33 57.396 37.334 38.264-24.887 19.132 12.443v37.33h38.264v-37.33l19.133-12.444 38.262 24.887 57.396-37.332-57.397-37.33-38.263 24.89-19.134-12.445 38.265-24.887-57.395-37.332zm-385.48 39.193l5.61 37.616 9.58 24.094-13.732 15.163-9.58-24.093-4.153 39.258 32.893 33.025-9.58-24.094 23.312 8.93 14.37 36.143 18.523-3.118-14.37-36.142 13.733-15.16 9.58 24.093 4.154-39.257-32.893-33.027 9.58 24.093-23.31-8.932-9.58-24.093-24.134-34.5zm578.27 1042.685l-21.88 35.014-8.718 24.236-22.978 9.284 8.715-24.237-31.695 33.52 5.547 39.19 8.716-24.237 14.26 14.953-13.074 36.354 18.62 2.834 13.074-36.354 22.98-9.283-8.718 24.235 31.695-33.52-5.545-39.188-8.716 24.237-14.263-14.952 8.717-24.236 3.26-37.847zm-439.58-991.295c-3.054-12.287 9-26.163 24.11-27.752 15.11-1.59 33.273 9.108 36.328 21.395S47.2-1500.84 47.2-1500.84l72.656 42.78-30.22 3.18-54.49-32.087-36.165 41.62-30.22 3.18 48.224-55.494s-18.163-10.69-21.218-22.977zm432.825-6.248c2.922-12.3 20.97-23.08 36.097-21.558 15.126 1.52 27.33 15.34 24.406 27.64s-20.97 23.075-20.97 23.075l48.816 55.273-30.254-3.04-36.612-41.457-54.144 32.332-30.25-3.04 72.192-43.11s-12.205-13.814-9.282-26.114zm177.47 120.992c0-30.91-162.85-55.997-363.505-55.997s-363.506 25.087-363.506 55.997v18.665c0-30.91 162.847-49.774 363.504-49.774s363.505 31.31 363.505 62.218v-31.107z" stroke="#000" stroke-width="1.197" fill="#fff133"/><ellipse rx="375.87" ry="120.53" transform="matrix(.966 0 0 .414 12.936 -517.53)" cy="-822.11" cx="234.13" fill="#b90000"/></g><path d="M513.78-790.16l35.432-17.714 35.433 17.714s-73.366 35.433-73.366 159.45c-.003 88.58 125.26 106.3 125.26 212.6 0 45.65-34.185 88.582-69.618 88.582s-88.583-17.716-141.73-70.866c35.433 17.716 76.082 37.308 106.3 36.058 19.588-.405 55.025-17.716 55.025-53.15 0-70.865-122.77-106.92-122.77-213.22 0-124.02 50.025-159.45 50.026-159.45z" transform="matrix(.24 0 0 .199 381.891 336.17)" stroke="#000" stroke-width="1.197" fill="#fff"/><path d="M212.6-453.54c-35.433 0-70.866 35.433-70.866 70.866s35.433 70.866 70.866 70.866h194.88c35.433 0 70.866-35.433 70.866-70.866 0-37.027-35.433-70.866-70.866-70.866H212.6z" transform="matrix(.021 -.001 .009 .022 454.378 384)" stroke="#000" stroke-width="17.958" fill="#b00"/><path d="M520.25-790.16l46.683-17.717 10 17.717s-70.65 35.433-70.65 159.45c0 88.58 125.89 106.3 125.89 212.6 0 45.65-26.713 87.362-65.24 88.582-73.403 2.363-90.458-23.966-141.73-70.866 43.15 32.308 105 46.752 129.02 34.183 29.354-15.366 35.024-36.06 35.024-53.776 0-70.866-120.89-104.42-120.89-210.72 0-124.02 51.9-159.45 51.9-159.45zm-6.91.47c7.004-2.437 35.875-18.186 71.308 17.247 17.717 17.72 17.716 53.15 17.716 70.866l53.15-53.15s-29.066-86.87-107.62-53.59c-11.127 4.9-28.14 14.537-34.55 18.627zm10.46-6.25c8.84-2.87 36.676-6.325 64.596 18.5 17.717 17.72 18.966 42.934 18.966 60.65l40.65-37.932c3.44-3.21-24.832-81.252-99.24-54.034-4.5 1.807-14.78 6.302-24.972 12.816z" transform="matrix(.24 0 0 .199 381.891 336.17)" stroke="#000" stroke-width="1.197" fill="#fff"/><path d="M344.54-596.29l9.152 22.14s1.455-9.766 8.526-11.533l7.07-1.768s26.865 49.326 32.17 58.165c5.3 8.838-3.537 16.793-1.77 16.793 1.77 0 26.517-11.49 26.517-11.49s-10.606.882-15.026-6.19-34.82-59.933-34.82-59.933 6.186-2.652 11.49-5.303c5.303-2.652 10.606 7.955 10.606 7.955L385.2-613.97s0 8.84-4.42 10.607c-4.42 1.766-7.956 3.534-7.956 3.534s-3.535-6.186-7.955-13.257c-4.42-7.07 4.42-14.142 4.42-14.142l-22.983 11.49s7.955 4.42 10.607 8.84l5.303 8.84s-3.223 1.767-8.214 3.48c-3.59 1.876-7.696.055-9.464-1.713z" transform="matrix(.195 -.021 .067 .173 476.436 338.935)" stroke="#000" stroke-width="1.197" fill="#fff133"/><path d="M344.54-596.29l9.152 22.14s1.455-9.766 8.526-11.533l7.07-1.768s26.865 49.326 32.17 58.165c5.3 8.838-3.537 16.793-1.77 16.793 1.77 0 26.517-11.49 26.517-11.49s-10.606.882-15.026-6.19-34.82-59.933-34.82-59.933 6.186-2.652 11.49-5.303c5.303-2.652 10.606 7.955 10.606 7.955L385.2-613.97s0 8.84-4.42 10.607c-4.42 1.766-7.956 3.534-7.956 3.534s-3.535-6.186-7.955-13.257c-4.42-7.07 4.42-14.142 4.42-14.142l-22.983 11.49s7.955 4.42 10.607 8.84l5.303 8.84s-3.223 1.767-8.214 3.48c-3.59 1.876-7.696.055-9.464-1.713z" transform="matrix(-.178 .024 -.003 -.133 595.381 97.041)" stroke="#000" stroke-width="1.197" fill="#fff133"/><path d="M212.6-453.54c-35.433 0-70.866 35.433-70.866 70.866s35.433 70.866 70.866 70.866h194.88c35.433 0 70.866-35.433 70.866-70.866 0-37.027-35.433-70.866-70.866-70.866H212.6z" transform="matrix(.021 -.001 .009 .022 457.876 383.788)" stroke="#000" stroke-width="17.958" fill="#b00"/><path d="M212.6-453.54c-35.433 0-70.866 35.433-70.866 70.866s35.433 70.866 70.866 70.866h194.88c35.433 0 70.866-35.433 70.866-70.866 0-37.027-35.433-70.866-70.866-70.866H212.6z" transform="matrix(.035 -.001 .016 .022 452.669 386.727)" stroke="#000" stroke-width="17.958" fill="#b00"/><path d="M212.6-453.54c-35.433 0-70.866 35.433-70.866 70.866s35.433 70.866 70.866 70.866h194.88c35.433 0 70.866-35.433 70.866-70.866 0-37.027-35.433-70.866-70.866-70.866H212.6z" transform="matrix(.035 -.001 .016 .022 455.97 386.514)" stroke="#000" stroke-width="17.958" fill="#b00"/><path d="M212.6-453.54c-35.433 0-70.866 35.433-70.866 70.866s35.433 70.866 70.866 70.866h194.88c35.433 0 70.866-35.433 70.866-70.866 0-37.027-35.433-70.866-70.866-70.866H212.6z" transform="matrix(.043 -.001 .02 .022 451.35 389.865)" stroke="#000" stroke-width="17.958" fill="#b00"/><path d="M212.6-453.54c-35.433 0-70.866 35.433-70.866 70.866s35.433 70.866 70.866 70.866h194.88c35.433 0 70.866-35.433 70.866-70.866 0-37.027-35.433-70.866-70.866-70.866H212.6z" transform="matrix(.043 -.001 .02 .022 455.442 389.652)" stroke="#000" stroke-width="17.958" fill="#b00"/><path fill="#ffe000" d="M0 0h320v480H0z"/></g></svg>