<svg xmlns="http://www.w3.org/2000/svg" height="480" width="640" viewBox="0 0 640 480"><defs><clipPath id="a"><path fill-opacity=".67" d="M0 0h682.67v512H0z"/></clipPath></defs><g fill-rule="evenodd" clip-path="url(#a)"><path d="M0 0l325.702 205.71h394.275v68.57H325.702L0 479.98V-.002z"/><path d="M0 462.848l332.562-212.56h387.415v-20.57H332.562L0 17.148V48l311.99 191.99L0 431.99v30.854z" fill="#ff0"/><path d="M0 479.985l332.562-212.56h387.415v212.56H0z" fill="#40aa40"/><path d="M0 0l332.562 212.56h387.415V0H0z" fill="#ce0000"/><path d="M89.818 249.96c1.15.252 1.453.58 2.593-1.09.247-.84.96-2.018 1.583-3.06.83-1.365 1.196-1.913 1.978-.875.507.593 2.523-.5 3.36.073 1.292.86.515.735 1.574-.194.813-1.732.097-1.528-1.05-2.316-.805-.553-2.86.587-3.665.035.28-1.73.83-1.916 1.827-2.253.753.518 2.95-.393 3.628-.378.958.2 1.81.306 2.113-1.1.473-.998.267-.31-.113-1.035-.804-.552-2.86.588-3.665.035-1.047-.792-.874-1.086-.264-2.413.818-.45 1.426-.233 2.437.395 1.04.714 2.677-.673 3.59-.724.82-.932 1.787-1.243 1.176-2.38-.344-.864-.6-.96-1.727-1.184-1.15-.79-2.65.656-3.087-.525.913-1.307 1.253-1.03 2.36-.292.713.243 2.864-1.032 3.554-1.07 1.024-.296.528.857 1.25-1.692-.25-1.104-2.102.678-3.147.39-1.003.134-1.802-.22-1.896-1.302.015-1.453.735-1.552 1.77-1.337.908.162 2.96-.967 3.723-.95 1.087.576 1.43.36 2.286-.983.63-1.586-.07-.93-1.147-1.744-.806-.553-2.86.587-3.667.035.14-.586.395-1.298.944-1.584.793.157 1.475.12 2.474.74.98.43 2.6-1.465 3.44-2.1-.16-.904-1.766.382-2.743-.29-.618-.424-1.395-.87-1.59-1.41.555-1.582.285-1.503 1.807-.99.81-.21 2.182-.2 1.252-1.693-.15-.24-.95-.156-1.65-.494-.843-.58-1.654-1.163-2.548-1.432-.646-.1-1.582-.306-2.092-.16-.055.94.183 1.54.127 2.64.42.686 1.214.703 1.38.947-.843.74-1.3.362-2.19.41-1.058-.726-.45-2.98-1.7-2.443.287.662.183 3.164.72 3.683.566.39 1.287.768 1.416 1.292-.9 1.384-1.24 1.306-2.323.636-.904-.622-.62-2.657-1.394-2.553-.952.72-.968.686-.772 1.703.05 1.328-.48 3.178.586 3.91 1.282.907 1.444.8.435 2.53-.693.842-1.083.688-1.88.303-.857-.59-.67-2.76-1.334-3.47-1.256-.75-.53-.72-1.575.196-.322 1.178-.087 1.488.437 2.532.425.646.398 2.86 1.125 3.003 1.172.673 1.214.538-.12 1.833-1.047.04-1.497.328-2.3-.623-.976-.735-.366-3.002-1.606-3.015-1.147.092-1.397.122-1.25 1.69.197 1.38-.315 3.552.795 4.373 1.04.475 1.667.444 2.03 1.076-.32.283-.93 1.16-1.287 1.347-.727.05-1.477-.45-2.302-.623-.977-.45-.535-1.324-1.32-1.862-.903.294-.92-.972-1.4.314.186 1.054-.17 2.433.818 3.11.804.554 1.512 1.677 2.315 2.23.923 1.09.562 1.28-.007 2.865-.77.02-1.672-.51-2.51-1.087-.805-.552-.666-2.69-1.47-3.24-.696-.685-.494-1.27-1.574.194-.102 1.038.093 1.113.36 1.84.03 1.062-.253 3.016.72 3.686.985.198 2.046.712 2.82.978.74.87.095.7-.735 2.047-.523 1.35-.53 1.59-1.35 2.263-.713.95-.994 1.367-.352 2.63zm23.542 1.148c.69-1.12 1.113-1.31.032-3.19-.674-.595-1.47-1.823-2.18-2.9-.922-1.43-1.28-2.036-.014-2.45.746-.302.544-2.88 1.403-3.538 1.305-1.03.88-.253.45-1.75-1.266-1.556-1.364-.714-2.543.19-.828.633-.6 3.272-1.427 3.906-1.478-.99-1.43-1.65-1.342-2.842.776-.594.812-3.29 1.096-4.003.566-.937 1.003-1.8-.168-2.683-.727-.9-.18-.407-.994-.294-.828.634-.6 3.272-1.427 3.907-1.144.793-1.345.492-2.32-.687-.087-1.048.356-1.606 1.334-2.428 1.067-.82.446-3.112.762-4.102-.53-1.244-.43-2.396-1.718-2.2-.93.016-1.12.25-1.773 1.357-1.182.907-.45 3.076-1.71 3.07-.84-1.493-.446-1.743.67-2.626.508-.657.195-3.452.434-4.2.135-1.205.996-.217-1.056-2.004-1.114-.175-.216 2.504-.896 3.5-.276 1.118-.92 1.825-1.95 1.493-1.327-.597-1.132-1.402-.523-2.413.512-.9.29-3.532.61-4.335.962-.923.9-1.375.01-2.82-1.207-1.304-.884-.3-2.06.52-.827.634-.6 3.273-1.426 3.907-.482-.385-1.035-.94-1.078-1.636.46-.78.697-1.52 1.665-2.33.786-.872-.31-3.348-.56-4.494-.894-.19-.353 2.03-1.357 2.798-.638.488-1.355 1.134-1.928 1.124-1.232-1.22-1.267-.903-.192-2.315.13-.945.686-2.4-1.055-2.007-.282.06-.522.947-1.11 1.554-.87.664-1.727 1.294-2.33 2.134-.346.646-.912 1.558-.978 2.158.842.433 1.484.42 2.473.917.797-.17 1.128-1.006 1.418-1.085.346 1.192-.184 1.524-.493 2.488-1.09.834-2.916-.712-2.922.83.723-.04 2.98 1.07 3.67.708.58-.445 1.215-1.06 1.748-.99.914 1.513.706 1.844-.34 2.724-.93.712-2.684-.403-2.897.46.28 1.3.243 1.304 1.255 1.5 1.24.478 2.727 1.78 3.82.94 1.347-.996 1.313-1.212 2.5.55.496 1.076.2 1.43-.47 2.12-.883.675-2.8-.39-3.716.03-1.19 1.035-.874.273-.447 1.75.953.815 1.332.69 2.497.55.764-.193 2.785.72 3.206.007 1.083-.978.975-1.076 1.634.857-.38 1.13-.295 1.723-1.488 2.195-1.064.74-2.903-.81-3.408.5-.37 1.254-.442 1.53 1.055 2.004 1.347.34 3.135 1.753 4.332.902.847-.914 1.068-1.594 1.794-1.728.13.457.695 1.455.723 1.907-.24.793-1.002 1.388-1.488 2.194-.803.86-1.43.04-2.235.656-.09 1.08-1.26.592-.27 1.614 1.043.225 2.166 1.155 3.183.375.827-.633 2.14-.935 2.967-1.57 1.37-.543 1.4-.082 2.628 1.154-.287.824-1.135 1.57-1.997 2.23-.826.635-2.732-.367-3.56.267-.905.465-1.36.018-.447 1.75.912.52 1.06.346 1.834.352.986.39 2.667 1.473 3.668.706.574-.964 1.47-1.886 2.02-2.6 1.092-.44.68.177 1.587 1.597 1.03 1.093 1.25 1.195 1.54 2.337.59 1.135.86 1.602 2.274 1.424zm-21.478 43.74c0-4.988-.774-9.975 0-9.975 43.884 0 54.854-29.92 54.854-49.87 0-19.947-15.244-39.894-43.884-39.894-32.914 0-43.884 19.486-43.884 39.892 0 19.948 16.458 34.91 32.914 34.91 21.943 0 27.428-4.988 43.884-24.935-5.485 24.935-32.914 34.91-43.884 34.91-21.943 0-43.884-14.96-43.884-44.883 0-24.934 16.457-49.867 54.857-49.867 32.914 0 54.854 24.934 54.854 49.867 0 34.91-27.43 59.843-65.83 59.843z" fill="#ff0"/></g></svg>