<svg xmlns="http://www.w3.org/2000/svg" xmlns:xlink="http://www.w3.org/1999/xlink" height="512" width="512" viewBox="0 0 512 512"><path fill="#d0103a" d="M0 0h512v512H0z"/><path fill="#fedf00" d="M0 0h348.16v512H0z"/><path fill="#0018a8" d="M0 0h163.84v512H0z"/><path d="M240.317 173.302c6.17 0 8.694 5.293 14.863 5.293 3.81 0 6.03-1.244 9.35-3.117 2.316-1.31 3.794-2.01 6.454-2.01 2.723 0 4.393.823 5.786 3.157.787 1.32 1.44 3.906 1.094 5.39-.656 2.81-1.06 4.034-2.182 6.63-.534 1.25-1.038 1.996-1.038 3.363 0 3.274 4.456 4.4 7.486 4.446.66.01 6.216.102 9.634-3.36-1.855-.08-3.93-1.516-3.93-3.37 0-2.1 1.475-3.52 3.474-4.127.38-.108 1.027.227 1.37.047.49-.254.26-.804.695-1.147.995-.796 1.642-1.293 2.918-1.293.835 0 1.32.117 1.99.597.355.256.485.57.92.57.913 0 1.365-.58 2.28-.58.74 0 1.193.1 1.844.435.543.28.53 1.202 1.146 1.202.307 0 1.934-.663 2.784-.663 1.764 0 2.706.64 3.846 1.978.307.36.504 1.095.816 1.095.63 0 2.082.405 2.986 1.31.39.39.562.573.86 1.044.21.334.528 1.15.896 1.293.43.167.792.135 1.36.498 1.292.83 2.287 2.388 2.24 3.898-.015.506-.247 1.212-.384 1.694-1.506 5.266-5.09 6.937-8.708 11.46-1.54 1.927-2.752 3.465-2.752 5.935 0 .597.735 1.69 1.06 2.188-.198-1.16.332-2.586 1.56-2.653 1.68-.09 2.977 1.186 3.203 2.85.045.39-.1 1.062-.265 1.46.905-.597 2.097-1 3.183-1.128a9.9 9.9 0 0 1 1.525-.066c2.686.066 5.65 1.577 7.448 3.105 5.504 4.677 6.17 11.518 5.87 13.418-.67 4.223-.25 11.863-11.04 14.91 1.995.84 3.353 2.34 3.353 4.186 0 2.008-1.535 3.727-3.543 3.727-1.15 0-1.945-.282-2.75-1.087-2.244 2.244-2.68 4.533-2.68 7.708 0 1.9.363 3.024 1.16 4.74.84 1.82 1.447 2.888 2.967 4.2.805-1.212 1.656-2.1 3.112-2.1 1.41 0 2.606.454 3.185 1.738.17.39.018.706.217 1.086.253.49.678.597.94 1.086.408.75.01 1.392.362 2.17.226.507.723.58.94 1.085.344.78.435 1.31.435 2.17 0 2.407-2.19 4.126-4.596 4.126-.725 0-1.123-.29-1.847-.217 1.375 1.374 2.425 1.97 3.474 3.62 1.52 2.377 1.9 4.07 2.244 6.873.064.523.073.84.073 1.374 0 3.6-.56 5.753-2.17 8.974-1.54 3.085-2.85 4.795-5.646 6.803-4.36 3.14-7.536 4.044-12.81 5.066-3.384.65-5.32.94-8.758 1.157-4.398.28-6.904.29-11.29.58-5.756.388-9.745 1.202-13.825 5.283 1.927 1.41 3.256 2.794 3.256 5.173 0 2.443-1.51 4.19-3.834 4.958-.543.183-.94.02-1.448.29-.606.318-.58 1.015-1.158 1.376-1.024.652-1.82.797-3.04.797-2.155 0-3.62-.507-5.14-2.027-1.765 1.466-2.36 2.787-4.343 3.908-.652.363-.986.87-1.737.87-1.184 0-1.727-.75-2.677-1.45-1.51-1.1-2.316-1.834-3.547-3.254-1.8 1.076-2.904 1.954-4.993 1.954-1.285 0-2.1-.18-3.185-.87-.57-.352-.66-.876-1.23-1.23-.597-.37-1.095-.234-1.737-.506-2.413-1.04-3.98-2.832-3.98-5.464 0-2.307 1.46-3.772 3.548-4.74-4.008-4.008-7.952-4.705-13.607-5.067-4.37-.28-6.857-.29-11.22-.58-3.463-.234-5.39-.587-8.83-1.157-2.594-.425-4.132-.56-6.512-1.664-8.187-3.818-13.407-9.056-14.475-18.022-.09-.77-.072-1.212-.072-1.99 0-4.668 1.837-7.518 5.14-10.82-.85-.2-1.42.08-2.244-.217-2.063-.75-3.547-2.18-3.547-4.38 0-.813.036-1.356.434-2.062.28-.496.814-.596.94-1.157.163-.742-.054-1.266.29-1.954.226-.46.65-.55.868-1.013.717-1.483 1.613-2.677 3.26-2.677 1.41 0 2.315.74 3.04 1.953 1.374-.633 1.754-1.665 2.532-2.967 1.295-2.163 1.883-3.674 1.883-6.19 0-1.755-.172-2.787-.724-4.45-.4-1.195-.56-2.01-1.447-2.896-.805.806-1.602 1.086-2.75 1.086-2.3 0-4.054-1.972-4.054-4.27 0-1.71.84-2.976 2.39-3.69-1.24-1.068-2.318-1.16-3.693-2.027-2.09-1.32-2.824-2.714-4.2-4.777-.896-1.348-1.13-2.29-1.592-3.836-.552-1.864-.87-2.976-.87-4.92 0-.508.01-.806.073-1.304.516-3.926 1.22-6.387 3.69-9.48 1.467-1.838 2.46-2.97 4.634-3.91 1.845-.796 2.95-1.375 4.957-1.375.607 0 .96 0 1.558.073.922.117 1.51.2 2.315.65.308.173.87.69.87.327 0-.417-.218-.635-.218-1.05 0-1.665 1.194-3.185 2.86-3.185 1.202 0 1.69 1.058 2.28 2.1.38-.635.578-1.07.578-1.81 0-2.75-1.475-4.153-3.185-6.297-3.727-4.66-8.396-6.84-8.396-12.81 0-1.783.86-2.995 2.39-3.91.444-.26 1.04 0 1.474-.276.37-.237.33-.716.564-1.096.37-.588.7-.84 1.215-1.293.85-.74 1.597-.52 2.538-1.17.47-.325.58-.75.944-1.183 1.05-1.266 1.992-1.878 3.647-1.878.834 0 1.3.004 2.07.31.262.1.752.495.816.42.165-.2.615-.676 1.148-.93.697-.334.98-.464 1.758-.464.887 0 1.468.496 2.355.496.326 0 .4-.325.664-.497.787-.535 1.24-.836 2.2-.836.922 0 1.43.304 2.21.8.732.46.838 1.08 1.59 1.516.415.244.767.135 1.23.29 2.062.687 3.618 2.062 3.618 4.233 0 1.175-.28 2.017-1.158 2.786-.697.615-1.357.506-2.244.796 2.877 2.3 5.38 2.87 9.053 2.87 3.365 0 7.48-1.377 7.48-4.74 0-1.568-.866-2.41-1.48-3.847-1.105-2.56-1.703-4.066-1.703-6.853 0-2.207.24-3.546 1.525-5.338 1.322-1.845 2.935-2.276 5.206-2.276z" fill="#c7b37f"/><g stroke="#703d29" fill="none"><path d="M217.902 191.212c.22.835.897 1.618 1.956 1.95.637.198 2.11.118 3.065-1.116.774-1 .715-2.24.426-3.224-.19-.637-.705-1.252-1.384-1.776l-4.064 4.125v.044zm102.922 61.685c-.955-2.308-3.423-1.274-3.575 0-.35 2.935 2.22 3.822 4.05 3.344.907-.234 1.57-.805 1.995-1.55.478-.84.623-1.934.312-2.98a3.92 3.92 0 0 0-.68-1.32 3.978 3.978 0 0 0-1.023-.97c-.704-.45-1.472-.494-2.675-.494-4.46 0-8.36 5.268-9.67 10.74-.43 1.803-1.025 5.822-.203 9.634.876 4.06 2.63 6.87 4.69 9.002 1.114 1.155 2.634 2.183 4.602 3.296.606.343 2.21 1.055 3.326 1.374 1.143.327 2.2.28 3.152.072 2.64-.573 3.87-3.03 2.54-5.544-1.09-2.06-4.3-3.185-5.814-.558a2.6 2.6 0 0 0-.322 1.235c.008.7.3 1.545.8 1.863 1.15.732 2.988.525 2.903-1.505m-18.195 4.637c.896-1.053 2.95-2.632 5.297-2.92 2.383-.293 4.454.4 6.568 1.538 4.126 2.22 6.427 4.605 7.96 9.032.39 1.124.713 2.82.668 4.62-.07 2.868-.8 6.005-1.583 7.52-.682 1.324-2.468 7.166-12.26 11.198-5.714 2.352-14.49 2.895-20.54 3.134-8.323.328-16.002.636-20.46 6.13m36.43-30.842c-.24-.875-.018-1.715.677-2.667.928-1.272 2.906-1.71 4.697-.716.6.33 1.35.77 2.03 1.67.257.34.69.89.916 1.273.542.927.765 1.685.872 1.99 1.968 5.595-1.16 11.66-5.25 14.09-3.18 1.89-6.968 2.733-11.505 3.265-2.04.24-3.204.223-5.255.32-1.65.074-3.076.047-4.418.03-1.105-.013-2.153-.01-3.224-.032-1.75-.042-3.56-.083-5.773.078-2.33.17-4.082.23-6.05.558-1.286.214-2.794.42-4.374.775-.474.107-.955.194-1.438.34-.325.097-.646.197-.963.294-2.853.87-5.625 1.93-7.812 3.34-.676.434-1.44.87-1.985 1.386-.34.32-.754.642-1.087.97-1.53 1.506-3.097 3.137-3.463 5.345-.067.408-.067.835-.067 1.284 0 1.432 1.166 3.383 4.31 4.02M264.38 194.1c.66 1.19 1.02 1.914.638 3.145-.433 1.392-1.422 2.227-2.826 2.227-3.184 0-5.058-3.77-3.622-6.17 2.547-4.26 7.444-1.867 11.982.243-.22-1.092-.6-1.447-.562-2.8.1-3.36 2.592-4.886 3.587-7.99.593-1.85.828-3.456-.525-4.77-1.182-1.146-2.55-1.13-4.093-.525-3.084 1.208-6.785 4.68-13.3 4.775-6.514-.096-10.246-3.567-13.327-4.775-1.542-.604-2.91-.62-4.092.525-1.353 1.314-1.117 2.92-.524 4.77.995 3.105 3.487 4.63 3.586 7.99.04 1.353-.342 1.708-.56 2.8 4.537-2.11 9.624-4.716 11.98-.242 1.314 2.493-.437 6.17-3.622 6.17-1.402 0-2.39-.895-2.825-2.23-.39-1.188 0-2.228.637-3.144m4.736-2.208c1.23.94 2.1 2.1 1.954 3.98-.157 2.042-.65 2.534-2.243 3.62m1.915-3.038c-.072 1.23-.58 2.027-1.81 2.533"/><path d="M221.39 186.62l.556.397.597.637.398.796.2.677.04.876-.04.597-.2.676-.395.478-.478.517-.676.36-.876.2-.756.12-.796-.36-.715-.516-.438-.636-.32-.797v-.32l3.9-3.7z" fill="#c7b37f" stroke="none"/><path d="M220.165 189.732c-.245-1.322-1.79-1.593-2.388-.812-.922 1.202-.25 3.203 1.626 3.79.637.198 2.11.12 3.065-1.115.774-1 .715-2.24.426-3.224-.187-.634-.7-1.19-1.382-1.71-2.176-1.655-5.692-1.273-6.846 1.51-1.49 3.598 1.75 6.29 4.737 8.32 3.758 2.56 8.04 3.02 11.265 2.988 7.325-.08 12.897-3.582 16.52-5.572.844-.464 1.713-.37 2.15.16.492.595.484 1.557-.2 2.188m-50.688 92.693l-1.63.597-1.673 1.274-.716.995-.913 1.592-.398 1.195-.32 1.473-.16 1.114m15.207-8.08l-.12 1.432-.238.992-.717 1.712-1.115 1.473-1.194.954-.876.44-1.234.28m53.44 30.896c-.296 1.325-1.537 2.84-4.24 3.388l-.523.108m72.344-45.818c1.71 1.594 2.91 3.535 3.834 6.2.39 1.124.712 2.82.667 4.618-.07 2.87-.8 6.006-1.583 7.523-.682 1.323-2.468 7.165-12.26 11.196-5.714 2.356-14.49 2.898-20.54 3.137-8.204.324-15.78.628-20.266 5.896m36.764-33.255c.61-.83 2.825-1.88 4.617-.885.59.327 1.288.742 1.9 1.66m4.778-8.025c.4.154.8.293 1.15.393 1.144.33 2.22.356 3.152.076 2.264-.68 3.718-2.795 2.54-5.545-.274-.637-.797-1.25-1.39-1.706M192.225 223.81c-1.52.942-2.653 1.164-3.836 2.534-1.18 2.33-1.64 3.583-2.1 5.452m36.88-41.352c0 1.375-1.014 2.243-2.39 2.533m96.91 24.638c3.784-.077 14.777 2.888 14.855 15.81.077 12.76-7.876 14.845-11.063 15.695m-2.798-31.505c6.525-.283 13.257 4.52 13.554 16.505.23 9.364-6.41 13.61-9.596 14.46m-7.592 14.158l.1-1.28.426-2.036.603-1.582.675-1.307.88-1.055m6.227-2.718l-.1 1.253-.358.856-.557.813-.637.478-.973.36-.856.06-.635-.1m-11.45-42.25l.28-1.353.595-1.254.774-1.254 1.333-1.713 1.055-1.174 1.712-1.732 1.473-1.492.935-1.076 1.234-1.493 1.095-1.65.66-1.355.356-1.752.11-2.172-.2-.63m-9.82 102.54l1.294-.256.973-.518.538-.537.38-.618.26-.995.02-.697m-126.6-9.72l.956.08 1.234-.1 1.232-.437m4-29.238l-.16 1.114-.257.495-.378.477-.517.398-.578.26-.756.12-.517.04m7.92-12.495l-.28 1.73-.338.758-.697.955-.935.717-.954.477-1.85.458m12.237-31.806l-.358 1.035-.438.753-.597.836-.836.756-.995.478-.84.2-.517-.04m.304-4.958l.02.796m1.47 26.054a5.484 5.484 0 0 1-1.67 1.04m120.413 35.86c.07.074.3.11.38.16 1.134.676 3.367-.168 2.71-1.92m-7.032-22.703c.806 1.052 2.324 1.325 3.524 1.012.908-.237 1.57-.808 1.995-1.552.48-.84.623-1.936.313-2.982a3.925 3.925 0 0 0-.68-1.32c-.34-.45-.763-.926-1.09-1.14-.088-.057-.174-.134-.266-.197m5.14 27.214a3.15 3.15 0 0 0 .052-.576c0-.926-.388-1.775-1.03-2.347-.218-.196-.43-.5-.695-.632m.384.377c-.038-1.49-1.258-2.558-2.77-2.823m-3.34 2.27c-.346-.284-.72-.525-1.044-.865-1.96-2.05-3.434-5.08-3.454-8.54-.02-3.314 1.314-6.687 2.866-8m-45.2 67.72l1.433-1.315.995-.757 1.87-1.154 1.753-.836 1.234-.318 2.468-.56 2.866-.438m-23.605 15.492c-1.035 1.593-3.503 3.98-6.09 4.936-2.588-.955-5.056-3.343-6.09-4.936m1.77-3.312c-.324 1.202-.914 2.368-1.775 3.303m2.03-4.972l-.357 1.75m-1.87 3.344l-.755.756-1.354.757-1.552.477m-4.514-142.263c.194-.605.392-1.06.363-2.055-.096-3.364-2.59-4.888-3.583-7.99-.593-1.85-.83-3.46.525-4.77 1.18-1.15 2.55-1.13 4.093-.527 3.08 1.207 6.814 4.678 13.33 4.774-6.516-.097-10.25-3.568-13.33-4.775-1.542-.605-3.038-.782-4.22.365-1.353 1.314-.99 3.08-.397 4.93.995 3.104 3.36 4.628 3.46 7.99.028.994-.234 1.45-.428 2.054m14.892-10.79c6.41-.337 11.902-4.643 13.674-4.994 1.58-.314 2.462-.172 3.62.88-1.158-1.052-2.478-1.02-3.978-.432-3.08 1.208-6.782 4.68-13.297 4.775m63.68 90.307c-2.666-1.91-4.95-5.558-4.975-9.868-.018-3.316 1.314-6.688 2.866-8m-55.96 78.06c-1.035 1.59-3.503 3.98-6.09 4.934-2.59-.955-5.056-3.344-6.09-4.936m-4.205-138.248c.667-.37 1.285-.72 1.856-1.035.847-.463 1.86-.366 2.298.162.492.596.568 1.63-.116 2.26m-13.606 3.093c4.397-.92 7.98-2.888 10.688-4.403m25.816 131.347c.365.248.598.764.598.764.1.24.23.467.267.68.207 1.217-.592 1.976-1.578 2.09-1.356.16-2.374-.647-2.807-1.622m-33.21-129.082c4.397-.918 7.98-2.887 10.688-4.402m78.062 85.523c-.835.322-1.293.278-2.333-.183-.427-.19-.915-.483-1.488-.81-2.04-1.156-4.46-2.98-6.73-7.24a15.05 15.05 0 0 1-1.368-3.58c-.217-.888-.367-1.766-.4-2.668-.055-1.536.11-3.14.494-4.977.633-3.034 1.395-4.68 3.264-7.245.92-1.26 1.713-2.03 3.425-2.07M204.2 220.1c1.424 1.208 2.11 2.705 2.11 4.576 0 2.48-2.073 6.528-7.168 7.96-1.953.55-3.885.108-5.054-.603m10.948-3.538c.915.637 1.273 1.352 1.273 2.596 0 .855-.554 1.96-1.49 3.007-1.536 1.713-4.14 3.17-7.024 3.205-1.565.02-3.19-.307-4.824-1.4-1.747-1.17-2.667-2.746-3.065-4.3m15.047 2.234c1.037.953 1.355 2.146 1.355 3.65 0 2.196-.895 3.89-2.946 5.686-.46.402-.976.778-1.553 1.116m103.546-17.66v2.824m-.225-3.522v3.98m.226-12.597v5.215m-.225-6.368v7.127m-1.52 65.568c-.988 1.964-1.778 2.995-3.344 4.538-1.58 1.557-2.674 2.27-4.657 3.264-1.93.968-3.15 1.276-5.256 1.752-2.105.472-3.337.576-5.493.673-1.976.09-3.1.007-5.073-.13-2.113-.146-3.285-.44-5.395-.626-1.743-.154-2.727-.295-4.477-.29-1.798.004-2.83.015-4.6.33-1.65.29-2.586.524-4.14 1.153-2.148.87-4.577 2.39-5.094 3.066-.517-.676-2.945-2.194-5.095-3.065-1.553-.63-2.49-.86-4.14-1.152-1.77-.315-2.8-.326-4.6-.33-1.75-.006-2.733.136-4.476.29-2.11.184-3.283.48-5.396.625-1.975.137-3.096.22-5.074.13-2.154-.097-3.386-.2-5.49-.676-2.108-.478-3.323-.787-5.256-1.753-1.984-.992-3.077-1.707-4.657-3.264-.17-.17-.332-.33-.486-.49m33.737 42.7l1.433-.178m24.217-1.885l1.446-.137 1.378-.552.967-.585 1.31-1.55.274-.585.207-1.344.07-.62m37.528-109.356c.62-2.113-.137-4.343-2.185-4.283m-105.562 37.25c-.518 1.756-1.635 2.955-2.877 3.735m2.915-37.372c-.51 1.48-1.448 2.536-2.93 3.205-1.478.667-3.19.044-4.103-.662m-4.186 5.214c1.225.642 2.468-.298 2.213-1.892-.12-.746-.927-1.69-2.016-1.758m4.88 71.06c.265.25.32.57.678.637.538.1.956.3 1.493-.415.662-.883.306-2.257-.383-3.122-.737-.924-2.874-1.742-4.665-.747-.6.333-1.35.77-2.03 1.672-.257.34-.692.89-.916 1.274-.54.927-.762 1.685-.87 1.99-1.64 4.658.308 9.556 3.32 12.54m75.424 19.13c.327.34.517.637.517.637.104.236.186.463.22.676.21 1.218-.59 1.977-1.576 2.09-1.356.16-2.263-.64-2.697-1.615m42.915-140.243c2.677.326 5.01 2.88 5.01 5.628 0 3.542-1.194 4.862-3.06 7.396-1.996 2.715-8.518 7.686-8.518 13.338 0 3.423.955 5.613 3.423 6.727 1.592.72 3.452-.06 4.3-.824 2.07-1.87 1.242-5.152-.916-5.544-2.624-.478-3.12 3.658-.554 3.383m14.26 55.25c-.237-1.42-1.44-2.5-2.893-2.5-1.62 0-2.933 1.344-2.933 3.004 0 .813.313 1.55.825 2.092M307.092 220.1c-1.423 1.208-2.11 2.705-2.11 4.576 0 2.48 2.074 6.528 7.17 7.96 1.952.55 3.818.5 4.986-.212m-124.826-8.27c-1.217.406-2.738 1.166-3.865 2.762-.95 1.346-1.505 3.218-1.848 4.856-.15.717-.33 2.986.126 5.33.34 1.73 1.054 3.342 1.844 4.51.285.417.54.7.83.988.266.265.643.5.91.703m51.21 73.635c3.88 1.72 6.723 3.008 9.134 6.815.756 1.194.956 2.906.956 3.9 0 2.15-.876 4.58-2.668 6.09-1.662 1.405-3.304 1.832-5.334 1.633-1.54-.15-2.985-1.273-3.224-2.07m-37.18-90.004c2.19 1.712 3.104 3.373 3.104 6.01 0 3.026-1.473 4.897-3.185 5.972m-1.913-2.146c3.265 4.06 4.997 6.47 5.096 11.305.093 4.538-1.353 7.643-4.06 10.907m61.552-75.89c.593-.39 1.03-1.013 1.278-1.784.386-1.19.394-2.206-.243-3.12.786 1.027.858 1.895.637 3.143-.14.792-.647 1.21-1.278 1.78m41.165 68.93v12.923h.034c0 .01-.002 1.223-.105 1.99-.07.504-.14.958-.22 1.384m.067-17.54v13.938h.034c0 .01-.005 1.223-.108 1.99-.11.8-.224 1.478-.374 2.112m.448-34.357v11.623m.225-10.707v9.453m0-21.477v7.087m-.225-7.92v8.736m.225-15.146v2.748m-.225-3.308v3.983m-1.475 52.154c-.085.18-.175.364-.27.555-.99 1.964-1.78 2.995-3.345 4.538-1.58 1.557-2.675 2.27-4.657 3.264-1.932.968-3.148 1.276-5.255 1.752-2.106.475-3.337.58-5.493.676-1.978.09-3.1.006-5.074-.13-2.113-.146-3.285-.44-5.395-.626-1.743-.153-2.727-.294-4.477-.29-1.795.005-2.825.016-4.596.33-1.65.292-2.587.525-4.14 1.154-2.15.87-4.578 2.388-5.095 3.065-.52-.677-2.947-2.194-5.097-3.065-1.552-.63-2.488-.862-4.14-1.154-1.77-.314-2.8-.325-4.598-.33-1.75-.005-2.734.137-4.477.29-2.11.185-3.282.48-5.395.626-1.975.136-3.096.22-5.074.13-2.157-.097-3.39-.2-5.494-.676-2.107-.478-3.322-.786-5.255-1.752-1.983-.992-3.076-1.707-4.656-3.264-.826-.815-1.437-1.488-1.974-2.23m-1.613-2.55c.34 2.53-.723 5.016-1.804 6.16-.676.717-2.15 2.086-3.98 2.11-3.026.04-3.93-2.04-4.112-2.547m6.303-7.035a8.23 8.23 0 0 1 1.48 2.03c.757 1.433.524 3.83-.075 4.937a3.73 3.73 0 0 1-.243.383m-16.195 14.41c1.8 1.888 4.52 3.94 8.7 5.66 5.714 2.352 14.49 2.894 20.54 3.133 8.046.32 15.46.65 19.973 5.634m13.89-3.258c1.33 1.31 2.688 2.71 3.26 4.505m-5.875 9.16a6.91 6.91 0 0 1-.554.53c-1.662 1.402-3.304 1.83-5.334 1.63-1.54-.15-3.025-1.304-3.423-2.06m-4.282-2.326c.074.102.152.2.234.295.963 1.125 2.49 1.83 4.08 1.962m21.5-.06c-1.036 1.592-3.505 3.98-6.09 4.936-2.59-.956-5.057-3.344-6.09-4.936l-.244-.372m12.463.362c.184.2.382.39.592.567 1.662 1.403 3.304 1.83 5.334 1.63 1.54-.152 2.762-1.18 3.256-2.07 0 0 .277-.3.354-.583m-.514.13l-.594.956-.904.75-1.37.567-1.24.052m7.323-11.422c.733.56 1.452 1.41 1.843 2.32.25.584.367 1.227.403 1.893a4.684 4.684 0 0 1-1.138 3.315c-1.023 1.19-2.618 1.912-4.315 1.98a4.386 4.386 0 0 1-.376 0m.148-.228c-1.624.066-3.074-.63-4.144-1.727m50.942-54.295c-1.268-1.167-2.58-2.785-3.845-5.16a15.042 15.042 0 0 1-1.368-3.58c-.217-.888-.367-1.766-.4-2.667-.054-1.534.11-3.14.494-4.975.636-3.033 1.766-5.38 3.268-7.245.51-.636 1.103-1.43 1.664-1.786M316.52 191.4c2.03.16 3.91 2.346 3.887 4.488-.036 3.112-1.08 4.398-3.528 7.447-2.11 2.627-8.44 7.245-8.28 11.663.027.785.45 1.596.922 2.248m-2.53 2.77c.45.445.994.81 1.642 1.104 1.158.523 2.458.254 3.407-.227m-16.94-34.576c.68.463 1.375 1.173 1.75 2.08 1.49 3.594-1.75 6.29-4.736 8.32-2.14 1.454-4.452 2.232-6.64 2.625m6.206-6.098c-.723-.007-1.583-.213-2.518-1.198-.215-.226-.467-.526-.566-.795m-11.886 3.925c-.378-.19-.784-.465-1.056-.77-.71-.793-1.183-1.868-.636-3.508.506-1.517 2.942-5.773 3.062-8.718.182-4.5-1.55-7.157-4.256-8.193m4.028 7.183l-.106 1.693-.458 1.728-.88 2.365-.67 1.516-.706 1.516-.352 1.057-.14.776.105.74m30.41 101.02c.14.34.477.67.477.67.518.864 2.53 2.384 4.36 2.408 3.025.04 3.744-2.078 3.82-2.548.383-2.31-.406-2.94-1.59-3.59 0 0-.698-.364-1.534-.224m-121.03-6.816c-1.068.272-2.07.28-2.948.016-2.265-.68-4.1-2.85-3.164-5.545m10.71-25.456c.226.227.3.567.334.855.35 2.934-2.222 3.79-4.053 3.31-.907-.236-1.988-1.08-2.412-1.822a3.765 3.765 0 0 1-.493-1.843m17.648-18.934c.457.423.776.89.988 1.413m-.908-6.812c.426.296.73.67.935 1.046m.095 2.71c-.247.61-.674 1.27-1.244 1.905-1.535 1.716-4.138 3.17-7.023 3.208-1.565.02-3.19-.308-4.824-1.4-1.75-1.17-2.89-2.83-3.268-4.463m14.412-11.438c.886.753 1.567 1.713 1.894 2.71m.026 3.653c-.708 2.343-2.82 5.24-6.898 6.272-1.947.493-4.455-.124-5.31-.852m-2.026-5.967c.214 2.11 1.626 3.69 4.302 3.74 3.763.072 6.05-5.412 2.707-9.263m-15.478 23.904c.55.69 1.197 1.31 1.86 1.862 1.34 1.116 2.923 2.1 4.746 2.638m4.222.394c3.364-.404 5.26-2.91 4.884-5.842-.286-2.234-2.336-3.95-3.73-4.05m4.336-24.94c1.46-.053 2.288 1.27 2.275 2.39m-2.618-22.413a9.19 9.19 0 0 0 4.024 4.658m115.345 24.773c1.376 1.884.475 5.598-3.266 5.668-1.46.03-2.78-.78-3.553-2.01m-6.73-28.254v12.64m-110.352 13.928c1.155.835 2.637-.576 2.064-2.074-.39-1.01-1.828-2.102-3.818-.75-2.198 1.496-1.592 6.21 2.627 6.29 3.763.07 6.05-5.413 2.707-9.263-3.217-3.704-9.076-2.838-12.897.203-1.624 1.293-4.696 4.682-5.65 9.3-.298 1.437-.49 2.617-.468 4.06.016.95.104 2.015.39 3.343.574 2.683 1.518 4.65 2.46 6.014.36.523.69.958 1.042 1.31.655.656.85 1.003 1.512 1.553 2.163 1.8 4.95 3.21 8.36 3.065 3.74-.16 5.89-2.786 5.493-5.89-.388-3.01-3.427-4.51-5.416-3.106-1.353.952-1.835 3.91.557 4.614 1.355.4 2.55-1.313 1.594-2.308m103.648-57.56c2.16-1.172 3.824-.955 5.055.754 1.338 1.858 1.53 4.33 1.234 5.777-.437 2.15-1.06 3.042-2.767 4.602m1.692-10.174c2.468-1.632 5.14-.94 6.608 1.234 1.075 1.592 1.35 2.924 1.274 4.896-.13 3.38-2.245 6.058-4.578 7.364m8.317-7.8c2.03.158 3.662 1.996 3.662 4.14 0 3.064-.858 4.394-3.306 7.443-2.11 2.627-8.44 7.245-8.28 11.663.06 1.67 1.47 3.245 2.684 3.333m5.48 7.964c-1.154.835-2.627-.514-1.99-1.947.44-.99 1.75-2.23 3.742-.876 2.198 1.498 1.592 6.21-2.628 6.29-3.763.07-6.306-5.27-2.707-9.26 3.286-3.644 9.378-2.93 13.2.11 1.625 1.292 4.896 4.845 5.598 9.51.85 5.64.74 12.58-5.088 16.854-2.343 1.718-5.59 2.5-8.456 2.374-3.744-.164-5.894-2.787-5.496-5.892.386-3.01 3.285-4.284 5.414-3.105 2.21 1.225 1.824 4.335-.558 4.618-1.4.166-2.548-1.314-1.593-2.31m-1.43-18.31c.62-2.793 3.012-3.053 4.944-3.024 5.275.077 8.92 6.33 8.98 12.38.078 7.64-3.242 12.14-8.826 12.378-1.445.062-3.935-.625-3.977-2.388m2.125-20.594c5.56 1.234 7.51 6.243 7.51 11.023 0 3.9-.385 9.227-7.973 11.1m9.632 31.472a3.125 3.125 0 1 0-5.01 1.874m-6.142-6.61c1.047 1.55 2.313 3.278 4.988 4.73m-1.004 8.438c-2.62-1.72-7.597-3.974-12.095-1.755-1.67.823-2.79 1.84-3.42 3.502-1.137 2.99.133 6.284 1.43 7.653.673.717 2.15 2.086 3.98 2.11 3.022.04 3.742-2.077 3.82-2.547.36-2.19-.917-3.063-1.594-3.3-.52-.185-2.207-.138-2.566 1.056-.12.398-.14 1.092.18 1.61m-36.9 33.712c.835 1.712-.116 2.572-1.275 2.707-1.71.2-2.627-1.155-2.747-2.39-.193-2 1.493-3.813 3.504-3.78 1.81.03 3.284 1.197 3.975 2.804.25.58.367 1.223.403 1.89a4.682 4.682 0 0 1-1.138 3.314c-1.023 1.19-2.618 1.912-4.315 1.98-3.38.136-6.01-3.025-6.01-6.25 0-6.17 9.15-9.534 12.777-10.4 4.458-1.064 7.17-1.462 14.33-1.86 2.866-.16 4.965-.078 8.12-.406 2.825-.293 4.3-.43 7.206-1.108 3.626-.844 7.006-2.348 10.03-5.095 2.33-2.115 3.663-3.622 4.742-6.528.93-2.508 1.358-7.474-1-11.147-2.082-3.246-4.975-4.932-8.28-5.41-2.983-.43-5.6.857-7.164 3.818-.756 1.434-.523 3.83.076 4.937.517.956 1.995 2.365 3.825 2.39 3.022.04 3.74-2.08 3.82-2.55.36-2.188-.917-3.064-1.594-3.303-.52-.183-2.208-.136-2.566 1.058-.12.398-.14 1.092.18 1.61m-39.507 23.918c-3.88 1.72-6.723 3.008-9.134 6.815-.76 1.194-.958 2.906-.958 3.9 0 2.15.876 4.58 2.667 6.09 1.662 1.405 3.304 1.832 5.334 1.633 1.54-.15 2.986-1.273 3.224-2.07m37.178-90.004c-1.815.606-3.105 3.373-3.105 6.01 0 3.026 1.476 4.897 3.187 5.972m1.91-2.146c-3.264 4.06-4.996 6.47-5.095 11.305-.093 4.538 1.354 7.643 4.06 10.907m-16.362-89.71l.28-.414c1.353-1.99 3.743-2.514 5.493-1.194 2.11 1.593 2.643 4.302 2.07 7.165-.358 1.792-1.573 3.284-3.238 4.363m-85.205-10.892c-2.07-.955-3.773-.77-5.055.753-1.473 1.754-1.53 4.33-1.234 5.778.44 2.15 1.06 3.042 2.77 4.602m-1.697-10.174c-2.468-1.632-5.14-.94-6.608 1.234-1.074 1.592-1.35 2.924-1.273 4.896.13 3.38 2.244 6.058 4.577 7.364m-3.82-11.313c-2.675.326-4.812 2.595-4.812 5.34 0 3.544.873 4.977 2.863 7.684 1.998 2.716 8.52 7.686 8.52 13.338 0 3.423-.954 5.613-3.422 6.727-1.59.72-3.452-.06-4.3-.824-2.07-1.87-1.24-5.152.916-5.544 2.628-.478 3.12 3.658.558 3.383m-4.822-26.59c-2.03.158-4.027 1.905-4.027 4.048 0 3.065 1.22 4.486 3.67 7.534 2.11 2.628 8.07 7.154 7.91 11.573-.06 1.67-1.183 3.713-2.297 3.474m-10.032 34.947c.955-2.308 3.423-1.274 3.575 0 .35 2.935-2.225 3.822-4.056 3.344-.907-.234-1.57-.805-1.994-1.55-.48-.84-.622-1.934-.312-2.98.14-.475.34-.875.678-1.32a3.98 3.98 0 0 1 1.024-.97c.704-.45 1.47-.494 2.674-.494 4.46 0 8.36 5.268 9.67 10.74.43 1.803 1.025 5.822.203 9.634-.877 4.06-2.632 6.87-4.69 9.002-1.116 1.155-2.636 2.183-4.604 3.296-.607.343-2.212 1.055-3.326 1.374-1.145.327-2.22.352-3.153.072-2.264-.68-3.718-2.795-2.54-5.544.918-2.14 4.3-3.185 5.812-.558.128.223.327.71.32 1.235-.007.7-.298 1.545-.798 1.863-1.15.732-2.99.525-2.904-1.505m.96 1.78c.835.322 1.292.278 2.332-.183.427-.19.916-.483 1.488-.81 2.038-1.156 4.46-2.98 6.728-7.24a15.1 15.1 0 0 0 1.368-3.58c.216-.888.366-1.766.4-2.668.054-1.536-.11-3.14-.495-4.977-.633-3.034-1.395-4.68-3.264-7.245-.916-1.26-1.71-2.03-3.42-2.07m-7.56 24.723a3.125 3.125 0 1 1 5.013 1.874m-3.798-4.983c.235-1.418 1.44-2.498 2.89-2.498 1.62 0 2.934 1.342 2.934 3.002a3.04 3.04 0 0 1-.83 2.092m.708-2.756c2.667-1.91 4.952-5.558 4.976-9.868.018-3.315-1.314-6.687-2.866-8m2.124 16.4c-1.046 1.55-2.312 3.278-4.987 4.73m12.935 6.687c-.743-1.746-2.218-2.553-4.62-2.81-2.386-.254-4.453.402-6.567 1.54-4.127 2.22-6.428 4.605-7.96 9.032-.39 1.12-.714 2.815-.67 4.615.073 2.87.8 6.006 1.584 7.523.683 1.32 2.468 7.164 12.26 11.195 5.715 2.353 14.49 2.895 20.54 3.134 8.324.327 16.003.636 20.46 6.13m-46.963-38.61c2.62-1.72 7.597-3.973 12.095-1.754 1.666.823 2.784 1.84 3.415 3.502 1.137 2.99-.134 6.284-1.427 7.653-.678.717-2.15 2.086-3.98 2.11-3.027.04-3.746-2.077-3.823-2.547-.36-2.19.915-3.063 1.592-3.3.52-.185 2.207-.138 2.565 1.056.12.398.14 1.092-.178 1.61m.164-.444c.24-.875.116-1.795-.676-2.667-.796-.875-2.906-1.71-4.698-.716-.6.33-1.35.77-2.03 1.67-.257.34-.69.89-.915 1.273-.545.927-.768 1.685-.875 1.99-1.97 5.595 1.235 11.536 5.25 14.09 3.504 2.23 7.086 2.867 11.505 3.265 2.046.184 3.204.223 5.255.32 1.65.074 3.077.047 4.42.03 1.104-.013 2.152-.01 3.223-.032 1.748-.042 3.557-.083 5.77.078 2.33.17 4.083.23 6.052.558 1.286.214 2.794.42 4.374.775.474.107.955.194 1.438.34.325.097.645.197.963.294 2.853.87 5.625 1.93 7.812 3.34.675.434 1.453.855 1.984 1.386.41.406.756.642 1.09.97 1.53 1.506 3.096 3.137 3.463 5.345.067.408.067.835.067 1.284 0 1.432-1.166 3.383-4.31 4.02m-12.42-3.456c-.837 1.712.114 2.572 1.273 2.707 1.712.2 2.627-1.155 2.747-2.39.194-2-1.493-3.813-3.503-3.78-1.81.03-3.284 1.197-3.976 2.804-.25.58-.364 1.223-.4 1.89a4.683 4.683 0 0 0 1.138 3.314c1.023 1.19 2.618 1.912 4.316 1.98 3.38.136 6.01-3.025 6.01-6.25 0-6.17-9.15-9.534-12.778-10.4-4.458-1.064-7.17-1.462-14.33-1.86-2.866-.16-4.965-.078-8.12-.406-2.824-.293-4.3-.43-7.206-1.108-3.627-.844-7.007-2.348-10.03-5.095-2.33-2.115-3.664-3.622-4.743-6.528-.93-2.508-1.358-7.474 1-11.147 2.082-3.246 4.975-4.932 8.28-5.41 2.984-.43 5.6.857 7.165 3.818.757 1.434.524 3.83-.075 4.937-.518.956-1.996 2.365-3.826 2.39-3.024.04-3.743-2.08-3.82-2.55-.36-2.188.915-3.064 1.59-3.303.52-.183 2.21-.136 2.568 1.058.12.398.14 1.092-.177 1.61m16.6-107.38a97.004 97.004 0 0 0-.282-.414c-1.353-1.99-3.743-2.514-5.493-1.194-2.11 1.593-2.642 4.302-2.07 7.165.358 1.792 1.574 3.284 3.238 4.363m79.393-3.883c-3.224 3.503-6.448 4.622-11.265 4.777-1.5.05-4.376-.477-6.05-1.668-1.072-.765-2.27-2.074-1.51-4.343.505-1.516 2.942-5.77 3.06-8.717.18-4.5-1.55-6.967-4.256-7.922-5.004-1.766-10.376 3.18-13.613 4.26-1.692.563-2.554.63-4.1.636-1.545-.006-2.44-.073-4.13-.637-3.24-1.08-8.61-6.025-13.614-4.26-2.707.956-4.438 3.422-4.256 7.923.117 2.945 2.554 7.2 3.06 8.717.756 2.27-.44 3.578-1.513 4.343-1.672 1.19-4.547 1.717-6.05 1.668-4.817-.155-8.042-1.274-11.266-4.777m19.975 123.853c.638.25.155-.15 4.196 1.64 3.88 1.72 6.635 3.226 9.046 7.033.757 1.194.955 2.906.955 3.9 0 .643-.077 1.31-.234 1.968m-13.7 2.76a6.41 6.41 0 0 0 2.602.66c3.38.136 6.01-3.025 6.01-6.25 0-2.234-1.217-4.117-2.92-5.63m-4.96 5.123c-.816 1.82.347 2.803 1.506 2.938 1.71.2 2.675-1.152 2.794-2.386.13-1.342-.586-2.647-1.678-3.32m70.6-136.127c2.57 0 4.81 2.86 4.81 5.795 0 3.382-1.8 5.452-3.117 7.017-1.06 1.26-2.21 2.384-3.575 3.76m-1.165-19.28c.874.403 1.64 1.088 2.225 1.954 1.075 1.593 1.348 2.925 1.274 4.896-.128 3.38-2.56 5.72-4.734 7.148m-3.818-13.998c.177.15.348.323.512.518 1.473 1.752 1.587 4.34 1.234 5.776-.53 2.157-1.243 3.087-2.994 4.377m-4.052-11.556c2.11 1.592 2.737 4.346 2.038 7.182-.5 2.025-1.773 3.24-3.36 4.207m8.9 32.863c.252.74.67.998 1.194 1.548 1.14 1.195 2.814 2.224 4.927 2.818 1.95.55 3.71.138 5.05-.7m-130.4 43.228c.992-.018 1.98.65 2.628 1.775a2.6 2.6 0 0 1 .322 1.234c-.008.7-.315 1.45-.815 1.765-1.15.732-3.19.417-3.106-1.613m7.133-29.515c3.944.736 7.74 5.493 8.984 10.683.43 1.802 1.024 5.822.202 9.633-.878 4.06-2.63 6.87-4.69 9.003-.49.506-1.057.987-1.704 1.462l-.84.57m-6.342-9.708c1.62 0 3.038 1.55 3.038 3.21 0 .814-.315 1.55-.827 2.092m-3.305-3.42c1.687 0 3.293 1.627 3.293 3.353a3.12 3.12 0 0 1-1.185 2.45m13.364-22.775c1.55 2.08 2.573 3.872 3.05 6.18m-.055 6.79a13.815 13.815 0 0 1-1.16 3.236c-.65 1.296-1.787 2.738-2.842 3.714m1.253-32.044c1.494 1.168 2.395 2.377 2.816 3.824m.04-7.715c-.392 1.362-1.282 2.393-2.695 3.683m-7.326-13.744l1.725-.454 1.02-.77.66-.932.565-1.452.227-1.18m-7.69-1.284c-.543.136-1.233.338-1.957.682-.97.462-1.998 1.18-2.82 2.343-.95 1.346-1.503 3.22-1.846 4.856-.15.717-.33 2.986.126 5.33.338 1.73 1.053 3.342 1.844 4.51.284.417.54.78.83 1.068 1.036 1.038 1.99 1.675 3.583 1.356m9.902-27.736c-.28 1.026-.832 2.3-2.445 2.16m-3.45 4.812c-1.547-1.513-4.826-1.907-8.087.155-.42.265-.838.606-1.253.952-.45.37-.807.8-1.153 1.27-.376.506-.837 1.37-1.116 1.944-.382.79-.54 1.31-.752 2.12-.596 2.28-.593 4.4-.523 5.005.09.775.164 1.487.29 2.14.433 2.24 1.095 3.81 1.78 4.945.72 1.195 2.512 3.938 6.174 4.3 1.44.142 3.896-.518 3.976-2.39m95.134-53.61c.245-1.322 1.838-1.577 2.437-.796.92 1.2.312 3.264-1.563 3.85-.637.2-2.11.12-3.065-1.114-.777-1-.718-2.24-.43-3.224.188-.638.7-1.193 1.383-1.712 2.176-1.655 5.692-1.273 6.846 1.513 1.49 3.595-1.75 6.29-4.737 8.32-3.758 2.556-8.04 3.02-11.265 2.985-7.327-.08-12.9-3.583-16.52-5.573-.846-.464-1.715-.37-2.15.16-.495.595-.487 1.557.197 2.188m30.34-7.837c.776.036.984.34 1.222.65.922 1.2.248 3.267-1.626 3.852m14.27 41.235c-2.79 3.037-.223 8.25 1.863 9.43.722.56 1.03.264 1.608.602"/><path d="M306.5 228.347c-.917.637-1.24 1.352-1.275 2.596-.03 1.04.15 2.195 1.128 3.21 1.52 1.584 4.498 2.962 7.383 3 1.565.018 3.19-.31 4.824-1.402 1.747-1.166 2.667-2.744 3.065-4.296m-16.688 49.43c0 .01-.005 1.223-.108 1.99-.306 2.234-.66 3.52-1.675 5.534-.99 1.963-1.778 2.994-3.344 4.538-1.58 1.557-2.674 2.27-4.657 3.264-1.93.966-3.147 1.273-5.254 1.75-2.106.475-3.337.58-5.493.676-1.978.09-3.1.006-5.074-.13-2.113-.147-3.285-.44-5.396-.626-1.742-.152-2.727-.293-4.476-.29-1.797.006-2.83.017-4.6.33-1.65.293-2.585.525-4.14 1.155-2.15.87-4.576 2.388-5.094 3.065-.517-.677-2.946-2.195-5.095-3.065-1.552-.63-2.49-.862-4.14-1.155-1.77-.313-2.8-.324-4.6-.33-1.75-.004-2.732.138-4.475.29-2.11.186-3.282.48-5.395.627-1.973.136-3.095.22-5.072.13-2.156-.098-3.388-.2-5.493-.677-2.107-.476-3.324-.783-5.255-1.75-1.984-.995-3.08-1.708-4.658-3.265-1.566-1.544-2.356-2.575-3.344-4.538-1.013-2.014-1.37-3.3-1.672-5.534-.104-.767-.108-1.98-.108-1.99v-81.418h98.585v81.418h.035z"/><g fill="#c7b37f" stroke="#c7b37f"><path d="M198.354 292.516a2 2 0 1 1 4 0 2 2 0 0 1-4 0zM186.07 278.38c0-.99.634-1.792 1.414-1.792.78 0 1.413.802 1.413 1.792s-.632 1.79-1.413 1.79c-.78 0-1.413-.8-1.413-1.79z"/><path d="M193.05 242.872c0-.812.61-1.47 1.364-1.47.754 0 1.364.658 1.364 1.47 0 .813-.61 1.47-1.364 1.47-.753 0-1.364-.657-1.364-1.47zm24.504-52.505c-.086-.815.403-1.535 1.093-1.607.69-.072 1.32.53 1.405 1.345.086.815-.403 1.535-1.093 1.607-.69.072-1.32-.53-1.408-1.345z" stroke="none"/></g><path d="M191.447 251.156a1.79 1.79 0 0 0-.677.466c-.21.222-.254.303-.418.665-.12.265-.15.572-.195.95m3.773 21.4c.278-.337.446-.518.713-.864.222-.287.354-.446.55-.752.175-.273.254-.44.41-.73.218-.406.327-.643.537-1.055m-1.012 11.15c-.473.217-.753.313-1.214.557-.35.187-.54.305-.876.515a13.92 13.92 0 0 0-.995.67c-.393.287-.595.475-.975.78m11.972-30.313c-.257-.264-.396-.418-.658-.677-.274-.27-.423-.43-.717-.676-.285-.24-.466-.35-.764-.575m2.45-8.712c-.38.17-.58.303-.974.434-.453.15-.76.226-1.198.246m-11.226-13.885c.13.464.16.74.334 1.19.22.565.405.86.74 1.366.35.525.57.816 1.02 1.258.396.388.647.583 1.11.887.44.286.727.386 1.19.634m-.79-4.687c.39.208.59.365.996.534.368.154.586.218.975.307.526.12.834.15 1.373.163.584.016.757 0 1.493-.117m5.737-32.526c-.64-.373-1.03-.536-1.637-.956-.618-.424-.96-.685-1.497-1.21-.387-.38-.605-.6-.927-1.036-.29-.388-.4-.643-.656-1.055m6-3.64c.2.533.257.86.513 1.37.347.695.616 1.06 1.138 1.633.725.795 1.338 1.02 2.194 1.672m1.16-4.734c.2.48.26.78.51 1.235.22.404.374.62.665.975.37.453.613.69 1.075 1.053.54.422.92.547 1.506.896" stroke="#c7b37f" stroke-width=".505" stroke-linecap="round"/><path d="M266.64 185.298c-.042-1.356-1.378-1.497-1.89-1.497-1.477 0-1.877.924-3.72 1.914-2.31 1.24-3.305 1.516-5.358 1.535-2.053-.02-3.075-.296-5.385-1.536-1.843-.99-2.153-1.882-3.63-1.882-.802 0-1.838.694-1.8 1.964 0 0-.014.41.05.69.022.104.15.07.19.163-.02-.617.106-.936.41-1.35.39-.53 1.036-.672 1.3-.672 1.477 0 2.024.948 3.867 1.937 2.31 1.24 3.304 1.516 5.358 1.535 2.053-.02 3.075-.295 5.385-1.536 1.843-.99 2.373-2.016 3.85-2.016.512 0 .874.33 1.04.853.105.32.046.537.073.664.013.062.09.056.106.123.05-.24.17-.324.153-.887z" fill="#703d29"/></g><path d="M211.517 299.223c.415-.447.73-.278.806-.484.057-.155-.066-.17-.235-.234-.226-.084-.465-.133-.69-.217-.234-.087-.446-.207-.68-.295-.096-.036-.32-.15-.383.02-.117.313.82.286.506 1.128-.05.143-.184.45-.65.96l-2.12 2.307c-.05.055-.127.17-.175.15-.048-.02-.042-.16-.043-.23l.03-3.272c.004-.62.057-1.08.158-1.35.14-.375.573-.06.663-.302.058-.152.015-.158-.243-.255-.13-.046-.376-.1-.89-.29-.275-.102-.535-.24-.8-.34-.122-.045-.345-.21-.425.005-.023.063.062.156.083.174.297.212.372.352.38.752l.057 5.96c.005.43.052.55.132.58.09.03.15-.007.325-.207l4.2-4.558zm2.473.922c.273-.866.785-.344.883-.654.034-.106 0-.14-.247-.215-.467-.147-.774-.204-1.07-.297-.286-.09-.595-.228-.914-.328-.074-.025-.27-.117-.32.04-.1.317.907.354.646 1.183l-1.38 4.373c-.272.865-.788.442-.888.76-.015.047-.02.116.055.14.214.066.578.14.93.252.64.202.932.334 1.235.43.19.06.274.046.306-.054.09-.292-.96-.162-.606-1.283l1.37-4.344zm2.96.875c.163-.55.418-.474.723-.383.833.246 1.093 1.06.828 1.958-.16.54-.36 1.04-1.612.668-.247-.073-.552-.164-.484-.393l.548-1.85zm-2.27 3.94c-.342 1.155-.92.655-1.007.948-.054.183.127.207.217.233.413.126.836.21 1.28.34.347.105.56.208.7.25.188.056.27.02.295-.062.098-.33-.83-.196-.54-1.176l.47-1.584c.095-.32.065-.4.502-.27.412.122.536.25.606.708l.264 1.652c.098.607.19 1.262.842 1.455.33.1.93.06 1.014-.225.022-.074-.01-.143-.085-.165-.083-.026-.18.004-.264-.02-.066-.02-.222-.066-.253-.234-.252-1.33-.56-2.867-.543-2.92.03-.093.293-.105.594-.245.304-.15.644-.417.817-1.003.127-.423.345-1.763-1.46-2.298-.553-.164-1.124-.293-1.676-.457-.52-.154-.575-.21-.954-.322-.1-.03-.196-.008-.223.084-.098.33.9.256.597 1.28l-1.193 4.03zm6.74 1.974c-.266 1.105-1.103.433-1.19.795-.05.2.095.226.245.262.335.08.62.11 1.18.244.56.134.827.238 1.16.318.244.058.404.126.457-.097.063-.26-1.072-.248-.797-1.39l1.008-4.2c.107-.445.2-.472.544-.39l.71.17c.97.195.456 1.162.79 1.242.218.05.213-.333.223-.45l.113-.875c.014-.095.045-.225-.08-.255-.778-.186-1.347-.283-2.567-.576-1.22-.293-1.772-.465-2.55-.65-.125-.032-.156.098-.187.19l-.43 1.193c-.047.116-.146.308.03.35.376.09.417-1.186 1.362-.96l.702.17c.343.08.415.148.308.594l-1.034 4.31zm10.158-2.59c.33-.513.668-.4.71-.618.028-.16-.095-.153-.273-.186-.237-.044-.48-.05-.717-.094-.245-.046-.475-.127-.72-.172-.1-.02-.34-.093-.374.086-.06.328.857.14.693 1.022-.028.15-.106.476-.476 1.058l-1.684 2.64c-.038.062-.096.187-.147.178-.05-.01-.07-.15-.08-.22l-.54-3.227c-.106-.61-.134-1.07-.08-1.353.07-.395.552-.16.6-.413.03-.16-.015-.158-.285-.21-.136-.024-.388-.03-.93-.132-.286-.052-.567-.143-.846-.195-.127-.023-.376-.147-.417.078-.012.066.088.143.112.157.33.157.428.282.504.675l1.09 5.857c.08.423.147.532.23.548.094.018.147-.03.285-.258l3.346-5.22zm.476 5.38c.004.233-.017.307.186.4.47.204.866.503 1.383.59 1.11.185 2.03-.523 2.238-1.757.2-1.197-.29-1.696-1.122-2.29-1.043-.746-1.49-.947-1.384-1.578.106-.634.547-.928 1.107-.835 1.46.244 1.29 2.018 1.487 2.05.187.032.23-.077.25-.287l.117-1.28c.02-.22.07-.356-.06-.377-.11-.017-.346.098-.456.08-.255-.04-.55-.47-1.245-.586-.992-.166-1.803.512-1.984 1.596-.166.99.272 1.44.942 1.92 1.255.9 1.77 1.11 1.635 1.91-.127.755-.71 1.12-1.372 1.01-.942-.156-1.324-1.1-1.444-2.05-.013-.13-.016-.217-.152-.24-.212-.035-.173.252-.17.39l.048 1.333zm12.656-3.568c.276-.544.624-.47.64-.688.014-.162-.11-.143-.29-.157-.24-.016-.482.004-.722-.015-.248-.02-.485-.077-.734-.097-.102-.008-.35-.056-.363.125-.023.334.87.05.8.945-.012.153-.056.485-.363 1.103l-1.402 2.803c-.03.065-.076.195-.127.19-.052-.004-.084-.14-.105-.208l-.87-3.154c-.17-.597-.246-1.053-.224-1.34.03-.4.534-.216.554-.473.014-.162-.03-.155-.304-.177-.138-.01-.39.007-.938-.036-.293-.023-.58-.084-.864-.107-.128-.01-.388-.107-.406.122-.006.064.102.13.126.142.344.124.456.238.573.62l1.7 5.71c.12.413.2.515.285.522.094.007.142-.047.256-.287l2.78-5.54zm1.357 4.628c-.008.974-.832.795-.835 1.177 0 .166.17.12.265.12.232 0 .465-.034.74-.032.3.006.593.044 1.014.048.115 0 .33.012.33-.122.004-.45-1.102.19-1.086-1.643l.03-3.25c0-.083.017-.15.07-.15.042 0 .093.05.152.126l4.092 5.003c.06.076.102.134.223.135.103 0 .104-.076.105-.286l.047-5.36c.01-1 .74-.767.74-1.053 0-.03.003-.125-.16-.126-.077 0-.38.036-.92.03-.594-.005-.843-.044-.98-.045-.112 0-.14.094-.14.16-.002.316 1.048.153 1.04 1.022l-.027 3.18c-.002.24-.02.355-.072.354-.05 0-.153-.115-.263-.25l-3.42-4.242c-.153-.183-.05-.25-.324-.25-.456-.007-.68.03-.903.03-.164 0-.32-.042-.482-.044-.102 0-.146.075-.147.16-.004.46.965-.153.95 1.68l-.033 3.63zm8.325-4.3c.008-.908.65-.56.653-.884 0-.114-.042-.134-.3-.136-.49-.005-.8.03-1.11.03-.3 0-.635-.045-.97-.048-.078 0-.292-.03-.294.13 0 .336.926.077.92.946l.007 4.585c-.008.907-.625.654-.628.988 0 .048.015.115.093.115.224.006.594-.032.964-.03.67.006.988.047 1.306.05.198 0 .276-.035.277-.14 0-.306-.965.125-.955-1.05l.04-4.556zm3.605 4.438c.01 1.137-.966.687-.962 1.06.002.21.147.2.302.197.344-.008.627-.046 1.203-.05.576-.006.86.03 1.204.026.25 0 .422.026.42-.204-.003-.267-1.1.02-1.11-1.156l-.038-4.317c-.004-.46.08-.507.434-.51l.73-.006c.99-.047.723 1.016 1.067 1.013.223 0 .125-.374.107-.488l-.102-.88c-.01-.095-.01-.23-.14-.227-.8.007-1.375.05-2.63.06-1.255.01-1.83-.022-2.63-.014-.13 0-.13.133-.137.23l-.126 1.26c-.02.126-.07.336.112.335.387-.006.118-1.253 1.09-1.26l.72-.01c.354-.004.44.045.444.504l.04 4.43zm5.007-1.807c-.154.012-.273.03-.28-.064-.01-.13.032-.24.066-.36l.527-1.734c.034-.11.068-.12.085-.122.043-.005.017 0 .075.07l.838 1.67c.052.11.112.21.122.344.007.095-.113.095-.267.107l-1.166.092zm1.472.402c.223-.018.273.074.614.794.115.25.188.42.205.63.046.58-.57.523-.55.8.01.133.12.105.275.093.25-.02.563-.082.94-.11.566-.046.8-.026 1.11-.05.23-.018.31-.006.296-.168-.025-.314-.458.094-.786-.56l-2.773-5.647c-.134-.277-.152-.295-.23-.29-.11.01-.14.195-.187.352l-1.87 5.943c-.172.55-.613.528-.596.747.01.124.145.094.265.085.246-.02.49-.077.75-.098.273-.02.533-.005.81-.025.18-.015.45.03.432-.17-.02-.256-.934-.03-.988-.717-.018-.228.076-.57.12-.766.15-.646.326-.698.472-.71l1.688-.134zm6.644-3.96c-.087-.654-.054-.668.977-.804 1.646-.216 1.127.98 1.527.927.196-.026.113-.333.088-.455l-.158-.933c-.01-.086-.083-.172-.194-.158-.75.1-1.333.214-1.938.294-1.305.172-1.923.214-2.273.26-.12.016-.18.1-.17.186.05.38.974-.05 1.086.802l.584 4.432c.153 1.155-.562.73-.505 1.165.008.057.065.097.176.083.47-.062.824-.147 1.088-.182.375-.05.695-.053 1.02-.095.212-.03.396-.017.37-.207-.032-.255-.964.108-1.103-.943l-.184-1.4c-.07-.55-.12-.66.273-.71l.63-.084c.887-.116.78.92 1.053.883.205-.03.11-.36.084-.485l-.284-1.678c-.042-.256-.133-.224-.193-.217-.17.024-.08.898-.814.995l-.54.07c-.366.05-.374-.017-.43-.425l-.173-1.325zm3.143 2.17c.353 1.907 1.73 2.964 3.43 2.65 2.695-.5 2.784-2.898 2.54-4.213-.368-1.99-1.852-2.97-3.497-2.645-2.017.39-2.854 2.15-2.473 4.205zm.94-.728c-.252-1.365-.07-2.74 1.354-3.03 1.087-.22 2.32.675 2.705 2.75.29 1.56.05 2.907-1.4 3.204-1.508.31-2.404-1.555-2.658-2.927zm6.667-3.33c-.132-.556.127-.62.436-.693.844-.202 1.478.373 1.696 1.283.132.55.206 1.08-1.064 1.387-.25.06-.56.135-.616-.097l-.45-1.878zm.006 4.55c.28 1.17-.47 1.025-.398 1.322.044.186.213.116.305.094.418-.1.827-.238 1.28-.346.35-.082.584-.1.726-.134.19-.046.243-.118.223-.2-.08-.335-.816.244-1.055-.75l-.387-1.607c-.077-.327-.143-.38.3-.486.418-.1.59-.053.88.31l1.055 1.298c.388.477.797.998 1.457.84.334-.08.837-.418.768-.706-.017-.074-.08-.118-.156-.1-.083.02-.154.096-.237.117-.067.015-.226.054-.337-.077-.882-1.026-1.916-2.202-1.93-2.258-.02-.094.2-.236.392-.507.19-.28.35-.682.206-1.277-.102-.427-.584-1.697-2.415-1.257-.56.134-1.12.308-1.68.442-.526.126-.602.105-.987.197-.1.024-.172.09-.15.184.08.335.91-.228 1.16.813l.98 4.087zm6.897-1.543c.285 1.1-.77.9-.677 1.26.052.204.19.158.34.12.334-.087.6-.195 1.157-.34.558-.143.842-.177 1.175-.264.24-.062.415-.077.357-.3-.067-.258-1.063.286-1.357-.852l-1.08-4.18c-.116-.443-.044-.51.297-.6l.707-.182c.948-.287.947.81 1.28.723.216-.055.032-.392-.014-.5l-.31-.826c-.034-.09-.067-.22-.192-.188-.774.2-1.322.38-2.537.695-1.22.315-1.786.423-2.56.623-.125.032-.09.162-.076.256l.183 1.255c.013.125.016.34.19.296.375-.096-.188-1.243.753-1.486l.7-.18c.34-.09.436-.064.55.38l1.11 4.29zm4.397-5.868c-.24-.875.472-.716.385-1.03-.03-.11-.077-.116-.326-.05-.475.133-.76.253-1.06.335-.29.08-.624.134-.947.223-.075.02-.29.05-.246.205.088.322.953-.195 1.185.643l1.225 4.417c.243.875-.42.8-.33 1.123.012.046.047.106.12.085.216-.06.562-.194.92-.293.645-.18.962-.227 1.268-.31.19-.055.255-.113.227-.214-.082-.295-.892.386-1.206-.746l-1.22-4.39zm1.834 2.134c.615 1.84 2.125 2.694 3.764 2.146 2.6-.87 2.356-3.254 1.93-4.523-.64-1.92-2.247-2.682-3.83-2.132-1.943.67-2.528 2.527-1.864 4.51zm.83-.852c-.44-1.313-.45-2.7.92-3.188 1.045-.37 2.39.348 3.06 2.35.504 1.504.453 2.87-.94 3.367-1.45.516-2.597-1.205-3.04-2.53zm6.103-4.333c-.21-.535.038-.633.334-.75.81-.318 1.518.163 1.86 1.034.207.525.355 1.04-.86 1.52-.24.095-.536.21-.624-.012l-.707-1.795zm.637 4.5c.44 1.12-.323 1.082-.21 1.367.07.177.227.085.315.05.4-.158.783-.35 1.215-.52.336-.133.566-.183.702-.237.183-.07.226-.15.194-.23-.125-.32-.773.358-1.15-.593l-.603-1.538c-.123-.31-.196-.356.228-.52.4-.16.576-.137.914.18l1.224 1.14c.45.42.928.88 1.56.63.32-.126.77-.53.662-.805-.03-.07-.098-.106-.17-.077-.08.03-.14.115-.22.146-.063.026-.215.086-.343-.028-1.017-.893-2.205-1.914-2.226-1.967-.034-.09.167-.26.318-.557.148-.305.25-.725.027-1.294-.162-.41-.815-1.6-2.567-.91-.536.21-1.066.46-1.602.67-.504.2-.582.19-.95.334-.096.038-.158.114-.123.203.127.32.87-.353 1.26.643l1.54 3.91z" fill="#703d29"/><g fill="#fedf00" transform="matrix(.512 0 0 .512 0 76.8)"><path d="M412.66 249.25h82.18v82.023h-82.18z" fill="#d52b1e"/><path id="a" d="M451.2 313.83s-.048 2.93-.855 5.287c-.933 2.72-.94 2.72-1.796 4.043-1.155 1.78-2.56 3.082-3.81 3.887-1.96 1.258-3.95 1.888-5.95 1.71-5.49-.486-8.04-6.44-9.284-11.273-1.32-5.13-5.073-7.923-7.463-6.064-1.4 1.09-1.48 2.914-.31 4.665 1.243 1.866 4.098 2.8 4.098 2.8l-2.932 3.73s-6.303-.82-7.536-7.392c-.466-2.488.742-7.134 4.89-8.522 5.298-1.77 8.687 2.007 10.32 5.194 2.245 4.384 3.21 12.434 9.43 11.19 3.383-.677 4.975-5.598 4.975-7.852l2.466-2.643 3.654 1.166.1.078z" fill="#fff"/><use height="100%" width="100%" xlink:href="#a" transform="matrix(-1 0 0 1 907.52 0)"/><path d="M461.12 278.95l10.76-11.643s1.624-1.31 1.61-3.4l-2.22.344-.496-1.14-.11-1.146 2.98-.63c.05-.484.008-.85.093-1.384.08-.495.19-.76.31-1.245l-3.264.218c.166-.57.128-.875.31-1.406.155-.447.198-.618.504-1.103.606-.09 1.158-.228 1.907-.304.728-.074 1.143-.04 1.873-.086 1.78-3.32 9.19-6.373 14.454-.904 3.81 3.958 2.99 11.22-1.95 13.14-2.796 1.087-5.05.444-6.86-1.11l1.97-3.867c2.72 1.625 4.977-.396 4.82-2.495-.195-2.654-1.92-4.297-4.352-4.51-2.254-.197-3.872 1.093-4.898 3.11-.627 1.23-.337 2.134-.545 3.5-.226 1.482-.1 2.31-.537 3.81-.32 1.087-1.155 2.433-2.37 3.59l-11.03 11.936-42.94 46.445-3.228-2.986 43.21-46.737z"/><path d="M429.51 283.04s2.7 13.372 11.874 33.43c4.665-1.71 7.42-2.798 12.362-2.798 4.943 0 7.697.933 12.362 2.8 9.174-20.06 11.874-33.432 11.874-33.432l-24.236-31.177-24.236 31.177z" fill="#fff"/><path d="M456.12 262.41l16.82 21.637s-2.243 10.52-9.078 26.354c-2.646-.6-4.916-1.125-7.733-1.316l-.01-46.67zm-4.74 0l-16.82 21.637s2.243 10.52 9.078 26.354c2.646-.6 4.916-1.125 7.733-1.316l.01-46.67z"/></g><g fill="#d52b1e"><path d="M257.843 204.416h42.076v41.996h-42.08z" fill="#fedf00"/><path d="M263.736 204.416h6.274v41.996h-6.274zm12.022 0h6.274v41.996h-6.274zm12.022 0h6.273v41.996h-6.273z"/></g><g fill="#d52b1e" stroke="#d52b1e" stroke-width=".513"><path d="M211.44 282.834c.12.756.39 2.054 1.108 3.384.756 1.194.477 1.16 2.19 3.072.842.94 2.157 1.746 3.188 2.3 1.034.56 1.8.832 3.502 1.28 3.337.875 5.68.93 8.486.817 2.19-.087 3.863-.357 5.248-.543 1.975-.266 3.446-.424 5.692-.518a32.348 32.348 0 0 1 3.145 0c1.23.068 2.445.26 3.74.518 2.785.557 5.612 1.632 5.612 1.632l.006-43.856-42.083-.01v29.973s.086 1.464.163 1.95z" fill="#fedf00" stroke="none"/><path d="M216.325 290.524l1.972 1.148 2.703.972-.003-41.742h-4.673zm23.378 1.9l.006-41.523h-4.685v42.19s3.204-.41 4.676-.506zm9.34-41.518h-4.667v41.667a30.94 30.94 0 0 1 4.675.86l-.006-42.528zm-18.683 0v42.665c-.047.008-3.125.164-4.698 0v-42.655z"/></g><g transform="matrix(.512 0 0 .512 0 76.8)"><path d="M585.48 402.39c-.233 1.477-.76 4.012-2.163 6.608-1.477 2.333-.932 2.27-4.275 6-1.646 1.838-4.214 3.412-6.228 4.496-2.02 1.09-3.516 1.623-6.84 2.495-6.52 1.71-11.092 1.815-16.575 1.596-4.28-.17-7.547-.698-10.25-1.062-3.86-.518-6.73-.827-11.12-1.01-2.133-.09-4.15-.11-6.14 0-2.408.132-4.784.505-7.31 1.01-5.44 1.09-11.034 3.188-11.034 3.188l.057-85.655 82.193-.024v58.543s-.168 2.86-.318 3.81z" fill="#fedf00"/><g id="b"><path d="M524.62 346.91s-.366.175-.594.28c-.298.33-.447.52-.78.814-.444.39-.77.503-1.25.843-.23.164-.42.216-.595.438-.25.32-.076.63-.25 1-.183.405-.366.597-.653.938-.366.434-.65.61-1.063 1-.418.395-.587.726-1.093 1-.134.072-.2.142-.344.187-.216.067-.35-.01-.563.062-.388.134-.51.563-.78.72.11.217.106.37.218.593.16.323.706 1.215.813 1.437.21.305.27.7.532.78.537.17.858.155 1.312.126.792.182 1.28.158 2.03.47.614.253.864.574 1.47.843.474.21.772.34 1.28.44.388.074.61.13 1 .094.25-.024.378-.12.626-.156.05-.01.08 0 .125 0l-.03.375c-.006 0 .004.03 0 .032v.062h.062l2.06.906a1.72 1.72 0 0 0-.187.375c-.098.32-.114.69-.063.844.63 1.888 1.16 3.068 1.47 3.188.615.236.806.865 1.156 1.5-.123.132-.227.2-.344.312-.614.59-1.152 1.008-1.656 1.812-.745 1.188-1.248 1.203-.312 2.78.55.926.814 1.1 1.53 2.407.363.658.563 1.17.782 1.968.207.752.278 1.19.313 1.97l.965.374.657-.656.625-1.187.03-.907c-.24-.202-.308-.473-.25-.78.07-.37.514-.29.72-.626.282-.46-.333-.734-.658-1.093-.606-.67-1.43-.832-1.626-1.843-.052-.272.078-.426.375-.72.855-.84 1.13-.97 1.97-1.81.24.14.61.193.967.125.28-.052.53.126 1.406.376.61.174.873.087 1.22.03l.374-.092c.05.21.11.415.125.687.053 1.062-.155 2.996.156 3.5.13.214.186.333.28.564.1.24.215.395.22.655.01.696.047 1.14 0 1.875-.044.69-.103 1.042-.22 1.75-.073.45-.164.714-.436 1.062-.283.364-.595.418-.97.688l-.092 1 1.125.47 1.28.31.688-.28c0-.254.04-.4.156-.625.13-.247.232-.44.47-.53.362-.144.76.128.905-.095.16-.242.06-.338.032-.75-.047-.662-.185-.99-.283-1.657-.164-1.11-.21-1.686-.156-2.75.03-.616.04-.956.156-1.562.172-.882.486-1.31.688-2.187.225-.977.265-1.606.375-2.468 3.17.452 5.806.397 9.343-.375.17-.037.75-.25.75-.25.8.69 1.706 1.264 2.718 1.625-.005.1-.014.845 0 .968.038.288-.04.482.126.72.106.15.197.24.375.28.263.06.455.023.657-.156.225-.2.183-.454.25-.75.03-.14.006-.564 0-.687.365.055.49.062.874.062.358 0 .53.014.876-.03.004.08.02.368.03.467.027.244-.076.434.03.656.112.23.25.36.5.408a.66.66 0 0 0 .532-.094c.295-.185.263-.498.312-.844.015-.11.01-.693 0-.782.212-.067.827-.292 1.03-.375a5.12 5.12 0 0 1-.093.81c-.07.377-.12.58-.25.94-.207.567-.44.855-.75 1.374-.377.634-.573.985-1.03 1.562-.213.266-.36.386-.564.657-.257.337-.343.566-.595.906-.323.437-.51.723-.937 1.06-.692.55-1.15.11-2.092.845l-.22 1.03 1.438.53 1.282.25.437-.25c-.01-.3.033-.513.22-.75.213-.27.44-.35.78-.406.362-.06.748.033 1.032-.22.35-.31.35-.913.624-1.47.86-1.722 1.62-2.56 3-3.904.614-.596 1.14-.757 1.658-1.437.247-.323.52-.47.53-.876.01-.284-.142-.416-.217-.688-.103-.377-.186-1-.186-1 1.52.744.97.646 1.25 1.406.224.615-.034 1.04.06 1.687.112.755.467 1.113.532 1.874.078.905-.143 1.42-.312 2.313-.15.786-.13 1.278-.47 2-.32.69-.57 1.078-1.155 1.563-.21.175-.37.25-.594.407l-.124 1.03 1.125.376 1.626.437.375-.343c.164-.655-.055-1.617.406-1.688.406-.063.693 0 .782-.313.035-.132.057-.326.092-.625.22-1.886.422-3.646.625-4.5.23-.968.215-1.178.407-1.907.175-.664-.086-.282.406-1.687.734-2.096-.208-2.374-1.063-3.655-.462-.693-.622-.944-.687-1.5-.097-.817.164-1.495.125-2.75-.04-1.32-.022-2.16 0-2.875.116-.053.223-.12.345-.188 1.17-.642 1.635-.836 2.374-2.47a3.43 3.43 0 0 0 .312-1.467c-.005-.332-.065-.652-.094-1.032-.03-.4-.19-.636-.313-.936-.13-.318-.325-.56-.563-.844-.772-.924-1.78-1.132-2.718-1.47-1.485-.53-2.506-.433-4.126-.56-1.673-.133-2.607-.16-4.282-.063-2.006.114-3.128.52-5.125.75-1.914.222-2.976.37-4.905.406-2.26.042-4.42-.46-5.78-.344-2.45.21-2.493.76-6.188 1.062a66.916 66.916 0 0 1-3.844.187l-2.158-.688c.857-.306 1.067-.488 1.47-1.03.27-.367.232-.68.562-1.064.266-.31.443-.62.78-.97a2.2 2.2 0 0 0-.937-.435c-.363-.076-.573-.042-.937 0-.494.056-.772.124-1.22.344-.358.176-.623.356-.843.592 0 0-1.285-.83-2.187-1.22-1.12-.484-1.6-.71-3-.906zm1.97 11.906h.06c-.01.01-.018.022-.03.03l-.03-.03z" fill="#d52b1e"/><g stroke="#fedf00" stroke-width=".987" stroke-linecap="round" fill="none"><path d="M568.77 359.52l-.763.244c-.867.402-1.578.418-2.6.496-2.644.202-4.272-1.057-6.998-.847-1.407.108-2.028 1.19-3.46 1.548a9.247 9.247 0 0 1-1.704.285l.512-1.034s-1.285.26-2.116.264a7.55 7.55 0 0 1-1.523-.13l1.02-.95s-.816-.133-1.296-.336a3.918 3.918 0 0 1-1.06-.63 20.484 20.484 0 0 0 1.69-.353c1.556-.385 2.04-1.147 3.89-1.325 1.15-.113 3.032-.048 7.643.715 3.035.502 4.38.267 5.535-.258.76-.345 1.01-1.01 1.103-1.788.092-.778-.404-1.406-.874-1.81-.122-.108-.443-.337-1.112-.365"/><path d="M524.8 350.61c-.53-.066-.884.01-1.34.29-.48.298-.54.7-.888 1.145.445.1.7.36 1.142.253.347-.084.527-.238.76-.507.317-.36.433-.674.43-1.154l-.104-.024z" fill="#fcd900"/><path d="M536.04 363.79s.264.48.407.8c.248.554.376.878.524 1.467.2.8.117 1.284.244 2.098.022.143.05.263.076.376l-.05 1.13m6.8-6.95s-.22.813-.354 1.334c-.352 1.353-.676 2.087-.944 3.46-.045.23-.078.442-.103.644m-10.86-3.977c.79.177.543 3.36 1.79 4.09m26.55 1.52l.384-.25a8.154 8.154 0 0 0 2.686-1.79m-10.81.28h.007c3.533-.883 5.885-2.648 7.58-2.87m-3.997-1.54c.3-.01.585-.033.83-.068 1.467-.21 1.703.687 2.725 1.258 1.857 1.04 2.098 2.307 4.3 3.356.116.055.223.107.32.155l.848.43"/><path d="M517.7 354.53c.268.067.432.08.707.054.332-.03.484-.238.817-.25.27-.01.462-.03.684.126.14.1.2.19.28.342.087.166.163.282.124.466-.06.284-.324.418-.614.42-.237 0-.434-.062-.544-.272a.467.467 0 0 1-.04-.39c-.283.108-.49.112-.776.017a1.04 1.04 0 0 1-.638-.513z" fill="#fcd900"/></g><path d="M525.13 364.17c-.797-.237-1.966-.826-1.966-.826.323-.25.587-.265.863-.555.39-.41.373-.79.593-1.32.215-.52.184-.956.67-1.345.29-.23.763-.27 1.12-.165.352.114.758.4.847.767.137.56-.16.886-.246 1.454-.083.57-.29.896-.192 1.46.066.377.227.52.354.91 0 0-1.263-.15-2.04-.38zm-.99.95a.628.628 0 1 1 .64.618.627.627 0 0 1-.64-.618zm-1.76-16.51s-.09-.06-.144-.104c-.383-.31-.42-.653-.6-1.11-.173-.434-.258-.69-.316-1.154-.05-.406 0-.64 0-1.048 0-.37.04-.578 0-.944-.04-.375-.03-.612-.21-.944-.097-.18-.394-.337-.314-.42.094-.096.257-.02.42 0 .4.05.63.166.943.42.374.306.523.57.67 1.05.165.547.25.897.406 1.467.083.295.13.47.284.734.16.275.32.383.525.63l-.01.022c-.3.324-.445.536-.778.83-.305.27-.56.404-.846.574l-.03-.01zm3.6 10.64l2.23 1.03c1.15-.634 2.474-1.923 3.497-3.918.88-1.718 1.02-2.65 1.364-4.313l-1.786-.584-.357.073c-.552 1.723-.693 2.704-1.618 4.192-.803 1.29-1.72 2.305-2.65 3.034l-.678.483zm4.94 18.12c.36-.493.513-.81.922-1.264.456-.505.8-.702 1.312-1.15.155.015.335-.012.48.07-.027.546-.055.95-.18 1.542-.1.48-.186.746-.346 1.21-.135.388-.16.64-.39.98-.154.225-.29.315-.476.517-.51-.742-1.33-1.297-1.322-1.906zm33.01 1.85c.573.21.92.27 1.47.538.61.3.894.576 1.466.944.027.154.104.32.063.483-.534.122-.93.207-1.53.25a8.39 8.39 0 0 1-1.26 0c-.41-.022-.66.025-1.05-.104-.26-.083-.384-.19-.63-.31.573-.697.88-1.638 1.47-1.798zm-9.76-2.04c.573.21.92.27 1.468.538.61.3.896.576 1.468.944.027.154.104.32.063.482-.534.123-.93.208-1.534.252-.49.036-.768.027-1.258 0-.41-.023-.66.024-1.05-.105-.26-.083-.383-.19-.63-.31.574-.697.88-1.638 1.47-1.798zm-17.34 2.13c.573.21.92.27 1.47.538.61.3.894.576 1.467.944.026.154.103.32.063.483-.532.122-.928.207-1.53.25-.49.037-.77.028-1.26 0-.41-.02-.658.025-1.048-.104-.26-.083-.384-.19-.63-.31.573-.697.88-1.638 1.468-1.798zm-8.98-29.8c-.613-.278-1.05-1.045-.66-1.594.155-.22.412-.174.565-.395.19-.27.142-.505.136-.836-.004-.377-.14-.573-.206-.944-.072-.406-.14-.637-.136-1.05.005-.627-.038-1.075.345-1.572.246-.317.662-.592.826-.612.146.136-.058.502-.034.822.036.462.13.717.288 1.153.203.565.48.81.704 1.365.208.516.4.808.42 1.363.015.457-.025.736-.21 1.154-.165.37-.3.58-.61.84-.27.225-.458.325-.796.42a1.15 1.15 0 0 1-.627-.11z" fill="#0065bd"/></g><use height="100%" width="100%" xlink:href="#b" y="36.591"/></g><path d="M211.282 204.416h42.076v41.996h-42.076zm46.56 0h42.077v41.996h-42.08zm-46.402 78.418c.12.756.39 2.054 1.108 3.384.756 1.194.477 1.16 2.19 3.072.842.94 2.157 1.746 3.188 2.3 1.034.56 1.8.832 3.502 1.28 3.337.875 5.68.93 8.486.817 2.19-.087 3.863-.357 5.248-.543 1.975-.266 3.446-.424 5.692-.518a32.348 32.348 0 0 1 3.145 0c1.23.068 2.445.26 3.74.518 2.785.557 5.612 1.632 5.612 1.632l.006-43.856-42.083-.01v29.973s.086 1.464.163 1.95zm88.326-.01c-.12.756-.39 2.054-1.107 3.383-.76 1.194-.48 1.162-2.19 3.073-.845.94-2.16 1.746-3.19 2.3-1.036.558-1.8.832-3.504 1.28-3.337.874-5.68.93-8.486.817-2.19-.088-3.86-.357-5.246-.543-1.975-.266-3.446-.424-5.693-.518a32.43 32.43 0 0 0-3.143 0c-1.23.068-2.448.26-3.74.518-2.788.557-5.65 1.632-5.65 1.632l.03-43.856 42.082-.012v29.974s-.09 1.465-.165 1.95z" stroke-width=".408" stroke="#703d29" fill="none"/></svg>