<svg xmlns="http://www.w3.org/2000/svg" height="512" width="512" viewBox="0 0 512 512"><path fill="#cf142b" d="M0 0h512v512H0z"/><path fill="#00247d" d="M0 0h256v128H0z"/><path d="M0 0v14.31L227.38 128H256v-14.31L28.62 0H0zm256 0v14.31L28.62 128H0v-14.31L227.38 0H256zM106.667 0v128h42.666V0h-42.666zM0 42.667v42.666h256V42.667H0z" fill="#fff"/><path d="M0 51.2v25.6h256V51.2H0zM115.2 0v128h25.6V0h-25.6zM0 128l85.333-42.667h19.08L19.083 128H0zM0 0l85.333 42.667h-19.08L0 9.54V0zm151.586 42.667L236.92 0H256l-85.333 42.667h-19.08zM256 128l-85.333-42.667h19.08L256 118.46V128z" fill="#cf142b"/><path d="M443.065 182.61v108.408c0 28.958-57.888 38.366-57.888 38.366s-57.888-9.408-57.888-38.366v-108.41H443.06z" fill="#fff"/><path d="M443.065 291.018c0 28.958-57.888 38.366-57.888 38.366s-57.888-9.408-57.888-38.366c0 0 0-2.332 1.174-3.658 0 0-.638 4.817 3.063 8.46 0 0-2.904-5.14-.065-10.19 0 0-1.053 6.498 2.998 10.23 0 0-2.232-5.308.288-11.227 0 0-1.243 9.682 3.16 11.612 0 0 1.21-5.564-.543-9.135 0 0 3.03 1.222 2.87 9.296 0 0 .958-1.19 1.213-7.013 0 0 .127 6.66 2.424 8.203 0 0 .702-.675-.255-3.7-.96-3.023.413-4.084.636-4.02 0 0-.503 3.345 2.3 5.854 0 0-1.215-5.243.476-5.95 0 0-.35 4.438 3.156 5.436 0 0 .256-1.287-.51-2.734 0 0-.67-1.717-.16-3.03 0 0 1.117 4.027 2.648 4.702 0 0-.925-2.36-.064-4.702 0 0 .19 3.35 3.19 4.734 0 0-1.975-2.594-1.194-5.447l19.28.94 9.984.476 29.953-2.118 5.167-4.44s2.042 2.83-1.18 7.302c0 0 3.19-.58 4.21-5.565 0 0 1.308 2.767-.478 5.823 0 0 3.54-3.54 4.05-7.56 0 0 1.373 3.893-1.977 8.075 0 0 2.997-.997 4.274-5.436 0 0 1.02 2.673-1.884 6.45 0 0 5.422-2.88 5.263-8.83 0 0 2.264 3.28-.32 7.784 0 0 2.775-2.476 3.03-6.175 0 0 1.53 1.67-.127 6.27 0 0 3.38-3.184 3.89-6.626 0 0 .735 3.183-2.17 7.204 0 0 1.98-.483 3.86-4.408 0 0 .51 1.543-1.21 4.374 0 0 1.85-.32 3.094-3.86 0 0 .223 2.124-.32 4.022 0 0 1.436-.934 1.755-4.956 0 0 .8 1.32.815 2.96.013 1.64 0 .563 0 .563z" fill="#2f8f22"/><path d="M413.255 228.35s-2.01.34-4.595-.447c-2.584-.787-3.628-.467-4.43 0 0 0 1.05-2.076-1.503-3.715 0 0 .83 2.096-.32 3.075 0 0-.51.48-1.116-.244 0 0-.89-.92-1.83-1.628 0 0 2.17-.756 1.77-2.96-.4-2.203-1.58-2.492-2.216-2.766 0 0 .224.997 0 1.672 0 0-2.36-1.32.846-3.186s2.615-2.96 2.04-3.908c-.573-.95-1.8-1.996-2.408-2.366 0 0 .638 1 .526 1.85-.11.854-1.563 1.4-1.276-.095.287-1.496-.016-1.24-.05-2.83 0 0 2.856.964 3.973-1.82 0 0 1.1-2.878-2.504-4.31 0 0 .877 1.175.446 2.06 0 0-.765 1.447-1.675.273-.91-1.173-1.483-1.398-1.387-2.782 0 0 3.27.45 2.377-3.104 0 0-.53 2.365-4.77-.82 0 0 2.76-2.83 1.69-5.115 0 0-.335-1.046-3.334-.435 0 0 2.6-1.64 1.5-3.04 0 0-.56-.933-2.983.29 0 0 .94-1.625-1.436-3.378 0 0-1.596.836-2.44 1.608 0 0-1.628-2.06-2.665-2.88 0 0-1.882.725-2.36 2.88 0 0-.877-1.046-2.87-1.528 0 0-.958 1.77.286 3.313 0 0-.925-.032-2.615-.772 0 0-1.93-.917-1.643.74.286 1.657.43 2.026.813 2.8 0 0-4.33-1.007-4.147 1.333.127 1.626.733 3.025 2.073 4.2 0 0-2.425 3.168-4.5.787 0 0-.717.772.83 2.8 0 0 1.548 1.704.27 2.782 0 0-1.705 1.366-2.534-1.288 0 0-2.76 2.75.495 4.855 0 0 2.09 1.19 4.227-.644 0 0-.654 5.276-2.696 4.263 0 0-1.227-.9.974-1.977 0 0-3.174-.402-3.684 2.67 0 0-.39 2.444 2.377 3.33 0 0 2.136.77-.08 2.428 0 0-1.564 1.19-.543 2.96 0 0 1.228 1.947-1.882 2.14 0 0-1.69-.016-2.297-.24 0 0-.683 1.27-.206 2.717 0 0-1.55-1.155-5.076.122-3.525 1.276-3.254.375-3.54.76-.288.388-.974 1.69-.974 1.69s1.85 2.25 1.883 2.204c.032-.047-.35 2.574-.35 2.574l.91.434 7.256-3.233 7.37-3.84 5.92.363 3.758.895 4.934.36 3.534-1.887h5.12l5.63 2.807 6.428 3.833 3.35.588 2.58-.137v-5.204l-1.255-1.884zm-58.452 6.085s2.807 1.43 3.98-.306c0 0 1.53-2.92-1.83-3.937 0 0 1.83-2.195-.133-4.22 0 0-1.03-1.087-2.823-.29 0 0-.742-1.545-2.49-1.497 0 0-1.53-.025-2.056 1.664 0 0-2.1-.87-3.274.387 0 0-1.937 2.17.766 3.884l1.945.18 1.914-.885 2.137.61c.002 0-.548 2.164 1.868 4.408z" fill="#d40000" stroke="#000" stroke-width=".425" stroke-linejoin="round"/><path d="M417.464 229.3c3.382-.318 4.576 2.536 4.576 2.536 1.772 4.16-1.992 6.38-1.992 6.38.287.932.32 2.154.32 2.154 5.294.643 4.368 6.594 4.368 6.594l-1.753-1.447c-3.063-1.19-6.22 1.415-8.485 5.79-2.265 4.375-1.18 6.434-.798 11.613.383 5.18 8.804 8.267 8.804 8.267s-3.988 10.262-6.57 16.856c-2.585 6.595-7.976 3.86-9.54 2.47-1.562-1.388-1.952-.616-2.742 0-.79.62 3.54 3.996-4.338 7.18-7.88 3.185-9.25 5.63-10.56 6.434-1.306.805-6.76.258-7.303-.418-.54-.68-.22-.68-2.26-1.93-2.04-1.26-5.487-2.35-9.25-4.186-3.766-1.834-3.67-4.182-3.638-4.665.03-.48 1.308-4.406-3.1-1.286-4.41 3.12-8.16-1.486-8.16-1.486-.86-1.134-4.53-10.965-4.53-10.965-.99-3.667-2.935-7.946-2.935-7.946.096-.03-.19.45 3.063-1.415 3.253-1.866 4.71-4.97 5.837-8.042 1.126-3.072.032-8.33-.383-9.393-.413-1.06-2.837-5.927-5.84-6.946-3-1.02-5.014 1.51-5.014 1.51s-.926-5.95 4.37-6.592c0 0 .03-1.22.318-2.153 0 0-3.764-2.22-1.99-6.38 0 0 1.193-2.852 4.574-2.534l-.818 1.55s-.852 8.493 11.58 2.8c12.43-5.695 12.056-6.757 19.138-3.186l5.167-.096s7.464-3.454 9.856-1.97c2.392 1.487 11.005 6.31 11.005 6.31s8.325 3.124 9.95-2.635l-.925-2.77z" fill="#64b4d1" stroke="#000" stroke-width=".319"/><path stroke-miterlimit="10" d="M380.063 266.12s-.432-2.606-.887-4.294c0 0-.922-2.65.652-4.51l1.95-2.245s1.214-1.63 2.716-1.85c0 0 1.502-.044 1.645-.35.14-.305 1.783-3.01 5.69 0 0 0 1.244-1.994 3.16-2.332 0 0 2.07-.627 3.066.917 0 0 2.324-1.762 4.318 1.074 0 0 2.76-1.553 4.768 1.533 0 0 2.728-1.33 4.403 1.506 1.674 2.834 1.34 3.993 1.34 3.993l1.243 4.502 4.402 5.437-10.24 3.86h-4.59l-9.187 2.46-16.315 1.254-4.546-5.356 6.41-5.598z" fill="#fff" stroke="#00247d" stroke-width=".425"/><path d="M366.27 293.238s-2.44.145-3.683.772c-1.244.627-2.2 1.303-3.636 2.22 0 0-.67.892-3.49.35 0 0-4.88-1.17-4.88 2.64 0 0-5.84.484-3.445 5.598 0 0 1.627 4.005 4.977 1.16 0 0-2.153 3.086 2.01 4.293 0 0 2.966.728 3.827-2.312 0 0 .48-1.206-.67-2.702 0 0 1.435-.29 2.44-1.834 0 0-3.063 3.87.287 5.264 0 0 4.21 1.057 4.45-3.334 0 0-.345-2.03 1.287-2.753 0 0 3.356-.773 4.887-4.51 0 0-4.823-2.57-4.355-4.85zm-9.853-38.486s-3.764-1.734-5.55 0c0 0-2.49-1.54-5.104 0 0 0-2.49 1.626-4.21 3.417 0 0-1.213 1.034-.766 4.31 0 0 .638 2.302.255 3.46 0 0-.83-.164-2.49 1.8 0 0-2.104 2.44-3.954.29 0 0 .574 2.994 4.05 2.51 0 0-1.69 1.32-.222 4.73 0 0 1.084 2.41-.638 5.436 0 0 3.03-1.222 2.902-4.793 0 0-.255-2.412.638-4.117 0 0-.893 1.55 1.18 4.857 0 0 1.595 2.38.288 4.858 0 0 2.998-1.093 2.71-4.73-.285-3.633-2.104-2.12-.924-5.467 0 0 .287 1.714 1.18 2.578.893.865 2.042 2.313 1.563 4.725 0 0 1.787-2.22 1.372-4.503-.415-2.284-.86-2.975-.86-2.975l5.645-3.203 2.807-5.083.124-8.102z" fill="#d40000" stroke="#000" stroke-width=".425" stroke-linejoin="round"/><path stroke-miterlimit="10" d="M347.836 269.096s-2.328-.16-2.71-1.963m-4.084-1.19s.81-.032 1.545.708c0 0 .56.84 1.358.74" stroke="#000" stroke-width=".425" fill="none"/><path d="M351.28 262.244s-1.21 0-1.88-.58c0 0-.703-.48-1.118.29 0 0-.638 1.094.543 1.577 0 0 1.467.74-.862 2.22 0 0 2.775-.994 1.66-2.345 0 0-1.213-.868-.766-1.19 0 0 .127-.258.606.064.48.32 1.436.192 1.818-.033z"/><path d="M389.33 268.39L380 236.178l-.34.092 8.242 32.602z" fill="#784421" stroke="#000" stroke-width=".319"/><path d="M356.846 304.527s-2.202-1.236-4.02.21c0 0 .186-.803 1.577-1.157 0 0 .752-2.123 2.857-1.93 0 0-.86 1.03-2.01 1.898 0 0 1.213.125 1.596.98z"/><path stroke-miterlimit="2.613" d="M349.094 309.643s-3.492-2.195-1.603-5.886c0 0 .555-1.062 1.607-.845 0 0 2.177.676.48 3.692 0 0-.863 1.954-.48 3.04zm7.082 3.475s-4.976-2.268-3.445-6.128c0 0 .477-1.303 1.58-1.206 0 0 1.92.096 1.535 2.653 0 0-.575 2.51.334 4.68z" fill="#64b4d1" stroke="#00247d" stroke-width=".319"/><path d="M355.123 298.712s-1.495 1.104-2.103 1.844c0 0-.608-.756-1.406-1.214 0 0 .918-.12 1.406.292 0 0 .763-.74 2.103-.922z"/><path stroke-miterlimit="2.613" d="M359.55 312.153s3.898-.99 3.18-5.018c0 0-.382-1.762-2.033-1.52 0 0-1.99.507-.693 3.068 0 0 .765 1.83-.455 3.47z" fill="#64b4d1" stroke="#00247d" stroke-width=".319"/><path stroke-miterlimit="2.613" d="M377.168 226.916s2.512.77 3.876 1.326c0 0 3.636 1.64 8.254 0 0 0 3.122-1.236 3.54-1.326l-2.392 3.642-.12 1.882 1.496 2.195s-.898.362-3.578-1.278c0 0-2.966-2.292-6.507 0 0 0-1.938 1.312-3.565 1.278l2.297-2.564-.89-2.305-2.415-2.846z" fill="#f5ce00" stroke="#000" stroke-width=".425"/><path d="M361.056 307.34s.144-.194-.024-.278c0 0-.167-.072-.287.163 0 0-.407.645-.063 1.53 0 0 .326.61.168 1.25 0 0-.022.18.122.206 0 0 .138-.044.165-.18 0 0 .194-.62-.14-1.232 0 0-.407-.95.06-1.456z" fill="#fff"/><path d="M415.072 234.435s-2.808 1.43-3.98-.306c0 0-1.53-2.92 1.83-3.937 0 0-1.83-2.195.132-4.22 0 0 1.03-1.087 2.824-.29 0 0 .742-1.545 2.488-1.497 0 0 1.53-.025 2.057 1.664 0 0 2.106-.87 3.277.387 0 0 1.938 2.17-.765 3.884l-1.946.18-1.917-.885-2.138.61s.55 2.164-1.866 4.408z" fill="#d40000" stroke="#000" stroke-width=".425" stroke-linejoin="round"/><path stroke-miterlimit="2.613" d="M392.838 232.167s-.07.58-.645.644c0 0-.6.197-.948-.55 0 0-.04-.17-.05-.25-.04-.35-.16-1.35.925-2.17 0 0 1.77-1.45 5.152.304 0 0 2.68 1.287 4.53 2.38 0 0 4.784 2.574 5.36 2.767 0 0 2.104 1.06 5.326 1.19 0 0 4.402.32 6.268-2.766 0 0 1.42-2.347 0-3.843 0 0-.574-.674-1.52-.55-.395.053-.833.235-1.255.728 0 0-.682.998.115 1.738 0 0 1.037.635 1.404-.708 0 0 .014-.096.046.024.02.08.255 1.104-.295 1.97 0 0-2.656 4.02-9.96-.144l-9.634-5.403s-4.832-2.478-7.72 1.4c0 0-2.328 3.215.67 5.322 0 0 2.234 1.335 3.637-.788 0 0 1.165-2.09-.67-3.008 0 0-1.61-.757-2.247.85-.638 1.61 1.244 2.027 1.42.885 0 0 .047-.274.095-.017z" fill="#f5ce00" stroke="#000" stroke-width=".425"/><path stroke-miterlimit="2.613" d="M354.652 248.75v-6.032c0-.474.003-.868.72-1.447.718-.58 1.484-1.493 2.585 1.11 0 0 2.153-2.264 2.87-2.602 0 0 1.245-1.06 2.106.482 0 0 1.148-1.738 2.057-2.17 0 0 2.153-1.4 2.25 2.796l1.673-1.544s1.292-1.06 2.728.387c0 0 2.44 2.363 2.78 3.04 0 0 .537.73.58 1.884 0 0-.007 1.3.663 2.022 0 0 .765.675 1.507.82 0 0 1.746.05 2.37 1.69 0 0 .285-.285 1.146 7.577v14.33l-9.665 11.532-15.502-4.44-6.172-2.557-1.388-4.537 5.98-3.86 3.255-8.78-1.052-6.177-1.484-3.52z" fill="#e4cb5e" stroke="#000" stroke-width=".319"/><path d="M397.368 256.357l.734-1.094 1.754-1.35s2.68 7.03 2.807 8.566v2.18s4.02 1.023 4.722 7.2l-3.318 6.11-5.2-2.894-1.498-1.095v-17.627z" fill="#784421" stroke="#000" stroke-width=".319"/><path d="M348.125 304.638s.192-.254.06-.362c0 0-.084-.12-.31.17 0 0-1.057 1.18-.216 2.996 0 0 .09.26.26.175 0 0 .142-.072.01-.29 0 0-.752-1.495.19-2.69z" fill="#fff"/><path stroke-miterlimit="10" d="M363.8 303.45s.16-.545-.224-1.125c0 0-.255-.418-.16-.965" stroke="#000" stroke-width=".425" fill="none"/><path stroke-miterlimit="10" d="M367.24 240.884s.014 1.51.445 2.62c.43 1.11 1.884 3.028 1.98 4.066" stroke="#000" stroke-width=".319" fill="none"/><path d="M403.7 293.238s2.44.145 3.684.772c1.244.627 2.2 1.303 3.636 2.22 0 0 .67.892 3.493.35 0 0 4.88-1.17 4.88 2.64 0 0 5.838.484 3.446 5.598 0 0-1.63 4.005-4.98 1.16 0 0 2.153 3.086-2.01 4.293 0 0-2.966.728-3.828-2.312 0 0-.478-1.206.67-2.702 0 0-1.436-.29-2.44-1.834 0 0 3.062 3.87-.287 5.264 0 0-4.21 1.057-4.45-3.334 0 0 .344-2.03-1.287-2.753 0 0-3.354-.773-4.885-4.51 0 0 4.822-2.57 4.354-4.85z" fill="#d40000" stroke="#000" stroke-width=".425" stroke-linejoin="round"/><path d="M365.315 247.568l3.982 32.143m-3.062-32.21l4.466 29.96m-3.626-30.1l5.144 29.716" stroke-miterlimit="10" stroke="#000" stroke-width=".319" fill="none"/><path d="M376.634 274.033l-9.328-32.21-.342.09 8.243 32.603z" fill="#784421" stroke="#000" stroke-width=".319"/><path d="M369.926 246.18l9.42 23.8m-10.05-23.416l9.09 24.864" stroke-miterlimit="10" stroke="#000" stroke-width=".319" fill="none"/><path d="M354.374 310.834s-1.093-1.048-.94-2.927c0 0 .063-.402-.138-.458 0 0-.214-.09-.246.373 0 0-.303 1.963 1.02 3.088 0 0 .09.114.238.08 0 0 .156-.033.066-.16z" fill="#fff"/><path d="M370.35 245.855l9.713 21.713m-12.37-20.363l5.958 29.24" stroke-miterlimit="10" stroke="#000" stroke-width=".319" fill="none"/><path stroke-miterlimit="2.613" d="M416.423 268.872c-4.254-2.414-5.187-7.77-5.187-7.77-1.03-5.332 1.053-9.554 1.053-9.554 2.75-5.814 7.46-6.896 7.46-6.896s-4.617 3.204-5.91 7.523c0 0-1.004 3.643-.43 7.238.574 3.594.36 2.677 1.245 5.452l1.765 4.007z" fill="#f5ce00" stroke="#000" stroke-width=".425"/><path d="M398.1 255.263l-17.876 5.645-.975 7.964c-4.246 6.145-12.867 7.236-12.867 7.236l6.707 7.14 12.888 2.704 6.76-5.21 6.126-5.663c-.638-3.028-.287-7.515-.287-7.515 0-.756.286-2.525.286-2.525s-1.053-7.27-.766-9.78z" fill="#784421" stroke="#000" stroke-width=".195"/><path stroke-miterlimit="10" d="M379.494 266.87s11.775-3.676 18.796-6.628m-24.448 13.34s14.69-2.653 25.025-8.54l3.796-2.563m0 2.18l-4.083 2.908s-16.428 7.575-28.936 7.778m28.933-2.396s-12.63 6.504-19.87 6.6" stroke="#000" stroke-width=".319" fill="none"/><path d="M413.636 254.752s3.764-1.734 5.55 0c0 0 2.49-1.54 5.104 0 0 0 2.49 1.626 4.21 3.417 0 0 1.213 1.034.766 4.31 0 0-.638 2.302-.255 3.46 0 0 .83-.164 2.49 1.8 0 0 2.108 2.44 3.958.29 0 0-.574 2.994-4.05 2.51 0 0 1.69 1.32.222 4.73 0 0-1.085 2.41.637 5.436 0 0-3.03-1.222-2.902-4.793 0 0 .255-2.412-.638-4.117 0 0 .893 1.55-1.18 4.857 0 0-1.595 2.38-.288 4.858 0 0-3-1.093-2.71-4.73.284-3.633 2.102-2.12.922-5.467 0 0-.286 1.713-1.18 2.578-.892.865-2.04 2.313-1.562 4.725 0 0-1.786-2.22-1.37-4.503.414-2.284.86-2.975.86-2.975l-5.646-3.203-2.806-5.083-.128-8.102z" fill="#d40000" stroke="#000" stroke-width=".425" stroke-linejoin="round"/><path stroke-miterlimit="10" d="M349.68 275.095s.526-2.493 2.92-1.512c0 0 .812-4.085 5.166-4.23 4.354-.145 4.593 4.246 4.593 4.536 0 0 1.275-1.89 3.41-1.67 0 0 3.683-.218 2.31 5.694l.698.74s2.813-6.602 8.602-4.865c0 0 5.646 1.72 1.962 7.19 0 0 2.787 3.62 5.15 3.28 2.362-.337 4.468-1.06 6.812-5.21 2.345-4.15 7.8-4.777 9.187-4.536 1.39.24 2.485 1.142 2.71 2.123 0 0 2.89-9.64 13.27-8.126l4.165 2.095 1.58.724-2.355 6.64-5.734 12.96-4.355 1.34-4.544-2.605-1.578.846-.13 3.883-5.995 4.316-4.163 1.714-4.593 3.137-1.067 2.805s-2.537-1.07-5.4 0l-.948-2.32-2.68-2.56-10.408-4.91-1.88-6.064-1.9-.845-2.128 2.436-3.11.363-4.643-3.136-4.928-14.235z" fill="#fff" stroke="#00247d" stroke-width=".425"/><path stroke-miterlimit="2.613" d="M395.007 227.905s-3.972-.177-3.828 3.94" stroke="#000" stroke-width=".425" fill="none"/><path stroke-miterlimit="2.613" d="M421.14 271.645c-6.914-2.123-8.803-9.554-8.803-9.554-1.412-5.57.86-10.442.86-10.442 3.16-7.417 8.502-7.415 8.502-7.415 2.675-.07 3 2.22 3 2.22.25 1.625-.89 2.21-.89 2.21-1.834 1-2.99-.352-2.99-.352-.766-.996-.177-1.88-.177-1.88.47-.66 1.372-.37 1.372-.37.714.22.638 1.113.638 1.113.004.023.02.023.02.023.032-.008.02-.02.02-.02s.16-1.094-.91-1.206c0 0-2.08-.45-4.52 2.59 0 0-3.214 4.1-3.206 9.407 0 0-.408 9.964 9.975 12.546 0 0-1.124 1.618-3.11 7.457 0 0-2.25 7.503-4.395 11.56 0 0-2.853 5.786-9.217 3.422 0 0-3.79-1.666-3.78-4.416 0 0-.262-2.51 2.01-2.703 0 0 2.226-.17 2.2 1.74 0 0 .06 2.06-2.367 1.59 0 0-.85-.18-.694-1.012 0 0 .136-.746 1.16-.42 0 0 .032.003.036-.013 0 0 .012-.018-.024-.028 0 0-.396-.178-.815-.03 0 0-.376.123-.406.71 0 0-.023.47.48.734 0 0 .61.216 1.088.168 0 0 .644 1.3 2.1 1.74 2.027.613 3.697.023 4.72-.792 1.11-.887 1.83-2.437 2.044-2.817.215-.38 2.08-4.56 3.485-9.054 0 0 1.226-3.878 2.206-5.904l.383-.795zm-19.51 18.89s1.292-.174 1.292.978c0 0-.08 1.682-2.13 1.314 0 0-2.02-.442-1.303-2.702 0 0 .474-1.592 2.39-1.363 0 0 1.852.085 2.67 2.618 0 0 .62 2.135-.447 3.968-1.188 2.046-4.195 3.39-5.646 3.985 0 0-5.814 2.284-7.548 3.59 0 0-2.66 1.975-1.485 3.813 0 0 .454.7 1.136.7 0 0 .78.036.91-.76 0 0 .004-.016-.01-.036 0 0-.01 0-.014.02 0 0-.055.486-.478.667 0 0-.568.286-1.16-.217 0 0-.63-.603-.105-1.54 0 0 .69-1.154 2.296-.47 0 0 1.416.7.833 2.203 0 0-.52 1.384-2.226 1.38 0 0-1.284-.042-2.106-.904-1.28-1.348-1.35-3.967-.22-5.32 0 0 1.068-1.44 3.214-2.318 1.242-.507 3.588-1.527 6.028-2.484 1.716-.673 3.286-1.478 4.307-2.686 0 0 .91-1.013 1.17-2.75 0 0 .253-1.304-.54-1.59 0 0-.404-.18-.846-.12 0 0-.012 0-.015.008 0 0-.02.02.024.013z" fill="#f5ce00" stroke="#000" stroke-width=".425"/><path stroke-miterlimit="2.613" d="M401.738 290.527s1.428-.257 2.32 1.44c0 0 .527 1.094.612 1.727m.465-6.068s-1.43.248-.693 2.27c.693 1.907 1.982 2.532 2.365 2.797" stroke="#000" stroke-width=".425" fill="none"/><path stroke-miterlimit="2.613" d="M377.166 232.167s.07.58.645.643c0 0 .6.193.95-.553 0 0 .04-.17.05-.25.04-.35.16-1.352-.923-2.173 0 0-1.77-1.447-5.152.306 0 0-2.68 1.287-4.53 2.38 0 0-4.784 2.574-5.358 2.767 0 0-2.106 1.06-5.327 1.19 0 0-4.403.322-6.27-2.766 0 0-1.42-2.344 0-3.84 0 0 .574-.676 1.518-.55.396.05.834.233 1.257.727 0 0 .686.997-.112 1.737 0 0-1.036.636-1.403-.706 0 0-.018-.097-.05.024-.02.078-.255 1.1.295 1.97 0 0 2.655 4.02 9.96-.145l9.633-5.403s4.832-2.477 7.72 1.4c0 0 2.327 3.216-.67 5.323 0 0-2.234 1.335-3.637-.788 0 0-1.16-2.09.67-3.01 0 0 1.61-.755 2.25.853.64 1.607-1.242 2.025-1.42.884 0 0-.045-.274-.093-.017zm-23.586 36.705c4.256-2.414 5.19-7.77 5.19-7.77 1.027-5.332-1.054-9.554-1.054-9.554-2.752-5.814-7.466-6.896-7.466-6.896s4.62 3.204 5.91 7.523c0 0 1.006 3.643.43 7.238-.573 3.594-.358 2.677-1.243 5.452l-1.766 4.007z" fill="#f5ce00" stroke="#000" stroke-width=".425"/><path stroke-miterlimit="2.613" d="M374.997 227.905s3.973-.177 3.83 3.94" stroke="#000" stroke-width=".425" fill="none"/><path stroke-miterlimit="2.613" d="M348.864 271.645c6.914-2.123 8.804-9.554 8.804-9.554 1.41-5.57-.86-10.442-.86-10.442-3.16-7.417-8.503-7.415-8.503-7.415-2.68-.07-3 2.22-3 2.22-.253 1.625.887 2.21.887 2.21 1.834 1 2.99-.352 2.99-.352.766-.996.176-1.88.176-1.88-.47-.66-1.372-.37-1.372-.37-.713.22-.638 1.113-.638 1.113-.004.023-.02.023-.02.023-.03-.008-.02-.02-.02-.02s-.16-1.094.91-1.206c0 0 2.08-.45 4.52 2.59 0 0 3.215 4.1 3.207 9.407 0 0 .406 9.964-9.976 12.546 0 0 1.12 1.618 3.105 7.457 0 0 2.25 7.503 4.396 11.56 0 0 2.855 5.786 9.22 3.422 0 0 3.79-1.666 3.78-4.416 0 0 .263-2.51-2.01-2.703 0 0-2.225-.17-2.2 1.74 0 0-.06 2.06 2.367 1.59 0 0 .85-.18.693-1.012 0 0-.133-.746-1.16-.42 0 0-.03.003-.034-.013 0 0-.012-.018.024-.028 0 0 .397-.178.815-.03 0 0 .376.123.405.71 0 0 .025.47-.477.734 0 0-.61.216-1.09.168 0 0-.642 1.3-2.1 1.74-2.026.613-3.695.023-4.717-.792-1.112-.887-1.83-2.437-2.046-2.817-.215-.38-2.08-4.56-3.484-9.054 0 0-1.23-3.878-2.21-5.904l-.382-.795zm19.51 18.89s-1.29-.174-1.29.978c0 0 .077 1.682 2.128 1.314 0 0 2.02-.442 1.304-2.702 0 0-.48-1.592-2.393-1.363 0 0-1.854.085-2.667 2.618 0 0-.622 2.136.442 3.968 1.19 2.046 4.195 3.39 5.646 3.985 0 0 5.814 2.284 7.548 3.59 0 0 2.66 1.975 1.483 3.813 0 0-.454.7-1.136.7 0 0-.78.036-.91-.76 0 0-.008-.016.004-.036 0 0 .012 0 .016.02 0 0 .057.486.48.667 0 0 .566.286 1.16-.217 0 0 .63-.603.103-1.54 0 0-.69-1.154-2.296-.47 0 0-1.417.7-.835 2.203 0 0 .518 1.384 2.225 1.38 0 0 1.285-.042 2.107-.904 1.283-1.348 1.352-3.967.222-5.32 0 0-1.07-1.44-3.215-2.318-1.24-.507-3.59-1.527-6.03-2.484-1.712-.673-3.283-1.478-4.303-2.686 0 0-.91-1.013-1.173-2.75 0 0-.25-1.304.542-1.59 0 0 .402-.18.845-.12 0 0 .014 0 .017.008 0 0 .02.02-.026.013z" fill="#f5ce00" stroke="#000" stroke-width=".425"/><path stroke-miterlimit="2.613" d="M368.266 290.527s-1.427-.257-2.32 1.44c0 0-.526 1.094-.61 1.727m-.466-6.068s1.43.248.693 2.27c-.694 1.906-1.983 2.53-2.365 2.797m18.348-61.08s3.456-2.164 6.986.233" stroke="#000" stroke-width=".425" fill="none"/><path stroke-miterlimit="2.613" d="M361.88 252.755s.48-1.93-1.722-5.308c0 0-1.435-3.088-2.2-5.066m4.975-2.12s1.246 3.035 1.675 4.394c0 0 1.546 3.808 1.873 4.58" stroke="#000" stroke-width=".319" fill="none"/><path stroke-miterlimit="10" d="M363.555 254.877s1.3 1.4 1.152 3.764m-5.457-5.256s1.435.692 1.34 4.503c0 0-.145 2.783 2.008 4.182m-3.544.98s4.493-.49 4.74 2.276c0 0 .096 2.654 1.627 2.944 0 0 2.297.216 2.75 2.34m-7.7-4.49s.79 1.184 1.556 1.69m4.21-4.61s1.14 1.73 1.357 2.744m3.59-23.563s1.052 1.434 2.073 2.11m2.137 6.37s2.233 1.092 1.85 6.722c0 0-.287 3.3.638 5.104" stroke="#000" stroke-width=".319" fill="none"/><path d="M364.87 247.037l.145.53s4.003.17 6.164-2.557l-.235-.523s-3.493-.177-6.077 2.55z" fill="#784421" stroke="#000" stroke-width=".319"/><path stroke-miterlimit="10" d="M379.293 268.514s13.846-4.128 19.182-6.534" stroke="#000" stroke-width=".319" fill="none"/><path d="M377.647 242.525l6.848-2.606.16.455-6.848 2.6z" fill="#784421" stroke="#000" stroke-width=".195"/><path d="M378.388 242.758l4.545 22.285m-3.756-22.583l5.206 22.18m-4.32-22.518l5.694 22.02m-3.462-22.867l7.762 16.53m-6.735-16.92l8.278 16.432m-7.518-16.72l8.954 16.266m-10.41 8.357l3.514-1.158m-6.174-1.047s10.3-3.008 18.093-6.152m-18.234 7.28s13.052-3.454 18.23-5.974m-14.247 16.586l.684 2.09 1.868-.597-.638-2.073m3.358-.923l.683 2.09 1.87-.597-.64-2.072m-10.772-11.768l-.16-2.83 17.112-5.195.926 2.38m-10.78.613l.932 2.497m5.05-4.313l1.09 2.373m.33-2.804l1.02 2.245m.334-2.66l1.07 2.35m.03-2.683l1.88-1.06.8 2.09m-1.757-1.553l.96 2.165" stroke-miterlimit="10" stroke="#000" stroke-width=".319" fill="none"/><path stroke-miterlimit="10" d="M355.66 284.938s-3.35-3.392 0-6.714c0 0-3.636-1.778-3.062-4.64m9.042 14.042s-3.467.473-2.44-6.282c0 0-1.434 2.677-1.93 4.054-.37 1.03-.124 2.693 1.344 3.592.587.36 3.697 1.17 4.702-.89m-5.55-10.81s-1.412 1.304-.407 3.692m1.863-3.378s.167 2.316 1.316 3.62m-.324-4.536s-.01 2.726 1.95 4.415m-.975-5.356s.02 3.063 2.293 4.945m8.996-.458s1.146-2.51 3.563-2.39c0 0-1.173.532-1.15 1.706 0 0-.142 1.938 1.94 2.13 0 0 1.674.218 2.51-.7m-1.146 10.714s-5.957-2.8-5.335-6.828c0 0 .24-2.46 2.645-3.62m-1.257 2.558s-.527 1.738.646 2.944m.694-4.126s-.72 1.906.478 3.33m.955-4.255s-.86 1.576.17 3m-5.6 7.406s3.254 2.824 5.79 2.848M370.565 293s3.04 2.46 4.94 2.823m-6.088-2.126s3.758 3.308 6.09 3.55m9.197 3.04s-3.695 1.99-.83 4.095m-1.514-6.29s4.186-2.197 6.004-3.018m-4.497 4.15s6.053-3.69 7.847-4.485m-4.737 4.728s5.167-3.45 7.942-4.946m-4.524 4.825s3.564-2.8 7.01-4.826m1.22-3.5s-1.747-2.557-7.488 0c0 0 2.104-1.91 6.267-3.392m5.796-10.986s.47 2.075-.03 3.33m-9.28 6.728s1.197-1.762 4.236-2.63c0 0 .82 2.05 3.182 1.592 0 0 3.564-.7 2.488-4.608 0 0-.74-2.92-4.813-3.208m12.11-4.896s4.14.746 4.067 4.124c0 0 .335 5.066-5 6.055m4.412-8.1s1.137-2.47 3.673-3.484m-3.082-1.448s1.13 1.813 1.903 2.076m-2.494-.627s1.065 1.3 1.424 1.517m-1.77-.265s.562.83 1.06 1.09m-22.352-20.677s.805-1.307 2.807-.752m8.177 10.55s1.268-5.29 5.694-3.336m-1.794-.433s.454-2.437-.646-3.68m-2.37 3.51s.563 1.01.08 1.834" stroke="#00247d" stroke-width=".425" fill="none"/><path stroke-miterlimit="2.613" d="M413.796 313.117s4.976-2.267 3.445-6.128c0 0-.47-1.307-1.572-1.21 0 0-1.92.096-1.535 2.654 0 0 .576 2.51-.333 4.68z" fill="#64b4d1" stroke="#00247d" stroke-width=".319"/><path d="M415.598 310.834s1.094-1.048.94-2.927c0 0-.063-.402.138-.458 0 0 .214-.09.246.373 0 0 .303 1.962-1.02 3.088 0 0-.09.113-.238.08 0 0-.157-.033-.066-.16z" fill="#fff"/><path stroke-miterlimit="2.613" d="M420.877 309.643s3.493-2.195 1.603-5.886c0 0-.55-1.062-1.603-.845 0 0-2.177.676-.478 3.692 0 0 .86 1.954.474 3.04z" fill="#64b4d1" stroke="#00247d" stroke-width=".319"/><path d="M421.75 304.637s-.19-.253-.06-.362c0 0 .084-.12.31.17 0 0 1.058 1.18.217 2.997 0 0-.096.26-.263.174 0 0-.144-.072-.012-.29 0 0 .753-1.494-.192-2.69z" fill="#fff"/><path stroke-miterlimit="2.613" d="M410.422 312.153s-3.9-.99-3.182-5.018c0 0 .383-1.762 2.034-1.52 0 0 1.99.507.694 3.068 0 0-.766 1.83.454 3.47z" fill="#64b4d1" stroke="#00247d" stroke-width=".319"/><path d="M408.915 307.34s-.143-.194.024-.278c0 0 .163-.072.283.163 0 0 .407.645.063 1.53 0 0-.327.61-.17 1.25 0 0 .023.18-.12.206 0 0-.14-.044-.165-.18 0 0-.194-.62.14-1.232 0 0 .408-.95-.06-1.456z" fill="#fff"/><path d="M413.22 304.527s2.202-1.236 4.02.21c0 0-.185-.803-1.576-1.157 0 0-.752-2.123-2.857-1.93 0 0 .86 1.03 2.01 1.898 0 0-1.213.125-1.596.98zm1.63-5.815s1.494 1.104 2.102 1.844c0 0 .608-.756 1.405-1.214 0 0-.918-.12-1.405.292 0 0-.764-.74-2.103-.922z"/><path stroke-miterlimit="10" d="M406.172 303.45s-.16-.545.223-1.125c0 0 .255-.418.16-.965m15.662-32.264s2.328-.16 2.71-1.963m4.083-1.19s-.81-.032-1.544.708c0 0-.56.84-1.358.74" stroke="#000" stroke-width=".425" fill="none"/><path d="M418.772 262.244s1.212 0 1.882-.58c0 0 .702-.48 1.117.29 0 0 .64 1.094-.54 1.577 0 0-1.47.74.86 2.22 0 0-2.772-.994-1.66-2.345 0 0 1.216-.868.77-1.19 0 0-.128-.258-.607.064-.48.32-1.435.192-1.817-.033z"/><path stroke-miterlimit="2.613" d="M420.42 232.95s.548-.744.324-2.98c-.224-2.235 1.717-2.492 2.464-1.85 0 0 .772.668.062 2.086-.41.818-1.064 1.878-2.85 2.745z" fill="#64b4d1" stroke="#00247d" stroke-width=".319"/><path d="M421.15 231.28s.728-.78.38-2.48c0 0 0-.167.094-.178 0 0 .177-.045.207.123 0 0 .39 1.81-.43 2.794 0 0-.15.14-.25 0 0-.005-.11-.11 0-.26z" fill="#fff"/><path stroke-miterlimit="2.613" d="M419.8 232.137s-.057-.9-1.614-2.432c-1.558-1.53-.277-2.943.677-2.93 0 0 .988.015 1.344 1.52.205.87.38 2.073-.406 3.842z" fill="#64b4d1" stroke="#00247d" stroke-width=".319"/><path d="M419.558 230.178s.028-1.104-1.382-2.256c0 0-.115-.134-.05-.205 0 0 .105-.15.242-.034 0 0 1.518 1.215 1.555 2.542 0 0-.017.215-.19.162 0 0-.156-.013-.175-.21z" fill="#fff"/><path stroke-miterlimit="2.613" d="M417.685 231.46s-.407-.734-2.33-1.417c-1.924-.682-1.404-2.363-.595-2.722 0 0 .84-.37 1.74.76.52.65 1.145 1.594 1.185 3.383z" fill="#64b4d1" stroke="#00247d" stroke-width=".319"/><path d="M416.843 230.11s-.437-1.012-2.2-1.455c0 0-.16-.073-.13-.166 0 0 .032-.18.204-.137 0 0 1.886.454 2.475 1.64 0 0 .075.203-.105.23 0 0-.145.054-.244-.116z" fill="#fff"/><path stroke-miterlimit="2.613" d="M418.89 232.195s-.896.252-2.956-.742c-2.06-.993-2.962.736-2.6 1.66 0 0 .376.96 1.97.79.92-.096 2.154-.338 3.587-1.708z" fill="#64b4d1" stroke="#00247d" stroke-width=".319"/><path d="M414.1 232.852s.935.576 2.63-.08c0 0 .172-.033.2.06 0 0 .077.167-.09.227 0 0-1.804.715-2.962.084 0 0-.176-.122-.043-.248 0 0 .09-.13.266-.048z" fill="#fff"/><path stroke-miterlimit="2.613" d="M415.877 225.685s1.03.5.79 1.705" stroke="#000" stroke-width=".425" fill="none"/><path stroke-miterlimit="10" d="M420.423 225.854s.402 1.274-.042 1.96" stroke="#000" stroke-width=".425" fill="none"/><path stroke-miterlimit="2.613" d="M349.454 232.95s-.547-.744-.323-2.98c.227-2.235-1.714-2.492-2.46-1.85 0 0-.772.668-.062 2.086.41.818 1.063 1.878 2.85 2.745z" fill="#64b4d1" stroke="#00247d" stroke-width=".319"/><path d="M348.724 231.28s-.727-.78-.38-2.48c0 0 .002-.167-.094-.178 0 0-.177-.045-.206.123 0 0-.39 1.81.43 2.794 0 0 .15.14.25 0 0-.005.11-.11 0-.26z" fill="#fff"/><path stroke-miterlimit="2.613" d="M350.074 232.137s.057-.9 1.615-2.432c1.553-1.53.273-2.943-.68-2.93 0 0-.99.015-1.345 1.52-.205.87-.38 2.073.406 3.842z" fill="#64b4d1" stroke="#00247d" stroke-width=".319"/><path d="M350.317 230.178s-.028-1.104 1.382-2.256c0 0 .11-.134.045-.205 0 0-.104-.15-.24-.034 0 0-1.52 1.215-1.556 2.542 0 0 .017.215.19.162 0 0 .156-.013.174-.21z" fill="#fff"/><path stroke-miterlimit="2.613" d="M352.19 231.46s.406-.734 2.33-1.417c1.923-.682 1.403-2.363.594-2.722 0 0-.84-.37-1.74.76-.52.65-1.144 1.594-1.185 3.383z" fill="#64b4d1" stroke="#00247d" stroke-width=".319"/><path d="M353.032 230.11s.437-1.012 2.198-1.455c0 0 .16-.073.13-.166 0 0-.03-.18-.203-.137 0 0-1.886.454-2.475 1.64 0 0-.075.203.105.23 0 0 .146.054.245-.116z" fill="#fff"/><path stroke-miterlimit="2.613" d="M350.984 232.195s.897.252 2.956-.742c2.06-.993 2.962.736 2.6 1.66 0 0-.376.96-1.97.79-.92-.096-2.154-.338-3.586-1.708z" fill="#64b4d1" stroke="#00247d" stroke-width=".319"/><path d="M355.773 232.852s-.933.576-2.628-.08c0 0-.173-.033-.2.06 0 0-.078.167.09.227 0 0 1.803.715 2.96.084 0 0 .177-.122.045-.248 0 0-.09-.13-.267-.048z" fill="#fff"/><path stroke-miterlimit="2.613" d="M353.997 225.685s-1.028.5-.79 1.705" stroke="#000" stroke-width=".425" fill="none"/><path stroke-miterlimit="10" d="M349.452 225.854s-.403 1.274.042 1.96" stroke="#000" stroke-width=".425" fill="none"/><path d="M394.106 214.153s.652 1.86.37 3.547c-.25 1.507.093 1.897.637 2.196.472.258 1.565-.194 1.696-1.376 0 0 1.29 2.52-1.22 4.222 0 0-1.81 1.11-3.34-.374-.54-.523-.78-1.966-.516-3.306 0 0 .396-1.815-.263-3.68 0 0 1.03 1.1.767 3.288 0 0-.528 3.927 2.38 3.734 0 0 2.01-.024 2.07-2.46 0 0-.755.867-1.688.578-.66-.205-1.27-.844-1.16-1.852.112-1.057.406-2.9.262-4.517zm-3.293 6.45s-.16 3.104-3 3.86c0 0 .4-.563-.238-2.107 0 0-.622-.9-.574-2.3 0 0-.9.707.13 2.573.62 1.122.08 2.473-.11 2.52-.192.05 4.69-.642 3.796-4.55zm-3.685-3.09s-.685-.77-.733-2.556c-.048-1.786-.383-2.22-.622-2.43 0 0 .35 1.545.255 2.494-.096.95.064 1.5.19 1.95 0 0-1.546.24-2.52-2.01-.93-2.153-1.865-1.98-2.328-1.963 0 0 .54.06 1.627 2.026 1.086 1.966 1.388 2.367 4.13 2.495zm-7.24-4.663s.893 2.14.925 3.265c0 0-2.074-.692-2.632-2.493 0 0-2.213.756-1.4 3.313 0 0-1.913-.675-2.774-2.236 0 0 1.068.8 2.057 1.154 0 0-.11-2.058 2.473-2.83 0 0 .384 1.844 1.675 2.284 0 0-.095-1.158-.32-2.46zm3.412-3.667s.718 1.045 2.186 1.094c.7.023 1.456-.136 2.185-1.094 0 0-.092 1.818-2.18 1.833 0 0-2.186.08-2.186-1.833zm-9.04 12.425s1.09.99 1.317 1.314c0 0 .766.75 1.423-.22 0 0 .838-1.545 1.867-1.504 0 0-.73.506-1.55 1.97 0 0-.22.538-.83.6-.287.027-.647.12-1.193-.45 0 0-.47-.576-1.033-1.71zm11.226-19.71c-2.185 0-.343 1.687-.343 1.687.047 2.678-2.1 3.502-3.565 2.727-1.463-.777-.32-2.727-.32-2.727s-1.65 1.086-.597 2.654c1.057 1.564 3.816.864 4.83-.58 1.012 1.444 3.77 2.144 4.823.58 1.054-1.57-.597-2.658-.597-2.658s1.145 1.95-.32 2.727c-1.462.775-3.61-.05-3.563-2.727-.002 0 1.84-1.69-.344-1.688zM386.81 199s.765 1.303.597 3.28c0 0 .694-1.978-.598-3.28zm-6.7 3.064s-.167-1.424-1.554-1.545c0 0 1.172.845 1.555 1.545zm10.767 0s.167-1.424 1.555-1.545c0 0-1.173.845-1.555 1.545zm-12.967 2.17s1.1.34 1.77-.48c0 0-1.268.336-1.77.48zm-3.565-8.733s1.28-.143 2.56 1.764c0 0-1.268.675-1.58 1.085 0 0 0-.628.623-1.183 0 0-.24-.965-1.603-1.665zm21.435 0s-1.28-.143-2.56 1.764c0 0 1.27.675 1.58 1.085 0 0 0-.628-.622-1.183 0 0 .24-.965 1.603-1.665zm-9.88 1.425s1.15.315 2.584-.482c0 0 1.77-.94 2.895 0 0 0-.985-.436-2.875.482 0 0-1.89 1.036-2.607 0z"/><path d="M387.097 198.085s.98-1.72 3.97-1.38c0 0-.812 2.393-3.97 1.38z" fill="#fff"/><ellipse cx="389.159" cy="197.551" rx=".591" ry=".75" fill="#784421"/><ellipse cx="389.159" cy="197.551" rx=".351" ry=".46"/><path d="M380.685 194.418s1.89.12 3.038.844c0 0 1.22.724 2.608-.314 0 0 1.51-.868 2.48-2.074 0 0-2.31 1.592-3.17 1.833 0 0-.79-.603-1.1-1.47 0 0 .12-.653 1.36-1.86 0 0-1.672.508-2.01 1.93 0 0 .31.87.96 1.546 0 0-.31.144-1.124-.362 0 0-1.77-.6-3.038-.07zm4.8 11.352c-1.634 1.41 0 1.266 0 1.266s1.636.145 0-1.267zm-.945-8.844s-1.15.315-2.584-.482c0 0-1.77-.94-2.895 0 0 0 .985-.436 2.875.482 0 0 1.89 1.036 2.608 0z"/><path d="M383.344 198.085s-.98-1.72-3.972-1.38c0 0 .814 2.393 3.972 1.38z" fill="#fff"/><ellipse cx="381.281" cy="197.551" rx=".591" ry=".75" fill="#784421"/><ellipse cx="381.281" cy="197.551" rx=".351" ry=".46"/><path d="M443.25 182.61v108.408c0 28.958-57.888 38.366-57.888 38.366s-57.887-9.408-57.887-38.366v-108.41H443.25z" stroke="#000" stroke-width="1.024" fill="none"/></svg>