<svg xmlns="http://www.w3.org/2000/svg" height="512" width="512" viewBox="0 0 512 512"><g fill-rule="evenodd"><path fill="#ffe800" d="M0 0h511.993v511.984H0z"/><path fill="#00148e" d="M0 255.992h511.993v255.992H0z"/><path fill="#da0010" d="M0 383.993h511.993v128H0z"/></g><g fill-rule="evenodd"><path d="M213.47 244.16l-54.66 57.728-.964-1.24 54.662-57.728.963 1.24zm38.082 9.434L180.018 329l-1.254-1.186 71.533-75.407 1.255 1.187z"/><path d="M478.35 60.236v88.583l17.717 88.58 17.717-88.583V60.235H478.35z" transform="matrix(-.052 -.05 -.067 .068 210.06 348.857)" stroke="#000" stroke-width="4.104" fill="#808080"/><path d="M478.35 60.236v88.583l17.717 88.58 17.717-88.583V60.235H478.35z" transform="matrix(-.052 -.05 -.067 .068 191.615 319.402)" stroke="#000" stroke-width="4.104" fill="#808080"/></g><path d="M301.18 272.84s-17.716 336.61 53.15 336.61 106.3-35.433 106.3-35.433l-.86-185.03-158.59-116.15z" fill-rule="evenodd" transform="matrix(.34 0 0 .486 64.646 -20.46)" stroke="#000" stroke-width="1pt" fill="#ffdf00"/><path d="M344.46 304.2c0 17.717-7.846 269.82 27.587 269.82s88.583-17.717 88.583-17.717l-.86-167.31-115.31-84.79z" fill-rule="evenodd" transform="matrix(.34 0 0 .486 64.646 -20.46)" stroke="#000" stroke-width="1pt" fill="#0000c4"/><path d="M367.52 321.16c0 17.717 4.525 217.42 39.958 217.42h53.15l-.86-149.59-92.248-67.833z" fill-rule="evenodd" transform="matrix(.34 0 0 .486 64.646 -20.46)" stroke="#000" stroke-width="1pt" fill="#e10000"/><path d="M165.66 112.217l54.66 57.728.965-1.24-54.662-57.728-.964 1.24z" fill-rule="evenodd"/><path d="M301.18 272.84s-35.433 336.61 70.866 336.61c88.583 0 88.583-53.15 106.3-53.15l-17.72-124.02-159.45-159.44z" fill-rule="evenodd" stroke="#000" stroke-width="1pt" fill="#ffdf00" transform="matrix(.44 0 0 .465 17.296 16.967)"/><g stroke="#000"><path d="M184.304 171.62c.33-.022 11.785-25.48 40.088-41.4" fill="none"/><path d="M182.54 146.81c3.988 1.905 6.497 4.09 8.778 6.64-4.58-.97-6.93-1.35-10.92-3.254s-7.008-4.82-9.407-7.183c2.977.94 7.56 1.894 11.55 3.798z" fill-rule="evenodd" fill="#005b00"/><path d="M194.968 161.514c.273.537-.027 1.26-.67 1.618s-1.385.21-1.657-.326.03-1.26.67-1.618 1.387-.21 1.66.326z" fill-rule="evenodd" fill="#f00"/><path d="M204.632 130.255c-1.74 4.533-3.653 7.518-5.857 10.308.992-5.038 1.404-7.61 3.145-12.143s4.28-8.164 6.333-11.056c-.9 3.316-1.88 8.357-3.62 12.89zm-3.177-.07c-.417 4.442-1.332 7.875-2.537 11.36-.326-4.31-.57-6.45-.154-10.892s1.71-8.76 2.765-12.22c.006 3.002.34 7.31-.076 11.75zm3.51 5.865c-2.356 2.646-4.34 3.76-6.433 4.46 2.086-3.714 3.098-5.688 5.456-8.335s4.892-3.83 6.93-4.744c-1.513 2.244-3.594 5.97-5.952 8.62zM186.33 144c2.54 3.228 3.728 6.285 4.576 9.65-3.415-2.437-5.218-3.568-7.757-6.796s-3.85-7.206-4.877-10.414c2.092 1.906 5.517 4.332 8.056 7.56zm-8.74 18.832c3.444 2.774 5.276 5.63 6.75 8.858-4.367-1.816-6.65-2.618-10.095-5.392s-5.552-6.534-7.21-9.57c2.732 1.527 7.108 3.33 10.554 6.104zm15.838-1.278c-2.63 4.352-5.485 7.283-8.767 10.06 1.538-4.756 2.185-7.176 4.814-11.528s6.416-7.935 9.48-10.792c-1.375 3.15-2.896 7.908-5.525 12.26zm4.277 4.28c-4.388 3.03-8.196 4.576-12.256 5.778 3.743-3.916 5.542-5.97 9.93-8.998s9.276-4.785 13.207-6.166c-2.76 2.433-6.495 6.36-10.883 9.387zm28.88-38.407c-1.85 2.23-3.51 3.6-5.303 4.826 1.51-2.6 2.23-3.94 4.078-6.17s3.992-3.87 5.716-5.17c-1.137 1.68-2.643 4.284-4.492 6.514zm-1.925-.78c-1.09 2.358-2.27 4.106-3.626 5.846.638-2.38.906-3.57 1.994-5.927s2.653-4.537 3.92-6.282c-.57 1.63-1.2 4.007-2.29 6.364zm1.41 4.323c-1.867 1.125-3.234 1.464-4.587 1.564 1.907-1.743 2.863-2.682 4.73-3.806s3.57-1.426 4.93-1.65c-1.3 1.018-3.204 2.768-5.072 3.892zm-24.547 15.252c-3.446 2.085-6.255 3.25-9.176 4.225 3.163-2.574 4.71-3.914 8.156-6s7.013-3.443 9.877-4.517c-2.255 1.627-5.412 4.206-8.857 6.292zm11.18-.914c-4.57 2.72-8.44 3.99-12.53 4.894 4.018-3.665 5.963-5.6 10.533-8.32s9.518-4.12 13.495-5.212c-2.92 2.243-6.926 5.918-11.495 8.638z" fill-rule="evenodd" fill="#005b00"/><path d="M182.702 189.3c.3-.17-2.528-23.935 15.882-48.527" fill="none"/><path d="M212.122 137.318c.273.537-.027 1.26-.67 1.618s-1.385.21-1.657-.326.027-1.26.67-1.618 1.385-.21 1.657.326zm8.138-4.802c.273.537-.027 1.26-.67 1.618s-1.385.21-1.657-.326.027-1.26.67-1.618 1.385-.21 1.657.326zm-29.203 14.498c.203.407-.165 1.04-.82 1.416s-1.356.35-1.56-.056.165-1.04.822-1.416 1.352-.35 1.556.056zm2.353-1.022c.202.407-.166 1.04-.822 1.416s-1.355.35-1.558-.056.164-1.04.82-1.416 1.355-.35 1.56.056zm-1.353 2.19c.203.407-.165 1.04-.82 1.416s-1.356.35-1.56-.056.165-1.04.822-1.416 1.352-.35 1.556.056zm9.38-.5c.3.6-.034 1.403-.747 1.797s-1.535.227-1.836-.37.033-1.4.746-1.796 1.536-.23 1.837.368zm1.733-1.794c.302.598-.033 1.402-.746 1.796s-1.535.23-1.836-.368.033-1.402.746-1.796 1.536-.23 1.837.368zm.437.862c.3.6-.034 1.403-.747 1.797s-1.535.23-1.836-.368.033-1.404.746-1.798 1.536-.23 1.837.368z" fill-rule="evenodd" fill="#f00"/></g><path d="M336.61 308.27c0 17.717-35.433 212.6 53.15 265.75 35.433 17.716 88.582-17.717 88.582 0l-17.71-141.74-124.02-124.01z" fill-rule="evenodd" transform="matrix(.44 0 0 .465 17.296 16.967)" stroke="#000" stroke-width="1pt" fill="#0000c4"/><path d="M372.05 343.7c0 17.717-17.716 159.45 35.433 194.88 35.433 35.433 124.02 25.822 124.02 25.822l-70.87-132.12-88.58-88.58z" fill-rule="evenodd" stroke="#000" stroke-width="1pt" fill="#e10000" transform="matrix(.44 0 0 .465 17.296 16.967)"/><path d="M148.788 143.962l71.534 75.408 1.255-1.187-71.534-75.407-1.255 1.186z" fill-rule="evenodd"/><path d="M460.63 184.25l17.716 35.433V237.4c-.865-1.305 0 17.716-17.716 17.716-17.717 0-17.717-35.433-17.717-35.433s-17.716 35.433-17.716 70.866 17.716 53.15 17.716 53.15-2.61-36.706 17.717-35.436c20.328 1.27 17.716 17.716 17.716 17.716v35.434h17.717v-141.73l17.717-35.433-27.136-53.15-26.014 53.15z" fill-rule="evenodd" transform="matrix(.102 -.107 .08 .082 75.203 169.68)" stroke="#000" stroke-width="1pt" fill="#cececc"/><path d="M557.82 95.67l-26.323 70.865 17.717 53.15-35.433-17.716 35.436 53.146v35.433h17.716v-35.43l35.434-53.15-35.433 17.716 17.718-53.15-26.83-70.866z" fill-rule="evenodd" transform="matrix(.08 -.12 .105 .07 96.06 163.395)" stroke="#000" stroke-width="1pt" fill="#cececc"/><path d="M422.53 136.96c0 2.068-1.958 3.746-4.37 3.746-2.413 0-4.372-1.678-4.372-3.746s1.96-3.747 4.37-3.747c2.414 0 4.372 1.68 4.372 3.747zm-6.244 7.91c0 35.8 20.917 187.81 22.582 191.56.14 4.44-4.718 6.382-7.077.832-6.55-17.342-20.74-159.91-21.33-193.22-.244-13.734 3.76-14.8 8.326-14.57 3.76.21 8.325 3.725 8.325 7.91 0 4.995-5.83 8.74-10.823 7.492z" fill-rule="evenodd" transform="matrix(.303 0 0 .234 43.048 77.33)" stroke="#000" stroke-width="1pt" fill="#e10000"/><path d="M422.53 136.96c0 2.068-1.958 3.746-4.37 3.746-2.413 0-4.372-1.678-4.372-3.746s1.96-3.747 4.37-3.747c2.414 0 4.372 1.68 4.372 3.747zm-6.244 7.91c31.488 61.414 48.722 166.77 50.387 170.52.14 4.44-4.718 6.382-7.077.832-2.48-3.315-12.667-100.18-49.138-172.18-.244-13.734 3.76-14.8 8.326-14.57 3.76.21 8.325 3.725 8.325 7.91 0 4.995-5.83 8.74-10.826 7.492z" fill-rule="evenodd" transform="matrix(.285 .07 -.114 .22 67.428 53.448)" stroke="#000" stroke-width="1pt" fill="#0000c4"/><path d="M422.53 136.96c0 2.068-1.958 3.746-4.37 3.746-2.413 0-4.372-1.678-4.372-3.746s1.96-3.747 4.37-3.747c2.414 0 4.372 1.68 4.372 3.747zm-6.244 7.91c0 35.8 20.917 187.81 22.582 191.56.14 4.44-4.718 6.382-7.077.832-6.55-17.342-20.74-159.91-21.33-193.22-.244-13.734 3.76-14.8 8.326-14.57 3.76.21 8.325 3.725 8.325 7.91 0 4.995-5.83 8.74-10.823 7.492z" fill-rule="evenodd" transform="matrix(.387 0 0 .38 -8.547 87.337)" stroke="#000" stroke-width="1pt" fill="#e10000"/><path d="M422.53 136.96c0 2.068-1.958 3.746-4.37 3.746-2.413 0-4.372-1.678-4.372-3.746s1.96-3.747 4.37-3.747c2.414 0 4.372 1.68 4.372 3.747zm-6.244 7.91c31.488 61.414 48.722 166.77 50.387 170.52.14 4.44-4.718 6.382-7.077.832-2.48-3.315-12.667-100.18-49.138-172.18-.244-13.734 3.76-14.8 8.326-14.57 3.76.21 8.325 3.725 8.325 7.91 0 4.995-5.83 8.74-10.826 7.492z" fill-rule="evenodd" transform="matrix(.365 .112 -.145 .36 22.607 48.482)" stroke="#000" stroke-width="1pt" fill="#0000c4"/><g fill-rule="evenodd"><path d="M289.63 244.16l54.663 57.728.963-1.24-54.66-57.728-.965 1.24zm-38.08 9.434L323.086 329l1.254-1.186-71.535-75.407-1.254 1.187z"/><path d="M478.35 60.236v88.583l17.717 88.58 17.717-88.583V60.235H478.35z" transform="matrix(.052 -.05 .067 .068 293.042 348.857)" stroke="#000" stroke-width="4.104" fill="#808080"/><path d="M478.35 60.236v88.583l17.717 88.58 17.717-88.583V60.235H478.35z" transform="matrix(.052 -.05 .067 .068 311.488 319.402)" stroke="#000" stroke-width="4.104" fill="#808080"/></g><g fill-rule="evenodd"><path d="M301.18 272.84s-17.716 336.61 53.15 336.61 106.3-35.433 106.3-35.433l-.86-185.03-158.59-116.15z" transform="matrix(-.34 0 0 .486 438.465 -20.46)" stroke="#000" fill="#ffdf00"/><path d="M344.46 304.2c0 17.717-7.846 269.82 27.587 269.82s88.583-17.717 88.583-17.717l-.86-167.31-115.31-84.79z" transform="matrix(-.34 0 0 .486 438.465 -20.46)" stroke="#000" fill="#0000c4"/><path d="M367.52 321.16c0 17.717 4.525 217.42 39.958 217.42h53.15l-.86-149.59-92.248-67.833z" transform="matrix(-.34 0 0 .486 438.465 -20.46)" stroke="#000" fill="#e10000"/><path d="M337.452 112.217l-54.662 57.728-.963-1.24 54.662-57.728.96 1.24z"/><path d="M295.714 155.41s15.55 19.537 23.01 34.76c7.456 15.224 16.12 38.537 16.12 38.537s-4.884-23.026-14.28-41.358c-12.307-22.998-24.86-30.61-24.85-31.94zm-3.194-15.064s16.78 23.38 24.44 40.85c7.656 17.472 16.174 43.784 16.174 43.784s-4.14-25.4-13.846-46.505c-12.776-26.557-26.87-36.706-26.77-38.13zm16.577-22.576s12.28 35.913 16.038 58.094c3.758 22.18 6.076 52.713 6.076 52.713s2.29-25.583-2.753-52.81c-6.974-34.802-19.855-56.88-19.358-57.996zm-12.527-2.18s16.258 32.05 22.498 53.85c6.24 21.8 11.99 53.306 11.99 53.306s-.613-28.615-8.7-55.15c-10.86-33.64-26.154-50.55-25.786-52.007zm21.225 9.023s8.554 34.56 10.784 55.272c2.227 20.71 3.015 48.745 3.015 48.745s2.72-22.786-.362-48.28c-4.358-32.674-13.874-54.81-13.438-55.737zm-23.645 1.96s16.22 27.55 22.876 46.83c6.656 19.285 13.307 47.523 13.307 47.523s-1.853-26.17-10.403-49.585c-11.39-29.614-26.05-43.39-25.78-44.765zm-1.76 18.61s16.763 21.876 24.353 38.68 15.972 42.397 15.972 42.397-3.965-25.087-13.593-45.344c-12.686-25.44-26.846-34.296-26.732-35.733zm2.126-10.405s15.677 24.965 22.506 43.132c6.828 18.166 14.095 45.224 14.095 45.224s-2.93-25.71-11.635-47.7c-11.517-27.73-25.134-39.25-24.965-40.656zm18.35-16.268s10.258 35.205 12.796 56.67c2.537 21.465 3.194 50.804 3.194 50.804s3.652-24.274.108-50.654c-5.05-33.757-16.65-55.79-16.098-56.82zm-13.502-8.657s14.644 33.438 19.81 55.74c5.165 22.3 9.378 54.228 9.378 54.228s.762-28.574-6.016-55.763c-9.197-34.525-23.607-52.785-23.17-54.203zm22.03 18.2s6.542 33.094 7.585 52.723c1.04 19.627.235 46.04.235 46.04s3.992-21.233 2.375-45.418c-2.48-31.024-10.68-52.502-10.196-53.344zm-25.762-7.75s15.224 28.908 20.906 48.867c5.682 19.958 10.725 49.003 10.725 49.003s-.11-26.664-7.503-50.927c-9.963-30.72-24.51-45.56-24.127-46.942z" stroke="#000" fill="#005b00"/><path d="M301.18 272.84s-35.433 336.61 70.866 336.61c88.583 0 88.583-53.15 106.3-53.15l-17.72-124.02-159.45-159.44z" transform="matrix(-.44 0 0 .465 485.82 16.967)" stroke="#000" fill="#ffdf00"/><path d="M336.61 308.27c0 17.717-35.433 212.6 53.15 265.75 35.433 17.716 88.582-17.717 88.582 0l-17.71-141.74-124.02-124.01z" transform="matrix(-.44 0 0 .465 485.82 16.967)" stroke="#000" fill="#0000c4"/><path d="M372.05 343.7c0 17.717-17.716 159.45 35.433 194.88 35.433 35.433 124.02 25.822 124.02 25.822l-70.87-132.12-88.58-88.58z" transform="matrix(-.44 0 0 .465 485.82 16.967)" stroke="#000" fill="#e10000"/><path d="M354.328 143.963l-71.534 75.407-1.254-1.187 71.533-75.407 1.255 1.186z"/><path d="M460.63 184.25l17.716 35.433V237.4c-.865-1.305 0 17.716-17.716 17.716-17.717 0-17.717-35.433-17.717-35.433s-17.716 35.433-17.716 70.866 17.716 53.15 17.716 53.15-2.61-36.706 17.717-35.436c20.328 1.27 17.716 17.716 17.716 17.716v35.434h17.717v-141.73l17.717-35.433-27.136-53.15-26.014 53.15z" transform="matrix(-.102 -.107 -.08 .082 427.91 169.68)" stroke="#000" fill="#cececc"/><path d="M557.82 95.67l-26.323 70.865 17.717 53.15-35.433-17.716 35.436 53.146v35.433h17.716v-35.43l35.434-53.15-35.433 17.716 17.718-53.15-26.83-70.866z" transform="matrix(-.08 -.12 -.105 .07 407.057 163.395)" stroke="#000" fill="#cececc"/><path d="M422.53 136.96c0 2.068-1.958 3.746-4.37 3.746-2.413 0-4.372-1.678-4.372-3.746s1.96-3.747 4.37-3.747c2.414 0 4.372 1.68 4.372 3.747zm-6.244 7.91c0 35.8 20.917 187.81 22.582 191.56.14 4.44-4.718 6.382-7.077.832-6.55-17.342-20.74-159.91-21.33-193.22-.244-13.734 3.76-14.8 8.326-14.57 3.76.21 8.325 3.725 8.325 7.91 0 4.995-5.83 8.74-10.823 7.492z" transform="matrix(-.303 0 0 .234 460.08 77.33)" stroke="#000" fill="#e10000"/><path d="M422.53 136.96c0 2.068-1.958 3.746-4.37 3.746-2.413 0-4.372-1.678-4.372-3.746s1.96-3.747 4.37-3.747c2.414 0 4.372 1.68 4.372 3.747zm-6.244 7.91c31.488 61.414 48.722 166.77 50.387 170.52.14 4.44-4.718 6.382-7.077.832-2.48-3.315-12.667-100.18-49.138-172.18-.244-13.734 3.76-14.8 8.326-14.57 3.76.21 8.325 3.725 8.325 7.91 0 4.995-5.83 8.74-10.826 7.492z" transform="matrix(-.285 .07 .114 .22 435.684 53.448)" stroke="#000" fill="#0000c4"/><path d="M422.53 136.96c0 2.068-1.958 3.746-4.37 3.746-2.413 0-4.372-1.678-4.372-3.746s1.96-3.747 4.37-3.747c2.414 0 4.372 1.68 4.372 3.747zm-6.244 7.91c0 35.8 20.917 187.81 22.582 191.56.14 4.44-4.718 6.382-7.077.832-6.55-17.342-20.74-159.91-21.33-193.22-.244-13.734 3.76-14.8 8.326-14.57 3.76.21 8.325 3.725 8.325 7.91 0 4.995-5.83 8.74-10.823 7.492z" transform="matrix(-.387 0 0 .38 511.648 87.337)" stroke="#000" fill="#e10000"/><path d="M422.53 136.96c0 2.068-1.958 3.746-4.37 3.746-2.413 0-4.372-1.678-4.372-3.746s1.96-3.747 4.37-3.747c2.414 0 4.372 1.68 4.372 3.747zm-6.244 7.91c31.488 61.414 48.722 166.77 50.387 170.52.14 4.44-4.718 6.382-7.077.832-2.48-3.315-12.667-100.18-49.138-172.18-.244-13.734 3.76-14.8 8.326-14.57 3.76.21 8.325 3.725 8.325 7.91 0 4.995-5.83 8.74-10.826 7.492z" transform="matrix(-.365 .112 .145 .36 480.487 48.482)" stroke="#000" fill="#0000c4"/></g><g fill-rule="evenodd" stroke="#000" stroke-width="1pt"><path d="M227.77 341.55c7.795 4.954 16.32 3.846 23.386 0v-65.904h-15.59c7.795 24.715 7.795 49.43-7.796 65.905z" fill="#e10000"/><path d="M239.378 276.124c0 46.417-11.254 56.733-11.254 66.013 4.695 0 7.808-4.322 11.254-10.315 4.694-9.283 5.148-56.424 4.694-55.7h-4.694zm-9.388 0c-.216 27.127-11.872 52.21-9.673 57.766 2.51 4.964 9.672-11.347 19.06-2.063 4.697-9.284 5.15-56.425 4.697-55.702H229.99z" fill="#0000c4"/><path d="M231.1 276.452c0 31.004-10.785 33.065-10.785 41.332 4.695 0 10.76-4.52 10.785-4.126 4.694-6.202 5.148-37.69 4.694-37.206H231.1zm-9.39 0c-.214 18.12-11.588 33.496-9.39 37.205 2.512 3.317 9.39-6.2 18.78 0 4.696-6.2 5.15-37.688 4.696-37.205H221.71z" fill="#ffdf00"/><path d="M275.346 341.558c-7.795 4.953-16.32 3.837-23.386-.007v-65.9h15.59c-7.795 24.717-7.795 49.43 7.796 65.907z" fill="#e10000"/><path d="M263.734 276.13c0 46.416 11.254 56.732 11.254 66.012-4.695 0-7.808-4.322-11.254-10.315-4.694-9.283-5.148-56.424-4.694-55.7h4.694zm9.39 0c.214 27.126 11.87 52.21 9.67 57.765-2.51 4.964-9.67-11.347-19.06-2.063-4.696-9.284-5.15-56.425-4.696-55.702h14.085z" fill="#0000c4"/><path d="M272.016 276.46c0 31.003 10.785 33.064 10.785 41.33-4.693 0-10.76-4.518-10.783-4.126-4.694-6.2-5.148-37.688-4.694-37.205h4.694zm9.39-.008c.214 18.12 11.59 33.496 9.39 37.205-2.51 3.317-9.39-6.2-18.78 0-4.695-6.2-5.15-37.688-4.695-37.205h14.086z" fill="#ffdf00"/></g><g stroke="#000" fill-rule="evenodd"><path d="M192.287 282.715l-8.07 6.024 8.07 6.02 4.036-3.01 2.018 3.01 2.02 6.025 2.017-6.024 2.018-3.01h108.17v-6.024h-108.17l-2.018-3.012c0-3.012.423-6.024 2.018-6.024h8.07c0-3.01-4.035-9.035-12.106-9.035-8.07 0-12.106 6.024-12.106 9.036h8.07c1.595 0 2.018 3.014 2.018 6.025l-2.02 3.012-4.034-3.012z" fill="#908f8a"/><path fill="#b74d00" d="M216.013 296.994h70.69v3.667h-70.69zm0-3.667h70.69v3.667h-70.69zM204.35 74.287h70.688v3.668H204.35zm11.663 211.705h70.69v3.668h-70.69zM204.35 38.855h70.688v3.667H204.35zm11.663 239.803h70.69v3.667h-70.69zM204.35 3.422h70.688V7.09H204.35z"/><path d="M220.18 275l26.18 25.673h3.74L223.92 275h-3.74zm0 25.64l26.18-25.67h3.74l-26.18 25.67h-3.74zm-.428-25.64v25.673h3.72V275h-3.72zm33.892 0l26.182 25.673h3.74L257.384 275h-3.74zm0 25.64l26.182-25.67h3.74l-26.182 25.67h-3.74zM279.25 275v25.673h3.72V275h-3.72zm-26.03 0v25.673h3.72V275h-3.72zm-7.438 0v25.673h3.72V275h-3.72z" fill="#908f8a"/></g><path d="M305.72 201.502c0 40.928-24.446 74.144-54.568 74.144-30.12 0-54.57-33.216-54.57-74.144 0-40.927 24.447-74.144 54.57-74.144 30.12 0 54.568 33.216 54.568 74.144zM647.715 396.85c0 36.38-20.954 65.904-46.772 65.904-25.818 0-46.772-29.525-46.772-65.904 0-36.38 20.955-65.904 46.774-65.904 25.817 0 46.772 29.526 46.772 65.904zm-375.33-263.66c-6.527-3.754-13.702-5.83-21.233-5.83s-14.705 2.076-21.233 5.83l3.03 7.59c5.596-3.337 11.747-5.183 18.2-5.183s12.607 1.845 18.2 5.182l3.035-7.59zm.09 137c-6.527 3.754-13.702 5.83-21.233 5.83s-14.705-2.076-21.233-5.83l3.03-7.59c5.596 3.337 11.747 5.183 18.2 5.183s12.607-1.845 18.2-5.182l3.035 7.59z" stroke="#000" stroke-width="1pt" fill="#ffdf00" fill-rule="evenodd"/><path d="M297.928 201.502c0 36.4-20.94 65.905-46.772 65.905-25.83 0-46.772-29.507-46.772-65.905 0-36.4 20.94-65.904 46.772-65.904 25.83 0 46.772 29.507 46.772 65.904z" fill-rule="evenodd" fill="#a7cfff"/><path d="M637.8 396.85c1.133 26.658-4.634 39.635-11.89 67.356-1.912 2.98-10.966-6.537-16.447-11.236s-7.812 4.24-14.537-3.046c-6.725-7.284-11.05 2.058-15.983-4.095s-51.3-7.06-51.366-7.588c4.59-2.276 28.27.152 24.474-11.193-4.3-11.72-31.09-.35-34.69-15.365-2.44-14.907-53.565-15.543-57.22-19.225 1.446 5.666 39.73 8.05 38.816 22.57-.833 5.917-37.693 7.646-41.247 12.653-3.046 6.295 28.926-1.707 30.113 6.032-.077 3.185-4.704.068-21.357 4.99-8.326 2.46 15.454 10.33 6.41 14.637-9.045 4.308-28.26 6.188-27.433 7.998 2.94 8.908 44.693 19.536 40.535 21.065-14.754 6.56-22.552 10.872-29.627 14.652-19.24-25.653-31.145-61.087-31.145-100.2 31.716-11.405 24.968-13.735 83.645-13.735s77.98 2.33 128.95 13.735z" fill-rule="evenodd" stroke="#000" stroke-width="1pt" fill="#afff7b" transform="matrix(.44 0 0 .465 17.296 16.967)"/><path d="M637.8 396.85c-8.07 0-16.454 3.4-25.07 3.4-8.617 0-17.465-3.4-26.466-3.4s-19.287 4.532-28.512 4.532c-9.224 0-17.388-4.53-26.676-4.53-9.287 0-18.566 3.397-27.755 3.397s-18.286-3.4-27.216-3.4-17.69 3.4-26.2 3.4-16.77-3.4-24.7-3.4c0-19.56 2.976-38.2 8.358-55.15 27.076 2 11.043-15.718 27.076-15.718 8.655 0 17.434 1.86 25.238 9.788 2.447 0 14.48-11.372 27.912-9.787 13.432 1.586 8.492 27.272 26.37 28.637 9.063 6.797 14.393 11.134 26.78 13.872 17.716 1.606 68.35-2.5 68.704-.194a188.21 188.21 0 0 1 2.16 28.552z" fill-rule="evenodd" stroke="#000" stroke-width="1pt" fill="#fff" transform="matrix(.44 0 0 .465 17.296 16.967)"/><path d="M549.85 473.94c0-5.664 13.512-9.462 13.512-18.524s-11.914-9.35-12.38-17.86c-.2-3.46 10.32-7.046 14.915-7.335s8.493 7.42 8.493 9.12-4.662-4.19-8.578-4.376-12.313.63-12.313 2.33c0 3.4 14.85 7.598 13.715 18.925-1.132 11.326-12.71 14.656-12.71 18.054s5.056 12.86 5.056 12.86-9.712-7.53-9.712-13.192z" fill-rule="evenodd" transform="matrix(.155 0 0 .363 173.98 69.56)" stroke="#000" stroke-width="1pt"/><path d="M549.85 473.94c0-5.664 13.512-9.462 13.512-18.524s-11.95-9.348-12.38-17.86c-.946-3.962 11.814-6.544 16.41-6.833s9.985 7.92 9.985 9.62-5.41-5.195-9.325-5.38-14.553.63-14.553 2.33c0 3.398 14.85 7.597 13.715 18.924-1.132 11.327-12.71 14.657-12.71 18.055s5.056 12.86 5.056 12.86-9.712-7.53-9.712-13.192z" fill-rule="evenodd" transform="matrix(-.155 0 0 .363 346.52 69.267)" stroke="#000" stroke-width="1pt"/><path d="M261.336 224.545c0 1.006-.492 1.82-1.098 1.82-.606 0-1.098-.814-1.098-1.82s.492-1.822 1.098-1.822c.606 0 1.098.816 1.098 1.822zm14.108 5.415h.352v14.712h-.352zm3.172-1.116h.353v14.712h-.356zm-2.463 8.066l.003-.37 3.002.515-.003.372z" fill-rule="evenodd"/><path d="M497.26 478.07s26.052 11.328 31.716 18.124c5.664 6.797 3.398 6.796 3.398 6.796l57.77 2.266c0-3.398 10.193-3.4 12.46-11.328 2.264-7.93 2.264-10.194 2.264-10.194l-18.123 5.664 1.132-10.194H572.02l-2.266 10.194-33.982-1.133 2.266-27.186-6.796 1.13-1.133 26.053c-1.136 0-31.72-7.93-32.85-10.195z" fill-rule="evenodd" transform="matrix(.44 0 0 .465 15.3 17.494)" stroke="#000" stroke-width="1pt" fill="#b74d00"/><path d="M440.53 316.28s37.645-11.214 92.11-10.413 92.11 12.815 91.31 12.815-10.414-18.422-10.414-18.422-38.446-10.412-81.697-11.213c-43.255-.8-80.9 8.01-80.1 8.81l-11.21 18.423z" fill-rule="evenodd" stroke="#fede00" stroke-width="1pt" fill="#fede00" transform="matrix(.44 0 0 .465 17.296 16.967)"/><path fill-rule="evenodd" fill="#38a9f9" d="M241.038 152.85l10.236-.2.103 5.965-10.236.198zm-23.622 3.245l-3.61 5.875 12.2-1.503-.978-5.874-7.612 1.502zm10.4-2.26l10.202-.897.468 5.944-10.202.897zm36.86-.61l-10.218-.685-.36 5.953 10.218.686zm22.024 3.74l3.713 7.312-11.05-2.727 1.23-5.822 6.108 1.236zm-8.857-2.127l-10.154-1.382-.725 5.916 10.154 1.382z"/><path fill="#ffdf00" fill-rule="evenodd" stroke="#000" stroke-width="1pt" d="M532.64 323.49l-2.58-13.47-7.54 11.46 2.77-13.43-11.34 7.7 7.7-11.35-13.43 2.78 11.45-7.54-13.47-2.58 13.47-2.58-11.45-7.53 13.43 2.77-7.7-11.35 11.34 7.7-2.77-13.43 7.54 11.46 2.58-13.47 2.57 13.47 7.54-11.46-2.77 13.43 11.35-7.7-7.71 11.35 13.44-2.77-11.46 7.53 13.47 2.58-13.47 2.58 11.46 7.54-13.44-2.78 7.71 11.35-11.35-7.7 2.77 13.43-7.54-11.46z" transform="matrix(.44 0 0 .465 17.296 16.967)"/><path d="M547.05 293.86c0 9.29-6.634 16.82-14.818 16.82s-14.818-7.53-14.818-16.82 6.634-16.82 14.818-16.82 14.818 7.53 14.818 16.82z" fill-rule="evenodd" transform="matrix(.43 0 0 .388 23.813 41.07)" stroke="#000" stroke-width="1pt" fill="#ffdf00"/><path d="M252.06 153.375c0 .412-.948.746-2.118.746s-2.118-.33-2.118-.743.948-.746 2.118-.746 2.118.334 2.118.746zm4.588 0c0 .41-.71.745-1.588.745s-1.59-.334-1.59-.746c0-.41.712-.745 1.59-.745s1.588.33 1.588.742z" fill-rule="evenodd"/><path d="M529.43 297.86l.8.8c-1.9-1.9-.995-1.125 1.603 3.204 2.393-.495 3.09-1.39 4.806-2.403" transform="matrix(.423 -.132 .125 .446 -10.137 93.053)" stroke="#000" stroke-width="1pt" fill="none"/><path d="M527.83 304.27l.8.8c-1.9-1.9-1.123-.994 3.205 1.603 4.027.544 8.092-1.196 10.412-4.005" transform="matrix(.44 0 0 .465 16.59 16.967)" stroke="#000" stroke-width="1pt" fill="none"/><path d="M223.462 170.743s.705 5.958-3.876 13.407c-4.582 7.45-3.877 4.842-3.877 4.842s2.112 4.097 1.76 4.097-3.525-3.727-3.525-3.727l-3.876 4.096s3.524-6.33 3.172-6.33-1.058-2.236-1.058-2.236l2.82-1.117s4.23-7.82 4.23-7.45-12.69 8.567-12.69 8.567l16.917-14.152zm2.82 2.237c-.352 0 1.763 5.96 3.525 8.938 1.762 2.98 1.762 6.704 1.762 6.704l5.99 2.98-7.755-11.546 4.934 1.862-8.458-8.94zm0 15.642s4.23 4.47 4.58 5.96.355 4.84.355 4.84l-1.762-3.724-2.467 3.352s1.762-5.214 1.41-5.587-2.82 1.863-2.82 1.863 1.057-2.98 1.057-3.353 0-2.234-.352-3.35zm-21.146 10.425c1.41-1.117 4.23-1.862 4.23-1.862s-1.763 2.98-2.115 2.98-1.41 0-2.112-1.118zm48.634-16.387s9.162 5.587 9.162 5.96-5.99-2.607-5.99-2.607l-3.172-3.353zm-16.562-11.545c.705.372 13.392 10.8 13.04 10.8s-5.64-2.98-5.64-2.607v2.607l-2.82-5.96-.704 2.236-3.876-7.073zm3.168 16.758l3.524 7.076 3.524-.747s-6.696-6.332-7.048-6.332zm10.93-4.47c0 1.12.352 6.705.352 6.705s2.115 1.863 2.115 1.49-2.115-7.82-2.467-8.194z" fill-rule="evenodd" fill="#b7e1ff"/><path d="M147.855 92.216s15.836-8.76 33.865-15.286c18.03-6.525 38.253-10.812 40.925-10.812 5.343 0 14.5 13.422 16.027 13.422 1.526 0 7.63-3.728 15.263-3.728s12.21 5.965 13.737 5.965h13.737c1.523 0-4.58-14.914 0-14.168 2.286.37 21.75 3.353 39.873 9.225 18.124 5.872 43.854 16.24 43.854 16.24s-42.052 5.615-53.203 3.954c-1.526.745-.075 9.863-2.214 5.852-3.512-.802-16.41-2.813-18.7-2.813s-6.56 2.585-12.664 4.077c-6.105 1.49-13.737 3.728-13.737 3.728l9.92 15.66-12.21 5.965s-7.63-17.895-10.684-17.895-4.58 12.677-8.395 11.93c-3.815-.744-5.34-11.93-8.394-14.912-3.053-2.983-19.147-4.07-25.253-5.56-6.105-1.49-15.96-2.643-21.3-4.134-5.343-1.494-10.685 3.726-12.974 3.726-2.29 0 3.052-4.474.763-5.22s-3.816 2.238-5.342 2.238c-1.526 0-17.552-2.983-19.08-3.73-1.525-.745 3.818-3.727 2.29-3.727h-6.104z" fill-rule="evenodd" fill="#984000"/><path d="M462.91-64.94c0 21.15-20.5 38.298-45.79 38.298S371.327-43.79 371.327-64.94s20.5-38.298 45.79-38.298S462.91-86.09 462.91-64.94z" fill-rule="evenodd" transform="matrix(.165 0 0 .2 184.85 97.497)" stroke="#772600" stroke-width="3.706" fill="#808080"/><path d="M284.74-59.945c6.66-6.66 14.987-16.65 36.633-16.65 4.996-1.666 4.996-11.657 16.65-11.657 11.657 0 8.327 9.99 16.653 13.32 8.325 3.33 76.596-3.33 76.596-3.33s6.66 4.996 6.66 11.657c0 6.66-4.995 11.656-6.66 11.656s-68.27-4.993-73.266-3.33c-4.995 1.668-8.326 3.33-19.982 3.33-11.655 0-14.986-11.653-23.31-11.653-8.327 0-16.653-1.665-29.974 6.66z" fill-rule="evenodd" transform="matrix(.206 0 0 .24 165.048 100.617)" stroke="#772600" stroke-width="5.25" fill="#984000"/><path d="M487.88-76.597h26.642c9.572.114 12.873 3.005 21.647 3.33h23.31c8.474-.314 12.95-2.295 21.646-3.33 14.504-.175 9.555-1.306 6.66-9.99-2.625-6.565-2.95-9.61-6.66-13.322-1.396-7.942-4.655-10.77-4.996-19.98-1.526-7.025-4.34-11.75-1.664-19.98 3.84 5.646 5.387 7.97 14.986 8.325 10.045 0 13.937-.206 19.982 3.33 4.663 4.89 10.886 3.33 19.982 3.33 7.677 1.406 8.96 5.313 14.986 8.326 7.103 3.936 11.694 4.996 21.646 4.996 7.967 1.422 14.88 2.578 19.98 4.995 4.25 5.08 10.952 6.34 19.983 6.66 5.05 0 8.95-.523 13.32-1.664 7.68.37 15.476 0 24.98 0 6.163 7.21 7.587 9.862 18.317 9.99 7.338 5.155 13.527 6.037 19.982 8.327h24.975c8.928.687 11.79 4.35 19.98 6.66 8.115 3.768 15.722 6.35 21.648 8.326 5.89 1.28 13.574 1.664 21.646 1.664 6.182 3.175 13.61 3.46 18.316 6.66 6.89 1.477 16.302 3.215 21.647 4.996 8.816 1.167 12.187 3.94 19.98 4.994 6.704 1.915-2.223 3.56-6.66 4.995-9.826-.366-10.536-3.948-19.98-4.997-5.024-2.94-12.64-2.548-19.982-4.996h-1.665c6.6 3.903 12.948 6.422 9.99 13.32-8.49 0-15.366-1.097-23.31-1.665-8.385-1.616-12.227-3.33-21.647-3.33 9.394-2.264 11.854.27 18.315 3.33 2.396 8.06-2.725 4.996-11.656 4.996-7.61-2.73-12.174-5.984-21.648-6.66h-19.98c9.89.365 11.975 4.1 18.314 8.325.518 2.59-.132 2.472-4.995 3.33-5.16-4.478-11.89-6.013-19.983-8.326-7.88-.28-16.217-.966-23.31-3.33-4.868-.305-4.117-6.178 6.66 3.33 6.532 3.842 8.832 6.945 8.325 9.99-8.575-2.144-12.824-5.58-18.316-8.325-7.736-2.855-14.128-3.33-23.312-3.33-8.61-2.266.894-3.574 6.66 4.995 12.38 8.77-1.632 5.007-6.66 3.33-7.507-2.144-15.284-5.184-21.646-6.66-5.046-1.44-9.44-2.855-14.986-3.33 8.63.785 11.57 3.823 14.986 9.99 8.755 6.032-.384 3.1-8.326 1.666-5.07-4.402-11.487-6.658-14.986-11.656-8.35-4.176-8.563-8.982-3.33 1.665 1.363 3.407 1.11 10.795 1.665 11.656-6.136-6.624-4.825-8.324-11.656-8.324-4.634-3.244-11.496-5.765-14.986-9.99-6.435-.604-6.84-2.9-13.32-4.996 5.34 6.273 12.39 12.478 16.65 18.315 7.598 4.242 9.7 8.06 14.987 11.656 2.14 3.64 7.904 6.657 1.665 1.666-7.145-7.043-12.46-8.67-23.313-13.32-6.15-4.96-8.37-7.045-14.986-11.657-9-2.906-5.506-4.544 0 4.994 6.32 5.77 11.17 12.23 16.654 16.65 3.767 4.908 10.136 10.12 14.986 13.322 1.5 2.25 5.99 2.664 0 3.33-5.09-4.598-12.4-7.53-18.318-11.656-8.302-2.34-12.19-6.65-18.316-11.654-3.9-5.85-10.383-10.38-14.987-14.986-9.63-3.77 1.9 3.636 4.993 8.325 2.153 6.068 4.788 11.035 6.66 16.65 2.78 5.56-8.47-1.327-11.655-3.33-7.32-4.157-12.675-6.937-21.648-8.325-5.98-1.3-13.602-2.468-19.982-3.33-7.614-2.05 4.042 4.8 8.326 11.656 8.418 7.908-8.332 1.425-13.32 0-8.224-1.645-16.288-1.666-24.978-1.666-10.67.628-3.05 1.947 0 6.66 3.287 2.53 5.637 7.855 4.995 9.992-7.03-.95-13.024-3.023-21.645-3.33-6.96 2.32-15.344 1.665-23.31 1.665-.382 4.19 1.443.654 4.994 4.995 5.763 2.34 9.585 5.177 8.326 8.326H497.87c-5.29 1.447 1.14.704 5 6.663-2.16 5.405-4.95 3.334-11.655 3.334-4.545-1.818-13.598-2.636-18.317-4.996-4.69 0-4.336-1.22-8.325-1.665 14.035 9.93 7.073 7.45 14.986 14.987 1.364.455 4.52 1.664 1.662 1.664M371.32 73.264c-.997 0-3.2-5.374-6.66-9.99-2.327-6.05-5.392-2.59-8.326-11.656.348-9.402.684-11.094 0-19.982-6.863-4.783-9.714-6.27-14.986-14.986-8.46-7.078 1.236-19.063 2.845-27.85-7.375-1.638-11 11.477-22.34 16.194-8.156 5.492-.912-11.354-4.892-21.188-2.772-13.872-10.823 6.956-13.91 12.862-5.465 3.718-7.126 8.542-14.984 1.665 0-5.144 4.937-19.49 2.845-22.28-7.814 3.815-18.087 15.49-26.157 17.284-8.13-1.767 1.77-14.828 1.77-24.518-2.938-.98-14.696 25.753-19.52 26-4.824.25-2.713-25.993-4.972-25.428-3.54 4.96-10.65 15.43-15.575 18.948-9.454-1.22 1.398-17.434 2.845-23.426 1.627-7.168-8.906 13.75-14.503 15.102-4.1 3.554-12.237 6.072-14.986 6.66 3.24-6.13 19.078-18.712 17.937-22.278-9.21.34-23.31 12.556-31.256 13.952-5.19 0-12.386 1.758-13.32 1.665.45-7.926 19.42-14.65 22.446-19.465-9.306 1.494-27.186 9.706-32.436 16.135-6.147 1.336-13.945 3.02-19.984 0 .897-7.475 14.856-21.998 17.936-26.758-8.396 3.697-12.642 6.59-21.647 8.325-1.652 1.652-6.524 5.23-4.995 1.665 2.656-6.945 6.676-10.11 9.99-14.986-7.45 1.366-10.28 5.636-18.315 9.99-5.094.224-19.646 14.857-24.596 15.105-11.45 8.382-16.01 9.807-28.31 13.32C65.674-15.3 62-13.722 58.275-9.995c3.796-6.688 9.597-13.093 14.986-16.65 3.678-5.568 7.12-10.196 14.987-13.32 1.896-2.32 7.187-2.907 1.664-3.33-4.746 4.235-12.696 8.964-16.65 11.654-5.102 3.205-11.01 6.48-13.322 4.993 2.62-7.197 7.438-8.902 11.657-14.986 8.81-5.604.04-1.914-6.66 0-4.34 3.868-12.123 6.727-18.317 9.992-7.112 1.855-11.702 6.13-19.98 8.325 0 2.375 2.365-4.25 3.33-6.66 6.83-7.41 8.657-9.476 16.65-11.657 1.913-2.867 4.42-1.665-1.664-1.665-4.515 4.024-10.81 6.212-16.65 9.99-5.893 1.282-13.576 1.666-21.65 1.666-10.354 1.243-9.46 2.025 0-3.33 5.358-5.04 9.77-3.775 9.99-9.99-6.256 4.53-13.87 7.86-21.648 11.657-6.434.19-8.133 1.665-14.985 1.665 3.298-3.414 5.277-7.632 9.99-9.99 6.896-7.662-4.377-1.477-6.66 0H-41.63c-4.465 5.58-.23.05 3.33-3.33 4.306-2.24 8.756-5.154 8.326-6.66-4.972 4.315-10.726 6.298-14.986 9.99-4.64 1.39-9.99 2.085-9.99 3.33 3.626-5.345 9.524-8.575 13.32-13.32 5.612-1.22 10.396-2.935 11.656-4.995h-23.312 16.65c8.4 0 15.63-.75 23.313-1.665 13.263-2.21-1.16-3.33-8.326-3.33-1.39-2.548 4.11-3.987 9.99-4.995 5.026-2.38 11.235-4.493 16.65-6.66 5.26-1.434 12.71-5.81 13.324-6.66-5.015.263-4.975 1.4-9.99 1.664 7.446-.574 12.8-1.666 21.646-1.666 8.027-2.58 14.905-5.41 21.646-8.326 2.936-3.588 4.24-3.33-3.33-3.33C55-93.74 64.524-94.776 69.933-96.578c7.872-1.687 14.9-4.253 19.982-6.66 4.876-3.316 7.69-7.176 13.32-9.99 6.528 4.437 6.602 4.994 18.318 4.994 9.41-.112 15.17-2.373 19.98-6.66 7.208-1.966 8.483-5.43 16.652-6.66 7.444 1.328 15.03 1.664 23.312 1.664 8.096-2.12 15.677-6.01 21.647-9.99 5.093-2.502 11.14-6.12 16.65-8.326 6.07 3.133 10.844 5.65 18.318 6.66 7.728-1.148 11.747-4.868 18.317-6.66 3.575-4.33 8.775-6.632 14.984-8.325 9.67-4.75 8.913 1.57 13.32 6.66 4.896 5.13 11.374 2.68 18.318 4.993 3.83 5.893 6.647 9.914 11.657 13.32 3.89 4.71 8.507 6.035 16.65 6.66 2.967 3.958.6 6.812 6.66 8.327 2.388 2.53 6.518 3.607 9.99 4.996" transform="matrix(.206 0 0 .24 165.048 103.825)" stroke="#772600" stroke-width="3.5" fill="none"/><path d="M468.74 30.803v.833c0-2.327-.103-1.09 1.665 3.33.595 3.64-.81 3.22-2.498 5.828-.286 3.723-.832 6.4-.832 10.823-.537 3.612-2.57 7.04-4.163 9.99-1.604 3.133-8.555 4.87-8.326 9.16-3.99 1.14-4.084-1.445-4.162-5.83-2.386-2.726-3.212-6.466-4.996-9.99-1.108-3.476-3.47-6.032-4.995-9.99-2.46-3.787-4.546-4.876-6.66-9.16-.827-2.065-.683-4.617-2.498-5.827-2.72-3.438-4.49-3.99-9.16-4.163-3.59.845-4.97 2.416-8.324 3.33-2.57.857-7.57.58-10.82 1.666-.81 1.314 1.6 1.94 2.497 4.995-2.135 1.764-2.926 4.883-4.163 7.493-1.965 2.49-3.283 3.708-4.163 7.496 1.363 2.316.2 5.387-1.665 7.493-.574 3.863-2.434 5.873-3.33 9.16-2.686 1.824-3.652 3.536-5.828 6.66-1.914 2.677-3.636 2.496-8.326 2.496-3.666-1-4.18-2.988-7.492-4.163-.352-1.056-.608-1.312-1.665-1.664" transform="matrix(.206 0 0 .24 165.048 103.825)" stroke="#782600" stroke-width="3.125" fill="none"/><path d="M242.23 119.397s-.345 3.74-2.75 6.233-7.393 5.402-7.393 5.402 6.704-3.186 7.392-2.493c.684.69-4.3 6.23-4.3 6.23s6.532-5.818 7.39-5.818 2.75 5.68 3.44 5.54c.69-.138-1.547-7.202-1.203-8.31.343-1.108 0-7.064 0-7.064l-2.58.276zm15.468-.507s-.344 3.998-2.75 6.663-7.392 5.774-7.392 5.774 6.704-3.405 7.392-2.665c.687.74-4.298 6.663-4.298 6.663s6.532-6.22 7.392-6.22 2.75 6.072 3.438 5.924c.687-.15-1.547-7.7-1.203-8.887.343-1.184 0-7.55 0-7.55l-2.58.295zm-21.656-36.262c0 .745-.73 1.35-1.63 1.35s-1.63-.605-1.63-1.35.73-1.35 1.63-1.35 1.63.605 1.63 1.35z" fill-rule="evenodd" fill="#812e00"/></svg>