<svg xmlns="http://www.w3.org/2000/svg" height="512" width="512" viewBox="0 0 512 512"><defs><clipPath id="a"><path fill-opacity=".67" d="M148.24 0h744.09v744.09H148.24z"/></clipPath></defs><g clip-path="url(#a)"><path fill-rule="evenodd" fill="#ba0000" d="M642.1 520.863H-102V0h744.1z"/><path d="M287.654 382.526c.203-.616.613-6.963.408-6.963s-9.623-11.056-9.417-11.056 12.08 2.662 12.08 2.252c0-.41 4.708-11.67 4.708-11.877 0-.203 5.733 13.718 5.733 13.718l11.67 5.12-8.19 6.755s1.843 13.104 1.843 13.31c0 .203-8.19-7.782-8.19-7.782l-9.01 1.025s-1.23-4.096-1.637-4.506z" fill-rule="evenodd" fill-opacity=".988" stroke="#000" stroke-width="2.242" fill="#ffef00"/><path d="M224.218 210.483c-7.78 4.005-37.637 38.135-41.732 43.457-3.43 7.728-10.14 17.505-17.054 23.798-7.378 5.58-11.478 13.206-10.46 20.426-.083 8.984 4.953 15.1 8.966 21.422 2.375 2.888 5.57 4.753 8.967 4.982 6.97.92 7.588 3.066 11.076 4.394 13.74 18.708 34.24 32.503 49 43.43 9.41 4.96 15.955 9.92 18.197 12.628 4.322 8.253 3.526 16.3 2.934 20.253-3.65 13.784-7.307 27.568-10.96 41.35-1.84 11.262 7.945 8.73 8.47 6.478 4.418-5.73 11.008-1.705 20.426-34.872L285 400.79s4.983-1.992 4.983-2.49c7.575-9.096 1.806-14.303-2.494-15.94l-9.465-3.49s-10.96-10.96-11.46-10.96c-5.207-15.15-30.77-47.494-36.71-52-4.11-4.282-6.065-6.107-9.967-8.49-6-2.87-7.934-3.802-11.61-5.27-3.058-1.226-.88-4.584 1.065-6.12 20.25-11.023 36.3-23.272 55.73-35.727.994-.665 1.992-1.33 2.988-1.994l-6.974-39.855-32.382-11.46c-1.698 1.163-2.988 2.326-4.483 3.488z" fill-rule="evenodd" stroke="#000" stroke-width="2.682" fill="#fff"/><path d="M251.31 420.315c.104-.41 20.27-4.095 20.27-4.095s-2.355 7.473-2.457 7.473l-20.064 6.04 2.25-9.42z" fill-rule="evenodd" fill="#ffec00"/><path d="M198.756 344.383c3.89-10.34 14.688-18.525 21.942-20.784" stroke="#000" stroke-width="2.242" fill="none"/><path d="M250.588 420.483c1.302-.367 7.082-2.054 8.765-2.317 1.796-.42 3.584-.89 5.31-1.447 1.993-.41 3.24-.784 5.31-1.16 1.623-.62 3.226-1.044 4.96-1.45m-27.997 18.84c.168-.226 1.543-1.44 2.53-2.028 1.162-.366 5.136-2.053 6.64-2.317 1.604-.42 3.2-.89 4.742-1.446 1.78-.41 2.894-.783 4.744-1.16 1.45-.62 2.88-1.043 4.427-1.45" stroke="#000" stroke-width="2.479" fill="none"/><path d="M255.13 347.31h-.29c.907 0 .35-.076-.87 1.447-.434 1.17-4.15 3.764-6.95 3.764-1.348.147-3.424.29-4.775.29-.385 0-.917-.29-1.304-.29m13.903 54.426h1.447c1.5 0 3.007.266 4.342.29 1.45 0 2.896.41 4.344.41 1.462.205 3.222.138 4.734.354 1.696.056 3.056.39 4.82.39 1.424.054 2.19.29 3.766.29l-3.766-.29c1.424.054 2.19.292 3.766.292m-33.308 33.596c.154-.225 1.412-1.44 2.315-2.026 1.064-.366 4.704-2.053 6.08-2.315 1.47-.42 2.932-.892 4.344-1.45 1.63-.405 2.65-.78 4.344-1.157 1.33-.62 2.64-1.043 4.055-1.45m5.99-41.936c-.818 2.377.243 2.975.68 4 .764.994 2.714 2.51 5.793 3.475 1.187.317 2.1.63 3.475 1.157.91.084 1.358.31 2.027.578m-126.537-96.41h.29c-.908 0-.364.058 1.158-1.16.94-1.05 1.727-1.526 2.606-2.604m14.684 24.38c.192 0 16.843-8.39 18.62-10.183 1.26-.913 2.213-1.876 3.745-2.914.983-.513 1.687-1.17 2.607-1.736.766-1.11 1.764-1.778 2.316-2.793 1.022-.886.584-1.846 1.413-2.914.394-1.092 1.127-2.934 1.365-3.934m21.21 12.452c.092.6-.265 2.443-.24 3.848-.056 1.628-2.15 6.657-4.68 8.16" stroke="#000" stroke-width="2.242" fill="none"/><path d="M428.066 447.362c.14 0 3.76 1.177 9.812 3.04 7.285 2.618 22.435 12.165 23.94 13.48 1.534 1.208 4.28 2.287 5.332 3.72 1.646 1.423 2.852 3.064 4.137 4.55 1.51 1.844 2.8 3.403 3.722 4.965 4.6 3.73 16.973 29.565 17.37 31.023a62.84 62.84 0 0 1 2.07 4.55c.916 1.058 1.54 2.552 2.48 4.138.865 2.056 1.833 2.993 2.897 4.55 1.368.952 3.214 2.758 4.963 3.722 1.865 1.595 3.614 2.244 4.964 3.31 1.95.83 23.75 14.61 24.763 15.3 1.99 1.6 8.07 7.9 3.802 12.485-1.814 1.55-3.445 3.602-4.99 4.48-1.578 1.577-3.77 2.283-5.58 3.1-9.825 2.902-14.827 1.862-16.758 1.862h-2.07M379.92 398.64c2.792 1.092 1.665.285 4.178 1.43 1.69.74 2.802.758 4.462 1.363 1.76.565 6.68 1.452 9.045 3.825 1.735 1.567 3.058 2.89 4.964 4.034 2.25 1.554 3.88 2.246 6.67 3.412 2.358.88 4.993 1.86 7.376 1.943 2.477.144 3.07.022 5.447.022h5.792-5.792 5.792" stroke="#000" stroke-width="3.203" transform="matrix(.7 0 0 .7 -102 0)" fill="none"/><path d="M163.49 298.37c4.342-.288 11.58 1.016 11.725 1.016l9.555-.146c5.02-.484 6.13-2.413 6.95-3.766 1.882-2.894 3.185-3.907 4.634-6.08 2.315-1.736 5.502 2.317 5.646 2.317 8.106 7.676 1.59 17.085 1.157 17.375-4.053 3.717-4.923 3.957-7.383 1.592-2.462-2.896-3.185-4.197-5.212-5.21-3.908-1.884-12.016-.435-12.162-.435-.145 0-4.198 1.593-4.198 1.593-1.98.723-3.234 2.462-6.66 3.038-3.474.244-4.633-.094-6.37-2.892-2.316-3.62-1.16-7.962 2.318-8.396z" fill-rule="evenodd" stroke="#000" stroke-width="2.242" fill="#ffe606"/><path d="M390.18 122.754c-.637.125-6.37 2.877-6.27 3.056s-4.92 13.806-5.02 13.626-3.6-11.834-3.958-11.634c-.356.2-12.48 1.615-12.658 1.715-.178.1 9.15-11.72 9.15-11.72l-1.26-12.68 9.904 3.83s10.52-8.03 10.698-8.13c.177-.1-2.77 10.952-2.77 10.952l5.31 7.35s-2.97 3.077-3.125 3.632z" fill-rule="evenodd" fill-opacity=".988" stroke="#000" stroke-width="2.242" fill="#ffef00"/><path d="M271.303 262.363c7.304 4.82 51.686 14.12 58.332 15.08 8.418-.797 20.228.26 29.1 3.202 8.482 3.696 17.138 3.533 22.933-.89 7.872-4.332 10.735-11.72 14.28-18.316 1.352-3.488 1.414-7.187-.053-10.26-2.614-6.524-1.047-8.116-1.598-11.808 9.573-21.144 11.554-45.773 13.845-63.996-.29-10.633.828-18.767 2.09-22.048 5.074-7.813 12.478-11.063 16.215-12.485 13.804-3.57 27.61-7.14 41.415-10.712 10.72-3.91 3.716-11.2 1.495-10.555-7.16-1.04-6.88-8.758-40.41-.712l-21.545-2.746s-4.18-3.368-4.613-3.123c-11.645-2.147-13.357 5.432-12.677 9.984l1.6 9.96s-4.183 14.925-3.94 15.36c-10.653 11.964-26.513 50.386-27.53 57.77-.48 6.937-3.1 5.684-2.398 12.428.027 5.27-.587 1.98 1.173 12.838.428 3.268-3.567 3.015-5.86 2.072-19.53-12.25-38.074-20.237-58.453-31.07l-3.2-1.627-31.322 25.61 5.88 33.843c1.846.91 3.493 1.465 5.238 2.198z" fill-rule="evenodd" stroke="#000" stroke-width="2.682" fill="#fff"/><path d="M440.93 135.914c-.406.11-13.503-15.66-13.503-15.66s7.67-1.61 7.72-1.52l15.096 14.527-9.313 2.655z" fill-rule="evenodd" fill="#ffec00"/><path d="M400.498 218.936c-10.918 1.677-23.347-3.724-28.87-8.94" stroke="#000" stroke-width="2.242" fill="none"/><path d="M441.43 136.46c-.957-.953-5.26-5.165-6.313-6.504-1.246-1.36-2.534-2.688-3.865-3.92-1.332-1.538-2.27-2.44-3.612-4.06-1.335-1.11-2.49-2.3-3.693-3.613m30.142 15.17c-.28-.035-2.013-.638-3.008-1.21-.89-.834-4.307-3.472-5.273-4.654-1.154-1.194-2.346-2.354-3.587-3.426-1.228-1.353-2.1-2.14-3.335-3.567-1.25-.96-2.322-2-3.433-3.15" stroke="#000" stroke-width="2.479" fill="none"/><path d="M375.423 168.364l.14.252c-.443-.79-.237-.268 1.69.05 1.232-.197 5.314 1.77 6.686 4.21.785 1.107 1.93 2.845 2.59 4.024.19.336.197.94.387 1.278m40.627-38.79l-.142-.252-.567-1.008c-.735-1.31-1.24-2.755-1.876-3.93-.71-1.262-1.063-2.725-1.77-3.987-.538-1.373-1.46-2.875-2.013-4.3-.78-1.504-1.157-2.855-2.02-4.392-.652-1.267-.82-2.05-1.593-3.425l1.592 3.425c-.65-1.267-.82-2.05-1.592-3.425m45.61 12.57c-.274-.024-1.948-.525-2.902-1.025-.842-.75-4.095-3.094-4.998-4.165-1.087-1.075-2.214-2.118-3.39-3.077-1.156-1.222-1.982-1.927-3.14-3.22-1.19-.853-2.2-1.786-3.248-2.822m-39.493 15.33c2.474-.45 2.475-1.668 3.154-2.554.492-1.153.858-3.595.19-6.752-.303-1.19-.478-2.14-.692-3.596-.373-.835-.395-1.336-.49-2.05M386.14 274.278l-.14-.252c.444.79.228.287-1.58-.443-1.376-.304-2.176-.756-3.546-.994m14.058-24.75c-.095-.167-15.57-10.57-18.004-11.24-1.414-.65-2.72-1.01-4.375-1.836-.93-.605-1.847-.897-2.792-1.42-1.34-.125-2.413-.668-3.567-.652-1.274-.457-1.896.397-3.234.196-1.145.194-3.11.458-4.1.74m.46-24.59c.48-.373 2.263-.967 3.474-1.677 1.448-.75 6.857-1.386 9.407.084" stroke="#000" stroke-width="2.242" fill="none"/><path d="M679.743 336.012c-.068-.12-.817-3.854-2.16-10.042-1.287-7.633-.39-25.518.02-27.473.3-1.93-.105-4.852.63-6.473.433-2.13 1.272-3.987 1.938-5.836.87-2.22 1.597-4.107 2.506-5.676.998-5.84 17.452-29.287 18.53-30.347a62.736 62.736 0 0 1 2.952-4.033c.47-1.318 1.47-2.593 2.39-4.19 1.368-1.763 1.71-3.066 2.546-4.757.158-1.66.83-4.153.81-6.15.478-2.407.187-4.25.455-5.95-.235-2.106 1.094-27.862 1.2-29.082.42-2.52 2.93-10.91 9.02-9.434 2.237.82 4.825 1.233 6.35 2.152 2.146.6 3.837 2.166 5.437 3.345 7.343 7.138 8.887 12.008 9.834 13.69l1.014 1.805m-82.463 193.45l-.2-.36c.547.974.244.49-.45-1.645-.184-1.835-.75-4.317-1.036-6.06-.37-1.812-1.22-3.876-.99-5.14-.648-1.84-.24-3.358-.066-5.18.515-2.28.748-3.93.81-6.152.252-2.726.05-4.658.206-7.234-.718-2.12-.865-3.895-1.96-6.014-.973-2.026-1.718-3.9-2.883-5.972l-2.837-5.05 2.838 5.05-2.837-5.05" stroke="#000" stroke-width="3.203" transform="matrix(.7 0 0 .7 -102 0)" fill="none"/><path d="M377.674 272.226c-2.38-3.643-4.792-10.59-4.863-10.717 0-.004-4.807-8.26-4.807-8.26-2.882-4.138-5.107-4.16-6.687-4.213-3.446-.222-4.968-.86-7.57-1.06-2.65-1.166-.678-5.93-.75-6.057 2.716-10.825 14.112-9.757 14.577-9.52 5.225 1.71 5.86 2.35 5.006 5.653-1.32 3.565-2.1 4.834-1.99 7.097.274 4.33 5.51 10.687 5.582 10.815.07.126 3.446 2.877 3.446 2.877 1.6 1.372 3.73 1.613 5.913 4.317 1.915 2.91 2.188 4.084.6 6.97-2.02 3.79-6.374 4.912-8.456 2.094z" fill-rule="evenodd" stroke="#000" stroke-width="2.242" fill="#ffe606"/><path d="M108.842 171.602c.453.464 5.896 3.752 5.99 3.57s14.248-3.445 14.153-3.263-7.93 9.492-7.565 9.68c.364.19 8.188 9.557 8.37 9.65.18.096-14.816-1.23-14.816-1.23l-9.92 7.997-2.22-10.38s-12.48-4.404-12.663-4.498c-.18-.095 10.68-3.685 10.68-3.685l3.244-8.467s4.2.797 4.75.622z" fill-rule="evenodd" fill-opacity=".988" stroke="#000" stroke-width="2.242" fill="#ffef00"/><path d="M290.758 194.575c.03-8.75-16.502-50.974-19.34-57.06-5.278-6.607-10.86-17.067-13.26-26.1-1.555-9.12-6.434-16.272-13.308-18.698-7.936-4.213-15.686-2.56-23.145-1.912-3.657.777-6.786 2.752-8.552 5.663-4.028 5.76-6.218 5.32-9.004 7.805-22.936 3.574-44.624 15.408-61.124 23.475-8.736 6.065-16.154 9.588-19.59 10.33-9.316.033-16.09-4.38-19.327-6.727l-31.65-28.78c-9.143-6.824-11.405 3.027-9.65 4.53 3.055 6.564-3.555 10.558 21.54 34.197 3.17 6.51 6.338 13.022 9.506 19.53 0 0-.526 5.34-.084 5.57 4.582 10.916 11.86 8.196 15.295 5.134l7.457-6.792s14.777-4.676 15.007-5.117c15.847 2.36 56.678-5.42 63.41-8.616 6.07-3.397 6.455-.52 11.71-4.802 4.397-2.906 1.98-.59 10.1-8.01 2.5-2.15 4.475 1.33 4.94 3.766.454 23.048 3.93 42.938 6.03 65.92.133 1.19.263 2.38.393 3.57l38.584 12.173 25.09-23.457c-.247-2.044-.686-3.724-1.028-5.587z" fill-rule="evenodd" stroke="#000" stroke-width="2.682" fill="#fff"/><path d="M92.05 121.936c.315.28-5.705 19.875-5.705 19.875s-5.548-5.53-5.5-5.622l3.885-20.59 7.32 6.34z" fill-rule="evenodd" fill="#ffec00"/><path d="M183.654 110.28c7.385 8.217 9.674 21.573 8.337 29.05" stroke="#000" stroke-width="2.242" fill="none"/><path d="M92.235 121.217c-.275 1.324-1.442 7.23-1.984 8.846-.453 1.788-.86 3.59-1.16 5.38-.557 1.958-.8 3.238-1.42 5.25-.197 1.723-.56 3.34-1 5.067m-3.82-33.528c.124.254.568 2.033.634 3.18-.21 1.2-.544 5.504-1.004 6.96-.367 1.616-.685 3.25-.9 4.875-.46 1.77-.64 2.93-1.16 4.744-.116 1.573-.4 3.038-.753 4.598" stroke="#000" stroke-width="2.479" fill="none"/><path d="M155.082 158.963l.133-.257c-.417.805-.093.345-.883-1.44-.84-.923-1.428-5.417-.14-7.9.495-1.266 1.323-3.174 1.946-4.374.177-.343.68-.68.857-1.023m-54.707-12.74l-.133.257-.532 1.027c-.693 1.333-1.624 2.546-2.26 3.722-.666 1.285-1.698 2.38-2.365 3.666-.857 1.202-1.608 2.795-2.496 4.04-.832 1.476-1.756 2.53-2.57 4.096-.702 1.236-1.266 1.808-1.992 3.206l1.994-3.207c-.704 1.236-1.267 1.808-1.994 3.206M75.47 106.2c.13.24.628 1.92.733 2.99-.165 1.113-.345 5.12-.747 6.464-.304 1.497-.56 3.01-.716 4.52-.39 1.636-.528 2.714-.973 4.39-.063 1.463-.29 2.82-.583 4.264m34.46 24.64c-1.733-1.82-2.752-1.154-3.865-1.238-1.235.22-3.478 1.252-5.754 3.54-.83.907-1.53 1.573-2.63 2.55-.493.77-.9 1.062-1.447 1.532M237.817 91.98l-.133.255c.418-.805.115-.35.495 1.562.5 1.32.56 2.235 1.113 3.513m-28.406 1.795c-.088.172-.313 18.816.46 21.22.23 1.538.645 2.83.86 4.666.003 1.11.26 2.038.34 3.116.632 1.19.765 2.384 1.41 3.34.316 1.317 1.37 1.37 1.936 2.598.79.852 2.086 2.352 2.863 3.024m-20.823 13.086c-.574-.196-2.047-1.362-3.304-1.986-1.42-.802-4.92-4.977-5.086-7.915" stroke="#000" stroke-width="2.242" fill="none"/><path d="M448.403 176.694c-.064.124-2.777 2.795-7.218 7.308-5.68 5.258-21.135 14.304-22.994 15.034-1.78.805-4 2.745-5.76 3.018-2.02.806-4.03 1.12-5.942 1.575-2.332.49-4.31.914-6.12 1.013-5.43 2.364-34.06 1.443-35.538 1.123a63.6 63.6 0 0 1-4.99-.26c-1.363.327-2.976.19-4.818.296-2.222-.18-3.5.247-5.372.475-1.475.776-3.93 1.58-5.59 2.69-2.275.918-3.656 2.172-5.225 2.88-1.635 1.348-23.91 14.346-24.988 14.926-2.337 1.03-10.732 3.523-12.833-2.378-.54-2.322-1.61-4.715-1.675-6.492-.677-2.126-.29-4.398-.18-6.382 1.946-10.053 5.174-14.013 6.064-15.727l.953-1.836m207.008-36.983l-.19.366c.514-.99.274-.47-1.13 1.28-1.435 1.16-3.202 2.99-4.504 4.186-1.31 1.303-2.573 3.144-3.755 3.643-1.184 1.55-2.68 2.04-4.3 2.893-2.19.817-3.696 1.526-5.59 2.69-2.417 1.284-3.923 2.51-6.163 3.792-1.38 1.762-2.786 2.857-3.96 4.934-1.16 1.923-2.32 3.573-3.415 5.682l-2.67 5.14 2.67-5.14-2.67 5.14m17.082 106.27l.38-.736c-.705 1.358-.458 1.002.205-1.29.006-2.75.66-6.077.686-8.502.414-2.568.833-5.342.86-7.943-.156-3.04-.15-5.767-.606-8.702-.035-2.703-.35-5.503-.43-8.15-.05-2.62-.246-4.866-.815-7.41-.053-1.907-.17-4.52-.634-6.856.248-1.84-.275-3.532-.667-5.005-.713-2.836-.99-4.49-1.737-7.428-.45-1.575-.894-3.587-1.573-5.945-.243-2.234-1.44-5.134-1.925-7.06-.664-1.417-1.334-3.334-1.59-5.02-.696-1.553-1.686-3.45-1.956-5.21-.735-1.34-1.515-3.427-2.325-5.4-.698-1.623-1.212-3.622-1.955-5.21-.75-2.007-1.663-3.722-2.13-5.767-.718-.694-.88-1.455-1.265-2.053" stroke="#000" stroke-width="3.203" transform="matrix(.7 0 0 .7 -102 0)" fill="none"/><path d="M240.74 100.184c-1.743 3.986-6.236 9.81-6.303 9.94l-4.274 8.546c-1.883 4.678-.682 6.552.14 7.903 1.7 3.003 2 4.627 3.26 6.912.475 2.856-4.59 3.816-4.658 3.945-10.544 3.658-15.894-6.46-15.95-6.98-1.43-5.308-1.244-6.19 1.987-7.284 3.706-.852 5.194-.894 7.028-2.224 3.47-2.602 5.922-10.465 5.99-10.595.065-.128.52-4.46.52-4.46.27-2.09-.695-4.003.37-7.31 1.387-3.195 2.22-4.067 5.506-4.32 4.278-.387 7.6 2.64 6.384 5.926z" fill-rule="evenodd" stroke="#000" stroke-width="2.242" fill="#ffe606"/><path d="M226.888 203.105c-1.593-1.447 29.967 11.436 34.31 11.582 5.936-2.17 30.403-22.873 30.403-22.873.243 2.026 1.11 7.287 3.474 8.397-9.457 7.676-18.046 15.058-27.505 22.73.676 12.16-1.544 25.046 4.632 38.654 0 0-7.38.144-7.38 0-6.516-6.514-8.834-37.93-8.834-37.93-10.375-4.633-20.75-9.12-31.126-13.753 1.497-.965 2.702-3.955 2.027-6.804z" fill-rule="evenodd" fill-opacity=".987" stroke="#000" stroke-width="2.242" fill="#ffef00"/><path d="M256.918 235.305c.504-.366-5.693 2.88-7.285 3.694-28.672 15.293-43.428 37.542-44.348 38.382-.497.948-1.408 2.212-2.243 3.45-.672 1.04-1.637 2.113-2.272 3.163-.88 1.216-2.726 3.62-3.735 4.685-.126.69.478-.234.28.223m79.196-71.777c-.555-.28 5.167 3.745 6.62 4.788 26.715 18.5 53.25 21.447 54.417 21.88 1.07.007 2.61.24 4.095.416 1.232.123 2.628.49 3.853.574 1.484.224 4.464.768 5.875 1.176.667-.203-.427-.316.068-.35" stroke="#000" stroke-width="2.242" fill="none"/></g></svg>