<svg xmlns="http://www.w3.org/2000/svg" height="512" width="512" viewBox="0 0 512 512"><defs><clipPath id="a"><path fill-opacity=".67" d="M104.06 0h416.25v416.25H104.06z"/></clipPath></defs><g clip-path="url(#a)" fill-rule="evenodd"><path fill="#be0027" d="M-128 0h768.75v511.988H-128z"/><path d="M105.448 261.133c13.658-16.61 41.95-.4 65.042-12.36-27.356 1.505-42.267-13.128-63.88-11.077 22.394-13.756 41.46 4.5 66.5-2.84-33.166-2.788-31.728-17.613-61.884-19.72 26.787-11.423 40.036 11.75 66.275 6.48-30.924-7.138-35.042-25.355-58.035-29.212 33.607-5.07 31.416 14.794 64.362 17.22-33.44-14.343-24.675-26.796-52.644-37.72 31.296-.74 29.22 20.95 60.928 26.64-27.143-17.22-23.79-32.936-46.15-45.232 26.526.48 29.115 27.628 56.185 36.04-24.147-19.16-17.798-35.314-38.662-52.423 26.382 6.187 22.54 29.61 50.018 44.55-20.362-22.615-12.55-38.805-30.313-57.316 25.374 8.17 15.734 30.43 42.064 51.593-15.092-24.854-5.774-40.705-20.627-61.674 23.558 12.164 12.15 34.87 34.02 57.556-10.294-25.508.016-41.353-10.505-63.94 20.15 15.055 8.166 39.322 24.42 62.47-5.925-31.92 7.843-37.17 3.558-65.122 15.307 18.79-1.8 37.58 9.95 65.258-1.432-31.475 15.293-38.794 12.392-64.064 15.17 22.644-8.506 42.35 1.395 66.603 2.56-29.864 22.184-37.596 22.49-60.836 11.93 21.333-14.11 36.673-9.884 64.955 8.57-31.195 29.475-35.05 31.94-56.024 7.236 24.68-21.263 36.15-19.596 63.5 8.487-27.735 34.62-30.987 39.96-51.474 3.297 26.108-22.4 30.742-29.633 59.585 13.51-23.54 37.143-25.47 47.78-44.09-.834 25.816-29.84 29.2-38.745 53.37 16.724-20.506 37.69-16.947 54.414-35.13-1.766 23.298-31.293 21.98-47.01 46.103 18.136-16.732 45.435-11.72 59.33-26.126-.674 20.61-36.91 19.06-53.995 37.478 21.075-11.543 47.756-4.762 63.222-15.485-2.825 18.068-41.073 13.846-59.353 27.946 25.21-6.986 44.676 3.81 65.1-3.995-9.94 17.59-44.633 6.457-63.052 17.89 21.88-3.705 45.126 9.55 65.09 5.298-6.562 15.2-44.58-.92-65.09 8.536 24.51-.214 40.402 15.435 63.133 14.4-12.363 13.762-45.787-5.163-65.26-1.932 23.758 4.918 41.91 24.604 59.924 25.552-14.786 11.352-42.424-14.496-64.864-11.215 23.105 6.184 42.515 32.47 55.773 33.047-14.285 9.76-42.517-22.464-61.86-21.32 23.496 10.62 34.272 37.515 49.697 41.296-19.098 6.13-37.867-29.215-58.39-30.44 23.772 14.992 25.115 37.917 43.417 48.122-19.257 4.708-32.964-35.165-53.26-38.53 19.49 14.327 22.43 44.93 35.352 54.607-19.607 1.034-26.69-40.714-46.785-46.68 17.215 14.38 13.094 45.58 26.478 58.863-20.424-4.19-17.79-40.537-39.116-52.777 15.32 19.32 7.527 46.845 17.513 62.335-19.87-8.037-11.24-40.565-30.21-58.99 10.35 20.585-.775 44.588 7.387 64.487-18.152-8.854-5.943-47.383-19.856-62.665 6.395 23.786-5.4 43.468-.646 64.793-18.558-21.525 2.817-43.188-13.28-65.124 4.273 25.178-13.336 42.697-10.567 63.77-14.715-17.19 7.906-44.773-3.527-66.476 2.46 24.754-20.275 46.437-18.714 62.028-11.98-19.967 13.295-43.582 6.53-66.285-1.428 23.574-24.37 36.383-28.692 57.856-7.712-23.69 19.563-40.81 17.208-64.09-7.81 22.146-29.98 31.024-37.79 52.485-6.397-23.62 25.913-36.164 26.766-61.02-9.987 23.31-36.52 28.43-45.277 46.266-3.27-23.5 33.806-34.005 35.187-56.273-11.936 21.38-40.968 22.247-50.99 39.252-1.52-23.416 37.58-26.316 43.72-50.824-11.883 18.28-43.734 15.907-56.986 30.767 2.09-21.722 44.387-23.065 51.128-42.6-15.723 15.167-44.962 8.882-61.426 20.914 9.163-21.333 48.838-16.81 57.807-32.266-17.564 9.165-48.678.282-63.997 9.445 13.923-20.206 44.803-8.136 62.28-22.05-28.428 4.143-45.505-7.17-65.18-1.933zm250.467-5.033c0 54.798-44.42 99.22-99.218 99.22-54.797 0-99.22-44.424-99.22-99.22s44.424-99.218 99.22-99.218 99.218 44.422 99.218 99.218z" fill="#ff0"/><path d="M343.15 256.295c0 47.64-38.62 86.26-86.26 86.26-47.64 0-86.26-38.622-86.26-86.26 0-47.64 38.62-86.26 86.26-86.26s86.26 38.62 86.26 86.26z" fill="#be0027"/><path d="M331.16 256.488c0 40.91-33.167 74.076-74.077 74.076-40.912 0-74.075-33.165-74.075-74.076 0-40.91 33.164-74.075 74.075-74.075 40.912 0 74.076 33.165 74.076 74.075z" fill="#ff0"/><path d="M194.032 207.947c20.5-.45 46.032 1.42 62.858 14.893 17.86-11.153 39.004-16.31 60.54-14.312l11.023 20.114c-15.99-1.612-31.59.646-50.094 8.124 23.594 18.696 35.392 42.808 34.62 72.142-2.71 3.352-6.964 7.09-9.67 10.443 3.93-28.493-11.09-60.275-32.88-76.974 17.727 25.595 28.3 48.675 25.336 80.458-3.16 1.87-6.9 4.513-10.058 6.383 4.64-28.044-1.933-60.925-22.63-80.073 11.927 17.537 23.854 49 16.44 81.04-3.224.966-8.187 3.675-11.41 4.64 8.316-26.237 3.093-59.053-10.832-78.716-13.796 19.793-18.31 50.028-10.445 77.944-3.87-.966-6.77-2.127-10.636-3.094-5.673-30.043 2.193-63.955 15.86-81.618-13.926 8.06-27.078 42.614-23.404 77.944-3.352-1.547-5.93-2.708-9.283-4.256-4.515-26.368 7.412-60.665 24.562-80.46-19.47 12.25-35.266 42.295-32.494 74.658-2.966-2.644-5.74-3.932-8.704-6.575-3.417-28.24 12.894-56.67 32.105-73.69-16.18-7.22-30.04-8.64-50.092-8.317 3.16-6.51 6.126-14.183 9.284-20.695z" fill="#be0027"/></g></svg>