<svg xmlns="http://www.w3.org/2000/svg" xmlns:xlink="http://www.w3.org/1999/xlink" height="512" width="512" viewBox="0 0 512 512"><path fill="#032ea1" d="M0 0h512v512H0z"/><path fill="#e00025" d="M0 128h512v256H0z"/><g transform="matrix(1.28 0 0 1.28 5.943 -556.715)" fill="#fff" stroke="#000" stroke-width=".96"><path d="M139.02 623.46h113.8v43.788h-113.8zm107.93 24.18h3.586v16.495h-3.586zm-107.93-8.15h113.8v5.09h-113.8zm0-6.9h113.8v4.49h-113.8zm0-6.89h113.8v4.354h-113.8zm29.96 21.94h3.586v16.495h-3.586zm48.99 0h3.586v16.495h-3.586zm-78.05 0h3.586v16.495h-3.586zm7.03 0h3.586v16.495h-3.586zm7.5 0h3.586v16.495h-3.586zm7.5 0h3.586v16.495h-3.586zm62.82 0h3.586v16.495h-3.586zm7.5 0h3.586v16.495h-3.586zm7.5 0h3.586v16.495h-3.586zM94.51 669.55c1.76-.897 3.767-2.984 4.424-5.32h193.07c.657 2.336 2.665 4.423 4.425 5.32zM193 556.8s-.144-4.112 2.25-4.157c2.396.044 2.25 4.157 2.25 4.157zm-12.49 54.54v-5.536c-.08-2.768-2.76-2.968-2.838-4.986 0 0-.346-3.027.452-4.408 1.084 4.047 3.056 3.304 3.056 1.64 0-1.453-1.117-2.804-3.408-6.33-.732-1.128-.28-4.66.747-5.923.396 3.07.85 4.54 2.17 4.54.804 0 1.46-.524 1.46-2.062 0-1.957-1.324-2.945-1.976-4.725-.76-2.078-.236-4.196 1.026-5.38.542 3.03.38 4.237 1.727 4.237 2.713-.858 0-4.786-.58-5.777-.666-1.155.897-3.46.897-3.46.863 2.69 1.14 2.91 2.07 2.66 1.174-.315 1.023-2.056-.41-3.463-.904-.89-.808-2.212.163-3.274.975 1.905 2.223 1.79 2.343.658l-.784-4.39h17.255l-.855 4.25c-.245 1.214 1.396 1.48 2.416-.516.973 1.062 1.068 2.385.164 3.274-1.432 1.407-1.584 3.148-.41 3.463.93.25 1.208.03 2.07-2.66 0 0 1.403 1.57.897 3.46-.58.99-3.292 4.92-.58 5.778 1.347 0 1.186-1.208 1.727-4.237 1.263 1.185 1.786 3.303 1.026 5.38-.65 1.78-1.976 2.77-1.976 4.726 0 1.538.657 2.062 1.46 2.062 1.32 0 1.775-1.47 2.173-4.54 1.025 1.263 1.478 4.795.746 5.922-2.29 3.526-3.408 4.877-3.408 6.33 0 1.664 1.97 2.407 3.056-1.64.797 1.38.45 4.41.45 4.41-.078 2.016-2.758 2.216-2.837 4.984v5.536zm7.22-46.02l-.397-3.125h15.838l-.395 3.125zm1.06-3.19l-.34-2.57h13.603l-.34 2.57zm2.16-2.66l-.227-2.57h9.058l-.225 2.57zm33.02 110.08c-2.027-.78-4.977-2.92-4.977-5.07v-24.297l2.638-3.358h-52.774l2.53 3.36v24.296c0 2.15-2.027 4.29-4.053 5.07zm-45.73-21.91h3.586v16.495h-3.586zm30.32 0h3.586v16.495h-3.586zm-40.65-38.47v27.656h54.023v-5.957l.078-21.7c-2.21.867-2.595 2.87-2.595 2.87v11.777h-48.75V612.04s-.544-2.003-2.754-2.87zm46.69 60.38c-1.766-.78-5.612-2.92-5.612-5.07v-27.192c.378-1.518 2.436-2.414 3.76-3.358h-35.822c1.705.902 3.606 1.652 4.285 3.36v27.19c0 2.15-3.04 4.29-4.805 5.07zm4.81-35.33v-19.587h-4.91v-1.91h-38.84v1.91h-4.91v19.587zm-12.55 35.33c-1.73-.78-4.25-2.92-4.25-5.07v-23.214l1.42-2.11h-17.69l1.42 2.11v23.215c0 2.15-2.518 4.29-4.248 5.07zm-16.15-30.39h8.966v30.377h-8.966zm13.67-6.68c.02-2 5.838-2.09 8.832-3.795H177.26c2.994 1.704 8.675 1.844 8.675 3.795l1.217 3.882 14.883.598zm7.03-21.14c0-4.9.205-6.786 1.71-6.786v15.58c-3.69 1.34-6.325 6.05-6.325 6.05h-23.21s-2.635-4.71-6.326-6.05v-15.58c1.854 0 1.866 1.972 1.866 6.786zm1.71-2.01c0-5.618 4.85-6.25 4.85-6.25v5c-1.845-.08-2.736 1.578-2.736 4.044 0 2.466 1.487 2.506 1.487 2.506v14.19h-3.6zm-35.84 0c0-5.618-4.85-6.25-4.85-6.25v5c1.845-.08 2.736 1.578 2.736 4.044 0 2.466-1.487 2.506-1.487 2.506v14.19h3.6z"/><g fill="none"><path d="M186.84 570.62h17.128m-19.158 5.35h20.92m-22.95 6.49h24.904m-27.024 7.93h29.536m-30.216 9.04h30.426"/><path d="M170.75 628.92h48.66m-33.22.01h18.036v6.63H186.19z"/></g><path d="M183.93 614.24c2.99 3.59 2.713 9.68 2.68 13.27h17.342c-.035-3.59-.312-9.68 2.678-13.27zm9.75-41.13l-2.376-1.224v-3.497c.97.29 2.062.41 2.168 1.96.338-2.21.948-2.105 1.907-2.966.956.86 1.566.753 1.904 2.963.107-1.548 1.197-1.667 2.17-1.96v3.498l-2.378 1.224zm-.16 5.74l-3.946-2.713v-3.223c1.383.32 2.936.45 3.088 2.15.482-2.424 1.35-3.676 2.715-4.62 1.365.944 2.233 2.196 2.715 4.62.152-1.7 1.705-1.83 3.09-2.15v3.223l-3.948 2.713zm-.28 8.95l-4.538-3.985v-4.736c1.59.47 3.377.66 3.552 3.155.553-3.56 1.552-5.4 3.12-6.787 1.57 1.387 2.57 3.226 3.123 6.786.175-2.494 1.96-2.686 3.55-3.157v4.735l-4.536 3.985zm8.37 5.29l-4.104 5.676h-4.646l-4.104-5.676zm-15.22 9.53c2.053 1.122 2.81 3.357 3.03 7.553h11.55c.22-4.196.977-6.43 3.03-7.553zm17.78-9.53v-5.702c-1.95.537-3.213 1.69-3.776 3.258 0-1.893-2.49-6.257-5.207-8.43-2.724 2.432-5.257 6.38-5.206 8.43-.462-1.492-1.824-2.72-3.774-3.258v5.702zm.87 9.53v-5.702c-2.138.537-3.522 1.69-4.14 3.258 0-1.893-2.73-6.258-5.707-8.43-2.986 2.432-5.763 6.38-5.707 8.43-.508-1.492-2.002-2.72-4.14-3.258v5.702zm2.4 11.7v-6.577c-2.66.687-4.312 2.653-5.15 3.8 0-3.56-4.02-8.99-7.1-10.768-3.16 1.825-7.1 7.435-7.1 10.768-.86-1.14-2.49-3.113-5.15-3.8v6.577zm-1.44 14.6v-6.762c-2.346.92-3.048 3.18-3.786 4.717.29-6.86-3.862-14.23-7.024-16.1-3.163 1.87-7.393 9.4-7.024 16.1-.758-1.527-1.44-3.797-3.786-4.717v6.762zm-1.64 10.24v-6.762c-2.458.585-2.61 1.49-3.392 3.006.29-4.097-2.61-8.77-5.773-10.64-3.163 1.87-6.064 6.544-5.774 10.64-.78-1.515-.876-2.42-3.39-3.006v6.762z"/><path d="M98.935 664.23v-20.44c-.67-2.603-2.88-4.905-4.54-5.366V620.43l3.74 2.023 4.272 18.81v22.966zm0 .08v-20.52c-.67-2.602-2.88-4.904-4.54-5.365v-19.243c2.51 0 3.74 3.273 3.74 3.273l4.272 18.81v22.887zm-2.66 5.24c1.73-.78 4.25-2.92 4.25-5.07v-25.547l-1.186-2.108h43.52l-1.7 2.108v25.547c0 2.15 1.73 4.29 3.46 5.07zm39.565 0c-1.73-.78-4.25-2.92-4.25-5.07v-24.297l3.62-3.36h-29.588l3.62 3.36v24.297c0 2.15-2.52 4.29-4.25 5.07zm-4.15 0c-1.73-.78-4.25-2.92-4.25-5.07v-21.965l2.37-3.36h-18.798l2.37 3.36v21.966c0 2.15-2.52 4.29-4.25 5.07zm-15.77-30.39h8.982v30.393h-8.982zm-12.22 8.48h3.586v16.495H103.7zm30.75 0h3.586v16.495h-3.586zm-33.81-27.82h4.32v16.91h-4.32zm0-3.18h4.295v3.14h-4.295zm35.53 6.82h6.16v13.054h-6.16zm-31.28 13.14v-28.94c1.232 0 1.422 4.24 4.25 4.24 1.47 0 1.314-1.756.488-3.187-.732-1.268-1.637-3.018-.407-6.28.845 2.496 3.114 3.288 2.695 1.723-.72-2.688-2.795-3.13-1.24-7.302.54 3.48 2.774 3.327 2.232 1.304-.61-2.28-1.873-3.214-.316-6.428.874 3.65 2.053 3.435 2.053 1.17 0-3.346-.128-6.956 4.203-8.295 0 0 .25-3.068 1.812-3.068 1.563 0 1.813 3.068 1.813 3.068 4.33 1.34 4.203 4.95 4.203 8.296 0 2.266 1.18 2.48 2.052-1.17 1.558 3.215.295 4.15-.315 6.43-.544 2.022 1.69 2.176 2.23-1.305 1.556 4.172-.518 4.614-1.24 7.302-.42 1.565 1.85.773 2.694-1.722 1.23 3.26.325 5.01-.407 6.28-.826 1.43-.983 3.187.49 3.187 2.826 0 3.016-4.24 4.248-4.24v28.94zm-6.766-21.86v22.08h2.51v-22.136c-.904-.457-1.754-.527-2.51.056zm.08 14.29c3.11 1.59 6.194 3.433 6.974 7.793h-6.975zm43.166-6.61v14.407h2.035v-14.443c-.635-.298-1.503-.344-2.035.036zm2.04 6.5c-3.112 1.59-6.195 3.433-6.975 7.793h6.975zm-20.58-33.65l1.814-1.525v-1.953c-.664.065-1.026.293-1.516.936-.417-1.295-1.334-2.305-2.562-2.933-1.23.628-2.146 1.593-2.563 2.887-.49-.643-.852-.825-1.516-.89v1.953l1.815 1.525zm.97 4.89l.843-1.825v-2.54c-.664.067-1.026.298-1.516.95-.417-1.313-1.334-2.338-2.562-2.974-1.23.638-2.146 1.617-2.563 2.93-.49-.65-.852-.837-1.516-.903v2.54l.844 1.824zm.13 6.63l2.695-3.287v-3.243c-.986.11-1.524.503-2.252 1.606-.62-2.222-1.98-2.708-3.806-3.786-1.825 1.078-3.187 1.485-3.806 3.707-.727-1.103-1.265-1.416-2.25-1.527v3.243l2.694 3.287zm.79 6.51s3.14-2.74 3.327-4.244v-3.467c-1.217.14-2.368.457-3.267 1.88-.765-2.87-1.96-3.67-4.212-5.06-2.253 1.39-3.447 2.19-4.212 5.06-.9-1.424-2.05-1.74-3.267-1.882v3.466c.395 1.504 3.325 4.244 3.325 4.244zm1.34 12.02s4.3-4.76 4.4-6.616v-5.406c-1.61.223-3.132 1.33-4.32 3.55-1.012-4.474-2.59-7.594-5.57-9.764-2.98 2.17-4.56 5.29-5.57 9.765-1.19-2.223-2.713-3.33-4.322-3.553v5.406c.308 1.855 4.4 6.616 4.4 6.616zm0 7.11s3.676-3.742 4.4-5.366v-5.406c-1.61.223-3.132 1.33-4.32 3.55-1.012-4.474-2.59-7.036-5.57-9.206-2.98 2.17-4.56 4.732-5.57 9.207-1.19-2.223-2.713-3.33-4.322-3.553v5.406c.933 1.624 4.4 5.366 4.4 5.366zm1.48 4.13c-1.073-4.668-1.996-8.13-7.163-11.64-5.167 3.51-6.09 6.972-7.163 11.64zm2.66 2.6v-6.762c-2.346.92-4.467 2.28-5.25 3.795-.872-3.754-2.556-5.408-4.652-7.68-2.097 2.272-3.5 3.926-4.375 7.68-.782-1.515-2.902-2.875-5.25-3.795v6.762z" id="a"/><use height="100%" width="100%" xlink:href="#a" transform="matrix(-1 0 0 1 390.74 0)"/><path d="M72.694 694.25h245.33v12.53H72.694zm-6.466 12.51h258.26v12.512H66.228zm19.348-31.25h219.56v8.11H85.576zm-6.42 8.05h232.4v10.622h-232.4zm10.256-14.28h211.89v6.174H89.412zm22.998.03h16.005v49.935H112.41zm3.54 0h8.917v49.936h-8.917zm71.13 0h16.006v49.935H187.08zm3.65 0h8.917v49.936h-8.917zm71.46 0h16.005v49.935H262.19zm3.54 0h8.917v49.936h-8.917z"/><path d="M98.935 664.23h193.07M115.79 712.97h9.244m-9.244-6.25h9.244m-9.244-6.25h9.244m-9.244-6.25h9.244m-9.244-6.25h9.244m-9.244-6.25h9.244m-9.244-6.25h9.244m65.736 37.51h8.607m-8.607-6.253h8.607m-8.607-6.254h8.607m-8.607-6.253h8.607m-8.607-6.253h8.607m-8.607-6.253h8.607m-8.607-6.254h8.607m66.193 37.51h9.244m-9.244-6.25h9.244m-9.244-6.25h9.244m-9.244-6.25h9.244m-9.244-6.25h9.244m-9.244-6.25h9.244m-9.244-6.25h9.244" fill="none"/></g></svg>