<svg xmlns="http://www.w3.org/2000/svg" height="512" width="512" viewBox="0 0 512 512"><defs><clipPath id="a"><path fill-opacity=".67" d="M0 0h512v512H0z"/></clipPath></defs><g clip-path="url(#a)"><path fill="#006" d="M0 0h1024v512H0z"/><path fill-rule="evenodd" fill="#006" d="M0 0h512v256H0z"/><path fill="#fff" d="M0 0v28.622L454.757 256h57.24v-28.62L57.242 0H0zm511.998 0v28.62L57.24 256H0v-28.62L454.757 0h57.24zM213.333 0v256h85.333V0h-85.333zM0 85.333v85.333h511.998V85.333H0z"/><path fill="#c00" d="M0 102.4v51.2h511.998v-51.2H0zM230.4 0v256h51.2V0h-51.2zM0 256l170.666-85.334h38.16L38.162 256H0zM0 0l170.666 85.333h-38.16L0 19.08V0zm303.17 85.333L473.838 0h38.16L341.333 85.333h-38.16zM512 256l-170.666-85.334h38.16L512 236.92V256z"/><path d="M307.91 185.907c-1.133.684-3.4 2.74-5.666 2.054-2.266-.682-7.366-9.586-13.032-8.216-5.666 1.37-9.066 3.424-11.332 3.424s-8.5 2.055-8.5 7.533c0 5.48.568 9.59 1.7 9.59 1.134 0 2.834-3.425 2.834-3.425s.566 6.85 4.533 6.85 12.465.684 13.032 2.74c.564 2.053-3.968 6.847-2.835 10.956 1.133 4.11 6.232 10.96 6.232 10.96s-7.365 5.48-7.365 8.902 1.133 6.85 1.133 6.85l-32.863 1.37s-2.267 97.25-1.134 104.784c1.133 7.53 3.965 26.023 3.965 26.023s-7.365-2.396-13.598 3.77c-6.233 6.162-28.046 16.774-28.613 21.57-.567 4.792-2.55 8.902-.283 12.326 2.266 3.424 10.24 12.728 7.932 12.33-7.607-1.313-10.437-12.12-15.58-16.095-5.055-3.902-15.015-3.082-16.15 1.025-1.132 4.11-.565 10.958 0 12.328.568 1.37 6.8 23.286 8.5 28.08s19.548 11.983 27.48 11.3c15.015.34 21.814-6.506 22.38-5.82.567.684 32.303 33.41 97.455 33.557 50.718.112 88.956-32.874 88.956-32.187 0 .683 20.965 6.847 28.33 4.794 7.366-2.058 18.132-6.85 20.398-11.645 2.268-4.794 8.5-29.45 9.067-33.556.567-4.11 0-8.905-5.1-10.275s-7.932-1.026-10.765.344-3.683 5.14-7.932 11.986c-2.265 2.056-8.215 7.533-6.515 6.163s5.382-11.64 5.95-15.07c.566-3.422 2.265-9.586-1.7-13.01-3.967-3.423-10.042-4.823-17-9.93-6.605-4.526-11.896-11.985-15.864-11.985-3.964 0-8.497-2.053-7.93-2.053.567 0 5.11-9.95 3.975-20.22-1.133-10.276.558-108.534-.01-108.534-.565 0-28.33 2.057-28.33.687s2.267-10.958 0-17.12c-2.265-6.165-11.898-10.274-9.065-11.643 2.832-1.37 15.298-4.795 14.73-10.274-.566-5.48-8.5-4.794-11.898-6.85-3.4-2.054-13.598-11.64-14.73-11.64-1.135 0 29.46-18.492 27.196-18.492-2.267 0-14.166-3.424-18.132-1.37 0-3.424 16.432-13.697 13.6-15.067-2.834-1.37-15.866-2.74-12.467-3.422 3.4-.685 4.53-8.904 3.965-8.904-.567 0-14.732 2.055-14.732 2.055s-3.4-4.795-4.533-4.795c-1.132 0-6.23 2.74-6.23 2.74l-2.834-7.534-6.233 4.11-2.833-3.424s-5.1 1.37-5.1 0c.215-.05-.586-3.44-1.387-3.44-.802 0-6.41 4.36-6.61 4.117-.2-.242-6.41-8.96-6.41-8.717 0 .243-4.41 16.465-4.61 16.465-.2 0-4.406.486-4.606.728-.2.242-22.437-12.833-22.236-12.59.2.242 5.81 12.59 5.81 12.59s-4.806 2.664-4.806 2.906.8 5.568.8 5.568l-14.825-5.084s5.61 11.38 5.21 11.38c-.403 0-11.02.484-10.82.484.2 0 5.01 9.443 5.01 9.443l-1.804 5.57s15.956 11.26 14.823 11.945zm94.622 238.33c1.416 2.053 9.065 11.64 7.932 11.64-1.133 0-20.114 12.67-27.763 15.07-7.65 2.395-32.58 6.847-31.162 6.505 1.417-.34 22.388-11.824 30.887-17.3 8.5-5.477 20.107-15.23 20.107-15.914zm-118.424-.346c-1.133 1.37-6.516 11.988-6.516 11.988s15.58 10.958 27.197 15.07c11.613 4.106 31.444 5.476 30.31 5.134-1.132-.34-24.93-10.957-31.73-16.434-6.8-5.48-18.98-15.755-19.263-15.755z" fill-rule="evenodd" fill="#fff"/><path d="M296.555 170.292s9.915 7.19 12.18 8.903 9.634 9.245 10.2 8.903c.567-.342 4.533-4.11 4.533-4.11s-8.216-7.875-13.315-9.587-13.598-3.422-13.598-4.107zm-1.417-7.875c.85 0 16.432 9.588 21.248 14.382s6.8 10.955 7.366 10.955c.566 0 7.932-1.37 7.65-1.37-.285 0-3.4-12.327-10.483-16.093-7.085-3.767-25.5-7.876-25.783-7.876zm73.372-24.77c-.282 0-3.115 10.272-3.965 13.353-.85 3.082-2.266 9.588-2.266 9.588s-12.468 1.37-11.9-.342c.566-1.713 18.98-22.6 18.13-22.6zm-70.54 12.443s14.732 11.983 19.832 18.832c5.1 6.848 10.198 18.833 10.482 18.833.283 0 13.88-3.424 13.88-3.082s-15.863-19.175-23.513-24.996-20.395-8.903-20.68-9.588zm15.3-3.198s7.366 13.696 8.782 18.49c1.416 4.794 5.666 17.122 5.666 17.122h11.615s-5.666-15.41-11.898-22.943-13.882-11.982-14.165-12.667zm3.962-7.535c.284 1.028 10.766 13.013 13.315 20.888 2.55 7.876 4.533 17.806 4.533 17.806l10.2-3.08s-9.067-20.203-14.733-25.68c-5.666-5.48-12.748-9.246-13.315-9.93zm84.708 32.305s-21.246 2.74-28.895 5.137-11.9 11.3-11.9 11.3 9.917 4.45 10.483 3.765 6.516-7.876 13.032-10.616c6.516-2.74 17.848-9.246 17.28-9.59zm-.85-16.78c-.567.343-17.564 17.122-22.947 22.6-5.383 5.48-10.482 11.3-11.05 11.643-.565.342-11.047-1.712-10.48-2.397.566-.685 15.58-15.41 25.496-21.915 9.914-6.506 18.13-9.245 18.98-9.93zm-4.248-11.986c-1.7 2.397-18.415 18.833-22.948 24.655s-11.898 16.096-11.898 16.096-8.782-4.794-8.216-6.85c.567-2.053 12.465-14.038 20.964-20.887 8.5-6.85 22.947-12.328 22.098-13.013zm-16.998-1.37c-.283.343-10.2 13.012-12.182 16.436-1.983 3.425-7.932 18.49-7.932 18.49s-8.782-9.244-8.782-9.587 11.048-14.38 17.564-19.86 11.615-4.452 11.332-5.48zm-24.56 18.71c0 2.407-1.615 4.358-3.607 4.358s-3.606-1.95-3.606-4.358 1.617-4.36 3.608-4.36 3.606 1.952 3.606 4.36zm217.02-396.192c0 2.14-1.616 3.874-3.608 3.874s-3.606-1.734-3.606-3.874 1.614-3.874 3.606-3.874 3.606 1.735 3.606 3.874zm-2.31 3.785c0 2.14-1.973 3.873-4.407 3.873s-4.407-1.735-4.407-3.875 1.973-3.875 4.407-3.875 4.407 1.735 4.407 3.874zM358.087 169.68c0 4.147-2.242 7.507-5.008 7.507s-5.008-3.36-5.008-7.506c0-4.143 2.242-7.503 5.008-7.503s5.008 3.36 5.008 7.505zm201.52-388.528c0 3.21-2.24 5.81-5.007 5.81-2.764 0-5.006-2.6-5.006-5.81 0-3.21 2.242-5.812 5.008-5.812 2.767 0 5.01 2.602 5.01 5.812zM337.655 174.525c0 2.808-1.704 5.085-3.806 5.085s-3.808-2.277-3.808-5.085 1.704-5.085 3.806-5.085c2.1 0 3.805 2.277 3.805 5.085zm204.32-382.472c0 3.343-2.6 6.053-5.81 6.053-3.208 0-5.81-2.71-5.81-6.053s2.6-6.053 5.81-6.053c3.208 0 5.81 2.71 5.81 6.053zm39.324-9.4c0 2.006-2.064 3.632-4.61 3.632s-4.607-1.626-4.607-3.632 2.063-3.632 4.608-3.632 4.608 1.628 4.608 3.634zm-228.822 390.66c0 2.942-2.87 5.327-6.41 5.327s-6.41-2.385-6.41-5.327 2.87-5.327 6.41-5.327 6.41 2.385 6.41 5.327zm220.898-374.24c0 3.61-2.69 6.536-6.01 6.536s-6.01-2.93-6.01-6.54 2.69-6.537 6.01-6.537 6.01 2.927 6.01 6.538zm-1.607 11.532c0 2.407-1.527 4.358-3.408 4.358s-3.405-1.95-3.405-4.358 1.524-4.36 3.405-4.36 3.406 1.953 3.406 4.36zm-211.68 369.73c0 3.076-2.332 5.57-5.21 5.57-2.875 0-5.207-2.494-5.207-5.57s2.332-5.57 5.208-5.57c2.88 0 5.21 2.494 5.21 5.57zm202.524-374.087c0 2.675-2.063 4.843-4.607 4.843-2.545 0-4.607-2.166-4.607-4.84 0-2.675 2.063-4.843 4.607-4.843 2.545 0 4.607 2.168 4.607 4.842zM351.68 181.543c0 2.942-2.154 5.327-4.81 5.327-2.654 0-4.807-2.385-4.807-5.327s2.153-5.327 4.808-5.327c2.657 0 4.81 2.385 4.81 5.327zM533.794-222.57c1.202 0 9.615 3.39 9.615 3.39s-10.42 4.84-8.816 4.357 11.62-1.938 10.817-1.938c-.8 0-8.813 9.2-6.41 8.716 2.405-.484 7.213-6.295 7.613-6.295.4 0 5.21 9.2 5.61 8.717.4-.484 0-9.2.4-9.2s10.016 5.81 9.215 5.326c-.802-.484-6.41-7.264-6.01-7.264.4 0 13.22 1.452 12.42.97-.802-.486-8.414-4.845-8.414-4.845s5.61-6.295 4.407-6.295-10.416 6.296-9.615 5.812c.802-.484 10.017-13.075 10.017-13.075l-9.215 5.327s1.6-7.748.8-7.264-7.212 10.17-7.612 10.17-2.004-9.686-2.004-9.686.4 10.654-2.002 11.138c-2.403.485-10.816 2.422-10.816 1.937z" fill-rule="evenodd" stroke="#6d6666" fill="#fec500"/><g fill-rule="evenodd"><path d="M304.743 227.877c.2.97 6.61 18.402 16.426 17.918s13.82-3.39 13.42-3.632c-.4-.242-4.607-3.148-7.01-9.443-2.405-6.296-2.806-8.96-2.806-8.96l-20.032 4.117zm35.057-6.78s7.21 17.19 10.416 19.613c3.206 2.42 10.618 4.358 13.823 4.116s7.01 0 7.01 0-3.206-1.695-5.81-11.138-3.406-12.59-3.406-12.59H339.8zm44.07 6.296s-1.402 12.59 0 15.738c1.403 3.15 8.414 8.96 8.414 8.96s8.414-1.21 8.614-8.96c.2-7.746-2.805-15.01-2.805-15.01l-14.223-.726z" fill="#00389b"/><path d="M288.94 21.015s1.163 4.65 0 8.14-11.046 12.79-11.046 20.347c0 7.558 11.627 30.812 47.09 31.394 35.464.58 80.23-19.185 79.648-19.767-.58-.58-84.88-56.976-86.04-56.395-1.16.582-29.65 17.44-29.65 16.28zM523.23 61.13s7.557 20.347 10.464 22.673c2.907 2.325 4.07 6.976 4.65 6.976s48.836 10.462 48.836 10.462 4.65-13.37-2.325-23.836c-6.977-10.465-33.138-37.79-33.138-37.79l-28.49 21.512zm33.14-25c1.162 0 12.79 9.883 22.092 4.65 9.3-5.23 24.417-19.184 24.417-19.184s-12.79 4.07-22.094 3.488c-9.302-.58-23.836 11.627-24.417 11.046zM287.2 23.34s-3.488-9.883-12.79-10.465c-9.302-.58-26.162 1.163-31.975-3.488-5.814-4.65-7.558-15.697-10.465-15.116-2.907.583-10.465 0-11.046 0s-3.488-9.3 4.65-13.95 15.117-.583 19.767-4.07c4.653-3.49 11.63-5.815 20.93-6.396 9.304-.58 24.42 11.628 31.396 14.534 6.976 2.907 22.092 6.395 27.905 3.488 5.815-2.907 38.37-15.697 50-16.278 11.626-.58 36.044-1.162 45.346-.58s45.928 5.23 56.974 10.464c11.045 5.233 69.763 25.58 77.902 30.23 8.14 4.653 26.162 11.63 26.162 11.63s-31.976 31.393-47.672 36.625c-15.697 5.232-65.695 13.372-95.345 11.627-29.65-1.744-52.904-4.65-75.578-16.278-22.68-11.626-47.1-22.672-48.26-28.486-1.16-5.813-.58-13.37-.58-13.37l-27.326 9.882zm-36.05-37.79c-1.163.582-6.976 2.908-5.814 4.07 1.163 1.163 3.49 4.65 10.465 4.07 6.98-.58 14.536-4.65 14.536-4.65s-8.72-4.07-19.185-3.49z" stroke="#000" stroke-width="1pt" fill="#005120" transform="matrix(.345 0 0 .416 198.37 196.607)"/><path d="M250.57-13.286v6.395s8.14 2.323 8.14.58c0-1.745.58-5.814-1.164-5.814s-6.395-.582-6.976-1.163z" stroke="#000" stroke-width="1pt" transform="matrix(.345 0 0 .416 198.37 196.607)"/><path d="M331.95-8.453c2.056-3.7 0-8.632 11.922-14.388 11.92-5.757 32.68-4.11 32.68-4.11s-5.96 4.52-6.165 9.247c-.205 4.727.41 6.783.41 6.783s-11.304-3.7-19.937-1.438-18.704 4.522-18.91 3.905zm53.45-20.143c-1.233.617-10.277 10.688-9.25 13.772 1.028 3.083 13.155 10.483 17.06 9.866 3.906-.616 21.788-9.25 22.816-13.566 1.028-4.316 1.85-10.072.41-11.305-1.438-1.23-30.83 1.647-31.036 1.235zm39.26-1.644c-2.26 2.26-1.44 13.155-.617 14.388.822 1.233 15.005 15.416 18.088 16.238 3.085.822 25.9-1.44 27.75-3.905s7.4-12.95 5.756-15.414c-1.645-2.467-6.578-5.756-21.788-9.044s-24.254-2.877-29.187-2.26zm58.16 13.77c3.7 1.85 25.282 12.334 38.026 20.76 12.743 8.428 17.882 18.09 21.582 18.91 3.7.823 18.704-8.22 19.32-10.687.618-2.467-18.292-15.62-31.036-21.582-12.744-5.96-47.892-6.78-47.892-7.4zm-4.52 8.84c-1.85 1.644 23.02 45.014 27.748 46.453 4.728 1.438 33.093-8.428 32.682-11.716-.41-3.288-7.81-9.866-25.28-19.526C495.98-2.08 481.8-8.45 478.3-7.63zM447.47 8.196c-3.905 2.26-10.07 41.11-6.166 42.96 3.905 1.85 52.003-4.728 53.853-9.044 1.85-4.317-19.733-38.643-26.105-38.643-6.37 0-17.882 1.643-21.582 4.726zm-49.74-8.22c-5.14 4.726-4.11 40.902-1.85 43.163 2.26 2.26 30.83 9.66 33.914 6.986 3.084-2.672 7.195-43.37 4.317-46.453C431.235.59 423.22-6.81 417.05-7.427c-6.165-.615-16.442 5.96-19.32 7.4zm-64.54-.618c-4.728 3.7-4.933 13.36.205 15.005 5.14 1.644 17.882 7.194 29.804 12.333 11.92 5.14 18.703 11.305 22.197 11.1 3.494-.207 6.783-36.382 3.083-38.438-3.7-2.055-14.593-3.7-24.87-3.29-10.277.412-25.282 1.44-30.42 3.29z" stroke="#000007" stroke-width="1pt" fill="#001707" transform="matrix(.345 0 0 .416 198.37 196.607)"/></g><path d="M240.17 388c2.906-2.83 7.426-9.745 13.56-10.06 6.134-.314 12.59 5.345 12.59 5.345s6.458 26.406 6.136 26.406c-.323 0-10.654 7.546-10.977 7.546-.325 0-4.52-10.373-8.396-9.43-3.875.942-3.552 15.088-4.197 14.146-.646-.943-17.11-20.433-16.465-21.06.645-.63 8.07-11.946 7.748-12.89zm170.476-3.46c1.937-.313 10.654-6.915 16.788-6.6 6.135.313 9.686 3.142 12.914 5.972 3.228 2.83 7.103 10.058 7.103 10.058s-7.746 21.376-8.392 21.376-3.875 1.888-4.52.315-2.582-6.6-6.457-7.23c-3.873-.63-4.842 6.917-4.842 6.917l-12.59-30.806z" fill-opacity=".996" fill-rule="evenodd" fill="#d40f0f"/><path d="M414.84 391.15c0 1.886 11.947 31.436 31.318 37.092 19.37 5.66 25.505-5.343 27.764-9.115 2.26-3.773 10.332-3.458 10.332-3.458s-1.937 27.662-5.166 31.12c-3.228 3.457-5.812 11.002-23.89 11.315-18.08.315-34.545-16.974-40.033-22.005-5.49-5.03-12.593-18.23-15.498-24.204-2.905-5.972 15.497-20.117 15.174-20.747zm-210.505 58.774c.323 0 8.717 9.117 20.985 8.173 12.27-.942 33.254-8.173 42.94-20.747 9.685-12.574 14.528-26.092 14.528-26.092s-14.206-25.147-14.53-25.147c-.322 0-1.613 8.175-4.196 13.52-2.583 5.342-9.685 20.43-21.63 25.147-11.947 4.716-11.947 6.6-16.79 5.973-4.84-.63-17.432-8.174-17.432-8.49 0-.313-6.134 14.776-6.134 14.776s-1.292 9.745 2.26 12.888zm35.617-62.798c-.913 0-23.742 12.448-22.83 17.783.914 5.333 39.267 80.91 121.448 81.796 82.183.89 132.41-68.462 128.756-80.02-3.652-11.558-29.22-24.896-29.22-24.896s6.39 5.336 5.48 12.45c-.915 7.112-29.223 68.462-100.45 66.685-71.225-1.78-105.013-56.014-105.013-62.24 0-6.222 3.653-9.78 1.827-11.558z" fill-rule="evenodd" fill-opacity=".996" fill="#fddc59"/><path d="M462.617 442.074c1.94-1.572 13.884-34.265 20.664-33.32 6.78.942 4.52 10.686 3.877 13.202-.646 2.514-7.427 25.148-7.427 25.148s.323-5.344-4.198-6.6c-4.52-1.258-11.946 2.2-12.914 1.57zm-258.282 8.183c0-1.777-5.48-8 .913-9.78 6.392-1.777 14.61 1.78 14.61 1.78s-4.565-13.34-10.044-24.008c-5.478-10.67-7.305-8.89-11.87-7.115-4.566 1.78-4.456 6.484-1.716 13.597 2.74 7.113 8.108 27.303 8.108 25.524z" fill-opacity=".996" fill-rule="evenodd" fill="#d40f0f"/><path fill-rule="evenodd" fill="#fdc400" d="M279.677 389.286l7.927-26.85-22.015-16.88 27.57-.635 8.994-26.495 9.116 26.452 27.575.51-21.94 16.982 8.045 26.81-22.672-15.957z"/><path d="M428.346 249.536v103.302c.203 50.488-51.28 94.698-85.464 103.303-34.188-8.603-85.667-52.813-85.464-103.297V249.54h170.928z" fill-rule="evenodd" fill="#fff"/><path d="M177.16 325.98l.42 160.73s2.387-3.288 35.013-1.284c32.627 2.004 35.433 35.433 70.867 35.433 35.433 0 35.433-35.435 70.866-35.435s35.433 35.433 70.866 35.433 35.433-35.434 70.866-35.434 35.433 35.433 72.87 37.46c33.43-2.027 33.43-37.46 69.062-39.464l35.233 2.004v-159.45h-496.06z" fill-rule="evenodd" fill-opacity=".996" transform="matrix(.345 0 0 .402 196.37 118.45)" stroke="#000" stroke-width="1pt" fill="#d40f0f"/><path d="M257.415 335.03v21.37h12.21c11.24.806 12.208 14.25 24.417 14.25 12.21 0 12.21-14.25 24.42-14.25s12.208 14.25 24.417 14.25 12.21-14.25 24.417-14.25 11.52 13.434 24.418 14.25c11.52-.816 12.14-13.444 24.42-14.25h12.208v-21.37h-12.21c-12.208 0-12.208 14.25-24.418 14.25-12.21 0-12.21-14.25-24.418-14.25s-12.21 14.25-24.42 14.25-12.208-14.25-24.417-14.25-12.21 14.25-24.418 14.25-12.21-14.25-24.418-14.25h-12.21zm3.683 42.74l8.527 21.375c11.242.805 12.21 14.248 24.418 14.248 12.21 0 12.21-14.248 24.42-14.248s12.208 14.248 24.417 14.248 12.21-14.248 24.42-14.248 11.517 13.433 24.417 14.248c11.52-.815 11.857-13.443 24.135-14.248l8.81-21.704-8.526.33c-12.21 0-12.21 14.25-24.42 14.25s-12.21-14.25-24.417-14.25-12.21 14.25-24.42 14.25-12.21-14.25-24.42-14.25-12.21 14.25-24.42 14.25-12.21-14.25-24.416-14.25h-8.527zm81.784 78.368c12.21 0 40.184-21.373 39.898-21.373.284 0-3.27-14.248-15.48-14.248s-12.21 14.248-24.42 14.248-12.21-14.248-24.417-14.248-15.326 14.248-15.353 14.248c-.567 0 27.562 21.373 39.77 21.373z" fill-rule="evenodd" fill-opacity=".996" fill="#0062bb"/><path d="M90.85 117.57c.82 0 8.22 1.233 13.564.822 5.344-.41 7.4-2.467 7.4-2.878v-1.233h6.988s1.233 5.757.41 6.168-2.877 2.056-3.288 2.056 0-2.878-.822-2.056-1.233 2.056-1.233 2.056-.824-1.234-1.235-1.234-1.233 1.233-1.233 1.233 0-1.234-.412-1.234c-.41 0-2.465 2.054-2.465 2.054l-2.055-1.645s-1.234 2.055-1.645 2.055-2.877-1.644-2.877-1.644l-4.11 2.467s0-3.7-.823-3.29c-.822.412-5.344.412-5.344.412s-1.232 2.466-1.643 2.466-2.055-2.055-1.644-2.055 1.233-1.233.822-1.644c-.41-.41-2.466 0-2.466-.41s-.823-2.88-.41-2.88 2.053.413 2.053.413V115.1h2.055l.412 2.467zm7.398-23.434c-.41 0-3.29 3.29-2.878 6.988.41 3.7 7.4 9.044 7.4 9.044s3.7-1.644 4.933 0 1.233 6.577.822 6.577-5.344 1.234-5.344.41c0-.82 0-1.643-.41-1.643s-4.932.41-4.932.41l.41-1.643-4.11-.824 1.645-1.645s-6.578-2.876-6.167-2.876 2.878-1.644 2.878-1.644L87.56 104h2.878s-4.11-3.288-3.7-3.288c.41 0 2.466.41 2.466.41l-1.233-3.287h1.235l-1.233-2.467 2.056-.822L91.26 96.6l-.41-4.932 2.876.412v4.11s1.233-2.466 1.233-2.877c0-.41 3.7 1.644 3.287.822z" fill-rule="evenodd" fill-opacity=".996" transform="matrix(1.684 0 0 1.465 126.765 126.602)" stroke="#000" stroke-width=".625" fill="#fdc400"/><path d="M399.533 301.86c-.865.753-3.462 2.41-3.462 2.41s5.888-.452 5.714-.452-2.076-1.507-2.25-1.958zm5.02 2.857c-.346.45-1.385 5.12-.693 4.817.692-.3 3.46-3.763 3.46-3.763l-2.768-1.052zm7.947.6c.865.754 4.846 4.216 4.327 3.463-.52-.752-1.04-3.915-1.384-4.064-.347-.15-2.597.902-2.942.602zm-69.737-4.966c-.518.153-4.845 3.014-4.845 3.014s7.27-1.205 6.922-1.205c-.345 0-2.25-1.355-2.077-1.808zm4.497 3.62c-.692.603-2.942 4.818-2.077 4.67.866-.15 4.674-2.863 4.674-2.863l-2.597-1.806zm-2.78-5.874c-.518-.15-4.153-1.657-3.98-1.657s4.847-1.055 4.847-1.055l-.866 2.71zm-68.527-1.95l-5.192-3.613 6.58 1.806-1.386 1.807zm-4.5 2.404c-.692 0-7.27 3.612-7.096 3.612s9.173.15 9 0c-.173-.15-1.558-3.31-1.904-3.613zm4.153 5.273c-.692.302-5.884 3.764-5.538 3.764.346 0 7.788.15 7.788 0s-2.077-3.613-2.25-3.764zm-.692-37.498s-1.904-4.216-1.73-4.216c.172 0 4.845 3.31 4.845 3.31l-3.117.904zm5.192-5.27c0-.15.52-2.71.52-2.71s4.672 3.162 4.5 3.162c-.174 0-4.674 0-5.02-.452zm7.27 1.957c0-.15.52-3.915.52-3.915s4.326 5.12 3.98 5.27c-.346.15-4.154-.752-4.5-1.355z" fill-opacity=".996" fill-rule="evenodd"/><path d="M137.26 110.86c0 .206 4.316 3.7 4.42 4.522.1.822-7.812 1.028-7.812 1.028s-2.26-1.747-2.98-1.645c-.72.103-1.028 1.85-1.028 1.85l1.85 1.028-3.494.205 1.028 1.953 2.672-.204-.617 1.85s1.642 1.234 1.95 1.028c.31-.205 1.337-2.055 2.16-2.364.82-.31 2.57-.31 2.57-.31s-1.338 2.262-.72 2.262c.615 0 3.39-2.364 3.39-2.364s.617 2.158.72 2.158c.102 0 2.055-2.466 2.055-2.466s0 1.953.308 1.953 3.186-2.467 3.186-2.467 2.26 2.878 2.57 2.672c.307-.205.615-3.083.923-3.083s2.26-.308 2.26-.41-1.232-1.132-1.438-2.57c-.205-1.44.206-4.83.103-4.83s-13.875.513-14.08.205zm-21.89-6.26h40.286c4.11 0 7.81-1.644 7.81-4.11 0-2.467-6.577-2.878-9.043-2.056-2.467.822-13.155 5.755-17.677 5.344s-8.632-3.29-9.043-6.166c-.412-2.878 2.055-5.344 6.577-5.344s10.277 1.644 11.51 1.233 4.11-3.7 5.344-4.11c1.233-.41 4.933-.82 4.933-.82l-1.644 1.232 5.344-1.232s-4.11 4.522-8.222 5.755c-4.11 1.234-12.743.822-16.032.822s-4.933-.41-4.522 2.056c.413 2.467 2.88 4.112 4.935 3.7 2.056-.41 8.222-2.466 8.222-2.466L142.5 97.2l7.4-.41s-.41-1.233 0-1.233 4.112.41 4.112.41-2.467-1.233-2.056-1.233 2.056 0 5.344.412c3.29.41 10.277 1.644 9.866 4.932-.41 3.29-2.877 6.166-5.755 6.166s-5.342-.822-5.342.412c0 1.233 3.29 2.055 5.344 2.055s4.523-1.642 4.934-1.642 1.233 2.466 1.644 2.466 2.878-.822 2.878-.822l-1.644 4.523 2.877.822s-1.644 1.644-1.233 1.644 2.877 0 2.877.41-3.288 2.88-3.288 3.29 2.466 1.644 2.466 1.644-1.643 2.467-2.054 2.056-2.056-2.468-2.056-2.468-.41 1.645-1.233 1.645-2.467-.41-2.467-.41 1.234-2.468.823-2.468-2.467 1.642-2.467 1.23l-1.233-1.235s3.288-1.336 3.288-3.29c0-1.95-1.336-3.904-7.296-4.212-5.96-.31-6.065 1.438-10.484 1.233-4.42-.206-4.42-1.953-7.708-1.953-3.288 0-13.463 4.11-18.19 4.008-4.727-.1-10.688-.41-10.483-.615.206-.206 3.906-9.66 4.008-9.966z" fill-rule="evenodd" fill-opacity=".996" transform="matrix(1.684 0 0 1.465 125.614 126.933)" stroke="#000" stroke-width=".625" fill="#fdc400"/><path d="M106.88 102.46c-.41.206-4.008.72-4.214 4.522-.205 3.803.31 3.803.72 3.597.41-.207 1.233-3.496 1.233-3.496s-1.235 4.522.1 5.55a9.298 9.298 0 0 0 2.776 1.438l.513-3.597s-1.028 3.495 1.44 4.728c2.465 1.233 3.39.308 3.184-.617-.205-.925-.925-3.288-.925-3.288s1.952 2.157 2.055 2.362c.102.206 1.027 1.85 3.494 1.13 2.465-.72.72-2.363.72-2.363l-2.98-2.46s3.08 3.184 4.417 2.054-1.028-3.596-.925-3.493 1.953 3.494 2.672 1.336-1.13-2.775-1.747-4.83c-.617-2.056-1.13-2.26-.514-3.495.617-1.232.72-3.595.72-3.595s2.57.616 2.363-1.542c-.205-2.157-2.775-2.67-3.288-2.774-.515-.103-.413-2.26-.618-2.158-.206.103-1.85 1.336-1.85 1.336s-1.44-3.392-1.747-3.186-1.953 1.953-3.186 2.055c-1.234.103-1.954 1.85-1.954 1.85s-4.316-2.055-4.213 1.336c.103 3.392 2.57 2.57 2.57 2.672s-.412 4.728-.823 4.933z" fill-rule="evenodd" fill-opacity=".996" transform="matrix(1.684 0 0 1.465 126.765 126.602)" stroke="#000" stroke-width=".625" fill="#fdc400"/><path d="M310.765 269.092c.832-.255 2.057-1.318 3.476-1.19s3.696 1.218 2.57 1.813c-1.127.595-1.96.85-3.232.55-1.272-.3-2.25-.938-2.812-1.173zm14.117-.152c-.833-.254-2.058-1.317-3.477-1.188s-3.694 1.217-2.568 1.812c1.128.595 1.96.85 3.232.55 1.27-.3 2.25-.938 2.81-1.173z" fill-opacity=".996" fill-rule="evenodd"/><path d="M110.99 103.17c.103.514.41 4.83.616 4.522.206-.308 1.748-4.42 1.645-4.42s-2.156.104-2.26-.102z" fill-rule="evenodd" fill-opacity=".996" transform="matrix(1.684 0 0 1.465 126.999 126.673)" stroke="#000" stroke-width=".375" fill="#000039"/><path d="M109.96 103.17c.05-1.215.822-1.13 2.467-.925 1.644.206 2.466 1.028 2.363 1.234-.102.203-1.438.717-2.57.614-1.335-.41-2.297.09-2.26-.925z" transform="matrix(1.684 0 0 1.465 126.999 126.887)" stroke="#000" stroke-width=".75" fill="none"/><path d="M112.43 100.08l-.206 1.953m7.096-7.19s1.336.618 1.13 1.234c-.205.617-1.13.925-1.13.925m-11.2-2.672c-.308.103-.72.308-.925 1.13-.205.823.925 1.337.925 1.337" transform="matrix(1.684 0 0 1.465 126.999 126.887)" stroke="#000" stroke-width="1pt" fill="none"/><path d="M111.19 136.13s-1.454 1.454 1.017 1.454.727-1.308.727-1.308" transform="matrix(1.684 0 0 1.465 127.244 71.947)" stroke="#000" stroke-width="1pt" fill="none"/><path fill-rule="evenodd" fill="#fdc400" d="M323.643 438.01l7.193-23.638-19.977-14.86 25.02-.56 8.16-23.327 8.272 23.288 25.02.45-19.91 14.95 7.302 23.603-20.573-14.047z"/><path fill-rule="evenodd" fill-opacity=".996" fill="#003017" d="M327.05 431.675l5.993-18.778-16.647-11.804 20.85-.445 6.8-18.53 6.894 18.5 20.85.356-16.59 11.876 6.083 18.75-17.143-11.16z"/><path fill-rule="evenodd" fill="#fdc400" d="M282.467 390.136l7.116-22.354-19.763-14.052 24.752-.53 8.072-22.06 8.183 22.023 24.752.425-19.698 14.138 7.223 22.32-20.35-13.284z"/><path fill-rule="evenodd" fill-opacity=".996" fill="#003017" d="M285.847 384.142l5.93-17.758-16.47-11.163 20.627-.42 6.727-17.522 6.82 17.494 20.627.34-16.412 11.23 6.02 17.73-16.96-10.552z"/><path fill-rule="evenodd" fill="#fdc400" d="M365.42 390.136l7.207-22.354-20.016-14.052 25.07-.53 8.178-22.06 8.29 22.023 25.07.425-19.95 14.138 7.316 22.32-20.614-13.284z"/><path fill-rule="evenodd" fill-opacity=".996" fill="#003017" d="M368.84 384.142l6.006-17.758-16.68-11.163 20.89-.42 6.815-17.522 6.91 17.494 20.89.34-16.623 11.23 6.096 17.73-17.177-10.552z"/><path d="M223.666 402.987c9.01 38.77 47.03 67.544 98.24 74.348 65.775 8.74 128.525-24.586 140.064-74.388" fill="none"/><path d="M223.505 408.985l12.353-6.98 1.163 2.54-4.843 2.738 1.603 3.503 4.844-2.737 1.162 2.54-12.353 6.977-1.162-2.54 5.6-3.163-1.603-3.503-5.598 3.164-1.164-2.54m5.17 10.808l11.534-8.537 3.946 6.582-1.917 1.42-2.527-4.21-2.666 1.972 2.35 3.92-1.827 1.35-2.35-3.92-3.175 2.35 2.585 4.31-1.947 1.444-4.007-6.682m8.037 12.397l10.173-10.456 1.742 2.092-3.99 4.1 2.4 2.885 3.99-4.1 1.743 2.093-10.172 10.455-1.742-2.093 4.612-4.74-2.402-2.884-4.61 4.74-1.742-2.092M250 438.38l1.65 1.61 3-5.667-4.65 4.057m-6.455 1.93l11.485-9.29 2.605 2.54-6.77 13.884-2.09-2.037 1.782-3.41-2.232-2.176-2.797 2.423-1.983-1.93m10.022 9.31l6.843-10.37-2.394-1.95 1.35-2.05 6.873 5.6-1.353 2.048-2.395-1.95-6.844 10.37-2.084-1.698m5.62 4.494l7.22-13.144 2.19 1.485-2.832 5.155 3.018 2.047 2.832-5.156 2.19 1.484-7.22 13.144-2.19-1.485 3.273-5.957-3.02-2.047-3.27 5.958-2.19-1.483m13.57 8.587l5.826-13.97 6.574 3.383-.954 2.287-4.23-2.177-1.376 3.302 3.993 2.054-.93 2.232-3.994-2.055-2.565 6.15-2.342-1.204m12.854-2.122c-.81 2.368-1.196 3.913-1.16 4.634.044.717.402 1.218 1.076 1.5.66.28 1.215.17 1.66-.325.454-.5 1.09-1.948 1.907-4.34s1.207-3.948 1.17-4.663c-.04-.715-.392-1.213-1.06-1.494-.667-.282-1.23-.17-1.684.337-.455.507-1.09 1.957-1.91 4.35m-2.464-1.04c.52-1.526 1.002-2.718 1.442-3.573.44-.862.878-1.465 1.31-1.81.6-.496 1.208-.774 1.825-.835.618-.06 1.352.09 2.205.45s1.492.79 1.918 1.29c.425.5.717 1.157.875 1.972.114.59.077 1.365-.11 2.327-.182.966-.533 2.208-1.052 3.73-.518 1.513-.997 2.7-1.44 3.563-.44.855-.874 1.463-1.305 1.823-.605.494-1.217.77-1.834.83-.617.06-1.35-.088-2.205-.448-.852-.36-1.492-.79-1.917-1.29-.427-.5-.716-1.157-.87-1.97-.116-.577-.084-1.347.098-2.312.184-.97.537-2.22 1.058-3.746m11.92-3.27l2.475.82-2.665 9.946c-.305 1.137-.39 1.95-.25 2.44.144.488.536.836 1.174 1.047.63.21 1.123.15 1.474-.18.357-.326.69-1.068 1-2.224l2.656-9.91 2.44.808-2.73 10.187c-.264.99-.51 1.698-.737 2.124-.22.423-.493.767-.82 1.034-.496.4-1.072.634-1.73.7-.654.063-1.384-.04-2.19-.305-1.516-.504-2.49-1.223-2.923-2.158-.424-.94-.392-2.32.096-4.142l2.73-10.186m6.628 18.157l3.026-15.025 2.59.645 1.406 11.384 2.046-10.527 2.38.592-3.026 15.025-2.573-.64-1.428-11.41-2.05 10.546-2.37-.59m13.546.767l1.13.197c.576.1.986.123 1.23.07.244-.05.45-.177.618-.377.293-.354.538-.865.735-1.532.198-.673.404-1.767.617-3.282.207-1.475.3-2.56.276-3.25-.024-.694-.154-1.236-.39-1.628a1.22 1.22 0 0 0-.528-.456c-.22-.114-.58-.213-1.08-.3l-1.092-.19-1.515 10.747M312.43 477l2.144-15.213 4.1.714c.835.147 1.488.34 1.957.585.475.245.85.573 1.12.984.404.603.65 1.32.733 2.15.09.827.018 2.076-.218 3.748-.304 2.16-.588 3.676-.85 4.548-.262.865-.6 1.583-1.014 2.15-.4.572-.902.934-1.5 1.086-.59.148-1.577.1-2.96-.14l-3.51-.61m10.72 1.762l1.33-15.326 7.086.76-.22 2.548-4.533-.487-.308 3.542 4.218.453-.21 2.428-4.22-.45-.366 4.22 4.64.496-.226 2.587-7.19-.772m11.706-1.24l1.142.045c.58.024.99-.006 1.227-.09.237-.085.428-.237.573-.458.253-.39.442-.93.566-1.62.126-.695.213-1.81.262-3.34.05-1.493.024-2.58-.074-3.265s-.285-1.206-.562-1.564a1.177 1.177 0 0 0-.572-.382c-.232-.08-.6-.133-1.103-.153l-1.105-.044-.352 10.872m-2.6 2.167l.498-15.39 4.147.167c.845.033 1.514.14 2.006.32.5.18.903.456 1.215.83.468.544.788 1.224.96 2.04.177.805.24 2.055.184 3.75-.07 2.182-.19 3.725-.358 4.625-.167.894-.426 1.65-.776 2.27-.337.62-.795 1.046-1.373 1.276-.572.224-1.556.308-2.953.25l-3.552-.14m15.437.2l-.55-15.385 2.58-.114.55 15.387-2.58.114m6.892-.404l-.947-12.815-2.96.27-.187-2.53 8.493-.775.188 2.53-2.96.27.948 12.816-2.574.236m9.09-16.51l2.546-.49 1.6 10.224c.182 1.168.434 1.94.754 2.31.324.363.815.48 1.47.355.65-.126 1.067-.423 1.25-.89.188-.47.19-1.3.004-2.488l-1.594-10.186 2.51-.483 1.637 10.472c.16 1.017.222 1.772.19 2.266-.028.485-.135.93-.322 1.33a3.666 3.666 0 0 1-1.266 1.483c-.562.38-1.256.65-2.084.81-1.56.3-2.72.14-3.483-.487-.756-.632-1.28-1.883-1.574-3.755l-1.637-10.472m13.787 3.905l1.05-.283c.78-.21 1.292-.528 1.533-.95.24-.43.27-1.054.09-1.876-.183-.83-.454-1.362-.815-1.6-.357-.247-.94-.26-1.75-.04l-1.084.292.978 4.46m-.577 9.068l-3.28-14.96 4.356-1.18c1.33-.36 2.357-.287 3.085.216.73.503 1.257 1.506 1.587 3.008.322 1.477.252 2.662-.213 3.556-.46.886-1.33 1.502-2.605 1.847l-1.828.495 1.39 6.344-2.49.674m9.895-10.84c.69 2.414 1.25 3.89 1.68 4.43.436.533.996.678 1.683.437.674-.238 1.048-.705 1.12-1.402.075-.705-.235-2.277-.932-4.717s-1.26-3.927-1.687-4.46c-.43-.535-.984-.682-1.664-.442-.68.24-1.058.715-1.132 1.426-.074.712.238 2.287.934 4.727m-2.513.885c-.444-1.557-.733-2.822-.867-3.796-.135-.98-.13-1.756.017-2.325.193-.802.514-1.44.964-1.913.45-.474 1.11-.864 1.98-1.17.87-.306 1.61-.41 2.223-.312.614.1 1.21.413 1.79.943.417.385.822 1.02 1.212 1.902.397.882.816 2.098 1.26 3.648.44 1.544.727 2.806.862 3.786.134.974.132 1.75-.004 2.33-.2.804-.523 1.443-.973 1.916-.45.474-1.11.863-1.98 1.17-.868.306-1.61.41-2.222.31-.614-.097-1.207-.412-1.78-.945-.415-.37-.82-.996-1.217-1.88-.396-.885-.82-2.11-1.262-3.664m12.667 3.52l-5.156-14.294 2.463-1.098 6.955 8.503-3.672-9.965 2.263-1.008 5.155 14.293-2.447 1.09-6.987-8.51 3.68 9.983-2.255 1.004m16.05-7.884l-5.406-11.368-2.627 1.54-1.068-2.244 7.535-4.424 1.067 2.246-2.626 1.54 5.41 11.37-2.285 1.34m6.1-3.637l-7.4-13.017 2.17-1.522 2.9 5.107 2.99-2.097-2.9-5.107 2.168-1.522 7.4 13.02-2.17 1.52-3.353-5.9-2.99 2.1 3.353 5.9-2.168 1.52m9.244-6.656l-8.354-12.288 5.68-4.766 1.388 2.042-3.633 3.05 1.93 2.84 3.384-2.838 1.323 1.946-3.382 2.84 2.3 3.382 3.72-3.122 1.41 2.075-5.767 4.84m7.128-13.215l1.842-2.01.624.706c.597.676 1.08 1.055 1.448 1.14.37.073.74-.093 1.112-.5.39-.424.588-.856.595-1.294.01-.442-.172-.878-.55-1.306-.29-.328-.61-.53-.956-.61-.35-.083-.926-.054-1.725.09l-1.6.288c-1.367.26-2.343.307-2.927.14-.58-.17-1.142-.564-1.69-1.182-.815-.922-1.208-1.914-1.18-2.974.03-1.06.478-2.062 1.343-3.006.916-1 1.864-1.488 2.844-1.464s1.93.556 2.85 1.597c.093.104.163.187.21.25.05.056.09.11.125.156l-1.746 1.906-.26-.293c-.524-.595-.99-.925-1.39-.99-.403-.065-.806.122-1.208.56-.295.323-.442.676-.44 1.057 0 .374.152.73.455 1.073.41.462 1.24.56 2.493.293a.116.116 0 0 1 .032-.006l1.69-.344c1.193-.257 2.13-.288 2.806-.093.674.19 1.334.65 1.98 1.384.885.998 1.31 2.05 1.275 3.15-.034 1.104-.528 2.176-1.483 3.218-.992 1.084-1.985 1.607-2.977 1.57-.988-.044-2-.65-3.034-1.82a14.32 14.32 0 0 1-.516-.64l-.038-.044m10.724-4.323l-10.62-9.89 4.57-6.062 1.767 1.644-2.925 3.877 2.456 2.286 2.722-3.61 1.683 1.567-2.722 3.61 2.926 2.723 2.994-3.97 1.792 1.67-4.64 6.154m2.696-13.786l1.227-2.022-5.44-2.59 4.213 4.613m2.54 6.87l-9.748-11.48 1.935-3.194 13.254 5.7-1.556 2.563-3.27-1.533-1.66 2.737 2.517 2.776-1.472 2.43m1.644-12.52l1.18-2.554.792.452c.758.433 1.323.624 1.697.575.37-.058.676-.345.915-.86.25-.54.315-1.02.2-1.44-.115-.423-.413-.773-.893-1.047-.368-.21-.728-.29-1.08-.245-.357.045-.895.275-1.612.69l-1.437.832c-1.225.726-2.14 1.11-2.74 1.158-.6.04-1.245-.137-1.94-.533-1.034-.59-1.688-1.394-1.96-2.41-.272-1.018-.13-2.125.423-3.323.586-1.27 1.348-2.064 2.284-2.383.937-.32 1.99-.147 3.16.52.116.067.206.12.267.164.063.037.117.072.163.105l-1.118 2.42-.328-.19c-.667-.38-1.2-.53-1.602-.452-.4.08-.73.397-.987.955-.19.41-.23.794-.12 1.156.107.352.352.64.736.86.52.293 1.335.096 2.45-.595.01-.01.02-.014.03-.017l1.505-.917c1.06-.66 1.94-1.016 2.638-1.07.693-.052 1.45.155 2.272.624 1.12.64 1.82 1.49 2.1 2.547.28 1.06.114 2.25-.497 3.573-.635 1.376-1.43 2.22-2.382 2.53-.95.304-2.08.082-3.394-.667-.14-.08-.363-.222-.672-.43l-.048-.026"/></g></svg>