<svg xmlns="http://www.w3.org/2000/svg" height="512" width="512" viewBox="0 0 512 512"><defs><clipPath id="a"><path fill-opacity=".67" d="M81.385 0h496.06v496.06H81.385z"/></clipPath></defs><g clip-path="url(#a)"><g fill-rule="evenodd"><path d="M-83.47 0L-84 511.934h680.14L-83.474 0z"/><path d="M595.61 511.934L596.14 0H-84l679.613 511.934z" fill="#f00"/></g><path d="M335.93 127.394l-9.06-.47c-2.784-6.56-10.647-9.02-15.483-6.262-4.388.378-27.367-.346-27.367-.346l16.797 7.36c4.153 11.23 18.59 13.872 18.59 13.872-1.28 20.702-20.95-2.67-37.465 9.125-11.796 7.077-11.935 15.53-18.31 29.185-1.98 3.796-10.285 13.59-10.285 13.59l13.87-1.18-4.433 5.9 16.514-2.36s-2.22 1.85-3.54 3.256c2.447.478 18.875-3.846 18.875-3.846l-1.18 5.308c8.42-3.374 18.873-6.794 18.873-6.794s3.704 3.09 7.078 4.435l2.36-9.437 9.435 2.36 2.36-9.437c14.152 18.873 18.87 37.746 44.82 42.464l-2.36-9.436c7.22 3.093 20.62 9.65 20.62 9.65l2.03-4.316c11.25 8.068 20.595 7.926 26.893 8.824 0 0-4.694-11.75-4.717-11.796.307.12 4.695 2.383 4.718 2.36l-7.077-18.874 7.077 2.36-9.436-14.156 3.538-2.36-1.18-7.077c14.155 4.72 33.028 11.796 35.387 28.31 2.36 25.95-25.95 33.028-44.824 30.67 14.155 11.795 40.106 7.077 51.902-4.72 4.718-4.717 7.077-11.795 9.436-18.872 2.36 7.078 7.077 16.515 7.077 25.95-2.36 21.234-30.67 28.31-49.542 30.67 21.232 11.796 58.978-2.36 61.338-33.028 0-25.95-16.513-37.746-23.59-49.542-1.063-4.293-2.36-12.69-2.36-12.69.916.268 7.078 3.277 7.078 3.277s-4.177-7.808-4.72-9.46c0 0-7.36-20.052-10.026-24.487.44-.248 5.31.825 5.31.825L441.63 121.97s4.66-.424 5.473-.568c0 0-22.46-17.717-28.617-19.96l7.078-2.358c-14.154-7.077-30.668-2.36-44.823 7.078l2.36-7.078-4.32.402v-8.092l4.32-6.465-7.08-2.36 4.72-11.796-7.077 2.36 2.36-11.796s-5.286 2.454-8.494 2.1c.117.26 3.75-8.068 3.75-8.068-2.24-3.515.024-10.546.024-10.546-16.514 2.36-18.873 4.718-28.31 18.873-14.155 25.95-9.436 37.746-7.077 63.697z" stroke="#fc0" fill="#fc0" stroke-width="2.359"/><path d="M425.058 166.174c1.23 2.028 14.62 8.478 24.695 14.192-2.703-10.874-22.363-13.27-24.695-14.192z" fill-rule="evenodd" stroke="#f00" stroke-width="NaN" fill="#f00"/><path fill="#fff" fill-rule="evenodd" d="M100.707 425.59l-15.004-9.576-20.14 9.648 4.466-17.222-15.397-16.184L72.4 391.17l10.623-19.627 6.512 16.56 21.963 4.035-13.74 11.324zM295.76 315l-6.96-3.326-6.69 3.845 1.018-7.668-5.725-5.167 7.59-1.39 3.15-7.055 3.675 6.795 7.674.826-5.32 5.59zm32.74-45.68l-15.264-7.456-14.797 8.35 2.36-16.82-12.524-11.488 16.733-2.95 7.046-15.45 7.998 15.002 16.868 1.935-11.795 12.22zm-70.882-65.74l-17.98-9.008-17.614 9.703 3.013-19.883-14.675-13.753 19.844-3.28 8.548-18.206 9.25 17.857 19.953 2.505-14.124 14.316zm-62.45 71.916l-18.132-10.757-96.356 24.19 4.635-20.573-16.058-13.777 20.998-1.96 8.158-19.533 8.342 19.37 21.1 1.72-15.84 13.92z"/></g></svg>