<svg xmlns="http://www.w3.org/2000/svg" height="512" width="512" viewBox="0 0 512 512"><defs><clipPath id="b"><path d="M-15-7.5h30v15h-30z"/></clipPath><clipPath id="a"><path fill-opacity=".67" d="M-15-15h30v30h-30z"/></clipPath></defs><g clip-path="url(#a)"><path d="M0 0h1024v512H0z" fill="#00247d"/><g clip-path="url(#b)" transform="matrix(17.067 0 0 17.067 256 127.998)"><circle r="20" fill="#00247d"/><path d="M-20-10l40 20m-40 0l40-20" stroke="#fff" stroke-width="3"/><path d="M-20-10l40 20m-40 0l40-20" stroke="#cf142b" stroke-width="2"/><path d="M0 0l20 10h-3L-3 0m3 0l20-10h3L3 0M0 0l-20 10h-3L-3 0m3 0l-20-10h3L3 0" fill="#fff"/><path d="M-20 0h40M0-10v20" stroke="#fff" stroke-width="5"/><path d="M-20 0h40M0-10v20" stroke="#cf142b" stroke-width="3"/></g><path d="M251.443 321.604c-10.922 9.267-21.333 22.767-23.893 34.987-7.185 34.357-16.725 41.986-31.505 34.63 0 18.43 16.18 19.866 23.28 9.08 0 17.305 6.28 32.324 20.445 45.124 5.956 5.393 7.082 1.707 4.266-4.267-2.85-5.956-2.85-25.258-8.533-36.318 9.08 6.52 22.426 2.832 21.282-15.053-11.622 6.826-23.21 6.553-24.405-9.643-1.417-19.012 6.007-46.61 19.063-58.54zM-265.784-450.62c.768-6.827-.683-13.824-5.666-18.21-9.626-8.482-19.046-5.666-26.078 1.16-10.496-5.683-16.077 14.456-27.99 11.043 1.98 6.536 5.104 9.37 11.06 7.1-6.246 5.682 0 12.492-7.373 19.285 13.344 4.266 20.427-3.107 19.864-15.872 5.12 4.54 13.056 4.25 17.322-.854-7.1-2.27-7.133-8.448-4.266-14.2 4.267-8.515 24.27-8.19 23.126 10.548z" fill="#f7e017" stroke="#000" stroke-width=".512"/><path d="M.73 1.62c-.883.465-2.496.265-2.646-.882C-2.066-.41-.95-.926-.652-1.075c.467-.234.832.183.682.665a.755.755 0 0 0 .383-1.13c.682.05 1.314-.467 1.58-1.198-.24.227-.89.073-1.428.04.166-.184.164-.54.114-.722-.568.582-1.38.316-2.463 1.996.166-.583.482-1.747.665-2.512a1.89 1.89 0 0 0 .04-.23c.067-1.098-1.103-1.117-1.353-.618.273.308.13.668.03 1.214-.115.65-.365 2.146-.58 2.645-.068-.782-.583-.832-.683-1.215-.15.1-.233.366-.2.55-.182-.2-.815.05-1.047-.25-.25.5.15.998.566 1.214-.24.017-.3.308-.565.308.36.415.725.582 1.15.615.423.033.74.19.997.707.416.83 2 1.372 3.493.615z" fill="#337321" stroke="#000" stroke-width=".03" transform="matrix(17.067 0 0 17.067 256 256)"/><path d="M305.904 266.326c-8.517 23.552-31.796 40.295-42.292 42.855-17.87 4.354-54.324 22.035-64.12 31.15" fill="#f7e017" stroke="#000" stroke-width=".512"/><path d="M251.443 321.606c-13.483 11.434-20.48 39.527-19.064 58.54.39 5.29 1.876 8.874 4.13 11.076.99-10.787 8.5-38.657 27.647-51.1 16.197-10.512 41.473-34.064 50.826-61.03-1.707-4.83-4.54-8.227-9.933-11.64-9.284 25.447-34.168 37.65-53.59 54.154z" fill="#337321" stroke="#000" stroke-width=".512"/><path d="M2.418-.036C2.135.388 1.495.97.878 1.204a.806.806 0 0 0 .184-.5c-.782.3-2.345.267-2.977.034A4.06 4.06 0 0 0 2.11-.46c.133.15.25.283.308.424z" fill="#316d3a" stroke="#000" stroke-width=".03" transform="matrix(17.067 0 0 17.067 256 256)"/><path d="M195.207 314.864c-21.692 20.31-7.373 38.025 1.144 42.002-2.27 14.2 11.06 12.493 10.788 24.406 5.393-3.123 6.81-11.35 5.957-17.886 6.81 7.39 24.132-.854 27.82 12.783 2.27-15.055-9.388-30.09-23.844-28.675 5.975-5.393 2.56-14.182-3.122-16.47-1.144 11.094-13.62 11.094-18.45 7.68-4.83-3.413-8.806-14.49-.29-23.86z" fill="#337321" stroke="#000" stroke-width=".512"/><path d="M242.193 443.993c-2.355 1.365-2.185 4.403-.7 6.383 2.97 3.977-2.1 12.97 7.51 14.9 2.85.58 5.034-1.16 6.11-4.404 2.986-8.943-6.52-9.933-7.373-14.182-.854-4.267-3.55-3.84-5.547-2.697zm8.072 16.76c-3.174 1.468-5.956 3.55-4.676 13.756.51 4.23.29 14.47-3.415 14.624 2.27 1.127 7.1 2.338 9.096-.29 1.913 3.192 6.248 2.27 7.938-1.707 2.27 1.844 5.392-1.263 5.392-3.96 1.997 1.264 5.973-.58 4.966-6.672 2.424.853 5.547-.854 6.673-2.424-3.55-.7-12.476-5.53-14.61-9.352-2.132-3.84-7.68-5.684-11.366-3.977z" fill="#f7e017" stroke="#000" stroke-width=".512"/><path d="M-3.217-4.824a2.17 2.17 0 0 1 .282-.34m2.883 2.542c.147-.084.37-.093.618-.077m-.842 16.344c-.06-.083-.08-.432-.038-.645m.504.545" stroke-width=".03" stroke="#000" transform="matrix(17.067 0 0 17.067 256 256)" fill="none"/><path d="M400.455 315.137c34.92 29.236 37.19 52.515 31.796 66.152-2.85-12.785-17.32-32.65-32.374-37.754l.58-28.4z" fill="#f7e017" stroke="#000" stroke-width=".512"/><path d="M337.99 298.668h64.735v76.647c0 65.3-36.353 103.887-73.234 124.333-36.914-20.446-73.233-59.05-73.233-124.35v-76.63h45.398c.086 3.976.444 9.932 5.12 15.89 10.718-1.06 22.853-9.08 31.233-15.89z" fill="#337321" stroke="#000" stroke-width=".512"/><path d="M402.708 298.668v76.647c0 19.713-3.31 36.985-8.943 52.055L329.49 309.437 265.217 427.37c-5.632-15.053-8.943-32.325-8.943-52.038v-76.63h146.47z" fill="#006ec7" stroke="#000" stroke-width=".512"/><g fill="#f7e017" stroke="#000" stroke-width=".03"><path d="M6.018 12.172c.1.05.284.142.367.175.2-.4.233-.964.166-1.464-.214.55-.946.533-1.145.865.122.062.236.142.334.213-.25.25-.834.67-1.167.77V9.163c0-.25-.083-.457-.083-.665V7.76c0-.167-.034-.408-.184-.408s-.183.24-.183.407v.736c0 .208-.083.45-.083.665v3.57c-.183-.534-.9-.35-1.232-.884a.944.944 0 0 1 .4-.015c-.25-.85-.93-.914-1.064-1.164 0 .35-.15 1.165.083 1.514a.926.926 0 0 1 .225-.184c.283.616 1.554.617 1.854 1.632.24-.373 1.106-.806 1.712-1.456z" transform="matrix(17.067 0 0 17.067 256 256)"/><path d="M329.473 413.068c4.83 0 20.157-1.57 25.686-1.57 1.45 0 2.627-2.15 2.627-4.813s-1.195-4.813-2.63-4.813c-5.528 0-20.855-1.57-25.685-1.57-4.83 0-20.14 1.57-25.685 1.57-1.434 0-2.612 2.15-2.612 4.813 0 2.662 1.178 4.812 2.612 4.812 5.546 0 20.873 1.57 25.685 1.57zM-323.97-419.614m627.775 831.11c1.433 0 2.61-2.15 2.61-4.81 0-2.664-1.177-4.814-2.61-4.814m2.133 9.625c1.45 0 2.61-2.15 2.61-4.812 0-2.663-1.16-4.813-2.61-4.813m14.012 10.632c1.74 0 3.14-2.61 3.14-5.82 0-3.208-1.4-5.802-3.14-5.802m3.277 11.878c1.81 0 3.294-2.73 3.294-6.075 0-3.346-1.483-6.076-3.292-6.076m10.89 12.22c1.842 0 3.327-2.75 3.327-6.146 0-3.397-1.485-6.145-3.328-6.145m3.43 12.083c1.826 0 3.294-2.663 3.294-5.94 0-3.276-1.467-5.94-3.293-5.94M352.77 411.6c1.468 0 2.662-2.22 2.662-4.915 0-2.697-1.194-4.916-2.662-4.916m-54.956 58.982c1.775-1.075 3.857-1.997 6.093-2.56m51.696 3.123l-1.673-1.195m4.78 3.62c3.976-4.267 7.287-9.097 9.096-14.61"/></g><g stroke="#000" stroke-width=".03"><path d="M316.485 352.855c0-1.365 1.127-1.98 2.458-2.97 1.604-1.21 2.236-1.774 3.687-1.774h18.637c1.365 0 1.706.343 1.706 1.623v25.344c0 1.28-.34 1.622-1.706 1.622h-24.782v-24.083" fill="#fff"/><path d="M336.66 378.9c2.456 0 2.013-.052 3.736-1.776 1.792-1.792 1.622-1.62 1.622-3.276v-23.16c0-1.195-.29-1.536-1.588-1.536h-17.237c-1.35 0-1.93.53-3.414 1.672-1.23.94-2.254 1.485-2.254 2.782v25.276h19.132z" fill="#e5e5e5"/><path d="M338.485 378.37c0 1.28-.324 1.64-1.707 1.64h-18.62c-1.382 0-1.69-.36-1.69-1.64v-25.327c0-1.28.308-1.638 1.69-1.638h18.62c1.383 0 1.707.34 1.707 1.638v25.327z" fill="#fff"/></g><path d="M6.95 1.63a.837.837 0 0 1 .167.87H6.8c.133-.4.05-.78-.516-.83-.846-.075-1.83 1.563-3.31 1.762-.432-.515-.41-1.498.14-1.963C2.83.65 2.232-.25 1.817-.64" fill="#96877d" stroke="#000" stroke-width=".03" transform="matrix(17.067 0 0 17.067 256 256)"/><path d="M311.638 291.277c-1.228-18.893-8.874-34.492-19.627-45.108 5.105 1.415 15.6 1.415 22.7-3.688 9.37-6.247 33.794-17.187 42.72-12.493.717 1.552 1.144 5.12.563 7.372-2.116-5.666-25.685 3.123-32.36 5.82-6.382 2.986-9.215 6.963-6.945 15.906-3.686-3.124-2.423-6.11-6.246-8.38 1.554 3.686 2.834 10.36 3.26 15.752-1.416-3.84-3.976-12.066-9.506-16.896 4.83 9.387 9.01 31.864 7.032 43.794 3.823 0 12.288-3.755 15.684-6.452-2.987 4.25-11.57 7.237-17.1 8.363-2.493 2.987-4.2 10.65-4.046 14.9-.426-5.24 1.23-18.04 3.874-18.876zM66.238-5.373c-4.694-5.24-13.484-8.074-24.697-5.02 1.71-.852 5.395-2.286 8.67-2.85-.424-2.97-3.12-15.752-3.55-18.875l3.126-1.28c1.553 7.68 3.533 16.47 4.813 20.02 1.005.29 3.275.7 5.255 1.706-.853-2.987-5.683-24.406-5.53-26.693l4.267-2.27c1.69 11.64 4.387 28.536 7.647 35.26z"/><path d="M372.056 298.668c2.287-6.827.853-13.33-8.79-14.183-7.475-.666-15.6 6.605-25.19 14.165h33.98zM-55.92-58.668c-4.27.58-13.775-.273-18.605-1.843.29-1.28.785-2.614 1.416-4.013-2.97 1.997-8.652 5.854-10.77 8.55 6.83 1.434 20.875 2.134 27.958-2.696z" stroke-width=".512" fill="#96877d" stroke="#000"/><path d="M309.18 281.07c1.554 4.524 2.578 8.893 2.73 12.785m-15.615-69.395c-2.56 3.755-4.813 7.783-5.547 11.196 4.83 1.57 14.337 2.424 18.603 1.843m-22.34 7.61c1.844.29 3.55.65 5 1.06 5.12 1.416 15.618 1.416 22.7-3.704 7.083-5.12 26.42-20.993 48.266-22.7m-81.614 20.43c6.826 1.434 20.873 2.133 27.955-2.697 16.47-11.215 32.36-17.734 48.25-18.588" stroke="#000" stroke-width=".512" fill="none"/><path d="M400.455 315.137c23.843 16.47 41.44 32.36 46.542 57.908 5.12 25.55 14.763 32.36 26.693 25.55-2.834 14.763-17.596 16.47-30.09 5.12 1.127 17.016-5.683 37.462-23.28 44.835-1.125-10.206 5.633-18.313 3.688-26.676-.854-3.686-1.127-12.203 3.686-16.18-9.353 3.124-24.116-2.832-25.532-16.742 10.786 5.12 24.696 5.956 30.09-7.68 5.392-13.637 3.122-36.882-31.797-66.135zM38.535-129.367c7.374-19.303 26.694-17.323 33.213-9.08 19.013-10.786 21.573 13.62 37.753 8.79-.29 4.54-5.682 8.806-11.64 8.516 6.248 5.68-2.56 14.2 10.788 19.3-11.35 5.684-27.256-.29-31.505-15.89-3.687 7.374-17.033 7.374-22.426 1.418 11.64-3.124 10.786-13.91 4.266-18.178-6.588-4.266-18.176-2.56-20.446 5.12zM-75.65 163.228c5.29 17.083 16.247 32.972 28.057 43.793 13.62 12.494 34.202 9.37 45.706-2.56.273 23.775-24.338 25.618-38.043 18.177-6.04-3.295-10.923-1.57-5.12 3.686 8.807 7.936 28.058 13.858 50.826 18.722 39.732 8.534 25.55 40.022 13.91 39.75 3.327-.07 6.075-3.568 1.28-7.886-34.493-31.01-104.62-18.81-103.478-88.067C-61.558 81.973-91.937 74.89-77.754 53.3c4.54 3.687 12.493 3.977 14.763-1.707 1.755-4.42.612-12.1-7.34-18.705 1.296-.102 4.095 0 3.822-3.243.34 1.912 2.1 4.745 6.553 3.79 1.28 2.013 2.63 3.344 4.438 2.628.358-.154 1.434-.683 1.007-2.697.342 3.755 4.814 5.12 7.17 4.813z" fill="#337321" stroke="#000" stroke-width=".512"/><path d="M408.68 284.195c16.47 10.786 35.09 10.786 52.226-9.08 5.41-6.246 13.927-11.64 19.883-12.203 5.955-.563 5.665-6.246 10.222-7.373-2.85-.855-3.977-4.27-8.244-3.84 10.65-3.688 7.526-12.205 12.782-16.318-4.266 1.553-10.922-4.83-17.032 3.26 1.553-3.687-.58-8.09-2.134-9.797.563 4.267-8.363 5.12-10.07 15.907-.955 6.042-4.266 5.666-4.83-3.704-.426-6.845-3.686-25.823-7.68-35.466-3.96-9.66-4.864-22.904.513-24.9m-39.938 279.13c3.48 1.792 6.484 4.216 4.624 15.582-.768 4.694-.94 16.13 3.174 16.453-2.593 1.176-8.02 2.303-10.136-.7-2.27 3.464-7.066 2.252-8.79-2.254-2.628 1.963-5.973-1.655-5.854-4.676-2.27 1.348-6.622-.888-5.257-7.663-2.73.853-6.143-1.195-7.337-2.987 3.993-.63 14.182-5.632 16.725-9.813 2.56-4.182 8.807-6.008 12.852-3.926z" fill="#f7e017" stroke="#000" stroke-width=".512"/><path d="M9.143 13.778c.068-.09.107-.48.07-.718m-.586.588a1.1 1.1 0 0 0 .352-.572m-.697.297c.132-.055.464-.45.544-.713m-.852.264c.155-.027.636-.315.843-.632" stroke-width=".03" stroke="#000" transform="matrix(17.067 0 0 17.067 256 256)" fill="none"/><path d="M366.082 250.42c-.46 29.098 11.64 43.827 28.383 53.42-6.23-3.756-3.533-16.522-11.913-20.635 1.997-.137 5.12 2.696 10.086 1.57-2.406-5.393-6.383-13.637-15.616-14.763 2.424-.29 7.68.563 11.077-.717-4.83-7.373-17.598-3.823-22.02-18.876zm-722.285-529.16c-1.025-.34-1.878-1.365-2.732-2.696-4.47.957-6.212-1.877-6.57-3.805.29 3.26-2.526 3.14-3.84 3.242C-1.725-24.63-.582-16.95-2.357-12.53c-2.27 5.683-10.206 5.393-14.763 1.707C-17.683 1.243-2.066 5.22 3.617-9.97c0 2.56 3.243 2.27 4.096 5.666 4.062-6.52 1.007-15.89-4.267-23.69z" fill="#f7e017" stroke="#000" stroke-width=".512"/><path d="M4.814-5.325c-.416-.382-.607-1.022-.59-1.388.016-.366.166-.765.698-.6-.166 0-.05.334-.225.367.142.05.333-.067.358-.14.033.115.25.082.266.215.085-.07-.006-.393-.13-.46.09-.05.14-.307.1-.43-.084.015-.21.13-.234.3.042-.136-.008-.468-.24-.518a.44.44 0 0 0 .007.44c-.216-.05-.532.092-.607.275.017-.22.047-.534.183-.732.045-.066-.068-.183-.155-.025-.162-.315-.594-.48-.786-.323-.193.158-.45-.075-.608.174-.157.25-.692.278-.664.543.017.158-.022.402-.1.49-.19.217.092.375.142.566-.034-.633.973-1.864 1.98-1.38-.093.157-.173.472-.2.855-.042.566.04 1.364.59 1.83l.216-.06z" fill="#337321" stroke="#000" stroke-width=".03" transform="matrix(17.067 0 0 17.067 256 256)"/><path d="M343.247 131.343c-.086-2.56 4.335-5.87 10.29-5.803 7.17.068 12.7 6.588 18.433 5.956 5.735-.63 2.92 2.56 1.707 3.414-1.195.853-1.894 2.116-1.485 3.67.41 1.552-.307 2.593-2.61 1.143-5.12-3.192-10.24 1.28-16.966-1.195-5.854-2.168-9.216-3.345-9.37-7.168z" fill="#cf142b" stroke="#000" stroke-width=".512"/><path d="M314.028 198.33c-2.85-8.943-13.637-18.722-18.893-20.992l-.273-4.83c2.833-1.143 9.642-6.536 12.766-9.506 21.3 10.206 50.245-4.267 63.59-19.303l5.12 3.12-2.56 3.415-2.712-1.434c-3.243 3.978-15.446 15.447-19.132 17.853 4.95 1.263 11.742 2.117 13.602 2.014 11.93-8.516 21.283-16.18 25.84-16.743l3.822 5.12-3.413 2.39-2.68-1.536c-12.783 10.495-27.255 33.484-32.94 48.81-7.935-1.706-36.334-.563-42.154-8.362z" fill="#96877d" stroke="#000" stroke-width=".512"/><path d="M315.154 195.207c-1.91-10.58 1.127-22.272 6.52-25.822 11.776 7.8 31.932 7.8 43.862-.717" stroke="#000" stroke-width=".512" fill="none"/><path d="M315.154 189.678c9.08-.29 28.81 1.28 33.622 1.996 4.83.7 12.92 2.697 11.776 5.104m-41.2-8.602l2.612-2.612-2.61-2.61-2.613 2.61 2.614 2.612z" stroke="#000" stroke-width=".512" fill="none"/><path d="M325.53 135.336c-3.276-4.557-12.27-5.99-14.2.12-.852 2.696-2.132 5.547-4.266 6.827-2.116 1.263-1.62 5.137-.7 6.81 2.27 4.095.29 8.09 4.677 10.786 0-3.28 4.83-6.676 8.945-7.53 4.113-.852 10.36-4.54 11.213-8.652.854-4.114 2.27-7.527-5.666-8.364z" fill="#337321" stroke="#000" stroke-width=".512"/><path d="M2.874-4.676h.067l.003.455a.117.117 0 0 1 .04.02l.39-.227.035.057-.394.23a.12.12 0 0 1 .002.045l.392.226-.034.06-.394-.227m.488.473a.788.788 0 1 1 .068-1.033c-.04.1-.088.322-.092.423" fill="#96877d" stroke="#000" stroke-width=".03" transform="matrix(17.067 0 0 17.067 256 256)"/><path d="M2.576-2.813c-.05-.058-.14-.216-.133-.333a.432.432 0 0 1 .283.108c-.008-.083-.04-.266-.025-.35.094.034.285.142.35.267-.015-.085-.05-.3-.015-.434.1.058.266.216.3.324.007-.165.066-.44.116-.506.075.075.19.14.267.24.016-.132.083-.29.183-.332a.963.963 0 0 1 .215.49c.075-.024.175-.15.216-.215a.466.466 0 0 1 .06.324c.09-.08.2-.2.225-.3.066.05.19.177.224.31-.017-.11-.01-.3-.04-.407a.48.48 0 0 1 .25.308c.03-.116.105-.324.172-.374.067.133.134.29.126.424.04-.084.108-.233.174-.267.058.092.05.29.033.4a.806.806 0 0 1 .233-.217.65.65 0 0 1 0 .225c.075-.04.2-.264.24-.38.118.06.234.257.243.357a.91.91 0 0 0 .3-.266c0 .06.024.217-.01.34.05-.05.1-.15.126-.19.033.084.008.283-.026.39a.435.435 0 0 1 .25-.107c.007.142-.093.39-.184.574-.798-.225-2.47-.308-4.15-.4z" fill="#337321" stroke="#000" stroke-width=".03" transform="matrix(17.067 0 0 17.067 256 256)"/><path d="M347.48 132.793c-.07-1.04 2.27-3.413 6.45-3.38 5.018.018 9.643 3.705 13.67 3.45 4.03-.257 2.05 1.023 1.196 1.38-.854.342-1.348.87-1.04 1.52.306.65-.223 1.058-1.845.46-3.582-1.313-7.15.513-11.86-.494-4.095-.89-6.467-1.368-6.57-2.938z" fill="#f7e017"/><g stroke="#000" stroke-width=".125"><path d="M2.834-2.314c-.25.3-.5.25-.55.058-.05-.19.135-.283.068-.45-.067-.165.108-.24.19-.165.084.072.35-.17.467.08.114.25.206.425.14.525-.067.1-.267.05-.317-.05zm1.072-.45c-.047-.11.212-.32.345-.17.135.15.34-.162.46.075.116.24.153.364.21.497.06.133-.315.204-.43.087.016.08-.324.14-.417-.083-.05-.12-.104-.257-.166-.402zm1.73.138c-.06-.116.242-.283.4-.07.04-.088.34-.105.362.15.02.253.03.402.037.502.007.1-.182.19-.32-.062-.245.05-.357-.088-.386-.233a1.118 1.118 0 0 0-.094-.285z" fill="#f7e017" transform="matrix(17.067 0 0 17.067 256 256)"/><path d="M2.995-2.792c-.037-.083.212-.25.382-.125s.407-.108.508.116c.203.452.216.485.154.572-.065.087-.33.054-.397-.066-.013.083-.242.07-.362.004-.136-.074-.232-.353-.286-.502zm1.75.02c-.058-.128.333-.24.503-.016.088-.08.28-.083.387.162.108.245.125.383.046.445-.054.042-.256.077-.322-.035-.092.058-.375.008-.437-.15a4.365 4.365 0 0 0-.174-.408zm1.656.246c-.006-.117.206-.17.285 0 .08.17.332.017.353.3.004.053-.03.26-.108.36-.08.1-.466 0-.49-.21" fill="#337321" transform="matrix(17.067 0 0 17.067 256 256)"/><path d="M304.368 216.507c-1.553-2.133-3.687-5.547-6.383-1.843m20.224 2.2" fill="none"/></g></g></svg>