<svg xmlns="http://www.w3.org/2000/svg" height="512" width="512"><path fill="#0038a8" d="M0 341.013h512V512H0z"/><path fill="#fff" d="M0 170.667h512v170.667H0z"/><path fill="#d52b1e" d="M0 0h512v170.667H0z"/><g stroke="#000" transform="translate(-208.955) scale(1.552)" fill="none"><circle cx="300" cy="165" r="42.2"/><circle cx="300" cy="165" r="34.67"/><circle cx="300" cy="165" r="26.56"/></g><path d="M221.638 281.26l-7.59 4.507-2.322-3.91c-.43-.724-.698-1.315-.8-1.772a2.058 2.058 0 0 1 .14-1.337c.197-.435.537-.796 1.02-1.083.422-.25.838-.376 1.25-.378.413 0 .807.098 1.183.3.24.128.5.343.79.644-.076-.332-.104-.59-.087-.774.01-.123.07-.327.176-.612.106-.285.2-.488.276-.608l1.527-2.44 1.575 2.65-1.578 2.63c-.206.338-.317.595-.333.773a1.15 1.15 0 0 0 .164.68l.124.205 3.08-1.83zm-5.914.325l-.587-.99c-.064-.106-.22-.293-.473-.56a.722.722 0 0 0-.464-.238.816.816 0 0 0-.528.114c-.245.148-.387.338-.426.57-.04.234.07.565.323.99l.61 1.03zm-7.15-5.865l-2.307-6.937 1.79-.595 1.443 4.343 1.332-.44-1.34-4.03 1.71-.566 1.338 4.028 1.652-.55-1.486-4.467 1.897-.63 2.35 7.063zm-3.024-10.317l-.516-4.505c-.113-.982.036-1.743.447-2.285.414-.542 1.05-.863 1.91-.96.887-.102 1.61.085 2.17.56.56.475.9 1.26 1.026 2.353l.17 1.483 3.255-.375.31 2.722zm3.427-3.15l-.076-.664c-.06-.526-.19-.88-.395-1.07a.883.883 0 0 0-.734-.24.98.98 0 0 0-.67.355c-.17.205-.225.56-.167 1.068l.088.772zm-3.707-13.42l.292-2.707 5.233.565c.52.06 1 .19 1.444.404.44.21.816.508 1.124.89.308.383.512.772.61 1.166.14.547.17 1.19.09 1.93-.047.426-.127.89-.242 1.387-.114.498-.278.908-.492 1.228-.214.32-.5.603-.857.85a2.798 2.798 0 0 1-1.074.468c-.58.107-1.08.138-1.514.09l-5.234-.563.292-2.707 5.36.577c.478.052.867-.04 1.165-.277.3-.236.472-.59.523-1.06.05-.468-.043-.848-.28-1.142-.236-.29-.598-.465-1.085-.52zm1.18-6.47l1.684-4.82c.28-.804.695-1.352 1.244-1.643a2.047 2.047 0 0 1 1.703-.128c.496.172.865.473 1.11.903.164.287.245.65.243 1.093.355-.548.756-.902 1.205-1.062.45-.16.94-.147 1.47.038.432.15.785.387 1.06.71.275.32.452.69.53 1.11.05.26.027.617-.068 1.073-.128.606-.225 1.004-.29 1.193l-1.555 4.446zm4.176-1.455l.39-1.12c.142-.402.17-.706.087-.91-.083-.207-.256-.356-.517-.447-.243-.082-.46-.07-.65.04-.193.11-.357.36-.493.75l-.397 1.137zm3.274 1.144l.46-1.313c.154-.447.185-.787.09-1.024-.092-.236-.272-.4-.537-.494a.778.778 0 0 0-.688.062c-.213.128-.398.417-.556.868l-.46 1.308zm-3.277-10.302l1.41-2.335 5.697 3.438 2.2-3.645 1.86 1.123-3.61 5.984zm5.337-8.083l1.75-2.1 6.782 5.652-1.75 2.1zm11.87-4.56l2.283-1.01c.315.612.49 1.2.52 1.767a3.293 3.293 0 0 1-.312 1.61c-.236.508-.656 1.02-1.256 1.534-.727.626-1.413 1.03-2.056 1.216-.643.184-1.36.154-2.154-.09-.793-.246-1.547-.784-2.26-1.615-.953-1.11-1.39-2.217-1.313-3.318.078-1.102.656-2.116 1.733-3.042.844-.724 1.653-1.123 2.43-1.197.775-.074 1.583.142 2.425.647l-1.478 1.978c-.24-.15-.436-.24-.587-.275a1.57 1.57 0 0 0-.74 0 1.61 1.61 0 0 0-.67.354c-.47.403-.667.9-.592 1.493.054.442.338.963.85 1.563.64.743 1.19 1.155 1.654 1.237.462.082.897-.052 1.305-.403.394-.34.6-.708.61-1.104.01-.397-.12-.846-.39-1.347zm9.4-3.384l-2.74 1.462.307 1.487-2.46 1.312-1.225-9.35 2.625-1.4 7.08 6.228-2.518 1.343zm-1.402-1.415l-2.354-2.342.638 3.257zm8.338-9.042l3.994-.69c.787-.136 1.442-.14 1.963-.01.522.13.976.368 1.36.713.387.342.696.77.93 1.273.234.506.403 1.055.505 1.648.16.93.18 1.67.056 2.22a3.634 3.634 0 0 1-.66 1.44c-.315.41-.678.712-1.09.9-.562.26-1.082.43-1.56.515l-3.995.69zm3.03 1.506l.82 4.753.66-.113c.56-.097.95-.23 1.165-.394.22-.166.367-.416.448-.75.08-.333.06-.848-.06-1.545-.158-.92-.417-1.526-.777-1.815-.36-.288-.887-.372-1.584-.252zm8.312-3.026l7.304.312-.08 1.883-4.573-.192-.06 1.402 4.24.18-.078 1.8-4.242-.18-.073 1.736 4.705.2-.085 2-7.437-.32zm10.628.837l2.65.65-1.582 6.463 4.135 1.012-.52 2.112-6.785-1.66zm14.164 4.702l3.905 2.307c.85.503 1.367 1.08 1.552 1.736.184.655.056 1.355-.386 2.102-.45.767-1.035 1.23-1.752 1.39-.717.16-1.55-.042-2.496-.6l-1.285-.76-1.667 2.82-2.358-1.396zm.445 4.634l.575.34c.453.265.817.374 1.093.325a.883.883 0 0 0 .632-.44.98.98 0 0 0 .12-.75c-.06-.26-.31-.518-.75-.778l-.668-.396zm7.655 10.29l-2.275-2.117-1.306.776-2.045-1.9 8.443-4.205 2.177 2.026-3.582 8.726-2.09-1.944zm.88-1.788l1.448-2.99-2.87 1.665zm1.06 5.867l7.28-4.995 2.572 3.75c.477.694.782 1.266.915 1.715.133.45.115.9-.053 1.346-.17.447-.485.83-.948 1.147-.404.277-.81.43-1.222.46a2.45 2.45 0 0 1-1.2-.222c-.248-.11-.524-.31-.83-.59.095.33.14.586.134.77-.003.123-.048.33-.135.62-.088.29-.166.5-.236.628l-1.364 2.535-1.745-2.54 1.4-2.73c.184-.35.278-.614.282-.792 0-.24-.068-.46-.21-.666l-.135-.197-2.955 2.027zm5.88-.71l.65.946c.07.103.24.28.51.528a.722.722 0 0 0 .478.208c.187.01.36-.04.52-.148.234-.16.363-.36.387-.594.024-.234-.106-.557-.387-.967l-.678-.988zm2.73 13.215l-1.15-2.886-1.513.142-1.034-2.59 9.43-.19 1.103 2.763-6.97 6.354-1.058-2.65zm1.562-1.24l2.586-2.08-3.307.274zm2.302 9.65l1.816-.273.624 4.17-3.722.556c-.664-.718-1.14-1.37-1.428-1.953-.288-.584-.495-1.297-.62-2.14-.156-1.035-.106-1.906.15-2.612.255-.706.706-1.29 1.35-1.755.646-.463 1.42-.763 2.326-.898.953-.143 1.812-.07 2.575.218a3.86 3.86 0 0 1 1.864 1.487c.37.55.63 1.324.78 2.325.14.965.162 1.7.06 2.204a2.843 2.843 0 0 1-.636 1.313c-.32.37-.75.675-1.29.92l-.854-2.535c.315-.156.54-.376.676-.658.136-.282.175-.622.115-1.02-.086-.59-.362-1.03-.826-1.32-.463-.29-1.14-.37-2.03-.236-.944.14-1.593.42-1.944.837-.353.416-.48.94-.387 1.577.046.3.132.583.26.844.13.26.325.55.588.873l.824-.123zm5.772 12.814l-.242 2.71-5.243-.466a4.437 4.437 0 0 1-1.45-.375 3.194 3.194 0 0 1-1.14-.87c-.317-.377-.527-.76-.633-1.154-.15-.545-.19-1.188-.125-1.928.04-.43.11-.894.216-1.394s.262-.913.47-1.237a3.19 3.19 0 0 1 .842-.866 2.798 2.798 0 0 1 1.065-.49c.575-.116 1.08-.156 1.51-.117l5.243.467-.242 2.71-5.368-.477c-.48-.043-.867.057-1.16.3-.294.24-.462.597-.504 1.07-.04.467.06.846.302 1.135.242.29.607.458 1.095.5zm-9.76 9.34l.97-2.95-1.25-.863.87-2.65 7.35 5.91-.928 2.827-9.423.394.892-2.713zm1.993.053l3.316.064-2.712-1.912zm3.157 7.176l-1.558 2.6-3.474-.005 1.64 3.06-1.547 2.584-2.638-5.583-3.17-1.9 1.404-2.346 3.172 1.9z"/><g fill="#009b3a" stroke="#000" stroke-width=".155"><path d="M265.158 225.436s24.905 10.73 20.557 32.903c-4.35 22.17-18.215 22.02-23.652 24.472-5.437 2.45-9.188 5.957-11.333 5.467-2.145-.49-4.98-2.146-4.98-2.146s-.228 3.64 4.14 4.304c4.366.66 10.106-5.75 12.864-6.46 2.757-.714 19.685-2.55 23.805-25.113 4.804-24.083-21.248-32.725-21.4-33.432zm12.568 4.716a3.42.81 75.104 0 1-1.64.126 3.42.81 75.104 1 1 1.64-.126zm-.854.233a3.523.786 63.335 1 1-1.485.543 3.523.786 63.335 0 1 1.485-.543zm-2.497 1.645a3.336.83 17.053 0 1-.156 1.685 3.336.83 17.053 0 1 .153-1.685zm.372-.916a3.508.79 34.225 1 1-.716 1.42 3.508.79 34.225 1 1 .72-1.42zm1.055-.434a3.567.776 46.194 1 1-1.084 1.11 3.567.776 46.194 0 1 1.084-1.11zm1.738 3.134c.014.016-.96.542-1.182.62-.22.08-.52-.294-1.155.032-.635.326-1.07.92-1.21 1.27-.138.348.18.494.948.12.77-.372.97-.963 1.34-1.194.37-.232.99-.573 1.346-.698.153-.334.65-1.05.907-1.46.257-.412 1.265-1.09 1.632-1.88.32-.653.2-1.21-.23-.976-.427.232-.98.888-1.24 1.36-.257.47-.036 1.07-.322 1.512-.226.32-.772 1.293-.83 1.294zm7.71 2.546a1.15 5.128-1.585 1 1-2.313-.555 1.15 5.128-1.585 1 1 2.314.554zm-1.287-.048a5.34 1.105 77.49 1 1-2.237.112 5.34 1.105 77.49 1 1 2.237-.112zm-3.988 1.24a4.976 1.186 34.91 1 1-.773 2.346 4.976 1.186 34.91 1 1 .773-2.345zm.807-1.132a5.32 1.11 50.904 0 1-1.462 1.714 5.32 1.11 50.904 1 1 1.462-1.713zm1.614-.155a5.436 1.085 61.837 1 1-1.87 1.107 5.436 1.085 61.837 1 1 1.87-1.107zm1.364 5.26c.017.028-1.51.346-1.84.36-.332.014-.623-.654-1.61-.472-.988.183-1.788.84-2.096 1.277-.307.437.085.79 1.272.598 1.186-.19 1.66-.947 2.25-1.113.59-.166 1.562-.376 2.093-.398.32-.41 1.244-1.213 1.736-1.686.492-.47 2.11-.99 2.88-1.96.66-.79.678-1.64.008-1.5-.67.14-1.655.835-2.168 1.394-.513.56-.405 1.518-.948 2.022-.42.357-1.498 1.506-1.58 1.48zm5.54 5.167a1.146 5.15 8.74 1 1-2.16-.992 1.146 5.15 8.74 1 1 2.16.992zm-1.226-.312a1.097 5.376-2.05 1 1-2.206-.317 1.097 5.376-2.05 1 1 2.206.318zm-4.127.467a5 1.18 46.026 1 1-1.18 2.167 5 1.18 46.026 1 1 1.18-2.167zm.993-.962a5.36 1.1 61.79 1 1-1.738 1.412 5.36 1.1 61.79 1 1 1.738-1.412zm1.583.155a5.478 1.077 72.543 1 1-2.027.734 5.478 1.077 72.543 1 1 2.027-.734zm.403 5.446c.01.03-1.538.05-1.865 0-.324-.05-.49-.765-1.485-.774-.998-.01-1.9.485-2.28.858-.378.373-.058.796 1.136.836 1.194.04 1.795-.616 2.4-.667.607-.054 1.595-.075 2.118.005.39-.343 1.438-.96 2.004-1.332.568-.373 2.245-.576 3.17-1.382.79-.655.96-1.49.28-1.48-.68.01-1.77.505-2.37.96-.604.453-.67 1.42-1.293 1.814-.475.272-1.736 1.2-1.81 1.16m2.682 6.72a1.145 5.152 31.31 0 1-1.57-1.814 1.145 5.152 31.31 0 1 1.57 1.815m-1.01-.792a1.09 5.41 20.618 0 1-1.874-1.208 1.09 5.41 20.618 0 1 1.874 1.208m-3.91-1.273a5.082 1.16 69.934 0 1-1.91 1.522 5.082 1.16 69.934 0 1 1.91-1.522m1.272-.48a1.083 5.448-4.863 0 1-2.122.59 1.083 5.448-4.863 1 1 2.122-.59m1.38.806a1.063 5.552 5.55 1 1-2.12-.158 1.063 5.552 5.55 1 1 2.12.158m-1.752 5.214c-.003.03-1.413-.59-1.69-.77-.275-.182-.146-.913-1.046-1.334-.9-.422-1.907-.336-2.395-.147-.486.186-.36.71.706 1.24s1.864.17 2.432.376c.568.203 1.47.592 1.913.883.485-.157 1.674-.294 2.33-.406.658-.112 2.255.393 3.407.028.968-.283 1.447-.988.827-1.26-.62-.27-1.797-.262-2.52-.09-.72.172-1.157 1.04-1.872 1.15-.533.055-2.035.395-2.087.326m.914 8.207a1.34 5.868 48.457 1 1-1.135-2.57 1.34 5.868 48.457 1 1 1.134 2.57m-.856-1.225a1.274 6.178 37.466 1 1-1.665-2.01 1.274 6.178 37.466 1 1 1.662 2.01m-3.877-2.823a1.332 5.91-3.478 1 1-2.6.99 1.332 5.91-3.478 1 1 2.6-.99m1.552-.077a1.25 6.29 11.633 0 1-2.53-.116 1.25 6.29 11.633 1 1 2.53.116m1.257 1.38a1.234 6.377 22.12 1 1-2.282-.94 1.234 6.377 22.12 1 1 2.282.94m-3.647 5.136c-.014.034-1.36-1.16-1.606-1.46-.24-.3.14-1.06-.71-1.852-.853-.79-1.99-1.06-2.59-1.027-.6.032-.633.656.365 1.627 1 .97 1.996.863 2.555 1.293.557.43 1.423 1.186 1.814 1.667.586 0 1.94.28 2.7.395.76.11 2.352 1.246 3.74 1.26 1.158.04 1.917-.567 1.323-1.09-.593-.525-1.89-.94-2.742-1.01-.85-.074-1.617.73-2.44.59-.607-.13-2.372-.3-2.407-.396m-2.452 7.835a1.5 6.47 79.752 1 1 .31-3.1 1.5 6.47 79.752 1 1-.31 3.1m-.124-1.66a1.432 6.78 68.504 0 1-.51-2.874 1.432 6.78 68.504 0 1 .51 2.875m-2.22-4.933a1.496 6.49 26.238 0 1-3.05-.563 1.496 6.49 26.238 1 1 3.05.563m1.553.838a1.412 6.88 41.823 0 1-2.38-1.573 1.412 6.88 41.823 0 1 2.38 1.573m.45 2.048a1.392 6.974 52.67 1 1-1.69-2.214 1.392 6.974 52.67 0 1 1.69 2.21m-6.33 2.765c-.033.024-.68-1.89-.753-2.318-.072-.427.713-.93.322-2.174-.39-1.244-1.34-2.158-1.937-2.474-.596-.32-.97.255-.537 1.755.434 1.5 1.455 1.976 1.76 2.708.304.73.726 1.952.84 2.635.566.34 1.72 1.39 2.39 1.936.673.548 1.59 2.55 2.92 3.364 1.097.707 2.16.57 1.874-.27-.286-.842-1.312-1.988-2.094-2.548-.782-.56-1.96-.24-2.678-.85-.514-.476-2.125-1.657-2.107-1.767m-3.833 6.69a1.88 6.546 89.068 0 1 .01-3.763 1.88 6.546 89.068 0 1-.01 3.762m-.87-5.88a1.817 6.774 37.587 0 1-2.79-2.334 1.817 6.774 37.587 1 1 2.79 2.334m.918 2.994a1.858 6.627 66.472 0 1-1.33-3.473 1.858 6.627 66.472 0 1 1.33 3.473m1.783-56.972a4.066.827 41.126 0 1-1.544.84 4.066.827 41.126 1 1 1.54-.84m-2 1.692a4.118.816 8.163 0 1 .314 1.69 4.118.816 8.163 1 1-.313-1.69m.808-1.07a4.307.78 26.817 1 1-.816 1.335 4.307.78 26.817 0 1 .816-1.333m-29.51 52.86s5.486 1.176 10.256 2.91c4.77 1.733 12.015 7.682 13.963 8.02 2.184.1 5.214-.647 6.364-3.8-3.362.896-5.38 2.26-8.59.494-1.136-.43-4.85-3.812-8.925-5.623-4.074-1.81-12.29-3.875-12.29-3.875l-.774 1.876m5.85-49.603c-.02-.047 6.314-3.332 6.314-3.332l-6.964 1.783-.81 1.225 1.457.327m5.99 1.533c-2.445-.445-6.205-1.267-8.6-1.46 1.656-1.832 3.936-4.93 5.34-6.834-.927 1.815-2.384 4.208-2.958 5.945 1.682.91 4.33 1.624 6.215 2.35m-7.12-1.15c-.027-.042 5.612-4.344 5.612-4.344l-6.518 2.916-.58 1.347 1.483.08m5.99 1.087c-2.46-.468-6.25-1.33-8.656-1.538 1.626-1.89 3.855-5.085 5.23-7.046-.898 1.872-2.314 4.34-2.858 6.132 1.706.946 4.38 1.692 6.282 2.45m-6.918-.728c-.015-.048 6.608-2.768 6.608-2.768l-7.116 1.17-.918 1.15 1.426.448m6.176.792c-2.49-.208-6.34-.673-8.744-.62 1.386-2.097 3.215-5.587 4.344-7.73-.667 2-1.778 4.663-2.105 6.544 1.8.776 4.532 1.242 6.504 1.805m-6.858-.76c-.037-.038 4.476-5.456 4.476-5.456l-5.672 4.242-.264 1.446 1.46-.233m6.826 1.116c-2.668-.05-6.806-.286-9.357-.06 1.266-2.385 2.86-6.323 3.84-8.742-.505 2.23-1.42 5.215-1.576 7.29 1.993.72 4.943 1.037 7.096 1.512m-7.728.17c-.035-.047 5.436-5.215 5.436-5.215l-6.578 3.64-.45 1.56 1.59.02m6.534-.003c-2.868.01-7.283-.145-10.08.168 1.856-2.66 4.39-7.037 5.952-9.726-1.01 2.466-2.612 5.776-3.213 8.07 2 .74 5.116 1.016 7.34 1.485m-8.363.39c-.026-.052 6.945-5.882 6.945-5.882l-7.85 4.174-.808 1.728 1.714-.02m7.324-.218c-2.84.41-7.236.872-9.963 1.567 1.46-2.85 3.345-7.47 4.507-10.31-.646 2.548-1.76 5.998-2.027 8.315 2.087.443 5.214.28 7.485.425m-8.255 1.383c-.04-.04 5.35-7.41 5.35-7.41l-6.677 6.037-.358 1.85 1.685-.477m6.687-.496c-2.86.266-7.277.507-10.04 1.064 1.617-2.773 3.758-7.292 5.08-10.067-.79 2.51-2.096 5.896-2.493 8.196 2.06.55 5.193.542 7.453.804m-7.65 1.274c-.027-.052 6.81-5.894 6.81-5.894l-7.726 4.165-.78 1.74 1.7-.012m6.81-.976c-2.85.6-7.273 1.362-9.996 2.237 1.332-2.91 3.006-7.597 4.04-10.475-.527 2.553-1.48 6.03-1.635 8.333 2.13.294 5.283-.086 7.59-.098m-7.945 1.29c-.046-.034 4.352-8.08 4.352-8.08l-5.89 6.986-.097 1.85 1.635-.754m7.945-.824c-3.06.795-7.824 1.84-10.71 2.934 1.11-3.31 2.376-8.616 3.16-11.876-.265 2.878-.89 6.804-.778 9.383 2.38.235 5.798-.327 8.327-.44m-8.798 2.683c-.046-.047 5.482-8.096 5.482-8.096l-7.01 6.544-.295 2.042 1.82-.49m7.59-1.77c-3.007.95-7.7 2.24-10.52 3.477.948-3.33 1.962-8.642 2.59-11.905-.13 2.858-.568 6.77-.337 9.313 2.38.108 5.754-.632 8.266-.88m-8.69 2.96c-.053-.037 4.167-8.937 4.167-8.937l-5.924 7.698.027 2.058 1.73-.815m7.54-1.74c-3.078.702-7.87 1.602-10.788 2.604 1.246-3.242 2.737-8.453 3.66-11.655-.39 2.838-1.18 6.703-1.182 9.256 2.36.3 5.787-.162 8.31-.205m-8.533 2.59c-.036-.054 6.81-6.993 6.81-6.993l-8.027 5.18-.654 1.963 1.872-.15m7.167-1.38c-3.05.41-7.783.85-10.696 1.583 1.413-3.176 3.19-8.333 4.29-11.5-.558 2.85-1.567 6.705-1.725 9.303 2.286.535 5.66.405 8.128.61m-8.515.686c-.05-.042 4.632-8.752 4.632-8.752l-6.283 7.364-.098 2.086 1.746-.698m8.892-1.722c-3.317 1.358-8.5 3.25-11.607 4.926 1.02-3.938 2.096-10.177 2.76-14.01-.12 3.32-.566 7.89-.29 10.815 2.636-.083 6.36-1.228 9.14-1.73m-9.528 4.375c-.054-.048 5.544-10.044 5.544-10.044l-7.32 8.498-.2 2.373 1.975-.828m8.256-3.135c-3.25 1.528-8.34 3.69-11.367 5.516.84-3.935 1.634-10.142 2.13-13.96.03 3.28-.217 7.81.19 10.675 2.625-.232 6.294-1.574 9.044-2.228m-9.384 4.653c-.062-.035 4.045-10.81 4.045-10.81l-6.055 9.654.153 2.34 1.856-1.184m7.958-3.755c-3.243 1.553-8.32 3.755-11.338 5.606.817-3.94 1.573-10.15 2.043-13.966.05 3.277-.166 7.803.26 10.663 2.625-.253 6.288-1.624 9.035-2.3m-8.874 5.04c-.05-.052 6.26-9.53 6.26-9.53l-7.893 7.8-.382 2.364 2.017-.63m8.578-5.542c-2.89 2.31-7.465 5.702-10.073 8.238-.004-3.98-.537-10.112-.86-13.884.727 3.123 1.447 7.51 2.46 10.137 2.547-.91 5.892-3.15 8.473-4.49m-8.27 5.987c-.07-.01.726-11.42.726-11.42l-3.02 11.103.843 2.092 1.45-1.775m7.447-4.934c-2.9 2.294-7.485 5.663-10.102 8.186.012-3.984-.495-10.12-.8-13.896.71 3.128 1.413 7.52 2.414 10.154 2.55-.895 5.903-3.118 8.49-4.448m-8.177 6.877c-.065-.028 2.917-11.16 2.917-11.16l-5.048 10.263.398 2.29 1.733-1.393m7.85-6.61c-2.74 2.7-7.103 6.705-9.525 9.606-.43-4.083-1.636-10.315-2.372-14.15 1.084 3.123 2.296 7.54 3.623 10.123 2.538-1.224 5.754-3.905 8.277-5.58m-7.837 8.038c-.072-.01.546-11.87.546-11.87l-2.915 11.533.908 2.177 1.464-1.84m6.964-6.066c-2.932 2.424-7.577 5.992-10.212 8.65-.092-4.135-.777-10.503-1.19-14.418.816 3.238 1.655 7.788 2.758 10.51 2.608-.965 6.01-3.323 8.645-4.742m-7.837 7.416c-.06-.04 4.133-11.164 4.133-11.164l-6.196 9.89.162 2.452 1.9-1.178m7.79-7.37c-2.596 2.746-6.728 6.82-9.022 9.77-.41-4.14-1.558-10.457-2.258-14.34 1.03 3.16 2.182 7.637 3.44 10.25 2.403-1.247 5.45-3.975 7.84-5.68m-7.634 7.944c-.072 0-.488-11.802-.488-11.802l-1.912 11.754 1.096 2.044 1.305-1.996m6.36-7.058c-2.51 2.77-6.52 6.882-8.722 9.853-.532-4.14-1.864-10.454-2.677-14.337 1.12 3.157 2.404 7.63 3.738 10.235 2.362-1.266 5.325-4.023 7.662-5.75m-7.028 8.237c-.067-.02 1.317-11.99 1.317-11.99l-3.515 11.34.7 2.33 1.497-1.68m6.485-7.773c-2.296 3-5.983 7.48-7.958 10.65-.844-4.065-2.653-10.215-3.76-13.998 1.36 3.03 2.98 7.354 4.51 9.816 2.26-1.493 5.007-4.523 7.208-6.468m-6.532 8.89c-.07-.003-.76-12.004-.76-12.004l-1.512 11.91 1.09 2.097 1.185-2.003m6.297-8.207c-2.155 3.14-5.633 7.847-7.457 11.142-1.054-4.05-3.182-10.15-4.485-13.9 1.518 2.98 3.364 7.246 5.026 9.645 2.196-1.62 4.803-4.816 6.916-6.89m-5.555 9.325c-.067-.02 1.222-12.057 1.222-12.057l-3.44 11.334.725 2.373 1.49-1.65m5.122-8.206c-1.857 3.422-4.888 8.585-6.402 12.115-1.412-3.88-4.075-9.65-5.706-13.2 1.772 2.754 3.99 6.74 5.86 8.894 2.032-1.917 4.333-5.456 6.245-7.812m-5.535 9.202c-.07.02-3.37-11.435-3.37-11.435l1.138 12.05 1.518 1.7.712-2.318m5.462-7.864c-1.936 3.412-5.09 8.56-6.674 12.078-1.42-3.868-4.11-9.617-5.76-13.155 1.803 2.747 4.05 6.72 5.952 8.87 2.106-1.91 4.5-5.44 6.482-7.79m-5.306 10.02c-.072 0-1.238-12.023-1.238-12.023l-1.113 12.025 1.203 2.06 1.148-2.06m5.508-8.97c-1.99 3.368-5.227 8.44-6.868 11.92-1.357-3.9-3.954-9.712-5.545-13.29 1.755 2.787 3.94 6.814 5.803 9.007 2.137-1.865 4.586-5.337 6.607-7.64m-5.615 9.933c-.07.008-2.23-11.808-2.23-11.808l-.11 12.093 1.37 1.904.97-2.19m4.763-8.222c-2.147 3.224-5.62 8.065-7.422 11.428-1.168-3.99-3.483-9.974-4.9-13.656 1.62 2.905 3.607 7.077 5.365 9.395 2.224-1.71 4.834-5.008 6.96-7.167m-5.804 9.542c-.07-.02.998-12.07.998-12.07l-3.29 11.445.796 2.332 1.496-1.71m5.926-9.245c-1.835 3.49-4.838 8.767-6.318 12.35-1.532-3.804-4.39-9.435-6.14-12.9 1.88 2.665 4.243 6.542 6.206 8.607 2.05-2 4.338-5.627 6.252-8.057m-6.33 10.255c-.07.022-3.704-11.248-3.704-11.248l1.426 11.96 1.596 1.63.682-2.342m5.834-9.356c-1.282 3.832-3.444 9.673-4.363 13.517-2.08-3.4-5.74-8.31-7.984-11.33 2.25 2.207 5.16 5.5 7.4 7.1 1.718-2.413 3.425-6.477 4.944-9.284m-2.544 10.27c-.067.024-4.01-11.094-4.01-11.094l1.753 11.897 1.64 1.56.618-2.367m2.515-9.09c-1.254 3.845-3.374 9.708-4.265 13.56-2.105-3.38-5.8-8.25-8.066-11.247 2.27 2.184 5.2 5.445 7.455 7.022 1.7-2.43 3.375-6.512 4.873-9.334m-2.48 10.984c-.066.035-5.16-10.374-5.16-10.374l3.004 11.52 1.794 1.295.365-2.444m2.092-10.02c-.802 3.99-2.23 10.107-2.67 14.055-2.478-3.05-6.704-7.345-9.297-9.992 2.502 1.84 5.786 4.652 8.204 5.892 1.406-2.653 2.602-6.94 3.763-9.953m-1.753 11.65c-.07.014-2.783-11.633-2.783-11.633l.46 12.078 1.46 1.807.866-2.254m1.766-10.41c-.424 4.08-1.273 10.36-1.342 14.35-2.74-2.702-7.333-6.41-10.152-8.696 2.654 1.494 6.173 3.85 8.687 4.76 1.148-2.83 1.935-7.258 2.808-10.413m-1.63 11.263c-.055.054-7.355-8.398-7.355-8.398l5.543 10.172 2.028.692-.213-2.465m1.783-9.836c-.44 4.078-1.314 10.353-1.4 14.342-2.73-2.72-7.308-6.453-10.118-8.755 2.648 1.51 6.158 3.89 8.67 4.81 1.16-2.82 1.963-7.244 2.848-10.394m-.962 11.774c-.064.038-5.65-10.124-5.65-10.124l3.55 11.364 1.853 1.213.244-2.453m1.29-10.1c-.27 4.102-.878 10.427-.796 14.42-2.84-2.553-7.564-6.008-10.465-8.138 2.706 1.348 6.31 3.51 8.853 4.28 1.04-2.89 1.657-7.36 2.407-10.562m-.573 11.962c-.058.05-6.98-8.85-6.98-8.85l5.09 10.504 1.993.82-.104-2.474m.65-10.07c-.243 4.106-.814 10.436-.708 14.428-2.854-2.527-7.6-5.94-10.512-8.046 2.714 1.324 6.33 3.456 8.877 4.204 1.022-2.9 1.613-7.377 2.344-10.585m-.014 11.574c-.067.03-4.894-10.67-4.894-10.67l2.708 11.68 1.76 1.404.426-2.41m.2-10.352c.14 4.12.164 10.497.64 14.456-3.067-2.13-8.09-4.89-11.18-6.593 2.818.956 6.603 2.59 9.2 2.99.744-3.023.914-7.56 1.34-10.85m.654 9.928c-.042.068-8.94-6.12-8.94-6.12l7.578 8.35 2.106.11-.745-2.34m-.373-9.495c.355 4.1.71 10.456 1.395 14.383-3.182-2.008-8.358-4.568-11.537-6.148 2.87.843 6.744 2.33 9.367 2.632.586-3.044.52-7.57.775-10.867m1.333 11.777c-.054.05-7.447-8.563-7.447-8.563l5.64 10.28 2.04.743-.232-2.46m-.682-10.21c.528 4.083 1.15 10.424 1.998 14.314-3.255-1.818-8.52-4.07-11.755-5.46 2.897.67 6.82 1.927 9.447 2.07.456-3.08.198-7.608.313-10.924m2.17 11.652c-.042.067-8.87-6.27-8.87-6.27l7.482 8.475 2.106.145-.718-2.35m-1.893-9.915c.795 4.036 1.835 10.32 2.935 14.133-3.354-1.51-8.733-3.265-12.038-4.35 2.92.398 6.9 1.282 9.518 1.177.248-3.126-.31-7.63-.415-10.96m2.87 11.156c-.055.05-7.336-8.698-7.336-8.698l5.51 10.38 2.03.782-.2-2.464m-2.392-10.038c1.165 3.924 2.782 10.063 4.227 13.723-3.457-1.06-8.94-2.092-12.308-2.734 2.923.006 6.94.357 9.52-.097-.05-3.157-1.022-7.58-1.44-10.892m2.78 10.053c-.017.08-10.25-2.195-10.25-2.195l9.746 4.846 1.97-.744-1.467-1.91m-2.11-8.826c1.15 3.93 2.742 10.077 4.173 13.745-3.457-1.08-8.936-2.143-12.3-2.803 2.92.023 6.94.396 9.52-.044-.037-3.156-.99-7.585-1.396-10.898m3.786 9.914c-.03.073-9.806-4.736-9.806-4.736l8.796 7.13 2.108-.197-1.097-2.193m-4.296-9.234c1.947 3.58 4.795 9.23 6.962 12.49-3.593-.274-9.156-.074-12.576.042 2.854-.64 6.847-1.183 9.27-2.196-.7-3.08-2.565-7.19-3.656-10.34m5.85 10.305c-.02.08-10.19-2.814-10.19-2.814l9.562 5.418 2.01-.614-1.383-1.987m-4.793-8.784c1.967 3.568 4.848 9.195 7.034 12.44-3.592-.243-9.15.004-12.566.15 2.848-.665 6.835-1.243 9.248-2.277-.718-3.073-2.607-7.173-3.717-10.312m6.08 9.62c-.036.067-9.496-5.68-9.496-5.68l8.297 7.94 2.137.02-.934-2.28m-5.293-8.72c2.28 3.33 5.656 8.61 8.118 11.59-3.552.22-8.986 1.194-12.328 1.785 2.732-1.04 6.593-2.14 8.862-3.496-1.004-2.996-3.257-6.87-4.652-9.883m5.99 9.56c-.004.084-10.252-.24-10.252-.24l10.14 2.996 1.805-1.12-1.694-1.635m5.94-49.662c0-.032 7.375-1.23 7.375-1.23l-7.337.17-1.28.658 1.24.402m4.052 1.566c-2.14-.647-5.373-1.73-7.57-2.207 2.335-.928 5.79-2.574 7.915-3.583-1.635 1.024-4.013 2.34-5.28 3.365 1.224.83 3.446 1.68 4.936 2.422m-4.375-1.317c-.008-.03 7.135-1.96 7.135-1.96l-7.392.942-1.114.765 1.37.253m4.718 1.845c-2.5-.234-6.335-.714-8.802-.74 1.86-1.644 4.465-4.398 6.07-6.09-1.104 1.59-2.8 3.698-3.532 5.2 1.676.674 4.367 1.124 6.264 1.63m-7.37-1.333c.006-.033 7.416-.838 7.416-.838l-7.226-.234-1.35.594 1.16.476m5.492 1.614c-2.273-.434-5.727-1.192-8.027-1.46 2.185-1.074 5.37-2.92 7.33-4.052-1.464 1.106-3.623 2.55-4.716 3.626 1.388.686 3.78 1.305 5.416 1.886m-6.13-1.69c-.02-.03 6.527-2.81 6.527-2.81l-7.15 1.887-.856.87 1.48.052m5.91 2.513c-1.892-.782-4.79-2.105-6.662-2.656 1.45-1.348 3.492-3.71 4.75-5.16-.875 1.447-2.212 3.32-2.803 4.757 1.256 1.07 3.288 2.12 4.715 3.06m-5.54-2.034c-.013-.044 5.08-2.2 5.08-2.2l-5.53.757-.68.986 1.13.457m-4.25 47.554c.005.082-10.524.08-10.524.08l10.657 2.605 1.748-1.15-1.88-1.54m1.892.687c-.012.077-10.69-2.486-10.69-2.486l10.266 5.035 2.01-.648-1.586-1.898m1.753.71c0 .08-10.612-.534-10.612-.534l10.615 3.198 1.82-1.03-1.82-1.633m-6.735-7.493c2.76 3.042 6.896 7.89 9.793 10.574-3.564.54-8.932 1.98-12.235 2.86 2.625-1.26 6.382-2.682 8.495-4.21-1.423-2.83-4.23-6.41-6.053-9.22m8.192 8.034c-.02.074-10.608-3.472-10.608-3.472l9.968 5.927 2.088-.44-1.448-2.018m-7.215-7.337c3.01 2.744 7.547 7.15 10.65 9.512-3.415.984-8.492 3.104-11.617 4.4 2.424-1.6 5.935-3.503 7.833-5.31-1.685-2.695-4.796-5.976-6.866-8.602m8.083 7.99c.017.082-10.065 1.98-10.065 1.98l10.607.722 1.497-1.478-2.04-1.227m-2.094-.633c.01.08-10.5.805-10.5.805l10.834 1.86 1.66-1.26-1.994-1.406"/><path d="M246.695 279.398c-.007.077-10.855-1.74-10.855-1.74l10.623 4.306 1.96-.783-1.728-1.78zm1.8.59c.006.08-10.632.2-10.632.2l10.832 2.454 1.738-1.153-1.938-1.505zm-7.292-7.014c2.984 2.843 7.476 7.39 10.57 9.864-3.518.782-8.768 2.59-11.998 3.693 2.525-1.434 6.168-3.112 8.162-4.78-1.633-2.724-4.704-6.096-6.734-8.774zm8.797 7.448c-.014.075-10.848-2.728-10.848-2.728l10.394 5.22 2.05-.584-1.596-1.908zm-7.757-6.827c3.21 2.528 8.07 6.605 11.344 8.746-3.335 1.22-8.244 3.68-11.265 5.19 2.3-1.76 5.66-3.9 7.42-5.833-1.884-2.57-5.236-5.625-7.5-8.1zm8.673 7.415c.022.082-9.898 2.67-9.898 2.67l10.64-.012 1.384-1.577-2.127-1.076z"/></g><path d="M264.584 266.117l-8.085-5.588-8.088 5.585 3.032-8.94-7.075-5.59h9.096l3.032-8.94 3.03 8.94h9.096l-7.075 5.59 3.032 8.94z" fill="#fedf00" stroke="#000" stroke-width=".464"/></svg>