<svg xmlns="http://www.w3.org/2000/svg" height="512" width="512" viewBox="0 0 512 512"><defs><clipPath id="a"><path fill-opacity=".67" d="M124.02 0h496.06v496.06H124.02z"/></clipPath></defs><g clip-path="url(#a)" fill-rule="evenodd"><path fill="#199d00" d="M-128 0h767.9v511.934H-128z"/><path d="M65.52 145.12c-.886 11.96-1.95 33.006 8.212 35.165 12.29 1.182 5.514-20.803 9.963-24.79.84-1.97 2.392-1.98 2.52.505v18.648c-.112 6.064 3.874 7.85 6.97 9.104 3.224-.25 5.376-.142 6.64 2.995l1.51 32.257s7.476 2.14 7.832-18.144c.357-11.91-2.38-21.878-.775-24.195.057-2.277 2.964-2.413 4.98-1.303 3.213 2.266 4.644 5.065 9.637 3.945 7.596-2.093 12.162-5.79 12.275-11.622-.444-5.544-1.065-11.09-3.468-16.633.336-1.008-1.466-3.62-1.132-4.63 1.366 2.14 3.443 1.962 3.916 0-1.292-4.26-3.3-8.342-6.55-10.11-2.69-2.368-6.624-1.884-8.064 3.055-.668 5.692 2.05 12.454 6.196 17.967.88 2.153 2.116 5.732 1.572 8.955-2.205 1.256-4.41.732-6.258-1.218 0 0-6.047-4.536-6.047-5.544 1.604-10.276.355-11.44-.535-14.293-.62-3.936-2.49-5.198-4.002-7.886-1.513-1.604-3.56-1.604-4.538 0-2.672 4.634-1.426 14.58.505 19.036 1.396 4.098 3.53 6.67 2.52 6.67-.828 2.316-2.544 1.78-3.79-.892-1.783-5.524-2.14-13.766-2.14-17.48-.534-4.6-1.12-14.416-4.15-16.91-1.848-2.516-4.587-1.29-5.543 1.007-.2 4.57-.22 9.135.294 13.345 2.08 7.385 2.73 13.875 3.74 21.435.278 10.128-5.857 4.395-5.576-.626 1.415-6.52 1.047-16.785-.21-19.387-.996-2.602-2.173-3.244-4.597-2.815-1.925-.118-6.877 5.29-8.267 14.26 0 0-1.186 4.617-1.692 8.716-.68 4.633-3.73 7.902-5.868-.65-1.848-6.218-2.984-21.522-6.08-17.938zm33.396 49.06c-10.846 5.304-21.336 10.25-32.006 15.374.39-7.255 15.217-20.35 25.328-20.536 6.58.184 4.928 2.55 6.678 5.163zm-5.593 10.032c-16.868 43.48 39.5 49.54 45.8 1.78.592-1.958 2.97-3.92 3.385-.712-1.308 43.243-43.6 46.214-50.788 32.61-1.78-3.206-2.317-10.334-2.495-14.612-1.07-8.493-5.524-5.227-6.237 3.208-.713 4.692-.534 6-.534 10.515 2.257 34.157 56.73 19.485 65.578-8.73 4.693-15.623-.773-27.146 1.78-27.09 5.407 5.825 12.95.775 14.613-1.244.714-1.01 2.497-1.663 3.744-.357 4.214 3.03 11.642 1.602 13.184-3.744.892-5.227 1.605-10.632 1.784-16.214-3.448 1.07-6 1.782-6.24 3.208l-.712 4.633c-.296 1.487-3.268 1.545-3.386-.356-1.306-5.94-6.712-6.712-9.98 2.496-2.197 1.78-6.177 2.138-6.594-.535.535-6.177-1.96-7.01-6.95-4.1-1.603-12.235-3.206-23.937-4.81-36.173 2.08-.06 3.98 1.484 5.882-.892-2.082-6.474-6.476-19.72-8.912-20.67-1.188-1.426-2.2-.535-3.742-.18-2.613.832-5.05 3.09-4.278 7.486 3.09 18.77 5.11 33.085 8.198 51.856.475 2.198-1.366 5.106-3.742 4.81-4.04-2.733-5.046-8.256-11.94-8.02-4.99.06-10.693 5.466-11.404 10.695-.83 4.157-1.13 8.67-.002 12.295 3.507 4.217 7.724 3.803 11.407 2.85 3.03-1.245 5.523-4.275 6.593-3.563.714.89.177 10.868-14.257 18.53-8.73 3.922-15.68 4.814-19.42-2.315-2.32-4.456.176-21.384-5.528-17.463zm71.547-44.2c3.387-1.248 19.428-19.602 19.428-19.602-.833-.713-1.576-1.248-2.408-1.96-.892-.773-.802-1.545 0-2.318 3.98-2.316 2.703-7.395.624-9.71-3.445-1.546-6.446-1.04-8.644.088-2.79 2.673-3.443 6.95-1.245 9.622 2.14 1.01 4.276 3.18 2.85 4.367-6.562 7.007-24.532 19.095-22.452 19.51.444.595 11.493.565 11.848 0zm22.056 59.992c-6.015 9.583-6.538 23.9-3.22 28.17 1.764 2.015 4.662 2.898 6.806 2.267 3.78-1.637 5.433-9.294 4.536-12.095-1.26-1.974-2.255-2.287-3.514-.608-2.66 5.4-3.763 1.695-3.997-1.322-.407-5.723.13-10.993.753-15.166.66-4.28-.012-2.97-1.364-1.245zm260.065-17.36c-5.814-12.52-13.866-24.89-16.43-29.643-2.56-4.752-21.9-32.82-24.75-35.98-6.28-7.464 10.204 3.11-2.084-11.712-4.685-4.02-4.957-4.264-8.846-7.544-1.963-1.392-6.752-3.935-7.6.28-.427 3.716-.197 5.732.428 8.826.478 2.06 3.484 5.517 4.96 7.52 19.624 26.375 37.023 53.012 53.803 86.502 2.65-1.26 2.07-16.153.52-18.248zM299.538 251.51c-1.143 1.283 2.824 6.774 7.98 6.77 8.622-1.002 16.212-5.846 23.24-18.595 1.88-2.973 5.183-9.332 5.28-14.265.657-28.922-1.448-51.427-5.782-72.33-.277-2.036-.108-4.43.237-5.04.558-.667 2.452.003 3.456-1.644 1.474-1.505-3.913-13.968-6.985-18.77-1.09-2.143-1.47-3.574-3.275.253-1.9 3.11-3.175 8.535-3.025 13.607 4.114 28.478 5.377 53.39 8.065 81.87.22 2.755-.186 6.757-2.016 8.352-6.772 7.07-16.546 15.774-27.175 19.79zm231.215-7.955c-6.188 3.577-6.196 7.692-1.192 7.84 8.622-1 18.81-1.717 25.838-12.327 1.88-2.973 4.113-11.013 4.21-15.946.658-28.922-.377-50.51-4.71-71.413-.278-2.038-1.18-6.724-.835-7.335.56-1.432 3.37.156 4.374-1.49 1.474-1.506-7.277-12.747-10.348-17.547-1.093-2.145-1.47-3.576-3.277.25-1.9 3.11-2.563 8.69-1.802 13.61 4.57 30.923 7.976 54.156 8.678 81.565-.394 2.6-.492 4.004-1.712 7.28-2.7 3.46-5.69 7.786-8.493 9.877-2.803 2.09-8.783 4.084-10.733 5.633zm-110.1-19.92c-.07-7.233.103-13.477-.136-18.87-.237-5.396-1.19-9.788-3.058-13.617-1.766-4.105-.67-7.405-1.5-11.777-.828-4.37-.623-10.917-1.876-16.105-.344-2.025-1.397-8.514-1.07-9.136.51-1.45 2.455.045 3.405-1.633 1.423-1.552-4.936-18.006-8.162-22.704-1.16-2.107-3.266-1.385-5.864 2.04-2.406 2.254-1.513 7.394-.593 12.285 6.187 32.287 10.802 61.51 9.794 92.245-.307 2.613 9.127-7.795 9.063-12.728zm65.27-46.987c-3.89-.07-12.042-7.573-14.42-11.968-.9-2.52-.323-4.98.47-6.42 1.44-.938 3.657-1.99 5.315-.982 0 0 1.718 2.405 1.386 2.71 2.124 1.018 3.026.433 3.242-.432.145-1.513-.628-2.415-.637-4.08.9-4.522 6.068-5.224 8.013-2.342 1.426 1.757 1.948 5.49 2.164 8.012-.023 1.288-2.108-.223-3.293.087s-1.47 1.678-1.562 2.915c-.214 3.278-.602 8.537-.675 12.5zm-70.4 49.313c1.073-9.825-.395-27.326-.493-33.125-.395-13.698-2.633-40.157-3.698-44.577-1.2-8.332 3.427.915 2.787-3.93-1.5-8.32-6.117-13.96-11.54-21.58-1.75-2.48-1.693-2.985-4.393.607-2.99 6.78-.41 11.444.363 16.724 3.913 17.202 6.196 33.032 7.26 48.68 1.062 15.65 1.388 32.57.418 49.05 2.932.115 7.646-4.744 9.295-11.848zm18.37-10.045c-6.86-11.514-17.216-23.984-19.983-28.62-2.767-4.638-26.165-34.826-29.146-37.856-8.56-8.994 3.925-1.466-1.64-8.41-4.705-5.168-6.078-6.79-10.106-9.898-2.02-1.305-3.244-3.798-3.908.45-.264 3.732-.54 8.05-.29 11.194-.013 1.748 1.807 5.033 3.37 6.97 20.753 25.496 43.388 51.53 61.61 84.258 2.593-1.374 1.73-16.064.09-18.09z" fill="#fff"/><path d="M122.56 194.666c-.495.866-1.594 1.988-1.226 3.15.77 1.043 1.386 1.255 2.67 1.31 1.114 0 2.67.265 3.004-.393.6-.66 1.056-2.008.556-3.28-1.16-2.9-4.4-1.82-5.005-.787z" fill="#1ba400"/><path d="M354.11 362.5c9.176.338 15.182.42 23.344 1.39 0 0 7.038-.695 9.552-1.075 10.625-1.013 11.095 15.175 11.095 15.175-.114 9.494-3.78 9.99-8.457 10.994-2.673.34-4.078-1.6-5.482-3.668-1.763.738-4.16.844-7.063.44-3.824-.238-7.648-.222-11.472-.462-4.063-.358-6.224.423-10.287.065-.837 1.313-1.926 3.133-4.41 2.547-2.068-.228-4.517-6.032-3.795-10.444 1.492-3.164 1.082-2.146.927-3.536-37.522-.956-75.4-2.63-112.2-2.15-28.797.12-57.237 1.314-85.677 2.51-15.176-.24-26.766-2.63-34.772-14.34.72 0 38.717 2.15 49.83 1.433 20.553-.24 39.313-1.91 60.224-2.508 41.225.716 82.093.717 123.314 3.584-3.943-2.698-4.085-9.07 1.984-10.628.517-.355.784 3.17 1.692 3.103 4.855-.363 2.726 6.215 1.658 7.57zm-52.462-238.476c-6.248 17.857 3.58 37.39 10.392 35.487 4.915 2.037 8.046-7.314 10.058-17.56 1.377-2.873 2.417-3.18 3.124-1.702-.182 13.623.978 16.64 4.48 20.776 7.814 6.028 14.277.77 14.784.262l6.084-6.083c1.354-1.424 3.157-1.508 5.07-.253 1.858 1.688 1.597 4.607 5.576 6.63 3.35 1.34 10.51.31 12.167-2.575 2.232-3.826 2.768-5.14 3.802-6.59 1.593-2.122 4.31-1.178 4.31-.51-.254 1.184-1.85 2.368-.76 4.498 1.894 1.42 2.33.507 3.452.19 3.964-1.894 6.94-10.516 6.94-10.516.176-3.208-1.622-2.943-2.788-2.282-1.523.93-1.62 1.227-3.143 2.157-1.94.288-5.698 1.573-7.557-1.306-1.897-3.46-1.922-8.288-3.373-11.778 0-.254-2.518-5.497-.175-5.833 1.183.22 3.706.888 4.108-1.237 1.24-2.07-2.657-7.936-5.324-10.9-2.314-2.54-5.522-2.847-8.618-.253-2.168 1.995-1.856 4.224-2.282 6.337-.552 2.426-.434 5.41 2.028 8.618 2.164 4.267 6.113 9.763 4.817 17.49 0 0-2.305 3.652-6.323 3.175-1.675-.366-4.392-1.077-5.843-11.793-1.098-8.112.26-19.46-3.183-24.78-1.243-3.214-2.15-6.316-5.18-.822-.815 2.158-4.31 5.433-1.775 12.167 2.073 4.27 2.918 11.22 1.976 18.952-1.435 2.195-1.754 2.94-3.64 5.136-2.644 2.846-5.515 2.12-7.714 1.057-2.054-1.385-3.663-2.1-4.6-6.5.168-7.013.56-18.492-.723-20.927-1.89-3.772-5.006-2.408-6.337-1.27-6.397 5.85-9.557 15.718-11.488 23.575-1.774 5.728-3.66 4.087-4.988 1.776-3.232-3.028-3.45-26.706-7.352-22.813zm-94.238 50.054c2.837-2.01 1.51-3.414 5.754.827 5.31 9.082 8.725 20.843 9.237 31.263-.222 2.567 1.588 4.193 2.416 3.635.492-6.028 15.15-14.428 28.593-15.656 2.054-.447 1.054-4.386 1.39-6.395-.806-7.463 4.193-14.256 11.2-14.798 9.537 1.41 12.71 6.502 12.872 14.274-1.03 14.92-16.572 17.45-25.305 18.64-1.34.506-1.897 1.124 0 1.855l36.59.166 1.868 1.077c.224.872-.534.144-1.978 2.523-1.444 2.38-3.574 7.865-3.685 11.527-10.902 3.506-22.177 5.042-33.638 6.428-3.98 2.013-5.954 4.696-5.137 7.716 1.34 3.35 10.16 6.696 10.16 6.855 1.674 1.05 3.655 3.502-.475 8.525-17.848-.787-31.68-8.382-36.467-19.103-1.443-1.118-2.997-.006-3.993 1.443-6.968 8.983-13.825 17.072-25.705 21.367-7.085 1.77-14.338-1.087-17.763-5.727-2.293-2.64-2.205-5.556-3.048-6.188-3.828 1.694-36.78 15.695-32.604 9.173 8.02-8.584 21.904-14.89 34.165-23.36.884-2.84 2.493-12.442 7.336-15.568.28.023-.766 5.638-.66 8.007.053 1.944-.144 2.706.282 2.205.827-.53 15.705-12.22 16.854-15.805 1.45-2.056.435-7.262.435-7.42-2.79-7.19-6.704-7.802-8.155-11.375-1.307-4.745-.715-10.163 1.998-11.673 2.408-2.186 5.262-1.916 7.894.474 3.004 2.694 5.672 7.954 6.444 11.87-.516 1.55-3.932-1.03-5.117-.26 2.097 2.173 3.076 4.68 3.834 7.745 1.938 8.208 1.346 11.4-.604 16.706-6.606 13.89-15.048 18.034-22.434 23.18-.197.07-.328 3.523 2.45 5.39.958 1.006 4.81 1.52 9.34.07 8.754-4.773 17.842-13.566 22.353-23.363 1.31-7.41-.508-15.27-2.434-22.12-2.904-6.7-6.323-16.26-6.323-16.42-.11-4.176.23-5.625 2.06-7.708zm21.8-44.026c4.21 2.01 12.13 1.154 11.794-5.637 0-.6-.153-2.632-.212-3.182-.86-2.002-3.206-1.508-3.737.56-.167.676.298 1.778-.315 2.12-.352.354-1.698.145-1.642-1.73 0-.598-.44-1.24-.706-1.62-.266-.174-.435-.223-.917-.223-.588.024-.578.177-.9.67-.136.502-.325.994-.325 1.563-.074.668-.325.906-.817 1.004-.55 0-.425.06-.87-.222-.264-.29-.594-.4-.594-.893 0-.51-.118-1.338-.27-1.675-.235-.308-.61-.45-1.03-.558-2.3.006-2.46 2.63-2.328 3.625-.173.188-.27 4.894 2.866 6.196zm5.858 57.658c4.212 2.01 14.236.853 11.795-5.636 0-.6-.153-2.633-.213-3.183-.86-2-3.205-1.506-3.737.56-.167.678.298 1.78-.315 2.12-.35.356-1.697.148-1.64-1.73 0-.596-.442-1.24-.707-1.62-.265-.172-.434-.22-.916-.22-.587.023-.578.176-.9.67-.136.502-.325.993-.325 1.563-.074.667-.326.906-.817 1.004-.55 0-.425.06-.87-.223-.264-.29-.595-.4-.595-.893 0-.51-.115-1.336-.27-1.674-.232-.307-.607-.45-1.03-.558-2.3.008-2.458 2.63-2.326 3.627-.17.188-.27 4.894 2.868 6.196zm188.724-27.45c4.212 2.008 12.13 1.153 11.795-5.638 0-.6-.153-2.632-.213-3.182-.86-2.002-3.205-1.508-3.737.56-.167.676.3 1.778-.314 2.12-.352.354-1.698.145-1.642-1.73 0-.598-.44-1.24-.704-1.62-.267-.174-.436-.223-.918-.223-.587.024-.578.177-.9.67-.136.502-.325.994-.325 1.563-.073.668-.325.906-.816 1.005-.55 0-.425.06-.87-.223-.264-.29-.594-.4-.594-.893 0-.513-.116-1.34-.27-1.677-.233-.308-.608-.45-1.03-.558-2.3.008-2.46 2.63-2.327 3.627-.172.188-.27 4.894 2.867 6.196zm35.054 54.984c-7.34 8.272-4.103 21.953-2.446 24.9 2.42 4.84 4.37 7.947 9.078 10.34 4.29 3.158 7.63 1.185 9.473-1.026 4.317-4.473 4.37-15.892 6.395-18.155 1.42-4.157 5-3.447 6.736-1.605 1.684 2.42 3.666 3.98 6.14 5.298 4.025 3.55 8.832 4.2 13.57.963 3.234-1.817 5.34-4.163 7.233-8.82 2.105-5.63.932-31.643.51-47.06-.16-1.21-4.183-21.204-4.183-21.427 0-.224-.532-10.203-.975-12.58-.077-.966-.317-1.243.694-1.12 1.07.902 1.217.958 1.887 1.256 1.083.197 2.052-1.645 1.398-3.34l-10.046-18.53c-.807-.795-1.848-1.667-3.127.222-1.222 1.072-2.523 3.01-2.483 5.503.298 4.39 1.07 8.86 1.367 13.25l4.02 22.55c1.265 16.074 1.582 29.23 2.847 45.304-.177 6.805-2.293 12.74-4.277 13.595 0 0-3.02 1.75-5.045-.182-1.472-.592-7.367-9.824-7.367-9.824-3.014-2.764-5-1.974-7.145 0-5.913 5.71-8.59 16.39-12.608 23.76-1.036 1.643-3.965 3.05-7.21-.12-8.24-11.26-3.41-27.276-4.436-23.157zm-36.543-95.43c3.773 1.578 6.434 9.22 5.566 12.953-.753 4.616-2.754 9.602-4.193 8.952-1.563-.58 1.066-4.59-.436-8.796-.834-2.738-5.983-7.74-5.44-9.215-1.064-3.09 2.19-4.443 4.502-3.898zm-65.82 105.12c.793-9.177-.546-14.773-.785-20.17-.237-5.392-6.1-46.55-7.29-50.633-1.434-7.715 5.7-1.033 4.92-5.52-2.468-5.66-8.61-13.9-10.54-18.814-1.16-2.107-.672-3.98-3.27-.555-2.408 7.877-3.244 14.313-2.324 19.204 6.186 32.287 12.53 59.132 11.524 89.867 2.934.02 6.316-6.712 7.765-13.374zm177.446-92.25c3.44 1.71 5.452 11.29 5.072 14.026-.684 4.998-2.508 10.395-3.82 9.692-1.425-.627.286-7.412-.398-9.52-.76-2.965-5.455-8.38-4.96-9.977-.97-3.345 1.995-4.808 4.104-4.22zm-257.638 70.56c3.29 1.258 5.22 8.296 4.856 10.307-.658 3.674-2.404 7.64-3.657 7.124-1.363-.46.275-5.447-.38-6.997-.28-3.76-4.845-5.706-4.75-7.33-.85-2.986 1.91-3.535 3.93-3.1z" fill="#fff"/><path d="M244.81 218.144c4.247.27 6.368 3.602 2.39 5-3.923 1.343-7.693 2.392-7.71 8.062 1.45 7.9-1.992 5.19-4.044 4.117-2.42-1.737-9.208-5.92-10.175-14.95-.143-2.154 1.537-3.967 4.24-3.954 4.076 1.105 10.087 1.185 15.3 1.723z" fill="#1b9d00"/><path d="M77.378 124.377c4.855 1.463 5.142 8.598 4.784 10.684-.647 3.81-2.367 7.92-3.602 7.385-1.344-.478-.053-5.646-.698-7.254-.72-2.257-4.82-6.382-4.356-7.6-.913-2.547 1.883-3.662 3.872-3.212zm217.494 29.786c-3.724 2.015-5.17 8.02-2.85 11.516 2.166 3.08 5.587 1.936 6.043 1.936 3.65.457 5.815-6.84 5.815-6.84s.114-2.052-4.22 1.825c-1.823.34-2.05-.342-2.507-1.37-.38-1.9-.304-3.8.57-5.7.646-1.823-.76-2.622-2.85-1.37zm24.964-37.452c-1.872 1.257-5.597 5.117-5.71 9.564-.114 2.508-.582 2.5 1.06 4.098 1.188 1.712 2.385 1.558 4.78.303 1.376-1.013 1.84-1.686 2.305-3.386.57-2.85-3.012 1.35-3.47-1.82-.796-2.947 1.506-4.15 3.67-7.003.074-1.952.03-3.335-2.633-1.754zm21.642 5.135c-.807 1.782-1.774 11.092-1.613 11.092-.644 2.774 2.903 3.96 4.516.395 2.42-6.535 2.42-9.308 2.58-12.08-.75-4.225-3.6-4.093-5.48.594zM482.68 193.93c.484-.485 19.996-14.352 19.996-14.352 1.99-.7 1.558 7.15.645 7.095.378 1.558-19.24 14.89-20.64 14.35-.966.7-1.934-5.374 0-7.094zm13.392-2.354c3.44 1.71 4.81 11.773 4.43 14.508.12 5.32-3.316 9.59-4.627 8.887-1.426-.626.124-6.604-.56-8.713-.76-2.964-3.68-8.54-3.188-10.138-.97-3.345 1.835-5.13 3.945-4.543zm-116.61 43.327c1.356-1.983 5.548-4.838 5.643-4.838 1.934-.968 3.824.76 3.71.645.32 1.935-1.225 3.736-.74 6.317.422 1.04.732 2.195 2.638 1.755 3.098-2.438 5.968-2.595 9.066-2.75 2.373.143 2.467 4.162.965 4.192-5.72 1.244-8.284 2.775-12.368 4.335-1.935 1.126-3.596-.306-3.596-.467s-1.13-1.098-.34-3.66c.14-2.057-.69-3.184-2.4-2.95-1.29.697-2.426 1.16-3.07-.324-.255-1.096-.337-1.628.49-2.258zm140.194 4.075c.835 1.064 1.376 2.05-.068 3.797-1.368 1.254-2.332 1.944-3.7 3.198-.646 1.102-1.06 2.774.917 3.306 3.65 1.024 12.087-4.448 12.087-4.563 1.368-1.026.912-2.964.798-2.964-.798-.912-2.596-.37-3.805-.518-.576 0-2.465-.286-1.566-1.958.75-1.04 1.017-1.677 1.525-2.958.57-1.255.08-2.09-1.972-2.776-2.09-.38-2.925-.19-5.244 0-1.255.266-1.683.826-1.91 2.346.09 2.307 1.49 2.176 2.935 3.088z" fill="#fff"/><path d="M268.065 189.71c-.536.924-2.344.88-4.04-.102s-2.637-2.526-2.1-3.452 2.34-.88 4.038.1 2.637 2.528 2.102 3.453zm26.657-59.463c-1.013.247-2.338-.656-2.958-2.018s-.303-2.67.712-2.92 2.338.656 2.958 2.02.303 2.67-.712 2.916z" fill="#259f00"/><path d="M355.182 374.926c9.35.456 18.135.106 27.485.562 1.693 1.44.484 4.975-.645 4.72-3.04-.075-4.792-.15-7.832-.227-.104-2.976-7.705-2.487-7.486.097-4.105.494-7.806-.143-11.91-.295-1.214-1.51-1.058-4.23.388-4.854z" fill="#209000"/></g></svg>