<svg xmlns="http://www.w3.org/2000/svg" height="512" width="512" viewBox="0 0 512 512"><defs><clipPath id="a"><path fill-opacity=".67" d="M0 0h130v130H0z"/></clipPath></defs><g fill-rule="evenodd" clip-path="url(#a)"><path d="M0 0h972.81v39.385H0zm0 78.77h972.81v39.385H0zm0 20h972.81v39.385H0zm0 20h972.81v39.385H0zm0 20h972.81v39.385H0zm0 20h972.81v39.385H0zm0 20h972.81v39.385H0z" fill="#bd3d44"/><path d="M0 39.385h972.81V78.77H0zM0 88.77h972.81v39.385H0zm0 20h972.81v39.385H0zm0 20h972.81v39.385H0zm0 20h972.81v39.385H0zm0 20h972.81v39.385H0z" fill="#fff"/><path fill="#192f5d" d="M0 0h389.124v275.695H0z"/><path d="M32.426 11.8l3.544 10.898h11.453l-9.267 6.734 3.54 10.894-9.27-6.735-9.268 6.737 3.54-10.894-9.27-6.734h11.46zm40.662-8.804l3.54 10.898h11.458L78.82 20.63l3.536 10.893-9.268-6.73-9.267 6.733 3.54-10.893-9.27-6.735h11.46zm16.467 0l3.54 10.898h11.458l-9.267 6.735 3.54 10.892-9.27-6.735-9.268 6.735 3.54-10.894-9.27-6.736h11.46zm16.463 0l3.54 10.898h11.458l-9.267 6.735 3.54 10.892-9.273-6.735-9.267 6.735 3.542-10.894-9.27-6.736h11.46zm16.47 0l3.54 10.898h11.458l-9.27 6.735 3.544 10.892-9.272-6.73-9.267 6.733 3.54-10.893-9.27-6.735h11.46zm16.467 0l3.54 10.898h11.458l-9.27 6.735 3.544 10.892-9.272-6.735-9.267 6.735 3.537-10.894-9.268-6.736h11.458zm-74.1 36.374l3.54 10.897h11.458l-9.267 6.735 3.537 10.894-9.268-6.735-9.267 6.737 3.537-10.894-9.268-6.735h11.458zM32.93-19.378L36.47-8.48h11.458L87.05 27.63l3.54 10.893-9.272-6.735-9.267 6.735 3.543-10.894-9.27-6.737h11.46zm16.47 0L52.94-8.48h11.458L55.13-1.745l3.54 10.893-9.27-6.735-9.268 6.735 3.542-10.894-9.272-6.736h11.462zm16.467 0l3.54 10.898h11.458l-9.267 6.735 3.537 10.893-9.268-6.735L56.6 9.148l3.54-10.894-9.27-6.736h11.46zm16.463 0L85.87-8.48h11.458l-9.27 6.735 3.544 10.893-9.272-6.735-9.267 6.735L76.6-1.746l-9.266-6.736h11.458zM32.426 66.94l3.544 10.897h11.453l-9.267 6.734 3.54 10.896-9.27-6.735-9.268 6.736 3.54-10.894-9.27-6.733h11.46zm40.662-49.944l3.54 10.898h11.458L78.82 34.63l3.536 10.893-9.268-6.735-9.267 6.735 3.54-10.893-9.268-6.736H69.55zm16.467 0l3.54 10.898h11.458l-9.267 6.735 3.54 10.892-9.27-6.735-9.268 6.735 3.54-10.894-9.27-6.736h11.46zm16.463 0l3.54 10.898h11.458l-9.267 6.735 3.54 10.892-9.273-6.735-9.267 6.735 3.542-10.894-9.27-6.736h11.46zm16.47 0l3.54 10.898h11.458l-9.27 6.735 3.544 10.892-9.272-6.735-9.267 6.735 3.54-10.894-9.27-6.736h11.46zm16.467 0l3.54 10.898h11.458l-9.27 6.735 3.544 10.892-9.272-6.735-9.267 6.735 3.537-10.894-9.268-6.736h11.458zm-74.1 77.512l3.54 10.898h11.458l-9.267 6.735 3.537 10.896-9.268-6.735-9.267 6.736 3.537-10.894-9.268-6.734h11.458zM32.93-46.516l3.54 10.898h11.458L87.05 41.63l3.54 10.893-9.272-6.735-9.267 6.735 3.543-10.894-9.27-6.737h11.46zm16.47 0l3.54 10.898h11.458l-9.267 6.735 3.54 10.893-9.27-6.735-9.268 6.735 3.542-10.894-9.272-6.736h11.462zm16.467 0l3.54 10.898h11.458l-9.267 6.735 3.537 10.893-9.268-6.735L56.6-17.99l3.54-10.894-9.27-6.736h11.46zm16.463 0l3.54 10.898h11.458l-9.27 6.735 3.544 10.893-9.272-6.735-9.267 6.735L76.6-28.884l-9.266-6.736h11.458zM32.426 122.078l3.544 10.898h11.453l-9.267 6.734 3.54 10.894-9.27-6.735-9.268 6.733 3.54-10.894-9.27-6.735h11.46zm40.662-91.082l3.54 10.898h11.458L78.82 48.63l3.536 10.893-9.268-6.735-9.267 6.735 3.54-10.893-9.268-6.736H69.55zm16.467 0l3.54 10.898h11.458l-9.267 6.735 3.54 10.892-9.27-6.735-9.268 6.735 3.54-10.894-9.27-6.736h11.46zm16.463 0l3.54 10.898h11.458l-9.267 6.735 3.54 10.892-9.273-6.735-9.267 6.735 3.542-10.894-9.27-6.736h11.46zm16.47 0l3.54 10.898h11.458l-9.27 6.735 3.544 10.892-9.272-6.735-9.267 6.735 3.54-10.894-9.27-6.736h11.46zm16.467 0l3.54 10.898h11.458l-9.27 6.735 3.544 10.892-9.272-6.735-9.267 6.735 3.537-10.894-9.268-6.736h11.458zm-74.1 118.65l3.54 10.9h11.458l-9.267 6.734 3.537 10.894-9.268-6.735-9.267 6.733 3.537-10.894-9.268-6.736h11.458zM32.93-73.653l3.54 10.897h11.458L87.05 55.63l3.54 10.893-9.272-6.735-9.267 6.735 3.543-10.894-9.27-6.737h11.46zm16.47 0l3.54 10.897h11.458l-9.267 6.735 3.54 10.893-9.27-6.734-9.268 6.735 3.542-10.893-9.272-6.736h11.462zm16.467 0l3.54 10.897h11.458l-9.267 6.735 3.537 10.893-9.268-6.734L56.6-45.13l3.54-10.893-9.27-6.736h11.46zm16.463 0l3.54 10.897h11.458l-9.27 6.735 3.544 10.893-9.272-6.734-9.267 6.735L76.6-56.022l-9.266-6.736h11.458zm-49.904 250.87l3.544 10.9h11.453l-9.267 6.733 3.54 10.892-9.27-6.735-9.268 6.735 3.54-10.894-9.27-6.735h11.46zm40.662-132.22l3.54 10.898h11.458L78.82 62.63l3.536 10.893-9.268-6.735-9.267 6.735 3.54-10.893-9.268-6.736H69.55zm16.467 0l3.54 10.898h11.458l-9.267 6.735 3.54 10.892-9.27-6.735-9.268 6.735 3.54-10.894-9.27-6.736h11.46zm16.463 0l3.54 10.898h11.458l-9.267 6.735 3.54 10.892-9.273-6.735-9.267 6.735 3.542-10.894-9.27-6.736h11.46zm16.47 0l3.54 10.898h11.458l-9.27 6.735 3.544 10.892-9.272-6.735-9.267 6.735 3.54-10.894-9.27-6.736h11.46zm16.467 0l3.54 10.898h11.458l-9.27 6.735 3.544 10.892-9.272-6.735-9.267 6.735 3.537-10.894-9.268-6.736h11.458zm-74.1 159.79l3.54 10.898h11.458l-9.267 6.735 3.537 10.892-9.268-6.735-9.267 6.735 3.537-10.894-9.268-6.736h11.458zm16.463-152.79l3.54 10.898h11.458L87.05 69.63l3.54 10.893-9.272-6.735-9.267 6.735 3.543-10.894-9.27-6.737h11.46zm16.47 0l3.54 10.898h11.458l-9.267 6.735 3.54 10.892-9.273-6.735-9.267 6.735 3.542-10.894-9.272-6.736h11.462zm16.467 0l3.54 10.898h11.458l-9.267 6.735 3.537 10.892-9.268-6.735-9.267 6.735 3.54-10.894-9.27-6.736h11.46zm16.463 0l3.54 10.898h11.458l-9.27 6.735 3.544 10.892-9.272-6.735-9.267 6.735 3.54-10.894-9.268-6.736h11.458zm-98.292 180.36l3.544 10.898h11.453l-9.267 6.734 3.54 10.894-9.27-6.735-9.268 6.735 3.54-10.894-9.27-6.734h11.46zm40.662-173.36l3.54 10.898h11.458L78.82 76.63l3.536 10.893-9.268-6.735-9.267 6.735 3.54-10.893-9.268-6.736H69.55zm16.467 0l3.54 10.898h11.458l-9.267 6.735 3.54 10.892-9.27-6.735-9.268 6.735 3.54-10.894-9.27-6.736h11.46zm16.463 0l3.54 10.898h11.458l-9.267 6.735 3.54 10.892-9.273-6.735-9.267 6.735 3.542-10.894-9.27-6.736h11.46zm16.47 0l3.54 10.898h11.458l-9.27 6.735 3.544 10.892-9.272-6.735-9.267 6.735 3.54-10.894-9.27-6.736h11.46zm16.467 0l3.54 10.898h11.458l-9.27 6.735 3.544 10.892-9.272-6.735-9.267 6.735 3.537-10.894-9.268-6.736h11.458z" fill="#fff"/></g></svg>