<svg xmlns="http://www.w3.org/2000/svg" height="512" width="512" viewBox="0 0 512 512"><g fill-rule="evenodd"><path d="M0 0h972.81v39.385H0zm0 78.77h972.81v39.385H0zm0 20h972.81v39.385H0zm0 20h972.81v39.385H0zm0 20h972.81v39.385H0zm0 20h972.81v39.385H0zm0 20h972.81v39.385H0z" fill="#bd3d44"/><path d="M0 39.385h972.81V78.77H0zM0 88.77h972.81v39.385H0zm0 20h972.81v39.385H0zm0 20h972.81v39.385H0zm0 20h972.81v39.385H0zm0 20h972.81v39.385H0z" fill="#fff"/><path fill="#192f5d" d="M0 0h389.124v275.695H0z"/><path d="M32.426 11.8l3.544 10.898h11.453l-9.267 6.734 3.54 10.894-9.27-6.735-9.268 6.737 3.54-10.894-9.27-6.734h11.46zm40.662-8.804l3.54 10.898h11.458L78.82 20.63l3.536 10.893-9.268-6.73-9.267 6.733 3.54-10.893-9.27-6.735h11.46zm16.467 0l3.54 10.898h11.458l-9.267 6.735 3.54 10.892-9.27-6.735-9.268 6.735 3.54-10.894-9.27-6.736h11.46zm16.463 0l3.54 10.898h11.458l-9.267 6.735 3.54 10.892-9.273-6.735-9.267 6.735 3.542-10.894-9.27-6.736h11.46zm16.47 0l3.54 10.898h11.458l-9.27 6.735 3.544 10.892-9.272-6.73-9.267 6.733 3.54-10.893-9.27-6.735h11.46zm16.467 0l3.54 10.898h11.458l-9.27 6.735 3.544 10.892-9.272-6.735-9.267 6.735 3.537-10.894-9.268-6.736h11.458zm-340.23 27.57l3.54 10.897h11.457l-9.267 6.735 3.536 10.894-9.265-6.735-9.267 6.735 3.537-10.894-9.268-6.735h11.457zM81.318 9.996l3.54 10.898h11.458L87.05 27.63l3.54 10.893-9.272-6.735-9.267 6.735 3.543-10.894-9.27-6.737h11.46zm16.47 0l3.54 10.898h11.458l-9.267 6.735 3.54 10.892-9.273-6.735-9.267 6.735 3.542-10.894-9.272-6.736h11.462zm16.467 0l3.54 10.898h11.458l-9.267 6.735 3.537 10.892-9.268-6.735-9.267 6.735 3.54-10.894-9.27-6.736h11.46zm16.463 0l3.54 10.898h11.458l-9.27 6.735 3.544 10.892-9.272-6.735-9.267 6.735 3.54-10.894-9.268-6.736h11.458zm-340.228 27.57l3.545 10.897h11.453l-9.267 6.735 3.54 10.894-9.27-6.735-9.266 6.735 3.54-10.894-9.27-6.735h11.46zm500.34-41.14l3.54 10.898h11.458L78.82 34.63l3.536 10.893-9.268-6.735-9.267 6.735 3.54-10.893-9.268-6.736H69.55zm16.467 0l3.54 10.898h11.458l-9.267 6.735 3.54 10.892-9.27-6.735-9.268 6.735 3.54-10.894-9.27-6.736h11.46zm16.463 0l3.54 10.898h11.458l-9.267 6.735 3.54 10.892-9.27-6.735-9.268 6.735 3.542-10.894-9.27-6.736h11.46zm16.47 0l3.54 10.898h11.458l-9.27 6.735 3.544 10.892-9.272-6.735-9.267 6.735 3.538-10.894-9.267-6.736h11.458zm16.467 0l3.54 10.898h11.458l-9.27 6.735 3.544 10.892-9.273-6.735-9.267 6.735 3.537-10.894-9.268-6.736h11.457zm-340.23 27.57l3.54 10.897h11.457l-9.267 6.735 3.536 10.894-9.266-6.735L7.2 52.522l3.537-10.894-9.268-6.735h11.456zM299.06 3.426l3.54 10.898h11.458L87.05 41.63l3.54 10.893-9.272-6.735-9.267 6.735 3.543-10.894-9.27-6.737h11.46zm16.47 0l3.54 10.898h11.458l-9.267 6.735 3.54 10.892-9.27-6.735-9.268 6.735 3.542-10.894-9.272-6.736h11.462zm16.467 0l3.54 10.898h11.458l-9.267 6.735 3.537 10.892-9.268-6.735-9.267 6.735 3.54-10.894-9.27-6.736h11.46zm16.463 0L352 14.324h11.458l-9.27 6.735 3.544 10.892-9.272-6.735-9.267 6.735 3.538-10.894-9.266-6.736h11.458zM8.232 30.996l3.545 10.897H23.23l-9.267 6.735 3.54 10.894-9.27-6.735-9.267 6.735 3.54-10.894-9.27-6.735h11.46zm282.598-20.57l3.54 10.898h11.458L78.82 48.63l3.536 10.893-9.268-6.735-9.267 6.735 3.54-10.893-9.268-6.736H69.55zm16.467 0l3.54 10.898h11.458l-9.267 6.735 3.54 10.892-9.27-6.735-9.268 6.735 3.54-10.894-9.27-6.736h11.46zm16.463 0l3.54 10.898h11.458l-9.267 6.735 3.54 10.892-9.27-6.735-9.268 6.735 3.542-10.894-9.27-6.736h11.46zm16.47 0l3.54 10.898h11.458l-9.27 6.735 3.544 10.892-9.272-6.735-9.267 6.735 3.538-10.894-9.267-6.736h11.458zm16.467 0l3.54 10.898h11.458l-9.27 6.735 3.544 10.892-9.273-6.735-9.267 6.735 3.537-10.894-9.268-6.736h11.457zm-340.23 27.57l3.54 10.897h11.457l-9.267 6.735 3.536 10.894-9.266-6.735L7.2 66.522l3.537-10.894-9.268-6.735h11.456zm282.593-20.57l3.54 10.898h11.458L87.05 55.63l3.54 10.893-9.272-6.735-9.267 6.735 3.543-10.894-9.27-6.737h11.46zm16.47 0l3.54 10.898h11.458l-9.267 6.735 3.54 10.892-9.27-6.735-9.268 6.735 3.542-10.894-9.272-6.736h11.462zm16.467 0l3.54 10.898h11.458l-9.267 6.735 3.537 10.892-9.268-6.735-9.267 6.735 3.54-10.894-9.27-6.736h11.46zm16.463 0L352 28.324h11.458l-9.27 6.735 3.544 10.892-9.272-6.735-9.267 6.735 3.538-10.894-9.266-6.736h11.458zM32.426 177.216l3.544 10.9h11.453l-9.267 6.733 3.54 10.892-9.27-6.735-9.268 6.735 3.54-10.894-9.27-6.735h11.46zm40.662-132.22l3.54 10.898h11.458L78.82 62.63l3.536 10.893-9.268-6.735-9.267 6.735 3.54-10.893-9.268-6.736H69.55zm16.467 0l3.54 10.898h11.458l-9.267 6.735 3.54 10.892-9.27-6.735-9.268 6.735 3.54-10.894-9.27-6.736h11.46zm16.463 0l3.54 10.898h11.458l-9.267 6.735 3.54 10.892-9.273-6.735-9.267 6.735 3.542-10.894-9.27-6.736h11.46zm16.47 0l3.54 10.898h11.458l-9.27 6.735 3.544 10.892-9.272-6.735-9.267 6.735 3.54-10.894-9.27-6.736h11.46zm16.467 0l3.54 10.898h11.458l-9.27 6.735 3.544 10.892-9.272-6.735-9.267 6.735 3.537-10.894-9.268-6.736h11.458zm-340.23 27.57l3.54 10.897h11.457l-9.267 6.735 3.536 10.894-9.265-6.735-9.267 6.735 3.537-10.894-9.268-6.735h11.457zm282.593-20.57l3.54 10.898h11.458L87.05 69.63l3.54 10.893-9.272-6.735-9.267 6.735 3.543-10.894-9.27-6.737h11.46zm16.47 0l3.54 10.898h11.458l-9.267 6.735 3.54 10.892-9.273-6.735-9.267 6.735 3.542-10.894-9.272-6.736h11.462zm16.467 0l3.54 10.898h11.458l-9.267 6.735 3.537 10.892-9.268-6.735-9.267 6.735 3.54-10.894-9.27-6.736h11.46zm16.463 0l3.54 10.898h11.458l-9.27 6.735 3.544 10.892-9.272-6.735-9.267 6.735 3.54-10.894-9.268-6.736h11.458zm-98.292 180.36l3.544 10.898h11.453l-9.267 6.734 3.54 10.894-9.27-6.735-9.268 6.735 3.54-10.894-9.27-6.734h11.46zm40.662-173.36l3.54 10.898h11.458L78.82 76.63l3.536 10.893-9.268-6.735-9.267 6.735 3.54-10.893-9.268-6.736H69.55zm16.467 0l3.54 10.898h11.458l-9.267 6.735 3.54 10.892-9.27-6.735-9.268 6.735 3.54-10.894-9.27-6.736h11.46zm16.463 0l3.54 10.898h11.458l-9.267 6.735 3.54 10.892-9.273-6.735-9.267 6.735 3.542-10.894-9.27-6.736h11.46zm16.47 0l3.54 10.898h11.458l-9.27 6.735 3.544 10.892-9.272-6.735-9.267 6.735 3.54-10.894-9.27-6.736h11.46zm16.467 0l3.54 10.898h11.458l-9.27 6.735 3.544 10.892-9.272-6.735-9.267 6.735 3.537-10.894-9.268-6.736h11.458z" fill="#fff"/></g></svg>