<svg xmlns="http://www.w3.org/2000/svg" height="512" width="512" viewBox="0 0 512 512"><g fill-rule="evenodd"><path fill="#fff" d="M255.992 0h255.992v511.984H255.992z"/><path d="M282.43-735.13c0 .625 55.956 222.85 118.17 300.56 69.375 87.27 113.18 87.333 113.18 87.333l70.866-17.717s-41.496 2.093-123.8-104.21c-83.45-107.78-109.42-285.96-108.17-282.84l-70.24 16.875z" transform="matrix(-.215 0 0 .179 450.486 340.71)" stroke="#000" stroke-width="1pt" fill="#fff"/><path d="M285-727.64c-1.535-9.37 33.898 220.95 140.2 327.24 53.15 53.15 88.583 53.15 88.583 53.15l88.582-17.717s-51.712 3.75-134.02-102.55c-83.45-107.78-108.58-263.25-107.96-263.87l-75.38 3.75zm-2.57-7.49c0 .625 55.956 222.85 118.17 300.56 69.375 87.27 113.18 87.333 113.18 87.333l70.866-17.717s-41.496 2.093-123.8-104.21c-83.45-107.78-109.42-285.96-108.17-282.84l-70.24 16.875z" transform="matrix(.215 0 0 .179 313.875 342.337)" stroke="#000" stroke-width="1pt" fill="#fff"/><path d="M285-727.64c-1.535-9.37 33.898 220.95 140.2 327.24 53.15 53.15 88.583 53.15 88.583 53.15l88.582-17.717s-51.712 3.75-134.02-102.55c-83.45-107.78-108.58-263.25-107.96-263.87l-75.38 3.75z" transform="matrix(-.215 0 0 .179 450.486 340.71)" stroke="#000" stroke-width="1pt" fill="#fff"/><path d="M344.54-596.29l9.152 22.14s1.455-9.766 8.526-11.533l7.07-1.768s26.865 49.326 32.17 58.165c5.3 8.838-3.537 16.793-1.77 16.793 1.77 0 26.517-11.49 26.517-11.49s-10.606.882-15.026-6.19-34.82-59.933-34.82-59.933 6.186-2.652 11.49-5.303c5.303-2.652 10.606 7.955 10.606 7.955L385.2-613.97s0 8.84-4.42 10.607c-4.42 1.766-7.956 3.534-7.956 3.534s-3.535-6.186-7.955-13.257c-4.42-7.07 4.42-14.142 4.42-14.142l-22.983 11.49s7.955 4.42 10.607 8.84l5.303 8.84s-3.223 1.767-8.214 3.48c-3.59 1.876-7.696.055-9.464-1.713z" transform="matrix(.215 .004 -.005 .179 312.189 347.844)" stroke="#000" stroke-width="1pt" fill="#fff133"/><path d="M339.256 341.724c-.56-.088-.798-.545-.475-.915s1.21-.653 1.77-.566l3.085.482c.56.087.798.544.475.914-.338.387-1.208.652-1.77.565l-3.084-.48zm-1.626 1.236c-.552-.1-.772-.567-.443-.936s1.21-.637 1.76-.538l3.026.548c.55.1.77.567.442.936-.345.385-1.21.637-1.76.538l-3.026-.548zm-1.727 1.39c-.56-.088-.798-.545-.475-.915s1.207-.65 1.768-.564l3.085.484c.563.087.8.544.477.914-.337.386-1.207.65-1.768.564l-3.086-.48zm21.58-18.132c-.57.035-.937-.356-.737-.782s.97-.89 1.538-.924l3.13-.195c.57-.036.938.355.738.782-.21.444-.97.887-1.538.922l-3.13.195zm-1.3 1.436c-.563.012-.91-.4-.694-.823s.993-.857 1.556-.87l3.095-.065c.563-.012.91.4.694.822-.226.443-.995.86-1.558.87l-3.095.068zm-1.287 1.69c-.57.025-.93-.37-.72-.795s.99-.874 1.56-.9l3.132-.14c.57-.028.93.37.72.792-.22.442-.99.872-1.56.898l-3.132.143zm-1.426.603c-.563-.017-.877-.446-.63-.857s1.06-.804 1.62-.787l3.094.098c.562.02.877.448.63.86-.26.43-1.06.804-1.622.786l-3.093-.098zm8.607-9.654c-.56.086-.978-.27-.833-.713s.85-.97 1.41-1.054l3.088-.47c.562-.085.978.27.834.713-.15.46-.85.967-1.412 1.053l-3.087.47zm-.994 1.643c-.557.07-.962-.3-.81-.744s.857-.957 1.414-1.028l3.06-.39c.555-.07.96.302.81.745-.158.46-.858.954-1.415 1.025l-3.06.39zm-1.023 1.81c-.56.086-.978-.27-.833-.713s.85-.97 1.41-1.054l3.088-.47c.562-.087.978.27.834.71-.153.463-.853.97-1.414 1.056l-3.087.47zm-1.292 1.466c-.558.062-.955-.316-.794-.756s.88-.942 1.44-1.004l3.068-.34c.558-.063.955.315.794.755-.17.46-.88.942-1.44 1.004l-3.068.343zm-12.788 11.464c-.566-.05-.847-.49-.56-.88s1.14-.732 1.706-.682l3.12.273c.568.05.85.49.562.88-.3.408-1.14.73-1.707.68l-3.12-.27zm-1.5 1.34c-.557-.063-.822-.515-.53-.905s1.144-.715 1.702-.653l3.07.34c.557.063.823.515.53.905-.306.408-1.143.718-1.7.656l-3.07-.34zm-1.588 1.504c-.567-.05-.848-.49-.562-.88s1.14-.732 1.707-.682l3.12.273c.568.05.85.49.562.88-.3.41-1.14.733-1.71.683l-3.12-.272zm-1.908.815c-.55-.1-.77-.567-.442-.936s1.21-.64 1.76-.54l3.026.55c.55.097.77.565.442.934-.345.385-1.21.637-1.76.538l-3.026-.548zm11.078-8.768c-.57-.005-.9-.42-.658-.832s1.053-.817 1.623-.812l3.138.025c.57.005.9.42.658.83-.252.43-1.053.82-1.623.814l-3.138-.025zm-1.35 1.453c-.562-.017-.876-.446-.628-.857s1.058-.804 1.62-.787l3.093.098c.562.017.877.446.63.857-.26.43-1.06.807-1.622.79l-3.093-.1zm-1.642.813c-.568-.05-.85-.49-.563-.88s1.14-.732 1.707-.682l3.12.275c.568.05.85.49.562.88-.3.408-1.14.73-1.707.68l-3.12-.27zm-1.5 1.34c-.558-.063-.823-.515-.53-.905s1.143-.717 1.7-.655l3.07.34c.558.063.824.515.53.905-.305.407-1.142.717-1.7.655l-3.07-.34zm24.424-34.665c-.53.176-1.022-.106-.983-.563s.61-1.09 1.14-1.265l2.918-.965c.53-.175 1.022.107.983.564-.04.475-.607 1.087-1.14 1.263l-2.915.964zm-.586.802c-.543.125-.997-.205-.908-.66s.72-1.033 1.263-1.158l2.985-.686c.543-.125.997.205.91.66-.094.475-.72 1.034-1.264 1.16l-2.986.685zm-.76 1.897c-.546.14-1.01-.174-.927-.627s.71-1.045 1.258-1.185l3-.768c.546-.14 1.01.174.928.627-.086.473-.71 1.045-1.256 1.185l-3.002.766zm-.763 1.73c-.543.125-.997-.205-.908-.66s.72-1.033 1.263-1.16l2.985-.684c.543-.125.997.205.91.66-.094.475-.72 1.034-1.264 1.16l-2.984.685zm3.865-10.092c-.53.16-1.014-.138-.97-.596s.62-1.08 1.148-1.24l2.91-.884c.53-.16 1.013.138.97.597-.048.48-.62 1.078-1.15 1.238l-2.908.884zm-.586 1.947c-.53.176-1.022-.106-.983-.563s.61-1.09 1.14-1.267l2.918-.965c.53-.176 1.022.106.983.563-.04.478-.607 1.09-1.14 1.266l-2.915.964zm-.586 1.77c-.53.16-1.014-.138-.97-.596s.62-1.08 1.148-1.24l2.91-.882c.53-.16 1.013.138.97.597-.048.48-.62 1.08-1.15 1.24l-2.908.883zm-6.548 14.882c-.556.102-.988-.24-.863-.687s.807-.995 1.364-1.098l3.066-.567c.557-.103.99.24.864.687-.132.467-.808.996-1.365 1.098l-3.064.566zm-.917 1.668c-.552.09-.974-.27-.843-.718s.815-.982 1.368-1.07l3.04-.486c.553-.088.974.27.843.718-.135.468-.813.983-1.365 1.07l-3.04.486zm-.946 1.845c-.557.102-.99-.24-.864-.687s.807-.995 1.364-1.098l3.064-.565c.56-.103.99.24.866.687-.13.466-.807.995-1.364 1.097l-3.063.568zm-1.067 1.526c-.558.07-.963-.3-.812-.744s.858-.96 1.415-1.03l3.06-.39c.555-.07.96.3.81.745-.158.463-.858.956-1.415 1.027l-3.06.39zm6.025-11.65c-.546.14-1.01-.173-.927-.626s.71-1.045 1.256-1.185l3-.768c.546-.14 1.01.174.928.627-.086.475-.71 1.047-1.256 1.187l-3 .768zm-.288 1.25c-.552.09-.974-.27-.843-.717s.815-.982 1.368-1.07l3.04-.486c.553-.088.974.27.843.718-.137.468-.815.983-1.367 1.07l-3.04.486zm-.945 1.847c-.557.102-.99-.24-.864-.687s.807-.995 1.364-1.098l3.064-.565c.557-.103.99.24.864.687-.13.466-.807.995-1.364 1.097l-3.064.566zm-.917 1.668c-.552.09-.974-.27-.843-.718s.815-.982 1.368-1.07l3.04-.486c.553-.088.974.27.843.718-.137.468-.815.983-1.367 1.07l-3.04.486zm10.577-27.413c-.49.244-1.03.032-1.078-.424s.392-1.155.883-1.4l2.697-1.345c.49-.244 1.03-.032 1.078.424.05.476-.392 1.156-.883 1.4l-2.7 1.346zm-.742 1.76c-.525.184-1.023-.09-.994-.547s.585-1.098 1.112-1.282l2.895-1.01c.527-.183 1.024.09.995.548-.03.48-.584 1.1-1.11 1.282l-2.897 1.01zm-.55 1.782c-.527.17-1.017-.122-.982-.58s.596-1.09 1.12-1.258l2.89-.93c.527-.17 1.017.123.982.58-.037.483-.596 1.09-1.12 1.26l-2.89.926zm1.94-9.367c-.493.23-1.028 0-1.07-.46s.404-1.146.896-1.376l2.705-1.26c.494-.23 1.03 0 1.07.46.047.478-.403 1.146-.895 1.375l-2.705 1.26zm-.2 2c-.49.243-1.03.03-1.08-.425s.393-1.157.884-1.402l2.697-1.345c.49-.244 1.03-.032 1.08.424.05.477-.392 1.157-.883 1.402L378 280.36zm-.248 1.825c-.492.23-1.027 0-1.07-.46s.405-1.146.897-1.376l2.703-1.26c.492-.23 1.027 0 1.07.457.045.48-.405 1.147-.897 1.376l-2.705 1.26zm-2.032 7.495c-.525.183-1.023-.09-.994-.548s.585-1.098 1.112-1.282l2.895-1.01c.527-.183 1.024.09.995.548-.03.48-.584 1.1-1.11 1.282l-2.897 1.01zm-.77 1.355c-.53.16-1.014-.138-.97-.596s.62-1.08 1.148-1.24l2.91-.884c.53-.16 1.013.138.97.597-.048.48-.62 1.078-1.15 1.238l-2.908.884zm-.583 1.947c-.53.176-1.022-.106-.983-.563s.608-1.09 1.14-1.267l2.916-.965c.53-.176 1.022.106.983.563-.04.478-.608 1.09-1.14 1.266l-2.916.964zM423.076 336.686c.566-.056.84-.5.546-.886s-1.153-.717-1.72-.66l-3.116.312c-.566.056-.84.5-.546.886.306.404 1.153.717 1.72.66l3.116-.312zm1.527 1.327c.557-.07.814-.524.514-.91s-1.156-.704-1.713-.635l-3.062.38c-.556.07-.813.525-.513.91.31.405 1.154.704 1.71.635l3.062-.38zm1.613 1.477c.566-.056.84-.5.546-.886s-1.153-.717-1.72-.66l-3.116.312c-.566.056-.84.5-.546.886.306.404 1.153.717 1.72.66l3.116-.312zm-20.112-19.28c.565.066.964-.304.798-.74s-.897-.94-1.462-1.006l-3.106-.365c-.565-.068-.964.303-.798.74.173.455.897.94 1.46 1.005l3.108.364zm1.186 1.505c.56.043.938-.35.756-.783s-.926-.912-1.487-.954l-3.085-.236c-.56-.043-.938.348-.756.783.19.454.925.91 1.485.954l3.083.234zm1.153 1.76c.566.056.956-.32.78-.755s-.918-.924-1.485-.98l-3.114-.312c-.566-.057-.956.32-.78.754.184.453.918.924 1.485.98l3.112.312zm1.37.678c.564.013.91-.398.696-.822s-.995-.86-1.557-.87l-3.095-.074c-.564-.013-.91.398-.696.822.224.443.993.86 1.555.874l3.094.073zm-7.826-10.107c.554.116.997-.216.887-.665s-.773-1.013-1.326-1.13l-3.044-.64c-.554-.114-.997.22-.887.668.114.47.773 1.014 1.326 1.13l3.044.64zm.863 1.69c.548.1.982-.246.866-.696s-.78-1.002-1.33-1.103l-3.023-.557c-.55-.102-.984.247-.868.697.12.47.78 1 1.33 1.103l3.024.557zm.88 1.867c.553.116.996-.216.886-.665s-.773-1.015-1.326-1.13l-3.044-.64c-.554-.116-.997.217-.887.666.112.47.77 1.014 1.324 1.13l3.044.64zm1.174 1.54c.552.092.977-.264.85-.713s-.804-.988-1.356-1.08l-3.036-.507c-.552-.092-.978.264-.85.712.13.47.804.99 1.356 1.08l3.036.508zm11.858 12.132c.57-.018.885-.44.63-.846s-1.08-.795-1.65-.778l-3.136.098c-.57.02-.885.442-.63.847.266.424 1.08.793 1.65.775l3.136-.097zm1.393 1.422c.562-.03.862-.467.6-.872s-1.084-.78-1.646-.748l-3.09.172c-.56.03-.86.465-.6.87.273.423 1.084.78 1.646.75l3.088-.174zm1.467 1.583c.57-.017.885-.44.63-.845s-1.08-.793-1.65-.776l-3.136.096c-.57.018-.885.44-.63.846.266.424 1.08.793 1.65.775l3.136-.097zm1.84.93c.557-.07.814-.525.514-.91s-1.156-.705-1.713-.636l-3.062.38c-.554.07-.81.525-.51.91.312.405 1.155.704 1.71.635l3.063-.38zm-10.364-9.365c.57.027.93-.37.72-.793s-.986-.874-1.555-.9l-3.132-.15c-.567-.026-.93.37-.72.794.22.443.988.874 1.557.9l3.132.15zm1.227 1.527c.563.013.91-.398.695-.822s-.993-.86-1.555-.873l-3.095-.073c-.563-.013-.91.398-.695.822.224.443.993.86 1.555.874l3.095.072zm1.578.896c.57-.018.885-.44.63-.846s-1.08-.793-1.65-.776l-3.136.098c-.57.018-.885.44-.63.846.266.424 1.08.793 1.65.775l3.136-.097zm1.392 1.422c.562-.03.862-.467.6-.872s-1.084-.78-1.646-.748l-3.09.172c-.56.03-.86.467-.6.872.273.423 1.084.78 1.646.748l3.088-.172zm-21.655-35.932c.515.204 1.027-.05 1.024-.508s-.52-1.12-1.036-1.325l-2.836-1.124c-.515-.203-1.028.05-1.025.51.003.48.52 1.12 1.036 1.324l2.836 1.125zm.522.828c.532.155 1.01-.15.958-.607s-.636-1.073-1.168-1.227l-2.923-.85c-.533-.154-1.01.15-.96.607.055.48.637 1.072 1.17 1.227l2.92.85zm.613 1.94c.533.17 1.02-.118.973-.575s-.626-1.08-1.16-1.25l-2.932-.93c-.533-.17-1.02.117-.974.573.05.477.626 1.082 1.16 1.252l2.933.93zm.62 1.762c.533.155 1.01-.15.96-.607s-.637-1.07-1.17-1.223l-2.922-.85c-.53-.154-1.01.15-.958.607.055.48.637 1.07 1.168 1.226l2.923.848zm-3.06-10.272c.517.19 1.023-.082 1.014-.543s-.535-1.11-1.05-1.3l-2.836-1.04c-.515-.19-1.022.082-1.013.542.01.482.534 1.11 1.05 1.3l2.835 1.04zm.427 1.97c.516.203 1.028-.05 1.025-.51s-.52-1.12-1.036-1.324l-2.834-1.124c-.515-.205-1.028.05-1.025.507.004.48.52 1.12 1.037 1.325l2.836 1.125zm.45 1.804c.517.188 1.023-.083 1.014-.544s-.533-1.11-1.048-1.3l-2.836-1.04c-.515-.19-1.022.082-1.013.542.007.482.53 1.11 1.047 1.3l2.835 1.04zm5.364 15.2c.547.132 1.006-.186.916-.638s-.727-1.037-1.275-1.17l-3.013-.733c-.548-.135-1.006.184-.916.636.094.472.727 1.036 1.275 1.17l3.013.732zm.784 1.72c.544.12.993-.216.897-.67s-.736-1.025-1.28-1.143l-2.998-.65c-.547-.12-.996.216-.9.67.1.473.736 1.025 1.28 1.143l2.998.65zm.8 1.888c.546.133 1.005-.185.915-.637s-.727-1.035-1.275-1.17l-3.013-.73c-.548-.134-1.006.185-.916.637.096.472.73 1.036 1.277 1.17l3.013.732zm.947 1.582c.55.1.983-.247.867-.697s-.78-1.002-1.33-1.103l-3.023-.557c-.55-.102-.982.247-.866.697.12.47.78 1 1.33 1.103l3.024.557zm-5.097-11.952c.532.17 1.02-.117.972-.574s-.626-1.082-1.16-1.25l-2.932-.933c-.533-.167-1.02.12-.974.576.05.477.626 1.082 1.16 1.252l2.933.93zm.185 1.267c.545.12.994-.217.898-.67s-.736-1.026-1.28-1.144l-2.998-.65c-.545-.117-.994.218-.9.67.1.475.738 1.027 1.283 1.145l2.997.65zm.798 1.885c.547.134 1.006-.184.916-.636s-.73-1.037-1.277-1.17l-3.013-.733c-.547-.13-1.005.188-.915.64.094.47.727 1.036 1.275 1.17l3.013.73zm.784 1.723c.545.12.994-.217.898-.67s-.736-1.026-1.28-1.144l-2.998-.653c-.545-.118-.994.217-.9.67.1.474.738 1.026 1.283 1.144l2.997.65zm-8.403-27.94c.47.27 1.025.09 1.11-.363s-.3-1.176-.77-1.446l-2.587-1.49c-.47-.27-1.026-.088-1.11.364-.09.473.3 1.176.77 1.447l2.587 1.488zm.596 1.803c.513.212 1.03-.034 1.038-.493s-.497-1.128-1.008-1.34l-2.812-1.165c-.512-.212-1.03.034-1.037.492-.005.48.5 1.13 1.01 1.34l2.81 1.166zm.417 1.808c.51.197 1.023-.067 1.024-.527s-.507-1.12-1.02-1.316l-2.81-1.08c-.512-.198-1.024.066-1.025.526 0 .482.51 1.118 1.02 1.315l2.813 1.085zm-1.204-9.454c.473.255 1.025.056 1.104-.4s-.314-1.167-.787-1.423l-2.6-1.407c-.472-.256-1.024-.056-1.103.4-.083.476.314 1.167.786 1.423l2.6 1.407zm.045 2c.47.272 1.025.09 1.11-.362s-.3-1.176-.77-1.446l-2.587-1.49c-.47-.27-1.024-.088-1.11.364-.087.473.303 1.176.773 1.447l2.586 1.488zm.102 1.84c.473.256 1.025.057 1.104-.4s-.314-1.166-.787-1.422l-2.6-1.407c-.472-.254-1.024-.054-1.103.4-.083.478.314 1.17.786 1.425l2.6 1.407zm1.437 7.593c.512.212 1.03-.034 1.037-.493s-.497-1.128-1.008-1.34l-2.812-1.165c-.512-.212-1.03.034-1.037.492-.007.48.497 1.13 1.008 1.34l2.812 1.166zm.67 1.395c.516.19 1.022-.082 1.013-.543s-.533-1.11-1.048-1.3l-2.836-1.04c-.515-.19-1.022.082-1.013.542.01.482.533 1.11 1.05 1.3l2.834 1.04zm.423 1.97c.517.203 1.03-.05 1.026-.51s-.52-1.12-1.036-1.325l-2.836-1.124c-.515-.206-1.028.05-1.025.506 0 .48.52 1.12 1.034 1.325l2.836 1.126z" stroke="#000" stroke-width="14.25" fill="#b00"/><path d="M344.54-596.29l9.152 22.14s1.455-9.766 8.526-11.533l7.07-1.768s26.865 49.326 32.17 58.165c5.3 8.838-3.537 16.793-1.77 16.793 1.77 0 26.517-11.49 26.517-11.49s-10.606.882-15.026-6.19-34.82-59.933-34.82-59.933 6.186-2.652 11.49-5.303c5.303-2.652 10.606 7.955 10.606 7.955L385.2-613.97s0 8.84-4.42 10.607c-4.42 1.766-7.956 3.534-7.956 3.534s-3.535-6.186-7.955-13.257c-4.42-7.07 4.42-14.142 4.42-14.142l-22.983 11.49s7.955 4.42 10.607 8.84l5.303 8.84s-3.223 1.767-8.214 3.48c-3.59 1.876-7.696.055-9.464-1.713z" transform="matrix(-.215 .004 .005 .179 452.172 346.217)" stroke="#000" stroke-width="1pt" fill="#fff133"/><g transform="matrix(.13 0 0 .108 351.35 305.645)"><path fill="#c0c0c0" d="M324.546-255.37l-50.11 50.11L449.82-29.874l50.11-50.11z"/><ellipse fill="#fff133" transform="scale(-1 1) rotate(45 -177.879 -1104.595)" cx="354.33" rx="35.433" cy="-1428" ry="35.433" stroke="#000" stroke-width="1pt"/><path d="M-402.046-956.91l37.583 37.582-25.055 25.054-37.583-37.582c-12.53-12.528 12.525-37.583 25.053-25.055z" stroke="#000" stroke-width="1pt" fill="#c0c0c0"/><path d="M-346.606-926.53l-50.11 50.11c-13.798 0-25.35-11.554-25.055-25.056 10.876-25.88 25.026-38.434 50.11-50.11 12.475.73 24.215 10.892 25.053 25.055z" stroke="#000" stroke-width="1pt" fill="#fff133"/><path d="M-351.926-931.85l37.583 37.582-50.11 50.11-37.583-37.583c5.027-20.03 30.082-45.086 50.11-50.11z" stroke="#000" stroke-width="1pt" fill="#c0c0c0"/><path d="M-309.026-888.95l-50.11 50.11c-13.798 0-25.35-11.554-25.055-25.056 10.876-25.88 25.026-38.434 50.11-50.11 12.475.73 24.215 10.892 25.053 25.055z" stroke="#000" stroke-width="1pt" fill="#fff133"/><path d="M-314.356-894.28L28.44-551.478l-50.11 50.11-342.796-342.804c5.027-20.03 30.082-45.085 50.11-50.11z" stroke="#000" stroke-width="1pt" fill="#c0c0c0"/><path d="M48.934-530.97l-50.11 50.11c-13.798 0-25.35-11.554-25.055-25.056 10.876-25.88 25.026-38.434 50.11-50.11 12.475.73 24.215 10.892 25.053 25.055z" stroke="#000" stroke-width="1pt" fill="#fff133"/><path d="M48.944-530.976L274.44-305.48l-50.11 50.11L-1.166-480.866c5.027-20.028 30.082-45.084 50.11-50.11zm137.8 112.746l-75.166 75.165c-13.797 0-25.35-11.553-25.055-25.055 0 0 0-25.055 25.055-50.11s50.11-25.055 50.11-25.055c11.64 1.567 21.415 12.527 25.055 25.055zm0 0l50.11 75.165-50.11 50.11-75.165-50.11c-2.83-2.443 0-25.055 25.053-50.11s48.98-24.457 50.11-25.056z" stroke="#000" stroke-width="1pt" fill="#c0c0c0"/><path d="M336.61-506.69c0-35.433 0-86.653 17.717-129.98 17.716 43.326 17.716 94.546 17.716 129.98H336.61z" transform="rotate(-135 434.752 18.668) scale(1 -.818)" stroke="#000" stroke-width="1pt" fill="#c0c0c0"/><path d="M318.9-506.69h17.716v-43.326c0-43.327-35.433-64.99-35.433-64.99l17.717 108.32z" transform="rotate(-45 399.396 -194.158) scale(1 .818)" stroke="#000" stroke-width="1pt" fill="#c0c0c0"/><path d="M318.9-506.69h17.716v-43.326c0-43.327-35.433-64.99-35.433-64.99l17.717 108.32z" transform="rotate(-135 434.752 18.668) scale(1 -.818)" stroke="#000" stroke-width="1pt" fill="#c0c0c0"/><path d="M-314.356-894.28l37.583 37.582C-251.718-831.643-164.03-718.9-164.03-718.9s117.296 92.25 142.356 117.31l37.583 37.583C-9.15-589.062-164.03-693.842-164.03-693.842S-71.784-551.48-34.2-513.896l-37.583-37.583c-25.055-25.053-117.305-142.36-117.3-142.364-.005.005-100.223-75.168-125.276-100.22l-50.11-50.11c25.056 25.054 175.383 125.28 175.383 125.28s-100.22-150.338-125.272-175.39z" stroke="#000" stroke-width="1pt" fill="#fff133"/><path d="M299.493-230.317c50.11 75.165 100.22 125.276 112.744 137.8 23.776 23.82 50.11 25.055 50.11 25.055s0-25.056-25.055-50.11c-12.527-12.528-62.638-62.64-137.8-112.745zm-62.64-112.75c87.695 87.695 187.916 137.806 250.552 200.442 50.11 50.11 15.414 88.464 1.443 100.606-13.97 12.143-51.966 50.284-101.664-.384-62.638-62.638-112.746-162.857-200.442-250.552 0-25.055 25.056-50.11 50.11-50.11z" stroke="#000" stroke-width="1pt" fill="#c0c0c0"/><path stroke="#000" stroke-width="NaN" fill="#c0c0c0" d="M543.01-73.188l-28.645-32.59L415.1-9.58l28.644 32.59z"/><path d="M-330.51-843.274l-40.654 39.753 40.653 39.75-20.327 19.877-40.654-39.753-81.305 79.505 40.653 39.752-20.33 19.876-40.65-39.753-40.653 39.752 121.958 119.257 81.304-79.505-40.654-39.754-20.326 19.876-20.325-19.877 81.304-79.506 20.325 19.877-20.325 19.875 40.65 39.752 40.654-39.753-20.327-19.876 20.326-19.876 81.303 79.505-20.325 19.874-20.326-19.875-40.653 39.752 40.65 39.75 20.326-19.874 20.328 19.875-81.304 79.505-20.328-19.876 20.328-19.878-40.653-39.75-81.304 79.504 121.958 119.258 40.654-39.754-40.653-39.75 20.327-19.876 40.653 39.75 81.304-79.504-40.653-39.753 20.33-19.876 40.65 39.754 40.653-39.754-284.576-278.276zm121.946 437.272v39.752l-101.63 99.38v-79.503l20.325-19.877h40.655l40.652-39.752zm101.64-98.562l-80.75 78.96-.96 39.48 81.71-79.9v-38.54zm-81.31 118.442l-40.652-39.752v-39.753l40.652 39.753v39.752zm101.63-99.38l-40.65-39.753v-39.753l40.65 39.753v39.752zm-40.65-79.508v39.753l-20.328-19.877 20.327-19.875zm-101.632 99.382v39.752l-20.327-19.877 20.327-19.875zm183.343-99.382L-86.6-525.255v39.752l41.057-40.965v-38.54zm-244.322-39.748l-40.652-39.752v-39.753l40.652 39.753v39.752zm81.305 79.498l-40.653-39.752v-39.753l40.652 39.753v39.752zm20.33-99.378l-60.98-59.63v-39.75l81.305 79.503-20.326 19.877zm-60.983-99.378v39.752l-20.327-19.877 20.327-19.877zm-40.652 119.258l40.652-39.752v-39.753l-40.652 39.753v39.752zm-101.628-19.88l60.98-59.63v-39.75l-81.305 79.503 20.325 19.877zm60.983 19.874l-81.305 79.505h-40.652l-20.327 19.877v79.506l142.288-139.53v-39.357zm81.297 238.522L-371.17-485.5h-40.653l121.958 119.258h40.652zm-60.98 19.87L-432.15-465.63l20.33-19.87 121.958 119.258-20.33 19.87zm0 0v79.503L-432.15-386.125v-79.504l121.958 119.257zM-411.82-525.25l-121.958-119.257h-40.652l121.958 119.258h40.652zm-60.98 19.87l-121.957-119.258 20.33-19.87 121.958 119.26-20.33 19.868zm0 0v79.504l-121.957-119.258v-79.504L-472.8-505.38zm20.32-139.127l-20.327-19.877v-39.752l40.653 39.752-20.326 19.877zm101.628-99.378l-20.327-19.877v-39.752l40.655 39.752-20.326 19.877zM-249.216-485.5v-39.752l-20.327 19.875 20.327 19.877zm40.656-39.76l40.65-39.752-20.325-19.877-20.326 19.88v39.75zm-121.962-159.007l20.326-19.877-20.326-19.875v39.754z" stroke="#000" fill="#c0c0c0"/><path stroke="#000" stroke-width="NaN" fill="#fff133" d="M574.38-47.266L542.86-83.02 433.624 22.52l31.52 35.756z"/><path d="M336.61 166.54c0 14.67 35.433 35.434 35.433-17.716H336.61v17.716zM242.1 24.803c-147.06 0-113.13 164.24-100.37 124.02 9.36-29.503 35.433-70.866 64.935-80.225 40.225-12.76 26.696 9.36 41.364 9.36 14.67 0 1.14-22.12 41.362-9.36 29.503 9.36 55.577 50.722 64.936 80.225 12.76 40.224 53.148-124.02-112.23-124.02zM389.76 166.54c0 78.237-63.496 141.73-141.73 141.73-78.236 0-141.73-63.496-141.73-141.73v-17.716c0-29.116 35.433 124.02 141.73 124.02s141.73-124.77 141.73-124.02v17.716z" transform="matrix(-1.899 0 0 1.887 1166.1 -102.64)" stroke="#000" stroke-width="1pt" fill="#c0c0c0"/><path d="M336.61 166.54c0 14.67 35.433 35.434 35.433-17.716H336.61v17.716z" transform="matrix(1.899 0 0 1.887 224 -100.51)" stroke="#000" stroke-width="1pt" fill="#c0c0c0"/><path d="M389.76 148.82c0 78.236-63.496 141.73-141.73 141.73-78.236 0-141.73-63.496-141.73-141.73 0-78.236 63.496-141.73 141.73-141.73 78.237 0 141.73 63.496 141.73 141.73zm-53.15 0c0 14.67 22.812 3.042 9.36 43.04-9.36 27.826-27.076 45.543-56.58 54.902-40.224 12.76-26.693-9.36-41.363-9.36-14.668 0-1.14 22.12-41.364 9.36-29.502-9.36-47.218-27.076-56.577-56.578-12.76-40.224 9.36-26.695 9.36-41.364 0-14.67-22.12-1.14-9.36-41.364 9.36-29.502 27.075-47.22 56.577-56.578 40.225-12.76 26.696 9.36 41.364 9.36 14.67 0 1.14-22.12 41.364-9.36 29.505 9.36 47.22 27.075 56.58 56.578 12.76 40.224-9.36 26.694-9.36 41.364z" transform="matrix(-1.899 0 0 1.887 1166.1 -102.64)" stroke="#000" stroke-width="1pt" fill="#c0c0c0"/><path d="M126.55 157.68c-20.248 0-1.93 67.6-9.104 51.705s-11.144-33.368-11.144-51.705 3.97-35.81 11.144-51.705c7.175-15.894-11.144 51.705 9.104 51.705z" transform="matrix(-1.662 0 0 1.761 1107.2 -99.519)" stroke="#000" stroke-width="1pt" fill="#c0c0c0"/><path d="M372.05 139.96c0 15.892-2.13 31.632-9.75 44.81-7.966 13.776 9.75-44.81-7.966-44.81 17.716 0 1.687-58.587 7.965-44.81 6.277 13.775 9.75 28.918 9.75 44.81z" transform="matrix(-1.899 0 0 2.032 1166.1 -106.24)" stroke="#000" stroke-width="1pt" fill="#c0c0c0"/><path d="M296.29 263.08c-14.836 6.28-31.144 9.75-48.258 9.75s-33.422-3.47-48.257-9.75c-14.835-6.278 48.257 9.75 48.257-7.966 0 17.717 63.093 1.688 48.258 7.966zM248.03 42.52c0-17.716-63.092-1.688-48.257-7.966s31.143-9.75 48.257-9.75 33.422 3.472 48.258 9.75c14.835 6.278-48.258-9.75-48.258 7.966z" transform="matrix(-1.899 0 0 1.887 1166.1 -102.64)" stroke="#000" stroke-width="1pt" fill="#c0c0c0"/><ellipse fill="#fff133" transform="matrix(-1.293 -1.382 -1.391 1.284 1257.6 -120.02)" cx="82.112" rx="18.433" cy="160.86" ry="20.109" stroke="#000" stroke-width="1pt"/><path d="M851.42-39.552c14.555 10.32 28.28 22.247 40.925 35.76s23.616 27.986 32.913 43.16l11.54-6.965c-9.765-15.933-21.284-31.13-34.563-45.323s-27.695-26.72-42.98-37.555l-7.834 10.923z" stroke="#000" stroke-width="NaN" fill="#fff133"/><path d="M465.433 317.015c9.296 15.173 20.267 29.642 32.912 43.157s26.37 25.442 40.925 35.762l-7.837 10.922c-15.284-10.84-29.7-23.362-42.978-37.555s-24.802-29.39-34.563-45.323l11.54-6.962zm-206.36 9.686c9.297 15.174 24.817 29.094 37.462 42.61 12.642 13.51 28.568 23.296 43.12 33.62l2.93-25.42c-15.286-10.84-29.7-23.363-42.98-37.557s-24.802-29.39-34.563-45.323l-5.97 32.07z" stroke="#000" stroke-width="NaN" fill="#fff133"/><path d="M834.675 407.48c15.272-9.232 29.837-20.126 43.44-32.682s25.607-26.188 35.993-40.642l10.997 7.787c-10.908 15.178-23.512 29.494-37.798 42.68s-29.582 24.63-45.62 34.32l-7.012-11.464z" stroke="#000" stroke-width="NaN" fill="#fff133"/><ellipse fill="#fff133" transform="matrix(-1.293 -1.382 -1.391 1.284 789.14 314.38)" cx="82.112" rx="18.433" cy="160.86" ry="20.109" stroke="#000" stroke-width="1pt"/><path d="M842.353 417.397c15.273-9.23 27.59-17.887 41.19-30.443s31.23-30.66 41.62-45.112l3.12 30.136c-10.904 15.18-23.508 29.494-37.794 42.68s-29.585 24.626-45.623 34.32l-2.512-31.585z" stroke="#000" stroke-width="NaN" fill="#fff133"/><path d="M173.94 271.77l-.838 14.842-3.24 4.493.977-15.087 3.1-4.248zm156.6-6.17l3.562 4.19 1.047 13.615-2.935-2.933-1.676-14.872z" transform="matrix(-1.899 0 0 1.887 1166.1 -102.64)" stroke="#000" stroke-width="1pt" fill="#fff133"/><ellipse fill="#fff133" transform="matrix(-1.293 -1.382 -1.391 1.284 1237.6 329.88)" cx="82.112" rx="18.433" cy="160.86" ry="20.109" stroke="#000" stroke-width="1pt"/></g><path d="M513.78-790.16l35.432-17.714 35.433 17.714s-73.366 35.433-73.366 159.45c-.003 88.58 125.26 106.3 125.26 212.6 0 45.65-34.185 88.582-69.618 88.582s-88.583-17.716-141.73-70.866c35.433 17.716 76.082 37.308 106.3 36.058 19.588-.405 55.025-17.716 55.025-53.15 0-70.865-122.77-106.92-122.77-213.22 0-124.02 50.025-159.45 50.026-159.45zm6.47 0l46.683-17.717 10 17.717s-70.65 35.433-70.65 159.45c0 88.58 125.89 106.3 125.89 212.6 0 45.65-26.713 87.362-65.24 88.582-73.403 2.363-90.458-23.966-141.73-70.866 43.15 32.308 105 46.752 129.02 34.183 29.354-15.366 35.024-36.06 35.024-53.776 0-70.866-120.89-104.42-120.89-210.72 0-124.02 51.9-159.45 51.9-159.45zm-6.91.47c7.004-2.437 35.875-18.186 71.308 17.247 17.717 17.72 17.716 53.15 17.716 70.866l53.15-53.15s-29.066-86.87-107.62-53.59c-11.127 4.9-28.14 14.537-34.55 18.627zm10.46-6.25c8.84-2.87 36.676-6.325 64.596 18.5 17.717 17.72 18.966 42.934 18.966 60.65l40.65-37.932c3.44-3.21-24.832-81.252-99.24-54.034-4.5 1.807-14.78 6.302-24.972 12.816z" transform="matrix(-.215 0 0 .179 450.486 340.71)" stroke="#000" stroke-width="1pt" fill="#fff"/><path d="M344.54-596.29l9.152 22.14s1.455-9.766 8.526-11.533l7.07-1.768s26.865 49.326 32.17 58.165c5.3 8.838-3.537 16.793-1.77 16.793 1.77 0 26.517-11.49 26.517-11.49s-10.606.882-15.026-6.19-34.82-59.933-34.82-59.933 6.186-2.652 11.49-5.303c5.303-2.652 10.606 7.955 10.606 7.955L385.2-613.97s0 8.84-4.42 10.607c-4.42 1.766-7.956 3.534-7.956 3.534s-3.535-6.186-7.955-13.257c-4.42-7.07 4.42-14.142 4.42-14.142l-22.983 11.49s7.955 4.42 10.607 8.84l5.303 8.84s-3.223 1.767-8.214 3.48c-3.59 1.876-7.696.055-9.464-1.713z" transform="matrix(-.175 -.019 -.06 .155 365.625 343.191)" stroke="#000" stroke-width="1pt" fill="#fff133"/><path d="M344.54-596.29l9.152 22.14s1.455-9.766 8.526-11.533l7.07-1.768s26.865 49.326 32.17 58.165c5.3 8.838-3.537 16.793-1.77 16.793 1.77 0 26.517-11.49 26.517-11.49s-10.606.882-15.026-6.19-34.82-59.933-34.82-59.933 6.186-2.652 11.49-5.303c5.303-2.652 10.606 7.955 10.606 7.955L385.2-613.97s0 8.84-4.42 10.607c-4.42 1.766-7.956 3.534-7.956 3.534s-3.535-6.186-7.955-13.257c-4.42-7.07 4.42-14.142 4.42-14.142l-22.983 11.49s7.955 4.42 10.607 8.84l5.303 8.84s-3.223 1.767-8.214 3.48c-3.59 1.876-7.696.055-9.464-1.713z" transform="matrix(.16 .022 .003 -.119 258.866 126.07)" stroke="#000" stroke-width="1pt" fill="#fff133"/><g transform="matrix(.13 0 0 .108 351.35 305.645)"><g transform="rotate(45 478.12 -504.573)"><ellipse fill="#c0c0c0" transform="translate(124.01 283.46)" cx="354.33" rx="35.433" cy="-1428" ry="35.433" stroke="#000"/><path d="M460.63-1126.77v53.15h35.432v-53.15c0-17.717-35.432-17.717-35.432 0z" stroke="#000" fill="#fff133"/><path d="M442.91-1066.09h70.866c9.757-9.756 9.757-26.095 0-35.433-25.99-10.607-44.874-9.48-70.866 0-8.307 9.338-9.422 24.826 0 35.433z" stroke="#000" fill="#c0c0c0"/><path d="M442.91-1073.62v53.15h70.866v-53.15c-17.717-10.607-53.15-10.607-70.866 0z" stroke="#000" fill="#fff133"/><path d="M442.91-1012.94h70.866c9.757-9.756 9.757-26.095 0-35.433-25.99-10.607-44.874-9.48-70.866 0-8.307 9.338-9.422 24.826 0 35.433z" stroke="#000" fill="#c0c0c0"/><path fill="#fff133" d="M442.91-116.93h70.866V131.1H442.91z"/><path d="M442.91-1020.476l.006 484.79h70.867l-.007-484.79c-17.717-10.607-53.15-10.607-70.866 0z" stroke="#000" fill="#fff133"/><path d="M442.92-506.698h70.866c9.757-9.756 9.757-26.095 0-35.433-25.99-10.61-44.874-9.48-70.866 0-8.307 9.336-9.422 24.824 0 35.43z" stroke="#000" fill="#c0c0c0"/><path d="M442.92-506.7v318.9h70.866v-318.9c-17.717-10.607-53.15-10.607-70.866 0zm-17.73 177.17h106.3c9.757-9.756 9.757-26.095 0-35.433 0 0-17.716-17.716-53.15-17.716s-53.15 17.718-53.15 17.718c-7.12 9.338-6.283 24 0 35.433zm0 0l17.717 88.583h70.866l17.716-88.583c.272-3.727-17.718-17.716-53.15-17.716s-51.93 17.34-53.15 17.716z" stroke="#000" fill="#fff133"/><path d="M336.61-506.69c0-35.433 0-86.653 17.717-129.98 17.716 43.326 17.716 94.546 17.716 129.98H336.61z" transform="matrix(1 0 0 .818 124.01 173.44)" stroke="#000" fill="#fff133"/><path d="M318.9-506.69h17.716v-43.326c0-43.327-35.433-64.99-35.433-64.99l17.717 108.32z" transform="matrix(-1 0 0 .818 832.67 173.44)" stroke="#000" fill="#fff133"/><path d="M318.9-506.69h17.716v-43.326c0-43.327-35.433-64.99-35.433-64.99l17.717 108.32z" transform="matrix(1 0 0 .818 124.01 173.44)" stroke="#000" fill="#fff133"/><path d="M478.34-116.93c17.716 88.582 17.716 159.45 17.716 177.16.03 33.655-17.716 53.15-17.716 53.15s-17.717-17.717-17.717-53.15c0-17.716 0-88.583 17.717-177.16zm-35.433-124.02c0 124.02-35.433 230.32-35.433 318.9 0 70.866 51.654 73.453 70.118 72.16 18.464-1.294 72.3-1.19 71.614-72.16 0-88.583-35.433-194.88-35.433-318.9-17.717-17.716-53.15-17.716-70.866 0z" stroke="#000" fill="#fff133"/><path d="M442.91-1020.476v53.15c0 35.433 17.716 177.16 17.716 177.16s-17.71 148.17-17.71 183.61v53.15c0-35.433 35.427-219.04 35.427-219.04s35.44 165.89 35.44 219.04v-53.15c0-35.433-17.717-183.61-17.724-183.61.005 0 17.715-124.02 17.715-159.45v-70.867c0 35.433-35.426 212.6-35.426 212.6s-35.44-177.17-35.44-212.6z" stroke="#000" fill="#c0c0c0"/></g><path stroke="#000" stroke-width="NaN" fill="#fff133" d="M-39.36-73.188l28.645-32.59L88.55-9.58 59.907 23.01z"/><path d="M336.61 166.54c0 14.67 35.433 35.434 35.433-17.716H336.61v17.716zM242.1 24.803c-147.06 0-113.13 164.24-100.37 124.02 9.36-29.503 35.433-70.866 64.935-80.225 40.225-12.76 26.696 9.36 41.364 9.36 14.67 0 1.14-22.12 41.362-9.36 29.503 9.36 55.577 50.722 64.936 80.225 12.76 40.224 53.148-124.02-112.23-124.02zM389.76 166.54c0 78.237-63.496 141.73-141.73 141.73-78.236 0-141.73-63.496-141.73-141.73v-17.716c0-29.116 35.433 124.02 141.73 124.02s141.73-124.77 141.73-124.02v17.716z" transform="matrix(1.899 0 0 1.887 -662.45 -102.64)" stroke="#000" stroke-width="1pt" fill="#fff133"/><ellipse fill="#c0c0c0" transform="matrix(1.293 -1.382 1.391 1.284 -753.9 -120.02)" cx="82.112" rx="18.433" cy="160.86" ry="20.109" stroke="#000" stroke-width="1pt"/><path stroke="#000" stroke-width="NaN" fill="#c0c0c0" d="M-70.73-47.266l31.52-35.755L70.026 22.52l-31.52 35.756z"/><path d="M336.61 166.54c0 14.67 35.433 35.434 35.433-17.716H336.61v17.716z" transform="matrix(-1.899 0 0 1.887 279.67 -100.51)" stroke="#000" stroke-width="1pt" fill="#fff133"/><path d="M389.76 148.82c0 78.236-63.496 141.73-141.73 141.73-78.236 0-141.73-63.496-141.73-141.73 0-78.236 63.496-141.73 141.73-141.73 78.237 0 141.73 63.496 141.73 141.73zm-53.15 0c0 14.67 22.812 3.042 9.36 43.04-9.36 27.826-27.076 45.543-56.58 54.902-40.224 12.76-26.693-9.36-41.363-9.36-14.668 0-1.14 22.12-41.364 9.36-29.502-9.36-47.218-27.076-56.577-56.578-12.76-40.224 9.36-26.695 9.36-41.364 0-14.67-22.12-1.14-9.36-41.364 9.36-29.502 27.075-47.22 56.577-56.578 40.225-12.76 26.696 9.36 41.364 9.36 14.67 0 1.14-22.12 41.364-9.36 29.505 9.36 47.22 27.075 56.58 56.578 12.76 40.224-9.36 26.694-9.36 41.364z" transform="matrix(1.899 0 0 1.887 -662.45 -102.64)" stroke="#000" stroke-width="1pt" fill="#fff133"/><path d="M126.55 157.68c-20.248 0-1.93 67.6-9.104 51.705s-11.144-33.368-11.144-51.705 3.97-35.81 11.144-51.705c7.175-15.894-11.144 51.705 9.104 51.705z" transform="matrix(1.662 0 0 1.761 -603.57 -99.519)" stroke="#000" stroke-width="1pt" fill="#fff133"/><path d="M372.05 139.96c0 15.892-2.13 31.632-9.75 44.81-7.966 13.776 9.75-44.81-7.966-44.81 17.716 0 1.687-58.587 7.965-44.81 6.277 13.775 9.75 28.918 9.75 44.81z" transform="matrix(1.899 0 0 2.032 -662.45 -106.24)" stroke="#000" stroke-width="1pt" fill="#fff133"/><path d="M296.29 263.08c-14.836 6.28-31.144 9.75-48.258 9.75s-33.422-3.47-48.257-9.75c-14.835-6.278 48.257 9.75 48.257-7.966 0 17.717 63.093 1.688 48.258 7.966zM248.03 42.52c0-17.716-63.092-1.688-48.257-7.966s31.143-9.75 48.257-9.75 33.422 3.472 48.258 9.75c14.835 6.278-48.258-9.75-48.258 7.966z" transform="matrix(1.899 0 0 1.887 -662.45 -102.64)" stroke="#000" stroke-width="1pt" fill="#fff133"/><path d="M-347.75-39.552c-14.555 10.32-28.28 22.247-40.925 35.76s-23.616 27.986-32.913 43.16l-11.54-6.965c9.765-15.933 21.284-31.13 34.563-45.323s27.695-26.72 42.98-37.555l7.834 10.923z" stroke="#000" stroke-width="NaN" fill="#c0c0c0"/><path d="M38.207 317.015c-9.296 15.173-20.267 29.642-32.912 43.157s-26.37 25.442-40.925 35.762l7.837 10.922c15.284-10.84 29.7-23.362 42.978-37.555s24.802-29.39 34.563-45.323l-11.54-6.962zm255.88 9.686c-9.297 15.174-24.817 29.094-37.462 42.61-12.642 13.51-28.568 23.296-43.12 33.62l-2.93-25.42c15.286-10.84 29.7-23.363 42.98-37.557s24.802-29.39 34.563-45.323l5.97 32.07z" stroke="#000" stroke-width="NaN" fill="#c0c0c0"/><path d="M-331.015 407.48c-15.272-9.232-29.837-20.126-43.44-32.682s-25.607-26.188-35.993-40.642l-10.997 7.787c10.908 15.178 23.512 29.494 37.798 42.68s29.582 24.63 45.62 34.32l7.012-11.464z" stroke="#000" stroke-width="NaN" fill="#c0c0c0"/><ellipse fill="#c0c0c0" transform="matrix(1.293 -1.382 1.391 1.284 -285.47 314.38)" cx="82.112" rx="18.433" cy="160.86" ry="20.109" stroke="#000" stroke-width="1pt"/><path d="M-338.683 417.397c-15.273-9.23-27.59-17.887-41.19-30.443s-31.23-30.66-41.62-45.112l-3.12 30.136c10.904 15.18 23.508 29.494 37.794 42.68s29.585 24.626 45.623 34.32l2.512-31.585z" stroke="#000" stroke-width="NaN" fill="#c0c0c0"/><path d="M173.94 271.77l-.838 14.842-3.24 4.493.977-15.087 3.1-4.248zm156.6-6.17l3.562 4.19 1.047 13.615-2.935-2.933-1.676-14.872z" transform="matrix(1.899 0 0 1.887 -662.45 -102.64)" stroke="#000" stroke-width="1pt" fill="#c0c0c0"/><ellipse fill="#c0c0c0" transform="matrix(1.293 -1.382 1.391 1.284 -733.89 329.88)" cx="82.112" rx="18.433" cy="160.86" ry="20.109" stroke="#000" stroke-width="1pt"/><path d="M834.18-843.274l40.654 39.753-40.653 39.75 20.327 19.877 40.654-39.753 81.305 79.505-40.653 39.752 20.33 19.876 40.65-39.753 40.653 39.752-121.958 119.257-81.304-79.505 40.654-39.754 20.326 19.876 20.325-19.877-81.304-79.506-20.325 19.877 20.325 19.875-40.65 39.752-40.654-39.753 20.327-19.876-20.326-19.876-81.303 79.505 20.325 19.874 20.326-19.875 40.653 39.752-40.65 39.75-20.326-19.874-20.328 19.875 81.304 79.505 20.328-19.876-20.328-19.878 40.653-39.75 81.304 79.504L752.88-366.252l-40.654-39.754 40.653-39.75-20.327-19.876-40.653 39.75-81.304-79.504 40.653-39.753-20.33-19.876-40.65 39.754-40.653-39.754L834.19-843.283zM712.234-406.002v39.752l101.63 99.38v-79.503L793.54-366.25h-40.654l-40.652-39.752zm-101.64-98.562l80.75 78.96.96 39.48-81.71-79.9v-38.54zm81.31 118.442l40.652-39.752v-39.753l-40.652 39.753v39.752zm-101.63-99.38l40.65-39.753v-39.753l-40.65 39.753v39.752zm40.65-79.508v39.753l20.328-19.877-20.327-19.875zm101.632 99.382v39.752l20.327-19.877-20.327-19.875zM549.213-565.01l41.058 39.754v39.752l-41.056-40.965v-38.54zm244.322-39.748l40.652-39.752v-39.753l-40.652 39.753v39.752zM712.23-525.26l40.653-39.752v-39.753l-40.652 39.753v39.752zm-20.33-99.378l60.98-59.63v-39.75l-81.305 79.503 20.326 19.877zm60.983-99.378v39.752l20.327-19.877-20.327-19.877zm40.652 119.258l-40.652-39.752v-39.753l40.652 39.753v39.752zm101.628-19.88l-60.98-59.63v-39.75l81.305 79.503-20.325 19.877zm-60.983 19.874l81.305 79.505h40.652l20.327 19.877v79.506l-142.288-139.53v-39.357zm-81.297 238.522L874.84-485.5h40.653L793.535-366.242h-40.652zm60.98 19.87L935.82-465.63l-20.33-19.87-121.958 119.258 20.33 19.87zm0 0v79.503L935.82-386.125v-79.504L813.862-346.374zM915.49-525.25l121.958-119.257h40.652L956.142-525.25H915.49zm60.98 19.87l121.957-119.258-20.33-19.87-121.958 119.26 20.33 19.868zm0 0v79.504l121.957-119.258v-79.504L976.47-505.38zm-20.32-139.127l20.327-19.877v-39.752l-40.653 39.752 20.326 19.877zm-101.628-99.378l20.327-19.877v-39.752l-40.655 39.752 20.326 19.877zM752.886-485.5v-39.752l20.327 19.875-20.327 19.877zm-40.656-39.76l-40.65-39.752 20.325-19.877 20.326 19.88v39.75zm121.962-159.007l-20.326-19.877 20.326-19.875v39.754z" stroke="#000" fill="#fff133"/></g><path d="M380.964 287.24c-.456-.287-1.02-.124-1.125.325s.24 1.185.7 1.47l2.51 1.576c.454.288 1.017.125 1.123-.324.11-.47-.244-1.185-.7-1.47l-2.51-1.576zm-.008-1.838c-.46-.272-1.022-.09-1.123.36s.257 1.178.717 1.45l2.53 1.495c.46.27 1.02.09 1.122-.362.106-.473-.257-1.177-.717-1.448l-2.53-1.495zm.048-2.006c-.456-.286-1.02-.123-1.125.326s.24 1.185.7 1.47l2.51 1.576c.454.286 1.017.123 1.123-.326.11-.47-.244-1.185-.7-1.47l-2.51-1.576zm-.01-1.838c-.46-.272-1.02-.09-1.122.36s.257 1.178.717 1.45l2.53 1.495c.46.27 1.02.09 1.12-.362.106-.47-.257-1.175-.717-1.446l-2.53-1.495zm-.11 13.37c-.455-.287-1.02-.124-1.124.325s.243 1.185.7 1.47l2.51 1.576c.456.284 1.02.12 1.125-.328.11-.47-.244-1.185-.7-1.47l-2.51-1.576zm-.007-1.838c-.46-.273-1.022-.092-1.123.36s.257 1.177.717 1.45l2.53 1.494c.46.27 1.023.09 1.124-.362.106-.473-.257-1.177-.717-1.448l-2.53-1.495zm.048-2.007c-.456-.286-1.02-.123-1.125.326s.243 1.183.7 1.47l2.51 1.574c.456.286 1.02.123 1.125-.326.11-.47-.244-1.186-.7-1.472l-2.51-1.575zm-.01-1.838c-.46-.272-1.02-.09-1.122.36s.257 1.178.717 1.45l2.53 1.495c.46.27 1.02.09 1.122-.362.106-.473-.257-1.177-.717-1.448l-2.53-1.495zm.208-17.38c-.456-.286-1.02-.123-1.125.326s.243 1.187.7 1.473l2.51 1.575c.456.286 1.02.123 1.125-.326.11-.47-.244-1.184-.7-1.47l-2.51-1.575zm-.008-1.835c-.46-.273-1.022-.092-1.123.36s.257 1.177.717 1.45l2.53 1.494c.46.27 1.02.09 1.12-.362.106-.473-.257-1.177-.717-1.448l-2.53-1.495zm.048-2.008c-.456-.286-1.02-.123-1.125.326s.243 1.185.7 1.47l2.51 1.576c.456.286 1.02.123 1.125-.326.11-.47-.244-1.185-.7-1.47l-2.51-1.576zm-.01-1.838c-.46-.272-1.02-.09-1.122.36s.26 1.178.72 1.45l2.53 1.495c.46.27 1.02.09 1.12-.364.107-.473-.256-1.177-.716-1.448l-2.53-1.496zm-.11 13.37c-.455-.287-1.02-.124-1.124.325s.24 1.183.7 1.47l2.51 1.574c.454.286 1.017.123 1.123-.326.11-.47-.244-1.186-.7-1.472l-2.51-1.575zm-.008-1.84c-.46-.272-1.022-.09-1.123.36s.257 1.178.717 1.45l2.53 1.495c.46.27 1.02.09 1.12-.364.106-.473-.257-1.177-.717-1.448l-2.53-1.496zm.048-2.004c-.456-.287-1.02-.124-1.125.325s.243 1.185.7 1.47l2.51 1.576c.456.288 1.02.125 1.125-.324.11-.47-.244-1.185-.7-1.47l-2.51-1.576zm-.008-1.84c-.46-.27-1.022-.09-1.123.362s.257 1.177.717 1.45l2.53 1.494c.46.27 1.02.09 1.12-.362.106-.473-.257-1.177-.717-1.448l-2.53-1.495zm-.428 44.117c-.456-.286-1.02-.123-1.125.326s.243 1.185.7 1.47l2.51 1.576c.456.284 1.02.12 1.125-.328.11-.47-.244-1.185-.7-1.47l-2.51-1.576zm-.01-1.837c-.46-.273-1.02-.092-1.122.36s.257 1.177.717 1.45l2.53 1.494c.46.27 1.02.09 1.122-.362.106-.473-.257-1.177-.717-1.448l-2.53-1.495zm.05-2.006c-.457-.286-1.02-.123-1.126.326s.245 1.185.7 1.47l2.51 1.576c.458.286 1.02.123 1.127-.326.11-.47-.244-1.185-.7-1.47l-2.51-1.576zm-.01-1.838c-.46-.272-1.022-.09-1.123.36s.257 1.178.717 1.45l2.53 1.495c.46.273 1.023.093 1.124-.36.106-.473-.257-1.177-.717-1.45l-2.53-1.493zm-.11 13.368c-.456-.286-1.02-.123-1.125.326s.243 1.185.7 1.47l2.51 1.576c.456.286 1.02.123 1.125-.326.11-.47-.244-1.185-.7-1.47l-2.51-1.576zm-.007-1.838c-.46-.272-1.023-.09-1.124.36s.257 1.178.717 1.45l2.53 1.495c.46.273 1.02.093 1.122-.36.106-.473-.257-1.177-.717-1.45l-2.53-1.493zm.047-2.006c-.456-.285-1.02-.122-1.125.327s.243 1.185.7 1.47l2.51 1.576c.456.286 1.02.123 1.125-.326.11-.47-.244-1.185-.7-1.47l-2.51-1.576zm-.01-1.837c-.46-.272-1.02-.09-1.122.36s.257 1.178.717 1.45l2.53 1.495c.46.27 1.02.09 1.122-.362.106-.473-.257-1.177-.717-1.448l-2.53-1.495zm.208-17.38c-.456-.286-1.02-.123-1.125.326s.243 1.183.7 1.47l2.51 1.574c.456.286 1.02.123 1.125-.326.11-.47-.244-1.186-.7-1.472l-2.51-1.575zm-.008-1.838c-.46-.272-1.022-.09-1.123.36s.257 1.178.717 1.45l2.53 1.495c.46.27 1.023.09 1.124-.362.106-.473-.257-1.177-.717-1.448l-2.53-1.495zm.048-2.005c-.456-.286-1.02-.123-1.125.326s.243 1.185.7 1.47l2.51 1.576c.456.286 1.02.123 1.125-.326.11-.47-.244-1.185-.7-1.47l-2.51-1.576zm-.008-1.838c-.46-.272-1.022-.09-1.123.36s.257 1.178.717 1.45l2.53 1.495c.46.27 1.023.09 1.124-.362.106-.473-.257-1.177-.717-1.448l-2.53-1.495zm-.11 13.368c-.457-.286-1.02-.123-1.126.326s.245 1.185.7 1.47l2.51 1.576c.458.286 1.02.123 1.127-.326.11-.47-.244-1.185-.7-1.47l-2.51-1.576zm-.01-1.838c-.46-.272-1.022-.09-1.123.36s.257 1.178.717 1.45l2.53 1.495c.46.27 1.023.09 1.124-.362.106-.473-.257-1.177-.717-1.448l-2.53-1.495zm.05-2.005c-.457-.286-1.02-.123-1.126.326s.245 1.185.7 1.47l2.51 1.576c.458.284 1.02.12 1.127-.328.11-.47-.244-1.185-.7-1.47l-2.51-1.576zm-.01-1.837c-.46-.273-1.022-.092-1.123.36s.257 1.177.717 1.45l2.53 1.494c.46.27 1.023.09 1.124-.362.106-.473-.257-1.177-.717-1.448l-2.53-1.495zm-.427 44.115c-.457-.286-1.02-.123-1.126.326s.243 1.187.7 1.473l2.51 1.575c.456.286 1.02.123 1.125-.326.11-.47-.246-1.184-.7-1.47l-2.51-1.575zm-.01-1.838c-.46-.272-1.022-.09-1.123.36s.257 1.178.717 1.45l2.53 1.495c.46.27 1.02.09 1.122-.362.106-.473-.257-1.177-.717-1.448l-2.53-1.495zm.05-2.005c-.457-.286-1.02-.123-1.126.326s.243 1.185.7 1.47l2.51 1.576c.456.286 1.02.123 1.125-.326.11-.47-.246-1.185-.7-1.47l-2.51-1.576zm-.01-1.84c-.46-.27-1.022-.09-1.123.36s.257 1.18.717 1.45l2.53 1.496c.46.27 1.02.09 1.122-.362.106-.473-.257-1.177-.717-1.448l-2.53-1.495zm-.12 11.532c-.46-.272-1.02-.09-1.122.36s.257 1.178.717 1.45l2.53 1.495c.46.27 1.02.09 1.122-.364.106-.473-.257-1.177-.717-1.448l-2.53-1.496zm.05-2.006c-.457-.286-1.02-.123-1.126.326s.243 1.185.7 1.47l2.51 1.576c.456.286 1.02.123 1.125-.326.11-.47-.246-1.185-.7-1.47l-2.51-1.576zm-.01-1.838c-.46-.27-1.02-.09-1.122.362s.257 1.177.717 1.45l2.53 1.494c.46.27 1.02.09 1.122-.362.106-.473-.257-1.177-.717-1.448l-2.53-1.495zm.208-17.38c-.456-.285-1.02-.122-1.125.327s.243 1.185.7 1.47l2.51 1.576c.456.286 1.02.123 1.125-.326.11-.47-.244-1.185-.7-1.47l-2.51-1.576zm-.008-1.837c-.46-.272-1.023-.09-1.124.36s.257 1.178.717 1.45l2.53 1.495c.46.27 1.02.09 1.122-.362.106-.473-.257-1.177-.717-1.448l-2.53-1.495zm.047-2.005c-.456-.286-1.02-.123-1.125.326s.243 1.185.7 1.47l2.51 1.576c.456.286 1.02.123 1.125-.326.11-.47-.244-1.185-.7-1.47l-2.51-1.576zm-.007-1.838c-.46-.273-1.023-.092-1.124.36s.257 1.177.717 1.45l2.53 1.494c.46.27 1.02.09 1.122-.362.106-.473-.257-1.177-.717-1.448l-2.53-1.495zm-.11 13.37c-.457-.287-1.02-.124-1.126.325s.243 1.185.7 1.47l2.51 1.576c.456.288 1.02.125 1.125-.324.11-.47-.246-1.185-.7-1.47l-2.51-1.576zm-.01-1.84c-.46-.272-1.022-.09-1.123.36s.257 1.178.717 1.45l2.53 1.495c.46.27 1.02.09 1.122-.362.106-.473-.257-1.177-.717-1.448l-2.53-1.495zm.048-2.006c-.456-.286-1.02-.123-1.125.326s.243 1.185.7 1.47l2.51 1.576c.456.286 1.02.123 1.125-.326.11-.47-.244-1.185-.7-1.47l-2.51-1.576zm-.008-1.837c-.46-.272-1.023-.09-1.124.36s.257 1.178.717 1.45l2.53 1.495c.46.27 1.02.09 1.122-.362.106-.473-.257-1.177-.717-1.448l-2.53-1.495zm-.31 32.683c-.457-.286-1.02-.123-1.126.326s.243 1.185.7 1.47l2.51 1.576c.456.286 1.02.123 1.125-.326.11-.47-.246-1.185-.7-1.47l-2.51-1.576zm-.01-1.838c-.46-.272-1.02-.09-1.122.36s.257 1.178.717 1.45l2.53 1.495c.46.27 1.02.09 1.122-.362.106-.473-.257-1.177-.717-1.448l-2.53-1.495zm.05-2.005c-.457-.286-1.02-.123-1.126.326s.243 1.185.7 1.47l2.51 1.576c.456.284 1.02.12 1.125-.328.11-.47-.246-1.185-.7-1.47l-2.51-1.576zm-.01-1.837c-.46-.273-1.022-.092-1.123.36s.257 1.177.717 1.45l2.53 1.494c.46.27 1.02.09 1.122-.362.106-.473-.257-1.177-.717-1.448l-2.53-1.495zm-.12 11.53c-.46-.273-1.02-.092-1.122.36s.257 1.177.717 1.45l2.53 1.494c.46.27 1.02.09 1.122-.362.106-.473-.257-1.177-.717-1.448l-2.53-1.495zm.05-2.007c-.457-.286-1.02-.123-1.126.326s.243 1.183.7 1.47l2.51 1.574c.456.286 1.02.123 1.125-.326.11-.47-.246-1.186-.7-1.472l-2.51-1.575zm-.01-1.837c-.46-.272-1.02-.09-1.122.36s.257 1.178.717 1.45l2.53 1.495c.46.273 1.02.093 1.122-.36.106-.473-.257-1.177-.717-1.45l-2.53-1.493zm.13-9.693c-.457-.286-1.02-.123-1.126.326s.243 1.183.7 1.47l2.51 1.574c.456.286 1.02.123 1.125-.326.11-.47-.246-1.186-.7-1.472l-2.51-1.575zm-.01-1.837c-.46-.272-1.022-.09-1.123.36s.257 1.178.717 1.45l2.53 1.495c.46.273 1.02.093 1.122-.36.106-.473-.257-1.177-.717-1.45l-2.53-1.493zm.05-2.006c-.457-.286-1.02-.123-1.126.326s.243 1.185.7 1.47l2.51 1.576c.456.286 1.02.123 1.125-.326.11-.47-.246-1.185-.7-1.47l-2.51-1.576zM383.55 287.455c-.46-.282-1.022-.114-1.122.336s.26 1.184.72 1.466l2.534 1.552c.46.282 1.02.114 1.12-.336.106-.47-.26-1.18-.72-1.463l-2.533-1.553zm-.037-1.845c-.464-.266-1.022-.08-1.118.373s.273 1.175.737 1.442l2.55 1.47c.462.266 1.02.08 1.116-.373.1-.474-.273-1.175-.736-1.442l-2.55-1.47zm.024-1.998c-.46-.282-1.02-.114-1.12.336s.26 1.182.72 1.464l2.533 1.552c.46.282 1.02.114 1.12-.336.106-.47-.26-1.182-.72-1.464l-2.533-1.552zm-.037-1.845c-.463-.267-1.02-.08-1.117.372s.273 1.173.737 1.44l2.55 1.47c.462.266 1.02.08 1.116-.373.1-.474-.273-1.175-.736-1.442l-2.55-1.47zm.073 13.375c-.46-.282-1.02-.114-1.12.336s.26 1.182.72 1.464l2.533 1.552c.46.282 1.02.114 1.12-.336.106-.47-.26-1.182-.72-1.464l-2.533-1.552zm-.035-1.844c-.464-.267-1.022-.08-1.118.372s.273 1.175.737 1.442l2.55 1.47c.462.266 1.02.08 1.116-.373.1-.476-.273-1.177-.736-1.444l-2.55-1.47zm.022-1.998c-.46-.283-1.02-.115-1.12.335s.26 1.182.72 1.464l2.534 1.55c.46.282 1.02.114 1.12-.336.106-.47-.26-1.182-.72-1.464l-2.533-1.55zm-.035-1.846c-.464-.267-1.022-.08-1.118.372s.273 1.175.737 1.442l2.55 1.47c.462.266 1.02.08 1.116-.373.1-.474-.273-1.175-.736-1.442l-2.55-1.47zm-.025-17.374c-.46-.28-1.02-.113-1.12.337s.26 1.182.72 1.464l2.534 1.554c.46.282 1.02.114 1.12-.336.106-.47-.26-1.182-.72-1.464l-2.533-1.552zm-.035-1.843c-.464-.267-1.022-.08-1.118.372s.273 1.173.737 1.44l2.55 1.47c.462.266 1.02.08 1.116-.373.1-.474-.273-1.175-.736-1.442l-2.55-1.47zm.023-2c-.46-.282-1.02-.114-1.12.336s.26 1.182.72 1.464l2.533 1.552c.46.28 1.023.112 1.123-.338.105-.47-.26-1.182-.72-1.464l-2.534-1.553zm-.035-1.844c-.464-.267-1.022-.08-1.118.372s.273 1.175.737 1.442l2.55 1.47c.462.266 1.02.08 1.116-.373.1-.474-.273-1.175-.736-1.442l-2.55-1.47zm.072 13.375c-.46-.282-1.02-.114-1.12.336s.26 1.182.72 1.464l2.533 1.552c.46.282 1.02.114 1.12-.336.106-.47-.26-1.182-.72-1.464l-2.533-1.552zm-.035-1.844c-.465-.267-1.023-.08-1.12.372s.274 1.175.738 1.442l2.55 1.47c.462.266 1.02.08 1.116-.373.1-.474-.273-1.175-.736-1.442l-2.55-1.47zm.023-2c-.46-.282-1.02-.114-1.12.336s.26 1.182.72 1.464l2.533 1.552c.46.282 1.02.114 1.12-.336.106-.47-.26-1.182-.72-1.464l-2.533-1.552zm-.036-1.844c-.464-.267-1.022-.08-1.118.372s.27 1.175.735 1.442l2.55 1.47c.462.266 1.02.08 1.116-.373.1-.472-.272-1.173-.735-1.44l-2.55-1.47zm.17 44.124c-.46-.282-1.02-.114-1.12.336s.26 1.182.72 1.464l2.532 1.552c.46.282 1.02.114 1.12-.336.104-.47-.26-1.182-.72-1.464l-2.535-1.552zm-.037-1.844c-.463-.267-1.02-.08-1.117.372s.273 1.175.737 1.442l2.55 1.47c.462.266 1.02.08 1.116-.373.1-.472-.273-1.173-.736-1.44l-2.55-1.47zm.024-2c-.46-.282-1.02-.114-1.12.336s.26 1.182.72 1.464l2.533 1.552c.46.282 1.02.114 1.12-.336.106-.47-.26-1.182-.72-1.464l-2.533-1.552zm-.036-1.844c-.464-.267-1.022-.08-1.118.372s.273 1.175.737 1.442l2.55 1.47c.462.266 1.02.08 1.116-.373.1-.474-.273-1.175-.736-1.442l-2.55-1.47zm.072 13.374c-.46-.28-1.02-.113-1.12.337s.26 1.182.72 1.464l2.533 1.554c.46.282 1.02.114 1.12-.336.106-.47-.26-1.182-.72-1.464l-2.533-1.552zm-.036-1.842c-.464-.267-1.022-.08-1.118.372s.273 1.175.737 1.442l2.55 1.47c.462.266 1.02.08 1.116-.373.1-.476-.275-1.177-.738-1.444l-2.55-1.47zm.023-2c-.46-.282-1.02-.114-1.12.336s.26 1.182.72 1.464l2.533 1.552c.46.282 1.02.114 1.12-.336.106-.47-.26-1.182-.72-1.464l-2.533-1.552zm-.035-1.844c-.464-.267-1.022-.08-1.118.372s.273 1.175.737 1.442l2.55 1.47c.464.266 1.023.08 1.118-.373.1-.474-.273-1.175-.736-1.442l-2.548-1.47zm-.025-17.374c-.46-.282-1.02-.114-1.12.336s.26 1.182.72 1.464l2.533 1.552c.46.282 1.02.114 1.12-.336.106-.47-.26-1.182-.72-1.464l-2.533-1.552zm-.037-1.845c-.463-.267-1.02-.08-1.117.372s.273 1.175.737 1.442l2.55 1.467c.462.267 1.02.08 1.116-.372.1-.474-.273-1.175-.736-1.442l-2.55-1.47zm.025-2c-.46-.28-1.02-.113-1.12.337s.26 1.182.72 1.464l2.533 1.552c.46.282 1.02.114 1.12-.336.106-.47-.26-1.182-.72-1.464l-2.533-1.552zm-.035-1.843c-.464-.267-1.022-.08-1.118.372s.273 1.175.737 1.442l2.547 1.47c.463.266 1.022.08 1.117-.373.1-.474-.273-1.175-.736-1.442l-2.55-1.467zm.072 13.375c-.46-.282-1.02-.114-1.12.336s.26 1.182.72 1.464l2.533 1.552c.46.28 1.02.112 1.12-.338.106-.47-.26-1.182-.72-1.464l-2.533-1.553zm-.036-1.844c-.464-.267-1.022-.08-1.118.372s.273 1.175.737 1.442l2.55 1.47c.462.266 1.02.08 1.116-.373.1-.474-.27-1.175-.734-1.442l-2.55-1.47zm.024-2c-.46-.282-1.022-.114-1.122.336s.26 1.18.72 1.462l2.534 1.552c.46.282 1.02.114 1.12-.336.106-.472-.26-1.183-.72-1.465l-2.533-1.552zm-.036-1.843c-.464-.268-1.022-.082-1.118.37s.273 1.176.737 1.443l2.55 1.47c.462.266 1.02.08 1.116-.373.1-.474-.275-1.175-.738-1.442l-2.55-1.47zm.168 44.122c-.46-.282-1.02-.114-1.12.336s.26 1.182.72 1.464l2.533 1.552c.46.282 1.02.114 1.12-.336.106-.47-.26-1.182-.72-1.464l-2.533-1.552zm-.035-1.842c-.464-.268-1.022-.082-1.118.37s.27 1.176.735 1.443l2.55 1.47c.462.266 1.02.08 1.116-.373.1-.474-.272-1.175-.735-1.442l-2.55-1.47zm.023-2c-.46-.283-1.02-.115-1.12.335s.26 1.182.72 1.464l2.533 1.55c.46.282 1.02.114 1.12-.336.106-.47-.26-1.182-.72-1.464l-2.533-1.55zm-.035-1.845c-.464-.267-1.022-.08-1.118.372s.273 1.175.737 1.442l2.55 1.467c.462.267 1.02.08 1.116-.372.1-.474-.273-1.175-.736-1.442l-2.55-1.47zm.035 11.53c-.463-.266-1.02-.08-1.117.373s.273 1.175.737 1.442l2.55 1.47c.462.266 1.02.08 1.116-.373.1-.474-.273-1.175-.736-1.442l-2.55-1.47zm.025-2c-.46-.28-1.02-.113-1.12.337s.26 1.182.72 1.464l2.533 1.552c.46.282 1.02.114 1.12-.336.106-.47-.26-1.182-.72-1.464l-2.533-1.552zm-.035-1.843c-.465-.267-1.023-.08-1.12.372s.274 1.175.738 1.442l2.55 1.47c.462.266 1.02.08 1.116-.373.1-.474-.273-1.175-.736-1.442l-2.55-1.467zm-.026-17.372c-.46-.283-1.02-.115-1.12.335s.26 1.182.72 1.464l2.533 1.55c.46.282 1.02.114 1.12-.336.106-.47-.26-1.182-.72-1.464l-2.533-1.55zm-.034-1.846c-.465-.267-1.023-.08-1.12.372s.274 1.175.738 1.442l2.55 1.47c.462.266 1.02.08 1.116-.373.1-.474-.273-1.175-.736-1.442l-2.55-1.47zm.022-2c-.46-.28-1.02-.113-1.12.337s.26 1.184.72 1.466l2.533 1.552c.46.282 1.02.114 1.12-.336.106-.47-.26-1.18-.72-1.463l-2.533-1.553zm-.036-1.844c-.464-.266-1.022-.08-1.118.373s.273 1.175.737 1.442l2.55 1.47c.462.266 1.02.08 1.116-.373.1-.474-.27-1.175-.734-1.442l-2.55-1.47zm.072 13.376c-.46-.282-1.02-.114-1.12.336s.26 1.182.72 1.464l2.533 1.552c.46.282 1.023.114 1.123-.336.105-.47-.26-1.182-.72-1.464l-2.534-1.552zm-.035-1.844c-.464-.267-1.022-.08-1.118.372s.273 1.175.737 1.442l2.55 1.47c.462.266 1.02.08 1.116-.373.1-.474-.273-1.175-.736-1.442l-2.55-1.467zm.024-2c-.46-.282-1.02-.114-1.12.336s.26 1.182.72 1.464l2.533 1.552c.46.282 1.02.114 1.12-.336.106-.47-.26-1.182-.72-1.464l-2.533-1.552zm-.037-1.844c-.463-.267-1.02-.08-1.117.372s.273 1.175.737 1.442l2.55 1.47c.462.266 1.02.08 1.116-.373.1-.476-.273-1.177-.736-1.444l-2.55-1.47zm.133 32.692c-.46-.283-1.02-.115-1.12.335s.26 1.182.72 1.464l2.533 1.55c.46.282 1.02.114 1.12-.336.106-.47-.26-1.182-.72-1.464l-2.533-1.55zm-.035-1.846c-.464-.267-1.022-.08-1.118.372s.273 1.175.737 1.442l2.55 1.47c.462.266 1.02.08 1.116-.373.1-.474-.273-1.175-.736-1.442l-2.55-1.47zm.022-1.998c-.46-.282-1.02-.114-1.12.336s.26 1.182.72 1.464l2.534 1.552c.46.282 1.02.114 1.12-.336.106-.47-.26-1.182-.72-1.464l-2.533-1.552zm-.034-1.846c-.464-.266-1.022-.08-1.118.373s.273 1.175.737 1.442l2.55 1.47c.462.266 1.02.08 1.116-.373.1-.474-.27-1.175-.734-1.442l-2.55-1.47zm.034 11.532c-.463-.267-1.02-.08-1.117.372s.273 1.175.737 1.442l2.55 1.47c.462.266 1.02.08 1.116-.373.1-.474-.273-1.175-.736-1.442l-2.55-1.467zm.025-2c-.46-.282-1.02-.114-1.12.336s.26 1.182.72 1.464l2.533 1.552c.46.282 1.02.114 1.12-.336.106-.47-.26-1.182-.72-1.464l-2.533-1.552zm-.035-1.844c-.464-.267-1.022-.08-1.118.372s.273 1.175.737 1.442l2.547 1.47c.463.266 1.022.08 1.117-.373.1-.476-.273-1.177-.736-1.444l-2.55-1.47zm0-9.686c-.46-.282-1.022-.114-1.122.336s.26 1.182.72 1.464l2.534 1.552c.46.282 1.02.114 1.12-.336.106-.47-.26-1.182-.72-1.464l-2.533-1.552zm-.037-1.844c-.464-.267-1.022-.08-1.118.372s.273 1.175.737 1.442l2.55 1.47c.462.266 1.02.08 1.116-.373.1-.476-.273-1.177-.736-1.444l-2.55-1.47zm.024-2c-.46-.282-1.02-.114-1.12.336s.26 1.182.72 1.464l2.533 1.552c.46.282 1.02.114 1.12-.336.106-.47-.26-1.182-.72-1.464l-2.533-1.552z" stroke="#000" stroke-width="20.006" fill="#b00"/><path d="M392.372 274.803c-.574-.144-1.066.167-.984.62s.74 1.05 1.313 1.194l3.16.787c.573.143 1.065-.167.982-.62-.085-.475-.737-1.05-1.31-1.194l-3.158-.787zm.893.497c-.16-.46-.755-.62-1.19-.32s-.712 1.063-.552 1.524l.877 2.533c.16.46.754.62 1.19.32.455-.315.71-1.063.552-1.523l-.877-2.534zm-.24-.31c-.417-.344-1.036-.258-1.236.172s.016 1.203.435 1.546l2.3 1.886c.42.343 1.038.256 1.238-.173.21-.45-.018-1.2-.436-1.544l-2.302-1.886zm-1.432 1.543c.35-.39.13-.856-.438-.935s-1.486.232-1.836.62l-1.923 2.138c-.35.39-.13.856.438.935.594.084 1.486-.23 1.835-.62l1.923-2.136zm2.317-.05c.33-.393.09-.858-.484-.933s-1.475.243-1.806.634l-1.82 2.15c-.33.393-.09.858.482.933.598.077 1.476-.243 1.807-.634l1.82-2.15zm-11.9.13c.367-.378.17-.852-.395-.947s-1.496.186-1.864.564l-2.02 2.08c-.366.378-.17.852.396.947.59.1 1.496-.187 1.863-.565l2.02-2.08zm2.313.012c.35-.38.13-.853-.44-.944s-1.485.2-1.834.58l-1.92 2.1c-.35.38-.13.852.437.943.594.096 1.486-.2 1.835-.58l1.92-2.097zm2.527.075c.368-.38.17-.853-.394-.948s-1.496.186-1.864.564l-2.02 2.08c-.368.378-.17.852.394.947.59.1 1.496-.187 1.863-.565l2.02-2.08zm2.217-.162c.33-.392.09-.857-.483-.932s-1.475.243-1.806.634l-1.82 2.15c-.33.393-.09.858.482.933.598.077 1.476-.243 1.807-.634l1.82-2.153zm-10.167-.74c.367-.378.17-.852-.395-.947s-1.496.188-1.864.566l-2.02 2.08c-.366.378-.17.852.396.947.59.1 1.496-.187 1.863-.565l2.02-2.08zm1.113.748c.403-.345.256-.835-.295-.98s-1.506.06-1.91.405l-2.217 1.904c-.4.346-.253.835.298.98.576.15 1.505-.06 1.908-.405l2.218-1.903zm-2.773-.468c.534-.222.605-.717.142-.99s-1.457-.327-1.99-.106l-2.93 1.218c-.534.22-.605.717-.142.99.483.287 1.457.327 1.99.106l2.93-1.218zM424.057 355.87c.463.28.446.777-.034.997s-1.424.16-1.887-.118l-2.547-1.536c-.465-.28-.448-.777.032-.997.502-.23 1.424-.16 1.887.118l2.546 1.534zm2.1-.54c.448.285.41.788-.075 1.004s-1.42.147-1.866-.14l-2.462-1.572c-.447-.285-.41-.788.076-1.004.507-.227 1.42-.147 1.866.14l2.46 1.57zm2.27-.643c.462.28.445.777-.035.997s-1.424.16-1.887-.118l-2.547-1.534c-.463-.28-.446-.777.034-.997.502-.23 1.424-.16 1.887.118l2.545 1.534zm2.098-.542c.448.286.41.79-.075 1.005s-1.42.147-1.866-.14l-2.462-1.572c-.447-.285-.41-.788.076-1.004.507-.227 1.42-.147 1.866.14l2.46 1.57zm9.2-6.96c.55-.09.975.266.846.713s-.807.986-1.36 1.076l-3.04.497c-.55.09-.974-.265-.845-.712.134-.468.81-.986 1.362-1.076l3.038-.496zm-1.572-3.34c.365-.366.96-.316 1.187.1s.09 1.2-.274 1.567l-2.007 2.02c-.367.366-.96.317-1.188-.1-.24-.435-.092-1.2.273-1.567l2.007-2.02zm2.502 1.49c.556-.105.99.236.868.683s-.8.998-1.357 1.103l-3.06.578c-.556.105-.99-.236-.868-.683.128-.466.8-.998 1.357-1.102l3.06-.577zm-25.235 12.603c.432.31.363.806-.138.99s-1.434.058-1.867-.253l-2.38-1.71c-.432-.312-.364-.808.137-.992.524-.192 1.435-.057 1.868.254l2.38 1.71zm2.148-.388c.416.317.326.815-.18.996s-1.428.044-1.844-.273l-2.29-1.744c-.417-.32-.327-.817.18-.998.528-.19 1.427-.044 1.844.273l2.29 1.744zm2.31-.898c.474.264.48.763.01.997s-1.418.2-1.893-.064l-2.61-1.456c-.476-.263-.48-.762-.01-.996.492-.244 1.416-.203 1.89.062l2.612 1.456zm1.805-.085c.398.333.282.827-.233.988s-1.43-.01-1.828-.343l-2.192-1.83c-.4-.333-.283-.827.233-.988.538-.168 1.43.01 1.827.343l2.193 1.83zm11.11-3.065c.464.28.447.777-.033.997s-1.424.16-1.887-.12l-2.547-1.534c-.463-.28-.446-.777.034-.997.502-.23 1.424-.16 1.887.117l2.547 1.534zm2.1-.542c.45.287.41.79-.074 1.006s-1.42.147-1.868-.14l-2.462-1.572c-.446-.285-.408-.788.077-1.004.507-.227 1.42-.147 1.866.14l2.46 1.57zm-47.297 7.335c.35.378.163.852-.372.947s-1.42-.186-1.768-.564l-1.917-2.08c-.35-.378-.165-.852.37-.947.56-.1 1.42.19 1.77.567l1.915 2.08zm2.2-.012c.33.38.122.853-.417.944s-1.41-.2-1.74-.58l-1.82-2.095c-.333-.38-.125-.853.414-.944.563-.095 1.41.2 1.74.58l1.82 2.095zm2.39-.077c.35.378.163.852-.372.947s-1.42-.186-1.768-.564l-1.917-2.08c-.35-.38-.165-.854.37-.95.56-.1 1.42.188 1.77.566l1.915 2.08zm2.2-.01c.33.38.123.853-.416.944s-1.41-.2-1.74-.58l-1.82-2.095c-.33-.38-.123-.853.416-.944.563-.093 1.41.2 1.74.58l1.82 2.097zm-15.97.274c.35.38.163.853-.372.948s-1.42-.186-1.768-.564l-1.917-2.08c-.35-.378-.165-.852.37-.947.56-.1 1.42.187 1.77.565l1.915 2.08zm2.2-.01c.33.38.122.853-.417.944s-1.41-.2-1.74-.58l-1.82-2.095c-.333-.383-.125-.855.414-.946.563-.095 1.41.2 1.74.58l1.82 2.095zm2.39-.078c.35.378.163.852-.372.947s-1.42-.188-1.768-.566l-1.917-2.08c-.35-.378-.165-.852.37-.947.56-.1 1.42.187 1.77.565l1.915 2.08zm2.2-.01c.33.38.122.853-.417.944s-1.41-.2-1.74-.58l-1.82-2.095c-.333-.38-.125-.85.414-.942.563-.095 1.41.2 1.74.58l1.82 2.095zm20.938-.91c.396.345.272.833-.247.977s-1.435-.058-1.83-.4l-2.177-1.89c-.396-.346-.273-.834.247-.978.543-.15 1.435.056 1.83.4l2.177 1.89zm2.286-.32c.393.338.266.83-.253.983s-1.428-.03-1.82-.37l-2.153-1.86c-.39-.34-.265-.83.254-.984.542-.16 1.428.033 1.82.37l2.153 1.863zm2.356-.354c.41.333.303.823-.21.98s-1.437-.018-1.845-.35l-2.245-1.833c-.41-.333-.303-.823.21-.98.537-.165 1.437.018 1.845.35l2.246 1.833zm2.31-.374c.415.317.325.815-.18.996s-1.43.044-1.845-.273l-2.29-1.744c-.415-.317-.325-.815.18-.996.53-.19 1.43-.044 1.846.273l2.29 1.744zm-16.32 1.703c.35.378.163.852-.372.947s-1.42-.186-1.768-.564l-1.917-2.08c-.35-.378-.165-.852.37-.947.56-.1 1.42.187 1.77.565l1.915 2.08zm2.27-.227c.36.363.188.845-.343.965s-1.422-.123-1.782-.486l-1.976-1.995c-.36-.363-.188-.845.343-.965.555-.124 1.422.124 1.782.487l1.977 1.993zm2.46-.284c.4.342.278.83-.24.976s-1.436-.05-1.834-.392l-2.188-1.883c-.398-.342-.277-.83.242-.976.542-.15 1.435.05 1.833.394l2.186 1.883zm2.088-.048c.352.367.17.847-.363.96s-1.416-.144-1.77-.51l-1.936-2.022c-.352-.367-.17-.847.362-.96.558-.117 1.42.143 1.77.51l1.94 2.022zm-53.05-.198c.262.425-.023.863-.57.877s-1.357-.396-1.62-.82l-1.44-2.333c-.263-.424.022-.862.57-.876.57-.014 1.355.396 1.617.82l1.444 2.333zm2.164.318c.244.424-.062.857-.61.866s-1.345-.406-1.59-.83l-1.342-2.336c-.244-.424.06-.857.61-.866.576-.01 1.345.407 1.59.83l1.342 2.336zm2.562.155c.314.4.084.86-.458.92s-1.397-.278-1.71-.677l-1.718-2.196c-.313-.4-.083-.86.46-.92.565-.064 1.396.278 1.708.677l1.72 2.196zm2.193.127c.294.402.044.86-.502.916s-1.384-.29-1.68-.69l-1.62-2.21c-.295-.4-.044-.858.5-.914.57-.06 1.387.29 1.68.69l1.624 2.21zm-13.825-1.486c.244.424-.062.857-.61.866s-1.345-.406-1.59-.83l-1.342-2.336c-.244-.424.06-.857.61-.866.576-.01 1.345.407 1.59.83l1.342 2.336zm2.37.286c.263.423-.022.86-.57.875s-1.356-.396-1.618-.82l-1.442-2.333c-.262-.424.023-.862.57-.876.57-.014 1.356.396 1.618.82l1.442 2.333zm2.166.316c.244.424-.062.857-.61.866s-1.345-.406-1.59-.83l-1.342-2.336c-.244-.424.06-.857.61-.866.576-.01 1.345.407 1.59.83l1.342 2.336zm20.85 1.387c.313.4.083.86-.46.92s-1.396-.278-1.708-.677l-1.72-2.196c-.312-.4-.082-.86.46-.92.566-.064 1.397.278 1.71.677l1.718 2.196zm2.193.127c.294.4.044.86-.502.915s-1.386-.29-1.68-.69l-1.622-2.21c-.295-.4-.044-.858.5-.914.572-.057 1.387.29 1.682.693l1.622 2.208zm2.61-.03c.35.377.162.85-.373.946s-1.42-.186-1.768-.564l-1.917-2.08c-.35-.378-.165-.852.37-.947.56-.1 1.42.187 1.77.565l1.915 2.08zm2.196-.01c.33.38.123.852-.416.943s-1.41-.2-1.74-.58l-1.82-2.095c-.33-.38-.123-.853.416-.944.563-.095 1.41.2 1.74.58l1.82 2.095zm-16.168-.507c.313.4.083.86-.46.92s-1.396-.278-1.708-.677l-1.72-2.196c-.312-.4-.082-.86.46-.92.566-.064 1.397.278 1.71.677l1.718 2.196zm2.193.127c.294.4.044.86-.502.915s-1.386-.29-1.68-.69l-1.622-2.21c-.295-.4-.044-.858.5-.914.572-.057 1.387.29 1.682.693l1.622 2.208zm2.392.082c.313.4.083.86-.46.92s-1.396-.278-1.708-.677l-1.72-2.196c-.312-.4-.082-.86.46-.92.566-.066 1.397.276 1.71.675l1.718 2.196zm2.193.128c.294.4.044.858-.502.914s-1.384-.29-1.68-.69l-1.62-2.21c-.295-.4-.044-.858.5-.914.57-.06 1.387.29 1.68.69l1.624 2.21zm-35.283-10.69c-.565.072-.97-.295-.81-.733s.884-.95 1.448-1.02l3.103-.396c.566-.07.97.296.81.735-.167.458-.883.948-1.447 1.02l-3.103.396zm.415 2.494c-.448.284-1.016.12-1.136-.33s.207-1.183.655-1.468l2.468-1.566c.448-.285 1.017-.12 1.136.328.124.47-.21 1.184-.658 1.47l-2.468 1.566zm1.207 2.156c-.3.407-.896.426-1.19.04s-.287-1.178.014-1.583l1.657-2.23c.3-.405.896-.424 1.19-.038.307.4.287 1.176-.014 1.58l-1.66 2.23zm1.428 1.378c-.12.46-.68.645-1.12.368s-.76-1.013-.64-1.474l.658-2.533c.12-.463.68-.647 1.12-.37.46.29.76 1.013.64 1.473l-.658 2.534zm.64-10.932c-.56-.03-.862-.466-.6-.872s1.08-.78 1.643-.75l3.09.165c.56.03.862.464.6.87-.27.423-1.08.78-1.643.75l-3.09-.165zm-1.457 1.584c-.57-.017-.886-.44-.632-.845s1.08-.795 1.65-.778l3.135.092c.57.014.886.437.633.842-.265.424-1.078.795-1.648.78l-3.137-.093zm-1.153 1.535c-.56.057-.95-.324-.784-.763s.89-.936 1.45-.993l3.073-.318c.557-.057.95.324.783.763-.174.46-.892.936-1.45.993l-3.074.315zm3.747 9.332c.032.477-.442.78-.948.605s-1.046-.826-1.078-1.303l-.175-2.625c-.032-.477.442-.78.948-.605.53.184 1.044.827 1.076 1.304l.176 2.623zm2.456.64c.14.455-.263.83-.804.747s-1.223-.62-1.36-1.077l-.768-2.51c-.14-.456.262-.83.804-.748.565.084 1.22.62 1.36 1.075l.766 2.51zm2.724.265c.263.424-.022.862-.57.876s-1.356-.396-1.618-.82l-1.444-2.333c-.262-.424.023-.862.57-.876.57-.016 1.356.394 1.618.82l1.442 2.33zm94.67-7.072c.553.114.76.582.41.936s-1.25.59-1.806.476l-3.044-.63c-.554-.116-.76-.584-.41-.937.364-.37 1.25-.592 1.805-.477l3.047.63zm.593.4c.533.15.69.635.315.97s-1.285.526-1.82.377l-2.936-.82c-.536-.147-.694-.633-.318-.97.392-.35 1.285-.524 1.82-.375l2.936.818zm3.516-2.534c.56.086.8.543.477.913s-1.206.652-1.767.566l-3.085-.476c-.56-.085-.797-.542-.475-.912.337-.387 1.206-.654 1.767-.568l3.086.476zm-1.798 1.482c.53.158.677.646.293.976s-1.296.5-1.826.342l-2.915-.87c-.53-.16-.677-.648-.294-.977.4-.346 1.298-.503 1.828-.344l2.915.87zm-10.355-8.676c-.52.197-.62.688-.2.983s1.357.392 1.877.195l2.86-1.084c.52-.197.62-.688.2-.983-.438-.307-1.358-.392-1.878-.195l-2.86 1.084zm-1.933-.877c-.507.206-.587.705-.162.998s1.356.378 1.862.17l2.783-1.135c.506-.207.587-.705.162-.998-.445-.305-1.357-.378-1.863-.17l-2.783 1.135zm-2.18-1.193c-.536.162-.682.646-.29.967s1.316.476 1.853.313l2.95-.896c.537-.163.683-.647.292-.968-.408-.336-1.317-.48-1.854-.316l-2.95.897zm10.19 4.952c-.507.206-.587.705-.162.998s1.356.378 1.862.17l2.783-1.135c.506-.207.587-.705.162-.998-.445-.307-1.357-.38-1.863-.173l-2.783 1.136zm-2.07-1c-.52.196-.62.687-.202.982s1.358.392 1.878.195l2.86-1.082c.52-.197.62-.688.2-.983-.438-.307-1.358-.392-1.878-.195l-2.86 1.083zm-1.937-.88c-.506.207-.586.706-.16 1s1.355.377 1.86.17l2.784-1.136c.506-.207.587-.705.162-.998-.447-.305-1.36-.378-1.865-.17l-2.783 1.135z" stroke="#000" stroke-width="14.25" fill="#b00"/><g transform="matrix(.072 0 0 .086 364.627 299.181)"><path d="M212.603-1994.912v53.15h-53.15v35.44h53.15v106.3h35.433v-106.3h53.15v-35.44h-53.15v-53.15h-35.433z" stroke="#000" fill="#fff133"/><ellipse fill="#fff133" transform="matrix(.571 0 0 .618 93.645 -678.94)" cx="239.17" rx="62.008" cy="-1813.5" ry="57.32" stroke="#000"/><path d="M602.36-1119.4c0 68.45-10.417 145.68-29.252 205.02-120.08-26.455-268.06-39.682-339.04-39.682-87.586 0-246.15 13.227-345.26 26.455-18.835-59.336-30.538-123.34-30.538-191.79 0-273.81 105.27-390.21 367.5-496.03 233.3 105.82 376.6 222.22 376.6 496.03z" transform="matrix(1.058 0 0 1.339 -5.764 363.72)" stroke="#000" fill="#fff"/><path d="M566.93-657.28c0-44.007-150.8-79.724-336.61-79.724s-336.61 35.717-336.61 79.724v26.575c0-44.007 150.8-70.866 336.61-70.866s336.61 44.574 336.61 88.58v-44.29z" transform="matrix(1.171 0 0 .745 -32.833 -634.89)" stroke="#000" fill="#fff133"/><path d="M236.99-1381.568l-62.318 39.577 41.545 26.382-20.772 13.193L153.9-1328.8l-62.32 39.577 62.32 39.577 41.545-26.384 20.772 13.192v39.578h41.545v-39.578l20.773-13.19 41.546 26.383 62.32-39.577-62.32-39.576-41.544 26.384-20.773-13.193 41.547-26.384-62.32-39.58zm-418.537 41.545l6.092 39.878 10.4 25.544-14.908 16.073-10.402-25.544-4.51 41.62 35.715 35.01-10.4-25.543 25.31 9.47 15.603 38.315 20.11-3.303-15.602-38.318 14.913-16.074 10.4 25.542 4.51-41.618-35.715-35.014 10.403 25.545-25.31-9.47-10.403-25.544-26.203-36.574zm836.83.618l-23.78 37.11-9.478 25.69-24.963 9.835 9.477-25.69-34.443 35.525 6.01 41.542 9.477-25.688 15.486 15.85-14.214 38.535 20.226 3.01 14.215-38.535 24.964-9.834-9.475 25.688 34.44-35.523-6.01-41.542-9.476 25.69-15.488-15.854 9.478-25.69 3.555-40.118zm-686.253 53.88c-3.317-13.027 9.772-27.737 26.176-29.42 16.406-1.687 36.127 9.654 39.444 22.68s-9.773 27.73-9.773 27.73l78.883 45.353-32.81 3.37-59.163-34.016-39.266 44.123-32.81 3.37 52.358-58.83s-19.72-11.336-23.037-24.36zm469.954-6.64c3.173-13.04 22.77-24.468 39.193-22.855 16.423 1.612 29.672 16.264 26.5 29.304s-22.77 24.462-22.77 24.462l53 58.6-32.845-3.226-39.75-43.95-58.788 34.277-32.846-3.224 78.384-45.702s-13.252-14.643-10.078-27.684zm192.68 128.275c0-32.77-176.812-59.365-394.674-59.365s-394.675 26.596-394.675 59.365v19.788c0-32.77 176.813-52.77 394.675-52.77s394.675 33.194 394.675 65.963v-32.98z" stroke="#000" fill="#fff133"/><path d="M566.93-657.28c0-44.007-150.8-79.724-336.61-79.724s-336.61 35.717-336.61 79.724v26.575c0-44.007 150.8-70.866 336.61-70.866s336.61 44.574 336.61 88.58v-44.29z" transform="matrix(1.073 0 0 .745 -9.254 -386.86)" stroke="#000" fill="#fff133"/><path d="M241.427-1133.538l-58.688 39.577 39.123 26.382-19.562 13.193-39.124-26.384-58.688 39.577 58.687 39.577L202.302-1028l19.562 13.192v39.578h39.125v-39.578l19.56-13.19 39.127 26.383 58.688-39.577-58.688-39.576-39.126 26.384-19.562-13.193 39.126-26.384-58.69-39.58zM8.365-636.353l5.712 39.88 9.78 25.547-14.05 16.07-9.78-25.55-4.27 41.618 33.61 35.025-9.78-25.547 23.83 9.48 14.668 38.32 18.94-3.296-14.67-38.322 14.05-16.068 9.778 25.547 4.27-41.614-33.61-35.026 9.782 25.547-23.83-9.48-9.78-25.546-24.65-36.582zm626.988-455.022l-22.395 37.11-8.925 25.69-23.51 9.835 8.926-25.69-32.437 35.525 5.66 41.542 8.925-25.688 14.583 15.85-13.386 38.535 19.047 3.01 13.39-38.535 23.51-9.834-8.926 25.688 32.435-35.523-5.66-41.542-8.926 25.69-14.585-15.854 8.924-25.69 3.348-40.118zm-646.27 53.88c-3.124-13.027 9.203-27.737 24.65-29.42 15.45-1.687 34.023 9.654 37.147 22.68s-9.204 27.73-9.204 27.73l74.288 45.353-30.9 3.37L29.35-1001.8l-36.98 44.123-30.9 3.37 49.307-58.83s-18.57-11.336-21.695-24.36zm442.575-6.64c2.988-13.04 21.444-24.468 36.91-22.855 15.467 1.612 27.944 16.264 24.956 29.304s-21.442 24.462-21.442 24.462l49.914 58.6-30.933-3.226-37.436-43.95-55.363 34.277-30.933-3.224 73.82-45.702s-12.48-14.643-9.49-27.684zM613.112-915.86c0-32.77-166.513-59.365-371.685-59.365s-371.684 26.596-371.684 59.365v19.788c0-32.77 166.513-52.77 371.684-52.77s371.685 33.194 371.685 65.963v-32.98z" stroke="#000" fill="#fff133"/><path d="M566.93-657.28c0-44.007-150.8-79.724-336.61-79.724s-336.61 35.717-336.61 79.724v26.575c0-44.007 150.8-70.866 336.61-70.866s336.61 44.574 336.61 88.58v-44.29z" transform="matrix(1.105 0 0 .745 -16.106 -865.2)" stroke="#000" fill="#fff133"/><path d="M242.555-1611.225l-57.397 37.332 38.264 24.887-19.132 12.444-38.264-24.887-57.396 37.33 57.396 37.334 38.264-24.887 19.132 12.443v37.33h38.264v-37.33l19.133-12.444 38.262 24.887 57.396-37.332-57.397-37.33-38.263 24.89-19.134-12.445 38.265-24.887-57.395-37.332zm-385.48 39.193l5.61 37.616 9.58 24.094-13.732 15.163-9.58-24.093-4.153 39.258 32.893 33.025-9.58-24.094 23.312 8.93 14.37 36.143 18.523-3.118-14.37-36.142 13.733-15.16 9.58 24.093 4.154-39.257-32.893-33.027 9.58 24.093-23.31-8.932-9.58-24.093-24.134-34.5zm578.27 1042.685l-21.88 35.014-8.718 24.236-22.978 9.284 8.715-24.237-31.695 33.52 5.547 39.19 8.716-24.237 14.26 14.953-13.074 36.354 18.62 2.834 13.074-36.354 22.98-9.283-8.718 24.235 31.695-33.52-5.545-39.188-8.716 24.237-14.263-14.952 8.717-24.236 3.26-37.847zm-439.58-991.295c-3.054-12.287 9-26.163 24.11-27.752 15.11-1.59 33.273 9.108 36.328 21.395S47.2-1500.84 47.2-1500.84l72.656 42.78-30.22 3.18-54.49-32.087-36.165 41.62-30.22 3.18 48.224-55.494s-18.163-10.69-21.218-22.977zm432.825-6.248c2.922-12.3 20.97-23.08 36.097-21.558 15.126 1.52 27.33 15.34 24.406 27.64s-20.97 23.075-20.97 23.075l48.816 55.273-30.254-3.04-36.612-41.457-54.144 32.332-30.25-3.04 72.192-43.11s-12.205-13.814-9.282-26.114zm177.47 120.992c0-30.91-162.85-55.997-363.505-55.997s-363.506 25.087-363.506 55.997v18.665c0-30.91 162.847-49.774 363.504-49.774s363.505 31.31 363.505 62.218v-31.107z" stroke="#000" fill="#fff133"/><ellipse fill="#b90000" transform="matrix(.966 0 0 .414 12.936 -517.53)" cx="234.13" rx="375.87" cy="-822.11" ry="120.53"/></g><path d="M513.78-790.16l35.432-17.714 35.433 17.714s-73.366 35.433-73.366 159.45c-.003 88.58 125.26 106.3 125.26 212.6 0 45.65-34.185 88.582-69.618 88.582s-88.583-17.716-141.73-70.866c35.433 17.716 76.082 37.308 106.3 36.058 19.588-.405 55.025-17.716 55.025-53.15 0-70.865-122.77-106.92-122.77-213.22 0-124.02 50.025-159.45 50.026-159.45z" transform="matrix(.215 0 0 .179 313.875 342.337)" stroke="#000" stroke-width="1pt" fill="#fff"/><path d="M212.6-453.54c-35.433 0-70.866 35.433-70.866 70.866s35.433 70.866 70.866 70.866h194.88c35.433 0 70.866-35.433 70.866-70.866 0-37.027-35.433-70.866-70.866-70.866H212.6z" transform="matrix(.019 -.001 .009 .02 378.938 385.27)" stroke="#000" stroke-width="20.006" fill="#b00"/><path d="M520.25-790.16l46.683-17.717 10 17.717s-70.65 35.433-70.65 159.45c0 88.58 125.89 106.3 125.89 212.6 0 45.65-26.713 87.362-65.24 88.582-73.403 2.363-90.458-23.966-141.73-70.866 43.15 32.308 105 46.752 129.02 34.183 29.354-15.366 35.024-36.06 35.024-53.776 0-70.866-120.89-104.42-120.89-210.72 0-124.02 51.9-159.45 51.9-159.45zm-6.91.47c7.004-2.437 35.875-18.186 71.308 17.247 17.717 17.72 17.716 53.15 17.716 70.866l53.15-53.15s-29.066-86.87-107.62-53.59c-11.127 4.9-28.14 14.537-34.55 18.627zm10.46-6.25c8.84-2.87 36.676-6.325 64.596 18.5 17.717 17.72 18.966 42.934 18.966 60.65l40.65-37.932c3.44-3.21-24.832-81.252-99.24-54.034-4.5 1.807-14.78 6.302-24.972 12.816z" transform="matrix(.215 0 0 .179 313.875 342.337)" stroke="#000" stroke-width="1pt" fill="#fff"/><path d="M344.54-596.29l9.152 22.14s1.455-9.766 8.526-11.533l7.07-1.768s26.865 49.326 32.17 58.165c5.3 8.838-3.537 16.793-1.77 16.793 1.77 0 26.517-11.49 26.517-11.49s-10.606.882-15.026-6.19-34.82-59.933-34.82-59.933 6.186-2.652 11.49-5.303c5.303-2.652 10.606 7.955 10.606 7.955L385.2-613.97s0 8.84-4.42 10.607c-4.42 1.766-7.956 3.534-7.956 3.534s-3.535-6.186-7.955-13.257c-4.42-7.07 4.42-14.142 4.42-14.142l-22.983 11.49s7.955 4.42 10.607 8.84l5.303 8.84s-3.223 1.767-8.214 3.48c-3.59 1.876-7.696.055-9.464-1.713z" transform="matrix(.175 -.019 .06 .155 398.736 344.82)" stroke="#000" stroke-width="1pt" fill="#fff133"/><path d="M344.54-596.29l9.152 22.14s1.455-9.766 8.526-11.533l7.07-1.768s26.865 49.326 32.17 58.165c5.3 8.838-3.537 16.793-1.77 16.793 1.77 0 26.517-11.49 26.517-11.49s-10.606.882-15.026-6.19-34.82-59.933-34.82-59.933 6.186-2.652 11.49-5.303c5.303-2.652 10.606 7.955 10.606 7.955L385.2-613.97s0 8.84-4.42 10.607c-4.42 1.766-7.956 3.534-7.956 3.534s-3.535-6.186-7.955-13.257c-4.42-7.07 4.42-14.142 4.42-14.142l-22.983 11.49s7.955 4.42 10.607 8.84l5.303 8.84s-3.223 1.767-8.214 3.48c-3.59 1.876-7.696.055-9.464-1.713z" transform="matrix(-.16 .022 -.003 -.119 505.5 127.698)" stroke="#000" stroke-width="1pt" fill="#fff133"/><path d="M212.6-453.54c-35.433 0-70.866 35.433-70.866 70.866s35.433 70.866 70.866 70.866h194.88c35.433 0 70.866-35.433 70.866-70.866 0-37.027-35.433-70.866-70.866-70.866H212.6z" transform="matrix(.019 -.001 .009 .02 382.077 385.078)" stroke="#000" stroke-width="20.006" fill="#b00"/><path d="M212.6-453.54c-35.433 0-70.866 35.433-70.866 70.866s35.433 70.866 70.866 70.866h194.88c35.433 0 70.866-35.433 70.866-70.866 0-37.027-35.433-70.866-70.866-70.866H212.6z" transform="matrix(.031 -.001 .014 .02 377.403 387.717)" stroke="#000" stroke-width="20.006" fill="#b00"/><path d="M212.6-453.54c-35.433 0-70.866 35.433-70.866 70.866s35.433 70.866 70.866 70.866h194.88c35.433 0 70.866-35.433 70.866-70.866 0-37.027-35.433-70.866-70.866-70.866H212.6z" transform="matrix(.031 -.001 .014 .02 380.366 387.526)" stroke="#000" stroke-width="20.006" fill="#b00"/><path d="M212.6-453.54c-35.433 0-70.866 35.433-70.866 70.866s35.433 70.866 70.866 70.866h194.88c35.433 0 70.866-35.433 70.866-70.866 0-37.027-35.433-70.866-70.866-70.866H212.6z" transform="matrix(.039 -.001 .018 .02 376.22 390.533)" stroke="#000" stroke-width="20.006" fill="#b00"/><path d="M212.6-453.54c-35.433 0-70.866 35.433-70.866 70.866s35.433 70.866 70.866 70.866h194.88c35.433 0 70.866-35.433 70.866-70.866 0-37.027-35.433-70.866-70.866-70.866H212.6z" transform="matrix(.039 -.001 .018 .02 379.893 390.342)" stroke="#000" stroke-width="20.006" fill="#b00"/><path fill="#ffe000" d="M0 0h255.992v511.984H0z"/></g></svg>