<svg xmlns="http://www.w3.org/2000/svg" xmlns:xlink="http://www.w3.org/1999/xlink" height="512" width="512" viewBox="0 0 512 512"><defs><linearGradient id="a"><stop stop-color="#f00" offset="0"/><stop stop-color="#ff0" offset="1"/></linearGradient><linearGradient id="c" y2="107.76" xlink:href="#a" gradientUnits="userSpaceOnUse" x2="92.551" gradientTransform="matrix(.66 0 0 1.492 -3.68 -.673)" y1="111.28" x1="103.08"/><linearGradient id="d" y2="107.76" xlink:href="#a" gradientUnits="userSpaceOnUse" x2="92.551" gradientTransform="matrix(.66 0 0 1.492 -3.676 -.451)" y1="111.28" x1="103.08"/><linearGradient id="e" y2="107.76" xlink:href="#a" gradientUnits="userSpaceOnUse" x2="92.551" gradientTransform="matrix(.66 0 0 1.492 -4.457 -.249)" y1="111.28" x1="103.08"/><linearGradient id="f" y2="107.76" xlink:href="#a" gradientUnits="userSpaceOnUse" x2="92.551" gradientTransform="matrix(.66 0 0 1.492 -3.694 -.033)" y1="111.28" x1="103.08"/><linearGradient id="g" y2="107.76" xlink:href="#a" gradientUnits="userSpaceOnUse" x2="92.551" gradientTransform="matrix(.66 0 0 1.492 -3.696 .18)" y1="111.28" x1="103.08"/><linearGradient id="h" y2="107.76" xlink:href="#a" gradientUnits="userSpaceOnUse" x2="92.551" gradientTransform="matrix(.66 0 0 1.492 -3.7 .395)" y1="111.28" x1="103.08"/><linearGradient id="i" y2="107.76" xlink:href="#a" gradientUnits="userSpaceOnUse" x2="92.551" gradientTransform="matrix(.66 0 0 1.492 -4.463 .391)" y1="111.28" x1="103.08"/><linearGradient id="j" y2="107.76" xlink:href="#a" gradientUnits="userSpaceOnUse" x2="92.551" gradientTransform="matrix(.66 0 0 1.492 -4.456 .18)" y1="111.28" x1="103.08"/><linearGradient id="k" y2="107.76" xlink:href="#a" gradientUnits="userSpaceOnUse" x2="92.551" gradientTransform="matrix(.66 0 0 1.492 -4.446 -.036)" y1="111.28" x1="103.08"/><linearGradient id="m" y2="107.76" xlink:href="#a" gradientUnits="userSpaceOnUse" x2="92.551" gradientTransform="matrix(.66 0 0 1.492 -4.455 -.462)" y1="111.28" x1="103.08"/><linearGradient id="n" y2="107.76" xlink:href="#a" gradientUnits="userSpaceOnUse" x2="92.551" gradientTransform="matrix(.66 0 0 1.492 -3.833 -.263)" y1="111.28" x1="103.08"/><linearGradient id="l" y2="107.76" xlink:href="#a" gradientUnits="userSpaceOnUse" x2="92.551" gradientTransform="matrix(.85 0 0 1.922 723.32 109.68)" y1="111.28" x1="103.08"/><clipPath id="b"><path fill-opacity=".67" d="M0 0h512v512H0z"/></clipPath></defs><g clip-path="url(#b)"><path fill="#006" d="M0 0h1024v512H0z"/><path fill-rule="evenodd" fill="#006" d="M0 0h512v256H0z"/><path d="M0 0v28.622L454.757 256h57.24v-28.62L57.242 0H0zm511.998 0v28.62L57.24 256H0v-28.62L454.757 0h57.24zM213.333 0v256h85.333V0h-85.333zM0 85.333v85.333h511.998V85.333H0z" fill="#fff"/><path d="M0 102.4v51.2h511.998v-51.2H0zM230.4 0v256h51.2V0h-51.2zM0 256l170.666-85.334h38.16L38.162 256H0zM0 0l170.666 85.333h-38.16L0 19.08V0zm303.17 85.333L473.838 0h38.16L341.333 85.333h-38.16zM512 256l-170.666-85.334h38.16L512 236.92V256z" fill="#c00"/><path d="M256.39 193.617l213.68-.793-.396 190.29s7.532 28.94-89.593 72.943c34.888-3.568 72.945-40.832 72.945-40.832s15.46-19.82 22.993-8.72c7.532 11.1 14.668 16.65 20.218 21.01 5.55 4.36 9.91 16.254 1.585 24.975s-21.406 9.91-24.974-.793c-5.55 2.775-39.643 44.004-109.41 45.986-70.96-1.19-109.81-46.382-109.81-46.382s-9.514 15.066-22.993 3.173c-13.082-15.46-3.17-25.372-3.17-25.372s11.1-6.34 14.27-10.703c5.153-5.946 6.74-13.875 15.46-13.875 10.308.794 14.27 9.12 14.27 9.12s35.68 37.66 74.134 42.417c-86.818-41.626-89.99-67.394-89.593-73.737l.396-188.7z" fill-rule="evenodd" fill="#fff"/><path d="M261.54 198.767l203.76-1.19v183.15c.396 23.787-39.643 47.97-102.28 78.89-64.61-33.3-101.87-53.52-102.27-79.28l.793-181.56z" fill-rule="evenodd" stroke="#000" stroke-width="1.718" fill="#006129"/><path d="M286.042 400.578l12.028-17.665 12.086 17.702" stroke="#f7c600" stroke-width="1.288pt" fill="none"/><path d="M300.486 393.966a2.39 2.39 0 1 1-4.777.002 2.39 2.39 0 0 1 4.775-.002zm-12.183 19.664l18.647.052s.293-2.42-1.947-3.89c9.766-1.343 7.23-9.958 15.41-10.447 1.586.245-4.274 3.663-4.274 3.663s-4.934 3.48-2.688 5.25c1.783 1.404 2.564-.855 2.808-2.564.245-1.71 7.937-2.808 6.838-7.69-1.83-4.03-12.575 2.684-12.575 2.684l-7.665-.042c-.477-.86-2.59-4.31-4.77-4.326-2.59.094-4.412 4.368-4.412 4.368H276.34s-.595 4.448 8.195 5.303c1.98 2.587 3.514 3.31 5.234 3.978-1.15.956-1.47 2.112-1.467 3.662z" fill-rule="evenodd" stroke="#000" stroke-width=".805" fill="#f7c600"/><path d="M289.646 409.84l15.532-.052m-22.645-9.108s1.242 7.265 6.977 8.985" stroke="#000" stroke-width=".805" fill="none"/><path d="M281.55 400.523c.573-2.77 1.624-3.25 2.77-6.784.193-3.44-2.77-3.06-1.91-5.257 1.53-2.39.764-4.682-2.1-6.498.572 3.153-3.73 6.115-3.73 8.695s2.2 2.008 1.912 5.926c.19 2.292-.573 1.72-.763 3.917h3.82z" fill-rule="evenodd" stroke="#000" stroke-width=".805" fill="url(#c)"/><path d="M300.294 383.358a2.197 2.197 0 1 1-4.395.002 2.197 2.197 0 0 1 4.393-.002z" fill-rule="evenodd" stroke="#000" stroke-width=".805" fill="#f7c600"/><path d="M285.362 364.22l12.028-17.666 12.086 17.702" stroke="#f7c600" stroke-width="1.288pt" fill="none"/><path d="M299.806 357.607a2.39 2.39 0 1 1-4.777.002 2.39 2.39 0 0 1 4.775-.004zm-12.183 19.663l18.647.053s.293-2.42-1.947-3.89c9.766-1.343 7.23-9.958 15.41-10.447 1.586.245-4.274 3.663-4.274 3.663s-4.934 3.48-2.688 5.25c1.783 1.402 2.564-.857 2.808-2.566.245-1.71 7.937-2.808 6.838-7.69-1.83-4.03-12.575 2.684-12.575 2.684l-7.665-.043c-.477-.86-2.59-4.31-4.77-4.326-2.59.094-4.412 4.37-4.412 4.37H275.66s-.595 4.446 8.195 5.3c1.98 2.586 3.514 3.308 5.234 3.977-1.15.956-1.47 2.112-1.467 3.662z" fill-rule="evenodd" stroke="#000" stroke-width=".805" fill="#f7c600"/><path d="M288.966 373.482l15.532-.053m-22.645-9.11s1.242 7.265 6.977 8.985" stroke="#000" stroke-width=".805" fill="none"/><path d="M280.87 364.164c.573-2.77 1.624-3.25 2.77-6.784.193-3.44-2.77-3.058-1.91-5.255 1.53-2.39.764-4.682-2.1-6.498.572 3.153-3.73 6.115-3.73 8.695s2.2 2.007 1.912 5.925c.19 2.292-.573 1.72-.763 3.917h3.82z" fill-rule="evenodd" stroke="#000" stroke-width=".805" fill="url(#d)"/><path d="M299.614 347a2.197 2.197 0 1 1-4.395 0 2.197 2.197 0 0 1 4.393 0z" fill-rule="evenodd" stroke="#000" stroke-width=".805" fill="#f7c600"/><path d="M413.142 331.167l12.028-17.665 12.086 17.702" stroke="#f7c600" stroke-width="1.288pt" fill="none"/><path d="M427.586 324.555a2.39 2.39 0 1 1-4.777.002 2.39 2.39 0 0 1 4.775-.002zm-12.183 19.663l18.647.053s.293-2.42-1.947-3.89c9.766-1.34 7.23-9.956 15.41-10.445 1.586.245-4.274 3.663-4.274 3.663s-4.934 3.48-2.688 5.25c1.783 1.404 2.564-.855 2.808-2.564.245-1.71 7.937-2.808 6.838-7.69-1.83-4.03-12.575 2.684-12.575 2.684l-7.665-.042c-.477-.86-2.59-4.31-4.77-4.326-2.59.093-4.412 4.367-4.412 4.367H403.44s-.595 4.448 8.195 5.303c1.98 2.585 3.514 3.307 5.234 3.976-1.15.956-1.47 2.112-1.467 3.662z" fill-rule="evenodd" stroke="#000" stroke-width=".805" fill="#f7c600"/><path d="M416.746 340.43l15.532-.053m-22.645-9.107s1.242 7.264 6.977 8.984" stroke="#000" stroke-width=".805" fill="none"/><path d="M408.65 331.112c.573-2.77 1.624-3.25 2.77-6.784.193-3.44-2.77-3.058-1.91-5.255 1.53-2.39.764-4.682-2.1-6.498.572 3.153-3.73 6.115-3.73 8.695s2.2 2.007 1.912 5.925c.19 2.292-.573 1.72-.763 3.917h3.82z" fill-rule="evenodd" stroke="#000" stroke-width=".805" fill="url(#e)"/><path d="M427.394 313.947a2.197 2.197 0 1 1-4.395.002 2.197 2.197 0 0 1 4.393-.004z" fill-rule="evenodd" stroke="#000" stroke-width=".805" fill="#f7c600"/><path d="M288.342 295.823l12.028-17.665 12.086 17.703" stroke="#f7c600" stroke-width="1.288pt" fill="none"/><path d="M302.786 289.212a2.39 2.39 0 1 1-4.777 0 2.39 2.39 0 0 1 4.775 0zm-12.183 19.663l18.647.053s.293-2.42-1.947-3.89c9.766-1.344 7.23-9.96 15.41-10.447 1.586.246-4.274 3.664-4.274 3.664s-4.934 3.48-2.688 5.25c1.783 1.405 2.564-.855 2.808-2.564.245-1.71 7.937-2.81 6.838-7.692-1.83-4.03-12.575 2.686-12.575 2.686l-7.665-.043c-.477-.86-2.59-4.31-4.77-4.324-2.59.095-4.412 4.37-4.412 4.37H278.64s-.595 4.447 8.195 5.3c1.98 2.586 3.514 3.308 5.234 3.977-1.15.956-1.47 2.112-1.467 3.663z" fill-rule="evenodd" stroke="#000" stroke-width=".805" fill="#f7c600"/><path d="M291.946 305.087l15.532-.053m-22.645-9.108s1.242 7.264 6.977 8.985" stroke="#000" stroke-width=".805" fill="none"/><path d="M283.85 295.768c.573-2.77 1.624-3.25 2.77-6.784.193-3.44-2.77-3.058-1.91-5.255 1.53-2.39.764-4.684-2.1-6.5.572 3.153-3.73 6.115-3.73 8.695s2.2 2.007 1.912 5.925c.19 2.293-.573 1.72-.763 3.918h3.82z" fill-rule="evenodd" stroke="#000" stroke-width=".805" fill="url(#f)"/><path d="M302.594 278.604a2.197 2.197 0 1 1-4.395 0 2.197 2.197 0 0 1 4.393 0z" fill-rule="evenodd" stroke="#000" stroke-width=".805" fill="#f7c600"/><path d="M288.612 261.085l12.028-17.665 12.086 17.702" stroke="#f7c600" stroke-width="1.288pt" fill="none"/><path d="M303.056 254.473a2.39 2.39 0 1 1-4.777.002 2.39 2.39 0 0 1 4.775-.002zm-12.183 19.663l18.647.053s.293-2.42-1.947-3.89c9.766-1.345 7.23-9.96 15.41-10.45 1.586.246-4.274 3.664-4.274 3.664s-4.934 3.48-2.688 5.25c1.783 1.404 2.564-.855 2.808-2.564.245-1.71 7.937-2.807 6.838-7.69-1.83-4.03-12.575 2.685-12.575 2.685l-7.665-.042c-.477-.86-2.59-4.31-4.77-4.326-2.59.094-4.412 4.368-4.412 4.368H278.91s-.595 4.448 8.195 5.303c1.98 2.585 3.514 3.307 5.234 3.976-1.15.956-1.47 2.112-1.467 3.662z" fill-rule="evenodd" stroke="#000" stroke-width=".805" fill="#f7c600"/><path d="M292.216 270.348l15.532-.053m-22.645-9.107s1.242 7.264 6.977 8.984" stroke="#000" stroke-width=".805" fill="none"/><path d="M284.12 261.03c.573-2.77 1.624-3.25 2.77-6.784.193-3.44-2.77-3.058-1.91-5.255 1.53-2.39.764-4.68-2.1-6.496.572 3.153-3.73 6.115-3.73 8.695s2.2 2.006 1.912 5.924c.19 2.292-.573 1.72-.763 3.917h3.82z" fill-rule="evenodd" stroke="#000" stroke-width=".805" fill="url(#g)"/><path d="M302.864 243.865a2.197 2.197 0 1 1-4.395.002 2.197 2.197 0 0 1 4.393-.002z" fill-rule="evenodd" stroke="#000" stroke-width=".805" fill="#f7c600"/><path d="M289.272 225.84l12.028-17.666 12.086 17.702" stroke="#f7c600" stroke-width="1.288pt" fill="none"/><path d="M303.716 219.227a2.39 2.39 0 1 1-4.777.002 2.39 2.39 0 0 1 4.775-.004zm-12.183 19.663l18.647.053s.293-2.42-1.947-3.89c9.766-1.343 7.23-9.958 15.41-10.447 1.586.245-4.274 3.663-4.274 3.663s-4.934 3.48-2.688 5.25c1.783 1.402 2.564-.857 2.808-2.566.245-1.71 7.937-2.808 6.838-7.69-1.83-4.03-12.575 2.684-12.575 2.684l-7.665-.043c-.477-.86-2.59-4.31-4.77-4.326-2.59.094-4.412 4.37-4.412 4.37H279.57s-.595 4.446 8.195 5.3c1.98 2.586 3.514 3.308 5.234 3.977-1.15.956-1.47 2.112-1.467 3.662z" fill-rule="evenodd" stroke="#000" stroke-width=".805" fill="#f7c600"/><path d="M292.876 235.102l15.532-.053m-22.645-9.11s1.242 7.265 6.977 8.985" stroke="#000" stroke-width=".805" fill="none"/><path d="M284.78 225.784c.573-2.77 1.624-3.25 2.77-6.784.193-3.44-2.77-3.058-1.91-5.255 1.53-2.39.764-4.682-2.1-6.498.572 3.153-3.73 6.115-3.73 8.695s2.2 2.007 1.912 5.925c.19 2.292-.573 1.72-.763 3.917h3.82z" fill-rule="evenodd" stroke="#000" stroke-width=".805" fill="url(#h)"/><path d="M303.524 208.62a2.197 2.197 0 1 1-4.395 0 2.197 2.197 0 0 1 4.393 0z" fill-rule="evenodd" stroke="#000" stroke-width=".805" fill="#f7c600"/><path d="M414.092 226.413l12.028-17.665 12.086 17.702" stroke="#f7c600" stroke-width="1.288pt" fill="none"/><path d="M428.536 219.8a2.39 2.39 0 1 1-4.777.003 2.39 2.39 0 0 1 4.775-.002zm-12.183 19.664l18.647.053s.293-2.42-1.947-3.89c9.766-1.343 7.23-9.958 15.41-10.447 1.586.245-4.274 3.663-4.274 3.663s-4.934 3.48-2.688 5.25c1.783 1.404 2.564-.855 2.808-2.564.245-1.71 7.937-2.81 6.838-7.693-1.83-4.03-12.575 2.685-12.575 2.685l-7.665-.042c-.477-.86-2.59-4.31-4.77-4.325-2.59.094-4.412 4.368-4.412 4.368H404.39s-.595 4.448 8.195 5.303c1.98 2.585 3.514 3.307 5.234 3.976-1.15.956-1.47 2.112-1.467 3.662z" fill-rule="evenodd" stroke="#000" stroke-width=".805" fill="#f7c600"/><path d="M417.696 235.676l15.532-.053m-22.645-9.107s1.242 7.264 6.977 8.984" stroke="#000" stroke-width=".805" fill="none"/><path d="M409.6 226.358c.573-2.77 1.624-3.25 2.77-6.784.193-3.44-2.77-3.058-1.91-5.255 1.53-2.39.764-4.684-2.1-6.5.572 3.153-3.73 6.115-3.73 8.695s2.2 2.007 1.912 5.925c.19 2.293-.573 1.72-.763 3.918h3.82z" fill-rule="evenodd" stroke="#000" stroke-width=".805" fill="url(#i)"/><path d="M428.344 209.193a2.197 2.197 0 1 1-4.395.002 2.197 2.197 0 0 1 4.393-.002z" fill-rule="evenodd" stroke="#000" stroke-width=".805" fill="#f7c600"/><path d="M412.952 261.012l12.028-17.665 12.086 17.702" stroke="#f7c600" stroke-width="1.288pt" fill="none"/><path d="M427.396 254.4a2.39 2.39 0 1 1-4.777.002 2.39 2.39 0 0 1 4.775-.002zm-12.183 19.663l18.647.053s.293-2.42-1.947-3.89c9.766-1.343 7.23-9.958 15.41-10.447 1.586.243-4.274 3.66-4.274 3.66s-4.934 3.48-2.688 5.25c1.783 1.405 2.564-.854 2.808-2.563.245-1.71 7.937-2.808 6.838-7.69-1.83-4.03-12.575 2.684-12.575 2.684l-7.665-.04c-.477-.86-2.59-4.31-4.77-4.327-2.59.094-4.412 4.368-4.412 4.368H403.25s-.595 4.45 8.195 5.304c1.98 2.585 3.514 3.307 5.234 3.976-1.15.957-1.47 2.113-1.467 3.663z" fill-rule="evenodd" stroke="#000" stroke-width=".805" fill="#f7c600"/><path d="M416.556 270.275l15.532-.053m-22.645-9.107s1.242 7.264 6.977 8.984" stroke="#000" stroke-width=".805" fill="none"/><path d="M408.46 260.957c.573-2.77 1.624-3.25 2.77-6.784.193-3.44-2.77-3.058-1.91-5.255 1.53-2.39.764-4.682-2.1-6.498.572 3.153-3.73 6.115-3.73 8.695s2.2 2.007 1.912 5.925c.19 2.292-.573 1.72-.763 3.917h3.82z" fill-rule="evenodd" stroke="#000" stroke-width=".805" fill="url(#j)"/><path d="M427.204 243.792a2.197 2.197 0 1 1-4.395.002 2.197 2.197 0 0 1 4.393-.002z" fill-rule="evenodd" stroke="#000" stroke-width=".805" fill="#f7c600"/><path d="M411.422 296.376l12.028-17.665 12.086 17.705" stroke="#f7c600" stroke-width="1.288pt" fill="none"/><path d="M425.866 289.765a2.39 2.39 0 1 1-4.777 0 2.39 2.39 0 0 1 4.775 0zm-12.183 19.663l18.647.053s.293-2.42-1.947-3.89c9.766-1.342 7.23-9.957 15.41-10.445 1.586.244-4.274 3.662-4.274 3.662s-4.934 3.48-2.688 5.25c1.783 1.405 2.564-.855 2.808-2.564.245-1.71 7.937-2.808 6.838-7.69-1.83-4.03-12.575 2.685-12.575 2.685l-7.665-.043c-.477-.86-2.59-4.31-4.77-4.326-2.59.094-4.412 4.37-4.412 4.37H401.72s-.595 4.446 8.195 5.3c1.98 2.585 3.514 3.307 5.234 3.976-1.15.956-1.47 2.112-1.467 3.663z" fill-rule="evenodd" stroke="#000" stroke-width=".805" fill="#f7c600"/><path d="M415.026 305.64l15.532-.053m-22.645-9.107s1.242 7.263 6.977 8.984" stroke="#000" stroke-width=".805" fill="none"/><path d="M406.93 296.32c.573-2.77 1.624-3.248 2.77-6.783.193-3.44-2.77-3.058-1.91-5.255 1.53-2.39.764-4.682-2.1-6.498.572 3.153-3.73 6.115-3.73 8.695s2.2 2.005 1.912 5.923c.19 2.292-.573 1.72-.763 3.917h3.82z" fill-rule="evenodd" stroke="#000" stroke-width=".805" fill="url(#k)"/><path d="M425.674 279.157a2.197 2.197 0 1 1-4.395 0 2.197 2.197 0 0 1 4.393 0z" fill-rule="evenodd" stroke="#000" stroke-width=".805" fill="#f7c600"/><path d="M412.95 400.937l12.028-17.665 12.086 17.702" stroke="#f7c600" stroke-width="1.288" fill="none"/><path d="M427.39 394.337a2.39 2.39 0 1 1-4.777.002 2.39 2.39 0 0 1 4.777-.004zm-12.18 19.65l18.647.053s.292-2.42-1.948-3.89c9.765-1.344 7.23-9.96 15.41-10.447 1.584.244-4.276 3.663-4.276 3.663s-4.93 3.48-2.685 5.25c1.782 1.404 2.562-.855 2.807-2.564.244-1.71 7.935-2.808 6.836-7.692-1.83-4.028-12.575 2.686-12.575 2.686l-7.666-.042c-.478-.86-2.59-4.31-4.77-4.326-2.59.094-4.412 4.368-4.412 4.368h-17.337s-.594 4.448 8.196 5.303c1.98 2.582 3.513 3.305 5.234 3.974-1.147.955-1.47 2.112-1.465 3.662z" fill-rule="evenodd" stroke="#000" stroke-width=".805" fill="#f7c600"/><path d="M416.55 410.197l15.53-.053m-22.64-9.097s1.243 7.264 6.977 8.985" stroke="#000" stroke-width=".805" fill="none"/><path d="M408.48 400.947c.573-2.772 1.625-3.25 2.772-6.786.19-3.44-2.772-3.057-1.912-5.255 1.53-2.39.765-4.683-2.103-6.5.574 3.155-3.727 6.118-3.727 8.698s2.198 2.008 1.91 5.926c.193 2.293-.572 1.72-.763 3.92h3.823z" fill-rule="evenodd" stroke="#000" stroke-width=".805" fill="url(#l)"/><path d="M427.2 383.727a2.197 2.197 0 1 1-4.395 0 2.197 2.197 0 0 1 4.395 0z" fill-rule="evenodd" stroke="#000" stroke-width=".805" fill="#f7c600"/><path d="M412.762 365.957l12.028-17.665 12.086 17.702" stroke="#f7c600" stroke-width="1.288pt" fill="none"/><path d="M427.206 359.345a2.39 2.39 0 1 1-4.777.002 2.39 2.39 0 0 1 4.775-.002zm-12.183 19.663l18.647.053s.293-2.42-1.947-3.89c9.766-1.34 7.23-9.956 15.41-10.445 1.586.245-4.274 3.663-4.274 3.663s-4.934 3.48-2.688 5.25c1.783 1.404 2.564-.855 2.808-2.564.245-1.71 7.937-2.808 6.838-7.69-1.83-4.03-12.575 2.684-12.575 2.684l-7.665-.042c-.477-.86-2.59-4.31-4.77-4.326-2.59.093-4.412 4.367-4.412 4.367H403.06s-.595 4.448 8.195 5.303c1.98 2.585 3.514 3.307 5.234 3.976-1.15.956-1.47 2.112-1.467 3.662z" fill-rule="evenodd" stroke="#000" stroke-width=".805" fill="#f7c600"/><path d="M416.366 375.22l15.532-.053m-22.645-9.107s1.242 7.264 6.977 8.984" stroke="#000" stroke-width=".805" fill="none"/><path d="M408.27 365.902c.573-2.77 1.624-3.25 2.77-6.784.193-3.44-2.77-3.058-1.91-5.255 1.53-2.39.764-4.682-2.1-6.498.572 3.153-3.73 6.115-3.73 8.695s2.2 2.007 1.912 5.925c.19 2.292-.573 1.72-.763 3.917h3.82z" fill-rule="evenodd" stroke="#000" stroke-width=".805" fill="url(#m)"/><path d="M427.014 348.737a2.197 2.197 0 1 1-4.395.002 2.197 2.197 0 0 1 4.393-.004z" fill-rule="evenodd" stroke="#000" stroke-width=".805" fill="#f7c600"/><path d="M311.142 333.444l12.028-17.665 12.086 17.7" stroke="#f7c600" stroke-width="1.288pt" fill="none"/><path d="M325.586 326.832a2.39 2.39 0 1 1-4.777.002 2.39 2.39 0 0 1 4.775-.002zm-12.183 19.663l18.647.053s.293-2.42-1.947-3.89c9.766-1.343 7.23-9.958 15.41-10.447 1.586.247-4.274 3.665-4.274 3.665s-4.934 3.48-2.688 5.25c1.783 1.404 2.564-.855 2.808-2.564.245-1.71 7.937-2.807 6.838-7.69-1.83-4.03-12.575 2.685-12.575 2.685l-7.665-.042c-.477-.86-2.59-4.31-4.77-4.326-2.59.094-4.412 4.368-4.412 4.368H301.44s-.595 4.448 8.195 5.303c1.98 2.585 3.514 3.307 5.234 3.976-1.15.956-1.47 2.112-1.467 3.662z" fill-rule="evenodd" stroke="#000" stroke-width=".805" fill="#f7c600"/><path d="M314.746 342.707l15.532-.053m-22.645-9.107s1.242 7.264 6.977 8.984" stroke="#000" stroke-width=".805" fill="none"/><path d="M306.65 333.39c.573-2.772 1.624-3.25 2.77-6.785.193-3.44-2.77-3.058-1.91-5.255 1.53-2.39.764-4.682-2.1-6.498.572 3.153-3.73 6.115-3.73 8.695s2.2 2.007 1.912 5.925c.19 2.292-.573 1.72-.763 3.917h3.82z" fill-rule="evenodd" stroke="#000" stroke-width=".805" fill="url(#n)"/><path d="M325.394 316.224a2.197 2.197 0 1 1-4.395.002 2.197 2.197 0 0 1 4.393-.002z" fill-rule="evenodd" stroke="#000" stroke-width=".805" fill="#f7c600"/><g stroke="#000"><path d="M375.5 417.404s4.867 11.22 10.41 4.325 3.513-9.87 3.513-9.87l-12.435-6.76-3.65 7.707 2.163 4.596z" fill-rule="evenodd" fill="#f7c600"/><path d="M386.182 415.922s.81.135 1.487-1.08-1.49-1.76-2.435-3.11l-1.082 2.163 2.028 2.027zm-28.126-2.976l-10.95 5.947s-5.405 1.082-5.81 0c-.406-1.08.134-2.027 2.973-2.162 2.836-.134 10.54-7.162 10.54-7.162l3.245 3.38zm.142-194.51s.27 2.568.405 3.92-2.162 4.19-2.298 4.055-1.216.137-1.08.948 1.756 1.082 1.756 1.082-.674 2.837 0 2.972c.678.135-1.755 3.65 0 4.596 1.76.946 4.733 2.163 6.085 1.892 1.352-.27 0 5.272 0 5.272l-3.785 8.11 20.815-2.163-4.326-6.895s-2.03-1.352-1.49-5.272-.27-21.627-.27-21.627l-14.867-2.028-.946 5.136zm-3.788 30.82s-6.758 3.108-6.488 11.488c-1.757 8.11-2.704 16.22-2.704 16.22s-7.974 9.056-10.407 12.3c-2.43 3.244-6.08 9.867-7.433 11.624s-6.623 7.57-6.488 9.733c.134 2.164-1.217 11.76 4.054 12.84 1.352.543 5.677-11.08 5.677-11.08s.27-5-1.215-5.95 3.244-4.19 3.244-4.19 9.055-6.622 11.083-8.244 7.57-7.84 7.57-7.84l3.108-36.9z" fill-rule="evenodd" fill="#ffc6b5"/><path d="M362.115 242.902s1.757 4.73 5.677 3.92c3.92-.812 8.515-4.46 8.515-4.46s3.65-.136 4.19.404c.54.54 9.868 9.597 9.597 12.436-.27 2.838-4.325 2.027-5.812 3.92s-3.92 6.623-3.244 10.137 2.704 8.11 2.433 9.866-1.755 2.297-1.755 3.244c0 .947 1.217 2.57 1.217 4.326s-1.62 4.325-1.35 6.083c.27 1.755.404 6.89.404 6.89l-.405 23.79s1.35.81 1.487 2.164c.135 1.352 9.19 40.685 9.19 40.685s-.404 1.216-1.35 1.08 3.65 6.083 3.784 7.84 4.73 15.545 4.597 17.438c-.135 1.89-.81 6.08-1.217 6.216-.406.135 2.973 8.65 2.432 10.003-.54 1.35-6.082 1.215-6.082 1.215l-1.487-.27s.135 1.757-.946 1.892-9.056-.405-9.056-.405-2.296 3.513-3.65 3.38c-1.35-.137-3.107-2.57-3.512-2.165-.406.406 1.216 2.704.81 3.38-.405.675-7.298 2.162-8.65-1.082-1.352-3.244.81-2.433.405-3.11-.405-.675-3.514-2.432-4.46-1.89s2.433 1.35 2.298 2.702c-.134 1.352-2.973 3.38-4.054 3.38s-3.65-5.002-7.435-4.46c-3.783.54-6.216 1.486-6.216 1.486s-4.46 1.893-6.353 1.488c-1.892-.405-2.703-1.892-2.703-2.703 0-.81 1.352-4.325 1.217-5.406s-1.217-2.163-1.217-3.785c0-1.622 3.11-7.164 3.11-7.164l-.136-24.87s-2.84 0-2.973-1.76 4.326-39.33 5-41.765c.677-2.433 2.435-11.084 2.435-11.084s-2.027.947-2.162 0 6.082-22.436 6.082-22.436 1.082-10.68 1.082-13.517c0-2.838-.54-6.758-.54-6.758s-5.55-2.35-5.678-5.95c-.508-5.724 5.272-8.92 5.947-10.812l2.705-7.57s2.974-5.137 7.84-5.948z" fill-rule="evenodd" fill="#fff"/><path d="M360.092 414.57s-13.11 6.893-15.004 7.434c-1.892.54-3.11-2.298-1.216-2.84 1.892-.54 4.866-.81 4.866-.81s-4.46-3.514-4.326-3.65c.136-.135 6.083-2.297 6.218-2.297s1.893 3.514 3.11 3.244 4.73-2.972 4.73-2.972 1.892 2.163 1.622 1.892z" fill-rule="evenodd" fill="#f7c600"/><path d="M378.567 418.344c1.24 1.6 1.725 4.372 4.563 2.75 2.84-1.622-1.454-4.632-1.454-4.632l-3.11 1.882zm5.18-.27s1.35 1.08 2.568-.135-2.433-3.787-2.433-3.787l-1.757 2.027 1.622 1.894z" fill-rule="evenodd" fill="#ffc6b5"/><path d="M379.688 248.172s-12.03 7.705-11.76 10.408m14.466-9.056s-2.703 2.974-2.838 2.974m6.484.27s-5.947 4.866-5 7.975m-23.113-13.246s-1.757 3.65-1.35 4.866c.404 1.217 3.378 5.813 3.783 8.65.406 2.84 0 4.867 0 4.867m-5.538-11.625s.54 4.325 1.352 5.136c.81.813 2.974 4.463 3.244 5.95m-5.678 6.893s3.514 1.757 6.758-5m5.262-4.732c-.134 0-2.567 6.625 1.758 9.058s7.57 2.163 9.462 1.487c1.892-.676 3.92-1.892 3.92-1.892m-17.02-.54s.27 8.92 13.38 17.707m-12.84-9.33s-.134 7.84 5.002 11.355m-7.707-20.545s-3.92 11.624-7.03 12.84m5.806-4.324s-.133 8.38-1.214 11.354m-1.077 2.027s2.702 3.38 5.676 3.11 4.19-3.786 6.218-3.245c2.027.54 3.92 2.163 8.65 1.757m-6.76 3.512s0 6.893 1.217 7.57.677 7.028.677 7.028m-18.384-17.84s-.135 6.488-.946 8.786c-.81 2.298-2.433 6.218-2.163 9.597m-5.137 3.79c.676-.27 2.974-2.3 2.974-2.3m1.215 1.487s-5.813 24.87-4.19 39.74m5.543-38.53s-2.974 18.655-1.623 22.17m.14-22.71c.136 0 11.355.81 11.355.81m1.62-1.48s3.108 1.622 7.433 1.352m-8.787 7.706s-.54 31.9-1.35 38.93M379.56 331.3s3.514 27.98 5.54 30.548m-12.305-27.03s2.163 24.735 3.38 26.9m-34.056 8.646s4.19-1.352 7.972-5.406c4.326 5.812 10.95.27 10.95.27s10.272 7.03 14.867-.81c7.03 4.595 10.542-.677 10.542-.677s2.57 3.92 4.46 3.516m-11.225 2.71s5.272 24.736 13.11 31.764m-40.282-34.342s.676 20.68 1.892 35.28m-2.833-11.895s-.675 13.516-1.486 14.463m-6.49 1.358s1.487 5.812 8.92.406c7.436-5.407 7.57 2.027 7.84 2.838.27.81 1.488 6.623 4.326 1.757m5.944-7.977s-1.216 12.03 9.463 3.244c10.68-8.786 12.436-.135 12.706 2.568" fill="none"/><path d="M357.786 217.624s2.973.406 4.595-.54c1.624-.946 3.517-1.352 4.868.54s2.298 1.758 2.298 1.758-2.027 5 0 5.54c2.028.542 2.974.542 3.11 1.218.134.676-1.758 2.163-1.217 2.838.54.676 1.486 1.487 1.62 2.028.136.54-1.216 2.84-.81 3.38.405.54 1.62 2.703 2.433 2.703.81 0 .27 3.377 2.703 2.566s2.298-2.974 2.298-2.974 2.568-.405 3.244-2.703c.676-2.3 2.298-2.84 2.298-2.84s3.244-1.757-1.08-4.46c0-18.924-12.437-16.896-12.437-16.896s-1.488-3.38-3.92-2.974c-2.434.407-2.57 3.245-4.326 2.975-1.757-.27-2.163-1.487-2.298-1.352-.135.135-1.622 2.838-1.622 3.514 0 .676-4.73-.946-4.326 2.57s2.704 3.378 2.57 3.107z" fill-rule="evenodd" fill="#9c5100"/><path d="M370.773 213.03s-.947 5.946 5.406 5.406c-.81 3.244 1.62 4.325 1.62 4.325m4.722 3.65c.135 0 2.838 1.758-.135 3.92m-9.05.81s1.35 1.624 2.837 1.22c1.487-.407 3.92 1.485 3.92 1.485s2.027.676 2.298.27m-17.303 2.164s4.595 1.756 7.57-5.543m-16.087-2.163l2.704.135m-2.29 2.566h2.433l-2.163.947" fill="none"/><path d="M360.362 223.707c.406 0 1.893-.54 2.163-.135.27.405-1.622.676-2.163.135z" fill="none"/><path d="M389.557 255.822c.136 0 4.46 13.38 5.002 16.76.54 3.38 2.296 16.897 1.62 18.79-.676 1.892-7.57 10.948-8.38 13.245-.81 2.298-5.678 11.084-5.678 11.084s-1.216 8.653-1.757 9.058c-.54.406 1.395 2.53 1.217 3.245-.27.804-3.92 4.595-5.542 4.19-1.62-.406-4.19-2.298-4.325-4.055s.135-7.57 1.352-9.057 7.57-16.49 7.975-17.436c.405-.946 5.812-12.706 5.947-14.733.133-2.026-1.684-6.715-3.595-8.435-4.255-12.52-2.583-20.072 6.16-22.653z" fill-rule="evenodd" fill="#ffc6b5"/><path d="M326.58 313.816l.212 5.924m-5.762-6.362s3.798 6.352 3.48 9.737m47.422 3.535s2.84-.3 2.75 4.44c1.814-5.888 5.5-6.028 5.5-6.028" fill="none"/></g><path d="M362.23 461.997c57.086-1.586 93.954-42.814 93.557-43.21-.396-.397 7.532-11.497 13.875-9.91 6.343 1.584 15.46 20.216 26.56 24.18 5.55 8.722-1.585 16.65-3.963 18.236-2.38 1.586-13.084 5.947-14.67-.396-1.586-6.343-4.758-5.154-4.758-5.154s-50.743 49.554-109.41 47.572c-60.65.4-110.6-47.57-110.6-47.57l-4.36 4.757s-4.758 5.154-7.136 4.758c-2.38-.397-12.686-7.136-13.48-13.875-.792-6.74 6.344-11.1 6.344-11.1s17.444-13.48 19.426-20.614c3.964-3.963 11.496 2.776 11.496 2.776S311.098 465.17 362.237 462z" fill-rule="evenodd" stroke="#000" stroke-width="1.718" fill="#f7c600"/><path d="M233 431.337s4.717-1.258 6.447.708c1.73 1.965 13.6 13.6 13.6 13.6m-9.277-8.808l-4.717 3.538s11.87 2.358 9.198 10.142m243.72-19.58s-2.36-1.258-6.053 1.494c-3.695 2.753-13.05 13.21-13.05 13.21m8.493-9.113l5.11 3.93s-10.692.708-8.333 10.85" stroke="#000" stroke-width="1.718" fill="none"/><path d="M293.43 443.917l-.344.482c-.717-.356-1.535-.42-2.453-.2-.675.175-1.945.808-3.812 1.9l-15.706 9.158-.43-.308 3.958-18.363c.48-2.214.697-3.56.656-4.033-.032-.47-.364-.987-.994-1.555l.344-.483 8.467 6.04-.344.48-.286-.204c-.765-.545-1.354-.82-1.768-.828-.293-.012-.53.108-.708.36-.112.156-.21.368-.296.634-.078.257-.25.993-.512 2.207l-2.506 11.478 9.074-5.34c1.092-.65 1.8-1.1 2.125-1.353.326-.253.57-.492.73-.718.185-.26.28-.54.284-.84.003-.298-.093-.596-.287-.892-.27-.414-.71-.84-1.328-1.28l.343-.482 5.797 4.134m5.64 27.295l-.283.52-9.954-5.445.284-.52.632.346c.552.303 1.05.448 1.494.436.315 0 .625-.12.93-.368.226-.168.6-.73 1.122-1.684l6.848-12.522c.532-.974.814-1.61.844-1.91.03-.3-.066-.625-.287-.977-.205-.357-.575-.68-1.11-.973l-.63-.345.284-.52 9.953 5.444-.284.52-.632-.346c-.55-.302-1.05-.447-1.494-.435-.315-.003-.63.117-.944.36-.226.166-.6.73-1.122 1.682L297.872 467c-.532.974-.813 1.61-.843 1.91-.02.304.07.635.276.99.22.353.6.675 1.132.966l.63.346m36.36-8.528l-2.565 7.204-.558-.198c.028-2.21-.448-4.067-1.43-5.57-.98-1.506-2.27-2.542-3.868-3.11-1.53-.545-2.954-.566-4.276-.063-1.32.492-2.463 1.432-3.433 2.82a18.89 18.89 0 0 0-2.318 4.506c-.7 1.96-1.08 3.76-1.144 5.402s.292 2.992 1.07 4.05c.788 1.062 1.89 1.846 3.307 2.35a8.304 8.304 0 0 0 1.56.386c.563.078 1.15.11 1.765.104l1.514-4.25c.287-.804.416-1.34.387-1.612-.025-.28-.18-.578-.463-.894-.273-.313-.656-.557-1.15-.732l-.526-.188.2-.557 9.933 3.537-.2.558c-.77-.218-1.336-.3-1.694-.247-.346.047-.664.223-.953.527-.16.16-.37.61-.635 1.353l-1.514 4.25c-1.513.118-3.03.07-4.55-.143-1.515-.2-3.03-.57-4.548-1.11-1.94-.69-3.46-1.526-4.56-2.507a13.216 13.216 0 0 1-2.65-3.288c-.666-1.212-1.085-2.454-1.254-3.726-.21-1.637-.008-3.315.604-5.033 1.095-3.073 3.1-5.286 6.016-6.636 2.915-1.35 6.01-1.443 9.287-.276 1.015.36 1.9.767 2.657 1.218.413.238 1.045.723 1.893 1.456.863.727 1.384 1.122 1.565 1.187.28.1.578.09.89-.024.317-.125.678-.438 1.083-.94l.56.2m15.32 24.586l-.09.586-11.217-1.7.09-.585.71.11c.623.094 1.14.06 1.554-.105.296-.106.546-.328.748-.664.154-.234.313-.89.476-1.966l2.138-14.11c.165-1.097.21-1.792.137-2.084-.075-.29-.276-.565-.604-.82-.315-.263-.774-.44-1.375-.53l-.712-.11.09-.584 11.215 1.7-.09.584-.71-.108c-.623-.094-1.14-.06-1.554.105-.297.107-.55.327-.764.66-.154.237-.313.893-.476 1.97l-2.137 14.11c-.167 1.096-.213 1.79-.14 2.082.086.294.287.572.603.836.328.255.793.428 1.394.52l.712.106m29.113-7.072l-.428 7.648-19.24.982-.03-.592.72-.036c.628-.032 1.13-.17 1.5-.413.27-.163.47-.43.6-.8.105-.26.13-.935.074-2.02l-.728-14.254c-.056-1.108-.15-1.797-.28-2.068-.133-.27-.385-.5-.757-.683-.362-.194-.846-.276-1.454-.245l-.72.037-.03-.592 11.554-.59.03.592-.942.048c-.63.032-1.13.17-1.5.413-.27.164-.476.43-.617.8-.103.262-.13.936-.072 2.023l.704 13.807c.057 1.108.157 1.813.3 2.116.143.29.405.502.786.632.27.083.918.098 1.94.046l1.806-.092c1.15-.058 2.1-.31 2.845-.754.746-.445 1.373-1.117 1.883-2.02.52-.902.987-2.218 1.4-3.948l.656-.033m21.044-3.652l-7.344 2.194-.27 2.286c-.084.76-.06 1.36.07 1.8.175.582.538.94 1.09 1.076.326.082 1.04 0 2.15-.24l.17.567-6.915 2.064-.17-.567c.712-.336 1.234-.825 1.565-1.47.327-.654.607-1.88.84-3.674l2.48-18.81.29-.086 12.59 14.808c1.197 1.4 2.09 2.243 2.674 2.524.44.213.986.25 1.635.112l.17.567-10.058 3.004-.17-.567.414-.124c.808-.24 1.34-.523 1.6-.845.177-.23.22-.5.128-.806a1.962 1.962 0 0 0-.262-.54c-.048-.085-.315-.422-.803-1.01l-1.88-2.262m-.86-.98l-5.235-6.233-1.05 8.112 6.287-1.88m27.726-28.253l2.78 5.172-.507.272c-.94-1.03-1.734-1.707-2.38-2.026-.65-.33-1.375-.477-2.18-.444-.45.023-1.12.274-2.01.754l-1.424.765 7.926 14.74c.525.978.905 1.56 1.14 1.75.244.184.57.286.982.307.416.007.896-.136 1.44-.43l.635-.34.28.52-10.007 5.38-.28-.52.634-.34c.555-.3.95-.638 1.18-1.017.174-.264.246-.593.215-.988-.018-.28-.284-.9-.8-1.86l-7.925-14.74-1.38.742c-1.288.692-2.076 1.467-2.366 2.325-.407 1.2-.34 2.562.2 4.09l-.534.285-2.78-5.172 17.162-9.228m13.014-7.716l5.32 7.05.344-.26c1.098-.83 1.634-1.774 1.608-2.837s-.48-2.317-1.358-3.766l.486-.366 6.84 9.07-.485.367c-.846-.91-1.673-1.556-2.48-1.936-.8-.385-1.497-.52-2.09-.406-.603.106-1.317.47-2.143 1.094l3.68 4.88c.72.952 1.2 1.507 1.436 1.662.246.148.53.207.855.176.324-.03.733-.232 1.227-.605l1.035-.78c1.618-1.22 2.63-2.57 3.035-4.052.414-1.488.256-3.16-.475-5.013l.473-.357 3.374 6.093-14.97 11.293-.358-.472.574-.433c.502-.38.84-.774 1.01-1.184.133-.287.15-.62.05-1-.06-.274-.42-.846-1.074-1.714l-8.595-11.395c-.59-.784-.974-1.25-1.15-1.396a1.53 1.53 0 0 0-.994-.334c-.503.005-1.036.22-1.598.644l-.575.433-.357-.473 14.498-10.936 3.864 5.123-.485.367c-1.19-1.066-2.218-1.7-3.08-1.905-.855-.21-1.787-.137-2.797.224-.592.206-1.544.804-2.856 1.794l-1.788 1.35"/><path d="M258.4 445.547c70.91 57.515 140.41 58.57 208.41 0" fill="none"/></g></svg>