<svg xmlns="http://www.w3.org/2000/svg" height="512" width="512" viewBox="0 0 512 512"><defs><clipPath id="a"><path fill-opacity=".67" d="M248.03 0h496.06v496.06H248.03z"/></clipPath></defs><g fill-rule="evenodd" clip-path="url(#a)"><path fill="#198a00" d="M-256 0h767.9v511.934H-256z"/><path fill="#ef7d00" d="M421.787 183.913h90.115v327.99h-90.115z"/><path d="M331.786 183.758h90.018V511.82h-90.018z"/><path fill="#de2010" d="M239.886 183.964h91.925v327.98h-91.923z"/><g stroke="#000" fill="#ef7d00"><path d="M451.525 65.582s33.912-14.492 37.198-17.48c1.495 1.793-13.594 20.02-42.875 26.742 26.59-6.275 49.3-25.994 53.93-25.398 1.346.3 1.045 19.273-59.907 35.706C482 74.097 506.5 53.78 506.204 56.02c.3.448-4.183 15.986-41.083 28.086 10.308-2.39 38.244-19.42 37.946-16.134.896 1.344-27.04 37.198-77.532 25.546 40.336 10.457 66.48-14.79 70.214-14.342.747.15-7.47 22.11-58.263 23.455 24.35-2.537 17.33-.15 17.33-.15s-14.343 11.206-31.672 3.588c13.595 3.736 15.09 3.884 15.387 5.08-.896 1.493-12.1 3.734-22.856-2.092 8.664 3.585 16.433 4.183 16.58 5.528-.147.447-5.675 3.585-10.605 1.344-4.93-2.242-50.348-30.177-50.348-30.177l77.384-21.214 2.838 1.047zm143.084 73.536c-6.808 0-6.995 6.056-6.995 6.056s-.562.437-.188 3.372c1.124-1.998 1.687-2.623 1.687-2.623.75.125 3.87 1.06 8.803-2.81-4.497 4.682-1.81 6.43-1.81 6.43s-1.062 3.685 2.37 4.434c-1.06-1.498-.436-2.81-.436-2.81s4.81-.5 4.496-6.368c.188 5.305 3.06 6.616 3.06 6.616s0 2.935 3.12 3.184c-1.684-1.497-1.31-3.807-1.31-3.807s4.06-2.935.624-7.93c2.06-1.186 3.747-4.494 3.747-4.494s-2.81-1.19-4.12-2.187c-.625-1.312-.062-8.49-.062-8.49l-1.687-9.304-4.807 14.484c.188-2.06.314 6.243-6.49 6.243zm-200.452-18.86c.15.15 5.08 5.676 9.86 5.377 1.792-1.494-3.735-4.78-3.735-5.528 1.942 1.794 10.16 8.815 15.387 6.275 2.092-2.988-3.735-2.54-10.16-10.607 4.483 2.988 15.687 9.56 20.917 7.022 2.24-2.39-11.653-9.86-16.284-15.687l-11.95-6.125-16.286 13.297 12.25 5.975zM375.78 74.843s5.53-3.287 27.638-1.643c2.39.3 15.088-4.33 19.123-5.675 6.425-1.195 26.89-5.677 32.42-9.86 3.884-.45-1.047 7.17-5.975 8.963-5.23 2.39-24.202 8.964-30.926 8.068 8.067.15 3.585 6.723-9.86 3.585 6.423 3.586 4.033 4.184 4.033 4.184s-11.354.6-14.34-1.942c7.618 2.84 4.48 3.885 4.48 3.885s-7.768.747-11.353-.896c5.526 1.643 2.687 2.69 2.687 2.69s-4.48.746-8.216-.6c-3.733-1.343-9.41-10.754-9.71-10.754zm8.865 48.51l.812 14.61s-.437.75-.812 1.188c-.375.436-10.363-1.562-8.99 6.056 0 3.12.062 3.93 2.186 5.68-.56-2.06-.374-3.496-.374-3.496s2.81 1.687 5.558-2.934c-1.873 4.558-.563 6.182-.126 6.306.437.812-.748 4.495 2.997 4.432-1.435-1.372-.75-3.37-.75-3.37s3.934-.625 2.56-7.742c1.437-1.437 2-.062 2-.062s.435 4.244 3.87 3.37c1.56.874-.25 3.184-.25 3.184s2.498.063 3.246-2.06c.75-2.123 1.624-5.93-2.497-7.492-.5-1.498 1.625-1.622 1.625-1.622s2.62.873 3.37 2.184c.75 1.31.5-3.433-2.746-3.934-3.995-.124-4.245-.936-4.245-1.123 0-.19-.687-10.616-1-13.613l-6.43.437zm13.9 12.45c.05-.67-6.815-9.914-5.073-11.11 1.74.36 4.595 4.564 6.91 3.2-.703-1.64-2.77-.718-5.116-4.913-2.345-4.74-2.688-11.86-10.905-19.626 5.32 8.218 17.39 13.035 17.9 10.64s-10.625-11.46-10.055-13.643c2.215 4.486 13.397 14.48 21.635 13.65.565-1.923-6.747-5.806-8.628-9.432-5.264-3.535-19.348-15.676-19.63-18.49-5.125-7.476-8.325-9.738-9.814-10.6-.576-.677-.72-1.326-.833-1.738-3.182-7.5 1.032-9.937 3.498-10.297 2.03-.226 2.62.08 4.08-.63-1.73-.675-3.458-1.308-5.187-1.985 2.255 1.654 8.015.198 6.766 4.962 2.525-.96 7.9-7.353-6.09-8.796-4.552-5.222-23.27-8.225-27.953 14.57.372.32.57.58 1.76 1.47-5.917-2.858-21.858-5.068-27.6-5.995-15.525-4.48-31.646-15.274-33.195-13.947-2.073.92 9.378 11.574 8.782 11.81-9.928-5.79-19-9.89-27.438-13.623-5.94-2.22-11.885-7.387-12.54-6.403-2.186 4.526 9.52 15.906 11.695 17.244 2.178 1.28 19.3 9.225 19.05 9.324-25.792-11.707-30.117-13.83-31.41-15.177-2.274-.513-7.812-7.99-9.354-7.51-.844.832.85 12.645 13.157 17.947 2.006 1.463 26.38 10.207 26.142 10.892-.06.17-27.918-11.497-29-11.914-5.37-2.107-11.96-9.49-13.194-8.658-1.176.753 3.037 8.744 8.464 11.25 2.847 1.255 13.758 6.66 23.59 10.1.627.226-17.67-6.94-26.47-10.616-3.99-2.215-5.867-4.974-6.475-4.38-.897.594 1.452 12.398 29.724 19.058.743.317 9.95-2.182 9.496-1.85-.114.082-9.144 2.048-10.02 1.98-.784-.118-5.73.587-5.82.843-.3.8 1.792 5.025 16.39 4.143 1.865-.11 11.992-3.687 11.142-2.918-.426.385-13.792 4.728-14.81 4.814-.884.123-5.578.615-5.752 1.113-.212.68 3.475 3.69 11.314 4.172 6.942.37 20.13-4.24 19.866-3.942-.265.3-12.714 4.565-13.04 4.825-.45.255-5.01.5-5.17.852-.372.87 6.577 7.37 27.124.434-2.064 2.79-12.023 4.696-12.01 5.2-.046.363 2.195 2.527 5.676 3.302 1.742.387 4.125.31 6.303-.036 3.91-.782 8.033-2.33 13.27-7.17.626 1.52-13.08 8.456-12.438 9.118 2.972 2.756 12.845-.355 13.492-.717.647-.36 19.012-10.717 18.95-11.915.284 1.536-23.68 14.557-23.42 15.092 1.538 2.454 9.724-.13 10.115-.355.39-.225 10.446-5.658 10.72-5.82.277-.16-11.817 7.08-10.74 8.182-.52 4.7 18.887-3.246 20.408-4.234.76-.496-9.324 4.433-9.35 6.775 3.247 5.49 13.644 3.75 15.248 2.542.802-.605-.944 4.078-.382 3.653.196-.088 2.262-2.53 3.056-4.298-.253 1.533-1.393 3.95-2.058 6.722-.666 2.772-.856 5.9-1.77 9.225-.21 1.46 6.406-2.856 5.445-13.17.566 5.365-2.09 15.397-1.395 15.92 1.39 1.04 5.232-5 5.62-9.08 1.143 2.06 3.537 6.366 5.598 7.357-.224-3.12.04-2.977-.888-6.044.535-4.073.61-9.708.74-16.072 5.598 10.727 7.83 15.256 6.267 23.47 1.663.694 4.323-5.733 4.11-9.04 2.136 9.19 11.364 10.57 11.51 10.302zM305.29 67.71s-3.81 2.88-8.553 2.71c1.185 4.742 11.008 1.1 11.008 1.1s-4.742 5.25-8.13 6.097c2.033 1.692 10.587 1.1 12.026.253 1.437-.848 3.98-4.15 3.98-4.15s-8.81 10.162-10.08 10.077c-.17 1.186 9.23.763 11.18-1.015 1.946-1.778 6.86-4.404 6.86-4.404s-12.874 8.98-13.467 8.98c4.828 1.27 14.482-1.525 20.664-5.337-9.147 6.097-9.993 7.2-14.65 9.23 4.15.932 6.266 3.727 20.324-2.37 8.046-3.81 12.618-10.755 12.618-10.755-4.996 6.69-12.873 12.363-21.595 17.953-.51 1.017 9.315 5.166 21.848-7.875m24.056 7.79s.846 3.98 4.233 7.03c3.386 3.047 3.64 6.01 3.64 6.01m-9.568-38.952s1.186 3.556 4.657 5.842c3.557 2.287 8.893 9.484 9.316 10.756.41 1.54 2.455 12.62 2.286 13.805m-37.855-24.897c.254 1.355-4.997 8.214 2.202 16.26-6.523 7.96-6.52 8.975-6.52 8.975s3.64 2.033 10.16-3.557c10.754 13.212 7.17 19.257 7.17 19.257m-.855-9.325s-.99-1.42.775-6.718c1.592 1.915 3.36 2.325 4.136 3.1.774.776 8.894 1.95 9.41 7.38M371.788 57.455c0-.4-1.635-3.908-7.736.478 3.27.2 6.5 2.074 7.736-.478zM430.012 73.5c.3.15 18.225 4.033 24.2 2.09-7.618 10.16-22.857 3.287-22.857 3.287 7.47 2.24 7.77 2.092 10.16 4.184.747 1.944-13.745 1.047-18.525-1.642 13.296 4.183 13.594 3.884 14.043 5.527.6 2.24-21.812-.598-23.753-3.585 5.975 4.63 9.262 5.526 12.55 7.618-4.036 1.793-11.505 3.585-25.25-6.125 18.078 16.433 34.362 15.387 36.9 18.375-6.273 9.262-30.624-5.528-41.83-12.997-11.203-7.47 24.5 18.078 27.79 17.63-1.645 2.54-13.447.3-14.194-.896m25.4-16.284c-2.093.3-8.367.3-9.263.148M300.037 65.002s13.635 7.198 19.393 6.69c-1.523 1.44-3.81 2.032-3.81 2.032 1.44.592 5.42 2.71 11.432 1.355-1.44 1.44-3.302 3.047-3.302 3.047s5.165 1.947 11.008-1.102c-1.778 2.202-2.795 3.812-2.795 3.812l4.067.253"/></g></g></svg>